<svg width="50" height="50" viewBox="0 0 50 50" fill="none" xmlns="http://www.w3.org/2000/svg">
<path fill-rule="evenodd" clip-rule="evenodd" d="M9.6875 1.5625C7.53262 1.5625 5.46599 2.41852 3.94226 3.94226C2.41852 5.46599 1.5625 7.53262 1.5625 9.6875V40.3125C1.5625 42.4674 2.41852 44.534 3.94226 46.0577C5.46599 47.5815 7.53262 48.4375 9.6875 48.4375H40.3125C42.4674 48.4375 44.534 47.5815 46.0577 46.0577C47.5815 44.534 48.4375 42.4674 48.4375 40.3125V9.6875C48.4375 7.53262 47.5815 5.46599 46.0577 3.94226C44.534 2.41852 42.4674 1.5625 40.3125 1.5625H9.6875ZM4.6875 9.6875C4.6875 8.36142 5.21428 7.08965 6.15197 6.15197C7.08965 5.21428 8.36142 4.6875 9.6875 4.6875H40.3125C41.6386 4.6875 42.9104 5.21428 43.848 6.15197C44.7857 7.08965 45.3125 8.36142 45.3125 9.6875V40.3125C45.3125 41.6386 44.7857 42.9104 43.848 43.848C42.9104 44.7857 41.6386 45.3125 40.3125 45.3125H9.6875C8.36142 45.3125 7.08965 44.7857 6.15197 43.848C5.21428 42.9104 4.6875 41.6386 4.6875 40.3125V9.6875ZM7.31667 34.3167L13.9708 15.3V13.925H19.2833L26.6458 34.3167H22.0833L20.35 29.5521H13.1437L11.5292 34.3167H7.31667ZM14.2854 25.4979H19.1667L16.7292 17.5458L14.2854 25.4979ZM40.2687 30.4167V33.9583C39.5458 34.25 37.5437 34.8271 35.3083 34.8271C32.5125 34.8271 27.4333 33.4875 27.4333 26.5187C27.4333 20.3771 31.9625 18.6062 35.3083 18.6062C38.3 18.6062 41.6458 20.8104 41.6458 25.0229V27.7792H31.9625C32.2375 28.8937 33.4021 31.125 35.8583 31.125C38.3146 31.125 39.8229 30.6521 40.2687 30.4167ZM32 24.8271H37.6312C37.5646 23.8562 36.9229 21.9125 34.875 21.9125C32.8271 21.9125 32.1042 23.8542 32 24.8271Z" fill="#3F6A45"/>
</svg>
