<svg width="42" height="42" viewBox="0 0 42 42" fill="none" xmlns="http://www.w3.org/2000/svg">
<path d="M21 35.28C13.104 35.28 6.71997 28.896 6.71997 21C6.71997 13.104 13.104 6.71997 21 6.71997C28.896 6.71997 35.28 13.104 35.28 21C35.28 28.896 28.896 35.28 21 35.28ZM21 8.39997C14.028 8.39997 8.39997 14.028 8.39997 21C8.39997 27.972 14.028 33.6 21 33.6C27.972 33.6 33.6 27.972 33.6 21C33.6 14.028 27.972 8.39997 21 8.39997Z" fill="white"/>
<path d="M21.0001 28.896L12.8521 20.748L14.0281 19.572L21.0001 26.544L27.9721 19.572L29.1481 20.748L21.0001 28.896Z" fill="white"/>
<path d="M20.1599 13.44H21.8399V27.72H20.1599V13.44Z" fill="white"/>
</svg>
