<?xml version="1.0" encoding="UTF-8"?>
<svg id="Layer_2" data-name="Layer 2" xmlns="http://www.w3.org/2000/svg" viewBox="0 0 179.47 540.88">
  <defs>
    <style>
      .cls-1 {
        fill: #bc725b;
      }

      .cls-2 {
        fill: #ffe7f4;
      }

      .cls-3 {
        fill: #bf9edd;
      }

      .cls-4 {
        fill: #839a26;
      }

      .cls-5 {
        fill: #936aae;
      }

      .cls-6, .cls-7 {
        fill: #68701b;
      }

      .cls-7 {
        opacity: .5;
      }

      .cls-8 {
        fill: #b297ce;
      }

      .cls-9 {
        fill: #cc7d5f;
      }

      .cls-10 {
        fill: #718713;
      }

      .cls-11 {
        fill: #563a22;
      }
    </style>
  </defs>
  <g id="Layer_1-2" data-name="Layer 1">
    <g id="bell-flower-pot">
      <g id="flower-pot">
        <g id="pot">
          <ellipse class="cls-11" cx="71.43" cy="433.71" rx="55.18" ry="8.44"/>
          <path class="cls-1" d="M17.17,434.82c-2.11-1.44,4.75-4.4,6.27-4.83,1.24-.35,2.14-.77,5.1-1.29,2.23-.39,4.59-.76,5.17-.83,7.85-1.04,23.24-1.51,23.24-1.51,12.98,0,19.46-.24,23.52,0,17.49,1.05,22.87,1.9,26.9,2.47,2.52.35,9.03,1.47,15.24,3.58.9.3,4.52,1.14,2.81,3.33,0,0,3.27-1.08,5.09-3.05.49-.54,1.03-.97,1.03-.97-.26-2.44-7.04-5.29-11.19-6.02-14.24-2.5-21.61-2.93-21.61-2.93-13.26-.77-19.89-1.15-27.1-1.11-6.75.04-12.53.39-24.08,1.11-3.32.21-10.78.69-19.48,2.22-3.32.58-4.13.72-8.15,1.67-5.09,1.2-8.85,2.44-9.57,4.5-.33.94-.37,1.59-.37,1.59,2.31.89,3.88,1.32,7.18,2.08h0Z"/>
          <path class="cls-9" d="M10,432.74c14.56,4.35,25.22,6.81,34.33,7.76,10.87,1.14,26.69,1.44,35.89,1.08,21.36-.84,24.27-1.49,33.11-2.83,6.22-.94,7.36-1.01,15.28-5.05.73-.37,2.94-2.01,2.94-2.01.66,1.19,1.58,4.04,1.62,6.86.62,45.83-5.05,67.23-5.05,67.23-3.57,9.14-7.19,18.07-16.35,25.03-2.94,2.23-7.36,4.95-15.95,7.47-10.13,2.97-39.42,4.9-58.1-3.06-6.1-2.6-17.57-12.05-20.73-19.48-3.12-7.34-5.15-17.11-6.36-40.24-.56-10.66-1.5-25.75-.63-42.77Z"/>
        </g>
      </g>
      <g id="bell-flower">
        <g id="flower-stem">
          <path class="cls-4" d="M65.64,433.48c-7.43-13.89-9.11-27.57-9.11-27.57-1.09-8.87-.55-12.85,0-32.13.3-10.56.42-19.13.47-24.58-.46-.35-1.12-.85-1.91-1.44-2.59-1.94-3.3-2.42-4.08-2.88-1.87-1.1-2.83-1.65-3.84-1.32-.87.29-1.66,1.18-1.56,1.92.07.53.58.78,1.32,1.32,0,0,1.44,1.05,2.64,2.52.67.83,1.28,2.32.72,5.27-.71-.63-1.71-1.56-2.88-2.76-1.06-1.09-1.35-1.47-1.81-1.44-1.49.09-2.04,4.3-2.87,4.2-.45-.06-.82-1.38-.84-2.4-.02-.89.24-1.27,0-1.56-.2-.24-.79-.48-2.88.36-3.62,1.44-5.38,3.55-5.75,3.24-.3-.25.46-1.91,1.56-3.24.46-.56,2.15-2.61,5.04-3.48,1.41-.43,2.3-.32,3.12-1.2.56-.6.76-1.31.96-2.04.57-2.05,0-3.13.6-3.6.62-.49,1.9.19,2.88.72,5.51,3.02,7.12,4.91,8.27,4.44,1.1-.45,1.01-2.73,1.08-5.33.12-4.25,1.22-8.42,1.56-12.66,1.32-16.34,4.75-21.06,3.24-32.37-.25-1.89-.39-2.04-.84-5.27,0,0-1.21-8.63-3.12-15.35-.18-.63-.55-1.88-1.68-2.64-1.37-.92-3.02-.55-3.36-.48-.19.04-2.08.49-3.15,2.28-.62,1.04-.71,2.11-.69,3.12.1,3.79,1.8,5.01,2.64,8.63.88,3.81.19,7.61-.36,7.67-.14.02-.31-.21-.96-2.04-1.25-3.53-1.87-5.3-2.16-7.55-.39-3.04,0-4.71-.96-5.16-.54-.25-1.18.03-1.8.36-4.18,2.21-6.56,5.99-6.95,5.75-.15-.09.13-.75.84-2.64,0,0,.86-2.3,1.92-5.39-.65-.35-1.63-.8-2.88-1.08-1.25-.27-2.86-.4-6.47.36-4.3.9-6.17,1.94-6.47,1.44-.28-.45.93-1.87,2.28-2.76.57-.37,2.06-1.26,6.35-1.44,3.8-.16,4.62.44,7.07-.24,1.46-.41,2.54-1,3.36-1.45,3-1.66,3.11-2.75,5.16-3.46,2.22-.77,4.28-.24,5.04,0,2.82.89,4.3,3.08,4.8,3.84,1.59,2.42,1.09,3.91,2.04,9.35.74,4.24,1.88,8.2,2.16,8.15.25-.04-.38-3.27-.6-7.91-.19-4,.15-4.48.84-17.62.13-2.55-.23-5.14.12-7.67.21-1.55.54-3.04-.24-4.56-.75-1.47-2.13-2.12-2.64-2.4-4.31-2.33-6.06-9.81-6.59-12.11-1.93-8.29,1.06-15.8,2.16-18.22,1.31-2.87,3.14-5.58,3.96-10.07.43-2.36.04-2.25.6-5.75.33-2.09.7-3.51-.12-4.84-.13-.21-.74-1.22-1.68-1.27-1.32-.08-2.28,1.8-2.4,2.04-.48.94-.83,2.38-.24,4.68,1.01,3.94,3.27,4.39,5.75,9.35,1.07,2.13,1.62,3.22,1.56,4.8-.16,4.49-5.1,7.85-5.63,7.43-.43-.33,2.31-2.7,2.76-7.19.5-5.04-2.31-8.36-3.36-9.35-.78-.74-1.35-.9-1.8-.84-1.02.13-1.58,1.43-1.92,2.04-2.1,3.81-8.82,4.78-9.11,4.2-.13-.25.96-.82,4.2-3.6,4.05-3.47,4.07-4.06,3.96-4.32-.28-.65-2.06-.61-3.36-.24-1.94.55-2.54,1.75-4.22,3-1.91,1.42-3.77,1.81-5.97,2.28-4.4.93-8.5.23-8.51-.12,0-.23,1.79-.16,4.68-.96,2.76-.76,4.74-1.83,6.23-2.64,4.62-2.52,4.96-3.98,7.55-4.2,2.31-.19,3.22.89,4.32.12,1.23-.86.73-2.66,1.2-6.48.3-2.45.84-6.87,2.4-7.19,1.65-.34,3.8,4.01,4.32,5.04,1.63,3.29,1.87,6.24,1.92,7.43.09,2.15-.21,4.07-1.08,7.19-1.55,5.55-2.69,6.96-4.08,11.03-1.61,4.74-3.38,9.94-1.92,15.94.76,3.11,1.55,6.37,4.32,8.63,1.65,1.35,3.73,2.12,4.92,4.68.7,1.51.79,3.02.96,3,.28-.03,0-4.18,0-4.2-.27-4.02.11-8.55,1.92-19.42,2.94-17.61,5.81-26.09,8.06-30.53,3.59-7.1,4.77-8.31,6.32-14.72.6-2.45,1.34-6.94,4.14-8.03.29-.11,1.58-.62,2.64,0,1.22.71,1.31,2.45,1.32,2.64.08,2.22-2.12,4.01-5.04,6.11-6.75,4.87-11.2,7.03-11.03,7.43.16.37,4.33-.53,8.63-2.76,3.35-1.73,3.63-2.63,5.16-2.64,4.51-.04,7.92,7.71,8.39,7.43.5-.3-4.23-8.27-3-9.23.64-.5,2.69,1.02,3.09,1.32,1.46,1.08,2.24,2.31,2.61,2.91,2.14,3.45,2.44,4.9,3.52,6.68,2.56,4.19,7,6.11,7.19,5.87.13-.16-1.64-1.36-4.08-4.2-3.21-3.74-5.41-7.02-6.22-11.51-.27-1.49-.87-2.78-1.93-3.96-1.3-1.44-2.65-1.01-3.84-2.52-1.04-1.33-.28-2.04-1.32-3.9-1.15-2.06-3.39-3.53-4.56-3.06-.18.07-.66.33-1.06.81-.36.44-.5.87-.49.87,0,0,.69-2.14,4.92-11.99,5.2-12.13,7.8-18.2,8.63-19.66,0,0,4.95-8.68,5.99-16.54.08-.62.15-1.68-.48-2.52-.79-1.04-2.25-1.15-3-1.2-2.59-.18-4.61,1.18-5.39,1.8-.6.47-2.61,2.05-3,4.56-.2,1.29.21,1.66,1.08,4.8,1.43,5.21,1.11,7.18.72,8.39-.29.88-.85,2.1-1.32,2.04-.67-.08-.44-2.75-2.04-6.11-.36-.76-1.25-2.65-1.92-2.52-.63.12-.47,1.93-1.08,4.44-.87,3.59-2.72,6.23-3,6.11-.3-.12,1.2-3.37,1.44-8.39.12-2.5.2-4.83-1.08-5.63-1.28-.8-3.01.52-5.16,1.32-7.14,2.67-15.31-1.78-15.23-2.16.05-.23,3.32.89,8.87.72,1.71-.05,11.54-.36,12.47-4.08.3-1.2-.44-2.32-.72-2.76-1.47-2.26-4.57-2.41-7.31-2.53-2.06-.1-3.6-.17-4.56.86-.86.92-.54,1.95-1.56,2.76-.9.71-1.89.51-3,.6-2.28.18-3.89,1.46-5.51,2.76-3.6,2.87-3.86,6.61-8.03,11.27-.42.46-1,1.08-1.2.96-.4-.24.83-3.24,2.04-5.51,3.41-6.42,7.42-8.48,6.59-11.03-.33-1.01-1.24-1.55-1.68-1.8-3.72-2.16-9.94,1.61-9.83,1.92.1.29,6.11-2.09,10.43-4.68.83-.5,2.02-1.26,1.92-2.04-.12-.92-1.94-1.28-3.6-1.8-3.8-1.18-7.44-3.39-9.47-5.63-2.96-3.27-3.54-7.76-3-8.03.38-.19,1.32,1.66,3.96,4.56,2.65,2.91,3.97,4.36,5.99,5.39,3.29,1.68,4.91.53,11.15,2.4,1.66.5,2.96,1,4.08,2.16,1.12,1.16,1,1.88,2.04,2.52,1.32.81,2.31.11,4.8.24,1.68.09,3.7.19,5.16,1.44,2.14,1.83,1.45,4.79,3.36,5.39.71.22,1.36,0,1.68-.12,1.99-.7,1.84-2.89,3.6-4.8,1.65-1.79,4.38-2.69,6.59-2.4,2.67.35,3.12,2.23,5.04,2.04,3.02-.3,5.18-5.31,4.56-5.87-.41-.37-1.72,1.47-4.54,1.94-2.76.47-5.73-.58-5.77-1.46-.04-.89,2.9-1.05,7.19-3.36,1.06-.57,3.85-2.07,5.75-4.08,3.21-3.38,2.43-6.66,4.08-13.43,1.33-5.47,3.34-9.51,5.75-14.39,0,0,5.37-10.81,4.32-14.63-.01-.05-.28-1-.64-2.25-.37-1.29-.8-2.78-.8-2.78h0s-.31-.41-.6-.48c-.34-.08-.88.27-1.03.72-.23.66.53,1,.85,2.25.06.24.34,1.42-.18,2.52-.4.85-.91.85-1.21,1.48-.55,1.16.44,2.6.9,3.51,1.94,3.86-.28,9.24-.81,9.22-.46-.02-.83-4.29-.99-6.11.02.28-.28-1.31-.9-4.5-.12-.63-.21-1.07-.45-1.12-.56-.12-1.23,2.01-3.33,4.81-.6.81-1.28,1.7-1.53,1.57-.43-.21.66-3.36.9-4.05.81-2.32,1.51-3.51,1.26-3.69-.27-.19-1.1,1.23-3.01,2.34-1.74,1.01-3.47,1.22-4.86,1.39-2.79.35-2.78-.32-4.14.22-1,.4-2.09,1.26-4.27,2.97-.66.52-.99.8-1.08.72-.23-.19.94-2.63,2.79-4.23,3.16-2.73,5.49-.6,9.04-3.19,2.15-1.57,2.1-2.94,5.04-4.63,1.68-.97,2.02-.71,2.92-1.57,2-1.91,1.58-4.36,3.37-5.04.16-.06.96-.34,1.71,0,2.22,1.01,1.21,6.19,2.11,6.38.96.21,2.96-5.54,3.58-7.39,2.24-6.62,3.36-9.94,3.24-14.27-.03-1.22-.54-3.65-1.56-8.51-.12-.55-1.17-5.53-3.24-12.23-1.63-5.29-2.21-6.21-3.24-6.95-2.33-1.7-5.43-1.42-7.79-1.2-1.91.18-2.69.59-3.24,1.08-.31.28-1.1,1.1-1.44,3.48-.41,2.93.45,4.12.48,6.59.02,1.76-.51,3.17-1.56,5.99-1.88,5.04-4.91,10.28-5.75,9.95-.21-.08-.22-.73-.24-2.04,0,0-.02-1.18.24-3.84h0s.11-1.55-.24-1.68c-.36-.14-1.36,1.25-2.04,2.76-1.06,2.37-.9,4.04-1.32,4.08-.44.03-1.02-1.76-1.2-3.36-.07-.65-.22-2.02.24-3.72.85-3.17,3.03-4.61,5.63-8.63.07-.11.84-1.33.96-3,.07-1.01-.16-1.25-.24-1.32-.72-.64-2.73.56-3,.72-2.49,1.52-2.27,3.2-4.68,4.8-1.38.92-3.09,1.45-3.36,1.08-.16-.23.23-.77,2.04-2.88,2.04-2.37,3.23-3.64,4.56-5.39,2.19-2.89,2.12-3.62,2.04-3.96-.27-1.13-1.52-1.57-3.96-2.64-4.47-1.95-6.7-2.93-8.39-4.32-2.94-2.41-4.44-5.82-4.08-6.11.25-.21,1.38,1.15,3.84,3.12,2.88,2.31,8.64,6.92,13.31,6.47.52-.05,1.71-.23,3.24.12,1.65.37,2.01.97,3.12,1.32,2.09.66,3.02-.77,7.31-1.8,2.52-.6,4.43-1.03,6.23-.12.95.48,1.72,1.26,2.76,3.12,1.81,3.24,2.42,6.17,3.24,10.43,1.24,6.47,1.59,8.85,2.28,8.87.38.01.57-.72,1.92-3.72,1.91-4.26,2.34-4.61,2.76-4.8,1.75-.76,4.15,1.19,6.23,2.88,2.82,2.29,4.44,4.74,5.75,6.71,1.17,1.76,1.91,3.22,2.95,5.26,0,0,1.13,2.23,1.01,2.29-.06.03-2.23-5.56-5.75-7.07-.45-.19-.86-.29-1.2-.12-.77.39-.57,1.86-.96,5.04-.28,2.24-.49,2.38-.6,2.4-.61.08-1.68-3.36-1.68-3.36h0s-.73,1.58-1.2,2.88c-.81,2.24-.8,3.48-1.08,3.48-.34,0-.58-1.89-.72-3-.33-2.64-.5-3.95-.24-5.04.28-1.14,1.07-3.2,2.28-4.92.19-.28.55-.75.6-1.44.1-1.32-.99-2.32-1.08-2.4s-1.12-.96-2.28-.84c-2.64.28-4.1,5.57-4.68,7.67-.17.62-.6,2.27-.84,4.68-.46,4.6.33,6.29.12,9.47-.16,2.42-.79,3.96-2.64,8.27-5.88,13.71-8.38,18.68-6.95,19.9.67.57,1.4-.36,4.2-.12,2.86.25,4.98,1.47,5.99,2.16,2.72,1.84,3.95,4.18,4.2,4.68,1.68,3.33.01,4.14,1.32,7.67,1.41,3.81,4.28,5.42,4.92,9.35.16.98.09,1.59-.24,1.8-.71.44-2.42-1.12-2.64-1.32-2.16-1.98-2.28-3.99-3.12-3.96-.46.02-.59.64-2.04,3.24-1.06,1.9-1.08,1.73-1.44,2.52-1.17,2.54-1.07,4.57-1.32,4.56-.27-.01-.44-2.43-1.08-6.59-.24-1.57-.33-1.95-.6-2.04-1.47-.45-5.08,8.87-6.11,8.51-.44-.15-.45-2.03,0-3.12,1.81-4.36,2.48-7.12,4.57-10.65.64-1.09,1.75-2.47,4.54-5.05,1.38-1.28,2.09-1.97,2.16-3,.1-1.47-1.15-2.63-1.8-3.24-2.81-2.62-6.68-2.32-7.07-2.28-.41.04-3.74.4-6.23,3.12-.36.39-1.02,1.18-2.88,6.47-1.28,3.65-1.92,5.47-2.28,7.55-.38,2.22-.76,4.51-.24,7.43.35,1.99.65,3.66,1.92,5.27,1.38,1.76,2.58,1.77,3.72,3.78.82,1.45.44,1.86,1.2,3.36.62,1.21,1.13,1.44,3.96,3.96,3.48,3.1,4.46,4.3,6.23,4.2.38-.02.63-.09,1.05-.21,1.9-.54,2.79-1.63,5.18-3.74,2.45-2.16,2.75-2.11,2.88-2.04.62.33.63,2.69-.6,4.2-2.04,2.51-6.15.95-7.19,3.12-.5,1.04-.04,2.4.24,3.24.6,1.77,1.78,2.78,1.68,2.88-.13.12-1.71-1.36-4.08-3.12-1.52-1.13-1.99-1.36-2.4-1.2-1.14.45-.8,3.59-1.08,3.6-.25.01-.03-2.46-1.32-4.92-1.09-2.08-2.87-3.42-3.12-3.6-1.63-1.2-2.37-.99-3-2.04-.68-1.12-.05-1.72-.6-3.72-.28-1.01-.73-2.64-1.92-3.12-1.14-.45-1.81.62-3.48.6-2.25-.03-2.85-2-4.2-2-3.12,0-5.58,10.34-6.32,13.69-1.83,8.36-.72,8.83-2.16,14.15-1.72,6.38-3.95,8.07-8.39,16.54-2.8,5.35-3.36,7.44-7.22,16.9-8.37,20.51-9.14,18.95-12.68,28.86-1.34,3.74-1.21,3.92-9.2,46.79-1.1,5.91-2.63,14.09-1.08,14.63.9.31,2.48-2.06,4.92-5.75,5.61-8.51,5.87-11.87,10.19-15.11,1.38-1.03,3.47-2.56,6.38-2.76,3.68-.25,6.24,1.79,9.68,4.08,6.23,4.14,11.24,7.47,17.26,8.87,6.79,1.58,14.99.72,14.99.72h0s1.51.26,1.56.6c.07.53-3.43,1.4-3.6,1.44-3.17.78-5.14,1.27-7.67,1.08-2.2-.16-4.15-.99-8.03-2.64-4.26-1.81-6.85-3.34-7.07-3-.12.18.57.73,2.04,2.28.75.79,3.65,3.85,3.36,4.2-.21.25-1.9-1.06-5.39-2.88-2.59-1.35-3.9-2.02-4.8-1.8-3.15.76-4,7.6-4.08,8.27-.15,1.31-.14,4.07-.12,9.59,0,1.52.02,2.79-.36,2.88-.57.13-1.7-2.49-2.28-4.2-.97-2.84-2.18-6.39-.96-10.07.8-2.41,1.92-2.69,2.88-6.11.57-2.03.53-3.22.48-3.84-.07-.8-.24-2.82-1.68-4.56-1.92-2.31-5.37-3.21-8.03-2.28-1.29.45-2.23,1.28-3.84,3.36-2.72,3.52-3.96,6.24-5.51,9.23-1.58,3.03-3.62,6.94-6.71,11.39-2.01,2.89-3.21,4.21-4.08,6.95-.96,3.04-.79,5.55-.72,6.83.64,11.92-2.03,21.75-.6,22.06.5.11,1.61-2.09,3.84-6.47,4.57-9,4.68-9.23,4.68-9.23,1.64-3.46,2.4-5.28,3.6-5.27.84,0,1.75.9,2.04,1.8.28.87-.16,1.33-.12,2.28.06,1.53,1.27,2.37,2.04,3.36,1.6,2.07.39,3.74.96,7.79.76,5.44,3.77,8.32,2.76,9.23-.5.45-1.66.13-2.4-.36-1.74-1.15-1.56-3.49-2.88-9.83-.39-1.86-.73-3.25-1.08-3.24-.5.02-.36,2.98-2.16,6.47-.48.94-1.22,2.14-1.46,2.04-.23-.09.19-1.22.5-3.48.31-2.31.36-4.67.36-4.68h0s-1.92,1.63-3.24,3.36c-1.44,1.89-2.12,3.85-2.52,5.04-.7,2.06-.86,3.61-1.2,3.6-.46-.02-.45-2.81-1.08-2.88-.44-.05-.92,1.3-1.2,2.04-1.32,3.44-3.02,5.09-3.84,6.47-3.21,5.45-2.47,23.34-3,34.65-.37,7.84-1.02,5.63-1.92,16.66-1.07,13.13-1.97,24.14.24,37.4,1.34,8.05,4.99,23.91,5.99,28.29.91,3.95,2.33,9.99,1.44,10.31-.13.05-.75.12-3.09-4.24Z"/>
          <path class="cls-4" d="M75.68,432.93c2.35-9.95,4.62-18.3,6.47-24.7,2.81-9.71,4.73-15.24,5.28-16.78.48-1.36,2.39-6.79,5.51-14.39,5.24-12.76,6.2-12.93,11.03-24.22,6.53-15.26,8.56-23.78,12.47-23.74,1.44.02,2.85,1.61,3.36,2.16,2.08,2.25,2.88,5.76,1.92,6.47-.73.54-2.5-.52-3.36-1.2-1.62-1.28-1.72-2.57-2.4-2.64-1.43-.14-3.03,5.36-3.84,7.91-1.86,5.91-5.01,11.33-7.43,17.02-2.68,6.3-5.41,12.68-6.95,16.3-4.64,10.87-5.02,11.68-6.08,14.39-2.25,5.7-4.43,11.81-5.66,15.82-2.06,6.69-4.67,17.88-4.8,33.81-1.84-2.08-3.68-4.16-5.51-6.23Z"/>
        </g>
        <g id="flowers">
          <g id="flower-16">
            <path class="cls-3" d="M112.01,97.65c.96,1.63.93,3.33.9,5.13-.03,2.06-.43,3.61-1.26,5.75-2.75,7.11-3.78,10.79-5.66,11.87-.5.29-3.7,2.04-5.27,2.7-.46.19-1.18.45-1.86,1.14-.4.41-.43.6-.6.6-.69-.01-1.5-3.34-1.83-6.11-.13-1.14-.15-1.83-.72-2.37-.53-.49-1.18-.53-2.89-.54-2.83-.02-4.24-.03-4.63.09-2.4.77-3.06,2.65-4.05,2.29-.65-.24-.83-1.22-1.08-2.7-.31-1.84-.58-3.42,0-5.26.68-2.15,2.18-3.63,2.2-5.48,0-.24-.02-.6-.22-.94-.49-.82-1.67-.94-2.07-.99-2.7-.34-6.58-2.18-6.52-2.97.04-.56,2.03-.27,4.77-1.44,1.79-.77,2.25-1.45,5.62-4,2.45-1.86,3.68-2.79,4.83-3.42,3.2-1.76,5.79-1.81,8.84-1.98.56-.03,1.29-.05,2.07.31,1.39.65,1.76,1.95,2.43,3.06,2.03,3.34,5.16,2.11,7.01,5.26Z"/>
            <path class="cls-4" d="M108.23,90.02c-.41-.22-2.44-1.28-3.91-2.16-.52-.31-1.16-.7-1.16-.7-.85-.53-1.22-.78-1.59-.97-3.8-1.93-9.28,1.55-9.17,1.91.04.14.95-.21,3.1-.24.79-.01,1.73.08,3.6.26.97.1,1.8.19,2.65.74.72.46.76.79.76.88.04.6-.87,1.09-1.39,1.39-1.39.8-2.52,2-3.9,2.82-3.96,2.36-6.66,8.37-6.17,8.75.17.13.67-.45,2.4-1.8,1.7-1.32,3.91-3.04,6.71-4.26,1.39-.6,3.65-1.4,6.41-1.26,2.18.11,2.54.7,2.64.9.11.23.23.72-1.2,3.48-.89,1.72-1.37,2.35-1.2,2.52.24.23,1.53-.62,2.48-1.5,2.09-1.93,2.26-4.2,2.73-4.14.82.11.34,6.85,1.15,6.96.29.04.63-.78,1.32-2.4.67-1.58,1-2.38,1.08-3.12.23-2.34-1.31-4.24-1.62-4.62-.64-.79-2.34-1.68-5.74-3.47Z"/>
          </g>
          <g id="flower-15">
            <path class="cls-5" d="M78.18,10.39c-3.43-.65-3.9-.84-5.13-.72-3.14.3-3.72,1.83-6.47,1.8-2.63-.03-4.57-1.46-5.04-1.81-3.04-2.3-3.46-5.87-3.96-5.74-.45.12-.56,3.21.72,6.29,1.57,3.79,4.64,6.15,6.47,7.55,1.31,1.01,3,1.23,2.96,1.98-.03.62-1.13.81-2.42,1.8-1.18.9-1.76,1.88-2.6,3.33-5.73,9.93-6.04,11.13-5.44,11.95.73,1.02,1.92.18,5.08,1.36,3.02,1.13,3.01,2.29,5.27,3.14,4.42,1.65,8.38-1.31,9.2,0,.44.7-.69,1.56-2.16,5.04-1.07,2.54-1.46,4.44-1.62,5.39-.33,1.93-.89,5.28.39,6,.34.19.97.29,4.75-2.22,2.74-1.82,4.21-2.8,6.2-4.68,2.3-2.17,3.65-4,4.86-5.57,8.11-10.59,10.26-10.44,10.43-13.67.07-1.39-1.99-4.64-6.11-11.15-4.34-6.85-5.53-7.93-7.19-8.63-1.29-.55-1-.07-8.17-1.44Z"/>
            <path class="cls-2" d="M78.23,31.4c.77-.74,1.62-1.37,2.55-1.89.76-.43,1.56-.77,2.34-1.14,1.3-.62,2.57-1.31,3.81-2.03,0-.32-.38-.47-.69-.55-.77-.18-1.54-.36-2.3-.53-.14-.03-.29-.07-.44-.07-.24,0-.48.07-.71.14-1.4.46-2.77,1.06-4.23,1.19-1.28.12-2.58-.12-3.86,0-.23.02-.5.09-.56.3-.08.24.16.46.39.58.79.4,1.72.4,2.61.48.13.01.27.04.34.15.11.19-.11.39-.31.49-1.3.6-2.91.48-4.04,1.36-.24.18-.45.52-.27.76.07.09.18.14.29.17.65.2,1.35.09,1.99-.14.64-.23,1.23-.56,1.86-.82.14-.06.34-.09.4.05.03.08,0,.17-.05.24-.36.61-.91,1.1-1.26,1.72-.24.42-.38.98-.24,1.46.1.34.57.99.98.65.21-.17.19-.92.32-1.19.26-.52.68-.98,1.1-1.38Z"/>
            <path class="cls-3" d="M67.36,16.28c2.36,5.87,3.74,6.24,6.58,8.51,1.21.97,5.95.99,9.69,1.64,5.62.98,7.85-.94,7.92-.71.05.16-2.28.59-4.8,2.43-1.46,1.07-3.37,2.61-5.51,6.59-2.71,5-4.68,17.55-3.05,18.58.13.08,1.73-2.39,2.45-2.4,1.41-.01,3.38-.02,3.75-.07,3.53-.52,4.01-1.46,6.77-3.57,2.75-2.09,2.5-4.09,4.68-6.71.3-.37,1.54-.78,3.84-1.8,2.88-1.28,3.5-1.37,4.7-2.92.18-.24.17-.49.13-.75-.51-3.27,1.89-6.67,2.61-7.66,1.27-1.74,3-3.58,3.97-5.91.3-.72.47-2.36.04-2.81-.24-.25-.68-.15-.99-.14-1.55.02-3,1.56-3.4,1.97-.53.55-.38.62-1.41,1.87-.7.86-.97,1.04-1.47,1.43-.42.32-.33.28-2.23,1.32-.02.01-.2.2-.9.25-.25.02-.55.03-.63-.1-.08-.13.2-.63.26-.71.77-.99.98-1.3.98-1.3.76-.6,1.36-1.53,2-2.25,1.01-1.13,2.14-2.38,3.06-3.58,0,0,.89-1.04,2.15-3.35.06-.11.2-.5.2-.85,0-.54-.41-.92-.52-1.06-.74-.95-3.41-1.8-4.87-2.38-2.82-1.14-3.11-1.67-5.86-2.26-.27-.06-1.02-.21-2.09-.29-4.71-.36-8.29.19-15.97,1.56-2.12.38-4.24.66-6.38.82-1.82.14-8.01-2.72-8.36-1.9-.29.67,2.46,7.97,2.67,8.51Z"/>
          </g>
          <g id="flower-14">
            <path class="cls-3" d="M146.72,42.25c.21,1.91,1.84,4.75,1.84,4.75,1.35,3.45.89,3.89,1.92,4.86.14.13,1.9,1.75,3.06,1.47.19-.05.68-.22,1.14,0,.3.14.37.35.54.32.39-.05.36-1.17.78-1.26.34-.08.59.61.96.54.43-.08.38-1.06.9-1.2.29-.08.42.2.72.18.56-.05.91-1.12,1.2-2.1.58-1.99.87-2.98.84-3.54-.08-1.61-.43-2.16-1.85-4.96-1.04-2.05-1.16-2.68-2.65-4.92-.17-.26-1-1.31-1.78-2.06-.39-.37-.74-.59-1.86-1.23-.23-.13-.82-.24-1.07-.17-.38.11-.64.66-.71,1.24-.14,1.06-.12,1.76-.31,3.27-.06.49-.09,1.46-.42,2.58-.12.41-.08.39-.25.39-.2,0-.44-.36-.52-.49-.69-1.13-1.16-2.87-1.16-2.87,0,0-.47,1.13-.9,2.1-.31.7-.54,1.14-.61,1.7-.03.2.16,1.07.19,1.38Z"/>
            <path class="cls-5" d="M150.24,41.71s-.03.12.06,1.01c.04.36.15,1.38.22,1.98.04.32.1.64.19.95.42,1.44,1.72,5.59,3.41,7.22.53.51.89.78,1.09.78.04,0,.16-.08.19-.15.06-.14.18-.43.24-.71.04-.19.09-.27.1-.31.21-.62-2.62-3.48-3.53-6.29-.2-.61-.23-.95-.57-1.86-.52-1.39-1.24-2.68-1.4-2.62Z"/>
            <path class="cls-5" d="M152.19,39.78c-.11.05.22.97.79,2.85.82,2.68.7,2.79,1.59,5.42,1.29,3.8,1.83,4.49,1.83,4.49.05.09.09.21.28.32.08.04.17.11.34.05.21-.08.33-.46.32-.59-.06-.72-.33-1.34-.37-1.4,0,0-.61-1.44-1.82-4.31-.89-2.11-.59-2.32-1.58-4.45-.52-1.12-1.23-2.44-1.37-2.38Z"/>
            <path class="cls-5" d="M154.89,40.67c-.13.05.27,1.88,1.14,3.78.56,1.23,1.42,2.69,1.92,4.26.19.59.28.89.29,1.26,0,.75-.12,1.42.01,1.81.02.06.15.14.32.14.15,0,.32-.14.42-.25.21-.23.26-.51.28-.6.31-1.17-.67-3.1-.67-3.1-.68-1.35-1.34-2.71-2.03-4.06-1.16-2.24-1.57-3.28-1.67-3.24Z"/>
          </g>
          <g id="flower-13">
            <path class="cls-3" d="M119.1,68.44c-.57.5-1.01.86-1.8,1.38-1.26.83-2.91,1.15-4.82,1.44-1.32.2-1.42,1.5-5.07,7.23-2.6,4.08-2.43,5.04-2.59,6.05-.42,2.6.11,4.82,1.87,6.92.22.26.32.38.4.45,2.18,1.92,6.74-.37,7.06-.54,1.52-.79,2.53-1.93,4.5-4.18,3.56-4.08,6.24-6.55,5.96-9.13-.11-1.05-.12-1.63-.35-3.45-.31-2.4-.74-3.15-.85-4.29-.04-.42-.2-1.33-.51-1.43-.16-.05-.38.2-.46.3-.41.55-.59.94-.6.96-.22.37-.28.5-.73,1.25-.19.32-.35.58-.87,1.36-.29.43-.45.65-.52.73-.21.29-.25.33-.5.67-.03.04-.11.16-.26.34-.09.1-.18.25-.32.37,0,0-.1.11-.3.29,0,0-.24.14-.3.11-.17-.11-.12-.42-.07-.68.14-.66-.12.02.82-2.95.7-2.2,1.71-3.94,1.4-4.11-.2-.11-.85.66-1.11.89Z"/>
            <path class="cls-5" d="M116.09,77.65c-.2-.09-.98,2.09-3.17,5.33,0,0-1.16,1.72-4.92,8.69-.07.13-.37.57-.2.68.08.06.23.1.26.1.59.1,1.5-1.27,1.5-1.27,1.17-1.64,1.99-3.59,2.23-4.13,1-2.3,1.31-1.87,2.58-4.5,1.12-2.32,1.93-4.81,1.72-4.91Z"/>
            <path class="cls-5" d="M106.63,90.63c.07-.68.51-1.63,1.37-3.53.27-.6.7-1.53,1.44-2.59.33-.47.72-1.12,1.48-2.41.12-.21.34-.57.27-.63-.09-.07-.59.4-.74.54-1.21,1.13-1.97,2.51-2.14,2.81-1.46,2.67-1.92,3.59-2.07,4.02-.13.39-.71.84-.53,1.24.27.59.44.78.67.96.08.06.23-.32.24-.42Z"/>
            <path class="cls-5" d="M110.88,92.19c.13-.97,3.11-2.26,4.13-4.34.3-.61.46-2.14,1.11-3.38.09-.18.43-.81.57-.76.12.04.06.54,0,.85-.14.71-.4.86-.57,1.39-.24.76.12,1.01,0,1.82-.1.65-.41,1.08-.87,1.69,0,0-1.16,1.67-2.88,2.56,0,0-.14.1-.64.29-.28.1-.22.04-.59.15-.15.05-.27-.21-.26-.27Z"/>
          </g>
          <g id="flower-12">
            <path class="cls-3" d="M136.29,98.6c-.54.68-.64,1.88-.76,2.69-.27,1.83-.13,1.3-.17,2.32-.02.59-.09,3.27,1.38,7.29.16.43.87,2.36,2.28,4.62.13.2,1.61,2.53,3.3,3.12.17.06.94.33,1.26,0,.2-.2.11-.52.3-.6.23-.1.44.32.78.36.54.06,1.07-.93,1.5-1.74.8-1.53,1.2-2.29,1.44-2.82,1.08-2.42,1.52-2.09,2.16-3.72,1.31-3.38,0-6.29,0-8.09,0-.06,0-.26-.12-.43-.23-.32-.81-.33-1.04-.48-.69-.45-1.24-.68-2.41-2.09-.65-.78-.9-1.36-1.17-1.81-.29-.5-.49-.99-.79-1.13s-.53.03-.6.14c-.34.5-.49.68-1.05,1.87-.18.39-.37.64-1.04,1.88-.35.66-.6.9-1.04,1.8-.44.9-.69,1.86-.78,2.19-.41,1.58-.28,2.38-.54,2.37-.21,0-.16-.26-.24-.7-.4-2.14-.52-3.69-.59-4.21-.41-3.07-.59-3.65-.85-3.72-.31-.08-1.01.64-1.2.88Z"/>
            <path class="cls-5" d="M141.29,107.68c-.1,0-.13.79-.21,2.19-.18,3.21-.21,3.18-.21,4.05,0,2.6.3,3.23.57,3.63.11.16.93,1.38,1.78,1.26.08-.01.32-.07.42-.25.18-.32-.33-.85-.8-1.57-.48-.73-.8-1.44-.94-1.83-.41-1.12.04-1.33-.1-4.09-.04-.8-.11-1.25-.21-1.99-.1-.69-.19-1.39-.28-1.38Z"/>
            <path class="cls-5" d="M144.58,118.39c.33.09.59-.21.72-.36.48-.54.31-1.4.27-2.31-.05-1.2-.13-2.92.13-4.47.05-.27.18-.99.08-1.02-.05-.01-.14.18-.18.25-.37.77-.43,1.77-.48,2.29-.15,1.6-.5,1.59-.36,2.49.07.48.21.72.13,1.21-.04.28-.13.53-.24,1.17-.07.45-.16.71-.08.74Z"/>
          </g>
          <g id="flower-11">
            <path class="cls-5" d="M137.11,144.05c-3.13,5.62-1.83,10.87-2.88,16.06-.03.13-.12.61,0,1.2.27,1.29,1.5,2.54,2.88,2.76,2,.32,2.9-3.74,4.32-3.48.61.11.63.85,1.41,1.92,1.23,1.68,2.49,1.67,5.18,3.24,2.07,1.2,3.5,2.04,4.56,3.6,1.81,2.67.91,5.09,1.92,5.39,1.36.41,4.07-3.7,5.27-7.31.39-1.16,1.09-3.69.84-6.83-.05-.62-.15-1.75-.56-3.16-.75-2.58-1.97-4.16-1.81-4.27.22-.16,1.82,3.45,5.25,4.92,1.91.82,3.87.55,7.79,0,4.13-.57,7.67-1.07,8.15-2.88.2-.77-.32-1.11-1.08-2.76-1.74-3.79-.39-5.18-2.04-9.59-.94-2.53-2.02-3.78-2.4-4.2-.3-.33-1.04-1.1-2.88-2.28-2.53-1.62-4.75-2.5-5.75-2.88-5.08-1.91-7.75-2.91-10.91-2.28-1.31.26-2.46.76-5.51,2.88-6.74,4.67-10.11,7.01-11.75,9.95Z"/>
            <path class="cls-2" d="M152.27,143.46c.3.28.63.59.68,1,.04.36-.14.71-.32,1.02-.18.32-.37.66-.34,1.02s.37.72.72.61c.14-.05.25-.16.35-.28.23-.27.41-.58.54-.91.49.18.8.69.9,1.2.1.51.03,1.04-.05,1.56-.06.4-.12.8-.17,1.19-.06.44-.13.89.01,1.31.14.42.54.79.98.74.39-.05.68-.42.77-.81s.02-.79-.05-1.18c-.09-.6-.17-1.19-.22-1.79-.01-.12-.01-.25.07-.33.05-.05.12-.07.19-.08.73-.12,1.43.31,1.99.79.57.47,1.12,1.02,1.83,1.2.46.11,1.06-.02,1.19-.47.05-.16.03-.33-.02-.49-.28-.99-1.35-1.48-2.3-1.88-1.06-.44-2.13-.95-2.88-1.81-.48-.56-.8-1.24-1.31-1.77-.95-.97-2.41-1.25-3.44-2.13-.9-.78-1.41-1.97-2.41-2.6-.3-.19-.88.78-.84,1.03.07.41.66.69.95.95,1.06.96,2.11,1.94,3.17,2.91Z"/>
            <path class="cls-3" d="M131.66,160.55s.12-.01.15-.03c1.46-.76,2.9-.81,4.46-2.13,2.38-2.02,2.94-5.24,3.06-5.93.74-4.33-1.45-6.47,0-8.36.84-1.09,1.72-.59,4.35-1.62.42-.16,4.79-1.93,7.61-5.93,2.31-3.28,2.44-6.45,3.48-6.38.63.04.59,1.2,1.56,2.43,1.55,1.96,4.17,2.2,9.35,2.61,4.58.36,5.99-.13,6.56-.36,2.23-.88,4.34-2.71,4.05-3.42-.14-.34-.78-.3-1.98-.39,0,0-.41-.03-5.04-.87-.95-.17-1.62-.39-6.56-2.61-5.74-2.58-6.5-3.04-8.72-3.69-2.94-.86-6.86-1.07-6.86-1.07-.67.46-1.35.85-3,1.08-.18.02-1.51.21-2.11.36-.89.23-1.36.82-1.45.98-.32.57-.31,1.44-.28,1.59.13.8.37,1.76.63,2.27.46.9.53,1.01.93,1.6.13.19.62.67.56.8,0,0-.27-.12-.37-.2-.39-.3-.63-.45-1.13-.9-.58-.53-1.24-1.01-1.83-1.45-1.18-.88-1.79-1.41-2.47-1.7-.58-.25-.81,0-.87.04-.57.35-.74,1.92-.71,2.3.12,1.45.24,3.89-.18,8.98-.18,2.22-.38,2.11-.68,5.39-.23,2.55-.22,3.74,0,5.04.31,1.82.66,1.7.74,2.97.14,2.19-.81,4.03-1.5,5.39-.83,1.61-1.93,3.08-1.75,3.22Z"/>
            <path class="cls-8" d="M139.8,143.64c-.42-.14,2.17-1.53,3.63-4.02,1.28-2.18,1.11-4.63,1.71-5.08.21-.16.99.11,1.57.27,3.07.84,6.43-3.77,7.02-3.32,0,0-.69,2.2-1.41,3.33-.57.91-.88,1.62-1.5,2.33-.73.84-1.53,1.74-2.68,2.68-.7.56-2.61,2.26-4.77,2.76-.68.16-3.57,1.05-3.57,1.05Z"/>
            <path class="cls-8" d="M155.1,130.34c.25-.33,1.79.55,3.82,1.02.91.21,1.74.29,5.16.14,3.28-.15,4.59-.12,6.74-.36,3.19-.36,3.01.16,5.91-.2,0,0-.19.64-.64,1.18-1.03,1.21-1.82,1.74-1.97,1.83-2.6,1.51-4.05,1.32-5.3,1.38-.27.01-1.95-.02-4.44-.23-1.94-.16-2.59-.29-3.46-.37-1.24-.11-2.76-.66-3.71-1.27-1.43-.92-2.11-3.11-2.11-3.11Z"/>
          </g>
          <g id="flower-10">
            <path class="cls-5" d="M40.13,152.44c.27-.22,1.48,2.07,3.78,2.7,2.72.74,5.56-1.23,8.63-3.42,4.6-3.27,4.25-4.63,6.29-5.04,4.22-.84,6.01,4.85,11.33,5.39,6.42.66,11.15-6.87,12.77-5.62,1.4,1.08-3.04,5.96-2.52,13.71.35,5.24,2.84,9.81,3.18,10.43,2.26,4.07,4.09,4.68,4.55,7.37.77,4.5-2.02,9.84-4.5,9.89-2.39.05-4.64-4.83-5.47-7.82-1.03-3.69-.55-6.83-1.45-7.01-.61-.12-.98,1.28-2.43,2.61-1.7,1.56-3.16,1.42-6.83,2.34-5.68,1.41-8.45,3.3-9.17,2.34-.27-.36,0-.78.18-1.8.31-1.83-.13-3.11-.99-5.84-1.53-4.87-2.29-7.32-2.07-8.18.7-2.79,3.52-4.06,3.06-4.86-.19-.33-.83-.36-3.24,0-4.27.63-4.24,1-5.48.99-3.65-.03-6.4-3.18-7.46-4.41-1.47-1.69-2.4-3.58-2.16-3.78Z"/>
            <path class="cls-2" d="M70.54,159.46c-.25.46-.52.94-.91,1.29-.69.63-1.67.81-2.57,1.07s-1.86.72-2.17,1.61c1.03.27,2.16.12,3.08-.41-1.19,1.58-1.94,3.49-2.15,5.45.95.21,1.66-.82,2.08-1.7.42-.89.85-1.79,1.27-2.68.27.48.14,1.07.08,1.61s.02,1.2.5,1.46c.54.29,1.24-.18,1.41-.77s-.03-1.22-.25-1.8-.47-1.18-.39-1.79c.05-.42.26-.8.46-1.18,1.15-2.13,2.3-4.26,3.45-6.39-.8-.31-1.1-.64-1.69-.04-.3.3-.44.84-.62,1.22-.48,1.04-1.03,2.04-1.58,3.05Z"/>
            <path class="cls-3" d="M55.69,152.77c-.58-.81-.25-4.33,1.15-5.78.62-.64.58-.22,3.08-1.41,2.02-.96,3.02-1.43,3.93-2.16,1.88-1.5,1.58-2.63,3.09-4.5,2.56-3.18,7.88-4.91,8.66-5.06,0,0,3.5.37,5.93-.47.7-.24,1.73-.63,2.4-.95,1.21-.58,1.9-.91,2.65-.9.15,0,1.07.08,1.52.81.48.77.62,1.7.58,3.05-.15,5.48-.51,5.43-.59,6.33,0,0-.44,1.91-.94,3.85-.03.12-.02.21.02.24.29-.02.64-.62.79-.85,1.07-1.68,1.63-3.28,1.81-3.85.04-.14.37-1.26.4-1.41.48-2.55.66-3.81.66-3.81.02-.12.16-.58.42-.62.22-.03.6.09,1.18,1.1.96,1.54,1.45,3.16,1.57,3.56.46,1.51.68,2.84.68,2.84.6,3.02.75,4.91.95,7.75.11,1.54.28,3.95,0,6.71-.24,2.34-.85,7.75-4.6,13.11-3.25,4.65-7.64,8.48-8.74,7.75-.56-.38.21-1.64-.36-4.2-.34-1.51-.81-1.99-1.68-3.84-.39-.84-1.54-3.34-2.06-6.23-.2-1.11-.63-3.68,0-6.71.84-4.03,3.12-6.69,2.9-6.83-.19-.13-1.35,2.14-3.72,3.84-3.08,2.21-6.57,2.3-7.43,2.29-4.14,0-4.32-2.06-9.83-2.65-2.41-.26-3.68.04-4.41-.99Z"/>
            <path class="cls-5" d="M61.62,151.38c1.19-.7,2.33-1.48,3.36-2.4.7-.62,1.33-1.31,2.03-1.93.74-.65,1.55-1.23,2.42-1.72.9-.51,1.88-.93,2.55-1.72.59-.7.91-1.65,1.67-2.16-.3,1.22-1.14,2.24-2.1,3.06s-2.05,1.46-3.05,2.21c-.54.41-1.05.85-1.54,1.32-.37.36-.73.74-1.1,1.1-2.48,2.37-5.66,4.22-9.08,4.32-.38.01-1.32-.84-1.17-.83.49.05,2.25,0,2.78-.11,1.16-.25,2.21-.55,3.23-1.14Z"/>
            <path class="cls-5" d="M87.31,155.96c-.33.73-.97,2.12-1.12,2.9-.44,2.26-1.16,4.46-1.4,6.75-.12,1.13-.11,2.28-.19,3.42-.07,1.07-.22,2.14-.37,3.21-.22,1.57-2.46,5.89-1.95,5.85,1.21.52,1.66-1.73,1.9-2.31,1.28-3,1.45-6.37,1.65-9.62.25-4.12,1.16-8.28,3.2-11.87.16-.28.94-1.33.72-1.67-.27-.41-.82.92-1.01,1.16-.76.93-.98,1.23-1.41,2.17Z"/>
          </g>
          <g id="flower-9">
            <path class="cls-5" d="M105.05,123.48c-.27.23-1.5,1.18-4.82,5.3-7.32,9.08-8.53,22.17-8.57,22.2,0,0,0,0,0,0,0,.09.91.26,1.13.3,1.8.33,10.28-4.72,11.15-3.83.2.21-.08.67-.3,1.37-.71,2.28.13,4.39.96,6.47,1.61,4.05,5.06,8.87,6.89,8.27.45-.15.4-.48,1.32-1.38,1.2-1.17,2.33-1.63,3.12-2.04,1.58-.81,2.69-1.98,4.92-4.32,1.74-1.83,2.94-3.09,4.08-5.13.35-.62.89-1.69,1.02-1.64.13.05-.47,1.13-.54,2.52-.1,1.91.84,3.38,1.62,4.62.71,1.12,1.81,2.85,2.76,2.64.72-.16,1.03-1.34,1.2-1.98.48-1.79-.15-2.48,0-3.96.18-1.72,1.16-2.08,2.64-4.61,0,0,1.07-1.84,1.98-4.66,1.36-4.22.8-8.56.24-10.51-2.92-10.27-23.17-16.15-30.78-9.65Z"/>
            <path class="cls-2" d="M114.61,138.33c-.1.54-.2,1.11-.51,1.56-.56.83-1.62,1.12-2.58,1.37s-2.03.61-2.49,1.49c-.08.15-.14.32-.1.48.08.36.54.45.9.45,1.47.02,2.93-.22,4.31-.72-1.14.63-2.07,1.62-2.62,2.8-.17.36-.3.81-.09,1.15.32.53,1.13.4,1.66.09.55-.33,1.03-.78,1.38-1.32.18-.28.36-.61.67-.74.62-.25,1.18.41,1.72.79.35.24.79.38,1.2.3.41-.09.78-.44.8-.86.02-.42-.29-.79-.64-1.03s-.76-.38-1.1-.63c-.59-.44-.94-1.15-1.06-1.88s-.06-1.47.02-2.21c.35-3.19.99-6.35,1.9-9.43.05-.16.09-.32.08-.48-.04-.38-.41-.65-.78-.7-.69-.1-1.76.2-1.74,1.02,0,.27.22.53.27.8.09.43,0,.82-.08,1.24-.38,2.16-.76,4.31-1.14,6.47Z"/>
            <path class="cls-3" d="M103.64,139.3c-1.6-.24-4.17-6.65-4.22-7.06-.19-1.4-1-1.48,3.69-9.92.76-1.37,3.2-4.08,5.05-4.69.2-.07.84-.25,1.67-.66.75-.37.84-.46,1.79-1.1,1.96-1.33,2.58-1.43,3.61-2.51.13-.13.44-.59.84-.91.23-.18.66-.48,1.15-.46.66.02,1.23.59,2.11,1.26.21.16.67.44,1.58.7,1.27.37,1.71-.64,3.44-.66.2,0,.5,0,.87.07,1.42.28,2.2,1.32,3.03,2.19,1.85,1.94,2.13,2.13,3.39,3.6,1.17,1.36,1.78,2.03,2.25,3.96,1.34,5.52,2.28,8.21,2.29,9.43.02,1.72.03,4.41-1.47,7.24-1.5,2.83-4.42,5.6-5.81,4.98-.58-.26-.51-.93-1.02-2.22-.68-1.72-1.46-2.12-4.68-5.39-3.86-3.93-4.18-4.81-4.32-5.56-.36-1.96.52-3.4,0-3.68-.64-.34-1.87,1.81-4.84,3.59-1.82,1.1-2.11.74-3.74,1.63-4.38,2.38-5.04,6.47-6.67,6.22Z"/>
            <path class="cls-8" d="M118.96,120.73c.29,2.85-1.09,7.22-3,9.36.59-.44,1.04-.92,1.23-1.09.24-.22.41-.42.61-.57.22-.17.31-.27.53-.43.12-.09.42-.19.55-.13.23.09.12.26.17.47s-.1.45-.09.67-.11.74-.11.74c.19-.19.52-1.04.49-1.3s.04-.87,0-1.14c-.07-.46.16-1.56.23-2.02.23-1.47.39-1.91.47-3.4.03-.49.04-.99-.08-1.47-.16-.61-.54-1.13-.91-1.63-.28-.38-.64-.89-1.13-1-.2.36.47.89.62,1.21.26.54.38,1.14.44,1.74Z"/>
          </g>
          <g id="flower-8">
            <path class="cls-5" d="M45.29,138.51c-1.44,1.83-3.95,2.84-8.99,4.86-1.98.79-8.12,3.09-10.43,5.21-1.4,1.29-2.38,2.67-2.38,2.67-.48.67-.84,1.31-.86,1.3-.03-.02,3.77-4.7,5.39-11.08.87-3.42,1.6-6.27.18-8.71-2.44-4.21-9.32-3.82-9.35-5.93-.01-.89,1.2-1.03,3.06-3.06.65-.71,2.44-2.71,3.17-5.57.21-.83,1.24-5.27-1.19-8.27-1.41-1.75-2.52-1.18-3.96-3-2.15-2.72-1.99-6.92-1.08-7.25.38-.14.75.43,1.98,1.62,0,0,2.65,2.56,6.11,4.5,2.53,1.41,4.62,1.73,5.57,1.98,8.59,2.22,18.84,23.03,12.77,30.75Z"/>
            <path class="cls-3" d="M18.22,136.17c2.39,1.9,4.56,2.88,6.03,3.42,3.23,1.18,8.23,1.92,17,1.71.96-.02,2.04.34,4.87.03,3.37-.37,5.59-1.35,7.25-2.11,1.07-.49,3.82-1.48,6.21-4.89,1.87-2.68,2.22-3.19,4.08-5.49.25-.31,1.24-1.47,1.56-2.5.23-.71.09-1.72-.69-2.47-1.32-1.27-3.09-1.36-3.37-1.37-1.21-.07-.83.1-4.03,1.41-1.86.76-2.35.97-2.87,1.09-.34.08-.71.27-.55.08.31-.37.74-.62.91-.7,1.19-.55,1.69-.85,2.11-1.02s.81-.34,1.1-.39c1.07-.18,3.2-.47,4.97-1.83,1.15-.53,2.7-1.49,3.1-2.17s-.04-1.04-.16-1.16c-.54-.49-2.63-1.05-3.95-1.47-2.41-.76-4.47-2.07-5.59-2.74-2.54-1.53-3.89-3.5-3.89-3.5-.52-.17-1.54-.28-1.87-.36-1.94-.49-3.86-1.45-9.4-2.61-5.05-1.06-4.9-.56-6.85-.75-1.74-.17-4.48-.41-7.73.63-2.76.88-4.47,2.22-6.56,3.87-2.19,1.72-5.39,4.69-4.86,5.57.31.5,1.46-.28,3.17.27,1.6.52,2.09,1.69,3.57,3.15,1.75,1.72,3.55,2.54,4.68,3.06,0,0,3.32,1.51,11.87,1.71.05,0,.74.02,1.49.06.18.01.14.01.37.03.86.06,1.74.04,1.75.09.03.12-1.12.21-2.43.33-1.47.14-2.09.44-3.3.45-3.43.04-3.82.43-4.63.51-2.01.19-3.43.98-4.86,1.77-4.43,2.46-7.43,6.66-8.52,8.3Z"/>
          </g>
          <g id="flower-7">
            <path class="cls-5" d="M11.69,239.93c.32-.33,2.69,2.77,5.04,2.34,1.5-.28,2.1-1.84,4.14-5.21,2.15-3.57,3.23-5.35,4.22-6.29,6-5.71,22.5,2.55,23.84,3.24,9.4,4.81,10.86,6.8,11.15,7.97.79,3.21-1.69,4.62-.36,8.15.48,1.26,2.55,5.72,3.24,7.91.06.18.19.61,0,.78-.41.36-1.98-.89-2.52-1.2-10.22-5.84-7.35-10.37-9.05-9.95-.69.17-.4,1.36-1.62,2.88-1.12,1.39-2.41,1.69-4.56,2.52-5.26,2.04-7.69,4.24-8.39,3.48-.33-.36.16-.89.06-2.04-.17-1.88-1.69-2.95-2.52-3.84-3.39-3.66-.61-10.46-2.28-10.97-.54-.17-.85.54-3.96,3.06-1.56,1.26-2.36,1.9-3.3,2.4-1.06.55-2.83,1.48-5.04,1.32-3.14-.24-5.16-2.55-6.71-4.32-.86-.98-1.56-2.03-1.38-2.22Z"/>
            <path class="cls-8" d="M17.34,243.14c.51.09,1.87.26,3.82-.36,1.67-.53,4.55-1.44,5.62-4.05,1.21-2.94-.76-7.52-2.05-7.61,0,0-1.64,2.01-4.03,6.2-1.42,2.5-1.98,4.11-3.42,4.76-1.2.55-2.56-.17-2.56-.17-.04.14,1.25.99,2.62,1.22Z"/>
            <path class="cls-2" d="M42.46,235.42c-.31.66-.64,1.36-1.25,1.77-.29.2-.64.32-.98.4-.6.14-1.23.18-1.85.12-.33-.03-.74-.07-.94.2-.26.36.12.84.51,1.03,1.08.52,2.36.2,3.51-.14-.91,1.26-1.81,2.52-2.72,3.79-.14.19-.28.4-.27.63.01.34.36.59.7.6s.65-.16.93-.36c.7-.51,1.25-1.23,1.53-2.05.15-.42.26-.91.64-1.16.32-.21.74-.17,1.08-.02s.63.41.91.66c1.04.89,2.41,1.68,3.73,1.31.23-.06.48-.19.53-.43.09-.39-.39-.63-.77-.75-1.37-.4-2.7-.95-3.96-1.64-.29-.15-.58-.33-.73-.62-.22-.42-.06-.94.15-1.36.35-.7.85-1.31,1.25-1.98.71-1.19,1.1-2.53,1.48-3.86.29-1.02,1.19-2.78,1.02-3.8-.53.07-.91,1.04-1.16,1.45-.42.68-.82,1.37-1.21,2.07-.76,1.35-1.47,2.73-2.14,4.13Z"/>
            <path class="cls-3" d="M37.65,211.62c-1.41.73-2.58,2.86-4.27,5.29-2.98,4.3-2.34,4.94-4.23,6.56-1.75,1.51-2.86,1.43-4.07,3.24-.86,1.29-1.13,2.56-1.32,3.51-.46,2.23-.21,4,0,5.39.61,4.08.85,6.39,2.25,6.92,1.33.51,2.05-1.19,5.24-1.65,2.14-.31,2.64.35,4.44.03,2.22-.39,3.67-1.77,5.16-3.23,4.18-4.09,5.04-9.06,5.45-8.94.17.05-1.26,2.77-.87,6.23.07.65.23,1.92.97,3.28.99,1.84,2.5,2.84,3.89,3.64,3.2,1.86,11.48,6.6,13.09,4.45.18-.24.11-1.2.17-1.84.21-2.27-.86-3.22-1.17-5.3-.34-2.29.48-4.33.66-4.32.12.01.02.93.19,2.16.3,2.14,1.2,3.66,1.84,4.72,1.52,2.5,3.88,4.87,4.36,4.55.26-.17-.14-1.04-.72-2.75-.37-1.09-.83-3.02-1.75-6.88-.63-2.61-.96-4.57-1.62-8.5-.81-4.81-1.42-8.73-1.72-8.81,0,0-.11.39-.16.53-.28.75-.44,1.03-1.12,2.16,0,0-.79,1.25-2.62,2.65-.31.24-1.04.75-1.37.66-.28-.08-.17-.24-.16-.26.43-.77.6-1.04.72-1.23,1.52-2.4,1.81-4.19,1.96-5.04.27-1.53.06-3.59-.08-4.17-.56-2.3-1.31-3.61-2.52-5.17-.29-.38-1.06-1.11-1.7-1.43-.58-.29-1.09-.04-1.2.02-.67.34-1.02.98-1.24,1.44,0,0-.4,1.29-1.93,2.39-1.31.94-2.49,1.59-4.5,2.1-1.27.32-3.11.37-2.93.18.36-.38,1.43-1.36,3.25-2.79,2.04-1.61,3.14-2.72,4.37-4.04.34-.36.68-.88.46-1.19-.29-.42-1.62-.39-2.01-.37-1.38.1-2.31.64-2.6.81-1.44.86-1.69,1.48-2.89,2.42-.87.69-1.77,1.22-3.74,1.76-2.91.79-3.97.81-3.97.81Z"/>
            <path class="cls-8" d="M51.36,241.87c1.92.9,2.9.81,3.62.84,1.96.08,3.11-1.11,4.02-.42.17.13.17.71.57,1.43.65,1.14.79,1.14,1.15,1.43.66.52,1.82.53,2.31,0,.53-.57.43-1.58.49-1.59.05,0,.06.68-.01,1.65-.03.4.07,1.09-.48,1.46-.85.57-3.24-.05-4.26-.47-6.14-2.54-7.47-3.22-10.21-5.39-.3-.24-1.23-1.15-1.23-1.15.1-.15,1.85,1.21,4.01,2.22Z"/>
          </g>
          <g id="flower-6">
            <path class="cls-5" d="M69.52,216.16c-5.2,4.93-9.38,11.42-8.28,12.6.63.68,3-.39,6.16-1.81,4.3-1.94,6.95-4.02,7.64-3.33.24.24.09.65,0,1.26-.32,2.18.61,3.96,1.62,5.89,1.33,2.54,4.14,6.09,5.84,5.53.46-.15.44-.47,1.3-1.3,1.14-1.1,2.22-1.55,3.1-1.98,1.82-.88,3.83-1.85,5.48-3.46,2.01-1.96,3.18-4.56,3.1-6.29,0-.11-.04-.67,0-.67.06,0,.19,1.56.54,3.1.29,1.28.63,2.77,1.44,3.96.38.56,1,1.25,5.57,3.15,5.18,2.15,5.9,1.89,6.2,1.57.42-.43-.04-.88,0-2.61.05-2.16.82-3.95,1.8-6.2.61-1.4.65-1.22.67-1.48.23-2.93-7.15-3.84-13.07-9.47-4.43-4.22-3.02-6.3-6.11-7.91-8.24-4.3-22.01,8.51-23.02,9.47Z"/>
            <path class="cls-2" d="M88.28,223.67c-.2.46-.43.9-.59,1.38-.03.1-.06.22,0,.3.05.05.12.07.19.08.93.13,1.78-.65,2.09-1.54.08-.24.15-.51.36-.67.42-.32,1.05.06,1.54-.14.45-.18.58-.78.42-1.24-.15-.46-.51-.81-.8-1.19-1.35-1.74-1.54-4.09-1.58-6.29,0-.23-.01-.48-.16-.65-.75-.87-1.15.79-1.13,1.22.03.87.24,1.73.33,2.6.22,2.06.16,4.21-.67,6.14Z"/>
            <path class="cls-3" d="M71.86,220.23c.11-1.53-.37-2.42-.72-3.69-.81-2.99-.18-5.7,0-6.65.61-3.31.96-4.1,3.73-9.76.87-1.78,1.11-2.28,2.97-5.01,1.62-2.38,2.37-4.28,3.08-4.57,5.03-2.02,6.79-4.32,8.5-3.8,2.6.79,3.24,1.77,3.6,2.13,2.17,2.25,2.65,3.34,3.56,4.7.05.08.53.54.53.54-.03-.65-.44-1.46-.77-2.17-.96-2.07-1.2-2.55-2.09-4.85-.53-1.37-.25-2.14-.14-2.21.79-.5,2.8,1.07,3.09,1.32,2.54,2.16,3.56,4.48,6.35,9.92,1.87,3.64,1.66,3.79,1.91,4.42,2.03,5.05.83,7.76,2.36,13.8.83,3.29,2.27,4.12,1.66,5.09-1.1,1.75-6.13,1.08-9.58-.96-2.36-1.4-3.72-3.29-4.23-4-2.38-3.37-2.84-7.07-3.33-6.97-.12.02-.17.25-.26,1.17-.2,1.94-.22,3.41-.22,3.55-.05,2.27-2.86,4.15-4.86,5.48-2.46,1.64-4.57,2.18-7.69,2.97-1.84.47-6.79,1.72-7.46.38-.11-.21-.04-.35,0-.85Z"/>
            <path class="cls-5" d="M101.86,216.9c.15.44.33,1.8.62,2.16.66.82,2.6.68,3.65.82-1.26-1.06-2.79-3.01-3.44-4.52-1.44-3.33-1.28-5.59-1.62-9.08-.04-.45-.2-2.05-.35-3.4-.07-.68-.68,1.33-.7,1.74-.11,1.92.05,3.9.31,5.8.3,2.2.81,4.37,1.53,6.48Z"/>
            <path class="cls-8" d="M101.74,220.24c2.48,2.9,6.5,4.41,10.27,3.86-.1-.66-.57-1.19-.83-1.81-.5-1.21-.1-2.62-.47-3.87-.03-.09-.07-.19-.15-.24-.08-.05-.18-.04-.27-.03-1.1.18-1.98,1.05-3.05,1.37-.5.15-1.04.18-1.56.16-2.47-.08-4.83-1.11-6.85-2.53-.15.02-.09.25,0,.37.98,1.24,2.13,2.34,3.41,3.26"/>
            <path class="cls-8" d="M66.43,223.92c1.11-.6,2.24-1.23,3.06-2.19.7-.83,1.12-1.86,1.52-2.88.16-.41.41-.92.43-1.36,0,0-.21-.55-.29-.94-.11-.53-.23-1.02-.31-1.58-2.55,2.14-3.89,3.95-5.98,6.34-.34.38-2.24,3.19-2.24,3.19.29.22,1.56.4,1.85.31.69-.2,1.33-.54,1.96-.89Z"/>
            <path class="cls-5" d="M79.96,213.18c1.18-3.14,2.02-4.97,2.28-8.31.02-.25.03-.63-.04-1.31-.03-.25-.11-1.18-.34-1.08-.23.1-.29.38-.34.62-.82,4.61-1.47,7.09-3.34,11.38-.36.82-1.96,3.53-2.58,4.17-.83.87-2.1.71-2.87,1.38.9,1.1,3.02.22,3.81-.55,1.72-1.68,2.6-4.09,3.43-6.3Z"/>
          </g>
          <g id="flower-5">
            <path class="cls-5" d="M9.21,291.16c-1.1.68-1.57,3.03-2.52,7.73-.86,4.28-1.41,7.19,0,8.27.92.71,1.68-.14,4.97,0,3.25.14,3.6,1,5.46.6,2.77-.6,4.11-2.98,4.68-2.58.46.33-.52,1.86-.85,4.14-.35,2.41.23,4.25,1.04,6.83,1.12,3.54,3.26,8,4.31,7.73.45-.12.17-.98.87-2.34.62-1.2,1.33-1.49,4.7-3.78,2.58-1.75,3.09-2.2,3.78-1.98.89.29,1.01,1.37,1.71,3.06,1.54,3.71,4.21,6.32,4.58,6.11.26-.15-.73-1.58-1.08-3.96-.11-.74-.35-2.86,1.16-7.55,1.76-5.5,2.31-7.63,2.6-8.91.69-3.02-6.78.27-9.34-3.5-1.81-2.66-.15-5.22-1.98-6.65-1.8-1.41-4.07.54-8.04.9-8.2.75-12.56-6.31-16.06-4.14Z"/>
            <path class="cls-2" d="M24.88,300.44c-.28.71-.51,1.45-.87,2.12-.48.9-1.15,1.68-1.83,2.45-1.37,1.56-2.76,3.14-4.46,4.32-.22.15-.47.47-.27.65.06.06.15.07.23.08.78.1,1.59-.15,2.19-.66.66-.57,1.16-1.48,2.02-1.53.11,0,.22,0,.29.08.06.07.07.17.1.26.13.39.66.52,1.02.34s.57-.59.65-.99.05-.81.09-1.22c.09-1.09.6-2.1,1.09-3.08,1.01-1.98,2.01-3.97,3.02-5.95.11-.22.22-.47.14-.7-.43-1.2-1.58.32-1.81.69-.64.99-1.18,2.04-1.61,3.14Z"/>
            <path class="cls-3" d="M.02,288.68c.24-.49,3.4.93,6.52.72,5.68-.38,6.92-2.11,7.69-2.52,5.55-2.95,7.18-8.16,11.68-9.3.7-.18,1.63-.52,3.79-1.06,2.22-.56,2.33-.59,3.89-.8,1.42-.19,2.48-.19,3.49-.16,1.92.06,3.65.95,3.87,1.24,0,0-.26.89-.68,1.95,0,0-.75,2.11-1.66,4.54-.52,1.41-.58,1.42-.42,1.53.31.23,1.46-1.37,1.84-1.74,1.28-1.26,1.17-1.16,2.19-2.05.72-.63,3.53-2.65,4.38-2.42.41.11.56.13.82.63.36.7.23,2.1.32,2.98.11,1.09.05,2.27.87,4.92,1.12,3.6,1.29,3.84,1.29,3.84.05,1.99-1.4,2.84-2.82,6.39-1.19,2.97-.26,2.5-1.44,5.12-1.09,2.42-1.28,3.85-1.37,5.37-.19,3.16.55,4.72-.27,4.8-.78.07-6.34-1.14-7.91-3.13-1.7-2.15-1.27-1.95-2.95-3.88-1.69-1.94-3.64-5.45-2.52-7.82.41-.87,1.2-1.51,1.08-1.65-.15-.16-.96.25-2.04.78-.66.32-1.51.37-6.81.32-.29,0-1.89.11-5.48-1.37-1.19-.49-4.03-.98-4.33-1.7-.42-1.01.41-2.86.35-2.92-.04-.04-.64,1.21-2,1.94-1.74.94-4.11,1.37-4.99,1.21-3.6-.65-6.7-5.12-6.38-5.75Z"/>
          </g>
          <g id="flower-4">
            <path class="cls-5" d="M101.79,282.97c-.57,2.16,1.66,7.13,6.11,17.08,1.66,3.71,2.84,6.05,4.11,5.93,1.43-.13,2.38-3.36,3.44-7.01,1.43-4.89,1.55-8.08,2.7-8.23.78-.1.9,1.35,2.52,2.12,2.07.99,3.35-.68,6.29-.36,3.2.35,4.57,2.64,5.57,1.98.53-.35.68-1.36,0-4.5-1.33-6.21-3.51-9.81-2.88-10.25.45-.31,1.59,1.46,4.5,3.06,2.9,1.59,5.45,1.86,6.65,1.98,2.3.22,4.63.44,5.4-.72,1.01-1.53-1.09-4.79-3.06-6.65-1.57-1.49-3.75-2.25-8.09-3.78-5.18-1.82-7.78-2.08-8.81-2.16,0,0-2.05-.16-4.12,0-4.38.33-18.11,3.15-20.33,11.51Z"/>
            <path class="cls-2" d="M121.71,283.77c.83,1.52,2.1,2.84,2.54,4.51.09.33.14.66.3.96.16.3.44.56.78.57.41.01.74-.34.91-.7.37-.75.33-1.64.18-2.46-.54-2.87-2.53-6.06-4.67-8.01-.85.53-1.49.84-1.25,1.9.25,1.1.68,2.24,1.22,3.23Z"/>
            <path class="cls-3" d="M99.42,273.6c0,4.27,1.34,6.82,1.41,8.98.07,2.32-.1,4.19.87,6.65.81,2.06,1.47,2.11,2.37,3.96,2.28,4.67.4,9.12,1.26,9.35.76.2,2.58-3.27,3.42-6.65.46-1.86.76-3.1.54-4.77-.42-3.11-2.17-4-2.52-7.64-.14-1.49,0-2.86.18-2.88.18-.02.21,1.4.9,2.7,1.1,2.09,3.34,2.87,3.87,3.06,1.78.65,2.09.04,4.23.45,3.69.7,4.9,2.92,6.19,2.25.7-.37.48-1.1,1.36-4.23.48-1.71.56-1.54,1.71-5.04.63-1.91,1.25-2.69,1.33-4.23.06-1.16-.15-2.08-.21-2.31-.38-1.56-1.15-2.62-1.12-2.64.04-.02.92,1.9,2.7,3.78.61.64,1.06,1.12,1.71,1.53,2.01,1.27,3.61.45,5.75.81,4.14.69,5.3,4.93,6.92,4.32,1.34-.51,1.61-3.8.9-6.2-.64-2.15-2.01-3.47-3.51-4.86-2.73-2.54-3.04-2.32-6.18-4.91-1.33-1.1-1.7-.83-5.78-4.89-.86-.86-1.73-2.75-3-3.45-.4-.22-.53.03-1.33-.09-1.34-.19-2.15-.42-3.1-.79-1.03-.4-2.79-1.06-5.31-2.18-2.42-1.07-3.43-1.62-3.84-1.77-.52-.18-2.11-1.16-2.36-.85-.12.14.59.8.89,1.1.78.77,1.35,1.44,1.65,1.71.52.46.83.89,1.51,1.66.48.55,1.5,1.91,1.35,2-.07.04-.15.05-.31-.03-.96-.52-1.24-.6-1.66-.93-.37-.3-.82-.51-3.58-2-2.05-1.1-2.45-1.39-3.48-1.62-.52-.12-1.17-.21-1.96.26-.59.35-1.49,1.11-2.42,3.95-.72,2.2-.8,3.27-.9,4.69-.08,1.15-.08,2.94-.07,5.26s.12,3.58-.01,5.43c-.05.64-.13.95-.33,1.05Z"/>
          </g>
          <g id="flower-3">
            <path class="cls-3" d="M75.44,321.83c-1.73.11-4.15-6.11-4.41-12.23-.16-3.8.7-4.88.96-4.89.08,0,.14.11.23-.03.18-.28.27-.65.28-.73.14-1.07.53-1.81.79-2.78.76-2.86,2.4-5.13,4.4-7.13.1-.1,1.36-1.26,1.36-1.26,0,0-.11,2.38-.15,2.76-.25,2.19-.44,3.49-.77,5.21-.07.36.28.08.28.08.39-.42.49-.61.63-.85,1.13-1.92,1.51-3.19,1.51-3.19.35-1.14.71-2.49.91-3.61.02-.09.15-.73.35-.76.25-.03.55.95.61,1.2.78,3.4,1.04,4.93,1.16,5.66.47,2.99.92,4.38,1.12,4.95,1.3,3.72-.64,7.57-1.57,10.24-1.75,4.98-3.63,5.78-4.02,5.87-.07.02-.45.09-.92.3-.52.23-.76.45-1.12.66-.74.43-1.48.53-1.62.53Z"/>
            <path class="cls-5" d="M75.46,320.51c.5-1.6.77-3.34.25-4.93-.17-.53-.42-1.02-.62-1.53-1.03-2.64-.74-5.58-.44-8.4-.48.39-.61,1.06-.67,1.68-.11,1.1-.11,2.22-.11,3.32,0,.76,0,1.54.23,2.26.14.45.37.87.56,1.3.34.8.52,1.66.65,2.52.08.54.15,1.1.03,1.64-.12.53-.41,1.02-.53,1.55s-.09,1.64.4,1.88c.65-.46.07-.62.25-1.3"/>
            <path class="cls-5" d="M80.88,314.5c.12-.91.09-1.82.1-2.74.01-1.47.22-5.4.43-4.38.32,1.32.48,2.68.47,4.04,0,.9-.08,1.8-.16,2.69-.09,1.1-.26,1.83-.41,2.92-.06.41-.38,1.22-.61,1.56-.22.33-1.05,1.34-1.34,1.62-.38.37-1.59.63-1.59.63-.4-.41,1.04-1.78,1.24-2.04,1-1.23,1.66-2.73,1.86-4.3Z"/>
          </g>
          <g id="flower-2">
            <path class="cls-3" d="M116.89,337.17c.01,1.19-.48,2.33-.63,3.51-.35,2.79-1.74,6.52-1.89,6.92-1.38,3.68-2.1,3.54-2.34,5.66-.27,2.4.34,5.2,1.62,5.66.1.04.48.18.79,0,.68-.38.47-1.98.56-1.98.08,0-.06,1.37.72,2.43.18.24.58.78,1.17.81.71.03,1.33-.7,1.44-.83.09-.1.15-.2.19-.25.4-.59.52-1.17.53-1.17,0,0-.56,1.13-.18,1.56.25.29.82.15.88.13.76-.19,1.16-.98,1.33-1.32,2.44-4.92,2.74-7.07,2.74-7.07.59-4.18-.72-4.19-.94-10.61,0-.09-.21-3.19-.88-3.3,0,0-.14.45-.63.54-.47.09-.81-.02-1.56-.41-1.89-.98-2.48-1.95-2.48-1.95-.21.13-.44,1.4-.44,1.66Z"/>
            <path class="cls-5" d="M115.12,355.89c0-.61-.01-1.22.08-1.82.11-.72.37-1.41.59-2.11.51-1.59.86-3.24,1.04-4.91-.85,1.75-1.06,3.74-1.71,5.58-.18.49-.38.98-.53,1.48-.37,1.24-.03,2.6.34,3.84.06-.4,0-.68.07-1,0,.07.04.29.06.45.12.24.07-1.04.06-1.52Z"/>
            <path class="cls-5" d="M120.58,354.85c.17-.57.49-1.58.6-2.17.7-3.9,1.14-6.86.14-10.7-.38.74-.28,1.62-.22,2.46.13,1.78.08,3.58.03,5.37-.02.54-.03,1.07-.11,1.6-.09.65-.26,1.29-.44,1.92-.52,1.91-1.9,4.33-1.99,5.67.21-.31.23-.63.15.07-.04.39.71-1.53.88-1.86.39-.74.73-1.56.96-2.37Z"/>
          </g>
          <g id="flower-1">
            <path class="cls-3" d="M37.42,352.64c0,3.42.36,4.62.36,4.62,1.08,3.69.32,5.18,1.56,8.69,2.21,6.23,7.68,10.15,8.27,9.71.26-.19-.21-1.36,0-1.44.17-.06.44.75.84.78.65.04,1.29-2,1.62-3.06,1.98-6.35,1.97-6.33,1.98-6.35.53-3.98-.29-8.18-1.86-10.25-.33-.44-.32-1.13-1.16-1.91-.91-.85-.26-.15-2.17-2.17-.49-.52-.76-.85-1.24-.85-.6,0-1.06.71-1.27,1.24-.25.63-.36.76-.65,1.51-.17.43-.21.54-.51,1.11-.16.29-.42.36-.44.34-.18-.1-.34-.26-.54-.72-.31-.72-.37-1.51-.22-2.68.01-.11.05-.49-.19-.66-.34-.23-1.2-.1-1.72.09-1.95.7-2.56,1.04-2.56,1.04-.16.29-.09.78-.09.97Z"/>
            <path class="cls-5" d="M49.05,357.99c.67,4.45,1.26,6.83.63,11.33-.19,1.36-.33,7.53-1.89,5.02-.2-.45.09-1.79.08-2.29-.05-2.97-1.15-5.81-2.22-8.58-.41-1.06-.82-2.12-1.42-3.08-.44-.71-.98-1.4-1.13-2.22.45.08.81.41,1.06.79s.42.8.65,1.19c.37.61.91,1.11,1.28,1.72.4.66.44,1.81.98,2.71,1.07,1.79.92,5.32,1.43,7.34.44-.41.39-2.87.41-3.47.05-2.68-.08-5.37-.4-8.03-.07-.54-.14-1.09-.31-1.61-.16-.51-.41-.99-.65-1.46-.4-.78-.81-1.57-1.3-2.31-.2-.29-.99-1.08-.31-1.08.46,0,1.51,1,1.75,1.38.56.91,1.25,1.85,1.37,2.65Z"/>
            <path class="cls-5" d="M42.03,368.08c.75,2.37,3.33,5.59,4.97,7.47.1.11.48.14.61.11.14-.03.08-.19.08-.34,0-.1-.82-1.05-.93-1.2-1.05-1.43-1.38-1.55-2.27-3.08-.42-.72-1.14-1.86-1.38-2.65-.26-.84-.91-3.36-1-4.23-.14-1.32.4-2.25.1-3.54-.13-.57-.27-1.15-.61-1.63-.2-.28-.58-.7-.94-.69-.05.6.39,1.44.5,2.06.14.87.2,1.74.25,2.62.09,1.71.12,3.46.64,5.11Z"/>
          </g>
        </g>
        <g id="flower-leaves">
          <path id="leaf" class="cls-10" d="M71.94,436.37c-2.05-4.03-10.25-21.19-4.23-39.77,1.01-3.11,3.54-10.65,10.46-17.74,2.39-2.45,6.84-6.43,13.48-9.35,11.32-4.99,22.79-4.16,30.47-1.44,1.75.62,4.52,1.66,4.4,2.16-.16.68-5.51-.59-12.09-.39-7.89.24-13.76,2.48-14.98,2.97-8.4,3.31-13.56,8.61-16.15,11.33-3.89,4.07-6.27,7.93-7.22,9.62-8.81,15.64-2.44,36.49-1.35,39.92-.93.9-1.86,1.8-2.79,2.7Z"/>
          <g id="flower-leaf-3">
            <path class="cls-10" d="M71.85,429.75c-.86-4.04-2.3-9.54-4.8-15.82-2.66-6.71-4.17-10.5-7.55-14.75-2.24-2.81-7.63-9.57-16.4-13.07-2.94-1.17-6.49-2.07-9.14-5.51-1.58-2.05-2.22-4.21-2.64-5.66-1.36-4.71-.15-6.38-.72-10.49-1.03-7.39-6.35-11.82-5.53-12.51.54-.46,2.85,1.48,3.49,2.02,1.31,1.1,4.21,3.58,5.87,8.05,1.98,5.31-.14,7.05,2.16,11.51,1,1.95,2.17,3.11,4.04,4.92,4.33,4.2,8.43,6.23,10.35,7.31,7.74,4.36,12.07,11.36,14.55,15.38,3.28,5.31,4.75,10.54,7.67,21,1.58,5.66,2.63,10.4,3.28,13.62-1,.42-2.01.84-3.01,1.26-.54-2.42-1.09-4.85-1.63-7.27Z"/>
            <path class="cls-7" d="M44.32,385.77c-.67-.51-2.79-2.12-4.41-4.65-1.1-1.72-.15-.82-2.07-4.58-.84-1.64-.83-2.53-1.19-3.51-.76-2.03-.94-3.94-1.05-5.19,0,0,.29-2.56-.93-6.35-1.95-6.05-9.49-10.61-9.98-10.16-.43.4,4.29,6.41,5.62,11.52.41,1.56-.12,2.81.46,7.84.32,2.78,1.35,8.87,2.49,9.77,5.21,4.12,12.52,6.81,12.68,6.44.04-.1-.49-.29-1.62-1.14Z"/>
          </g>
          <path id="flower-leaf-2" class="cls-6" d="M85.01,413.94c1.42-2.94,3.47-6.98,6.16-11.69,3.67-6.42,5.57-9.71,8.86-13.53,4.03-4.69,7.85-7.57,10.25-9.35,6.99-5.2,13.1-7.7,15.29-8.54,2.93-1.13,5.02-1.66,5.98-1.89,5.17-1.23,10.41-1.48,10.48-1.08.03.16-.71.38-1.75.72,0,0-.31.1-8.68,3.33-4.72,1.82-8.13,4.23-11.37,6.52-1.11.79-3.83,2.76-7.06,5.71-2.59,2.38-6.08,5.91-11.51,13.26-4.85,6.57-8.24,11.15-11.69,17.98-2.69,5.33-5.97,13.09-8.09,23.11-.2.03-.39.05-.59.08.2-3.95.32-7,.39-8.78.25-6.67.25-10.05,2.23-13.95.43-.85.85-1.5,1.11-1.9Z"/>
          <path id="flower-leaf-1" class="cls-4" d="M45.94,322.99c-.31.24,2.19,3.39,4.8,7.91,4.32,7.48,3.59,9.46,8.42,20.39,2.86,6.49,3.66,7.02,6.38,13.77,2.98,7.4,3.5,10.42,3.69,11.69.81,5.51-.32,7.87-.9,14.03-.82,8.62.49,16.11,3.12,31.11.79,4.52,1.56,8.2,2.1,10.61,1.36-.3,2.72-.6,4.08-.9-.62-3.66-1.44-8.73-2.34-14.81-.56-3.82-.99-7.1-1.86-13.68-1.88-14.29-2.04-16.63-1.26-20.16.9-4.04,1.83-4.22,2.25-8.03.11-1.05.5-5.25-1.98-13.37-1.97-6.45-4.48-11.21-5.75-13.49-3.42-6.09-6.78-9.93-13.49-17.62-1.43-1.64-6.82-7.81-7.26-7.46Z"/>
        </g>
      </g>
    </g>
  </g>
</svg>