<svg width="50" height="50" viewBox="0 0 50 50" fill="none" xmlns="http://www.w3.org/2000/svg">
<path d="M41.5009 12.527C41.098 11.9881 40.4943 11.629 39.8226 11.5286C39.1508 11.4282 38.4662 11.5948 37.9191 11.9917L9.04255 32.9444C8.49551 33.3413 8.13093 33.9361 8.02902 34.5978C7.92711 35.2595 8.09621 35.9341 8.49913 36.473C8.90204 37.0119 9.50576 37.371 10.1775 37.4714C10.8492 37.5718 11.5339 37.4052 12.0809 37.0083L40.9575 16.0556C41.5045 15.6587 41.8691 15.0639 41.971 14.4022C42.0729 13.7405 41.9038 13.0659 41.5009 12.527Z" fill="#2E2A26"/>
<path d="M41.5009 12.527C41.098 11.9881 40.4943 11.629 39.8226 11.5286C39.1508 11.4282 38.4662 11.5948 37.9191 11.9917L9.04255 32.9444C8.49551 33.3413 8.13093 33.9361 8.02902 34.5978C7.92711 35.2595 8.09621 35.9341 8.49913 36.473C8.90204 37.0119 9.50576 37.371 10.1775 37.4714C10.8492 37.5718 11.5339 37.4052 12.0809 37.0083L40.9575 16.0556C41.5045 15.6587 41.8691 15.0639 41.971 14.4022C42.0729 13.7405 41.9038 13.0659 41.5009 12.527Z" fill="#2E2A26"/>
<path d="M8.49908 12.527C8.90199 11.9881 9.50571 11.629 10.1774 11.5286C10.8492 11.4282 11.5338 11.5948 12.0809 11.9917L40.9575 32.9444C41.5045 33.3413 41.8691 33.9361 41.971 34.5978C42.0729 35.2595 41.9038 35.9341 41.5009 36.473C41.098 37.0119 40.4942 37.371 39.8225 37.4714C39.1508 37.5718 38.4661 37.4052 37.9191 37.0083L9.04249 16.0556C8.49546 15.6587 8.13088 15.0639 8.02897 14.4022C7.92706 13.7405 8.09616 13.0659 8.49908 12.527Z" fill="#2E2A26"/>
<path d="M8.49908 12.527C8.90199 11.9881 9.50571 11.629 10.1774 11.5286C10.8492 11.4282 11.5338 11.5948 12.0809 11.9917L40.9575 32.9444C41.5045 33.3413 41.8691 33.9361 41.971 34.5978C42.0729 35.2595 41.9038 35.9341 41.5009 36.473C41.098 37.0119 40.4942 37.371 39.8225 37.4714C39.1508 37.5718 38.4661 37.4052 37.9191 37.0083L9.04249 16.0556C8.49546 15.6587 8.13088 15.0639 8.02897 14.4022C7.92706 13.7405 8.09616 13.0659 8.49908 12.527Z" fill="#2E2A26"/>
</svg>
