<svg width="55" height="59" viewBox="0 0 55 59" fill="none" xmlns="http://www.w3.org/2000/svg">
<path d="M2.0529 11.7389C2.0529 11.7389 6.91481 12.7817 10.2612 15.9709C12.3348 17.95 12.4299 19.6503 13.1125 23.559C14.369 30.6762 15.2803 34.9754 16.4429 37.6872C17.1211 39.2595 21.3118 50.595 28.5683 51.9451C33.3997 52.8506 37.3652 51.6549 39.6776 50.8449C41.5915 50.1792 46.7432 47.1277 48.7517 43.2458C52.4705 36.067 49.7875 29.7582 45.9949 24.6628C45.3145 23.7412 42.9664 17.7795 32.8463 13.6779C17.2389 7.36419 2.0529 11.7389 2.0529 11.7389Z" fill="#7D9247" stroke="#536B1B" stroke-miterlimit="10"/>
<path d="M43.0662 47.5526C42.3187 45.3308 39.7063 38.476 37.1788 34.9915C32.3138 28.2886 24.5791 19.4336 18.1672 17.8327" fill="#7D9247"/>
<path d="M43.0662 47.5526C42.3187 45.3308 39.7063 38.476 37.1788 34.9915C32.3138 28.2886 24.5791 19.4336 18.1672 17.8327" stroke="#536B1B" stroke-miterlimit="10"/>
<path d="M22.5536 31.1939C24.5283 30.9182 28.6103 31.6468 31.5587 32.6213C33.1714 33.1496 35.4549 34.4138 36.7354 34.7199" fill="#7D9247"/>
<path d="M22.5536 31.1939C24.5283 30.9182 28.6103 31.6468 31.5587 32.6213C33.1714 33.1496 35.4549 34.4138 36.7354 34.7199" stroke="#536B1B" stroke-miterlimit="10"/>
<path d="M37.7158 36.1463C38.3838 34.7444 39.2483 28.753 39.2518 26.4036Z" fill="#7D9247"/>
<path d="M37.7158 36.1463C38.3838 34.7444 39.2483 28.753 39.2518 26.4036" stroke="#536B1B" stroke-miterlimit="10"/>
<path d="M41.8535 44.0596C40.196 44.1218 33.8293 42.706 31.4477 41.86Z" fill="#7D9247"/>
<path d="M41.8535 44.0596C40.196 44.1218 33.8293 42.706 31.4477 41.86" stroke="#536B1B" stroke-miterlimit="10"/>
<path d="M28.0199 24.1661C28.0038 22.6825 26.0682 17.0858 24.9967 15.0167Z" fill="#7D9247"/>
<path d="M28.0199 24.1661C28.0038 22.6825 26.0682 17.0858 24.9967 15.0167" stroke="#536B1B" stroke-miterlimit="10"/>
</svg>
