<svg width="70" height="70" viewBox="0 0 70 70" fill="none" xmlns="http://www.w3.org/2000/svg">
<path d="M27.3409 18.69C24.8034 18.7877 22.5094 19.6933 21.2829 20.9212C21.1474 21.0566 20.9866 21.164 20.8096 21.2372C20.6326 21.3105 20.4429 21.3481 20.2514 21.3481C20.0598 21.348 19.8702 21.3102 19.6932 21.2368C19.5163 21.1635 19.3555 21.056 19.2201 20.9205C19.0847 20.785 18.9773 20.6242 18.9041 20.4472C18.8309 20.2702 18.7932 20.0805 18.7933 19.8889C18.7933 19.6974 18.8311 19.5077 18.9045 19.3308C18.9779 19.1538 19.0854 18.9931 19.2209 18.8577C21.1123 16.9662 24.1923 15.8929 27.2271 15.7748C30.2823 15.6566 33.6175 16.4923 35.9538 18.8285C36.2272 19.1022 36.3808 19.4732 36.3806 19.8601C36.3805 20.2469 36.2267 20.6179 35.953 20.8913C35.6794 21.1648 35.3083 21.3183 34.9215 21.3182C34.5346 21.318 34.1637 21.1642 33.8902 20.8906C32.3007 19.2996 29.8594 18.5908 27.3409 18.6885" fill="#7A8F6A"/>
<path fill-rule="evenodd" clip-rule="evenodd" d="M42.1983 39.935C45.0897 36.5178 46.6733 32.1846 46.6667 27.7083C46.6667 17.2375 38.1792 8.75 27.7083 8.75C17.2375 8.75 8.75 17.2375 8.75 27.7083C8.75 38.1792 17.2375 46.6667 27.7083 46.6667C32.3677 46.6667 36.6333 44.9867 39.935 42.1983L39.375 45.4183L50.3329 56.3762L56.3762 50.3329L45.4183 39.375L42.1983 39.935ZM27.7083 42.2917C35.7627 42.2917 42.2917 35.7627 42.2917 27.7083C42.2917 19.654 35.7627 13.125 27.7083 13.125C19.654 13.125 13.125 19.654 13.125 27.7083C13.125 35.7627 19.654 42.2917 27.7083 42.2917Z" fill="#7A8F6A"/>
<path d="M52.395 58.4382L58.4383 52.3949L60.4159 54.3724C61.5286 55.4851 61.5286 57.2891 60.4159 58.4003L58.4004 60.4157C57.2877 61.5284 55.4838 61.5284 54.3725 60.4157L52.395 58.4382Z" fill="#7A8F6A"/>
</svg>
