<svg width="60" height="56" viewBox="0 0 60 56" fill="none" xmlns="http://www.w3.org/2000/svg">
<path d="M27.7571 13.7943C28.4312 11.314 29.2933 8.88488 30.3327 6.53419C31.3063 4.33316 32.5703 2.06277 34.7293 0.993281C35.9258 0.400134 37.2866 0.241352 38.6182 0.133673C41.8568 -0.125487 45.2086 -0.103584 48.2316 1.08271C51.2547 2.26901 53.9106 4.8241 54.433 8.02892C52.6228 7.16566 50.7962 6.29693 48.849 5.81876C46.9019 5.3406 44.7976 5.27489 42.9272 6.00127C42.5874 6.13267 42.2403 6.30423 42.0376 6.60719C41.8348 6.91015 41.8348 7.37737 42.1289 7.59273C42.3189 7.73326 42.5746 7.73691 42.8103 7.73509C45.7785 7.72048 48.7467 7.83546 51.704 8.0782C52.3269 8.1293 52.9589 8.18953 53.5398 8.41766C54.1773 8.66952 54.7216 9.11483 55.2038 9.60395C58.1428 12.5879 58.8808 17.0338 59.4744 21.1785C59.553 21.7279 59.5858 22.3977 59.1347 22.7225C57.8506 22.06 56.9354 20.8701 55.8358 19.932C53.0155 17.5211 49.1303 16.8641 45.4424 16.4388C42.9655 16.1523 40.4795 15.9296 37.9917 15.7709C44.3592 18.492 51.2949 19.6218 57.7848 22.0381C58.3602 22.2517 58.9703 22.5072 59.2954 23.0273C59.5274 23.396 59.5804 23.8468 59.626 24.2812C59.7959 25.8507 59.9621 27.4641 59.5621 28.9917C59.1383 30.6123 58.1063 32.0194 57.6423 33.6292C57.1053 35.4907 57.2934 37.6772 56.0148 39.1336C55.1819 37.0384 55.1837 34.5326 53.6859 32.848C52.8073 31.8588 51.5341 31.3131 50.535 30.4444C49.7386 29.7545 49.1322 28.8712 48.3613 28.1521C47.6343 27.4732 46.7776 26.9531 45.9009 26.4822C43.3381 25.1061 40.5599 24.1297 37.6994 23.5968C37.7049 24.126 38.2912 24.429 38.7899 24.606C40.7681 25.3087 42.7865 25.9255 44.657 26.8764C47.9704 28.5628 50.6683 31.2182 53.3114 33.8299C53.6548 34.1694 54.0055 34.5198 54.19 34.9651C54.7325 36.2792 53.653 37.6352 52.9114 38.8507C52.1497 40.099 51.704 41.5135 51.0391 42.8184C50.3742 44.1233 49.4061 45.3717 48.0289 45.8699C47.3348 43.5521 46.6425 41.2324 45.9484 38.9146C45.5958 37.7337 45.2378 36.5438 44.6551 35.4579C43.4952 33.3025 41.5298 31.7128 39.5753 30.2364C38.8794 29.7107 38.0081 29.1669 37.1971 29.4844C37.208 30.4681 37.8875 31.3022 38.5323 32.045C39.4292 33.078 40.3242 34.1128 41.2211 35.1458C42.4321 36.542 43.6541 37.9564 44.5145 39.5917C45.731 41.904 46.1621 44.6197 45.7255 47.1967C44.8798 52.1883 36.1358 51.4747 33.4032 55.738C32.7109 53.2997 30.3272 51.8123 28.1974 50.438C26.0675 49.0638 23.808 47.2332 23.6491 44.7018C23.5724 43.4663 24.0254 42.2672 24.4711 41.1119C25.8191 37.6206 27.1672 34.1274 28.5152 30.636C28.7581 30.0064 29.0047 29.3457 28.928 28.6759C28.8513 28.0061 28.3325 27.3345 27.6585 27.329C27.3516 27.3272 27.0594 27.4586 26.7963 27.6156C25.209 28.5628 24.4071 30.386 23.7039 32.0943C22.9568 33.9047 22.2097 35.717 21.4645 37.5275C20.8964 38.9073 20.3228 40.3016 20.0872 41.7744C19.7219 44.0631 20.2206 46.4795 21.4627 48.4359C19.015 48.1823 16.8998 46.6875 14.9106 45.2402C13.6064 44.293 12.2163 43.2235 11.7999 41.6686C10.7715 42.2946 10.4025 43.793 11.0199 44.826C8.59418 43.1378 8.11378 39.5679 9.20062 36.8212C10.2875 34.0745 12.5762 31.9994 14.8996 30.1761C17.2231 28.3529 19.7036 26.63 21.4298 24.2337C21.5777 24.0275 21.7257 23.8048 21.7567 23.5529C21.8316 22.9416 21.1667 22.447 20.5512 22.4579C19.9356 22.4689 19.3858 22.8229 18.8725 23.1642C13.4603 26.7669 7.83797 30.5959 4.74734 36.312C3.79385 34.4669 2.93351 32.5761 2.17181 30.6452C1.71698 29.4917 1.28956 28.2835 1.35166 27.0443C1.43751 25.378 1.92705 23.8285 3.17827 22.7225C4.4295 21.6166 5.98396 20.9249 7.51283 20.2478C5.17111 19.4356 2.30333 20.7442 1.38637 23.0456C0.409132 20.6474 -0.573584 17.9445 0.40365 15.5464C1.43203 13.0223 4.27424 11.7721 6.93927 11.1918C8.80241 10.7848 10.7094 10.584 12.6164 10.5895C12.4465 9.07469 7.6626 10.0693 5.37934 10.9819C4.16099 11.4692 9.71572 5.72021 11.3177 4.38973C12.4976 3.40967 13.9334 2.749 15.3271 2.1084C16.739 1.45867 18.3538 1.20134 19.8954 0.993281C21.4371 0.785224 23.0445 1.75069 24.1752 2.81653C26.3434 4.8606 25.5579 8.37933 25.9141 11.3378C26.0438 12.4237 26.6703 13.7688 27.7645 13.7943H27.7571Z" fill="#3F6A45"/>
<path d="M33.3265 44.1215C33.3685 45.4282 33.6626 46.808 33.1931 48.0289C32.9027 42.8567 32.3876 37.6972 31.6478 32.5706C29.655 33.9796 29.3079 34.4723 28.2704 36.9709C27.8923 37.8797 27.8686 37.4545 26.8365 41.309C26.8968 37.6881 28.6102 34.3117 31.2697 31.8515C30.5847 28.4533 29.708 25.3999 29.1892 22.3429C26.7543 23.2591 24.4656 25.2886 22.6262 27.1264C22.1111 27.6429 21.5942 28.1649 21.1868 28.7708C20.4745 29.8294 20.058 31.1726 18.9693 31.8388C19.3219 30.8861 19.8808 30.0228 20.4763 29.1979C21.3695 27.9641 22.3559 26.7998 23.3422 25.639C24.2482 24.5695 24.988 24.0092 26.2465 23.1533C26.9333 22.6842 27.9106 21.9378 28.8348 21.6567C28.4878 19.9521 28.3782 19.6984 28.1243 18.3479C28.106 18.2475 28.0074 17.7292 27.9325 17.6087C27.9252 17.5959 27.9088 17.5905 27.8941 17.5923C23.4555 17.9883 20.9384 18.9209 16.9326 20.6164C15.0987 21.3921 12.3734 23.1788 10.5633 24.137C14.927 19.5104 21.4974 17.3933 27.8156 16.6487C27.8046 16.1122 27.7425 15.5774 27.6329 15.0518C27.6183 14.9824 27.6019 14.9113 27.5544 14.8602C27.4959 14.7963 27.4046 14.778 27.3188 14.7634C24.1039 14.1904 20.8562 13.6136 17.5957 13.7925C17.1464 13.818 16.6934 13.8564 16.2477 13.7925C17.5062 13.338 18.8853 13.4092 20.2224 13.4841C21.627 13.5644 23.0335 13.6447 24.4181 13.8983C25.5287 14.1028 26.6721 14.4167 27.7699 14.1502C27.2055 13.9257 26.6594 13.6337 26.2137 13.2212C25.8283 12.8635 25.5305 12.4273 25.2035 12.0149C23.9322 10.4088 22.2463 9.18967 20.5841 7.99242C22.9258 8.99621 24.9478 10.7282 26.2977 12.8873C26.4529 13.1355 26.6849 13.2577 26.8986 13.4567C27.1124 13.6556 27.4667 13.8472 27.7535 13.7925C27.8923 13.7651 28.0476 12.566 28.1353 12.4584C28.285 12.2759 28.5609 12.5679 28.5974 12.8015C28.6339 13.0351 28.5791 13.2851 28.6759 13.5005C28.8622 13.9166 29.5016 13.9056 29.8486 13.61C30.1957 13.3143 30.2687 12.8088 30.5482 12.4492C31.4487 11.2921 31.9748 11.0312 33.3192 10.2683C34.6636 9.5054 36.3696 8.66222 37.3341 7.45403C37.6026 7.11821 38.3241 5.94834 38.7186 6.11443C37.999 7.3062 37.029 8.34831 35.891 9.15134C34.901 9.85034 33.7904 10.365 32.8041 11.0677C31.8177 11.7703 30.9245 12.7157 30.656 13.8983C30.6395 13.9713 30.6268 14.0498 30.6596 14.1174C30.7035 14.2086 30.8149 14.2415 30.9135 14.2634C31.6898 14.4422 32.4808 14.5681 33.2516 14.7707C34.3457 15.0591 35.4362 15.55 36.4774 15.9917C34.1704 15.331 31.5309 14.7999 29.1381 14.6174C29.1271 15.0427 29.2056 15.5811 29.1947 16.0063C29.191 16.1779 29.2714 16.5575 29.2714 16.5575C29.4048 16.7984 29.8851 16.8203 30.1555 16.8769C32.1976 17.3094 34.2398 17.7438 36.2801 18.1763C37.3359 18.4008 38.3917 18.6253 39.431 18.9155C44.2862 20.2751 48.6097 23.0365 52.8511 25.7631C54.5353 26.8454 56.2541 27.9587 57.4871 29.5355C55.6933 28.4076 53.8978 27.2816 52.104 26.1537C48.4508 23.8577 44.7483 21.5399 40.6421 20.2131C39.5023 19.8444 38.3387 19.5542 37.1752 19.2659C34.7549 18.6636 31.8871 18.0558 29.4669 17.4536C29.6148 18.7329 29.9546 19.8499 30.1007 21.1293C30.1263 21.3446 30.0349 21.4268 30.3582 21.6695C30.5044 21.779 30.7692 21.914 30.9391 21.9761C37.219 24.2666 42.7427 28.435 46.9987 33.5872C47.4042 34.0799 47.8133 34.611 47.9156 35.2407C46.1621 33.2076 44.3884 31.1562 42.2239 29.5666C41.3928 28.9552 40.5708 28.331 39.8146 27.6283C39.2885 27.141 38.5232 26.6099 37.8199 26.119C36.9523 25.5131 35.4545 24.6608 34.4882 24.2319C33.1402 23.6314 31.5273 22.9251 30.1774 22.3229C30.508 24.1224 31.0067 25.6974 31.2405 27.3473C31.5401 29.4643 32.0716 31.2182 32.4369 33.3262C32.6305 34.445 32.6835 35.5637 32.7986 36.6934C32.8424 37.1205 32.8863 37.5494 33.0086 37.9619C33.2863 38.8981 33.9494 39.672 34.669 40.3363C35.3887 41.0006 36.1815 41.5846 36.8336 42.3128C37.546 43.1067 38.0702 44.0485 38.5542 44.9993C38.2967 44.9355 38.1159 44.7128 37.9496 44.5047C36.4774 42.6578 34.764 41.0189 33.058 39.3872C33.4069 41.0608 33.2717 42.4205 33.3265 44.1288V44.1215Z" fill="#F3E3CE"/>
</svg>
