<svg width="48" height="64" viewBox="0 0 48 64" fill="none" xmlns="http://www.w3.org/2000/svg">
<g clip-path="url(#clip0_375_726)">
<path d="M15.5889 0H23.6375V16.2041H15.589C4.97475 15.7864 4.86755 0.438672 15.5889 0ZM15.5889 33.1013H23.6375V16.8972H15.589C4.86765 17.3358 4.97475 32.6836 15.5889 33.1013ZM32.3748 0H24.326V16.2041H32.3748C43.1318 15.6246 42.9977 0.330762 32.3748 0ZM23.6375 41.8965V33.7943H15.589C9.02098 33.7943 4.86765 41.5459 9.43551 47.1135C13.7906 52.6319 23.6376 49.8807 23.6376 41.8965M40.4399 24.9992C40.4399 18.7727 33.6976 14.8601 28.3331 17.9733C22.9686 21.0866 22.9685 28.9119 28.3331 32.0252C33.6977 35.1385 40.4399 31.2258 40.4399 24.9992Z" fill="#3F6A45"/>
</g>
<rect x="0.5" y="56.5" width="47" height="7" rx="3.5" stroke="#3F6A45"/>
<rect x="0.5" y="56.5" width="41" height="7" rx="3.5" fill="#3F6A45"/>
<rect x="0.5" y="56.5" width="41" height="7" rx="3.5" stroke="#3F6A45"/>
<defs>
<clipPath id="clip0_375_726">
<rect width="33" height="50" fill="white" transform="translate(7.5)"/>
</clipPath>
</defs>
</svg>
