<svg width="47" height="50" viewBox="0 0 47 50" fill="none" xmlns="http://www.w3.org/2000/svg">
<g clip-path="url(#clip0_24_90)">
<path d="M15.5913 2H23.1521V16.9078H15.5914C5.62043 16.5235 5.51973 2.40358 15.5913 2ZM15.5913 32.4532H23.1521V17.5454H15.5914C5.51982 17.949 5.62043 32.0689 15.5913 32.4532ZM31.3598 2H23.7988V16.9078H31.3598C41.4649 16.3746 41.339 2.3043 31.3598 2ZM23.1521 40.5448V33.0908H15.5914C9.42143 33.0908 5.51982 40.2222 9.81084 45.3444C13.902 50.4214 23.1522 47.8902 23.1522 40.5448M38.9361 24.9993C38.9361 19.2708 32.6025 15.6713 27.5631 18.5355C22.5237 21.3997 22.5236 28.599 27.5631 31.4632C32.6026 34.3274 38.9361 30.7277 38.9361 24.9993Z" fill="#3F6A45"/>
</g>
<defs>
<clipPath id="clip0_24_90">
<rect width="31" height="46" fill="white" transform="translate(8 2)"/>
</clipPath>
</defs>
</svg>
