<svg width="57" height="57" viewBox="0 0 57 57" fill="none" xmlns="http://www.w3.org/2000/svg">
<g clip-path="url(#clip0_1_237)">
<path d="M0 8.771C0 8.30577 0.184812 7.85959 0.51378 7.53063C0.842748 7.20166 1.28892 7.01685 1.75416 7.01685H19.2887C22.9514 7.01685 26.1767 8.88794 28.0618 11.7273C29.0219 10.2787 30.3258 9.09033 31.8571 8.26838C33.3884 7.44642 35.0993 7.01645 36.8373 7.01685H54.3788C54.844 7.01685 55.2902 7.20166 55.6192 7.53063C55.9482 7.85959 56.133 8.30577 56.133 8.771V44.0015C56.133 44.2328 56.0872 44.4619 55.9983 44.6754C55.9095 44.889 55.7792 45.0829 55.6151 45.246C55.4509 45.409 55.2562 45.538 55.042 45.6255C54.8278 45.7129 54.5985 45.7572 54.3671 45.7556L36.3999 45.634C35.4704 45.6274 34.5489 45.8055 33.6889 46.1581C32.8289 46.5106 32.0475 47.0305 31.39 47.6875L29.3084 49.7715C29.1455 49.9345 28.9521 50.0638 28.7392 50.152C28.5263 50.2402 28.2981 50.2856 28.0677 50.2856C27.8372 50.2856 27.609 50.2402 27.3961 50.152C27.1832 50.0638 26.9898 49.9345 26.8269 49.7715L24.7172 47.6641C23.4017 46.3482 21.6172 45.6087 19.7565 45.6083H1.75416C1.28892 45.6083 0.842748 45.4235 0.51378 45.0945C0.184812 44.7655 0 44.3193 0 43.8541L0 8.771ZM29.8206 44.3967C31.699 42.9105 34.0281 42.1093 36.4233 42.1257L52.6247 42.2356V10.5252H36.8373C34.9763 10.5252 33.1916 11.2644 31.8758 12.5803C30.5599 13.8961 29.8206 15.6809 29.8206 17.5418V44.3967ZM26.3053 17.5348C26.3035 15.6751 25.5634 13.8921 24.2477 12.5778C22.932 11.2634 21.1484 10.5252 19.2887 10.5252H3.50831V42.0999H19.7565C22.1374 42.0999 24.4482 42.9092 26.3123 44.392L26.3053 17.5348Z" fill="#7A8F6A"/>
</g>
<defs>
<clipPath id="clip0_1_237">
<rect width="56.133" height="56.133" fill="white"/>
</clipPath>
</defs>
</svg>
