<?xml version="1.0" encoding="UTF-8"?>
<svg id="Layer_2" data-name="Layer 2" xmlns="http://www.w3.org/2000/svg" viewBox="0 0 286.04 436.07">
  <defs>
    <style>
      .cls-1 {
        fill: #65772d;
      }

      .cls-1, .cls-2, .cls-3, .cls-4, .cls-5, .cls-6 {
        stroke-miterlimit: 10;
      }

      .cls-1, .cls-4 {
        stroke: #5d6018;
      }

      .cls-2 {
        fill: none;
        stroke-width: 2px;
      }

      .cls-2, .cls-3, .cls-6 {
        stroke: #656d1d;
      }

      .cls-3 {
        fill: #b0c180;
      }

      .cls-4 {
        fill: #5d6d32;
      }

      .cls-5 {
        fill: #708440;
        stroke: #617235;
      }

      .cls-6 {
        fill: #97b24f;
      }

      .cls-7 {
        fill: #cc7d5f;
      }

      .cls-8 {
        fill: #b76b56;
      }

      .cls-9 {
        fill: #c1735b;
      }
    </style>
  </defs>
  <g id="Layer_1-2" data-name="Layer 1">
    <g id="potted-plant">
      <g id="h-pot">
        <g id="pot">
          <polygon id="leg-3" class="cls-9" points="91.07 201.21 50.81 436.07 58.94 436.07 105.7 201.21 91.07 201.21"/>
          <polygon id="leg-2" class="cls-9" points="182.68 200.95 222.94 435.8 214.81 435.8 168.05 200.95 182.68 200.95"/>
          <polygon id="leg-1" class="cls-8" points="130.42 204.27 130.42 407.02 137.25 407.02 143.48 204.27 130.42 204.27"/>
          <path id="pot-2" data-name="pot" class="cls-7" d="M71.35,76.24c-7.07,53.5-1.78,88.78,4.04,106.5,1.6,4.87,1.91,13.49,9.08,17.16,31.29,16.03,70.66,15.65,98.42,3.53,6.31-2.75,8.83-10.85,13.63-24.23,6.66-18.58,10.62-51.7,9.08-98.42-7.19,1.53-13.02,2.48-16.66,3.03-50.75,7.65-90.36-.53-106.5-4.54-5.01-1.25-8.98-2.4-11.1-3.03Z"/>
          <path id="pot-design" class="cls-9" d="M74.01,178.15c9.17,2.71,24.41,5.33,39.23,6.77,16.69,1.62,29.42.68,38.02,0,11.18-.88,29.03-2.79,45.72-7.07-.8,2.68-2.13,5.72-3.02,8.46-11.47,2.79-27.16,4.79-42.71,6.01-11.17.87-23.7,1.85-40.04,0-13.43-1.52-27.22-4.24-35.06-6.71-.67-2.54-1.48-4.92-2.15-7.47Z"/>
        </g>
      </g>
      <g id="h-plant">
        <g id="h-branch">
          <path class="cls-2" d="M116.88,76.42c-12.35-11.82-37.22-11.05-41.37-9.38-12.41,4.99-19.1,12.9-23.55,18.17-6.15,7.27-5.73,9.76-5.38,10.77,1.38,3.99,7.86,2.79,12.11,8.08,4.32,5.37,2.79,13.01,2.69,13.46-1.3,6.04-5.27,6.93-14.98,18.17-5.19,6.01-7.78,9.01-9.25,12.79-1.79,4.6-2.09,9.72-2.69,19.95-.25,4.3-.31,8.16-.35,10.33-.13,8.33.19,10.03,0,12.79-.31,4.45-1.88,10.72-7.73,18.26"/>
          <path class="cls-2" d="M116.25,108.55c2.53.64-1.45-68.51,17.63-61.37,22.46,8.4,35.16,12.24,49.98,15.82,16.12,3.9,18.19,1.37,26.92,6.06,9.48,5.09,14.72,12.27,17.5,16.15,8.21,11.5,10.05,22.8,10.77,27.59,2.29,15.25-1.24,27.32-3.36,34.32-4.86,15.99-9.1,14.44-14.13,31.63-.95,3.23-4.25,15.08-4.71,31.04-.16,5.72.11,9.7.67,17.41,1.94,26.68,4.92,30.22,4.71,45.76-.11,8.1-.3,17.15-4.04,28.26-4.89,14.55-13.03,24.27-17.46,28.94-13.33,14.03-28.44,19.45-35.7,21.53"/>
        </g>
        <g id="h-leaves">
          <g id="leaf-30">
            <path class="cls-4" d="M10.07,251.85c.66-.14-.83-4.1,1.51-7.91,1.45-2.36,3.42-3.12,7.74-5.22,7.87-3.82,11.8-5.73,13.8-8.08.64-.75,5.04-6.09,3.53-12.11-1-4.02-4.12-6.31-6.06-7.74-1.6-1.18-5.35-3.85-10.77-3.7-.75.02-7.04.3-11.44,5.22-.8.89-3.52,4.15-4.04,13.46-.8,14.34,4.57,26.32,5.72,26.08Z"/>
            <path class="cls-4" d="M24.54,213.32c-2.06,1.48-4.55,3.6-6.9,6.56-4.53,5.7-6.21,11.55-6.9,14.97"/>
            <path class="cls-4" d="M23.89,228.31c-.53-1.86-1.47-5.96-1.45-8.97.02-1.86.23-3.5.5-4.87"/>
            <path class="cls-4" d="M17.64,219.8c-1.91.27-6.04,1.07-8.79,2.31"/>
          </g>
          <g id="leaf-29">
            <path class="cls-6" d="M138.76,362.37c.43.27,1.61-2.61,4.81-3.43,1.98-.51,3.44.1,6.85,1.21,6.21,2.02,9.32,3.03,11.59,2.8.73-.07,5.81-.65,8.02-4.63,1.48-2.66.93-5.48.59-7.24-.28-1.45-.98-4.81-4.01-7.52-.42-.38-3.99-3.47-8.86-3.12-.88.06-4.01.4-8.98,5.09-7.66,7.23-10.76,16.38-10.01,16.84Z"/>
            <path class="cls-6" d="M166.04,349.3c-1.87-.27-4.29-.42-7.06-.06-5.34.7-9.2,2.96-11.3,4.42"/>
            <path class="cls-6" d="M158.14,356.95c.65-1.26,2.19-3.93,3.73-5.53.94-.98,1.89-1.75,2.73-2.33"/>
            <path class="cls-6" d="M159.02,349.2c-1.18-.84-3.83-2.54-5.96-3.29"/>
          </g>
          <g id="leaf-28">
            <path class="cls-5" d="M19.84,134.94c.77.22,1.36-5.01,5.92-7.88,2.82-1.78,5.33-1.5,11.04-1.35,10.42.26,15.63.39,19.02-1.06,1.09-.47,8.66-3.86,10.36-11.39,1.13-5.02-.91-9.33-2.19-12.02-1.05-2.22-3.56-7.32-9.38-10.24-.81-.41-7.62-3.69-14.96-.76-1.33.53-5.99,2.59-11.63,12.59-8.68,15.41-9.54,31.73-8.19,32.12Z"/>
            <path class="cls-5" d="M56.2,100.57c-2.99.46-6.78,1.39-10.89,3.32-7.91,3.72-12.89,9.24-15.48,12.63"/>
            <path class="cls-5" d="M47.32,116.79c.45-2.36,1.69-7.43,3.37-10.75,1.03-2.05,2.16-3.74,3.19-5.1"/>
            <path class="cls-5" d="M45.36,103.81c-2.17-.8-6.98-2.27-10.57-2.45"/>
          </g>
          <g id="leaf-27">
            <path class="cls-1" d="M262.82,214.64c-.78-.2,1.19-4.82-1.44-9.46-1.63-2.87-3.96-3.88-9.04-6.58-9.27-4.94-13.9-7.41-16.18-10.29-.73-.92-13.27-12.28-11.18-19.36,1.39-4.71,2.99-8.19,5.38-9.79,1.98-1.31,5.51-4.26,11.94-3.25,2.52.4,13.03,6.88,18.08,12.94.91,1.09,6.98,7.76,7.16,18.83.28,17.05-3.34,27.3-4.72,26.96Z"/>
            <path class="cls-1" d="M232.14,165.98c2.74,1.32,6.13,3.3,9.52,6.29,6.54,5.76,15.71,17.66,17.23,21.52"/>
            <path class="cls-1" d="M242.53,186.27c-.09-2.39-.02-7.77-1.84-11.39-1-1.98-3.23-4.86-3.84-6.4"/>
            <path class="cls-1" d="M234.91,167.29c2.32-.07,11.55,1.47,15.06,2.38"/>
            <path class="cls-1" d="M245.86,176.39c2.73.21,8.86,4.4,12.37,5.3"/>
          </g>
          <g id="leaf-26">
            <path class="cls-4" d="M.66,175.37c.45.17,1.21-4.11,4.19-6.52,1.85-1.49,3.34-1.28,6.8-1.22,6.3.11,9.45.16,11.61-1.07.69-.39,10.94-3.77,12.54-9.95,1.07-4.12,1.58-7.39,1.01-9.58-.47-1.8-1.71-4.08-5.2-5.97-1.37-.74-8.2-1.59-12.88.89-.84.45-6.23,2.96-10.4,11.21C1.9,165.87-.13,175.07.66,175.37Z"/>
            <path class="cls-4" d="M32.78,149.06c-1.65.1-3.83.49-6.46,1.64-5.06,2.21-13.8,8.2-16.08,10.62"/>
            <path class="cls-4" d="M19.65,162.14c.05-1.77,1.39-5.05,2.77-7.31.75-1.23,2.31-2.84,2.8-3.84"/>
            <path class="cls-4" d="M29.76,149.41c-1.34-.65-6.91-1.75-9.07-1.9"/>
            <path class="cls-4" d="M20.58,153.94c-1.49-.04-7.02,1.25-9.05,2.01"/>
          </g>
          <g id="leaf-25">
            <path class="cls-6" d="M210.67,360.12c-.41-.26,2.58-3.43,2.72-7.25.09-2.37-.97-3.45-3.08-6.18-3.85-4.98-5.78-7.48-6.09-9.94-.1-.79-3.52-11.02.47-16,2.66-3.32,4.98-5.69,7.07-6.54,1.73-.7,4.3-1.07,7.89.59,1.41.65,6.18,5.63,6.99,10.85.15.94,1.36,6.76-2.76,15.04-6.34,12.75-12.5,19.88-13.22,19.43Z"/>
            <path class="cls-6" d="M212.55,318.64c.91,1.38,1.9,3.36,2.55,6.15,1.25,5.38,1.69,15.96,1.11,19.23"/>
            <path class="cls-6" d="M209.92,336.98c1.38-1.1,3.21-4.13,4.2-6.59.54-1.34.89-3.55,1.41-4.54"/>
            <path class="cls-6" d="M214.08,321.27c1.32.68,5.54,4.49,6.95,6.13"/>
            <path class="cls-6" d="M215.93,331.34c.93,1.17,3.19,6.37,3.8,8.45"/>
          </g>
          <g id="leaf-24">
            <path class="cls-5" d="M193.72,175.35c.44.26,1.75-4.13,5.12-6.13,2.09-1.24,3.6-.76,7.16-.08,6.48,1.23,9.71,1.85,12.1.93.76-.29,11.74-2.03,14.16-8.27,1.61-4.16,2.55-7.52,2.23-9.93-.26-1.99-1.26-4.61-4.61-7.22-1.32-1.02-8.25-3.13-13.38-1.35-.93.32-6.79,2.01-12.11,9.98-8.2,12.27-11.44,21.61-10.66,22.08Z"/>
            <path class="cls-5" d="M230.09,153.3c-1.71-.19-4.01-.16-6.86.58-5.49,1.43-15.24,6.2-17.88,8.35"/>
            <path class="cls-5" d="M214.94,164.76c.28-1.85,2.06-5.08,3.76-7.22.93-1.17,2.73-2.58,3.36-3.56"/>
            <path class="cls-5" d="M226.92,153.12c-1.3-.93-6.9-3.07-9.11-3.62"/>
            <path class="cls-5" d="M216.91,156.28c-1.53-.31-7.39.08-9.57.51"/>
          </g>
          <g id="leaf-23">
            <path class="cls-4" d="M241.92,236.17c-.52-.03.86-4.4-.8-7.95-1.03-2.2-2.56-2.65-5.88-4.08-6.05-2.61-9.08-3.92-10.54-6.01-.47-.67-8.58-8.27-7.09-14.79,1-4.35,2.11-7.65,3.72-9.47,1.33-1.5,3.63-3.11,7.87-3.39,1.66-.11,8.59,2.04,11.83,6.39.59.79,4.49,5.47,4.44,15.05-.09,14.76-2.65,24.31-3.55,24.26Z"/>
            <path class="cls-4" d="M224.18,197.52c1.52.8,3.41,2.11,5.35,4.33,3.74,4.26,9.14,13.68,10.13,16.94"/>
            <path class="cls-4" d="M230.3,215.51c.81-1.69,1.14-5.36.94-8.09-.11-1.49-.81-3.67-.79-4.83"/>
            <path class="cls-4" d="M226.9,199.15c1.59-.04,7.44,1.33,9.57,2.11"/>
            <path class="cls-4" d="M233.42,207.38c1.44.6,6.07,4.21,7.64,5.79"/>
          </g>
          <g id="leaf-22">
            <path class="cls-3" d="M91.07,120.61c-.6-.23.97-3.99-.98-8.13-1.21-2.56-2.98-3.59-6.84-6.29-7.04-4.91-10.55-7.37-12.26-9.99-.55-.84-10.01-11.45-8.31-17.28,1.13-3.89,2.39-6.71,4.25-7.87,1.53-.96,4.28-3.18,9.19-1.82,1.93.53,9.89,6.85,13.68,12.38.69,1,5.25,7.12,5.24,16.51,0,14.47-2.92,22.88-3.96,22.48Z"/>
            <path class="cls-3" d="M68.18,76.97c2.09,1.33,4.65,3.28,7.22,6.08,4.94,5.4,11.81,16.19,12.93,19.59"/>
            <path class="cls-3" d="M80.96,98.65c.22-1.91-.92-6.19-2.27-9.41-.74-1.76-2.41-4.37-2.86-5.73"/>
            <path class="cls-3" d="M70.29,78.3c1.78.12,8.83,2.15,11.51,3.2"/>
          </g>
          <g id="leaf-21">
            <path class="cls-6" d="M162.33,100.23c-.67-.06,1.12-7.34-1.64-10.85-1.71-2.18-3.73-5.07-8.29-8.2-7.21-4.96-9.02-5.47-11.27-7.57-.72-.67-10.16-8.79-9.36-14.95.53-4.11,1.39-7.21,3.15-8.85,1.45-1.35,3.97-4.27,9.39-4.27,2.13,0,11.6,4.01,16.54,8.39.89.79,6.17,5.65,8.33,14.72,4.12,17.34-5.68,31.69-6.85,31.59Z"/>
            <path class="cls-6" d="M137.12,50.23c2.57,1.46,5.71,3.59,8.75,6.66,5.87,5.92,13.7,17.78,14.81,21.52"/>
            <path class="cls-6" d="M151.11,74.31c.53-1.8.03-5.98-.87-9.17-.49-1.74-1.83-4.39-2.08-5.72"/>
            <path class="cls-6" d="M142.78,54.12c1.93.14,9.44,2.2,12.26,3.26"/>
            <path class="cls-6" d="M152.91,65.19c1.5.17,7.03,2.29,9.05,3.35"/>
          </g>
          <g id="leaf-20">
            <path class="cls-6" d="M56.11,202.51c-.66-.13.76-4.11-1.63-7.88-1.49-2.34-3.47-3.07-7.82-5.1-7.93-3.7-11.89-5.55-13.92-7.86-.65-.74-11.59-9.68-10.18-15.73.94-4.03,2.11-7.03,4.02-8.49,1.58-1.2,4.38-3.85,9.77-3.31,2.12.21,11.14,5.15,15.62,10,.81.88,6.15,6.18,6.81,15.48,1.02,14.33-1.52,23.12-2.68,22.9Z"/>
            <path class="cls-6" d="M28.37,163.09c2.34.98,5.25,2.48,8.2,4.83,5.7,4.53,13.87,14.08,15.31,17.26"/>
            <path class="cls-6" d="M43.67,182.44c.1-1.93-1.43-5.98-3.11-8.94-.92-1.62-2.91-3.93-3.49-5.2"/>
            <path class="cls-6" d="M30.74,164.05c1.92-.17,9.67.68,12.62,1.27"/>
          </g>
          <g id="leaf-19">
            <path class="cls-5" d="M111.33,128.37c.51-.44-2.7-3.2-2.48-7.66.14-2.77,1.5-4.38,4.27-8.3,5.06-7.14,7.59-10.71,8.21-13.72.2-.97,5.28-14.15,1.07-18.71-2.81-3.04-5.31-5.07-7.7-5.39-1.97-.26-5.71-1.18-10.13,1.95-1.73,1.23-7.13,9.99-8.63,16.42-.27,1.16-2.29,8.42,1.73,16.83,6.2,12.96,12.76,19.34,13.65,18.58Z"/>
            <path class="cls-5" d="M115.94,80.39c-1.55,2.01-3.33,4.75-4.74,8.25-2.72,6.75-5.09,19.1-4.77,22.57"/>
            <path class="cls-5" d="M112.22,104.78c-1.04-1.63-1.71-5.9-1.71-9.3,0-1.86.59-4.85.46-6.24"/>
            <path class="cls-5" d="M114.36,82.4c-1.76.8-8.07,5.37-10.34,7.34"/>
          </g>
          <g id="leaf-18">
            <path class="cls-5" d="M239.6,287.59c-.6-.17.7-5.41-1.49-10.37-1.36-3.08-3.17-4.03-7.14-6.71-7.24-4.87-10.86-7.31-12.71-10.35-.59-.98-10.59-12.74-9.3-20.7.86-5.31,1.92-9.26,3.68-11.17,1.44-1.58,3.95-4.31,8.93-4.36,9.2-.09,16.62,6.65,20.71,13.03.74,1.15,6.32,6.52,6.92,18.76.93,18.85-8.53,32.17-9.58,31.88Z"/>
            <path class="cls-5" d="M216.31,228.31c2.12,1.88,8.57,7.97,11.39,12.26,5.42,8.28,12.09,20.53,11.39,27.76"/>
            <path class="cls-5" d="M226.26,257.16c1.05-1.84,1.8-6.3,1.87-9.76.04-1.89-.47-4.82-.31-6.25"/>
            <path class="cls-5" d="M226.65,239.46c1.77.04,8.6,2.21,11.15,3.39"/>
            <path class="cls-5" d="M219.63,231.3c-.7,1.63-1.57,8.74-1.56,11.55"/>
            <path class="cls-5" d="M235.96,255.25c1.6.77,6.93,5.55,8.77,7.67"/>
          </g>
          <g id="leaf-17">
            <path class="cls-5" d="M153.99,11.08c.15.37-3.3,2.24-5.17,5.66-1.16,2.12-.95,3.45-.8,6.64.27,5.81.4,8.72-.54,11.06-.3.75-2.75,11.17-7.72,14.34-3.31,2.11-5.96,3.48-7.75,3.54-1.48.05-4.03.14-6.11-2.24-3.84-4.4-3.14-11.19-1.26-16.2.34-.91,1.04-6.15,7.61-12.26,10.13-9.42,21.46-11.19,21.73-10.54Z"/>
            <path class="cls-5" d="M130.52,50.52c.17-1.92.91-7.93,2.15-11.33,2.38-6.56,6.47-15.6,10.8-18.71"/>
            <path class="cls-5" d="M142.51,31.99c-1.46.37-4.26,2.13-6.22,3.74-1.07.88-2.5,2.52-3.36,3.13"/>
            <path class="cls-5" d="M132.47,40.23c-.71-.88-2.31-5.2-2.7-6.99"/>
            <path class="cls-5" d="M130.81,47.5c1.2-.44,5.52-3.4,7.08-4.74"/>
            <path class="cls-5" d="M137.45,28.22c-.23-1.14.24-5.98.66-7.88"/>
          </g>
          <g id="leaf-16">
            <path class="cls-5" d="M182.91,119.51c.58-.13.47-4.11,3.97-7.36,3.55-3.3,6.97-3.26,11.22-4.74,8.43-2.95,13.42-5.23,15.43-7.72.64-.8,9.73-9.33,9.26-15.96-.31-4.42-2.18-9.34-3.64-10.97-1.2-1.34-3.3-3.65-7.95-3.8-8.6-.27-16.15,5.17-20.57,10.38-.8.94-6.51,5.28-8.2,15.41-2.61,15.62-.54,24.98.47,24.75Z"/>
            <path class="cls-5" d="M219.01,76.18c-2.43,1.01-9.94,4.38-13.65,7.14-7.16,5.33-16.53,13.51-17.84,19.38"/>
            <path class="cls-5" d="M204.6,95.27c1.09-1.37,2.09-4.96,2.39-7.82.17-1.56-.1-4.08.13-5.25"/>
            <path class="cls-5" d="M212.71,79.14c-1.51-.37-7.83-.21-10.28.15"/>
            <path class="cls-5" d="M201.69,86.5c-1.44-.18-7.49.05-9.84.31"/>
            <path class="cls-5" d="M215.19,77.79c.2,1.44-.93,7.25-1.7,9.47"/>
            <path class="cls-5" d="M195.3,100.8c.67-1.54,1.71-8.11,1.83-10.69"/>
          </g>
          <g id="leaf-15">
            <path class="cls-4" d="M188.64,149.48c.59.03,2.1-2.98,5.77-6.06s6.62-4.4,11.1-4.72c8.91-.62,22.71,1.06,25.81.25,3.54-.93,10.21-6.01,11.34-12.56.97-5.61-2.5-12.62-3.48-14.57-.81-1.61-4.32-3.91-9.22-4.56-8.53-1.13-15.87,1.41-21.49,5.28-1.02.7-8.19,4.53-12.49,13.86-6.63,14.38-8.37,23.03-7.33,23.08Z"/>
            <path class="cls-4" d="M238.41,121.96c-2.63,0-10.86.27-15.34,1.41-8.65,2.2-20.42,6.21-23.87,11.14"/>
            <path class="cls-4" d="M221.51,134.21c1.41-1.03,3.32-4.23,4.36-6.92.57-1.47.97-3.97,1.51-5.03"/>
            <path class="cls-4" d="M237.03,121.96c-1.19-1.34-4.82-6.42-11.02-7.9"/>
            <path class="cls-4" d="M221.13,123.81c-1.75-.64-6.99-2.89-12.41-2.89"/>
            <path class="cls-4" d="M211.55,133.49c1.28-1.09,5.11-6.53,6.35-8.79"/>
          </g>
          <g id="leaf-14">
            <path class="cls-6" d="M251.08,127.53c-.25-.25.46-2.15.32-5.01-.14-2.83-.76-4.71-2.45-6.82-3.36-4.19-9.74-9.58-10.64-11.28-1.04-1.94-1.52-6.95.91-10.12,2.08-2.72,6.58-4.05,7.85-4.41,1.04-.3,3.49.31,5.77,2.21,3.98,3.3,5.85,7.57,6.44,11.63.11.73,1.35,5.46-1.02,11.16-3.64,8.79-6.74,13.09-7.19,12.65Z"/>
            <path class="cls-6" d="M242.9,94.36c1.07,1.16,4.31,4.9,5.64,7.34,2.56,4.71,5.59,11.54,4.83,15.07"/>
            <path class="cls-6" d="M244.4,106.81c-.12-1.04.51-3.19,1.27-4.75.41-.85,1.35-2.05,1.6-2.72"/>
            <path class="cls-6" d="M243.47,94.97c1.08-.02,4.79-.49,7.98,1.64"/>
            <path class="cls-6" d="M249.14,102.73c1,.51,4.12,1.9,6.33,4.29"/>
            <path class="cls-6" d="M248.78,110.91c-.04-1.01.79-4.92,1.29-6.39"/>
          </g>
          <g id="leaf-13">
            <path class="cls-5" d="M145.03,411.68c-.26-.57,4.58-2.96,6.96-7.83,1.47-3.02,1.04-5.02.51-9.78-.95-8.67-1.38-13.96-1.05-17.51.19-2.06.89-16.65,7.8-20.81,4.61-2.77,8.98-2.8,11.58-2.7,2.14.08,8.31,1.77,11.56,5.54,6.01,6.97,5.27,15.21,3.03,22.45-.4,1.31-.91,9.03-9.86,17.39-13.8,12.88-30.08,14.25-30.53,13.25Z"/>
            <path class="cls-5" d="M175.28,355.64c-.06,2.83-.55,11.69-2.02,16.61-2.82,9.48-7.88,22.48-13.86,26.61"/>
            <path class="cls-5" d="M159.67,381.86c2.08-.39,5.98-2.69,8.66-4.87,1.47-1.19,3.38-3.47,4.57-4.28"/>
            <path class="cls-5" d="M173.44,370.73c1.11,1.38,3.86,7.99,4.61,10.7"/>
            <path class="cls-5" d="M175.15,360.11c-1.7.52-7.69,4.44-9.83,6.26"/>
            <path class="cls-5" d="M167.39,388.03c.45,1.72.24,8.87-.2,11.65"/>
          </g>
          <g id="leaf-12">
            <path class="cls-4" d="M140.73,132.48c-.58-.25,1.4-5.27-.13-10.48-.94-3.23-2.61-4.41-6.21-7.58-6.54-5.77-10.42-9.4-12.56-12.24-1.25-1.65-10.55-12.91-8.24-20.64,1.54-5.15,4.76-8.12,6.74-9.79,1.64-1.38,7.33-4.28,12.28-3.69,9.14,1.11,14.13,7.71,17.36,14.57.58,1.24,5.41,7.29,4.41,19.5-1.54,18.81-12.65,30.78-13.66,30.35Z"/>
            <path class="cls-4" d="M125.38,70.67c1.86,2.14,7.46,9.02,9.69,13.64,4.29,8.91,9.31,21.93,7.67,29.01"/>
            <path class="cls-4" d="M131.48,100.57c1.28-1.69,2.61-6.01,3.13-9.43.29-1.87.16-4.84.5-6.24"/>
            <path class="cls-4" d="M134.17,83.06c1.75.27,8.23,3.31,10.61,4.81"/>
            <path class="cls-4" d="M128.28,74.06c-.91,1.52-2.7,8.46-3.06,11.24"/>
            <path class="cls-4" d="M141.34,99.94c1.49.97,6.15,6.4,7.7,8.75"/>
          </g>
          <g id="leaf-11">
            <path class="cls-4" d="M65.86,164.67c-.29-.15.69-3.28-.06-6.51-.47-2.01-1.3-2.74-3.08-4.71-3.25-3.59-5.18-5.84-6.24-7.61-.62-1.03-5.24-8.03-4.09-12.83.77-3.2,2.36-5.05,3.35-6.09.81-.86,3.65-2.66,6.1-2.29,4.54.69,7.02,4.79,8.63,9.05.29.77,2.69,4.53,2.19,12.12-.76,11.69-6.29,19.13-6.79,18.86Z"/>
            <path class="cls-4" d="M58.23,126.25c.92,1.33,3.71,5.6,4.82,8.48,2.13,5.54,4.63,13.63,3.81,18.03"/>
            <path class="cls-4" d="M61.27,144.84c.64-1.05,1.3-3.74,1.56-5.86.14-1.16.08-3.01.25-3.88"/>
            <path class="cls-4" d="M62.6,133.96c.87.17,4.09,2.06,5.27,2.99"/>
            <path class="cls-4" d="M59.68,128.36c-.45.95-1.34,5.26-1.52,6.99"/>
            <path class="cls-4" d="M66.17,144.45c.74.6,3.06,3.98,3.83,5.44"/>
          </g>
          <g id="leaf-10">
            <path class="cls-3" d="M233.44,313.6c-.22-.1.17-2.68-.69-5.19-.54-1.56-1.21-2.07-2.7-3.48-2.71-2.57-4.32-4.19-5.27-5.5-.55-.76-4.59-5.93-4.24-9.86.24-2.62,1.2-4.24,1.81-5.16.5-.76,2.37-2.45,4.18-2.38,3.35.14,5.55,3.19,7.13,6.44.29.59,2.39,3.37,2.79,9.47.61,9.39-2.63,15.83-3.02,15.66Z"/>
            <path class="cls-3" d="M224.1,283.65c.8.98,3.24,4.13,4.32,6.33,2.09,4.23,4.7,10.45,4.55,14.04"/>
            <path class="cls-3" d="M228.14,298.2c.35-.9.56-3.1.54-4.82-.01-.94-.24-2.41-.21-3.12"/>
            <path class="cls-3" d="M228.02,289.4c.65.06,3.16,1.27,4.11,1.91"/>
            <path class="cls-3" d="M225.35,285.2c-.23.8-.44,4.31-.4,5.71"/>
            <path class="cls-3" d="M231.64,297.45c.59.41,2.6,2.9,3.3,3.99"/>
          </g>
          <g id="leaf-9">
            <path class="cls-4" d="M173.73,100.77c-.31-.23,2.54-3.01,3.11-6.41.36-2.11-.39-3.08-1.81-5.53-2.59-4.48-4.06-7.26-4.62-9.31-.32-1.19-3.08-9.43.82-13.8,2.6-2.91,5.64-4.26,7.47-4.98,1.51-.6,6.19-1.54,9.29-.45,5.74,2.02,7.05,6.77,7.1,11.43,0,.84,1.37,5.24-3.02,12.54-6.76,11.25-17.81,16.92-18.35,16.51Z"/>
            <path class="cls-4" d="M182.38,60.82c.58,1.58,2.21,6.59,2.28,9.74.14,6.07-.5,14.74-3.75,18.82"/>
            <path class="cls-4" d="M177.31,79.95c1.37-.84,3.57-3.29,4.96-5.29.76-1.1,1.59-2.93,2.24-3.73"/>
            <path class="cls-4" d="M184.44,69.67c1.08.42,4.47,3.23,5.59,4.49"/>
            <path class="cls-4" d="M183.28,63.32c-1.07.8-4.37,4.76-5.46,6.41"/>
            <path class="cls-4" d="M184.07,81.02c.69.81,2.14,4.81,2.45,6.46"/>
          </g>
          <g id="leaf-8">
            <path class="cls-3" d="M258.74,158.99c-.24-.03-.63-2.61-2.22-4.74-.98-1.32-1.78-1.61-3.61-2.51-3.35-1.64-5.38-2.7-6.67-3.68-.75-.56-6.15-4.28-6.99-8.14-.56-2.57-.12-4.4.19-5.46.25-.87,1.52-3.05,3.27-3.52,3.24-.87,6.25,1.38,8.73,4.01.45.48,3.29,2.5,5.5,8.2,3.4,8.78,2.22,15.89,1.8,15.85Z"/>
            <path class="cls-3" d="M240.87,133.2c1.05.69,4.33,2.98,6.02,4.74,3.26,3.4,7.61,8.57,8.54,12.03"/>
            <path class="cls-3" d="M249.08,145.88c.07-.96-.39-3.12-.93-4.76-.29-.89-.95-2.22-1.13-2.91"/>
            <path class="cls-3" d="M246.33,137.52c.63-.14,3.4.27,4.49.59"/>
            <path class="cls-3" d="M242.53,134.31c.02.83.87,4.25,1.33,5.57"/>
            <path class="cls-3" d="M252.19,144.11c.69.22,3.35,1.99,4.35,2.82"/>
          </g>
          <g id="leaf-7">
            <path class="cls-3" d="M49.69,221.21c-.24-.03-.63-2.61-2.22-4.74-.98-1.32-1.78-1.61-3.61-2.51-3.35-1.64-5.38-2.7-6.67-3.68-.75-.56-6.15-4.28-6.99-8.14-.56-2.57-.12-4.4.19-5.46.25-.87,1.52-3.05,3.27-3.52,3.24-.87,6.25,1.38,8.73,4.01.45.48,3.29,2.5,5.5,8.2,3.4,8.78,2.22,15.89,1.8,15.85Z"/>
            <path class="cls-3" d="M31.81,195.43c1.05.69,4.33,2.98,6.02,4.74,3.26,3.4,7.61,8.57,8.54,12.03"/>
            <path class="cls-3" d="M40.02,208.1c.07-.96-.39-3.12-.93-4.76-.29-.89-.95-2.22-1.13-2.91"/>
            <path class="cls-3" d="M37.28,199.74c.63-.14,3.4.27,4.49.59"/>
            <path class="cls-3" d="M33.47,196.54c.02.83.87,4.25,1.33,5.57"/>
            <path class="cls-3" d="M43.14,206.33c.69.22,3.35,1.99,4.35,2.82"/>
          </g>
          <g id="leaf-6">
            <path class="cls-6" d="M184.03,237.31c.46-.05.85-4.69,3.6-8.56,1.7-2.4,3.2-2.94,6.62-4.6,6.23-3.02,9.99-4.98,12.35-6.76,1.37-1.03,11.26-7.83,12.33-14.78.71-4.63-.4-7.91-1.14-9.8-.61-1.56-3.38-5.43-6.82-6.24-6.37-1.48-11.86,2.62-16.28,7.41-.8.86-6,4.57-9.44,14.84-5.3,15.84-2.02,28.57-1.21,28.48Z"/>
            <path class="cls-6" d="M214.84,190.61c-1.94,1.27-7.92,5.45-10.94,8.66-5.81,6.19-13.47,15.56-14.76,21.79"/>
            <path class="cls-6" d="M200.81,213.55c-.27-1.72.31-5.62,1.11-8.56.44-1.61,1.52-4.01,1.76-5.25"/>
            <path class="cls-6" d="M204.91,198.48c-1.24-.24-6.52.56-8.58,1.17"/>
            <path class="cls-6" d="M211.79,192.64c.08,1.49-1.07,7.64-1.77,10.02"/>
            <path class="cls-6" d="M194.54,210.45c-1.3.41-6.18,3.64-7.99,5.16"/>
          </g>
          <g id="leaf-5">
            <path class="cls-6" d="M3.42,44.49c.19.6,10.85,1.29,15.9,3.28,3.13,1.24,5.25,2.31,8.08,6.18,5.15,7.05,7.44,8.68,10.08,11.08,1.53,1.39,11.89,11.69,19.8,10.09,5.27-1.07,8.52-3.99,10.37-5.82,1.52-1.51,2.8-7.09,2.66-12.06-.27-9.2-4.24-13.75-10.78-18.44-1.11-.8-6.76-6.06-19.01-6.18-18.87-.19-37.42,10.83-37.08,11.88Z"/>
            <path class="cls-6" d="M62.46,67.68c-1.6-2.33-6.87-9.48-10.79-12.79-7.56-6.39-18.91-14.49-26.17-14.67"/>
            <path class="cls-6" d="M48.07,40.86c1.43,1.57,3.15,5.75,3.98,9.1.46,1.83.61,4.8,1.07,6.17"/>
            <path class="cls-6" d="M58.56,63c.51-1.7.54-8.86.21-11.65"/>
            <path class="cls-6" d="M59.71,63.21c-1.72.44-8.87.22-11.65-.22"/>
            <path class="cls-6" d="M40.31,46.66c-.41-1.72-3.97-7.94-5.66-10.18"/>
            <path class="cls-6" d="M42.69,48.04c-1.7.51-8.86.58-11.65.25"/>
            <path class="cls-6" d="M53.88,56.95c-1.7.51-8.86.58-11.65.25"/>
          </g>
          <g id="leaf-4">
            <path class="cls-4" d="M86.89,21.33c-.22.55,4.39,8.63,5.71,13.62.81,3.09,1.24,5.36.54,10.08-1.28,8.6-1.06,11.38-1.08,14.93-.01,2.07-.55,16.66,3.97,21.17,3.02,3,6.06,3.27,7.88,3.31,1.5.03,5.01-2.97,7.54-6.55,4.68-6.63,5.2-12.65,4.6-20.6-.1-1.35,0-9.06-5.65-17.87-8.71-13.57-23.12-19.06-23.51-18.09Z"/>
            <path class="cls-4" d="M102.34,79.61c.47-2.78,1.74-11.53,1.64-16.64-.19-9.85-1.26-23.62-4.56-28.92"/>
            <path class="cls-4" d="M109.63,50.58c-.15,2.12-1.53,6.27-2.89,9.21-.74,1.61-2.23,3.8-2.72,5.09"/>
            <path class="cls-4" d="M102.96,73.56c1.12-.83,4.88-5.82,6.18-8.01"/>
            <path class="cls-4" d="M103.38,74.53c-1.03-.91-4.26-6.16-5.33-8.45"/>
            <path class="cls-4" d="M102.98,49.11c.71-1.5,2.29-8.39,2.67-11.16"/>
            <path class="cls-4" d="M103.36,51.78c-1.06-.85-4.44-5.9-5.57-8.12"/>
            <path class="cls-4" d="M103.94,65.99c-1.06-.85-4.44-5.9-5.57-8.12"/>
          </g>
          <g id="leaf-3">
            <path class="cls-4" d="M284.99,117.95c-.59.2-7.47-7.98-12.07-10.86-2.85-1.79-4.97-2.86-9.76-2.84-8.73.03-11.4-.84-14.89-1.55-2.03-.41-16.47-2.65-19.86-9.96-2.26-4.87-1.84-9.23-1.46-11.8.31-2.12,1.44-5.74,5.54-8.57,7.57-5.24,16.74-3.16,24.39-.67,1.3.42,7.74,1.35,17.21,11.47,12.89,13.78,11.95,34.43,10.91,34.78Z"/>
            <path class="cls-4" d="M231.32,84.16c2.83-.09,11.7-.09,16.7,1.11,9.62,2.3,22.88,6.63,27.33,12.38"/>
            <path class="cls-4" d="M261.45,79.84c-2.11-.22-6.5.87-9.69,2.19-1.75.72-4.23,2.36-5.6,2.79"/>
            <path class="cls-4" d="M237.4,84.53c1.07-1.41,6.81-5.69,9.26-7.07"/>
            <path class="cls-4" d="M236.55,83.73c.66,1.65,5.08,7.28,7.08,9.25"/>
            <path class="cls-4" d="M261.38,89.54c1.63-.69,8.75-1.51,11.56-1.48"/>
            <path class="cls-4" d="M258.86,88.44c.59,1.67,4.79,7.47,6.7,9.53"/>
            <path class="cls-4" d="M245.05,84.71c.59,1.67,4.79,7.47,6.7,9.53"/>
          </g>
          <g id="laef-2">
            <path class="cls-3" d="M205.23.58c.2.59-2.36,9.38-2.36,16.48,0,5.52.32,7.41.89,12.33,1,8.67,1.17,15.61.46,19.1-.41,2.03-3.61,12.11-10.93,15.5-4.88,2.26-9.23,1.83-11.8,1.46-2.12-.31-6.46-4.05-9.29-8.14-5.23-7.57-4.73-13.59-2.24-21.24.42-1.3,1.86-8.89,11.66-16.24C196.72,8.49,204.88-.46,205.23.58Z"/>
            <path class="cls-3" d="M180.58,62.52c-.09-2.83-.08-11.7,1.12-16.7,2.31-9.62,6.65-22.87,12.4-27.32"/>
            <path class="cls-3" d="M176.28,32.39c-.23,2.11.87,6.5,2.18,9.69.72,1.75,2.36,4.23,2.79,5.61"/>
            <path class="cls-3" d="M180.95,56.44c-1.41-1.07-5.68-6.82-7.07-9.26"/>
            <path class="cls-3" d="M180.15,57.3c1.65-.66,7.28-5.08,9.26-7.07"/>
            <path class="cls-3" d="M185.97,32.46c-.69-1.63-1.5-8.75-1.47-11.56"/>
            <path class="cls-3" d="M184.88,34.99c1.67-.59,7.48-4.78,9.53-6.7"/>
            <path class="cls-3" d="M181.13,48.8c1.67-.59,7.48-4.78,9.53-6.7"/>
          </g>
          <g id="leaf-1">
            <path class="cls-4" d="M160.77,329.97c.66.12.8-4.1,4.42-6.73,2.24-1.63,13.84-7.93,18.35-9.57,6.63-2.42,10.07-3.03,13.73-3.5.98-.13,21.8-5.82,24.77-11.27,2.92-5.37.33-13.71-1.56-16.8-2.37-3.85-9.34-5.05-17.08-3.13-2.06.51-10.5,3.41-16.2,6.72-6.39,3.72-16.46,13.61-20.5,22.01-6.22,12.95-7.09,22.06-5.93,22.28Z"/>
            <path class="cls-4" d="M219.23,288.78c-3.37-.08-7.67.17-12.42,1.39-9.14,2.35-23.59,9.33-26.8,12.31"/>
            <path class="cls-4" d="M194.21,302.97c.11-1.69,2.03-4.93,3.99-7.2,1.07-1.24,3.26-2.88,3.96-3.88"/>
            <path class="cls-4" d="M181.9,296.48c.87-.66,3.23-.91,5.14-.72,1.04.1,2.75.69,3.53.67"/>
            <path class="cls-4" d="M215.24,289.17c-.26,1.52-2.15,4.42-3.97,6.44-.99,1.11-2.94,2.57-3.61,3.47"/>
            <path class="cls-4" d="M204.12,290.75c-1.12-1.24-9.64-1.25-12.61-1.79"/>
          </g>
        </g>
      </g>
    </g>
  </g>
</svg>