<svg width="515" height="284" viewBox="0 0 515 284" fill="none" xmlns="http://www.w3.org/2000/svg">
<g filter="url(#filter0_f_6_92)">
<ellipse cx="257.058" cy="201.206" rx="246.461" ry="72.1603" fill="#ECC676"/>
</g>
<path d="M418.986 134.944C434.146 134.944 446.436 133.064 446.436 130.745C446.436 128.427 434.146 126.547 418.986 126.547C403.826 126.547 391.536 128.427 391.536 130.745C391.536 133.064 403.826 134.944 418.986 134.944Z" fill="#563A22"/>
<path d="M391.999 131.299C390.951 130.583 394.359 129.109 395.118 128.894C395.732 128.72 396.182 128.511 397.655 128.25C398.765 128.055 399.939 127.874 400.228 127.836C404.134 127.319 411.787 127.086 411.788 127.086C418.243 127.086 421.469 126.965 423.487 127.086C432.189 127.61 434.863 128.033 436.869 128.313C438.123 128.489 441.361 129.044 444.45 130.096C444.894 130.248 446.696 130.662 445.846 131.751C445.846 131.751 447.475 131.214 448.376 130.23C448.622 129.963 448.891 129.747 448.891 129.747C448.761 128.532 445.387 127.115 443.324 126.751C436.238 125.505 432.573 125.294 432.573 125.294C425.978 124.912 422.68 124.722 419.094 124.74C415.737 124.759 412.864 124.936 407.117 125.294C405.467 125.397 401.755 125.637 397.427 126.399C395.774 126.69 395.375 126.755 393.372 127.227C390.839 127.825 388.972 128.438 388.614 129.469C388.452 129.935 388.43 130.261 388.43 130.261C389.579 130.704 390.362 130.921 391.999 131.297V131.299Z" fill="#BC725B"/>
<path d="M388.43 130.263C395.674 132.429 400.976 133.651 405.505 134.127C410.91 134.696 418.78 134.845 423.359 134.666C433.983 134.246 435.432 133.926 439.827 133.259C442.922 132.789 443.486 132.758 447.428 130.747C447.791 130.563 448.889 129.747 448.889 129.747C449.217 130.337 449.674 131.756 449.694 133.163C450.003 155.972 447.184 166.622 447.184 166.622C445.409 171.17 443.609 175.616 439.05 179.083C437.59 180.193 435.391 181.547 431.117 182.8C426.075 184.278 403.436 183.075 398.681 179.685C394.005 176.35 392.955 173.311 391.78 170.508C390.175 167.141 389.339 163.067 388.741 151.551C388.464 146.244 387.996 138.736 388.428 130.261L388.43 130.263Z" fill="#CC7D5F"/>
<path d="M406.618 129.174C407.63 121.437 399.522 93.4672 397.958 81.5727C395.732 64.6387 390.15 51.5454 385.786 43.2367C386.72 43.0106 387.654 42.7828 388.589 42.5568C389.286 44.374 390.363 47.1496 391.706 50.522C395.188 59.2647 396.453 61.9427 397.469 64.5628C399.697 70.3147 398.822 72.3707 403.748 95.3947C405.749 104.747 412.314 123.988 410.579 128.695C410.145 129.868 407.621 129.53 406.62 129.174H406.618Z" fill="#2A3F11"/>
<path d="M382.766 36.9367C379.922 37.4593 377.52 38.9927 375.189 40.4953C376.618 41.4808 378.415 41.4464 380.077 41.7394C381.74 42.0305 383.686 43.0576 383.861 44.6615C381.008 42.9889 375.082 41.6327 372.348 42.8569C369.614 44.081 367.395 49.5473 367.247 52.5616C369.061 52.4133 373.537 50.153 375.375 50.1458C377.213 50.1386 379.338 50.8709 380.276 52.5091C377.771 53.8201 374.365 51.567 371.407 51.7732C369.211 51.9269 367.485 53.4838 366.678 55.3824C365.87 57.281 365.85 59.4834 366.034 61.6352C368.132 60.1742 371.382 60.2881 373.756 61.9064C372.988 63.4217 369.972 61.4218 368.675 62.5267C367.926 63.1632 368.253 64.4072 368.629 65.4054C369.6 67.9766 370.568 70.5479 371.539 73.121C372.341 71.8318 374.154 71.528 375.805 71.613C377.457 71.698 379.168 72.0632 380.721 71.698C382.273 71.3327 383.603 69.8717 383.035 68.3184C382.694 67.3835 381.794 66.7127 381.115 65.937C380.435 65.1612 379.969 63.9678 380.614 63.3151C383.316 64.7815 385.307 67.5716 385.681 70.4195C388.271 69.6782 390.204 67.5029 390.594 64.89C390.987 62.2771 389.823 59.3189 387.636 57.3751C388.735 56.9176 390.217 57.5975 390.965 58.6535C391.713 59.7095 393.099 64.2644 392.949 65.4415C403.663 59.026 395.842 53.0444 393.475 50.0771C393.339 49.1675 395.631 50.6051 396.847 52.3789C397.254 52.9702 398.294 57.7186 398.65 57.5071C398.8 57.4166 400.17 55.169 400.259 55.0226C401.021 53.764 401.13 52.5399 401.592 51.3139C402.299 49.4406 402.359 46.8096 400.582 44.9056C398.961 43.1679 396.556 43.8007 394.608 42.761C390.002 40.3 388.907 35.8138 382.768 36.9422L382.766 36.9367Z" fill="#23350E"/>
<path d="M393.103 41.8063C392.841 42.9382 391.995 44.4698 391.186 45.2799C391.365 44.4752 390.676 43.6344 389.977 43.0395C388.506 41.79 386.726 40.8967 384.886 40.4827C385.954 41.1734 387.508 41.6978 388.578 42.3885C389.38 42.9075 390.62 44.3559 390.77 45.2383C390.888 45.9254 389.83 46.6505 389.371 47.1206C388.836 47.6703 388.75 47.6233 388.224 48.211C388.099 48.3502 387.543 48.5419 387.351 48.5853C387.131 48.6359 386.887 48.5419 386.663 48.4479C384.722 47.6432 382.635 47.1568 380.605 46.8223C378.576 46.4878 378.028 46.7572 375.269 47.768C378.769 47.023 382.477 47.2617 385.994 48.7878C386.119 48.8421 386.755 49.0102 386.796 49.135C386.831 49.2363 386.467 49.4442 386.431 49.5238C386.27 49.8908 385.943 50.4134 385.618 50.6503C383.914 51.8817 383.524 53.0661 382.002 54.406C381.097 55.2034 380.466 56.0044 379.602 56.3172C379.394 56.3932 379.109 56.2811 378.847 56.2359C376.42 55.8218 375.535 56.084 374.12 56.4981C371.832 57.1671 369.952 57.8036 368.261 59.3496C371.512 58.4256 374.45 56.4257 377.972 56.6861C378.352 56.7132 379.279 57.0387 379.279 57.0387C379.315 57.1906 378.843 58.0242 378.793 58.1616C378.16 59.8559 377.497 61.006 376.687 62.6117C376.33 63.3205 375.838 64.2644 375.235 64.7833C374.631 65.3023 374.423 65.6621 371.689 65.4614C371.937 65.5627 373.736 65.8809 374.336 65.7164C374.47 65.6802 375.039 65.503 374.987 65.5862C374.307 66.6422 372.921 68.2786 372.331 69.3907C374.212 67.6114 375.82 65.5681 377.107 63.3277C377.542 62.5683 377.942 61.7853 378.236 60.9553C378.682 59.704 379.145 58.988 379.778 57.8307C380.93 59.2791 381.832 60.0838 382.985 61.5321C383.654 62.373 384.337 63.2373 384.675 64.2174C384.344 62.071 382.739 60.185 381.122 58.5269C380.665 58.0568 380.549 57.8994 380.547 57.2955C380.547 56.7295 380.629 56.5035 381.043 56.1491C383.383 54.1383 385.698 51.558 388.036 49.5473C389.83 50.71 391.3 52.3844 392.171 54.2631C393.022 56.1003 393.298 58.0712 393.511 60.0042C393.605 56.9574 393.291 54.1799 391.229 51.5978C390.504 50.6919 389.53 49.757 388.636 48.9994C389.592 48.1495 390.34 46.9525 391.193 46.1062C391.811 45.4932 392.313 44.3685 392.895 43.9978C392.895 43.9978 394.346 44.5222 394.807 44.7464C395.942 45.2943 396.817 46.3142 397.379 47.41C397.941 48.5057 398.226 49.6829 398.481 50.8492C398.716 49.4044 398.302 47.7987 397.362 46.5004C396.423 45.2021 394.966 44.2275 393.419 43.8622C393.3 43.8333 393.139 43.7085 393.139 43.7085C393.311 43.5223 393.441 43.4391 393.508 43.3903C393.987 43.0304 394.789 43.5024 395.038 42.9617C394.27 42.6326 393.793 42.2873 393.098 41.8099L393.103 41.8063Z" fill="#384F16"/>
<path d="M411.66 131.718C410.404 129.715 406.623 120.372 404.128 112.752C402.203 106.872 397.472 101.546 388.01 90.8977C384.313 86.7352 379.015 81.1894 372.045 75.1716C372.213 74.5532 372.379 73.933 372.547 73.3146C377.385 77.0431 382.752 81.6776 388.213 87.3608C391.639 90.9266 396.07 95.5575 400.866 102.516C404.684 108.058 407.01 113.072 411.661 123.1C413.438 126.93 415.301 131.214 414.11 132.143C414.11 132.143 411.913 132.116 411.661 131.716L411.66 131.718Z" fill="#2A3F11"/>
<path d="M342.477 85.3898C345.009 83.728 347.004 82.0066 349.536 80.3448C349.951 80.0718 350.389 79.7771 350.542 79.2798C350.64 78.9616 350.569 78.6017 350.304 78.401C349.89 78.0882 349.339 78.3703 348.921 78.6487C347.66 79.4932 346.409 80.3575 345.173 81.2381C344.497 81.7209 343.813 82.2182 343.317 82.8854C342.851 83.5128 342.873 84.7135 342.477 85.388C342.477 85.388 338.697 88.8417 337.231 90.1617C336.463 90.8542 335.661 91.2321 334.342 92.6516C334.342 92.6516 334.184 92.8686 333.704 91.8307C333.519 91.4329 333.041 90.8994 332.838 90.5125C332.186 89.2594 331.154 88.113 330.802 86.7459C330.137 84.171 330.827 83.502 331.107 82.0735C331.414 80.5076 332.148 79.8747 333.518 79.0592C334.546 78.448 335.767 77.8821 336.694 77.081C337.414 76.4608 338.236 75.969 339.139 75.6742C343.675 74.1879 348.103 72.3688 352.371 70.2351C352.597 70.123 352.843 69.9837 352.915 69.7414C352.98 69.519 352.872 69.2785 352.718 69.1068C352.14 68.4522 351.111 68.5317 350.255 68.7017C344.066 69.9349 338.308 73.2494 334.134 77.9851C333.769 75.2547 334.233 72.4465 335.256 69.8879C335.592 69.0453 335.993 68.2189 336.545 67.4974C337.475 66.2769 338.802 65.4035 340.211 64.7978C343.982 63.1776 348.269 63.3928 352.342 63.9027C353.331 64.0257 354.449 64.1287 355.206 63.4814C354.749 62.7364 353.936 62.2898 353.13 61.9534C349.18 60.3098 344.454 60.6624 340.793 62.8756C343.036 59.1254 346.238 55.923 350.09 53.8635C353.943 51.8039 358.45 50.9233 362.765 51.5869C363.996 51.7768 365.245 52.1023 366.141 53.0552C366.39 53.321 366.591 53.632 366.716 53.9738C367.455 55.9863 365.413 57.3334 365.093 59.1579C364.898 60.2646 365.331 61.5376 364.675 62.4471C364.513 62.6713 364.771 63.1306 365.001 63.2843C365.662 62.9462 365.939 62.165 366.183 61.4616C367.019 59.044 368.223 56.6228 370.304 55.1365C372.386 53.6501 375.529 53.4096 377.376 55.178C379.45 57.1653 379.078 60.4996 379.761 63.2897C380.39 65.8592 382.542 67.4776 383.494 69.9458C383.769 70.6564 383.668 72.0126 383.426 72.772C383.209 73.4537 382.302 76.0232 381.845 75.9744C381.306 75.9183 381.695 73.7521 380.601 72.772C377.524 70.0109 375.422 67.6692 371.94 68.322C371.727 68.3618 371.524 68.4721 371.392 68.6457C370.957 69.2153 371.588 69.8734 372.16 70.2044C374.332 71.4593 376.873 72.1174 378.758 73.7738C380.538 75.3397 381.548 77.7446 381.42 80.1134C381.292 82.4822 380.027 84.7623 378.088 86.1257C377.854 86.2903 377.582 86.4512 377.265 86.2089C377.045 86.0407 376.942 85.7641 376.949 85.4874C377.034 82.5617 375.657 79.6342 373.346 77.8387C373.107 77.6542 372.766 77.6361 372.54 77.8368C372.227 78.1135 372.413 78.5167 372.601 78.8241C373.395 80.1279 374.235 81.4623 374.47 82.9704C374.889 85.6737 373.205 88.3535 370.959 89.9139C368.712 91.4744 365.986 92.1399 363.327 92.7745C364.466 88.2377 364.115 83.3393 362.332 79.014C362.151 78.5782 361.757 78.2491 361.287 78.2111C360.759 78.1678 360.532 78.5222 360.375 78.8748C359.626 80.5564 360.084 82.5165 360.725 84.2416C361.367 85.9666 362.196 87.6916 362.169 89.5324C362.131 92.1019 360.378 94.4001 358.213 95.7816C356.048 97.1631 353.5 97.7924 351.005 98.3981C351.298 97.2951 352.487 96.7219 353.218 95.8467C354.111 94.7799 354.286 93.3044 354.424 91.9211C354.615 90.008 354.807 88.0931 354.998 86.18C355.053 85.6321 355.092 85.0209 354.541 84.6665C354.194 84.4423 353.748 84.4531 353.379 84.6376C352.586 85.0354 352.3 85.878 352.049 86.6682C351.081 89.7132 350.11 92.7655 349.44 95.8901C348.885 98.4741 348.39 101.358 346.306 102.984C345.226 103.826 343.84 104.21 342.768 105.067C341.512 106.07 340.798 107.716 340.923 109.32C339.839 109.096 339.828 107.589 339.521 106.524C338.825 104.112 335.632 103.11 334.918 100.704C334.551 99.4668 334.934 98.1468 335.317 96.9136C334.266 96.7761 333.861 98.239 333.874 99.3004C332.643 96.8539 332.578 94.581 334.345 92.6498" fill="#3A5717"/>
<path d="M365.064 63.637C365.559 63.5791 365.98 63.232 366.269 62.8251C366.559 62.4183 366.741 61.9481 366.967 61.5033C367.871 59.7258 369.515 58.3389 371.42 57.7512C370.755 58.0822 370.22 58.6192 369.698 59.1472C369.078 59.7728 368.449 60.4129 368.049 61.1977C367.815 61.6588 367.665 62.1579 367.421 62.6135C367.09 63.2265 366.588 63.7473 365.988 64.0981C365.803 64.2066 365.604 64.3024 365.471 64.4688C365.337 64.6351 365.292 64.8973 365.436 65.0546C365.512 65.1378 365.626 65.174 365.733 65.2065C366.911 65.5537 368.151 65.6206 369.376 65.6839C369.853 65.7092 370.332 65.7327 370.803 65.664C371.271 65.5953 371.721 65.4362 372.186 65.3512C372.876 65.2246 373.586 65.2626 374.288 65.3096C375.278 65.3747 376.277 65.4579 377.229 65.7436C378.182 66.0293 379.093 66.5302 379.711 67.3095C377.791 66.6495 375.804 65.9805 373.782 66.1559C373.205 66.2065 372.639 66.324 372.07 66.4289C370.037 66.8014 367.901 66.9822 365.937 66.3403C365.534 66.2083 365.106 66.0419 364.699 66.1631C364.35 66.268 364.099 66.5663 363.87 66.8484C363.521 67.277 363.17 67.7073 362.822 68.1359C365.238 69.0363 367.339 70.7704 368.579 73.0307C369.819 75.291 370.348 77.9002 370.348 80.4788C369.6 76.2367 367.417 72.0181 363.835 69.6312C363.34 69.3003 362.529 68.53 361.983 68.7705C361.651 68.917 360.937 70.0652 360.752 70.378C360.521 70.774 360.23 71.2623 360.049 71.6836C359.941 71.9367 359.829 72.1537 359.887 72.425C359.961 72.7776 360.7 72.953 360.996 73.1591C362.045 73.8878 363.093 74.6165 364.141 75.3452C364.732 75.7557 365.333 76.177 365.767 76.7538C366.027 77.101 366.219 77.4934 366.407 77.884C366.96 79.0286 367.516 80.2256 367.518 81.4968C367.522 83.4189 366.268 85.1403 366.074 87.0516C366.625 85.4333 366.654 83.6902 366.676 81.9814C366.687 81.1568 366.696 80.316 366.441 79.5313C366.022 78.2348 364.941 77.2656 363.819 76.4934C362.697 75.7213 362.355 75.6327 361.26 74.7648C360.752 74.3616 359.793 73.2875 359.191 73.5243C357.623 74.1428 356.64 75.7521 355.709 77.1607C355.646 77.2583 355.579 77.3596 355.57 77.4771C355.557 77.62 355.633 77.752 355.698 77.8785C355.978 78.4138 356.148 78.9978 356.314 79.5765C356.614 80.6108 356.912 81.6433 357.212 82.6776C357.624 84.0988 358.038 85.5418 358.044 87.0209C358.049 88.6067 357.586 90.1509 357.127 91.668C356.916 92.366 356.696 93.0802 356.251 93.6571C356.846 92.2123 357.203 90.6699 357.305 89.1094C357.547 85.3718 356.334 81.7102 355.138 78.1606C354.319 78.9327 353.49 79.7157 352.892 80.6686C352.277 81.6469 351.932 82.7662 351.562 83.8601C350.454 87.1493 349.086 90.3516 347.474 93.4274C348.647 89.4023 349.823 85.3682 351.444 81.5022C351.26 81.6234 351.016 81.8783 350.86 82.0356C349.142 83.7625 346.943 85.0065 344.577 85.5906C344.756 85.4062 344.986 85.2796 345.21 85.1584C345.844 84.8131 346.48 84.4677 347.147 84.1892C347.441 84.0663 347.747 83.9542 348.003 83.7643C348.238 83.5907 348.421 83.3593 348.625 83.1513C349.559 82.2002 350.727 81.5293 351.585 80.5077C354.03 77.5928 355.425 75.5586 357.599 73.3688C354.729 73.15 351.876 73.9366 349.187 74.9583C346.498 75.9799 343.894 77.2457 341.131 78.0503C343.502 76.9527 345.871 75.8551 348.242 74.7576C348.983 74.414 349.726 74.0704 350.497 73.8028C352.691 73.0416 355.046 72.9186 357.355 72.6763C357.577 72.6528 357.809 72.6257 357.998 72.5063C358.185 72.3888 358.309 72.1971 358.429 72.0127C359.287 70.6692 360.145 69.3257 361.004 67.9822C359.233 68.3167 357.471 67.4614 355.68 67.2534C354.531 67.1196 353.369 67.2553 352.212 67.3005C349.404 67.4108 346.457 67.0093 343.885 68.1449C344.691 67.4759 345.748 67.2028 346.78 67.0274C348.981 66.6531 351.227 66.6423 353.461 66.6368C355.768 66.6314 358.123 66.6368 360.313 67.3619C360.691 67.4867 361.105 67.6332 361.473 67.4831C361.773 67.3601 362.14 66.9623 362.359 66.7236C362.89 66.1432 363.382 65.8593 363.74 65.2915C362.672 64.5773 361.047 63.7075 359.939 63.0548C358.392 62.1398 356.824 61.2592 355.257 60.3768C354.408 59.8994 353.548 59.4166 352.61 59.1472C351.213 58.7458 349.718 58.838 348.296 58.5378C349.859 58.3009 351.491 58.0677 352.996 58.5577C354.061 58.9049 354.975 59.5884 355.937 60.1652C358.452 61.6751 361.387 62.4996 363.644 64.3748C363.776 64.4851 363.927 64.6062 364.099 64.5881C364.318 64.5664 364.453 64.3151 364.435 64.0963C364.417 63.8775 364.293 63.6822 364.177 63.4942C363.467 62.326 363.051 61.0079 362.643 59.7041C362.31 58.6445 361.978 57.5849 361.645 56.5271C361.282 55.3698 360.913 54.1818 360.967 52.9685C361.846 54.1981 362.337 55.6555 362.816 57.0894C363.548 59.2846 364.329 61.4418 365.062 63.637H365.064Z" fill="#53781E"/>
<path d="M397.42 85.824C398.641 86.8962 400.36 89.5543 402.071 91.5072C402.071 91.5072 406.029 96.0259 408.624 101.078C411.784 107.23 413.656 118.759 411.334 132.503C412.756 133.066 414.112 133.308 414.303 132.668C416.132 126.516 418.113 115.213 410.826 100.443C407.93 94.5721 402.008 87.1385 399.216 85.1079C398.63 85.531 398.827 85.6359 397.421 85.824H397.42Z" fill="#2A3F11"/>
<path d="M398.275 85.5056C397.338 85.5146 396.569 84.6991 396.27 83.8113C395.972 82.9234 396.026 81.9633 395.992 81.0284C395.958 80.0936 395.804 79.1009 395.188 78.3957C394.698 77.8351 393.981 77.5349 393.278 77.289C389.841 76.0884 386.098 75.7792 382.511 76.3994C381.465 76.5802 380.422 76.8424 379.479 77.3306C378.335 77.9219 377.383 78.8206 376.447 79.7084C376.013 80.1189 375.581 80.5294 375.147 80.9398C372.804 83.1603 370.301 85.7135 370.135 88.9394C372.574 87.9629 375.032 86.9793 377.612 86.482C380.193 85.9848 382.934 85.9992 385.372 86.9793C385.811 87.1547 386.319 87.5995 386.068 88.0009C382.725 86.9503 379.116 86.7569 375.679 87.4422C374.793 87.6194 373.911 87.8563 373.109 88.2722C371.428 89.1419 370.182 90.8109 369.824 92.6697C369.556 94.0657 369.766 95.5086 369.648 96.9245C369.616 97.3114 369.56 97.6966 369.574 98.0854C369.589 98.4398 369.661 98.7888 369.733 99.1341C369.977 100.293 370.221 101.452 370.465 102.613C373.566 97.2952 378.823 93.2773 384.767 91.6843C385.992 91.3552 387.282 91.1255 388.527 91.3732C388.784 91.4239 389.066 91.5161 389.192 91.7457C389.355 92.0405 389.17 92.4292 388.885 92.6065C388.599 92.7837 388.249 92.809 387.913 92.8307C385.099 93.0169 382.282 93.4292 379.613 94.3405C377.267 95.1416 374.882 96.5032 373.96 98.805C373.277 100.514 373.523 102.458 374.056 104.217C374.851 106.835 376.264 109.264 378.149 111.246C378.196 106.692 381.261 102.317 385.522 100.72C386.066 100.516 386.644 100.353 387.221 100.425C387.797 100.498 388.368 100.856 388.542 101.411C388.856 102.418 387.811 103.288 386.91 103.837C385.294 104.821 383.688 105.844 382.314 107.145C380.941 108.445 379.802 110.05 379.322 111.88C380.189 113.226 381.76 114.068 383.281 114.567C384.803 115.066 386.397 115.33 387.887 115.914C389.378 116.498 390.809 117.484 391.438 118.956C390.793 117.735 391.415 116.144 392.504 115.294C393.594 114.444 395.02 114.18 396.392 114.037C397.582 113.915 398.779 113.862 399.975 113.882C402.021 113.916 404.222 114.126 405.967 113.056C406.896 112.486 407.59 111.609 408.262 110.752C409.045 109.754 409.41 108.578 409.357 107.309C409.33 106.642 409.224 106.219 408.978 105.636C407.178 101.376 405.92 100.673 403.329 98.3765C402.566 97.7002 401.224 96.8051 401.379 95.798C401.421 95.5213 401.524 95.2284 401.76 95.0801C401.919 94.9788 402.116 94.9608 402.304 94.9535C405.221 94.8505 407.789 97.1541 408.935 99.8393C410.08 102.525 410.104 105.539 410.109 108.459C412.628 106.756 414.672 104.637 416.069 101.933C416.645 100.816 417.113 99.5175 416.725 98.3222C417.352 99.0564 417.601 100.098 417.372 101.036C419 99.6694 421.837 97.8413 422.685 95.8902C423.301 94.4744 423.659 94.0277 423.814 92.4907C423.897 91.6626 423.657 90.829 423.297 90.0786C422.956 89.3643 422.493 88.6917 421.852 88.2269C421.116 87.6935 420.207 87.4765 419.36 87.1529C418.111 86.6791 416.958 85.9576 415.984 85.0427C416.64 84.7877 417.379 84.9269 418.053 85.1295C420.355 85.822 422.435 87.2379 423.922 89.1293C424.586 87.3482 423.789 85.388 423.003 83.6594C422.63 82.8403 422.258 82.0193 421.781 81.2563C420.787 79.6614 419.363 78.3631 417.78 77.3523C415.088 75.6327 411.913 74.7195 408.721 74.5984C407.547 74.555 406.354 74.6165 405.237 74.9799C402.187 75.9708 400.21 79.0991 399.727 82.2707C399.545 83.4749 399.476 85.4893 398.26 85.502L398.275 85.5056Z" fill="#2A3F11"/>
<path d="M401.003 86.1711C404.102 86.0644 406.591 85.5943 409.686 85.7895C412.782 85.9848 415.995 86.9884 418.02 89.3391C416.439 88.3518 414.816 87.3464 412.995 86.9486C412.236 86.7823 411.459 86.7262 410.684 86.6738C407.126 86.4315 402.391 86.7606 399.501 87.1186C398.934 87.1891 398.343 87.4477 398.22 87.6086C397.873 88.0643 397.141 89.0823 397.215 89.6501C400.963 89.4946 405.535 89.8526 408.929 91.4511C412.323 93.0495 415.178 96.1615 415.66 99.8828C414.47 98.9461 414.47 97.1379 413.644 95.8668C413.326 95.3767 412.888 94.9753 412.433 94.6119C410.42 93.0043 407.512 91.5107 405 90.9394C402.489 90.368 400.49 90.5777 397.92 90.386C397.7 90.3698 397.221 90.2613 397.046 90.3951C396.897 90.5072 396.621 90.8941 396.563 91.0695C396.16 92.3009 395.772 92.6897 395.67 94.7836C396.917 95.6226 398.059 96.6841 399.288 97.5484C400.461 98.3711 401.654 99.2572 402.348 100.51C403.166 101.991 403.173 103.776 403.076 105.465C402.808 103.284 402.452 100.917 400.86 99.4036C400.372 98.9389 399.794 98.5845 399.22 98.2319C397.926 97.4399 396.84 96.232 395.546 95.44C394.845 97.7654 394.63 100.396 393.952 102.729C393.442 104.481 391.579 108.853 391.7 107.83C392.219 106.071 392.737 104.309 393.258 102.55C393.758 100.852 394.263 99.127 394.27 97.3567C394.275 96.1416 394.583 94.5305 394.554 93.4419C392.421 94.2375 391.603 94.2665 389.47 95.0621C388.57 95.3984 386.196 96.1579 385.328 96.5701C383.606 97.3875 382.329 98.2572 380.773 99.3584C379.69 100.123 378.346 101.693 377.583 102.778C377.721 101.545 378.597 100.528 379.513 99.6911C383.402 96.1452 388.576 94.4021 393.663 93.0568C393.809 93.0188 394.199 92.9519 394.342 92.9013C394.586 92.8163 394.745 92.3498 394.781 92.1979C394.987 91.3263 395.128 91.0406 395.334 90.1691C391.415 89.3969 387.063 89.3427 383.174 89.6863C381.411 89.8418 376.669 91.7458 377.721 91.1093C380.245 89.8219 383.064 89.1167 385.896 89.0642C388.943 89.0082 392.642 88.4693 395.517 89.4783C395.994 88.6411 396.03 88.0751 396.478 87.341C394.83 86.9739 393.265 86.2326 391.939 85.1874C390.32 83.9126 389.019 82.1749 387.137 81.3323C385.755 80.7139 384.199 80.6452 382.686 80.5855C384.575 80.1099 386.633 80.3522 388.361 81.2509C390.911 82.58 392.696 85.238 395.441 86.0915C395.766 86.1928 396.115 86.2651 396.444 86.1747C396.773 86.0843 396.908 85.1838 396.885 84.8438C397.712 85.748 398.93 85.8221 399.323 84.5618C399.227 84.8167 399.223 85.1729 399.46 85.3049C399.536 85.3465 399.626 85.3538 399.711 85.3501C400.1 85.3339 400.457 85.144 400.792 84.9433C401.751 84.3683 404.393 82.3413 405.387 81.8277C406.381 81.3142 410.863 80.5041 411.952 80.7537C410.792 80.9941 407.321 81.4878 406.242 81.9778C406.039 82.07 403.087 83.8547 402.899 83.9723C402.624 84.1441 402.378 84.3592 402.114 84.5455C401.583 84.9216 400.83 85.4116 400.222 85.6449C399.87 85.7805 399.014 86.0409 398.947 86.191C398.824 86.464 400.643 86.1964 401.007 86.1657L401.003 86.1711Z" fill="#384F16"/>
<path d="M443.293 81.4408C441.162 81.8983 439.079 83.0248 437.947 84.8873C436.878 86.6485 436.778 88.8636 437.232 90.8743C437.685 92.885 438.641 94.7385 439.588 96.5684C439.693 92.1654 443.5 88.1367 447.922 87.8907C448.278 87.8708 448.625 88.0752 448.743 88.4133C448.913 88.9015 448.475 89.2505 448.078 89.4675C445.472 90.8906 441.777 91.4222 441.486 94.7891C441.428 95.469 441.533 96.1525 441.749 96.7998C442.752 99.7852 444.301 102.584 446.294 105.02C446.567 105.353 447.01 105.517 447.425 105.409C448.17 105.215 448.179 104.371 448.15 103.698C448.009 100.429 449.983 97.9083 453.143 97.0747C451.034 98.8088 450.505 100.519 449.428 102.865C449.31 103.121 449.214 103.389 449.162 103.666C448.696 106.143 450.929 108.315 452.617 109.584C454.835 111.253 455.919 113.244 454.448 115.598C455.707 114.439 457.44 113.969 459.11 113.595C461.201 113.126 463.395 112.712 464.914 111.032C465.57 110.307 465.968 109.367 465.921 108.389C465.823 106.288 463.561 104.176 462.097 103.02C460.863 102.045 460.46 99.6858 461.082 100.183C463.458 102.66 465.256 105.687 466.295 108.96C467.303 108.474 467.448 107.219 467.761 106.143C468.095 104.993 468.193 103.696 467.741 102.671C466.902 100.774 466.06 99.0438 464.522 97.2284C464.154 96.7944 464.445 96.1001 465.014 96.1037H465.027C465.581 96.1489 467.997 101.81 468.095 104.993C470.047 102.418 471.068 96.8649 470.251 93.7385C469.434 90.6121 467.345 89.4765 464.166 88.9088C463.201 88.737 461.34 89.1999 460.935 88.3066C463.299 87.9721 466.147 88.6484 468.209 89.8508C468.711 90.1438 469.049 90.7296 469.049 90.7296C469.55 90.5868 468.677 88.6285 468.446 88.2397C465.954 84.07 461.076 80.8586 456.269 81.5421C453.758 81.9001 454.426 82.1261 449.896 81.3233C447.774 80.9472 445.407 80.9815 443.294 81.4354L443.293 81.4408Z" fill="#23350E"/>
<path d="M453.754 82.6921C453.754 83.258 453.754 84.3122 452.538 84.2001C450.311 83.994 447.993 84.6883 445.947 85.5943C443.902 86.5002 441.67 87.5526 440.779 89.6049C441.612 88.6664 442.602 87.869 443.697 87.2578C446.184 85.8709 449.086 85.4876 451.909 85.1277C452.361 85.0699 452.832 85.0138 453.261 85.1657C454.301 85.5328 454.578 86.851 454.69 87.9504C454.71 88.1529 454.732 88.3626 454.663 88.5561C454.533 88.9214 453.75 89.6772 453.288 90.0389C451.726 91.2576 450.62 91.6319 449.267 93.0785C448.307 94.1019 447.333 95.1471 446.714 96.4056C446.094 97.6641 445.866 99.1939 446.446 100.472C446.372 98.8485 446.854 97.203 447.794 95.8758C448.616 94.7131 449.751 93.8162 450.872 92.9374C452.109 91.9646 453.347 90.9936 454.585 90.0208C454.421 92.084 454.515 94.167 454.865 96.2049C454.921 96.5322 454.985 96.8667 454.918 97.1922C454.862 97.4634 454.721 97.7057 454.587 97.948C453.241 100.376 452.453 103.112 452.301 105.886C453.474 103.64 453.044 101.834 455.136 98.335C455.908 100.447 456.26 103.132 456.709 105.335C457.126 107.383 457.54 109.517 457.021 111.54C457.997 110.056 457.961 108.123 457.617 106.38C457.274 104.637 456.656 102.933 456.587 101.158C456.544 100.038 456.264 99.6586 456.04 97.9878C457.025 97.4833 459.05 100.659 459.466 102.539C459.614 100.584 458.648 98.5827 457.025 97.4815C456.728 97.2808 456.286 97.1831 456.165 96.8468C455.74 95.657 455.978 94.3695 455.776 92.9374C459.911 94.8541 463.478 98.8503 465.307 103.027C464.025 98.8322 461.074 95.1724 457.249 93.0297C456.877 92.8217 456.477 92.6083 456.268 92.2377C456.092 91.9266 455.861 91.7476 455.85 91.3914C455.821 90.4186 456.007 89.2523 455.978 88.2795C459.063 89.4747 461.745 91.5505 464.04 93.9356C462.627 91.5469 460.458 89.6121 457.925 88.4784C457.386 88.2379 456.39 87.831 456.038 87.3573C455.828 87.0734 455.718 85.5454 455.615 85.2073C455.338 84.2984 455.062 83.3888 454.786 82.4787C454.504 81.5547 453.627 82.768 453.752 82.6866L453.754 82.6921Z" fill="#2E4112"/>
<path d="M417.267 130.028C420.366 129.225 421.12 123.232 423.997 116.303C426.015 111.441 427.773 107.34 431.389 103.04C432.633 101.563 434.734 99.0998 438.168 96.8396C442.104 94.2484 444.146 94.3225 448.712 91.8109C450.743 90.6934 453.523 88.9286 456.544 86.1584C456.351 85.8546 456.159 85.5509 455.966 85.2471C454.592 86.473 452.346 88.2885 449.256 89.9249C443.759 92.838 440.615 92.5251 436.303 95.5774C434.377 96.9408 433.135 98.4706 430.654 101.53C427.002 106.034 425.328 109.313 421.067 116.753C419.56 119.384 417.318 125.634 414.484 130.357C415.194 130.619 416.138 130.319 417.269 130.026L417.267 130.028Z" fill="#2A3F11"/>
<path d="M408.606 24.4223C408.389 30.8668 408.3 40.8301 409.258 52.9705C410.865 73.3274 414.007 81.949 415.205 100.762C415.675 108.13 415.962 118.902 414.829 132.145C416.9 132.827 418.472 132.858 418.892 132.134C420.637 129.122 419.302 115.886 417.543 88.1729C416.859 77.3688 415.165 73.0742 413.525 64.1163C411.978 55.6738 412.626 53.6359 411.67 46.8786C410.841 41.0254 410.416 32.4888 412.652 21.6431C411.304 22.5689 409.956 23.4947 408.607 24.4205L408.606 24.4223Z" fill="#384F16"/>
<path d="M429.671 21.142C428.98 20.4567 428.227 19.8039 427.323 19.4405C424.954 18.4894 422.316 19.7551 419.762 19.7985C419.397 19.8039 419.025 19.7859 418.671 19.8781C418.244 19.9902 417.879 20.2542 417.496 20.473C416.042 21.303 414.316 21.482 412.648 21.6447C413.703 20.1493 415.393 19.5002 417.182 19.1186C417.865 18.9722 418.61 18.8582 419.097 18.3592C419.576 17.8691 419.685 17.1151 419.589 16.437C419.417 15.2183 418.685 14.1424 417.825 13.2618C413.562 8.90038 406.513 8.72498 401.59 5.12301C400.446 4.2858 399.431 3.27139 398.218 2.53906C395.932 1.15939 393.33 -0.0304191 390.712 0.493964C388.093 1.01835 386.044 2.2172 383.821 3.69632C382.641 4.48109 381.524 5.27851 379.905 5.50454C378.463 5.70525 376.354 6.18443 375.05 6.82635C373.743 7.46827 372.702 9.11917 373.212 10.4826C373.23 10.5296 373.315 10.8117 373.42 11.1118C373.154 11.2221 372.885 11.3469 372.608 11.4861C371.994 11.7971 370.608 13.6723 370.377 14.3196C369.33 17.2562 369.251 18.7624 368.204 21.7008C371.177 19.9703 374.616 19.153 378.048 18.9143C381.479 18.6756 384.924 18.9957 388.339 19.4134C389.953 19.6105 391.763 19.9504 392.656 21.3084C392.535 21.755 391.924 21.7966 391.465 21.7351C387.07 21.1493 382.621 19.813 378.284 20.7316C377.088 20.9847 375.937 21.4042 374.761 21.7369C372.67 22.3282 370.505 22.641 368.443 23.3245C366.381 24.008 364.368 25.1255 363.161 26.9337C365.216 25.1617 368.042 24.6391 370.734 24.3082C374.768 23.811 378.836 23.5922 382.9 23.6536C378.105 24.3968 373.309 25.14 368.515 25.8832C367.659 26.0152 366.753 26.1725 366.105 26.7475C365.219 27.5341 365.082 28.8631 365.183 30.0439C365.284 31.2247 365.559 32.4271 365.266 33.5753C365.02 34.5373 364.39 35.3691 363.629 36.0074C365.196 35.6078 367.509 36.7108 366.602 38.7993C366.381 39.8245 370.225 37.0724 371.596 37.1014C372.968 37.1303 372.513 37.4268 373.745 38.0308C374.676 38.4865 376.038 38.4738 376.766 39.2116C377.656 40.1102 379.034 40.405 380.279 40.1898C381.524 39.9746 382.652 39.311 383.641 38.5208C383.968 38.2604 384.286 37.9783 384.512 37.6257C384.812 37.1538 384.922 36.5896 385.056 36.0454C385.482 34.3113 386.355 32.4958 388.003 31.8087C388.294 31.6876 388.623 31.6044 388.925 31.6984C389.463 31.8666 389.698 32.5501 389.559 33.0962C389.42 33.644 389.015 34.078 388.614 34.4758C385.695 37.3617 382.226 39.6184 378.783 41.8534C377.919 42.743 384.884 39.9457 388.066 39.8697C390.02 39.8227 392.174 39.9385 393.693 38.7089C394.648 37.9386 395.173 36.7542 395.513 35.5752C395.853 34.3963 396.044 33.1703 396.502 32.0311C396.959 30.8919 397.741 29.8088 398.883 29.3586C400.024 28.9065 401.534 29.7347 401.29 30.9371C400.878 32.9714 399.906 34.1178 398.956 35.3365C396.135 38.953 395.938 42.6399 392.392 45.5494C391.886 46.1786 394.044 44.7447 394.929 44.535C399.435 43.4645 404.185 43.9473 408.718 42.9998C413.223 42.0577 417.413 39.6745 420.529 36.284C421.024 35.7452 421.51 35.1449 421.633 34.4234C421.851 33.145 420.886 31.9968 419.99 31.0583C419.318 30.3531 418.646 29.6497 417.972 28.9445C417.767 28.7311 417.551 28.4852 417.551 28.1905C417.551 27.7764 418.006 27.4798 418.418 27.5033C418.83 27.5268 419.193 27.7746 419.515 28.0331C421.642 29.7347 423.082 32.2716 423.458 34.9713C425.42 33.6278 427.193 32.0257 428.957 30.4308C430.39 29.1344 431.928 27.6245 432.013 25.6933C432.089 23.9357 430.916 22.3788 429.667 21.1402L429.671 21.142ZM387.388 10.8442C384.761 10.403 382.079 10.4536 379.416 10.5061C377.816 10.5368 377.023 10.544 375.426 10.5965C375.283 10.6019 375.131 10.62 374.976 10.6453C375.265 10.3705 375.538 10.1372 375.695 10.0721C381.886 7.53155 388.12 8.47725 393.979 11.714C394.572 12.0413 395.222 12.524 395.197 13.2003C392.645 12.251 390.074 11.2945 387.388 10.8442ZM405.45 14.3124C405.309 14.7644 404.863 15.146 404.395 15.0773C404.14 15.0393 403.922 14.882 403.719 14.7228C402.118 13.4571 400.913 11.7682 399.532 10.2638C398.151 8.75933 396.473 7.37785 394.46 7.03791C393.717 6.91314 392.396 7.01259 391.903 6.36344C392.32 6.1121 392.902 6.17177 393.383 6.10306C394.299 5.96925 395.168 5.62027 396.088 5.51358C397.669 5.33095 399.257 5.97829 400.521 6.94569C401.784 7.91309 402.778 9.18427 403.757 10.441C404.361 11.2167 404.973 12.0069 405.322 12.9255C405.49 13.3685 405.593 13.8603 405.452 14.3124H405.45Z" fill="#2A3F11"/>
<path d="M389.353 27.6229C387.547 28.3046 380.214 31.2141 378.134 32.1344C377.554 32.3912 376.775 33.138 374.591 33.9029C374.403 33.968 374.867 33.5177 374.934 33.4761C379.717 30.4763 388.915 27.3408 392.634 25.7297C389.631 24.6412 386.125 23.5454 382.95 23.1874C386.619 23.1801 390.345 24.0119 393.719 25.4494C396.653 24.9594 399.581 24.341 402.895 23.6503C394.434 17.9725 391.821 16.2131 385.684 15.309C388.661 15.2854 391.64 15.9979 394.286 17.3649C395.222 17.8495 396.113 18.4119 397.004 18.9742C397.658 19.3865 398.312 19.8006 398.966 20.2128C400.045 20.8927 401.122 21.5744 402.194 22.2652C402.586 22.5183 403.298 23.276 403.755 23.3718C403.755 23.3718 405.477 23.0662 406.166 22.7877C402.633 20.3123 398.531 17.5132 394.996 15.0359C394.691 14.8225 394.382 14.6037 394.147 14.3144C398.316 15.9798 405.268 21.6992 406.905 22.5671C407.01 22.6232 407.664 22.5039 407.583 22.4171C406.388 21.1585 405.051 20.0411 403.703 19.0845C403.034 18.6108 402.129 17.5077 401.52 16.9599C400.412 15.9635 399.483 14.2783 398.457 13.1988C396.086 10.707 393.457 9.78846 390.374 8.61854C389.398 8.24785 388.279 7.86089 387.235 7.81569C386.532 7.78495 385.301 7.98024 384.739 7.5535C388.89 6.8935 392.931 8.97837 396.617 10.9982C397.288 11.3652 397.969 11.7395 398.511 12.2784C398.984 12.7467 399.335 13.3217 399.711 13.8714C401.69 16.7628 404.427 19.0321 407.129 21.2634C407.552 21.6124 408.52 22.3755 408.999 22.1115C409.272 19.1171 409.401 15.6308 408.652 12.6002C408.262 11.018 406.576 10.1103 405.188 9.25684C404.803 9.01996 404.355 8.62215 404.534 8.20807L408.318 11.1772C408.651 11.4376 408.907 11.7865 409.05 12.1862C409.536 13.5423 409.661 14.3651 409.663 15.5187C409.668 17.685 409.565 20.0085 409.485 22.173C409.482 22.2706 409.74 22.2489 409.74 22.2489C411.202 20.5112 412.359 19.1785 414.283 17.6614C413.174 18.8838 412.971 18.9959 411.829 20.3014C411.509 20.6667 409.738 22.2489 410.412 22.4134L413.109 20.6197C413.279 20.5419 413.56 20.6378 413.429 20.7698L411.088 22.5129C412.838 23.0879 414.966 22.9758 416.801 23.1476C419.692 23.4188 422.424 25.0697 424.009 27.5054C421.987 25.0896 418.935 23.5671 415.789 23.4044C414.793 23.3537 413.788 23.4297 412.805 23.2651C411.621 23.0662 410.409 22.5219 409.272 22.9035C408.828 23.1747 409.63 23.4224 409.908 23.6213C412.124 25.2126 413.698 26.7568 414.735 28.9755C415.772 31.1942 416.3 33.6099 416.82 36.0022C415.827 32.384 414.728 28.5831 412.037 25.9684C411.226 25.1818 410.297 24.5291 409.37 23.8817C409.063 23.6665 408.736 23.4441 408.363 23.4098C408.11 23.3863 407.859 23.4532 407.613 23.5183C406.722 23.757 405.83 23.9938 404.939 24.2325C404.964 24.4911 405.038 24.6665 405.156 24.8889C405.177 24.9251 405.186 24.9757 405.219 25.0336C406.455 27.2016 406.755 29.5161 406.408 32.0241C406.155 33.8559 405.55 35.6207 404.689 37.2571C403.945 38.6693 403.063 40.2081 401.643 41.0381C404.411 37.9913 405.94 33.8504 405.817 29.7349C405.788 28.7748 405.671 27.8037 405.32 26.9087C405.022 26.1474 404.563 25.4603 404.109 24.7786C404.046 24.6828 403.976 24.5833 403.871 24.5345C403.757 24.482 403.625 24.5037 403.5 24.5254C402.113 24.7696 400.651 24.9196 399.272 25.2144C398.493 25.3807 396.991 25.8165 396.991 25.8165C396.433 26.3789 396.093 26.7785 395.692 27.7567C394.85 29.4402 394.326 30.4709 393.865 32.2972C393.668 33.0819 393.442 35.1885 392.692 35.4941C393.075 35.0204 393.13 34.373 393.213 33.7691C393.579 31.073 394.763 28.5686 395.93 26.1131C395.114 26.0877 394.313 26.312 393.529 26.5344C392.23 26.9014 390.605 27.1456 389.342 27.6247L389.353 27.6229Z" fill="#384F16"/>
<path d="M421.035 127.886C421.223 125.035 421.586 125.008 422.139 117.323C422.172 116.873 422.294 115.632 422.54 113.153C423.267 105.83 423.624 103.087 423.896 100.291C424.331 95.8249 424.403 92.5737 424.548 86.0731C424.711 78.8258 424.476 79.701 424.548 68.9421C424.611 59.7491 424.815 54.1328 426.344 47.0879C426.603 45.8945 426.845 44.9181 427.007 44.2743C427.533 44.2545 428.061 44.2328 428.587 44.2111C428.016 46.9758 427.436 50.3301 427.007 54.1707C426.713 56.8198 426.299 60.6532 426.344 65.5752C426.387 70.3344 426.814 70.9655 426.984 77.3196C427.056 80.0699 427.031 81.9522 426.984 85.2323C426.93 89.0658 426.848 94.7454 426.344 101.284C425.869 107.45 425.507 108.02 424.936 113.945C424.535 118.106 424.102 124.183 424.121 131.718C422.781 132.11 421.17 132.414 420.657 131.718C420.216 131.121 420.955 129.062 421.033 127.886H421.035Z" fill="#2A3F11"/>
<path d="M428.468 42.9634C427.801 40.506 426.948 38.0992 425.92 35.7703C424.957 33.5895 423.706 31.3401 421.57 30.2805C420.386 29.6928 419.04 29.5355 417.723 29.4288C414.519 29.1721 411.203 29.1938 408.212 30.3691C405.221 31.5444 402.594 34.076 402.077 37.2512C403.868 36.3959 405.675 35.5352 407.601 35.0614C409.528 34.5877 411.609 34.5226 413.46 35.2423C413.796 35.3724 414.139 35.5424 414.34 35.8426C414.541 36.1427 414.541 36.6057 414.25 36.819C414.062 36.9583 413.809 36.9619 413.576 36.9601C410.639 36.9456 407.703 37.0595 404.777 37.3C404.161 37.3506 403.535 37.4103 402.961 37.6363C402.33 37.8859 401.792 38.3271 401.314 38.8117C398.407 41.7681 397.677 46.1729 397.09 50.2794C397.012 50.8237 396.979 51.4873 397.426 51.8092C398.696 51.1528 399.601 49.9738 400.689 49.0444C403.479 46.6557 407.323 46.0048 410.972 45.5835C413.422 45.2996 415.881 45.079 418.343 44.9217C412.043 47.6177 405.182 48.737 398.761 51.1311C398.192 51.3426 397.588 51.5958 397.267 52.1111C397.037 52.4764 396.985 52.923 396.94 53.3534C396.771 54.9085 396.607 56.5069 397.003 58.0204C397.422 59.6261 398.443 61.0202 398.902 62.6151C399.433 64.4595 399.247 66.6257 400.512 68.0687C401.336 65.9928 401.334 63.5102 402.816 61.8412C403.685 60.8611 404.945 60.3205 405.933 59.4597C406.721 58.7762 407.321 57.9011 408.084 57.1886C408.803 56.516 409.651 56.0006 410.518 55.5341C413.053 54.1707 415.802 53.2033 418.632 52.6753C418.626 53.1997 418.046 53.4998 417.553 53.6752C415.596 54.3714 413.599 54.9826 411.749 55.9247C408.471 57.5955 405.801 60.2264 403.187 62.814C402.847 63.1503 402.5 63.4975 402.317 63.9387C401.781 65.2406 402.849 66.5841 403.582 67.7884C404.336 69.0252 404.777 70.4266 405.435 71.7195C406.092 73.0123 407.05 74.2492 408.413 74.7428C409.099 72.4464 409.784 70.1481 410.471 67.8517C410.82 66.6818 411.174 65.5028 411.75 64.4269C412.898 62.2914 414.842 60.7165 416.776 59.2536C417.464 58.7328 418.326 58.194 419.129 58.5086C419.118 59.4832 418.446 60.3096 417.808 61.0456C416.92 62.069 416.035 63.0943 415.148 64.1177C413.95 65.501 412.741 66.9024 411.89 68.5225C410.686 70.8135 410.26 73.5042 410.691 76.0574C411.528 81.0029 420.179 80.2959 422.882 84.5199C423.567 82.1041 425.925 80.6304 428.032 79.2688C430.139 77.9072 432.375 76.0935 432.532 73.5855C432.608 72.3614 432.16 71.1734 431.719 70.0288C430.385 66.5697 429.051 63.1087 427.718 59.6496C427.477 59.0258 427.234 58.3712 427.309 57.7076C427.385 57.044 427.899 56.3785 428.565 56.3731C428.869 56.3713 429.158 56.5015 429.418 56.657C430.989 57.5955 431.782 59.4019 432.478 61.0944C433.217 62.8881 433.956 64.6837 434.693 66.4774C435.255 67.8445 435.823 69.2259 436.056 70.6852C436.417 72.9527 435.924 75.3468 434.695 77.2852C437.116 77.0338 439.209 75.5529 441.177 74.119C442.467 73.1805 443.842 72.1209 444.254 70.5803C445.272 71.2005 445.637 72.6851 445.026 73.7085C447.426 72.0359 447.901 68.499 446.826 65.7777C445.751 63.0563 443.486 61.0003 441.188 59.1939C438.889 57.3875 436.435 55.6806 434.727 53.3064C434.581 53.102 434.435 52.8814 434.404 52.6319C434.33 52.0261 434.988 51.5361 435.597 51.547C436.206 51.5578 436.75 51.9086 437.257 52.2468C442.612 55.8162 448.174 59.6098 451.232 65.2732C452.175 63.4451 453.026 61.5717 453.78 59.6586C454.23 58.5158 454.652 57.3188 454.591 56.091C454.506 54.4401 454.022 52.9049 452.784 51.8092C451.546 50.7134 450.008 50.0281 448.496 49.3572C450.812 48.5526 453.649 49.849 454.557 52.1292C455.523 49.7532 456.496 47.0752 455.529 44.6992C454.511 42.1985 451.7 40.9598 449.063 40.3848C447.22 39.9816 445.333 39.7827 443.447 39.7881C443.615 38.2873 448.348 39.2728 450.606 40.1769C451.812 40.6597 446.316 34.9638 444.732 33.6456C443.564 32.6746 442.144 32.02 440.765 31.3853C439.368 30.7416 437.771 30.4866 436.245 30.2805C434.72 30.0744 433.13 31.0309 432.011 32.0869C429.866 34.1121 430.643 37.5984 430.291 40.5295C430.163 41.6054 429.543 42.938 428.461 42.9634H428.468Z" fill="#314914"/>
<path d="M422.958 73.0107C422.917 74.3054 422.626 75.6724 423.09 76.8821C423.377 71.7576 423.887 66.6458 424.619 61.5665C426.59 62.9624 426.934 63.4506 427.96 65.9261C428.334 66.8266 428.358 66.4053 429.379 70.2242C429.319 66.6367 427.624 63.2915 424.993 60.854C425.671 57.4871 426.538 54.462 427.051 51.4332C429.46 52.3409 431.724 54.3517 433.544 56.1726C434.054 56.6843 434.565 57.2014 434.968 57.8018C435.673 58.8505 436.085 60.1814 437.162 60.8414C436.813 59.8975 436.26 59.0422 435.671 58.2249C434.787 57.0025 433.812 55.8489 432.836 54.6989C431.939 53.6392 431.208 53.0841 429.962 52.2361C429.283 51.7714 428.316 51.0318 427.402 50.7533C427.745 49.0644 427.854 48.8131 428.105 47.475C428.123 47.3756 428.22 46.862 428.295 46.7427C428.302 46.73 428.318 46.7246 428.333 46.7264C432.724 47.1188 435.214 48.0428 439.177 49.7226C440.991 50.4911 443.687 52.2614 445.478 53.2107C441.161 48.6269 434.661 46.5293 428.41 45.7916C428.421 45.26 428.483 44.7301 428.591 44.2094C428.605 44.1407 428.622 44.0701 428.669 44.0195C428.726 43.9562 428.817 43.9381 428.902 43.9237C432.082 43.3559 435.295 42.7845 438.521 42.9617C438.965 42.987 439.414 43.025 439.854 42.9617C438.609 42.5115 437.245 42.582 435.922 42.6561C434.533 42.7357 433.141 42.8152 431.771 43.0666C430.673 43.2691 429.541 43.5801 428.455 43.3161C429.014 43.0937 429.554 42.8044 429.995 42.3957C430.376 42.0413 430.671 41.6092 430.994 41.2005C432.252 39.6093 433.92 38.4014 435.564 37.2152C433.248 38.2097 431.247 39.9257 429.912 42.0648C429.758 42.3107 429.529 42.4319 429.317 42.629C429.106 42.8261 428.755 43.016 428.472 42.9617C428.334 42.9346 428.181 41.7466 428.094 41.6399C427.946 41.4591 427.673 41.7484 427.637 41.9798C427.601 42.2113 427.655 42.459 427.559 42.6724C427.375 43.0847 426.742 43.0738 426.399 42.7809C426.056 42.488 425.983 41.9871 425.707 41.6309C424.816 40.4844 424.295 40.2259 422.965 39.47C421.635 38.7142 419.948 37.8788 418.993 36.6818C418.728 36.349 418.014 35.19 417.624 35.3545C418.336 36.5353 419.295 37.5678 420.421 38.3634C421.401 39.0559 422.499 39.5659 423.475 40.262C424.451 40.9582 425.335 41.8949 425.6 43.0666C425.616 43.1389 425.629 43.2167 425.597 43.2836C425.553 43.374 425.443 43.4065 425.345 43.4282C424.577 43.6054 423.795 43.7302 423.032 43.9309C421.95 44.2166 420.871 44.703 419.841 45.1406C422.123 44.486 424.735 43.9598 427.102 43.779C427.113 44.2003 427.035 44.7338 427.046 45.1551C427.049 45.325 426.97 45.7012 426.97 45.7012C426.838 45.9398 426.363 45.9615 426.095 46.0176C424.075 46.4461 422.055 46.8765 420.036 47.305C418.992 47.5275 417.947 47.7499 416.919 48.0374C412.116 49.3845 407.838 52.1203 403.642 54.8218C401.976 55.8941 400.276 56.9971 399.056 58.5594C400.83 57.4419 402.607 56.3263 404.381 55.2088C407.996 52.934 411.659 50.6376 415.721 49.323C416.848 48.9578 418 48.6703 419.151 48.3846C421.545 47.7878 424.382 47.1857 426.777 46.589C426.63 47.8566 426.294 48.9632 426.15 50.2307C426.124 50.4441 426.215 50.5255 425.895 50.766C425.75 50.8745 425.488 51.0083 425.32 51.0698C419.107 53.3391 413.643 57.469 409.432 62.5737C409.031 63.0619 408.626 63.5881 408.525 64.2119C410.26 62.1975 412.015 60.1651 414.156 58.5901C414.978 57.9844 415.791 57.366 416.539 56.6698C417.06 56.187 417.817 55.6608 418.513 55.1744C419.371 54.5741 420.853 53.7296 421.809 53.3047C423.143 52.7098 424.738 52.01 426.074 51.4133C425.747 53.1962 425.253 54.7567 425.022 56.3913C424.726 58.4889 424.2 60.2266 423.838 62.3151C423.647 63.4235 423.594 64.5319 423.48 65.6512C423.437 66.0744 423.394 66.4993 423.273 66.908C422.998 67.8356 422.342 68.6023 421.63 69.2604C420.918 69.9186 420.134 70.4973 419.489 71.2187C418.784 72.0053 418.265 72.9384 417.786 73.8804C418.041 73.8172 418.22 73.5966 418.385 73.3904C419.841 71.5605 421.536 69.9367 423.224 68.3202C422.879 69.9783 423.012 71.3254 422.958 73.0179V73.0107Z" fill="#435F1A"/>
<path d="M423.997 130.713C425.309 124.984 427.519 118.366 431.299 111.542C444.688 87.3805 468.214 77.9018 476.941 74.8875C476.8 74.3324 476.659 73.7755 476.518 73.2203C475.719 73.5078 474.571 73.9292 473.204 74.4644C470.571 75.4933 462.023 78.8312 454.525 83.5073C444.38 89.8343 437.671 97.6801 435.513 100.338C424.669 113.696 418.51 130.673 420.798 132.143C421.197 132.4 422.043 132.302 423.997 130.711V130.713Z" fill="#384F16"/>
<path d="M465.93 63.1902C462.728 62.3621 458.913 62.4163 456.606 64.7851C454.782 66.6566 454.379 69.4828 454.399 72.0957C454.437 76.8405 455.572 81.5744 457.694 85.8201C457.305 82.9559 458.424 80.0139 460.301 77.8151C462.179 75.6163 464.752 74.1046 467.452 73.074C468.289 72.7539 469.496 72.6237 469.835 73.4537C470.121 74.1517 469.487 74.8569 468.928 75.3614C467.011 77.0954 465.291 79.0483 463.809 81.1676C463.086 82.2019 462.403 83.3266 462.284 84.5815C462.159 85.8798 462.658 87.1618 463.306 88.2937C464.843 90.9681 467.298 93.1018 470.159 94.25C469.382 90.234 469.667 86.0172 470.976 82.1404C471.216 81.4279 471.753 80.5781 472.483 80.7625C472.743 82.7027 472.3 84.7297 471.254 86.3843C470.856 87.0135 470.367 87.6066 470.157 88.3209C469.922 89.1201 470.067 89.9808 469.962 90.8072C469.805 92.0657 469.075 93.2808 469.317 94.5267C469.617 96.0709 470.763 98.069 472.015 99.0201C473.827 100.394 477.582 102.951 479.847 103.139C478.381 102.123 476.798 99.427 476.533 97.6621C476.267 95.8973 476.693 93.3495 476.934 91.5829C477.239 89.3461 477.376 88.2088 478.791 86.1058C479.025 85.7604 479.982 85.2216 480.398 85.2505C481.433 85.3192 480.47 87.8345 480.548 88.8688C480.732 91.3225 480.443 92.035 480.447 94.4959C480.449 95.7508 481.227 97.4885 481.706 98.6494C482.118 99.6476 482.861 100.465 483.589 101.259C484.771 102.548 485.987 103.864 487.54 104.669C488.485 105.159 489.571 105.474 490.277 106.271C491.152 107.257 491.166 108.893 490.31 109.893C491.895 109.665 492.139 107.506 493.048 106.186C494.061 104.714 496.096 104.215 497.108 102.741C498.19 101.168 497.741 98.9514 496.678 97.3656C495.615 95.7798 494.047 94.6135 492.706 93.2537C491.062 91.5847 489.746 89.592 488.853 87.4258C488.647 86.9249 488.533 86.2107 489.012 85.9593C489.348 85.7839 489.751 85.9756 490.08 86.1655C491.269 86.8508 492.458 87.5343 493.647 88.2196C495.863 89.4944 498.12 90.8054 499.802 92.7293C501.485 94.6533 502.515 97.3421 501.826 99.8031C503.08 97.8213 503.547 95.3548 503.104 93.0512C502.849 91.7294 502.311 90.4781 501.72 89.2702C501.141 88.0894 500.489 86.9105 499.511 86.0317C498.664 85.2704 497.618 84.7731 496.588 84.2867C493.687 82.9197 490.789 81.5509 487.888 80.1839C487.297 79.9054 486.672 79.5962 486.338 79.0357C486.003 78.4751 486.137 77.5891 486.753 77.3757C486.981 77.298 487.231 77.3215 487.469 77.3504C494.059 78.1551 500.158 82.2923 503.342 88.122C503.375 82.7931 500.413 77.2148 495.404 75.4084C491.665 74.0594 487.532 74.9328 483.569 74.6525C482.982 74.611 482.201 74.2927 482.341 73.7195C482.429 73.3524 482.857 73.2005 483.226 73.121C487.597 72.1771 492.361 73.2548 495.903 75.987C495.975 75.1697 495.411 74.4247 494.757 73.9311C494.103 73.4374 493.333 73.1047 492.706 72.5785C491.342 71.4321 490.832 69.5479 489.625 68.2388C488.027 66.5083 485.326 66.0527 483.103 66.832C480.88 67.6113 479.144 69.463 478.134 71.5894C477.537 72.8425 476.469 73.8732 475.589 72.3326C475 71.3019 475.268 69.924 474.592 68.8192C472.774 65.8483 469.189 64.0311 465.929 63.1884L465.93 63.1902Z" fill="#2A3F11"/>
<path d="M476.07 73.629L476.628 74.2149C475.423 74.0612 474.255 74.6398 473.187 75.2221C471.63 76.0701 470.063 76.9905 468.926 78.3521C467.811 79.6884 467.19 81.3592 466.59 82.9938C466.223 83.9901 465.851 85.0262 465.945 86.084C466.355 84.8364 466.834 83.6104 467.379 82.4152C467.799 81.4984 468.332 79.4804 469.047 78.7698C471.205 76.6234 473.198 75.2202 475.976 74.7754C476.382 74.7103 476.632 74.7103 477.029 74.8134C477.908 75.0394 478.471 76.4896 478.939 77.269C477.888 77.9543 476.943 78.8023 476.147 79.7715C474.499 81.7823 473.52 84.3047 473.216 86.8869C472.913 89.469 473.272 92.109 474.098 94.5754C474.424 94.0547 474.124 93.3929 473.93 92.8106C473.599 91.8161 473.589 87.1997 473.854 86.1871C474.846 82.4061 474.395 83.0263 476.722 79.8891C476.872 79.6884 477.682 78.551 479.122 77.7138C479.122 77.7138 479.61 78.5655 480.045 79.0898C480.698 79.8764 481.222 80.7588 481.74 81.6376C482.34 82.652 482.94 83.6664 483.54 84.679C484.05 85.5416 484.561 86.4059 484.944 87.3317C485.835 89.4817 486.007 91.8848 486.954 94.0113C487.624 95.5193 488.678 96.8701 489.079 98.4721C488.802 96.9026 488.327 95.3674 487.669 93.9154C487.341 93.1921 486.966 92.4851 486.704 91.7347C486.406 90.883 486.26 89.9862 486.05 89.1074C485.409 86.4077 484.189 83.8834 482.893 81.4297C485.131 81.8456 487.333 82.4549 489.466 83.2487C490.47 83.623 491.463 83.8925 492.46 84.283C494.582 85.113 496.609 86.1835 498.49 87.4691C498.179 86.8218 497.538 86.4113 496.929 86.0334C495.874 85.3806 495.263 85.2504 493.599 84.4006C493.19 84.1908 492.218 83.784 491.773 83.6682C490.51 83.3392 489.916 82.945 488.685 82.5038C487.057 81.9197 485.973 81.8347 483.537 80.9288C483.313 80.8456 483.058 80.8619 482.846 80.7498C482.629 80.6341 482.463 80.4424 482.31 80.2489C481.417 79.1206 480.06 77.6306 479.429 76.3359C481.666 76.2329 484.149 75.9309 486.361 75.9689C488.573 76.0068 491.208 76.4281 493.241 77.3015C493.346 77.3467 493.49 77.3847 493.557 77.2907C493.647 77.1659 493.472 77.0212 493.327 76.967C490.172 75.8043 486.755 75.3613 483.408 75.6813C481.871 75.8296 480.195 76.1063 478.88 75.2962C478.014 74.7628 477.454 73.6688 477.423 72.6508C476.773 73.3433 475.994 73.2167 475.58 72.3325C475.732 72.5278 475.889 73.4482 476.061 73.629H476.07Z" fill="#384F16"/>
<path d="M427.506 130.713C426.707 110.39 429.649 94.901 432.477 84.52C434.359 77.6162 436.267 72.687 449.61 37.3671C451.136 33.3311 455.794 20.9882 457.292 17.0192C456.627 17.1566 455.962 17.2958 455.297 17.4332C454.068 21.2558 452.167 26.8758 449.549 33.5608C443.898 47.9849 440.725 52.5091 436.444 62.7056C430.32 77.2962 427.905 89.272 426.239 97.7688C423.657 110.936 420.907 132.078 424.367 133.049C425.345 133.324 426.599 131.932 427.506 130.715V130.713Z" fill="#384F16"/>
<path d="M498.595 35.7577C496.437 32.7235 494.679 31.4614 490.913 29.9551C486.657 28.2518 479.27 27.1325 474.721 26.5647C472.582 26.2971 469.7 27.5737 468.297 25.9355C468.098 25.704 467.916 25.431 467.918 25.1254C467.923 24.3967 468.856 24.1182 469.58 24.0513C474.315 23.6119 479.158 23.1797 483.773 24.3316C486.504 25.0133 489.066 26.2284 491.609 27.4381C494.695 28.9064 497.961 30.532 499.699 33.4757C499.558 28.5086 497.411 23.9844 494.755 19.7857C494.274 19.0263 493.683 18.0589 492.897 17.4748C492.125 16.8998 491.592 16.6774 490.738 16.1186C488.847 14.8836 486.361 14.6793 484.109 14.8384C479.745 15.144 474.691 16.8691 470.327 17.1746C468.212 17.3229 466.111 18.5941 464.029 18.1999C463.801 18.1565 463.55 18.0914 463.424 17.8961C463.257 17.6357 463.396 17.2922 463.564 17.0336C464.638 15.3863 466.651 14.6721 468.521 14.0645C471.06 13.24 473.625 12.4082 476.281 12.1315C478.8 11.8693 481.341 12.1116 483.856 12.3973C486.057 12.6469 488.304 12.947 490.275 13.956C489.147 13.4154 488.378 12.3539 487.577 11.3938C482.635 5.46823 475.105 2.26949 467.562 0.654751C464.969 0.0996276 462.265 -0.292756 459.676 0.284066C457.086 0.860888 454.614 2.58774 453.806 5.11563C453.233 6.90938 453.546 8.86768 454.077 10.6741C454.609 12.4805 455.355 14.2345 455.658 16.0915C455.738 16.5797 455.391 17.388 455.013 17.068C454.253 16.426 453.922 15.4261 453.486 14.531C451.71 10.8802 447.651 8.55305 443.593 8.58741C441.78 8.60368 439.973 9.04851 438.361 9.87848C434.821 11.6994 432.376 15.3646 431.731 19.2957C431.086 23.2268 432.159 27.3495 434.366 30.664C434.516 29.5863 434.333 28.4543 434.691 27.4272C435.108 26.2284 436.212 25.3731 437.405 24.9409C438.598 24.5088 439.886 24.4401 441.153 24.3732C443.748 24.2394 446.343 24.1056 448.938 23.9717C449.243 23.9555 449.585 23.9519 449.807 24.1616C450.109 24.4419 450.011 24.9735 449.719 25.2628C449.426 25.5521 449.005 25.6624 448.605 25.7637C444.59 26.7962 442.629 26.2646 438.871 28.0149C438.316 28.2735 435.759 30.5211 435.526 31.0853C434.7 33.0834 434.268 35.3635 434.797 37.4611C435.325 39.5586 436.408 41.4663 437.479 43.345C438.531 45.193 440.531 48.4731 441.583 50.3211C442.185 44.2166 446.074 37.6997 450.77 33.7126C451.734 32.8935 452.762 32.1214 453.942 31.6657C454.854 31.3131 456.164 31.3312 456.502 32.248C456.683 32.738 456.477 33.3022 456.136 33.6963C455.792 34.0905 455.33 34.3582 454.892 34.6439C452.234 36.3816 448.676 39.329 446.907 41.9671C445.405 44.2075 444.762 46.1622 443.958 48.7371C443.153 51.312 443.862 54.2486 444.982 56.7023C445.362 57.5341 445.871 58.2972 446.379 59.0566C448.56 62.3187 451.003 65.1738 454.262 67.3618C457.518 69.5479 461.367 70.9366 465.288 70.9638C463.221 69.0308 461.201 66.9513 460.001 64.3891C458.801 61.825 458.617 58.7565 459.638 56.1147C460.957 52.7007 461.403 50.3591 464.419 48.2905C465.034 47.8692 466.028 47.5961 466.4 48.2417C466.525 48.4587 466.53 48.7245 466.521 48.9758C466.443 51.1728 465.55 53.2577 465.236 55.4348C464.575 60.0132 466.496 64.5265 468.373 68.7541C469.035 70.2423 469.747 71.7973 471.051 72.7738C472.242 73.6652 473.764 73.9509 475.171 74.4319C476.579 74.9129 478.034 75.7465 478.496 77.1623C478.35 74.6001 479.573 72.1536 481.032 70.0434C482.492 67.9314 484.229 65.9911 485.349 63.6802C486.469 61.3711 486.89 58.5178 485.624 56.2846C484.326 53.9954 481.662 52.9322 479.583 51.3193C477.494 49.6991 475.929 47.4117 475.175 44.8766C475.115 44.674 475.063 44.4462 475.164 44.2618C475.334 43.9526 475.784 43.9833 476.122 44.0828C477.815 44.5782 479.27 45.674 480.566 46.8728C482.696 48.842 484.512 51.1475 485.929 53.6808C486.652 54.9755 487.29 56.3515 488.332 57.4039C489.306 58.3876 490.664 59.1561 491.312 60.3043C491.108 59.2736 491.421 58.1236 491.854 57.1309C492.416 55.8434 493.174 54.5795 493.215 53.1763C493.278 50.9829 492.624 49.1783 491.497 47.296C488.983 43.0973 482.716 40.4645 478.876 38.5822C476.084 37.2115 473.767 37.8715 471.414 35.8355C471.105 35.5679 470.796 35.2586 470.71 34.8608C470.572 34.237 471.053 33.6077 471.644 33.3673C472.235 33.125 472.9 33.1792 473.532 33.2624C475.343 33.5029 477.123 33.9567 478.836 34.5896C486.789 37.5316 493.105 44.5637 495.181 52.7893C496.517 50.4278 498.882 48.3863 499.354 45.7138C499.825 43.0412 500.174 37.9782 498.6 35.7668L498.595 35.7577ZM452.679 53.858C452.267 55.2467 452.697 57.5703 452.303 57.1743C451.721 56.592 451.788 53.8128 451.75 53.0298C451.665 51.2451 451.464 48.5961 452.894 47.0464C453.813 46.0501 456.09 45.2925 456.542 46.4117C457.534 48.8745 454.352 48.2308 452.679 53.8598V53.858Z" fill="#3D5B19"/>
<path d="M491.307 60.2972C491.367 60.601 491.471 60.8958 491.632 61.1724C491.573 60.8542 491.459 60.5649 491.307 60.2972Z" fill="#3D5B19" stroke="#25350F" stroke-width="0.697201" stroke-miterlimit="10"/>
<path d="M474.613 48.4425C477.531 50.2562 481.514 54.6809 482.235 58.0424C482.147 55.9069 481.153 53.8871 479.801 52.2308C478.449 50.5744 476.752 49.2418 475.048 47.9543C473.834 47.0375 472.607 46.1389 471.367 45.2565C471.154 45.1046 470.937 44.9491 470.782 44.7375C470.616 44.5115 470.552 44.2294 470.455 43.9672C469.793 42.2078 468.91 40.9041 468.254 38.736C472.69 39.9529 477.208 41.2151 481.046 43.7502C481.839 44.2746 482.604 44.8532 483.251 45.5512C484.205 46.5765 484.917 47.8639 486.097 48.6179C484.521 45.7826 481.731 43.8659 479.04 42.0559C478.29 41.5514 477.537 41.0451 476.724 40.6491C475.986 40.2911 475.207 40.0289 474.432 39.7667C472.314 39.0543 470.213 38.0435 468.095 37.3292C466.765 35.031 465.433 32.7327 464.103 30.4327C467.71 30.1361 468.406 30.1596 471.976 30.4363C473.612 30.5629 478.097 31.523 479.691 31.9136C483.782 32.9154 487.297 35.5734 491.345 36.7343C489.541 35.7398 487.738 34.7471 485.934 33.7526C484.245 32.8213 482.541 31.8847 480.696 31.3223C479.552 30.9751 478.37 30.7762 477.19 30.5791C475.242 30.2537 473.294 29.9264 471.346 29.6009C468.805 29.176 466.1 29.3785 463.541 29.6859C462.695 28.0494 461.582 26.7204 460.331 24.6807C460.042 24.2088 459.484 23.9303 459.283 23.415C459.124 23.0099 458.81 22.1836 458.392 22.3065C462.236 21.7912 466.082 21.274 469.925 20.7587C471.357 20.567 472.786 20.3753 474.217 20.1819C475.48 20.0119 476.747 19.8419 478.021 19.7859C479.004 19.7425 479.991 19.7678 480.974 19.8148C483.636 19.9432 486.29 20.2325 488.918 20.6827C486.265 19.7841 483.466 19.3193 480.665 19.3157C479.338 19.3139 478.014 19.4134 476.693 19.5183C470.395 20.0191 464.09 20.5544 457.814 21.2921C457.814 21.2921 457.395 20.8708 456.833 20.0951C456.762 19.9974 456.432 19.7497 456.367 19.6466C456.298 19.5363 456.22 19.4586 456.144 19.3519C456.007 19.1584 455.98 19.0409 455.864 18.8872C455.911 18.663 456.168 18.5635 456.387 18.4966C457.76 18.0717 458.989 16.8927 460.192 16.1043C462.728 14.4426 464.571 12.166 466.92 10.2511C468.765 8.74849 470.654 7.17896 472.996 6.53342C473.825 6.30559 474.75 5.83907 475.681 5.81014C473.333 5.71249 471.046 6.65096 469.09 7.95107C467.135 9.25118 465.447 10.9093 463.682 12.4608C462.249 13.7193 460.76 14.9127 459.273 16.1043C458.439 16.7716 457.422 17.1983 456.546 17.8077C456.361 17.9361 456.083 18.0518 455.94 17.8782C457.952 14.6505 459.963 11.4229 461.976 8.19337C462.285 7.69611 462.596 7.20066 462.881 6.69074C463.414 5.74323 464.04 4.14838 464.676 3.26778C465.312 2.38718 465.995 2.21178 467.039 1.91704C466.463 1.94416 465.863 1.97852 465.362 2.26422C464.891 2.53364 464.515 2.964 464.253 3.43956C461.925 7.67622 460.447 10.045 457.859 14.175C457.413 14.8874 456.703 16.2526 455.969 16.6631C456.537 15.8259 456.661 15.1478 456.862 14.1551C456.969 13.6289 456.952 13.128 456.994 12.591C457.131 10.8496 457.612 9.39764 457.991 7.69249C458.479 5.49912 458.983 2.99474 460.492 1.33118C459.853 1.38 459.547 1.97852 459.253 2.54811C458.958 3.1177 458.501 4.23699 458.373 4.86444C457.928 7.06143 457.254 8.60022 456.867 10.8081C456.587 12.4047 456.352 13.4173 456.182 15.3214C455.984 16.6432 455.279 17.0989 454.722 17.7607C454.561 17.9523 454.39 18.1512 454.16 18.2489C453.68 18.4514 453.143 18.153 452.734 17.8276C450.788 16.2761 449.507 13.8404 447.21 12.8803C449.149 15.3485 451.415 17.5618 453.927 19.4423C453.761 19.7407 453.351 19.7696 453.011 19.7443C451.365 19.6286 449.762 19.1367 448.114 19.0481C445.456 18.9071 442.87 19.8202 440.365 20.7207C442.082 21.0082 443.701 19.8944 445.418 19.605C448.114 19.1512 450.779 20.7605 453.51 20.6158C453.799 20.6014 454.524 19.9504 454.78 20.0824C454.984 20.1873 455.375 20.8509 455.508 21.0372C456.007 21.7279 456.768 22.6067 457.265 23.2974C454.596 24.8724 453.864 25.5722 451.694 27.6353C450.806 28.4798 448.237 31.3657 447.357 32.2174C446.448 33.098 445.439 33.8719 444.355 34.5229C449.196 32.098 454.56 25.0731 457.968 24.1527C460.026 26.9157 461.13 28.7745 462.838 31.5375C460.754 32.8575 458.64 34.8176 457.258 36.7018C455.875 38.5859 452.838 43.4591 453.81 42.7973C458.611 35.823 459.511 35.0852 463.322 32.523C464.005 33.4922 464.28 34.3294 464.28 34.3294C463.881 34.7905 462.753 35.9929 462.319 36.4215C461.949 36.7868 460.062 39.6148 459.798 40.0632C457.478 44.0323 457.482 47.0629 456.678 51.5906C456.477 52.7208 456.276 53.8491 456.076 54.9792C457.605 51.088 457.643 46.7085 459.377 42.904C460.021 41.4935 460.883 40.1971 461.739 38.906C462.545 37.6945 463.693 36.1955 464.732 35.1756C466.483 37.6945 467.368 40.1211 468.704 42.6671C469.096 43.4139 469.439 44.1173 469.766 44.893C471.252 48.4317 472.739 51.9776 473.834 55.6555C474.929 59.3334 475.625 63.1614 475.489 66.9967C475.699 66.7725 475.759 66.4488 475.798 66.1432C476.378 61.7293 475.104 57.301 473.762 53.0553C473.061 50.8384 472.332 48.6197 471.304 46.5331C472.434 47.2346 473.485 47.7283 474.617 48.4299L474.613 48.4425Z" fill="#577A23"/>
<path d="M40.9146 1.60547H107.011V201.523H40.9146C37.7296 201.523 35.147 198.941 35.147 195.756V7.37305C35.147 4.18811 37.7296 1.60547 40.9146 1.60547Z" fill="#7A8F6A"/>
<path d="M40.9146 1.60547H107.011V201.523H40.9146C37.7296 201.523 35.147 198.941 35.147 195.756V7.37305C35.147 4.18811 37.7296 1.60547 40.9146 1.60547Z" stroke="#3F6A45" stroke-width="0.295735"/>
<rect x="40.6184" y="11.8088" width="60.9215" height="23.0674" rx="2.95735" fill="#EBFFEE"/>
<rect x="40.6184" y="36.3549" width="60.9215" height="23.0674" rx="2.95735" fill="#EBFFEE"/>
<rect x="47.1245" y="72.7303" width="47.9091" height="23.0674" rx="2.95735" fill="#EBFFEE"/>
<rect x="67.8262" y="151.396" width="6.80192" height="23.0674" rx="2.95735" fill="#3F6A45"/>
<rect x="67.8262" y="178.012" width="6.80192" height="10.055" rx="2.95735" fill="#3F6A45"/>
<path d="M107.159 1.45801L142.556 15.5229C143.682 15.9703 144.422 17.0595 144.422 18.2712V185.487C144.422 186.716 143.662 187.816 142.514 188.252L107.159 201.671V1.45801Z" fill="#7A8F6A"/>
<path d="M291.816 110.145C291.788 110.262 292.034 112.545 292.61 116.822C293.134 120.714 294.012 123.635 295.168 126.153C295.856 127.653 297.2 129.378 298.552 131.026C301.2 134.252 303.882 136.329 307.24 138.078C309.478 139.244 313.016 140.539 318.008 142.071C323.001 143.603 329.395 145.221 332.9 146.075C336.406 146.929 336.828 146.97 338.655 147.476C340.482 147.982 343.703 148.95 347.002 150.188C350.302 151.426 353.583 152.904 355.924 154.162C361.497 157.16 362.38 158.132 364.251 160.423C365.219 161.609 365.46 162.826 365.12 164.222C364.955 164.9 363.278 167.294 363.288 168.799C363.263 169.415 364.753 173.102 365.521 174.366" stroke="#EBFFEE" stroke-width="0.591471" stroke-linecap="round"/>
<path d="M360.222 181.035C359.256 177.535 361.053 173.864 364.409 172.479C367.764 171.094 371.626 172.429 373.411 175.591L379.191 185.834C381.739 190.351 379.759 196.079 374.965 198.057C370.172 200.036 364.728 197.372 363.349 192.373L360.222 181.035Z" fill="#7A8F6A"/>
<path d="M361.117 180.674C360.359 177.904 361.783 175.003 364.438 173.907L368.274 183.201L364.013 184.96C363.191 185.299 362.257 184.841 362.023 183.983L361.117 180.674Z" fill="#EBFFEE"/>
<path d="M372.59 175.939C371.173 173.441 368.118 172.388 365.463 173.484L369.299 182.778L373.56 181.02C374.382 180.68 374.721 179.697 374.282 178.923L372.59 175.939Z" fill="#EBFFEE"/>
<rect x="151.692" y="1.87284" width="210.564" height="122.434" rx="5.76684" fill="#7A8F6A" stroke="#3F6A45" stroke-width="0.295735"/>
<rect x="157.458" y="7.63965" width="199.03" height="110.901" rx="5.91471" fill="white"/>
<path d="M178.6 63.8103H190.936V64.9317H178.6V63.8103ZM180.459 71.8732C180.459 72.0719 180.521 72.2328 180.644 72.3558C180.767 72.4694 180.937 72.5546 181.155 72.6113L182.12 72.7817C182.461 72.8669 182.631 73.0419 182.631 73.3069C182.631 73.4583 182.579 73.5766 182.475 73.6618C182.371 73.747 182.205 73.7896 181.978 73.7896H175.676C175.458 73.7896 175.297 73.747 175.193 73.6618C175.089 73.5766 175.037 73.4583 175.037 73.3069C175.037 73.0419 175.202 72.8669 175.534 72.7817L176.499 72.6113C176.726 72.5546 176.896 72.4694 177.01 72.3558C177.133 72.2328 177.194 72.0719 177.194 71.8732V55.8325C177.194 55.6338 177.133 55.4776 177.01 55.364C176.896 55.241 176.726 55.1511 176.499 55.0943L175.534 54.924C175.202 54.8388 175.037 54.6637 175.037 54.3988C175.037 54.2473 175.089 54.1291 175.193 54.0439C175.297 53.9587 175.458 53.9161 175.676 53.9161H181.978C182.205 53.9161 182.371 53.9587 182.475 54.0439C182.579 54.1291 182.631 54.2473 182.631 54.3988C182.631 54.6637 182.461 54.8388 182.12 54.924L181.155 55.0943C180.937 55.1511 180.767 55.241 180.644 55.364C180.521 55.4776 180.459 55.6338 180.459 55.8325V71.8732ZM193.079 71.8732C193.079 72.0719 193.136 72.2328 193.249 72.3558C193.372 72.4694 193.543 72.5546 193.76 72.6113L194.726 72.7817C195.066 72.8669 195.237 73.0419 195.237 73.3069C195.237 73.4583 195.185 73.5766 195.081 73.6618C194.976 73.747 194.811 73.7896 194.584 73.7896H188.281C188.063 73.7896 187.902 73.747 187.798 73.6618C187.694 73.5766 187.642 73.4583 187.642 73.3069C187.642 73.0419 187.808 72.8669 188.139 72.7817L189.119 72.6113C189.336 72.5546 189.502 72.4694 189.615 72.3558C189.738 72.2328 189.8 72.0719 189.8 71.8732V55.8325C189.8 55.6338 189.738 55.4776 189.615 55.364C189.502 55.241 189.336 55.1511 189.119 55.0943L188.139 54.924C187.808 54.8388 187.642 54.6637 187.642 54.3988C187.642 54.2473 187.694 54.1291 187.798 54.0439C187.902 53.9587 188.063 53.9161 188.281 53.9161H194.584C194.811 53.9161 194.976 53.9587 195.081 54.0439C195.185 54.1291 195.237 54.2473 195.237 54.3988C195.237 54.6637 195.066 54.8388 194.726 54.924L193.76 55.0943C193.543 55.1511 193.372 55.241 193.249 55.364C193.136 55.4776 193.079 55.6338 193.079 55.8325V71.8732ZM210.236 65.5563C210.236 65.9632 210.118 66.2755 209.881 66.4932C209.644 66.7014 209.294 66.8055 208.83 66.8055H199.788V65.9537H206.559C207.004 65.9537 207.226 65.7597 207.226 65.3717C207.226 64.0752 206.952 63.0721 206.403 62.3623C205.864 61.6431 205.14 61.2835 204.231 61.2835C203.521 61.2835 202.892 61.4917 202.343 61.9081C201.804 62.315 201.383 62.897 201.08 63.6541C200.777 64.4017 200.626 65.2913 200.626 66.3228C200.626 68.2061 201.07 69.6398 201.96 70.624C202.859 71.5987 204.037 72.0861 205.495 72.0861C206.431 72.0861 207.241 71.8685 207.922 71.4331C208.613 70.9978 209.095 70.4205 209.37 69.7013C209.474 69.5594 209.564 69.46 209.64 69.4032C209.715 69.3464 209.8 69.318 209.895 69.318C210.018 69.318 210.103 69.3701 210.151 69.4742C210.207 69.5783 210.236 69.7013 210.236 69.8433C210.17 70.6287 209.886 71.348 209.384 72.0009C208.883 72.6445 208.215 73.1602 207.383 73.5482C206.55 73.9268 205.599 74.116 204.529 74.116C203.223 74.116 202.069 73.8416 201.066 73.2927C200.072 72.7344 199.291 71.9536 198.723 70.9505C198.165 69.9474 197.886 68.7691 197.886 67.4159C197.886 66.0342 198.16 64.8087 198.709 63.7393C199.258 62.6604 200.034 61.8087 201.037 61.1841C202.04 60.5595 203.233 60.2472 204.614 60.2472C205.769 60.2472 206.763 60.4744 207.595 60.9286C208.438 61.3734 209.086 61.998 209.54 62.8024C210.004 63.5973 210.236 64.5153 210.236 65.5563ZM217.211 53.547V71.93C217.211 72.176 217.259 72.3606 217.353 72.4836C217.448 72.6066 217.585 72.6918 217.765 72.7391L218.418 72.8811C218.579 72.9284 218.697 72.9899 218.773 73.0656C218.858 73.1413 218.901 73.2359 218.901 73.3495C218.901 73.482 218.848 73.5908 218.744 73.676C218.65 73.7517 218.498 73.7896 218.29 73.7896H213.151C212.953 73.7896 212.801 73.7517 212.697 73.676C212.603 73.5908 212.555 73.482 212.555 73.3495C212.555 73.2454 212.593 73.1555 212.669 73.0798C212.744 72.9946 212.863 72.9331 213.024 72.8952L213.719 72.7391C213.899 72.6918 214.032 72.6113 214.117 72.4978C214.211 72.3748 214.259 72.1902 214.259 71.9442V55.4918C214.259 55.2931 214.226 55.1511 214.159 55.0659C214.093 54.9713 213.984 54.9145 213.833 54.8956L212.853 54.853C212.702 54.8341 212.593 54.7915 212.527 54.7253C212.461 54.659 212.427 54.5786 212.427 54.4839C212.427 54.3609 212.465 54.2663 212.541 54.2C212.617 54.1243 212.754 54.0486 212.953 53.9729L215.394 53.1354C215.678 53.0313 215.905 52.9603 216.076 52.9225C216.255 52.8751 216.402 52.8515 216.516 52.8515C216.752 52.8515 216.927 52.913 217.041 53.036C217.154 53.159 217.211 53.3294 217.211 53.547ZM226.139 53.547V71.93C226.139 72.176 226.186 72.3606 226.281 72.4836C226.375 72.6066 226.513 72.6918 226.692 72.7391L227.345 72.8811C227.506 72.9284 227.625 72.9899 227.7 73.0656C227.785 73.1413 227.828 73.2359 227.828 73.3495C227.828 73.482 227.776 73.5908 227.672 73.676C227.577 73.7517 227.426 73.7896 227.218 73.7896H222.079C221.88 73.7896 221.729 73.7517 221.625 73.676C221.53 73.5908 221.483 73.482 221.483 73.3495C221.483 73.2454 221.521 73.1555 221.596 73.0798C221.672 72.9946 221.79 72.9331 221.951 72.8952L222.647 72.7391C222.827 72.6918 222.959 72.6113 223.044 72.4978C223.139 72.3748 223.186 72.1902 223.186 71.9442V55.4918C223.186 55.2931 223.153 55.1511 223.087 55.0659C223.021 54.9713 222.912 54.9145 222.76 54.8956L221.781 54.853C221.629 54.8341 221.521 54.7915 221.454 54.7253C221.388 54.659 221.355 54.5786 221.355 54.4839C221.355 54.3609 221.393 54.2663 221.469 54.2C221.544 54.1243 221.681 54.0486 221.88 53.9729L224.322 53.1354C224.606 53.0313 224.833 52.9603 225.003 52.9225C225.183 52.8751 225.33 52.8515 225.443 52.8515C225.68 52.8515 225.855 52.913 225.968 53.036C226.082 53.159 226.139 53.3294 226.139 53.547ZM236.937 60.2472C238.309 60.2472 239.521 60.5453 240.571 61.1415C241.622 61.7283 242.44 62.5469 243.027 63.5973C243.623 64.6383 243.921 65.8402 243.921 67.2029C243.921 68.5278 243.618 69.7108 243.013 70.7518C242.417 71.7927 241.584 72.6161 240.514 73.2217C239.454 73.8179 238.224 74.116 236.824 74.116C235.451 74.116 234.24 73.8227 233.19 73.2359C232.149 72.6397 231.33 71.8211 230.734 70.7801C230.138 69.7297 229.84 68.5278 229.84 67.1745C229.84 65.8307 230.138 64.6383 230.734 63.5973C231.34 62.5563 232.172 61.7377 233.232 61.1415C234.302 60.5453 235.537 60.2472 236.937 60.2472ZM237.902 72.9804C238.678 72.8669 239.313 72.5451 239.805 72.0151C240.306 71.4852 240.637 70.766 240.798 69.8575C240.969 68.949 240.954 67.8796 240.756 66.6493C240.557 65.4001 240.226 64.3686 239.762 63.5547C239.298 62.7314 238.731 62.1352 238.059 61.7661C237.396 61.3971 236.667 61.2693 235.873 61.3829C235.087 61.4964 234.444 61.8229 233.942 62.3623C233.45 62.8923 233.119 63.6115 232.948 64.52C232.787 65.4191 232.806 66.4884 233.005 67.7282C233.204 68.9584 233.535 69.9852 233.999 70.8085C234.472 71.6319 235.04 72.2281 235.702 72.5971C236.365 72.9662 237.098 73.094 237.902 72.9804ZM265.496 57.6921L266.632 58.0895L262.288 71.6319C262.231 71.8117 262.184 71.982 262.146 72.1429C262.108 72.2943 262.089 72.4741 262.089 72.6823V73.2075C262.089 73.3968 262.042 73.5435 261.947 73.6476C261.852 73.7422 261.72 73.7896 261.55 73.7896H259.094C258.914 73.7896 258.772 73.7422 258.668 73.6476C258.573 73.5435 258.526 73.3968 258.526 73.2075V72.6823C258.526 72.5214 258.507 72.3842 258.469 72.2707C258.441 72.1476 258.394 71.9678 258.327 71.7312L253.444 55.8325C253.368 55.5959 253.278 55.4256 253.174 55.3215C253.07 55.2079 252.924 55.1227 252.734 55.0659L252.053 54.8814C251.873 54.8246 251.75 54.7536 251.684 54.6685C251.618 54.5833 251.585 54.4839 251.585 54.3704C251.585 54.2284 251.637 54.1196 251.741 54.0439C251.854 53.9587 252.02 53.9161 252.238 53.9161H258.171C258.389 53.9161 258.55 53.9587 258.654 54.0439C258.767 54.1291 258.824 54.2426 258.824 54.3846C258.824 54.6306 258.668 54.7868 258.356 54.853L257.234 55.0234C257.007 55.0707 256.875 55.17 256.837 55.3215C256.799 55.4729 256.827 55.7142 256.922 56.0454L261.734 71.93L260.655 72.7675L265.496 57.6921ZM274.396 54.3988C274.396 54.2473 274.453 54.1291 274.567 54.0439C274.68 53.9587 274.841 53.9161 275.049 53.9161H279.393C279.63 53.9161 279.8 53.9587 279.904 54.0439C280.008 54.1291 280.06 54.2426 280.06 54.3846C280.06 54.4981 280.027 54.5928 279.961 54.6685C279.895 54.7347 279.757 54.8057 279.549 54.8814L278.967 55.0659C278.693 55.17 278.461 55.3357 278.272 55.5628C278.092 55.7899 277.936 56.1495 277.803 56.6416L273.36 71.6319C273.294 71.8685 273.242 72.0577 273.204 72.1997C273.176 72.3416 273.161 72.5025 273.161 72.6823V73.2075C273.161 73.3968 273.114 73.5435 273.019 73.6476C272.925 73.7422 272.792 73.7896 272.622 73.7896H270.024C269.854 73.7896 269.717 73.7422 269.613 73.6476C269.518 73.5435 269.471 73.3968 269.471 73.2075V72.6823C269.471 72.5309 269.466 72.3889 269.456 72.2565C269.447 72.124 269.404 71.9347 269.329 71.6886L264.644 55.8325C264.559 55.5486 264.474 55.3546 264.389 55.2505C264.304 55.1464 264.18 55.0707 264.02 55.0234L263.352 54.853C263.173 54.7962 263.045 54.7347 262.969 54.6685C262.903 54.5928 262.87 54.5029 262.87 54.3988C262.87 54.2473 262.927 54.1291 263.04 54.0439C263.154 53.9587 263.315 53.9161 263.523 53.9161H269.314C269.542 53.9161 269.707 53.9587 269.811 54.0439C269.925 54.1291 269.982 54.2473 269.982 54.3988C269.982 54.5123 269.939 54.6117 269.854 54.6969C269.769 54.7726 269.641 54.8341 269.471 54.8814L268.392 55.0376C268.174 55.0849 268.042 55.1748 267.994 55.3073C267.956 55.4398 267.985 55.6905 268.079 56.0596L272.721 71.9016L271.799 72.6397L276.554 56.5423C276.687 56.0975 276.701 55.7615 276.597 55.5344C276.502 55.3073 276.232 55.1369 275.788 55.0234L274.865 54.853C274.694 54.8057 274.571 54.7489 274.496 54.6827C274.429 54.607 274.396 54.5123 274.396 54.3988ZM286.898 60.2472C288.27 60.2472 289.482 60.5453 290.532 61.1415C291.582 61.7283 292.401 62.5469 292.988 63.5973C293.584 64.6383 293.882 65.8402 293.882 67.2029C293.882 68.5278 293.579 69.7108 292.974 70.7518C292.377 71.7927 291.545 72.6161 290.475 73.2217C289.415 73.8179 288.185 74.116 286.784 74.116C285.412 74.116 284.201 73.8227 283.15 73.2359C282.109 72.6397 281.291 71.8211 280.695 70.7801C280.098 69.7297 279.8 68.5278 279.8 67.1745C279.8 65.8307 280.098 64.6383 280.695 63.5973C281.3 62.5563 282.133 61.7377 283.193 61.1415C284.262 60.5453 285.497 60.2472 286.898 60.2472ZM287.863 72.9804C288.639 72.8669 289.273 72.5451 289.765 72.0151C290.267 71.4852 290.598 70.766 290.759 69.8575C290.929 68.949 290.915 67.8796 290.717 66.6493C290.518 65.4001 290.187 64.3686 289.723 63.5547C289.259 62.7314 288.691 62.1352 288.019 61.7661C287.357 61.3971 286.628 61.2693 285.833 61.3829C285.048 61.4964 284.404 61.8229 283.903 62.3623C283.411 62.8923 283.079 63.6115 282.909 64.52C282.748 65.4191 282.767 66.4884 282.966 67.7282C283.165 68.9584 283.496 69.9852 283.96 70.8085C284.433 71.6319 285.001 72.2281 285.663 72.5971C286.325 72.9662 287.059 73.094 287.863 72.9804ZM300.417 66.4364C300.417 65.0926 300.611 63.9617 300.999 63.0437C301.397 62.1257 301.908 61.4302 302.533 60.957C303.167 60.4838 303.834 60.2472 304.534 60.2472C305.376 60.2472 306.029 60.4791 306.493 60.9428C306.957 61.4065 307.189 62.05 307.189 62.8734C307.189 63.5169 307.051 64.0043 306.777 64.3355C306.503 64.6667 306.148 64.8323 305.712 64.8323C305.277 64.8323 304.936 64.7093 304.69 64.4632C304.454 64.2172 304.335 63.8765 304.335 63.4412V62.9585C304.326 62.6368 304.245 62.4002 304.094 62.2488C303.952 62.0879 303.711 62.0074 303.37 62.0074C302.963 62.0074 302.566 62.1731 302.178 62.5043C301.799 62.826 301.487 63.3134 301.241 63.9664C300.995 64.6194 300.872 65.4427 300.872 66.4364H300.417ZM300.73 61.0422L300.872 64.5058V71.93C300.872 72.1571 300.924 72.3322 301.028 72.4552C301.141 72.5688 301.321 72.6445 301.567 72.6823L302.859 72.8669C303.048 72.8952 303.186 72.9473 303.271 73.023C303.365 73.0987 303.413 73.2075 303.413 73.3495C303.413 73.482 303.361 73.5908 303.257 73.676C303.152 73.7517 302.996 73.7896 302.788 73.7896H296.812C296.613 73.7896 296.466 73.7517 296.372 73.676C296.277 73.5908 296.23 73.482 296.23 73.3495C296.23 73.2359 296.263 73.1413 296.329 73.0656C296.405 72.9899 296.523 72.9331 296.684 72.8952L297.38 72.7391C297.559 72.6918 297.692 72.6113 297.777 72.4978C297.872 72.3748 297.919 72.1902 297.919 71.9442V63.0011C297.919 62.8024 297.886 62.6604 297.82 62.5753C297.753 62.4806 297.645 62.4238 297.493 62.4049L296.514 62.3623C296.362 62.3434 296.254 62.3008 296.187 62.2346C296.121 62.1683 296.088 62.0879 296.088 61.9933C296.088 61.8797 296.126 61.7851 296.201 61.7093C296.277 61.6242 296.414 61.5532 296.613 61.4964L299.012 60.6731C299.362 60.5406 299.623 60.4554 299.793 60.4176C299.963 60.3797 300.1 60.3608 300.205 60.3608C300.365 60.3608 300.488 60.4128 300.574 60.5169C300.659 60.621 300.711 60.7961 300.73 61.0422ZM313.501 53.547V71.93C313.501 72.176 313.548 72.3606 313.643 72.4836C313.737 72.6066 313.875 72.6918 314.054 72.7391L314.707 72.8811C314.868 72.9284 314.987 72.9899 315.062 73.0656C315.148 73.1413 315.19 73.2359 315.19 73.3495C315.19 73.482 315.138 73.5908 315.034 73.676C314.939 73.7517 314.788 73.7896 314.58 73.7896H309.441C309.242 73.7896 309.091 73.7517 308.987 73.676C308.892 73.5908 308.845 73.482 308.845 73.3495C308.845 73.2454 308.883 73.1555 308.958 73.0798C309.034 72.9946 309.152 72.9331 309.313 72.8952L310.009 72.7391C310.189 72.6918 310.321 72.6113 310.406 72.4978C310.501 72.3748 310.548 72.1902 310.548 71.9442V55.4918C310.548 55.2931 310.515 55.1511 310.449 55.0659C310.383 54.9713 310.274 54.9145 310.122 54.8956L309.143 54.853C308.992 54.8341 308.883 54.7915 308.816 54.7253C308.75 54.659 308.717 54.5786 308.717 54.4839C308.717 54.3609 308.755 54.2663 308.831 54.2C308.906 54.1243 309.044 54.0486 309.242 53.9729L311.684 53.1354C311.968 53.0313 312.195 52.9603 312.365 52.9225C312.545 52.8751 312.692 52.8515 312.805 52.8515C313.042 52.8515 313.217 52.913 313.331 53.036C313.444 53.159 313.501 53.3294 313.501 53.547ZM327.522 71.5183L327.436 71.4189V55.4918C327.436 55.2931 327.403 55.1511 327.337 55.0659C327.271 54.9713 327.162 54.9145 327.011 54.8956L326.031 54.853C325.88 54.8341 325.771 54.7915 325.705 54.7253C325.648 54.659 325.619 54.5786 325.619 54.4839C325.619 54.3609 325.653 54.2663 325.719 54.2C325.795 54.1243 325.932 54.0486 326.13 53.9729L328.572 53.1354C328.856 53.0313 329.083 52.9603 329.253 52.9225C329.424 52.8751 329.58 52.8515 329.722 52.8515C329.949 52.8515 330.119 52.913 330.233 53.036C330.346 53.159 330.403 53.3294 330.403 53.547V71.93C330.403 72.176 330.446 72.3606 330.531 72.4836C330.626 72.6066 330.763 72.6918 330.943 72.7391L331.61 72.8811C331.771 72.9284 331.889 72.9899 331.965 73.0656C332.04 73.1413 332.078 73.2359 332.078 73.3495C332.078 73.482 332.026 73.5908 331.922 73.676C331.828 73.7517 331.676 73.7896 331.468 73.7896H328.842C328.444 73.7896 328.123 73.676 327.877 73.4489C327.64 73.2123 327.522 72.8763 327.522 72.441V71.5183ZM317.202 67.4868C317.202 66.0011 317.495 64.7188 318.082 63.6399C318.668 62.5516 319.454 61.7141 320.438 61.1273C321.432 60.5406 322.534 60.2472 323.746 60.2472C324.853 60.2472 325.837 60.5169 326.698 61.0564C327.569 61.5958 328.269 62.3623 328.799 63.356L328.132 64.0232C327.659 63.1904 327.086 62.5563 326.414 62.121C325.742 61.6857 325.019 61.468 324.243 61.468C323.504 61.468 322.837 61.6762 322.241 62.0926C321.645 62.4996 321.172 63.1241 320.821 63.9664C320.471 64.8087 320.296 65.8686 320.296 67.1461C320.296 68.3575 320.462 69.3701 320.793 70.1839C321.124 70.9883 321.574 71.5987 322.142 72.0151C322.719 72.4221 323.377 72.6255 324.115 72.6255C324.862 72.6255 325.572 72.4126 326.244 71.9867C326.916 71.5514 327.531 70.9032 328.089 70.042L328.529 70.7234C327.801 71.8117 326.968 72.6492 326.031 73.2359C325.094 73.8227 324.072 74.116 322.965 74.116C321.858 74.116 320.869 73.8369 319.998 73.2785C319.137 72.7107 318.456 71.93 317.954 70.9363C317.452 69.9332 317.202 68.7833 317.202 67.4868ZM337.265 52.8515C337.918 52.8515 338.392 53.0124 338.685 53.3341C338.988 53.6559 339.139 54.0723 339.139 54.5833C339.139 54.782 339.125 54.995 339.097 55.2221C339.078 55.4398 339.045 55.6621 338.997 55.8893L337.876 66.8906C337.828 67.1556 337.757 67.3496 337.663 67.4726C337.568 67.5957 337.436 67.6572 337.265 67.6572C337.086 67.6572 336.948 67.5957 336.854 67.4726C336.759 67.3496 336.688 67.1556 336.641 66.8906L335.519 55.8893C335.472 55.6527 335.434 55.4303 335.406 55.2221C335.387 55.0044 335.377 54.7915 335.377 54.5833C335.377 54.0723 335.529 53.6559 335.832 53.3341C336.144 53.0124 336.622 52.8515 337.265 52.8515ZM337.251 74.0309C336.873 74.0309 336.527 73.9362 336.215 73.747C335.912 73.5482 335.666 73.2927 335.477 72.9804C335.297 72.6587 335.207 72.3085 335.207 71.93C335.207 71.542 335.297 71.1918 335.477 70.8795C335.666 70.5578 335.912 70.307 336.215 70.1272C336.527 69.9379 336.873 69.8433 337.251 69.8433C337.639 69.8433 337.989 69.9379 338.302 70.1272C338.614 70.307 338.86 70.5578 339.04 70.8795C339.22 71.1918 339.309 71.542 339.309 71.93C339.309 72.3085 339.22 72.6587 339.04 72.9804C338.86 73.2927 338.614 73.5482 338.302 73.747C337.989 73.9362 337.639 74.0309 337.251 74.0309Z" fill="#C97B63"/>
<path d="M237.898 124.455H266.88V149.297H237.898V124.455Z" fill="#7A8F6A"/>
<path d="M222.878 138.971C223.149 137.582 224.366 136.58 225.78 136.58H278.933C280.359 136.58 281.582 137.597 281.841 138.999L285.456 158.518C285.793 160.336 284.397 162.014 282.548 162.014H221.97C220.11 162.014 218.711 160.316 219.068 158.49L222.878 138.971Z" fill="#7A8F6A"/>
<path d="M168.361 168.076H342.092C344.747 168.076 347.059 169.889 347.693 172.467L357.502 212.391C358.395 216.025 355.644 219.534 351.902 219.534H161.516C157.942 219.534 155.228 216.315 155.832 212.792L162.676 172.869C163.151 170.1 165.552 168.076 168.361 168.076Z" fill="#7A8F6A" stroke="#3F6A45" stroke-width="0.295735"/>
<path d="M171.738 173.99H307.69C310.464 173.99 312.845 175.965 313.358 178.691L318.647 206.785C319.316 210.336 316.593 213.619 312.98 213.619H166.855C163.276 213.619 160.561 210.392 161.174 206.865L166.057 178.77C166.537 176.008 168.935 173.991 171.738 173.99Z" fill="#EBFFEE" stroke="#3F6A45" stroke-width="0.295735"/>
<path d="M327.542 173.99H338.516C341.116 173.99 343.394 175.73 344.079 178.239L351.348 204.855C352.35 208.524 349.588 212.141 345.784 212.141H332.558C329.785 212.141 327.404 210.167 326.891 207.442L321.875 180.825C321.206 177.275 323.929 173.99 327.542 173.99Z" fill="#EBFFEE" stroke="#3F6A45" stroke-width="0.295735"/>
<defs>
<filter id="filter0_f_6_92" x="-4.29153e-05" y="118.448" width="514.116" height="165.516" filterUnits="userSpaceOnUse" color-interpolation-filters="sRGB">
<feFlood flood-opacity="0" result="BackgroundImageFix"/>
<feBlend mode="normal" in="SourceGraphic" in2="BackgroundImageFix" result="shape"/>
<feGaussianBlur stdDeviation="5.29873" result="effect1_foregroundBlur_6_92"/>
</filter>
</defs>
</svg>
