<svg width="50" height="50" viewBox="0 0 50 50" fill="none" xmlns="http://www.w3.org/2000/svg">
<path d="M12.5 6.25C10.8424 6.25 9.25269 6.90848 8.08058 8.08058C6.90848 9.25269 6.25 10.8424 6.25 12.5V37.5C6.25 39.1576 6.90848 40.7473 8.08058 41.9194C9.25269 43.0915 10.8424 43.75 12.5 43.75H37.5C39.1576 43.75 40.7473 43.0915 41.9194 41.9194C43.0915 40.7473 43.75 39.1576 43.75 37.5V12.5C43.75 10.8424 43.0915 9.25269 41.9194 8.08058C40.7473 6.90848 39.1576 6.25 37.5 6.25H12.5ZM27.7792 33.4479C29.2792 34.6562 30.7764 35.2521 32.2708 35.2354C33.1875 35.2354 33.8903 35.0674 34.3792 34.7312C34.6068 34.5835 34.792 34.379 34.9166 34.1379C35.0411 33.8968 35.1008 33.6274 35.0896 33.3562C35.0928 33.0605 35.031 32.7676 34.9086 32.4984C34.7862 32.2291 34.6062 31.99 34.3813 31.7979C33.8924 31.3715 32.9674 30.9438 31.6062 30.5146C29.9715 30.0424 28.7111 29.4312 27.825 28.6812C26.9556 27.9312 26.5125 26.8847 26.4958 25.5417C26.4958 24.2736 27.0458 23.2118 28.1458 22.3562C29.2153 21.5007 30.5833 21.0729 32.25 21.0729C34.5722 21.0729 36.4354 21.6382 37.8396 22.7687L36.2354 25.2667C35.6578 24.8176 34.9951 24.4901 34.2875 24.3042C33.6516 24.0911 32.9872 23.9752 32.3167 23.9604C31.525 23.9604 30.891 24.1056 30.4146 24.3958C29.9424 24.6875 29.7062 25.0694 29.7062 25.5417C29.7062 26.0611 29.9958 26.5042 30.575 26.8708C31.1583 27.2236 32.1514 27.6132 33.5542 28.0396C35.25 28.5437 36.4569 29.216 37.175 30.0562C37.8931 30.8965 38.2521 31.966 38.2521 33.2646C38.2521 34.5937 37.7403 35.7396 36.7167 36.7021C35.7083 37.6493 34.2417 38.1458 32.3167 38.1917C29.7958 38.1917 27.6875 37.4354 25.9917 35.9229L27.7792 33.4479ZM16.2583 34.7771C16.7472 35.0826 17.3354 35.2354 18.0229 35.2354C18.741 35.2354 19.3368 35.0292 19.8104 34.6167C20.2826 34.1889 20.5194 33.4479 20.5208 32.3937V21.3479H23.6146V32.9896C23.5687 34.7924 23.0493 36.091 22.0562 36.8854C21.5129 37.3448 20.8811 37.688 20.2 37.8937C19.5684 38.0861 18.9123 38.1864 18.2521 38.1917C17.1062 38.1917 16.0903 37.9931 15.2042 37.5958C14.2569 37.1694 13.4625 36.4132 12.8208 35.3271L14.975 33.5625C15.3708 34.0972 15.7986 34.5021 16.2583 34.7771Z" fill="#3F6A45"/>
</svg>
