<svg width="68" height="68" viewBox="0 0 68 68" fill="none" xmlns="http://www.w3.org/2000/svg">
<path fill-rule="evenodd" clip-rule="evenodd" d="M49.5935 44.9087C52.8605 32.7065 45.0939 20.0631 32.299 16.6345C17.9278 12.7816 -2.44172 22.7744 1.83224 34.8587C3.12218 38.5096 5.65153 39.3751 10.8652 39.4492L11.2289 39.456C14.9337 39.4997 16.1832 39.7927 16.8804 40.9244C17.6011 42.0964 17.6079 43.4706 17.0622 46.9463C16.8366 48.3676 16.7659 48.8627 16.6817 49.6205C16.1933 53.9989 16.9073 57.2793 19.6792 60.2633C28.382 69.6398 45.909 58.6501 49.5935 44.9087ZM5.00488 33.7371C1.94675 25.0814 19.2076 16.6143 31.4267 19.888C42.4635 22.8451 49.1153 33.6731 46.3401 44.0364C43.2281 55.6425 28.5336 64.8572 22.1479 57.9798C20.1473 55.8243 19.6387 53.4903 20.0261 49.9977C20.1069 49.3073 20.1743 48.8391 20.3898 47.4717C21.0634 43.1776 21.0533 41.2881 19.7499 39.1629C18.1838 36.6167 16.1832 36.152 11.2727 36.0913L10.9123 36.0846C7.00883 36.0307 5.65153 35.5659 5.00488 33.7371Z" fill="#7A8F6A"/>
<path d="M15.9979 31.9958C14.8814 31.9958 13.8106 31.5522 13.021 30.7627C12.2315 29.9732 11.788 28.9023 11.788 27.7858C11.788 26.6692 12.2315 25.5984 13.021 24.8089C13.8106 24.0194 14.8814 23.5758 15.9979 23.5758C17.1145 23.5758 18.1853 24.0194 18.9748 24.8089C19.7644 25.5984 20.2079 26.6692 20.2079 27.7858C20.2079 28.9023 19.7644 29.9732 18.9748 30.7627C18.1853 31.5522 17.1145 31.9958 15.9979 31.9958ZM29.4698 31.9958C28.3533 31.9958 27.2825 31.5522 26.4929 30.7627C25.7034 29.9732 25.2599 28.9023 25.2599 27.7858C25.2599 26.6692 25.7034 25.5984 26.4929 24.8089C27.2825 24.0194 28.3533 23.5758 29.4698 23.5758C30.5864 23.5758 31.6572 24.0194 32.4467 24.8089C33.2363 25.5984 33.6798 26.6692 33.6798 27.7858C33.6798 28.9023 33.2363 29.9732 32.4467 30.7627C31.6572 31.5522 30.5864 31.9958 29.4698 31.9958ZM37.8898 42.0997C36.7732 42.0997 35.7024 41.6562 34.9129 40.8666C34.1234 40.0771 33.6798 39.0063 33.6798 37.8897C33.6798 36.7732 34.1234 35.7024 34.9129 34.9128C35.7024 34.1233 36.7732 33.6798 37.8898 33.6798C39.0063 33.6798 40.0772 34.1233 40.8667 34.9128C41.6562 35.7024 42.0998 36.7732 42.0998 37.8897C42.0998 39.0063 41.6562 40.0771 40.8667 40.8666C40.0772 41.6562 39.0063 42.0997 37.8898 42.0997ZM32.8378 53.8876C31.7213 53.8876 30.6504 53.4441 29.8609 52.6546C29.0714 51.865 28.6279 50.7942 28.6279 49.6777C28.6279 48.5611 29.0714 47.4903 29.8609 46.7008C30.6504 45.9112 31.7213 45.4677 32.8378 45.4677C33.9544 45.4677 35.0252 45.9112 35.8147 46.7008C36.6042 47.4903 37.0478 48.5611 37.0478 49.6777C37.0478 50.7942 36.6042 51.865 35.8147 52.6546C35.0252 53.4441 33.9544 53.8876 32.8378 53.8876ZM45.0299 12.1415C45.4293 11.9276 45.8677 11.7964 46.3189 11.7558C46.7701 11.7153 47.2249 11.7662 47.656 11.9055C48.0871 12.0448 48.4857 12.2696 48.8278 12.5665C49.17 12.8635 49.4488 13.2264 49.6474 13.6336L63.4325 41.9246C63.6627 42.4331 63.6906 43.0102 63.5105 43.5385C63.3304 44.0669 62.9558 44.5068 62.463 44.7689C61.9702 45.0309 61.396 45.0955 60.8573 44.9494C60.3185 44.8033 59.8557 44.4576 59.5627 43.9824L43.7063 16.8028C43.4793 16.4116 43.3334 15.9786 43.2774 15.5298C43.2214 15.081 43.2563 14.6255 43.3802 14.1905C43.504 13.7554 43.7142 13.3498 43.9982 12.9978C44.2823 12.6458 44.6343 12.3546 45.0333 12.1415" fill="#7A8F6A"/>
<path fill-rule="evenodd" clip-rule="evenodd" d="M38.8597 11.7341C40.4966 14.8158 43.2549 15.678 45.9224 14.2601C48.5864 12.8455 49.4183 10.0737 47.7781 6.99199C45.9055 3.46235 41.8909 0.262769 39.2302 1.67395C36.5695 3.08513 36.9804 8.20446 38.8597 11.7341ZM41.8303 10.1512C41.2365 8.95263 40.871 7.65404 40.7525 6.32176C40.7033 5.76457 40.7237 5.20341 40.8131 4.65125L40.8738 4.68156C41.0422 4.76239 41.5642 5.00488 42.2311 5.53702C43.2482 6.34871 44.2586 7.54434 44.8042 8.57157C45.5755 10.0198 45.3565 10.7473 44.3394 11.2895C43.329 11.8284 42.6015 11.5994 41.8303 10.1545" fill="#7A8F6A"/>
</svg>
