<svg width="45" height="45" viewBox="0 0 45 45" fill="none" xmlns="http://www.w3.org/2000/svg">
<path d="M34.3415 5.69879H10.3546C9.12083 5.70223 7.9386 6.19386 7.0662 7.06626C6.1938 7.93866 5.70217 9.12089 5.69873 10.3546V34.3416C5.70217 35.5754 6.1938 36.7576 7.0662 37.63C7.9386 38.5024 9.12083 38.994 10.3546 38.9975H34.3415C35.5764 38.9975 36.7606 38.5069 37.6337 37.6338C38.5069 36.7606 38.9974 35.5764 38.9974 34.3416V10.3546C38.9974 9.11984 38.5069 7.9356 37.6337 7.06246C36.7606 6.18932 35.5764 5.69879 34.3415 5.69879ZM37.1351 34.3416C37.1302 35.081 36.8343 35.7887 36.3115 36.3115C35.7886 36.8344 35.0809 37.1302 34.3415 37.1351H10.3546C9.61521 37.1302 8.9075 36.8344 8.38467 36.3115C7.86184 35.7887 7.56595 35.081 7.56107 34.3416V10.3546C7.56595 9.61527 7.86184 8.90756 8.38467 8.38473C8.9075 7.8619 9.61521 7.56601 10.3546 7.56113H34.3415C35.0809 7.56601 35.7886 7.8619 36.3115 8.38473C36.8343 8.90756 37.1302 9.61527 37.1351 10.3546V34.3416Z" fill="white"/>
<path d="M11.874 20.0165C11.874 19.5225 12.0702 19.0488 12.4195 18.6996C12.7687 18.3503 13.2424 18.1541 13.7364 18.1541C14.2303 18.1541 14.704 18.3503 15.0532 18.6996C15.4025 19.0488 15.5987 19.5225 15.5987 20.0165V32.1217C15.5987 32.6156 15.4025 33.0893 15.0532 33.4385C14.704 33.7878 14.2303 33.984 13.7364 33.984C13.2424 33.984 12.7687 33.7878 12.4195 33.4385C12.0702 33.0893 11.874 32.6156 11.874 32.1217V20.0165Z" fill="white"/>
<path d="M13.7364 14.422C14.7649 14.422 15.5987 13.5882 15.5987 12.5597C15.5987 11.5311 14.7649 10.6973 13.7364 10.6973C12.7078 10.6973 11.874 11.5311 11.874 12.5597C11.874 13.5882 12.7078 14.422 13.7364 14.422Z" fill="white"/>
<path d="M32.8143 24.8995V32.1254C32.8143 32.6193 32.6181 33.093 32.2689 33.4423C31.9196 33.7915 31.4459 33.9877 30.952 33.9877C30.4581 33.9877 29.9844 33.7915 29.6351 33.4423C29.2859 33.093 29.0897 32.6193 29.0897 32.1254V24.8995C29.0897 24.1018 28.7728 23.3368 28.2087 22.7727C27.6447 22.2087 26.8797 21.8918 26.082 21.8918C25.2843 21.8918 24.5193 22.2087 23.9552 22.7727C23.3912 23.3368 23.0743 24.1018 23.0743 24.8995V32.1254C23.0743 32.6193 22.8781 33.093 22.5288 33.4423C22.1796 33.7915 21.7059 33.9877 21.212 33.9877C20.718 33.9877 20.2443 33.7915 19.8951 33.4423C19.5458 33.093 19.3496 32.6193 19.3496 32.1254V20.0202C19.3573 19.5286 19.556 19.0594 19.9036 18.7118C20.2512 18.3642 20.7204 18.1655 21.212 18.1578C21.5274 18.1492 21.8393 18.226 22.1147 18.38C22.39 18.5341 22.6187 18.7598 22.7763 19.0331C23.8004 18.4527 24.9588 18.1514 26.1359 18.1592C27.3129 18.167 28.4673 18.4837 29.4835 19.0776C30.4998 19.6715 31.3423 20.5218 31.9268 21.5435C32.5113 22.5652 32.8174 23.7224 32.8143 24.8995Z" fill="white"/>
</svg>
