<svg width="731" height="216" viewBox="0 0 731 216" fill="none" xmlns="http://www.w3.org/2000/svg">
<path d="M88.512 40.7449C88.512 45.1833 87.4725 49.2001 85.3935 52.7952C83.3587 56.346 80.4393 59.3197 76.6352 61.7165C72.8311 64.1133 68.2529 65.7999 62.9006 66.7763C61.839 66.9539 60.7331 67.1092 59.583 67.2424C58.4772 67.3755 57.3271 67.4865 56.1328 67.5752C54.9827 67.6196 53.7884 67.6418 52.5498 67.6418C48.4803 67.6418 45.1849 67.3977 42.6636 66.9095C40.1422 66.4212 38.0411 65.7555 36.3602 64.9122C34.6794 64.0245 33.0427 62.9815 31.4503 61.7831L32.2465 60.4515C33.5735 61.5611 34.8342 62.471 36.0285 63.1812C37.267 63.8469 38.5719 64.3352 39.9432 64.6459C41.3587 64.9566 42.9953 65.1119 44.8531 65.1119C49.365 65.1119 53.0143 63.4031 55.801 59.9855C58.5878 56.5235 59.9811 50.7757 59.9811 42.7422C59.9811 36.2177 58.9859 30.4033 56.9953 25.2991C55.0491 20.1949 52.4835 16.2003 49.2986 13.3153C46.1138 10.386 42.6857 8.92127 39.0143 8.92127H36.2275V95.2045C36.2275 96.2697 36.4708 97.0687 36.9574 97.6013C37.444 98.0895 38.2181 98.4446 39.2797 98.6665L42.9953 99.3323C43.3934 99.3766 43.6588 99.4432 43.7915 99.532C43.9685 99.6208 44.0569 99.7761 44.0569 99.998C44.0569 100.353 43.7915 100.531 43.2607 100.531H0.79621C0.530807 100.531 0.331754 100.486 0.199053 100.397C0.0663509 100.264 0 100.131 0 99.998C0 99.6873 0.353871 99.4654 1.06161 99.3323L4.77726 98.6665C5.83887 98.4446 6.61296 98.0895 7.09954 97.6013C7.58611 97.0687 7.82939 96.2697 7.82939 95.2045V11.1849C7.82939 10.6523 7.56399 10.2306 7.03319 9.91991C6.54661 9.60922 5.79464 9.36511 4.77726 9.18757L1.06161 8.5218C0.353871 8.38865 0 8.16673 0 7.85604C0 7.72288 0.0663509 7.61192 0.199053 7.52316C0.331754 7.39 0.530807 7.32342 0.79621 7.32342H38.8816C49.0111 7.32342 57.7916 8.69934 65.2228 11.4512C72.6541 14.1586 78.3824 18.0201 82.4077 23.0355C86.4772 28.0066 88.512 33.9097 88.512 40.7449ZM42.9953 66.044L69.2702 63.1146L87.8485 95.7371C88.4235 96.7136 89.0207 97.4903 89.64 98.0673C90.2592 98.5999 91.0333 99.0216 91.9622 99.3323C92.3603 99.4654 92.6257 99.5542 92.7584 99.5986C92.9354 99.643 93.0238 99.7761 93.0238 99.998C93.0238 100.131 92.9575 100.264 92.8248 100.397C92.6921 100.486 92.493 100.531 92.2276 100.531H54.0096C53.4787 100.531 53.2133 100.353 53.2133 99.998C53.2133 99.7761 53.3018 99.6651 53.4787 99.6651C53.6557 99.6208 53.9211 99.5098 54.275 99.3323L55.8674 98.6665C57.0617 98.1783 57.88 97.6457 58.3224 97.0687C58.8089 96.4473 58.6099 95.3377 57.7252 93.7398L42.9953 66.044Z" fill="#7A8F6A"/>
<path d="M191.204 99.998C193.593 99.998 195.451 99.421 196.778 98.267C198.105 97.0687 198.768 95.5152 198.768 93.6067C198.768 92.142 198.414 90.8105 197.707 89.6121C197.043 88.3693 195.849 87.2153 194.124 86.1501C192.399 85.0405 190.01 83.9753 186.958 82.9544C181.119 80.9571 176.563 78.7823 173.29 76.4299C170.016 74.0775 167.716 71.4589 166.389 68.5739C165.062 65.6889 164.399 62.4488 164.399 58.8537C164.399 52.5955 166.5 47.8242 170.702 44.5397C174.904 41.2109 180.544 39.5465 187.621 39.5465C190.408 39.5465 192.686 39.8128 194.456 40.3454C196.269 40.8336 197.64 41.3441 198.569 41.8767C199.542 42.3649 200.184 42.609 200.493 42.609C201.024 42.609 202.042 42.3649 203.546 41.8767C205.05 41.3441 206.531 40.8336 207.991 40.3454C209.495 39.8128 210.49 39.5465 210.977 39.5465C211.198 39.5465 211.419 39.6131 211.64 39.7462C211.862 39.835 211.994 40.0791 212.039 40.4786L214.825 61.6499C214.914 62.0938 214.914 62.4488 214.825 62.7151C214.781 62.9815 214.693 63.159 214.56 63.2478C214.427 63.2921 214.294 63.2921 214.162 63.2478C214.029 63.159 213.896 63.0258 213.764 62.8483C210.402 57.2559 207.35 52.884 204.607 49.7327C201.909 46.5814 199.277 44.3622 196.711 43.0751C194.19 41.7879 191.514 41.1443 188.683 41.1443C186.162 41.1443 184.26 41.7879 182.977 43.0751C181.738 44.3622 181.119 46.071 181.119 48.2014C181.119 49.8437 181.517 51.3527 182.313 52.7287C183.11 54.0602 184.525 55.3029 186.56 56.4569C188.639 57.6109 191.602 58.7205 195.451 59.7858C200.538 61.2505 204.563 63.0924 207.527 65.3116C210.535 67.4865 212.68 69.972 213.963 72.7682C215.245 75.52 215.887 78.516 215.887 81.756C215.887 85.9282 214.847 89.5233 212.768 92.5415C210.734 95.5152 208.013 97.8232 204.607 99.4654C201.201 101.063 197.441 101.862 193.328 101.862C190.851 101.862 188.705 101.551 186.892 100.93C185.078 100.309 183.618 99.6873 182.512 99.066C181.451 98.4446 180.809 98.1339 180.588 98.1339C180.234 98.1339 179.35 98.4224 177.934 98.9994C176.563 99.532 175.147 100.065 173.688 100.597C172.228 101.174 171.255 101.463 170.768 101.463C170.459 101.463 170.149 101.307 169.839 100.997C169.574 100.73 169.397 100.264 169.309 99.5986L167.053 82.1555C167.008 81.5341 167.008 81.1125 167.053 80.8905C167.141 80.6242 167.274 80.4245 167.451 80.2914C167.539 80.2026 167.65 80.2248 167.783 80.3579C167.915 80.4467 168.07 80.6021 168.247 80.824C172.582 87.6148 176.563 92.5193 180.19 95.5374C183.817 98.5112 187.489 99.998 191.204 99.998Z" fill="#7A8F6A"/>
<path d="M279.968 67.5087C279.968 67.9525 279.813 68.3298 279.504 68.6405C279.238 68.9511 278.774 69.1065 278.11 69.1065H236.575V67.5087H255.02C255.817 67.5087 256.215 67.0204 256.215 66.044C256.215 57.1227 255.396 50.7314 253.76 46.8699C252.167 42.9641 250.508 41.0112 248.783 41.0112C247.589 41.0112 246.483 41.6548 245.466 42.9419C244.448 44.1847 243.608 46.3595 242.944 49.4664C242.325 52.5733 242.016 56.8564 242.016 62.3157C242.016 71.5032 243.851 78.2053 247.523 82.4218C251.194 86.5939 256.082 88.68 262.186 88.68C267.096 88.68 271.077 87.4594 274.129 85.0183C277.226 82.5328 278.774 79.2261 278.774 75.0984C278.774 74.8765 278.818 74.7433 278.907 74.6989C279.039 74.6102 279.128 74.5658 279.172 74.5658C279.305 74.5658 279.415 74.6102 279.504 74.6989C279.636 74.7877 279.703 74.9652 279.703 75.2315C279.703 80.2914 278.42 84.8408 275.854 88.8797C273.333 92.8743 269.883 96.0478 265.504 98.4002C261.125 100.708 256.17 101.862 250.641 101.862C244.625 101.862 239.295 100.575 234.651 98.0007C230.006 95.4264 226.357 91.8535 223.703 87.2819C221.049 82.7103 219.722 77.4508 219.722 71.5032C219.722 64.8456 221.027 59.1422 223.636 54.3931C226.246 49.5996 229.94 45.9378 234.717 43.4079C239.538 40.8336 245.2 39.5465 251.703 39.5465C257.497 39.5465 262.496 40.7671 266.698 43.2082C270.945 45.6493 274.218 48.9782 276.518 53.1947C278.818 57.4112 279.968 62.1825 279.968 67.5087Z" fill="#7A8F6A"/>
<path d="M312.419 40.2123V96.2697C312.419 96.9799 312.53 97.5569 312.751 98.0007C313.016 98.4002 313.436 98.6665 314.011 98.7997L316.533 99.3988C317.064 99.532 317.329 99.7317 317.329 99.998C317.329 100.353 317.108 100.531 316.665 100.531H284.154C283.977 100.531 283.822 100.486 283.689 100.397C283.556 100.309 283.49 100.176 283.49 99.998C283.49 99.8649 283.534 99.7539 283.623 99.6651C283.755 99.532 283.977 99.4432 284.286 99.3988L286.808 98.7997C287.427 98.6665 287.847 98.4002 288.068 98.0007C288.289 97.5569 288.4 96.9799 288.4 96.2697V48.8672C288.4 48.5121 288.312 48.2458 288.135 48.0683C287.958 47.8908 287.67 47.802 287.272 47.802H284.684C284.375 47.802 284.154 47.7576 284.021 47.6688C283.932 47.5357 283.888 47.3803 283.888 47.2028C283.888 47.0253 283.954 46.8921 284.087 46.8033C284.22 46.7146 284.375 46.648 284.552 46.6036L309.699 39.6131C310.229 39.4799 310.583 39.3911 310.76 39.3468C310.981 39.3024 311.225 39.2802 311.49 39.2802C311.8 39.2802 312.021 39.369 312.154 39.5465C312.33 39.724 312.419 39.946 312.419 40.2123ZM310.428 55.3251L309.5 54.3265L312.154 51.9963C316.798 47.9129 320.956 44.8282 324.628 42.7422C328.299 40.6117 331.572 39.5465 334.447 39.5465C338.384 39.5465 341.436 40.6783 343.604 42.9419C345.816 45.1611 347.187 48.7784 347.718 53.7939L352.229 96.2697C352.318 96.9799 352.451 97.5569 352.628 98.0007C352.849 98.4002 353.247 98.6665 353.822 98.7997L356.343 99.3988C356.653 99.4432 356.852 99.532 356.94 99.6651C357.073 99.7539 357.139 99.8649 357.139 99.998C357.139 100.176 357.073 100.309 356.94 100.397C356.852 100.486 356.697 100.531 356.476 100.531H323.367C322.925 100.531 322.703 100.353 322.703 99.998C322.703 99.7317 322.969 99.532 323.5 99.3988L326.021 98.7997C326.64 98.6665 327.083 98.4002 327.348 98.0007C327.613 97.5569 327.702 96.9799 327.613 96.2697L324.097 56.3238C323.92 54.149 323.477 52.5733 322.77 51.5969C322.062 50.576 320.912 50.0656 319.319 50.0656C318.214 50.0656 317.13 50.3541 316.068 50.9311C315.051 51.4637 314.011 52.196 312.95 53.1281L310.428 55.3251Z" fill="#7A8F6A"/>
<path d="M358.669 100.531C358.492 100.531 358.337 100.486 358.204 100.397C358.071 100.309 358.005 100.176 358.005 99.998C358.005 99.8649 358.049 99.7539 358.138 99.6651C358.27 99.532 358.492 99.4432 358.801 99.3988L361.323 98.7997C361.942 98.6665 362.362 98.4002 362.583 98.0007C362.804 97.5569 362.915 96.9799 362.915 96.2697V9.58703C362.915 9.23196 362.827 8.96565 362.65 8.78811C362.473 8.61057 362.185 8.5218 361.787 8.5218H359.199C358.89 8.5218 358.669 8.47742 358.536 8.38865C358.447 8.2555 358.403 8.10015 358.403 7.92262C358.403 7.74508 358.47 7.61192 358.602 7.52316C358.735 7.43439 358.89 7.36781 359.067 7.32342L384.214 0.332883C384.744 0.199734 385.098 0.110966 385.275 0.0665797C385.496 0.0221932 385.74 0 386.005 0C386.315 0 386.536 0.0887703 386.669 0.266311C386.846 0.443846 386.934 0.665768 386.934 0.932076V96.2697C386.934 96.9799 387.045 97.5569 387.266 98.0007C387.531 98.4002 387.951 98.6665 388.526 98.7997L391.048 99.3988C391.579 99.532 391.844 99.7317 391.844 99.998C391.844 100.353 391.623 100.531 391.18 100.531H358.669ZM383.484 77.9612L407.835 53.5941C410.179 51.2862 410.931 49.0669 410.09 46.9365C409.294 44.7617 407.348 43.3192 404.252 42.609L401.73 42.0098C401.421 41.9211 401.199 41.8323 401.067 41.7435C400.978 41.6104 400.934 41.4994 400.934 41.4106C400.934 41.1887 401 41.0556 401.133 41.0112C401.266 40.9224 401.421 40.878 401.598 40.878H430.659C430.88 40.878 431.035 40.9224 431.124 41.0112C431.256 41.0556 431.323 41.1887 431.323 41.4106C431.323 41.5438 431.256 41.6548 431.124 41.7435C431.035 41.8323 430.836 41.9211 430.526 42.0098C426.369 42.9863 422.564 44.4732 419.114 46.4705C415.664 48.4234 412.391 50.9533 409.294 54.0602L384.545 79.093L383.484 77.9612ZM406.375 55.8578L429.664 96.7358C430.062 97.4459 430.46 97.9785 430.858 98.3336C431.301 98.6887 431.809 99.0438 432.384 99.3988C432.738 99.5764 432.959 99.7095 433.048 99.7983C433.136 99.8871 433.181 99.998 433.181 100.131C433.181 100.264 433.114 100.375 432.981 100.464C432.893 100.508 432.738 100.531 432.517 100.531H396.356C396.179 100.531 396.024 100.486 395.891 100.397C395.759 100.309 395.692 100.176 395.692 99.998C395.692 99.8649 395.737 99.7539 395.825 99.6651C395.958 99.532 396.179 99.4432 396.489 99.3988L399.01 98.7997C399.983 98.5777 400.58 98.2892 400.801 97.9342C401.067 97.5347 401.023 96.9799 400.669 96.2697L389.057 73.6337L406.375 55.8578Z" fill="#7A8F6A"/>
<path d="M461.168 64.5793C461.168 59.0756 462.031 54.4818 463.756 50.7979C465.525 47.0696 467.781 44.2734 470.524 42.4093C473.266 40.5008 476.119 39.5465 479.083 39.5465C482.71 39.5465 485.475 40.7449 487.377 43.1416C489.279 45.5384 490.23 49.1779 490.23 54.0602C490.23 58.8537 489.102 62.4044 486.846 64.7124C484.59 67.0204 481.759 68.1744 478.353 68.1744C475.212 68.1744 472.934 67.3311 471.519 65.6445C470.103 63.9135 469.307 61.428 469.13 58.1879L468.998 55.658C468.953 54.6816 468.754 53.8826 468.4 53.2613C468.047 52.6399 467.405 52.3292 466.476 52.3292C465.636 52.3292 464.884 52.773 464.22 53.6607C463.601 54.5484 463.114 55.9465 462.761 57.8551C462.407 59.7636 462.23 62.2269 462.23 65.2451L461.168 64.5793ZM462.23 41.0112V95.604C462.23 96.181 462.385 96.7136 462.694 97.2018C463.004 97.69 463.424 98.0007 463.955 98.1339L470.457 99.4654C470.723 99.5098 470.9 99.5764 470.988 99.6651C471.077 99.7539 471.121 99.8649 471.121 99.998C471.121 100.176 471.054 100.309 470.922 100.397C470.789 100.486 470.59 100.531 470.325 100.531H434.097C433.832 100.531 433.633 100.486 433.5 100.397C433.367 100.264 433.301 100.131 433.301 99.998C433.301 99.8649 433.389 99.7317 433.566 99.5986C433.743 99.4654 433.964 99.3766 434.23 99.3323L436.618 98.7997C437.238 98.6665 437.658 98.4224 437.879 98.0673C438.1 97.6678 438.211 97.2018 438.211 96.6692V48.4678C438.211 48.0683 438.122 47.7576 437.945 47.5357C437.813 47.2694 437.547 47.1362 437.149 47.1362H434.23C434.053 47.1362 433.898 47.0918 433.765 47.0031C433.633 46.8699 433.566 46.7368 433.566 46.6036C433.566 46.4705 433.633 46.3373 433.765 46.2042C433.898 46.071 434.097 45.9822 434.362 45.9378L459.576 40.2123C459.974 40.1235 460.284 40.0569 460.505 40.0125C460.77 39.9681 461.035 39.946 461.301 39.946C461.655 39.946 461.898 40.0569 462.031 40.2788C462.163 40.5008 462.23 40.7449 462.23 41.0112Z" fill="#7A8F6A"/>
<path d="M527.02 94.339V93.4069L525.826 94.5387V45.9378C525.826 44.34 525.406 43.0751 524.565 42.143C523.769 41.2109 522.774 40.7449 521.58 40.7449C520.076 40.7449 518.881 41.2109 517.997 42.143C517.112 43.0751 516.67 44.34 516.67 45.9378V52.995C516.67 55.9687 515.542 58.5874 513.286 60.851C511.03 63.0702 508.088 64.1798 504.461 64.1798C502.028 64.1798 500.016 63.4919 498.423 62.116C496.875 60.74 496.101 58.6318 496.101 55.7912C496.101 53.35 497.162 50.8867 499.286 48.4012C501.409 45.8713 504.572 43.763 508.774 42.0764C513.02 40.3898 518.284 39.5465 524.565 39.5465C533.058 39.5465 539.406 41.1887 543.608 44.4732C547.854 47.7576 549.978 52.5067 549.978 58.7206V91.6094C549.978 92.6746 550.199 93.4735 550.641 94.0061C551.128 94.5387 551.703 94.8051 552.366 94.8051C553.03 94.8051 553.671 94.5609 554.29 94.0727C554.954 93.5401 555.374 92.5858 555.551 91.2099C555.595 90.988 555.64 90.8548 555.684 90.8105C555.772 90.7217 555.861 90.6773 555.949 90.6773C556.082 90.6773 556.17 90.7217 556.215 90.8105C556.303 90.8548 556.347 90.988 556.347 91.2099C556.347 92.2308 555.817 93.5845 554.755 95.2711C553.738 96.9577 552.012 98.489 549.58 99.8649C547.191 101.196 543.918 101.862 539.76 101.862C535.159 101.862 531.886 101.13 529.94 99.6651C527.994 98.1561 527.02 96.3807 527.02 94.339ZM492.385 87.2153C492.385 81.8448 494.597 77.6505 499.02 74.6323C503.488 71.5698 510.963 70.0386 521.447 70.0386C523.437 70.0386 524.986 70.2605 526.091 70.7043C527.241 71.1038 528.303 71.6808 529.276 72.4353L528.613 72.9679C527.551 72.3466 526.556 71.9249 525.627 71.703C524.698 71.4811 523.614 71.3701 522.376 71.3701C520.429 71.3701 518.881 72.3909 517.731 74.4326C516.581 76.4743 516.006 79.6256 516.006 83.8865C516.006 87.8811 516.603 90.7661 517.798 92.5415C518.992 94.3168 520.518 95.2045 522.376 95.2045C523.393 95.2045 524.433 94.8494 525.494 94.1393C526.556 93.3848 527.396 92.4527 528.016 91.3431L528.945 91.8757C527.175 95.1157 524.565 97.6013 521.115 99.3323C517.709 101.019 514.016 101.862 510.035 101.862C504.948 101.862 500.723 100.486 497.361 97.7344C494.044 94.9826 492.385 91.4762 492.385 87.2153Z" fill="#7A8F6A"/>
<path d="M587.93 40.2123V96.2697C587.93 96.9799 588.041 97.5569 588.262 98.0007C588.527 98.4002 588.948 98.6665 589.523 98.7997L592.044 99.3988C592.575 99.532 592.84 99.7317 592.84 99.998C592.84 100.353 592.619 100.531 592.177 100.531H559.665C559.488 100.531 559.333 100.486 559.2 100.397C559.068 100.309 559.001 100.176 559.001 99.998C559.001 99.8649 559.046 99.7539 559.134 99.6651C559.267 99.532 559.488 99.4432 559.798 99.3988L562.319 98.7997C562.938 98.6665 563.358 98.4002 563.58 98.0007C563.801 97.5569 563.911 96.9799 563.911 96.2697V48.8672C563.911 48.5121 563.823 48.2458 563.646 48.0683C563.469 47.8908 563.182 47.802 562.783 47.802H560.196C559.886 47.802 559.665 47.7576 559.532 47.6688C559.444 47.5357 559.399 47.3803 559.399 47.2028C559.399 47.0253 559.466 46.8921 559.599 46.8033C559.731 46.7146 559.886 46.648 560.063 46.6036L585.21 39.6131C585.741 39.4799 586.095 39.3911 586.272 39.3468C586.493 39.3024 586.736 39.2802 587.001 39.2802C587.311 39.2802 587.532 39.369 587.665 39.5465C587.842 39.724 587.93 39.946 587.93 40.2123ZM585.94 55.3251L585.011 54.3265L587.665 51.9963C592.31 47.9129 596.468 44.8282 600.139 42.7422C603.81 40.6117 607.084 39.5465 609.959 39.5465C613.896 39.5465 616.948 40.6783 619.115 42.9419C621.327 45.1611 622.698 48.7784 623.229 53.7939L627.741 96.2697C627.829 96.9799 627.962 97.5569 628.139 98.0007C628.36 98.4002 628.758 98.6665 629.333 98.7997L631.855 99.3988C632.164 99.4432 632.363 99.532 632.452 99.6651C632.584 99.7539 632.651 99.8649 632.651 99.998C632.651 100.176 632.584 100.309 632.452 100.397C632.363 100.486 632.208 100.531 631.987 100.531H598.878C598.436 100.531 598.215 100.353 598.215 99.998C598.215 99.7317 598.48 99.532 599.011 99.3988L601.532 98.7997C602.152 98.6665 602.594 98.4002 602.859 98.0007C603.125 97.5569 603.213 96.9799 603.125 96.2697L599.608 56.3238C599.431 54.149 598.989 52.5733 598.281 51.5969C597.573 50.576 596.423 50.0656 594.831 50.0656C593.725 50.0656 592.641 50.3541 591.58 50.9311C590.562 51.4637 589.523 52.196 588.461 53.1281L585.94 55.3251Z" fill="#7A8F6A"/>
<path d="M637.099 43.4079L632.189 42.0764C631.88 41.9876 631.681 41.8989 631.592 41.8101C631.46 41.6769 631.393 41.5438 631.393 41.4106C631.393 41.2775 631.46 41.1665 631.592 41.0778C631.681 40.9446 631.791 40.878 631.924 40.878H637.232C637.365 40.878 637.498 40.8558 637.63 40.8114C637.807 40.7671 638.028 40.6561 638.294 40.4786L657.668 26.7638C658.022 26.4975 658.398 26.2756 658.796 26.098C659.194 25.9205 659.526 25.8317 659.791 25.8317C660.145 25.8317 660.433 25.9649 660.654 26.2312C660.875 26.4531 660.986 26.8082 660.986 27.2964V81.2234C660.986 85.1736 661.693 88.1252 663.109 90.0781C664.524 91.9866 666.427 92.9409 668.815 92.9409C669.611 92.9409 670.363 92.8078 671.071 92.5415C671.823 92.2751 672.509 91.8313 673.128 91.2099C673.747 90.5885 674.3 89.7452 674.787 88.68C675.273 87.6148 675.671 86.2833 675.981 84.6854C676.07 84.3303 676.246 84.1528 676.512 84.1528C676.777 84.1528 676.866 84.3303 676.777 84.6854C676.114 88.5469 675.03 91.7425 673.526 94.2724C672.066 96.8024 670.054 98.7109 667.488 99.998C664.967 101.241 661.782 101.862 657.934 101.862C651.387 101.862 646.411 100.353 643.005 97.335C639.599 94.3168 637.896 89.6565 637.896 83.3539V44.6063C637.896 44.2069 637.851 43.9184 637.763 43.7408C637.674 43.5633 637.453 43.4523 637.099 43.4079ZM654.085 42.609L654.881 40.878H676.512C676.733 40.878 676.888 40.9224 676.976 41.0112C677.109 41.0556 677.175 41.1887 677.175 41.4106C677.175 41.7213 676.998 42.0098 676.645 42.2761C676.291 42.4981 675.804 42.609 675.185 42.609H654.085Z" fill="#7A8F6A"/>
<path d="M706.071 99.998C708.46 99.998 710.318 99.421 711.645 98.267C712.972 97.0687 713.635 95.5152 713.635 93.6067C713.635 92.142 713.281 90.8105 712.573 89.6121C711.91 88.3693 710.716 87.2153 708.991 86.1501C707.265 85.0405 704.877 83.9753 701.825 82.9544C695.986 80.9571 691.43 78.7823 688.156 76.4299C684.883 74.0775 682.583 71.4589 681.256 68.5739C679.929 65.6889 679.265 62.4488 679.265 58.8537C679.265 52.5955 681.367 47.8242 685.569 44.5397C689.771 41.2109 695.411 39.5465 702.488 39.5465C705.275 39.5465 707.553 39.8128 709.322 40.3454C711.136 40.8336 712.507 41.3441 713.436 41.8767C714.409 42.3649 715.051 42.609 715.36 42.609C715.891 42.609 716.908 42.3649 718.412 41.8767C719.916 41.3441 721.398 40.8336 722.858 40.3454C724.362 39.8128 725.357 39.5465 725.844 39.5465C726.065 39.5465 726.286 39.6131 726.507 39.7462C726.728 39.835 726.861 40.0791 726.905 40.4786L729.692 61.6499C729.78 62.0938 729.78 62.4488 729.692 62.7151C729.648 62.9815 729.559 63.159 729.427 63.2478C729.294 63.2921 729.161 63.2921 729.029 63.2478C728.896 63.159 728.763 63.0258 728.63 62.8483C725.269 57.2559 722.216 52.884 719.474 49.7327C716.776 46.5814 714.144 44.3622 711.578 43.0751C709.057 41.7879 706.381 41.1443 703.55 41.1443C701.028 41.1443 699.126 41.7879 697.844 43.0751C696.605 44.3622 695.986 46.071 695.986 48.2014C695.986 49.8437 696.384 51.3527 697.18 52.7287C697.976 54.0602 699.392 55.3029 701.426 56.4569C703.505 57.6109 706.469 58.7205 710.318 59.7858C715.404 61.2505 719.43 63.0924 722.393 65.3116C725.401 67.4865 727.547 69.972 728.829 72.7682C730.112 75.52 730.754 78.516 730.754 81.756C730.754 85.9282 729.714 89.5233 727.635 92.5415C725.6 95.5152 722.88 97.8232 719.474 99.4654C716.068 101.063 712.308 101.862 708.194 101.862C705.717 101.862 703.572 101.551 701.758 100.93C699.945 100.309 698.485 99.6873 697.379 99.066C696.318 98.4446 695.676 98.1339 695.455 98.1339C695.101 98.1339 694.216 98.4224 692.801 98.9994C691.43 99.532 690.014 100.065 688.555 100.597C687.095 101.174 686.122 101.463 685.635 101.463C685.325 101.463 685.016 101.307 684.706 100.997C684.441 100.73 684.264 100.264 684.175 99.5986L681.919 82.1555C681.875 81.5341 681.875 81.1125 681.919 80.8905C682.008 80.6242 682.141 80.4245 682.318 80.2914C682.406 80.2026 682.517 80.2248 682.649 80.3579C682.782 80.4467 682.937 80.6021 683.114 80.824C687.449 87.6148 691.43 92.5193 695.057 95.5374C698.684 98.5112 702.355 99.998 706.071 99.998Z" fill="#7A8F6A"/>
<path d="M37.5702 210.382C33.8988 210.382 30.8467 209.827 28.4138 208.718C26.0252 207.564 24.1452 206.432 22.774 205.322C21.4027 204.168 20.4517 203.591 19.9209 203.591C19.4786 203.591 18.7487 203.968 17.7313 204.723C16.7582 205.433 15.6745 206.276 14.4801 207.253C13.3301 208.229 12.2242 209.073 11.1626 209.783C10.1452 210.537 9.34901 210.915 8.77397 210.915C8.46433 210.915 8.08835 210.759 7.64601 210.449C7.2479 210.138 7.00462 209.761 6.91615 209.317L2.537 176.295C2.49276 175.895 2.49276 175.607 2.537 175.429C2.58123 175.252 2.6697 175.141 2.8024 175.096C2.9351 175.008 3.08992 175.03 3.26685 175.163C3.44379 175.252 3.59861 175.407 3.73131 175.629C8.64127 184.772 12.9762 191.741 16.7361 196.534C20.4959 201.283 23.8577 204.523 26.8214 206.254C29.8293 207.941 32.616 208.784 35.1816 208.784C39.3838 208.784 42.7235 207.719 45.2006 205.588C47.7219 203.414 48.9826 199.996 48.9826 195.336C48.9826 192.229 48.4075 189.477 47.2574 187.08C46.1074 184.683 44.1832 182.553 41.4849 180.689C38.7867 178.825 35.1374 177.138 30.537 175.629C23.15 173.143 17.2226 170.325 12.755 167.174C8.2874 163.978 5.03621 160.405 3.00145 156.455C1.01093 152.505 0.0156648 148.066 0.0156648 143.14C0.0156648 137.503 1.4975 132.532 4.46117 128.226C7.42484 123.921 11.5607 120.57 16.8688 118.173C22.1768 115.732 28.3696 114.512 35.447 114.512C38.5434 114.512 41.1532 114.867 43.2764 115.577C45.3996 116.243 47.1247 116.931 48.4518 117.641C49.823 118.307 50.8846 118.639 51.6366 118.639C52.477 118.639 53.7377 118.262 55.4186 117.508C57.1437 116.709 58.8246 115.932 60.4613 115.177C62.1421 114.379 63.3586 113.979 64.1105 113.979C64.3759 113.979 64.6413 114.09 64.9068 114.312C65.1722 114.49 65.3491 114.778 65.4376 115.177L72.8689 146.735C72.9573 147.134 72.9573 147.423 72.8689 147.6C72.8246 147.733 72.7361 147.844 72.6035 147.933C72.4707 147.978 72.3159 147.955 72.139 147.867C71.9621 147.733 71.8072 147.578 71.6745 147.401C66.278 138.834 61.5671 132.31 57.5418 127.827C53.5608 123.3 49.9557 120.215 46.7266 118.573C43.4976 116.931 40.357 116.11 37.3048 116.11C33.7219 116.11 30.7803 117.397 28.4802 119.971C26.2242 122.545 25.0963 125.963 25.0963 130.224C25.0963 133.419 25.6271 136.26 26.6887 138.746C27.7503 141.187 29.5197 143.362 31.9968 145.27C34.4738 147.179 37.8356 148.865 42.0821 150.33C49.823 152.993 55.9494 155.856 60.4613 158.918C64.9731 161.981 68.1801 165.376 70.0821 169.105C72.0284 172.833 73.0016 177.049 73.0016 181.754C73.0016 187.08 71.5861 191.918 68.7551 196.268C65.9684 200.573 61.921 204.013 56.6129 206.587C51.3491 209.117 45.0015 210.382 37.5702 210.382Z" fill="#7A8F6A"/>
<path d="M80.9336 151.928L76.0236 150.596C75.714 150.507 75.5149 150.419 75.4265 150.33C75.2938 150.197 75.2274 150.064 75.2274 149.93C75.2274 149.797 75.2938 149.686 75.4265 149.598C75.5149 149.464 75.6255 149.398 75.7582 149.398H81.0663C81.199 149.398 81.3317 149.376 81.4644 149.331C81.6413 149.287 81.8625 149.176 82.1279 148.998L101.502 135.284C101.856 135.017 102.232 134.795 102.63 134.618C103.028 134.44 103.36 134.352 103.626 134.352C103.979 134.352 104.267 134.485 104.488 134.751C104.709 134.973 104.82 135.328 104.82 135.816V189.743C104.82 193.693 105.528 196.645 106.943 198.598C108.359 200.506 110.261 201.461 112.649 201.461C113.445 201.461 114.197 201.328 114.905 201.061C115.657 200.795 116.343 200.351 116.962 199.73C117.581 199.108 118.134 198.265 118.621 197.2C119.107 196.135 119.506 194.803 119.815 193.205C119.904 192.85 120.081 192.673 120.346 192.673C120.611 192.673 120.7 192.85 120.611 193.205C119.948 197.067 118.864 200.262 117.36 202.792C115.9 205.322 113.888 207.231 111.322 208.518C108.801 209.761 105.616 210.382 101.768 210.382C95.2211 210.382 90.2448 208.873 86.8388 205.855C83.4328 202.837 81.7298 198.176 81.7298 191.874V153.126C81.7298 152.727 81.6856 152.438 81.5971 152.261C81.5086 152.083 81.2875 151.972 80.9336 151.928ZM97.9194 151.129L98.7156 149.398H120.346C120.567 149.398 120.722 149.442 120.81 149.531C120.943 149.575 121.009 149.709 121.009 149.93C121.009 150.241 120.833 150.53 120.479 150.796C120.125 151.018 119.638 151.129 119.019 151.129H97.9194Z" fill="#7A8F6A"/>
<path d="M165.365 207.586V157.653C165.365 157.298 165.277 157.032 165.1 156.854C164.923 156.677 164.635 156.588 164.237 156.588H161.649C161.34 156.588 161.119 156.544 160.986 156.455C160.897 156.322 160.853 156.166 160.853 155.989C160.853 155.811 160.919 155.678 161.052 155.589C161.185 155.501 161.34 155.434 161.517 155.39L186.664 148.399C187.15 148.266 187.504 148.177 187.725 148.133C187.946 148.089 188.19 148.066 188.455 148.066C188.765 148.066 188.986 148.155 189.119 148.333C189.295 148.51 189.384 148.732 189.384 148.998V204.79C189.384 205.5 189.495 206.077 189.716 206.521C189.981 206.92 190.401 207.186 190.976 207.319L193.498 207.919C193.807 207.963 194.006 208.052 194.095 208.185C194.228 208.274 194.294 208.385 194.294 208.518C194.294 208.695 194.228 208.829 194.095 208.917C194.006 209.006 193.852 209.05 193.63 209.05H166.957C166.427 209.05 166.028 208.917 165.763 208.651C165.498 208.385 165.365 208.03 165.365 207.586ZM127.213 194.537V157.653C127.213 157.298 127.125 157.032 126.948 156.854C126.771 156.677 126.483 156.588 126.085 156.588H123.498C123.188 156.588 122.967 156.544 122.834 156.455C122.746 156.322 122.701 156.166 122.701 155.989C122.701 155.811 122.768 155.678 122.9 155.589C123.033 155.501 123.188 155.434 123.365 155.39L148.512 148.399C149.043 148.266 149.397 148.177 149.573 148.133C149.795 148.089 150.038 148.066 150.303 148.066C150.613 148.066 150.834 148.155 150.967 148.333C151.144 148.51 151.232 148.732 151.232 148.998V192.007C151.232 194.714 151.741 196.712 152.758 197.999C153.82 199.242 155.39 199.863 157.469 199.863C158.796 199.863 160.123 199.597 161.45 199.064C162.822 198.531 164.06 197.777 165.166 196.8L167.687 194.603L168.616 195.602L165.962 197.932C161.008 202.237 156.43 205.389 152.228 207.386C148.07 209.383 144.354 210.382 141.081 210.382C136.967 210.382 133.627 209.139 131.062 206.654C128.496 204.168 127.213 200.129 127.213 194.537Z" fill="#7A8F6A"/>
<path d="M239.343 118.107C239.343 117.752 239.255 117.485 239.078 117.308C238.901 117.13 238.613 117.042 238.215 117.042H235.627C235.318 117.042 235.097 116.997 234.964 116.908C234.875 116.775 234.831 116.62 234.831 116.442C234.831 116.265 234.898 116.132 235.03 116.043C235.163 115.954 235.318 115.888 235.495 115.843L260.642 108.853C261.172 108.72 261.526 108.631 261.703 108.586C261.924 108.542 262.168 108.52 262.433 108.52C262.743 108.52 262.964 108.609 263.097 108.786C263.274 108.964 263.362 109.186 263.362 109.452V204.79C263.362 205.5 263.473 206.077 263.694 206.521C263.959 206.92 264.379 207.186 264.954 207.319L267.476 207.919C267.785 207.963 267.984 208.052 268.073 208.185C268.206 208.274 268.272 208.385 268.272 208.518C268.272 208.695 268.206 208.829 268.073 208.917C267.984 209.006 267.83 209.05 267.608 209.05H240.935C240.405 209.05 240.007 208.917 239.741 208.651C239.476 208.385 239.343 208.03 239.343 207.586V118.107ZM198.338 181.288C198.338 174.586 199.555 168.749 201.988 163.778C204.465 158.807 207.871 154.946 212.206 152.194C216.54 149.442 221.517 148.066 227.134 148.066C231.204 148.066 234.389 148.688 236.689 149.93C238.989 151.129 240.847 153.082 242.262 155.789L240.537 156.588C239.83 154.724 238.879 153.348 237.684 152.46C236.534 151.573 235.097 151.129 233.371 151.129C231.248 151.129 229.39 151.906 227.798 153.459C226.206 154.968 224.967 157.764 224.082 161.848C223.198 165.887 222.755 171.701 222.755 179.291C222.755 185.904 223.109 191.141 223.817 195.003C224.525 198.864 225.52 201.616 226.803 203.258C228.086 204.901 229.612 205.722 231.381 205.722C233.194 205.722 234.897 205.167 236.49 204.057C238.082 202.948 239.52 201.239 240.803 198.931L241.864 200.129C239.343 203.591 236.623 206.165 233.703 207.852C230.828 209.539 227.444 210.382 223.552 210.382C218.42 210.382 213.953 209.25 210.149 206.987C206.389 204.679 203.469 201.35 201.39 197C199.356 192.65 198.338 187.413 198.338 181.288Z" fill="#7A8F6A"/>
<path d="M299.371 148.732V204.79C299.371 205.5 299.481 206.077 299.703 206.521C299.968 206.92 300.388 207.186 300.963 207.319L303.485 207.919C303.794 207.963 303.993 208.052 304.082 208.185C304.214 208.274 304.281 208.385 304.281 208.518C304.281 208.695 304.214 208.829 304.082 208.917C303.993 209.006 303.838 209.05 303.617 209.05H271.105C270.928 209.05 270.774 209.006 270.641 208.917C270.508 208.829 270.442 208.695 270.442 208.518C270.442 208.385 270.486 208.274 270.575 208.185C270.707 208.052 270.928 207.963 271.238 207.919L273.759 207.319C274.379 207.186 274.799 206.92 275.02 206.521C275.241 206.077 275.352 205.5 275.352 204.79V157.387C275.352 157.032 275.263 156.766 275.086 156.588C274.909 156.411 274.622 156.322 274.224 156.322H271.636C271.327 156.322 271.105 156.277 270.973 156.189C270.884 156.056 270.84 155.9 270.84 155.723C270.84 155.545 270.906 155.412 271.039 155.323C271.172 155.234 271.327 155.168 271.503 155.123L296.65 148.133C297.181 148 297.535 147.911 297.712 147.867C297.933 147.822 298.176 147.8 298.442 147.8C298.752 147.8 298.973 147.889 299.105 148.066C299.282 148.244 299.371 148.466 299.371 148.732ZM287.096 144.005C283.071 144.005 279.797 142.718 277.276 140.144C274.755 137.569 273.494 134.418 273.494 130.69C273.494 126.962 274.755 123.81 277.276 121.236C279.797 118.662 283.071 117.375 287.096 117.375C291.165 117.375 294.483 118.662 297.049 121.236C299.658 123.81 300.963 126.962 300.963 130.69C300.963 134.418 299.658 137.569 297.049 140.144C294.483 142.718 291.165 144.005 287.096 144.005Z" fill="#7A8F6A"/>
<path d="M126.011 58.0489C125.205 55.1579 124.187 52.3294 122.957 49.6048C121.812 47.0466 120.306 44.4053 117.739 43.1574C116.318 42.4711 114.706 42.2839 113.137 42.1591C109.297 41.8471 105.31 41.8887 101.725 43.2614C98.1408 44.6341 94.9804 47.6082 94.3653 51.3519C96.5075 50.3536 98.671 49.3344 100.983 48.7729C103.295 48.2113 105.798 48.1489 108.004 48.9809C108.407 49.1265 108.81 49.3344 109.064 49.688C109.319 50.0416 109.297 50.5823 108.958 50.8319C108.725 50.9983 108.428 50.9983 108.152 50.9983C104.631 50.9983 101.11 51.1231 97.6105 51.3935C96.8681 51.4558 96.1258 51.5182 95.4258 51.7886C94.6622 52.0798 94.0259 52.5997 93.4532 53.1613C89.9747 56.6346 89.0839 61.8133 88.384 66.6385C88.2991 67.2832 88.2567 68.0528 88.787 68.4271C90.3141 67.6576 91.3958 66.2641 92.6897 65.1826C96.0409 62.3749 100.644 61.6053 105.013 61.1062C107.961 60.7734 110.888 60.5238 113.858 60.3367C106.307 63.498 98.0771 64.829 90.3777 67.6368C89.699 67.8864 88.9778 68.1776 88.5961 68.7807C88.3203 69.2175 88.2567 69.7374 88.2143 70.2366C88.0234 72.0668 87.8113 73.9386 88.2991 75.7273C88.8082 77.6199 90.0172 79.2422 90.5686 81.1348C91.2049 83.2978 90.9716 85.856 92.4988 87.5406C93.4957 85.1072 93.4745 82.1955 95.2561 80.2197C96.2954 79.0758 97.8014 78.431 98.9892 77.4327C99.9224 76.6216 100.644 75.6025 101.577 74.7706C102.446 73.9802 103.465 73.3771 104.504 72.8363C107.537 71.2349 110.846 70.091 114.239 69.4878C114.239 70.1118 113.54 70.4654 112.946 70.6525C110.591 71.4637 108.216 72.1916 105.989 73.2939C102.065 75.2489 98.8619 78.3478 95.7228 81.3844C95.3198 81.7795 94.8956 82.1955 94.6835 82.7154C94.0471 84.2545 95.3198 85.8144 96.1894 87.2287C97.1014 88.6845 97.6317 90.3276 98.4165 91.8458C99.2013 93.3641 100.347 94.82 101.98 95.4023C102.807 92.6986 103.634 90.0156 104.44 87.3118C104.864 85.9392 105.289 84.5457 105.967 83.2978C107.346 80.7812 109.679 78.9302 111.991 77.2247C112.818 76.6216 113.858 75.9769 114.812 76.3512C114.812 77.4951 113.985 78.4726 113.221 79.3254C112.161 80.5316 111.1 81.7379 110.04 82.9442C108.597 84.5665 107.155 86.2095 106.137 88.123C104.695 90.8059 104.186 93.9672 104.695 96.983C105.692 102.786 116.064 101.954 119.309 106.924C120.136 104.096 122.957 102.349 125.481 100.747C128.005 99.146 130.678 97.0246 130.868 94.0712C130.953 92.6362 130.423 91.2427 129.893 89.8908C128.302 85.8352 126.69 81.7587 125.099 77.7031C124.802 76.9752 124.527 76.2056 124.611 75.4153C124.696 74.625 125.311 73.8555 126.117 73.8555C126.478 73.8555 126.838 74.001 127.135 74.1882C129.023 75.2905 129.978 77.4119 130.805 79.4085C131.696 81.5092 132.586 83.6306 133.456 85.7312C134.135 87.3326 134.814 88.9549 135.089 90.6811C135.514 93.3433 134.941 96.1511 133.456 98.4389C136.362 98.1477 138.865 96.4006 141.219 94.716C142.767 93.6137 144.422 92.3658 144.91 90.5564C146.119 91.2843 146.564 93.0313 145.843 94.2376C148.728 92.2826 149.3 88.123 148.006 84.9201C146.713 81.7171 143.998 79.3046 141.24 77.1831C138.483 75.0617 135.535 73.0651 133.499 70.2574C133.329 70.0078 133.138 69.7582 133.117 69.467C133.032 68.7599 133.817 68.1776 134.538 68.1984C135.259 68.2192 135.917 68.6143 136.532 69.0095C142.958 73.2107 149.618 77.6615 153.288 84.3169C154.412 82.1747 155.43 79.9701 156.342 77.7239C156.872 76.372 157.381 74.9785 157.318 73.5227C157.212 71.5884 156.639 69.779 155.154 68.4895C153.67 67.2 151.824 66.3889 150.021 65.6194C152.8 64.6627 156.194 66.2017 157.297 68.8847C158.463 66.0977 159.63 62.9572 158.463 60.1495C157.254 57.2169 153.882 55.7611 150.721 55.0747C148.515 54.5964 146.246 54.3676 143.998 54.3676C144.189 52.5997 149.873 53.7644 152.588 54.8251C154.03 55.3867 147.455 48.6897 145.546 47.1506C144.146 46.0067 142.449 45.2372 140.795 44.4885C139.119 43.7397 137.21 43.4278 135.386 43.199C133.562 42.9702 131.653 44.0725 130.317 45.3204C127.75 47.6914 128.684 51.7886 128.26 55.2411C128.111 56.5098 127.369 58.0697 126.075 58.0905L126.011 58.0489Z" fill="#7A8F6A"/>
<path d="M119.415 93.3637C119.372 94.882 119.012 96.4834 119.563 97.9185C119.903 91.9078 120.518 85.8972 121.387 79.9281C123.742 81.5712 124.166 82.1327 125.396 85.0445C125.842 86.1052 125.863 85.606 127.093 90.0984C127.029 85.8764 124.993 81.9455 121.833 79.0962C122.639 75.1445 123.678 71.5881 124.293 68.0316C127.178 69.0923 129.893 71.4633 132.077 73.6055C132.692 74.2086 133.308 74.8118 133.795 75.5189C134.644 76.746 135.132 78.3059 136.426 79.0962C136.001 77.9939 135.344 76.9748 134.644 76.0181C133.583 74.583 132.417 73.2311 131.25 71.8792C130.168 70.6313 129.299 69.9866 127.814 68.9883C127.008 68.4475 125.842 67.574 124.739 67.2413C125.142 65.2654 125.269 64.9534 125.587 63.3936C125.608 63.2688 125.735 62.6657 125.82 62.5409C125.82 62.5409 125.842 62.5409 125.863 62.5409C131.123 62.9984 134.114 64.0799 138.865 66.0558C141.049 66.9501 144.273 69.0299 146.416 70.153C141.24 64.7663 133.456 62.3121 125.948 61.4386C125.948 60.8146 126.032 60.1907 126.16 59.5875C126.16 59.5043 126.202 59.4212 126.245 59.3588C126.308 59.2756 126.414 59.2548 126.52 59.2548C130.338 58.5892 134.177 57.9237 138.059 58.1317C138.589 58.1525 139.119 58.2148 139.65 58.1317C138.165 57.6117 136.51 57.6949 134.941 57.7781C133.286 57.8613 131.611 57.9653 129.956 58.2565C128.641 58.4852 127.284 58.8596 125.99 58.5476C126.669 58.2773 127.305 57.9445 127.835 57.4661C128.302 57.0502 128.641 56.551 129.023 56.0726C130.529 54.2008 132.523 52.7865 134.495 51.3931C131.717 52.5578 129.32 54.5752 127.708 57.0918C127.517 57.3829 127.241 57.5285 126.987 57.7573C126.732 57.9861 126.308 58.2149 125.969 58.1525C125.799 58.1317 125.629 56.7174 125.523 56.5926C125.354 56.3846 125.014 56.7174 124.972 56.9878C124.929 57.2581 124.993 57.5493 124.887 57.7989C124.675 58.2773 123.911 58.2772 123.487 57.9237C123.063 57.5701 122.999 56.9878 122.66 56.5718C121.599 55.2199 120.963 54.9287 119.372 54.0344C117.782 53.1401 115.745 52.1626 114.6 50.7483C114.282 50.3532 113.433 49.0013 112.967 49.1885C113.815 50.5819 114.961 51.7882 116.318 52.7241C117.485 53.5353 118.8 54.1384 119.987 54.9495C121.175 55.7607 122.215 56.863 122.533 58.2357C122.533 58.3188 122.575 58.402 122.533 58.4852C122.49 58.5892 122.342 58.6308 122.236 58.6516C121.324 58.8596 120.369 59.0052 119.457 59.234C118.163 59.5667 116.87 60.1491 115.639 60.6482C118.375 59.8787 121.515 59.2548 124.336 59.0468C124.336 59.5459 124.251 60.1699 124.272 60.669C124.272 60.877 124.187 61.3138 124.187 61.3138C124.039 61.5841 123.466 61.6257 123.148 61.6881C120.73 62.1873 118.312 62.6865 115.873 63.2064C114.621 63.4768 113.37 63.7264 112.14 64.0591C106.37 65.6398 101.259 68.8635 96.2318 72.0248C94.238 73.2935 92.2018 74.583 90.7383 76.4132C92.8593 75.1029 95.0016 73.7927 97.1226 72.4824C101.45 69.8202 105.84 67.1165 110.718 65.5566C112.076 65.1198 113.455 64.7871 114.833 64.4543C117.697 63.7472 121.112 63.04 123.975 62.3537C123.805 63.8511 123.402 65.1406 123.233 66.6381C123.211 66.8877 123.317 66.9917 122.936 67.262C122.766 67.3868 122.448 67.5532 122.236 67.6156C114.791 70.2778 108.237 75.1237 103.189 81.1344C102.701 81.7168 102.213 82.3199 102.107 83.0686C104.186 80.6977 106.286 78.3059 108.852 76.4548C109.849 75.7477 110.803 75.0198 111.715 74.2086C112.33 73.6471 113.243 73.0231 114.091 72.4408C115.109 71.7337 116.891 70.7353 118.036 70.2362C119.627 69.529 121.557 68.7179 123.148 68.0108C122.766 70.1114 122.172 71.9416 121.896 73.8551C121.536 76.33 120.9 78.3683 120.475 80.8224C120.242 82.1327 120.178 83.4222 120.051 84.7325C120.009 85.2316 119.945 85.7308 119.797 86.2091C119.457 87.2907 118.672 88.2058 117.824 88.9753C116.976 89.7448 116.021 90.4312 115.258 91.2839C114.409 92.199 113.794 93.3013 113.221 94.4036C113.518 94.3204 113.752 94.0709 113.942 93.8213C115.682 91.6791 117.718 89.7656 119.754 87.873C119.33 89.828 119.5 91.4087 119.436 93.3845L119.415 93.3637Z" fill="#3F6A45"/>
<path d="M342.011 167.049C341.205 164.158 340.187 161.329 338.957 158.605C337.812 156.047 336.306 153.405 333.739 152.157C332.318 151.471 330.706 151.284 329.137 151.159C325.297 150.847 321.31 150.889 317.725 152.261C314.141 153.634 310.98 156.608 310.365 160.352C312.508 159.354 314.671 158.334 316.983 157.773C319.295 157.211 321.798 157.149 324.004 157.981C324.407 158.126 324.81 158.334 325.064 158.688C325.319 159.042 325.297 159.582 324.958 159.832C324.725 159.998 324.428 159.998 324.152 159.998C320.631 159.998 317.11 160.123 313.61 160.393C312.868 160.456 312.126 160.518 311.426 160.789C310.662 161.08 310.026 161.6 309.453 162.161C305.975 165.635 305.084 170.813 304.384 175.638C304.299 176.283 304.257 177.053 304.787 177.427C306.314 176.658 307.396 175.264 308.69 174.183C312.041 171.375 316.644 170.605 321.013 170.106C323.961 169.773 326.888 169.524 329.858 169.337C322.307 172.498 314.077 173.829 306.378 176.637C305.699 176.886 304.978 177.178 304.596 177.781C304.32 178.217 304.257 178.737 304.214 179.237C304.023 181.067 303.811 182.939 304.299 184.727C304.808 186.62 306.017 188.242 306.569 190.135C307.205 192.298 306.972 194.856 308.499 196.541C309.496 194.107 309.474 191.195 311.256 189.22C312.295 188.076 313.801 187.431 314.989 186.433C315.922 185.622 316.644 184.602 317.577 183.771C318.446 182.98 319.465 182.377 320.504 181.836C323.537 180.235 326.846 179.091 330.239 178.488C330.239 179.112 329.54 179.465 328.946 179.653C326.591 180.464 324.216 181.192 321.989 182.294C318.065 184.249 314.862 187.348 311.723 190.384C311.32 190.78 310.896 191.195 310.683 191.715C310.047 193.255 311.32 194.814 312.189 196.229C313.101 197.685 313.632 199.328 314.416 200.846C315.201 202.364 316.347 203.82 317.98 204.402C318.807 201.699 319.634 199.016 320.44 196.312C320.864 194.939 321.289 193.546 321.967 192.298C323.346 189.781 325.679 187.93 327.991 186.225C328.818 185.622 329.858 184.977 330.812 185.351C330.812 186.495 329.985 187.473 329.221 188.325C328.161 189.532 327.1 190.738 326.04 191.944C324.597 193.566 323.155 195.21 322.137 197.123C320.695 199.806 320.186 202.967 320.695 205.983C321.692 211.786 332.064 210.954 335.309 215.924C336.136 213.096 338.957 211.349 341.481 209.747C344.005 208.146 346.678 206.025 346.868 203.071C346.953 201.636 346.423 200.243 345.893 198.891C344.302 194.835 342.69 190.759 341.099 186.703C340.802 185.975 340.527 185.206 340.611 184.415C340.696 183.625 341.311 182.855 342.117 182.855C342.478 182.855 342.838 183.001 343.135 183.188C345.023 184.291 345.978 186.412 346.805 188.409C347.696 190.509 348.586 192.631 349.456 194.731C350.135 196.333 350.814 197.955 351.089 199.681C351.514 202.343 350.941 205.151 349.456 207.439C352.362 207.148 354.865 205.401 357.219 203.716C358.767 202.614 360.422 201.366 360.91 199.556C362.119 200.284 362.564 202.031 361.843 203.238C364.728 201.283 365.3 197.123 364.006 193.92C362.713 190.717 359.998 188.305 357.24 186.183C354.483 184.062 351.535 182.065 349.499 179.257C349.329 179.008 349.138 178.758 349.117 178.467C349.032 177.76 349.817 177.178 350.538 177.198C351.259 177.219 351.917 177.614 352.532 178.009C358.958 182.211 365.618 186.662 369.288 193.317C370.412 191.175 371.43 188.97 372.342 186.724C372.872 185.372 373.381 183.979 373.318 182.523C373.212 180.588 372.639 178.779 371.154 177.49C369.67 176.2 367.824 175.389 366.021 174.619C368.8 173.663 372.194 175.202 373.297 177.885C374.463 175.098 375.63 171.957 374.463 169.149C373.254 166.217 369.882 164.761 366.721 164.075C364.515 163.596 362.246 163.368 359.998 163.368C360.189 161.6 365.873 162.764 368.588 163.825C370.03 164.387 363.455 157.69 361.546 156.151C360.146 155.007 358.449 154.237 356.795 153.488C355.119 152.74 353.21 152.428 351.386 152.199C349.562 151.97 347.653 153.073 346.317 154.32C343.75 156.691 344.684 160.789 344.26 164.241C344.111 165.51 343.369 167.07 342.075 167.09L342.011 167.049Z" fill="#7A8F6A"/>
<path d="M335.415 202.364C335.372 203.882 335.012 205.483 335.563 206.919C335.903 200.908 336.518 194.897 337.387 188.928C339.742 190.571 340.166 191.133 341.396 194.044C341.842 195.105 341.863 194.606 343.093 199.098C343.029 194.876 340.993 190.946 337.833 188.096C338.639 184.145 339.678 180.588 340.293 177.032C343.178 178.092 345.893 180.463 348.077 182.605C348.692 183.209 349.308 183.812 349.795 184.519C350.644 185.746 351.132 187.306 352.426 188.096C352.001 186.994 351.344 185.975 350.644 185.018C349.583 183.583 348.417 182.231 347.25 180.879C346.168 179.631 345.299 178.987 343.814 177.988C343.008 177.448 341.842 176.574 340.739 176.241C341.142 174.265 341.269 173.953 341.587 172.394C341.608 172.269 341.735 171.666 341.82 171.541C341.82 171.541 341.842 171.541 341.863 171.541C347.123 171.998 350.114 173.08 354.865 175.056C357.049 175.95 360.273 178.03 362.416 179.153C357.24 173.766 349.456 171.312 341.948 170.439C341.948 169.815 342.032 169.191 342.16 168.588C342.16 168.504 342.202 168.421 342.245 168.359C342.308 168.276 342.414 168.255 342.52 168.255C346.338 167.589 350.177 166.924 354.059 167.132C354.589 167.152 355.119 167.215 355.65 167.132C354.165 166.612 352.51 166.695 350.941 166.778C349.286 166.861 347.611 166.965 345.956 167.256C344.641 167.485 343.284 167.86 341.99 167.548C342.669 167.277 343.305 166.944 343.835 166.466C344.302 166.05 344.641 165.551 345.023 165.073C346.529 163.201 348.523 161.787 350.495 160.393C347.717 161.558 345.32 163.575 343.708 166.092C343.517 166.383 343.241 166.529 342.987 166.757C342.732 166.986 342.308 167.215 341.969 167.152C341.799 167.132 341.629 165.717 341.523 165.593C341.354 165.385 341.014 165.717 340.972 165.988C340.929 166.258 340.993 166.549 340.887 166.799C340.675 167.277 339.911 167.277 339.487 166.924C339.063 166.57 338.999 165.988 338.66 165.572C337.599 164.22 336.963 163.929 335.372 163.034C333.782 162.14 331.745 161.163 330.6 159.748C330.282 159.353 329.433 158.001 328.967 158.188C329.815 159.582 330.961 160.788 332.318 161.724C333.485 162.535 334.8 163.138 335.987 163.95C337.175 164.761 338.215 165.863 338.533 167.236C338.533 167.319 338.575 167.402 338.533 167.485C338.49 167.589 338.342 167.631 338.236 167.652C337.324 167.86 336.369 168.005 335.457 168.234C334.163 168.567 332.87 169.149 331.639 169.648C334.375 168.879 337.515 168.255 340.336 168.047C340.336 168.546 340.251 169.17 340.272 169.669C340.272 169.877 340.187 170.314 340.187 170.314C340.039 170.584 339.466 170.626 339.148 170.688C336.73 171.187 334.312 171.686 331.873 172.206C330.621 172.477 329.37 172.726 328.14 173.059C322.37 174.64 317.259 177.863 312.232 181.025C310.238 182.294 308.202 183.583 306.738 185.413C308.859 184.103 311.002 182.793 313.123 181.482C317.45 178.82 321.84 176.116 326.718 174.557C328.076 174.12 329.455 173.787 330.833 173.454C333.697 172.747 337.112 172.04 339.975 171.354C339.805 172.851 339.402 174.141 339.233 175.638C339.211 175.888 339.317 175.992 338.936 176.262C338.766 176.387 338.448 176.553 338.236 176.616C330.791 179.278 324.237 184.124 319.189 190.134C318.701 190.717 318.213 191.32 318.107 192.069C320.186 189.698 322.286 187.306 324.852 185.455C325.849 184.748 326.803 184.02 327.715 183.209C328.33 182.647 329.243 182.023 330.091 181.441C331.109 180.734 332.891 179.735 334.036 179.236C335.627 178.529 337.557 177.718 339.148 177.011C338.766 179.111 338.172 180.942 337.896 182.855C337.536 185.33 336.9 187.368 336.475 189.822C336.242 191.133 336.178 192.422 336.051 193.732C336.009 194.232 335.945 194.731 335.797 195.209C335.457 196.291 334.672 197.206 333.824 197.975C332.976 198.745 332.021 199.431 331.258 200.284C330.409 201.199 329.794 202.301 329.221 203.404C329.518 203.32 329.752 203.071 329.942 202.821C331.682 200.679 333.718 198.766 335.754 196.873C335.33 198.828 335.5 200.409 335.436 202.385L335.415 202.364Z" fill="#3F6A45"/>
</svg>
