<svg width="47" height="64" viewBox="0 0 47 64" fill="none" xmlns="http://www.w3.org/2000/svg">
<path d="M46.0219 29.3131C44.5409 26.8257 43.3341 25.7911 40.7492 24.5563C37.8281 23.16 32.7575 22.2424 29.6356 21.7769C28.167 21.5576 26.1886 22.6041 25.2261 21.2611C25.0896 21.0714 24.9644 20.8475 24.9656 20.597C24.9693 19.9996 25.6094 19.7714 26.1067 19.7165C29.3565 19.3563 32.6806 19.002 35.8485 19.9463C37.7227 20.5051 39.4815 21.5012 41.2267 22.4929C43.3452 23.6966 45.5865 25.0292 46.7798 27.4424C46.683 23.3704 45.2095 19.6617 43.3862 16.2197C43.0562 15.5971 42.6506 14.8041 42.1111 14.3253C41.5814 13.8539 41.2155 13.6716 40.6288 13.2136C39.3314 12.2011 37.6247 12.0336 36.0792 12.1641C33.0837 12.4146 29.6145 13.8287 26.619 14.0792C25.1678 14.2008 23.7253 15.2429 22.2964 14.9197C22.1401 14.8841 21.9677 14.8308 21.8808 14.6707C21.7667 14.4572 21.8622 14.1756 21.9776 13.9636C22.7144 12.6132 24.0961 12.0277 25.3799 11.5297C27.1226 10.8537 28.8827 10.1718 30.706 9.94505C32.435 9.73011 34.179 9.92874 35.9056 10.1629C37.4163 10.3675 38.9581 10.6136 40.3113 11.4407C39.5373 10.9975 39.0089 10.1274 38.4595 9.34026C35.0671 4.48269 29.8985 1.86046 24.7213 0.536745C22.9413 0.0816717 21.0858 -0.239992 19.3083 0.232869C17.5309 0.70573 15.8341 2.12135 15.2797 4.19364C14.8865 5.6641 15.1011 7.26945 15.4657 8.7503C15.8304 10.2311 16.3426 11.669 16.551 13.1913C16.6056 13.5916 16.3675 14.2542 16.1082 13.9918C15.586 13.4656 15.359 12.6458 15.0601 11.9121C13.8408 8.91928 11.055 7.01153 8.26916 7.03969C7.02508 7.05304 5.78473 7.41769 4.67833 8.09807C2.24848 9.59077 0.570272 12.5954 0.127465 15.818C-0.315343 19.0406 0.421424 22.4203 1.9359 25.1374C2.03885 24.2539 1.91358 23.326 2.15917 22.484C2.44569 21.5012 3.20355 20.8001 4.02218 20.4458C4.84082 20.0915 5.72519 20.0352 6.59468 19.9804C8.37583 19.8707 10.157 19.761 11.9381 19.6513C12.1478 19.638 12.3822 19.635 12.5348 19.8069C12.7419 20.0367 12.6749 20.4725 12.474 20.7097C12.273 20.9468 11.984 21.0373 11.7099 21.1203C8.95385 21.9667 7.60806 21.5309 5.02812 22.9658C4.64733 23.1777 2.89222 25.0203 2.73221 25.4828C2.16537 27.1207 1.86892 28.9899 2.23235 30.7094C2.59453 32.4289 3.33751 33.9928 4.07304 35.5329C4.79493 37.0478 6.168 39.7368 6.88989 41.2517C7.30292 36.2474 9.97218 30.9051 13.1959 27.6366C13.857 26.9651 14.5627 26.3321 15.3727 25.9586C15.9991 25.6695 16.8983 25.6844 17.1303 26.4359C17.2543 26.8376 17.1129 27.3001 16.8785 27.6232C16.6428 27.9464 16.3253 28.1658 16.0251 28.4C14.2006 29.8245 11.7583 32.2407 10.544 34.4034C9.51324 36.24 9.07168 37.8424 8.51972 39.9532C7.96776 42.064 8.45398 44.4713 9.223 46.4828C9.48347 47.1647 9.83326 47.7902 10.1818 48.4128C11.6789 51.0869 13.3559 53.4275 15.5922 55.2211C17.8274 57.0132 20.4693 58.1517 23.1609 58.1739C21.7419 56.5893 20.3552 54.8846 19.5316 52.7842C18.708 50.6822 18.5815 48.1667 19.2823 46.0011C20.1878 43.2024 20.4941 41.2828 22.5643 39.5871C22.986 39.2417 23.6682 39.0178 23.9237 39.547C24.0093 39.7249 24.013 39.9428 24.0068 40.1489C23.9535 41.9499 23.3407 43.659 23.1249 45.4437C22.6709 49.197 23.9894 52.8968 25.2782 56.3625C25.7321 57.5825 26.2208 58.8573 27.1164 59.6577C27.9338 60.3885 28.9782 60.6227 29.9444 61.017C30.9106 61.4113 31.9091 62.0946 32.2267 63.2553C32.1262 61.1549 32.9659 59.1493 33.9669 57.4194C34.9691 55.688 36.1611 54.0975 36.9301 52.2031C37.6991 50.3102 37.9881 47.9711 37.1186 46.1404C36.2281 44.2638 34.3998 43.3922 32.9721 42.0699C31.5383 40.7418 30.4641 38.8666 29.9469 36.7884C29.906 36.6224 29.87 36.4356 29.9394 36.2844C30.056 36.031 30.3649 36.0562 30.5968 36.1377C31.759 36.5438 32.7575 37.4421 33.6469 38.4249C35.1092 40.0392 36.3558 41.9291 37.3282 44.0059C37.8244 45.0672 38.2622 46.1953 38.9779 47.058C39.6465 47.8643 40.578 48.4943 41.0233 49.4356C40.8831 48.5907 41.0977 47.6479 41.3954 46.8341C41.7811 45.7787 42.3008 44.7426 42.3294 43.5923C42.3728 41.7942 41.9238 40.3149 41.1498 38.7718C39.4244 35.3298 35.1229 33.1716 32.4871 31.6285C30.5708 30.5049 28.9806 31.0459 27.3657 29.3768C27.1536 29.1574 26.9415 28.904 26.882 28.5778C26.7877 28.0664 27.1176 27.5506 27.5232 27.3534C27.9288 27.1548 28.3853 27.1993 28.8194 27.2675C30.0622 27.4646 31.284 27.8367 32.4598 28.3555C37.9187 30.7672 42.2537 36.532 43.6789 43.2751C44.5955 41.3392 46.2191 39.6656 46.5429 37.4747C46.8666 35.2839 47.106 31.1334 46.0256 29.3205L46.0219 29.3131ZM14.5057 44.1511C14.2229 45.2896 14.5181 47.1943 14.2477 46.8697C13.8483 46.3924 13.8942 44.1141 13.8681 43.4722C13.8098 42.0092 13.6722 39.8376 14.6533 38.5672C15.2846 37.7505 16.8475 37.1294 17.1576 38.0469C17.8385 40.0658 15.6543 39.5381 14.5057 44.1526V44.1511Z" fill="#3D5B19"/>
<path d="M41.0195 49.4297C41.0605 49.6789 41.1324 49.9207 41.2428 50.1477C41.2019 49.8866 41.1237 49.6493 41.0195 49.4297Z" fill="#3D5B19"/>
<path d="M29.5611 39.7116C31.5643 41.1983 34.2981 44.8256 34.793 47.5812C34.7322 45.8306 34.05 44.1748 33.1222 42.817C32.1944 41.4592 31.0297 40.3668 29.8601 39.3113C29.0265 38.5598 28.1843 37.8231 27.3334 37.0997C27.1871 36.9752 27.0382 36.8477 26.9316 36.6743C26.8175 36.489 26.774 36.2578 26.7071 36.0428C26.2531 34.6005 25.6466 33.5318 25.1963 31.7545C28.2414 32.7521 31.3423 33.7867 33.9768 35.8649C34.5213 36.2948 35.046 36.7692 35.49 37.3413C36.1449 38.1818 36.6336 39.2372 37.4436 39.8554C36.362 37.5311 34.4469 35.9598 32.6 34.476C32.0853 34.0624 31.568 33.6474 31.0099 33.3228C30.5038 33.0293 29.9692 32.8143 29.4371 32.5994C27.9834 32.0154 26.5409 31.1867 25.0872 30.6012C24.1743 28.7172 23.2601 26.8332 22.3472 24.9476C24.823 24.7045 25.3005 24.7238 27.7514 24.9506C28.874 25.0544 31.9525 25.8415 33.0465 26.1617C35.8547 26.9829 38.2672 29.1619 41.0456 30.1135C39.8077 29.2983 38.5698 28.4845 37.332 27.6692C36.1722 26.9058 35.0026 26.1379 33.7362 25.6769C32.951 25.3923 32.1398 25.2293 31.3299 25.0677C29.9928 24.8009 28.6557 24.5326 27.3186 24.2658C25.5746 23.9174 23.7178 24.0834 21.9615 24.3354C21.381 22.9939 20.6169 21.9044 19.7586 20.2324C19.5601 19.8455 19.1769 19.6172 19.0392 19.1947C18.93 18.8627 18.7142 18.1853 18.4277 18.2861C21.0659 17.8636 23.7054 17.4397 26.3436 17.0172C27.326 16.8601 28.3071 16.703 29.2895 16.5443C30.1565 16.405 31.026 16.2657 31.9004 16.2197C32.5752 16.1841 33.2524 16.2049 33.9272 16.2434C35.7542 16.3487 37.5763 16.5859 39.3798 16.955C37.559 16.2182 35.6376 15.8373 33.7151 15.8343C32.8047 15.8328 31.8955 15.9144 30.9888 16.0003C26.6661 16.4109 22.3385 16.8497 18.0308 17.4545C18.0308 17.4545 17.743 17.1091 17.3573 16.4732C17.3089 16.3932 17.0819 16.1901 17.0372 16.1056C16.9901 16.0152 16.9368 15.9514 16.8847 15.864C16.7904 15.7054 16.7718 15.609 16.6924 15.483C16.7247 15.2992 16.9008 15.2177 17.0509 15.1628C17.9936 14.8145 18.837 13.848 19.6631 13.2017C21.4033 11.8395 22.6685 9.97321 24.2809 8.40343C25.5473 7.17162 26.8435 5.88497 28.451 5.35578C29.0203 5.169 29.6554 4.78657 30.2942 4.76285C28.683 4.6828 27.1127 5.45213 25.7706 6.51792C24.4285 7.58371 23.27 8.943 22.0582 10.2148C21.0746 11.2465 20.0526 12.2249 19.0317 13.2017C18.4599 13.7487 17.7616 14.0985 17.16 14.5981C17.0335 14.7033 16.8425 14.7982 16.7445 14.6559C18.125 12.0099 19.5056 9.36398 20.8873 6.71655C21.0994 6.30891 21.3128 5.90275 21.5087 5.48474C21.8746 4.708 22.3038 3.40059 22.7404 2.6787C23.177 1.95681 23.6459 1.81303 24.3628 1.57141C23.9671 1.59364 23.5553 1.62181 23.2117 1.85601C22.888 2.07688 22.63 2.42967 22.4502 2.81952C20.8526 6.29261 19.838 8.23445 18.0618 11.6201C17.7554 12.2041 17.268 13.3233 16.7644 13.6597C17.1538 12.9734 17.2394 12.4176 17.3771 11.6038C17.4503 11.1724 17.4391 10.7618 17.4677 10.3216C17.5619 8.89408 17.8919 7.70378 18.1523 6.30595C18.4872 4.50789 18.8333 2.45487 19.869 1.09114C19.4299 1.13116 19.2203 1.62181 19.0181 2.08874C18.8159 2.55567 18.5021 3.47323 18.414 3.98759C18.1089 5.78862 17.6463 7.05007 17.3808 8.85999C17.1886 10.1689 17.0273 10.999 16.9107 12.5599C16.7743 13.6434 16.2906 14.017 15.9085 14.5595C15.7981 14.7166 15.6803 14.8797 15.5228 14.9597C15.1928 15.1258 14.8245 14.8812 14.5441 14.6144C13.2083 13.3425 12.3289 11.3458 10.7524 10.5587C12.0833 12.5821 13.6387 14.3965 15.3628 15.9381C15.2487 16.1827 14.9671 16.2064 14.7339 16.1856C13.6039 16.0908 12.5037 15.6876 11.3725 15.6149C9.54797 15.4993 7.77302 16.2479 6.05389 16.9861C7.23223 17.2218 8.34359 16.3087 9.52193 16.0715C11.3725 15.6994 13.2021 17.0187 15.0762 16.9001C15.2747 16.8882 15.7721 16.3546 15.9482 16.4628C16.0884 16.5488 16.3563 17.0928 16.4481 17.2455C16.7904 17.8117 17.3126 18.5321 17.6537 19.0984C15.8217 20.3895 15.3194 20.9632 13.8297 22.6545C13.2207 23.3467 11.4569 25.7125 10.8528 26.4107C10.2289 27.1326 9.53681 27.767 8.7926 28.3007C12.1155 26.3129 15.7969 20.554 18.1362 19.7995C19.549 22.0645 20.3068 23.5883 21.479 25.8533C20.0488 26.9354 18.5976 28.5423 17.6487 30.0868C16.6999 31.6314 14.6148 35.6263 15.2821 35.0838C18.5778 29.3664 19.1955 28.7617 21.8114 26.6612C22.2802 27.4557 22.4688 28.142 22.4688 28.142C22.1947 28.52 21.4207 29.5058 21.123 29.8571C20.8687 30.1565 19.5738 32.4749 19.3927 32.8425C17.8001 36.0962 17.8026 38.5806 17.2506 42.2923C17.1129 43.2187 16.9752 44.1437 16.8376 45.0702C17.8869 41.8802 17.9129 38.29 19.1037 35.1712C19.5453 34.015 20.1369 32.9522 20.7248 31.8938C21.278 30.9006 22.0657 29.6718 22.7789 28.8358C23.9808 30.9006 24.5885 32.8899 25.5052 34.977C25.7743 35.5892 26.01 36.1659 26.2345 36.8018C27.2541 39.7027 28.2749 42.6095 29.0265 45.6246C29.7782 48.6396 30.2557 51.7777 30.1627 54.9217C30.3066 54.7379 30.3475 54.4725 30.3748 54.222C30.773 50.6037 29.8985 46.9735 28.9769 43.493C28.4957 41.6756 27.9958 39.8568 27.29 38.1462C28.0653 38.7214 28.7872 39.1261 29.5636 39.7012L29.5611 39.7116Z" fill="#577A23"/>
</svg>
