<svg width="45" height="45" viewBox="0 0 45 45" fill="none" xmlns="http://www.w3.org/2000/svg">
<path d="M8.59646 35.3845C7.73854 35.3845 7.02278 35.0977 6.44918 34.5241C5.87558 33.9505 5.58816 33.2341 5.58691 32.3749V12.3213C5.58691 11.4633 5.87434 10.7476 6.44918 10.174C7.02402 9.60037 7.73916 9.31295 8.59459 9.31171H36.1014C36.9581 9.31171 37.6732 9.59913 38.2468 10.174C38.8204 10.7488 39.1078 11.4646 39.1091 12.3213V32.3768C39.1091 33.2335 38.8216 33.9492 38.2468 34.5241C37.672 35.0989 36.9568 35.3857 36.1014 35.3845H8.59646ZM22.348 22.5641L7.44926 12.8222V32.3768C7.44926 32.7108 7.55665 32.9852 7.77144 33.2C7.98623 33.4147 8.26124 33.5221 8.59646 33.5221H36.1014C36.4354 33.5221 36.7097 33.4147 36.9245 33.2C37.1393 32.9852 37.2467 32.7102 37.2467 32.3749V12.8204L22.348 22.5641ZM22.348 20.4858L36.6731 11.174H8.02286L22.348 20.4858ZM7.44926 12.8222V11.174V32.3768C7.44926 32.7108 7.55665 32.9852 7.77144 33.2C7.98623 33.4147 8.26124 33.5221 8.59646 33.5221H7.44926V12.8222Z" fill="white"/>
</svg>
