<svg width="255" height="357" viewBox="0 0 255 357" fill="none" xmlns="http://www.w3.org/2000/svg">
<path d="M151.259 353.793C142.243 355.026 124.858 355.391 115.295 355.485C115.12 355.487 114.944 355.49 114.769 355.492C112.499 355.519 110.352 355.577 107.837 355.644C101.839 355.796 93.7352 356.037 76.8217 355.786C71.9006 355.929 66.9787 356.053 62.0576 356.156C45.794 356.497 29.5305 356.668 13.267 356.682L0.155792 356.833L0.000930786 343.416C-0.0133209 326.749 0.13736 310.082 0.419601 293.416C0.761627 273.201 1.18753 252.987 1.65048 232.772C1.64534 232.101 1.64006 231.418 1.63474 230.728C1.53122 217.399 1.41383 200.87 1.85548 190.485C2.41635 177.281 2.93054 168.313 3.37224 160.948C4.38651 118.736 5.31252 76.524 5.783 34.3124C5.87962 25.6805 5.95734 17.0479 6.01424 8.41553L5.96161 1.21619L13.267 1.16281C17.8652 1.19312 22.4633 1.21753 27.0612 1.23578C39.2439 1.28418 51.4298 1.30145 63.6125 1.29382C70.7075 1.09735 77.4528 0.860809 83.7081 0.645844C92.498 0.343475 100.323 0.0841064 106.787 0.0248108C122.36 -0.116943 140.026 0.377838 153.145 0.733459C155.289 0.79184 157.313 0.846924 159.185 0.895294C169.604 0.830536 180.025 0.762604 190.444 0.698578C191.14 0.782654 191.841 0.869965 192.553 0.95929C201.445 2.07294 212.376 2.11871 229.583 2.21777C235.115 2.24911 241.296 2.28549 248.267 2.36029L254.24 2.28061L254.322 8.41553C254.296 10.8866 254.264 13.4569 254.227 16.1326C254.134 22.7206 253.725 26.1048 253.395 28.8701C253.298 29.6835 253.208 30.4464 253.134 31.2184C252.881 33.8652 253.122 36.655 253.399 39.9507C253.761 44.2263 254.18 49.356 253.716 56.1324C252.26 77.7248 253.095 87.2392 253.666 94.4363C253.836 96.5474 253.988 98.461 254.064 100.42C254.308 106.773 253.922 115.824 253.468 122.664C253.107 128.088 253.331 138.94 253.631 147.169C253.744 150.281 253.705 154.489 253.659 159.446C253.611 164.575 253.555 170.509 253.641 176.858C253.853 192.902 253.92 201.428 253.975 208.282C253.99 210.237 254.003 212.057 254.017 213.875C254.061 219.621 254.06 226.751 254.053 233.97C254.044 242.61 254.025 251.378 254.065 258.049C253.646 275.342 253.204 292.635 252.785 309.926C252.567 318.807 251.983 327.329 251.206 333.609C250.424 339.888 249.517 343.415 248.592 343.416C247.668 343.416 246.77 339.888 246.004 333.609C245.242 327.329 244.679 318.807 244.483 309.926C244.092 292.034 243.677 274.138 243.286 256.245C242.81 234.448 242.369 212.649 242.089 190.853C241.893 175.605 241.738 160.356 241.625 145.108C241.613 143.538 241.602 141.968 241.592 140.398C241.055 127.588 240.528 114.803 240.282 105.795C240.078 98.3575 240.232 92.9353 240.37 88.2915C240.465 85.0958 240.552 82.268 240.501 79.407C240.474 77.8706 240.424 75.7715 240.364 73.2404C240.121 62.9055 239.686 45.3528 239.964 29.3398C240.077 22.9277 240.343 15.5797 240.625 8.41553L248.267 16.0575C247.493 16.027 246.72 15.9964 245.951 15.9658C234.684 15.5183 224.176 15.0689 218.872 15.268C209.557 15.6198 198.874 15.4581 189.435 15.3009C180.431 15.1526 172.557 15.0129 168.078 15.3843C162.727 15.8289 158.164 15.6933 151.379 15.4826C146.673 15.3367 140.898 15.1555 133.049 15.1106C123.987 15.0592 117.576 14.7921 112.127 14.561C104.458 14.2365 98.6878 13.9825 90.0877 14.5249C80.5344 15.128 70.5497 15.5401 62.6862 15.3939C59.1045 15.3271 55.0074 15.3647 50.7445 15.4039C45.1009 15.4557 39.165 15.5102 33.7453 15.3223C29.2789 15.1674 25.5875 14.7382 22.3211 14.3556C21.3021 14.2363 20.324 14.1222 19.377 14.0219C17.3403 14.0313 15.3036 14.0415 13.267 14.0529L18.9044 8.41553C18.9129 9.93616 18.9221 11.4568 18.9322 12.9774C19.0059 13.5535 19.0874 14.1587 19.1717 14.7908C19.5944 17.9624 20.1156 21.8616 20.3865 26.689C20.8155 34.3295 20.5877 41.0341 20.3395 48.1066C20.1467 53.6131 19.9424 59.3423 20.0396 65.9104C20.106 70.3891 20.3076 75.489 20.5081 80.544C20.8058 88.052 21.1011 95.4662 20.94 100.618C20.8796 102.548 20.592 104.207 20.3052 105.849C20.3035 105.857 20.3017 105.864 20.3 105.871C20.2805 105.983 20.2615 106.095 20.2421 106.206C20.4936 118.752 20.7678 131.299 21.0546 143.844C21.1328 144.932 21.2099 146.03 21.2859 147.119C21.6573 152.439 22.0188 157.608 22.5249 160.979C23.0735 164.631 23.4088 173.814 23.7612 183.492C23.992 189.83 24.2298 196.382 24.5417 201.731C24.724 204.858 24.4209 207.824 24.1075 210.876C23.8151 213.724 23.5143 216.647 23.5938 219.843C23.6337 221.444 23.7639 223.173 23.9031 225.018C24.0256 226.643 24.1555 228.36 24.2359 230.159C24.3104 231.829 24.1464 235.55 23.9365 240.322C23.8068 243.27 23.66 246.62 23.5393 250.137C23.7394 259.431 23.9297 268.727 24.1047 278.021C24.3773 279.96 24.7308 281.642 25.1843 282.974C25.5098 283.93 25.8987 284.743 26.2962 285.579C26.8372 286.716 27.3963 287.893 27.8422 289.515C28.1905 290.782 28.3294 292.277 28.1848 293.281C28.1781 293.327 28.1709 293.372 28.1632 293.416C28.0925 293.818 27.9789 294.139 27.8752 294.433C27.7435 294.806 27.6263 295.14 27.6295 295.546C27.632 295.84 27.725 296.145 27.8376 296.521C28.0174 297.12 28.2494 297.9 28.2561 299.086C28.2813 303.502 28.1927 308.521 28.0968 313.437C27.9904 318.904 27.8763 324.248 27.911 328.506C27.9436 332.464 27.669 337.818 27.3359 343.416L13.267 329.347C14.4146 329.415 15.5724 329.486 16.7306 329.556C21.4797 329.847 26.2359 330.142 30.3161 330.294C34.3146 330.442 38.4781 330.321 42.51 330.212C47.3497 330.08 52.0047 329.967 55.9607 330.33C56.7607 330.404 57.7541 330.774 59.0005 331.235C59.8838 331.561 60.9004 331.933 62.0576 332.279C67.0932 332.371 72.1297 332.484 77.1652 332.616C77.3426 332.574 77.5255 332.531 77.7088 332.487C77.7117 332.486 77.7146 332.485 77.7175 332.484C81.8535 331.492 87.5132 330.21 95.4648 331.29C97.4861 331.562 98.7584 331.991 99.9048 332.375C101.031 332.752 102.037 333.086 103.51 333.189C105.183 333.305 107.158 333.147 109.311 332.982C112.335 332.748 115.712 332.507 119.1 332.933C119.332 332.963 119.58 332.994 119.84 333.026C122.296 333.329 125.932 333.778 129.55 334.54C140.286 335.025 151.022 335.552 161.757 336.095C179.652 337.001 197.55 337.95 215.443 338.847C224.148 339.289 232.496 340.13 238.652 341.033C244.808 341.947 248.267 342.837 248.267 343.741C248.266 344.645 244.807 345.561 238.652 346.521C232.496 347.469 224.148 348.369 215.443 348.87C201.247 349.677 187.048 350.509 172.851 351.318C172.107 351.38 171.359 351.441 170.616 351.5C165.081 351.94 159.946 352.61 154.808 353.31C153.628 353.471 152.445 353.633 151.259 353.793Z" fill="#7A8F6A"/>
</svg>
