<?xml version="1.0" encoding="UTF-8"?>
<svg id="Layer_2" data-name="Layer 2" xmlns="http://www.w3.org/2000/svg" viewBox="0 0 483.48 515.82">
  <defs>
    <style>
      .cls-1 {
        fill: #bc725b;
      }

      .cls-2 {
        fill: #3a4c19;
      }

      .cls-3 {
        fill: #384f16;
      }

      .cls-4 {
        fill: #5c7a2d;
      }

      .cls-5 {
        fill: #2a3f11;
      }

      .cls-6 {
        fill: #25350e;
      }

      .cls-7 {
        fill: #496021;
      }

      .cls-8 {
        fill: #cc7d5f;
      }

      .cls-9 {
        fill: #40591e;
      }

      .cls-10 {
        fill: #563a22;
      }
    </style>
  </defs>
  <g id="Layer_1-2" data-name="Layer 1">
    <g id="monstera">
      <g id="m-pot">
        <g id="pot">
          <ellipse class="cls-10" cx="247.49" cy="365.55" rx="76.79" ry="11.74"/>
          <path class="cls-1" d="M171.99,367.1c-2.93-2,6.6-6.12,8.73-6.72,1.72-.49,2.98-1.07,7.1-1.8,3.11-.55,6.39-1.05,7.2-1.16,10.92-1.45,32.34-2.1,32.34-2.1,18.06,0,27.08-.34,32.73,0,24.34,1.47,31.82,2.65,37.44,3.43,3.51.49,12.57,2.04,21.21,4.99,1.25.42,6.29,1.58,3.91,4.63,0,0,4.55-1.5,7.08-4.25.69-.75,1.44-1.35,1.44-1.35-.37-3.4-9.8-7.36-15.57-8.37-19.82-3.48-30.08-4.07-30.08-4.07-18.45-1.07-27.68-1.6-37.71-1.55-9.4.05-17.43.55-33.51,1.55-4.62.29-15,.96-27.11,3.09-4.63.81-5.74,1-11.34,2.32-7.09,1.67-12.31,3.39-13.31,6.27-.46,1.31-.52,2.21-.52,2.21,3.22,1.24,5.4,1.84,9.98,2.9h0Z"/>
          <path class="cls-8" d="M162,364.2c20.26,6.05,35.1,9.47,47.77,10.8,15.12,1.59,37.14,2.01,49.95,1.5,29.72-1.17,33.77-2.07,46.07-3.93,8.66-1.31,10.24-1.4,21.27-7.02,1.01-.52,4.09-2.79,4.09-2.79.91,1.65,2.19,5.62,2.25,9.55.86,63.77-7.02,93.55-7.02,93.55-4.96,12.71-10,25.15-22.75,34.83-4.08,3.1-10.24,6.89-22.19,10.39-14.1,4.13-44.53,11.38-90.74-8.71-12.27-5.33-14.92-18.83-18.26-25.84-4.49-9.41-7.88-20.62-9.55-52.81-.77-14.84-2.09-35.83-.87-59.52Z"/>
        </g>
      </g>
      <g id="m-leaves">
        <g id="m-leaf-left-2">
          <path id="stem8" class="cls-5" d="M212.89,361.16c2.83-21.63-19.85-99.83-24.23-133.08-6.23-47.35-21.85-83.95-34.05-107.18,2.61-.63,5.23-1.27,7.84-1.9,1.95,5.08,4.96,12.84,8.72,22.27,9.74,24.44,13.28,31.93,16.12,39.26,6.23,16.08,3.79,21.83,17.57,86.2,5.6,26.15,23.96,79.94,19.11,93.1-1.21,3.28-8.28,2.33-11.08,1.34Z"/>
          <g id="leaf8">
            <path class="cls-6" d="M146.16,103.29c-7.96,1.46-14.68,5.75-21.2,9.95,4,2.76,9.02,2.66,13.68,3.48s10.1,3.68,10.59,8.17c-7.98-4.68-24.56-8.47-32.21-5.05s-13.86,18.7-14.27,27.13c5.07-.41,17.6-6.73,22.74-6.75s11.09,2.03,13.71,6.61c-7,3.67-16.53-2.64-24.81-2.06-6.14.43-10.97,4.78-13.23,10.09s-2.32,11.46-1.8,17.48c5.87-4.09,14.96-3.77,21.6.76-2.15,4.24-10.59-1.35-14.22,1.73-2.09,1.78-1.18,5.26-.13,8.05,2.71,7.19,5.42,14.38,8.14,21.57,2.25-3.6,7.32-4.46,11.94-4.22s9.41,1.26,13.75.24,8.06-5.11,6.48-9.45c-.96-2.61-3.47-4.49-5.38-6.66s-3.2-5.51-1.4-7.33c7.56,4.1,13.13,11.9,14.18,19.86,7.24-2.07,12.65-8.15,13.75-15.46,1.1-7.31-2.16-15.57-8.28-21.01,3.07-1.28,7.22.62,9.31,3.57s5.97,15.69,5.55,18.98c29.97-17.93,8.09-34.66,1.47-42.96-.38-2.54,6.03,1.48,9.43,6.43,1.14,1.65,4.05,14.93,5.05,14.34.42-.25,4.25-6.53,4.5-6.95,2.13-3.52,2.44-6.94,3.73-10.37,1.97-5.24,2.14-12.59-2.82-17.92-4.53-4.86-11.26-3.09-16.71-6-12.89-6.88-15.95-19.42-33.12-16.27Z"/>
            <path class="cls-3" d="M175.08,116.9c-.73,3.17-3.1,7.45-5.36,9.71.5-2.25-1.42-4.6-3.38-6.26-4.11-3.49-9.09-5.99-14.24-7.15,2.99,1.93,7.34,3.4,10.33,5.33,2.25,1.45,5.71,5.5,6.13,7.97.33,1.92-2.63,3.95-3.91,5.26-1.5,1.54-1.74,1.41-3.21,3.05-.35.39-1.91.93-2.44,1.05-.62.14-1.3-.12-1.93-.38-5.43-2.25-11.27-3.61-16.94-4.55s-7.21-.18-14.93,2.64c9.79-2.08,20.16-1.42,30,2.85.35.15,2.13.62,2.25.97.1.29-.92.86-1.02,1.08-.45,1.03-1.36,2.49-2.28,3.15-4.77,3.44-5.86,6.75-10.11,10.5-2.53,2.23-4.3,4.47-6.71,5.34-.58.21-1.38-.1-2.11-.23-6.79-1.16-9.27-.42-13.22.73-6.4,1.87-11.66,3.65-16.39,7.97,9.09-2.58,17.31-8.17,27.17-7.44,1.06.08,3.66.98,3.66.98.1.42-1.22,2.75-1.36,3.14-1.77,4.74-3.63,7.95-5.89,12.44-1,1.98-2.38,4.62-4.06,6.07s-2.27,2.45-9.92,1.9c.69.28,5.73,1.17,7.4.71.37-.1,1.97-.6,1.82-.36-1.9,2.95-5.78,7.53-7.43,10.64,5.26-4.97,9.76-10.69,13.36-16.95,1.22-2.12,2.33-4.31,3.16-6.63,1.25-3.5,2.54-5.5,4.31-8.73,3.23,4.05,5.75,6.3,8.97,10.35,1.87,2.35,3.78,4.77,4.73,7.51-.92-6-5.42-11.27-9.94-15.91-1.28-1.31-1.6-1.76-1.61-3.44,0-1.58.23-2.21,1.39-3.21,6.55-5.62,13.02-12.84,19.57-18.46,5.02,3.25,9.13,7.93,11.57,13.18,2.38,5.14,3.15,10.65,3.75,16.05.26-8.52-.61-16.28-6.39-23.5-2.03-2.53-4.75-5.15-7.25-7.26,2.67-2.38,4.77-5.72,7.15-8.09,1.73-1.71,3.13-4.86,4.76-5.9,0,0,4.06,1.47,5.35,2.09,3.18,1.53,5.62,4.38,7.19,7.45s2.37,6.36,3.08,9.61c.66-4.04-.5-8.53-3.13-12.16s-6.7-6.35-11.03-7.38c-.34-.08-.79-.43-.79-.43.48-.52.84-.75,1.03-.89,1.34-1,3.59.31,4.28-1.2-2.15-.92-3.48-1.88-5.43-3.22Z"/>
          </g>
        </g>
        <g id="m-leaf-left-1">
          <path id="stem1" class="cls-5" d="M226.99,368.27c-3.51-5.6-14.09-31.72-21.07-53.03-5.39-16.44-18.62-31.33-45.09-61.1-10.34-11.64-25.17-27.14-44.67-43.96.47-1.73.94-3.46,1.4-5.19,13.54,10.43,28.55,23.38,43.82,39.27,9.59,9.97,21.98,22.92,35.4,42.37,10.68,15.49,17.19,29.51,30.2,57.55,4.97,10.71,10.18,22.68,6.85,25.28,0,0-6.15-.07-6.85-1.19Z"/>
          <g id="leaf1">
            <path class="cls-9" d="M33.45,238.75c7.08-4.65,12.66-9.46,19.75-14.1,1.16-.76,2.38-1.59,2.82-2.98.28-.89.07-1.9-.67-2.46-1.16-.88-2.7-.09-3.87.69-3.53,2.36-7.03,4.78-10.48,7.24-1.89,1.35-3.81,2.74-5.19,4.61-1.31,1.75-1.24,5.11-2.35,7,0,0-10.58,9.65-14.68,13.34-2.15,1.93-4.39,2.99-8.08,6.96,0,0-.44.61-1.78-2.29-.52-1.11-1.86-2.6-2.42-3.69-1.83-3.5-4.71-6.71-5.7-10.53-1.86-7.2.07-9.07.85-13.06.86-4.38,2.91-6.15,6.74-8.43,2.88-1.71,6.29-3.29,8.89-5.53,2.01-1.74,4.31-3.11,6.84-3.93,12.69-4.15,25.07-9.24,37.02-15.21.63-.32,1.32-.7,1.52-1.38.18-.62-.12-1.29-.55-1.78-1.62-1.83-4.49-1.61-6.89-1.13-17.32,3.45-33.42,12.71-45.1,25.95-1.02-7.63.28-15.49,3.14-22.64.94-2.36,2.06-4.66,3.6-6.68,2.6-3.41,6.31-5.86,10.26-7.55,10.55-4.53,22.54-3.93,33.94-2.5,2.76.35,5.9.63,8.01-1.18-1.28-2.08-3.55-3.33-5.81-4.27-11.05-4.6-24.27-3.61-34.52,2.58,6.28-10.48,15.23-19.44,26.01-25.19s23.38-8.22,35.46-6.36c3.44.53,6.94,1.44,9.44,4.1.7.74,1.26,1.61,1.61,2.57,2.07,5.62-3.64,9.39-4.54,14.49-.54,3.09.67,6.65-1.17,9.2-.45.63.27,1.91.91,2.34,1.85-.95,2.62-3.13,3.3-5.09,2.34-6.76,5.71-13.53,11.53-17.68s14.61-4.83,19.78.12c5.8,5.55,4.76,14.88,6.67,22.68,1.76,7.18,7.78,11.71,10.44,18.61.77,1.99.48,5.78-.19,7.9-.61,1.9-3.14,9.09-4.42,8.95-1.5-.16-.42-6.22-3.48-8.95-8.61-7.72-14.49-14.27-24.23-12.44-.6.11-1.16.42-1.53.9-1.22,1.59.55,3.43,2.15,4.36,6.08,3.51,13.19,5.35,18.46,9.98,4.98,4.38,7.8,11.1,7.44,17.72s-3.9,13-9.32,16.81c-.65.46-1.41.91-2.3.23-.62-.47-.91-1.24-.88-2.02.24-8.18-3.62-16.36-10.08-21.38-.67-.52-1.62-.56-2.26,0-.88.77-.35,1.9.17,2.76,2.22,3.65,4.57,7.37,5.23,11.59,1.17,7.56-3.54,15.05-9.82,19.41s-13.91,6.22-21.35,8c3.19-12.68,2.21-26.38-2.78-38.47-.5-1.22-1.61-2.14-2.92-2.25-1.48-.12-2.11.87-2.55,1.85-2.09,4.7-.81,10.18.98,15.01s4.11,9.65,4.04,14.79c-.1,7.18-5.01,13.61-11.07,17.47s-13.18,5.62-20.17,7.32c.82-3.08,4.15-4.68,6.19-7.13,2.5-2.98,2.99-7.11,3.37-10.98.54-5.35,1.07-10.7,1.61-16.05.15-1.53.26-3.24-1.28-4.23-.97-.62-2.22-.6-3.25-.08-2.22,1.11-3.02,3.47-3.72,5.68-2.71,8.52-5.42,17.05-7.3,25.78-1.55,7.23-2.94,15.29-8.77,19.83-3.02,2.36-6.9,3.43-9.9,5.82-3.51,2.81-5.51,7.41-5.16,11.89-3.04-.63-3.06-4.84-3.92-7.81-1.95-6.75-10.88-9.55-12.88-16.28-1.03-3.46.05-7.15,1.12-10.59-2.94-.39-4.07,3.7-4.04,6.67-3.44-6.84-3.63-13.2,1.32-18.59"/>
            <path class="cls-4" d="M96.64,177.94c1.39-.16,2.56-1.13,3.37-2.27s1.32-2.45,1.95-3.7c2.53-4.97,7.13-8.84,12.46-10.49-1.86.92-3.36,2.43-4.82,3.9-1.73,1.75-3.49,3.54-4.61,5.73-.66,1.29-1.08,2.69-1.76,3.96-.92,1.72-2.33,3.17-4.01,4.15-.52.3-1.07.57-1.45,1.04s-.5,1.2-.1,1.64c.21.23.53.34.83.43,3.29.97,6.76,1.16,10.19,1.33,1.33.07,2.68.14,4-.06,1.31-.19,2.57-.64,3.87-.87,1.93-.35,3.92-.25,5.88-.12,2.77.18,5.57.42,8.23,1.21s5.21,2.2,6.94,4.38c-5.37-1.84-10.93-3.72-16.59-3.22-1.61.14-3.2.47-4.79.76-5.69,1.04-11.66,1.55-17.16-.25-1.13-.37-2.33-.84-3.46-.49-.98.29-1.68,1.13-2.32,1.92-.98,1.2-1.95,2.4-2.93,3.6,6.76,2.52,12.64,7.37,16.11,13.69s4.95,13.61,4.95,20.82c-2.09-11.86-8.2-23.65-18.22-30.33-1.39-.92-3.66-3.08-5.18-2.41-.93.41-2.93,3.62-3.44,4.49-.65,1.11-1.46,2.47-1.97,3.65-.31.71-.62,1.32-.46,2.07.21.99,2.27,1.48,3.1,2.05,2.93,2.04,5.87,4.07,8.8,6.11,1.65,1.15,3.34,2.33,4.55,3.94.73.97,1.26,2.07,1.79,3.16,1.54,3.2,3.1,6.55,3.11,10.1.01,5.37-3.5,10.18-4.04,15.53,1.54-4.52,1.62-9.4,1.68-14.18.03-2.3.05-4.66-.66-6.85-1.17-3.63-4.19-6.34-7.34-8.49s-4.09-2.4-7.16-4.83c-1.42-1.13-4.1-4.13-5.79-3.47-4.39,1.73-7.14,6.23-9.74,10.16-.18.27-.36.56-.39.88-.03.4.17.77.36,1.12.78,1.49,1.26,3.13,1.73,4.75.84,2.89,1.67,5.78,2.51,8.67,1.15,3.97,2.31,8.01,2.33,12.15.02,4.43-1.28,8.75-2.56,12.99-.59,1.95-1.21,3.95-2.45,5.56,1.66-4.04,2.66-8.35,2.95-12.71.68-10.45-2.71-20.69-6.06-30.61-2.29,2.16-4.61,4.35-6.28,7.01-1.72,2.74-2.69,5.86-3.72,8.92-3.1,9.2-6.93,18.15-11.44,26.75,3.28-11.25,6.57-22.53,11.11-33.34-.52.34-1.2,1.05-1.63,1.49-4.81,4.83-10.96,8.31-17.58,9.94.5-.52,1.14-.87,1.77-1.21,1.77-.97,3.55-1.93,5.42-2.71.83-.34,1.68-.66,2.4-1.19.65-.49,1.17-1.13,1.74-1.71,2.61-2.66,5.88-4.53,8.28-7.39,6.84-8.15,10.74-13.83,16.82-19.96-8.03-.61-16.01,1.59-23.53,4.44-7.53,2.86-14.81,6.39-22.54,8.64,6.63-3.07,13.26-6.14,19.89-9.21,2.07-.96,4.15-1.92,6.31-2.67,6.14-2.13,12.72-2.47,19.18-3.15.62-.07,1.27-.14,1.8-.48.52-.33.87-.86,1.2-1.38,2.4-3.76,4.8-7.51,7.2-11.27-4.96.93-9.88-1.46-14.89-2.04-3.22-.37-6.47,0-9.7.13-7.86.31-16.1-.81-23.29,2.36,2.25-1.87,5.21-2.64,8.1-3.13,6.16-1.05,12.44-1.08,18.69-1.09,6.46-.02,13.04,0,19.17,2.03,1.06.35,2.22.76,3.25.34.84-.34,1.87-1.46,2.48-2.12,1.49-1.62,2.86-2.42,3.86-4-2.99-2-7.53-4.43-10.63-6.26-4.33-2.56-8.71-5.02-13.1-7.48-2.38-1.34-4.78-2.68-7.41-3.44-3.91-1.12-8.09-.86-12.07-1.7,4.37-.66,8.94-1.32,13.15.06,2.98.97,5.54,2.88,8.22,4.49,7.04,4.22,15.25,6.53,21.56,11.77.37.31.79.65,1.27.6.61-.06.99-.76.94-1.38s-.4-1.16-.72-1.68c-1.98-3.27-3.15-6.95-4.29-10.6-.93-2.96-1.86-5.92-2.79-8.88-1.02-3.24-2.05-6.56-1.89-9.95,2.46,3.44,3.83,7.51,5.17,11.52,2.05,6.14,4.23,12.17,6.28,18.3Z"/>
          </g>
        </g>
        <g id="m-leaf-left-4">
          <path id="stem6" class="cls-5" d="M187.15,239.96c3.42,3,8.22,10.43,13.01,15.89,0,0,11.07,12.63,18.33,26.76,8.84,17.2,14.08,49.43,7.58,87.86,3.98,1.57,7.77,2.25,8.31.46,5.12-17.2,10.66-48.8-9.73-90.09-8.1-16.41-24.67-37.19-32.48-42.88-1.64,1.18-1.09,1.47-5.02,2Z"/>
          <g id="leaf6">
            <path class="cls-5" d="M189.55,239.07c-2.62.03-4.77-2.25-5.61-4.74s-.68-5.16-.78-7.78-.52-5.39-2.25-7.36c-1.37-1.57-3.38-2.41-5.34-3.09-9.61-3.36-20.09-4.22-30.12-2.49-2.93.51-5.84,1.24-8.48,2.6-3.2,1.66-5.87,4.17-8.48,6.65-1.21,1.15-2.42,2.29-3.63,3.44-6.56,6.21-13.56,13.35-14.02,22.37,6.83-2.73,13.7-5.48,20.92-6.87s14.89-1.35,21.71,1.39c1.23.49,2.65,1.73,1.95,2.86-9.35-2.94-19.45-3.48-29.06-1.56-2.48.49-4.94,1.16-7.19,2.32-4.7,2.43-8.19,7.1-9.19,12.3-.75,3.9-.16,7.94-.49,11.9-.09,1.08-.25,2.16-.21,3.24.04.99.24,1.96.45,2.93.68,3.24,1.36,6.48,2.05,9.72,8.68-14.87,23.38-26.1,40.01-30.56,3.43-.92,7.04-1.56,10.52-.87.72.14,1.5.4,1.86,1.04.45.82-.06,1.91-.86,2.41s-1.78.56-2.72.63c-7.87.52-15.75,1.68-23.22,4.22-6.56,2.24-13.23,6.05-15.81,12.48-1.91,4.78-1.23,10.21.27,15.13,2.22,7.32,6.18,14.11,11.45,19.65.13-12.73,8.71-24.96,20.63-29.43,1.52-.57,3.14-1.03,4.75-.83s3.21,1.2,3.7,2.75c.88,2.82-2.04,5.25-4.56,6.78-4.52,2.75-9.01,5.61-12.86,9.25s-7.03,8.12-8.37,13.24c2.43,3.76,6.82,6.11,11.07,7.51s8.72,2.13,12.88,3.77,8.17,4.39,9.94,8.5c-1.81-3.41-.07-7.86,2.98-10.24s7.04-3.11,10.88-3.51c3.33-.35,6.68-.49,10.03-.44,5.72.1,11.88.68,16.76-2.31,2.6-1.59,4.54-4.04,6.42-6.44,2.19-2.79,3.21-6.08,3.07-9.62-.08-1.87-.37-3.05-1.06-4.68-5.04-11.91-8.55-13.88-15.8-20.3-2.13-1.89-5.89-4.39-5.46-7.21.12-.77.4-1.59,1.06-2.01.45-.28,1-.33,1.52-.35,8.16-.29,15.35,6.15,18.55,13.66,3.2,7.51,3.27,15.93,3.29,24.1,7.05-4.76,12.77-10.69,16.67-18.24,1.61-3.12,2.92-6.75,1.83-10.09,1.75,2.05,2.45,4.96,1.81,7.59,4.56-3.82,12.49-8.94,14.86-14.39,1.72-3.96,2.73-5.21,3.16-9.5.23-2.32-.44-4.64-1.45-6.74-.96-1.99-2.25-3.88-4.04-5.18-2.06-1.49-4.6-2.1-6.97-3-3.49-1.33-6.72-3.34-9.44-5.9,1.84-.71,3.9-.32,5.79.24,6.44,1.94,12.26,5.9,16.42,11.18,1.86-4.98-.38-10.46-2.57-15.29-1.04-2.29-2.08-4.58-3.42-6.72-2.78-4.46-6.76-8.09-11.19-10.92-7.53-4.81-16.42-7.36-25.34-7.7-3.28-.12-6.62.05-9.75,1.07-8.53,2.77-14.07,11.51-15.42,20.38-.51,3.37-.7,9-4.11,9.03Z"/>
            <path class="cls-3" d="M197.18,240.93c8.67-.3,15.63-1.61,24.29-1.06,8.66.55,17.65,3.35,23.32,9.92-4.42-2.76-8.96-5.57-14.06-6.68-2.12-.46-4.3-.62-6.47-.77-9.96-.68-23.2.24-31.28,1.25-1.59.2-3.24.92-3.58,1.37-.97,1.27-3.02,4.12-2.81,5.71,10.48-.43,23.28.56,32.77,5.03,9.49,4.47,17.48,13.17,18.83,23.57-3.33-2.62-3.33-7.67-5.64-11.23-.89-1.37-2.11-2.49-3.39-3.51-5.63-4.49-13.77-8.67-20.79-10.27s-12.62-1.01-19.8-1.55c-.62-.05-1.96-.35-2.45.03-.41.31-1.19,1.39-1.35,1.89-1.13,3.44-2.21,4.53-2.5,10.38,3.49,2.35,6.68,5.31,10.12,7.73,3.28,2.3,6.62,4.78,8.56,8.28,2.29,4.14,2.31,9.13,2.03,13.85-.75-6.1-1.75-12.71-6.2-16.95-1.36-1.3-2.98-2.29-4.59-3.27-3.62-2.22-6.66-5.59-10.28-7.81-1.96,6.5-2.56,13.86-4.46,20.38-1.42,4.9-6.64,17.13-6.3,14.26,1.45-4.92,2.9-9.84,4.36-14.76,1.4-4.75,2.81-9.57,2.83-14.52.01-3.4.87-7.9.8-10.94-5.97,2.23-8.26,2.3-14.22,4.53-2.52.94-9.16,3.06-11.59,4.21-4.82,2.28-8.39,4.72-12.75,7.8-3.03,2.14-6.79,6.53-8.92,9.56.38-3.45,2.83-6.29,5.4-8.63,10.88-9.91,25.35-14.79,39.58-18.55.41-.11,1.5-.3,1.9-.43.68-.24,1.13-1.54,1.23-1.97.58-2.44.97-3.23,1.55-5.67-10.96-2.16-23.14-2.31-34.02-1.35-4.93.43-18.2,5.76-15.26,3.98,7.06-3.6,14.95-5.57,22.87-5.72,8.52-.16,18.87-1.66,26.92,1.16,1.34-2.34,1.44-3.92,2.69-5.97-4.61-1.03-8.99-3.1-12.7-6.02-4.53-3.57-8.17-8.42-13.43-10.78-3.87-1.73-8.22-1.92-12.45-2.09,5.28-1.33,11.04-.65,15.87,1.86,7.13,3.71,12.13,11.15,19.81,13.53.91.28,1.89.49,2.8.23s1.3-2.77,1.23-3.72c2.32,2.53,5.72,2.74,6.82-.79-.27.71-.28,1.71.38,2.08.21.12.46.14.7.13,1.09-.05,2.09-.58,3.02-1.14,2.68-1.61,10.08-7.27,12.86-8.71s15.32-3.7,18.37-3c-3.25.67-12.96,2.05-15.98,3.42-.57.26-8.83,5.25-9.35,5.58-.77.48-1.45,1.08-2.19,1.6-1.49,1.05-3.59,2.42-5.29,3.08-.99.38-3.38,1.11-3.57,1.53-.34.76,4.75.02,5.76-.07Z"/>
          </g>
        </g>
        <g id="m-leaf-right-3">
          <g id="leaf3">
            <path class="cls-6" d="M315.48,227.71c-5.96,1.28-11.79,4.43-14.95,9.64-2.99,4.92-3.27,11.12-2,16.74,1.27,5.62,3.94,10.8,6.59,15.92.29-12.31,10.94-23.57,23.31-24.26,1-.06,1.97.52,2.3,1.46.48,1.36-.75,2.34-1.86,2.95-7.29,3.98-17.63,5.46-18.44,14.88-.16,1.9.13,3.81.74,5.62,2.8,8.35,7.14,16.17,12.72,22.98.76.93,2,1.39,3.17,1.09,2.08-.54,2.11-2.9,2.03-4.78-.39-9.14,5.12-16.19,13.97-18.52-5.9,4.85-7.38,9.63-10.39,16.19-.33.72-.6,1.46-.74,2.24-1.3,6.93,4.94,13,9.66,16.55,6.2,4.67,9.24,10.23,5.12,16.81,3.52-3.24,8.37-4.55,13.04-5.6,5.85-1.31,11.99-2.47,16.24-7.16,1.84-2.03,2.95-4.66,2.82-7.39-.27-5.88-6.6-11.78-10.7-15.01-3.45-2.73-4.58-9.32-2.84-7.93,6.65,6.92,11.68,15.39,14.59,24.54,2.82-1.36,3.23-4.87,4.1-7.88.93-3.21,1.21-6.84-.06-9.71-2.34-5.3-4.7-10.14-9-15.22-1.03-1.22-.22-3.15,1.38-3.14h.03c1.55.13,8.31,15.96,8.59,24.85,5.46-7.2,8.32-22.73,6.03-31.46-2.29-8.74-8.13-11.92-17.02-13.5-2.7-.48-7.9.81-9.04-1.68,6.61-.94,14.58.95,20.35,4.32,1.41.82,2.35,2.46,2.35,2.46,1.4-.4-1.04-5.88-1.69-6.96-6.97-11.66-20.62-20.63-34.07-18.72-7.03,1-5.16,1.63-17.83-.61-5.93-1.05-12.56-.95-18.47.31Z"/>
            <path class="cls-3" d="M344.75,231.21c0,1.58,0,4.53-3.4,4.21-6.23-.58-12.72,1.37-18.44,3.9s-11.97,5.47-14.46,11.21c2.33-2.62,5.1-4.85,8.17-6.56,6.96-3.88,15.07-4.95,22.97-5.95,1.26-.16,2.58-.32,3.78.11,2.91,1.03,3.68,4.71,4,7.79.06.57.11,1.15-.08,1.69-.36,1.02-2.55,3.13-3.85,4.15-4.37,3.41-7.46,4.46-11.25,8.5-2.68,2.86-5.41,5.78-7.14,9.3-1.74,3.52-2.37,7.79-.75,11.37-.21-4.54,1.14-9.14,3.77-12.85,2.3-3.25,5.48-5.76,8.61-8.21,3.46-2.72,6.92-5.44,10.39-8.15-.46,5.77-.2,11.59.78,17.29.16.91.33,1.85.15,2.76-.16.76-.55,1.44-.92,2.11-3.77,6.79-5.97,14.44-6.4,22.19,3.28-6.28,2.08-11.33,7.93-21.11,2.16,5.91,3.15,13.41,4.4,19.57,1.17,5.73,2.33,11.69.87,17.35,2.73-4.15,2.63-9.55,1.67-14.43-.96-4.87-2.69-9.64-2.88-14.6-.12-3.13-.91-4.19-1.53-8.86,2.75-1.41,8.42,7.47,9.58,12.73.41-5.47-2.29-11.06-6.83-14.14-.83-.56-2.07-.84-2.41-1.78-1.19-3.33-.52-6.93-1.09-10.93,11.57,5.36,21.55,16.53,26.66,28.21-3.59-11.73-11.84-21.96-22.54-27.95-1.04-.58-2.16-1.18-2.74-2.21-.49-.87-1.14-1.37-1.17-2.37-.08-2.72.44-5.98.36-8.7,8.63,3.34,16.13,9.14,22.55,15.81-3.96-6.68-10.02-12.09-17.11-15.26-1.51-.67-4.29-1.81-5.28-3.14-.59-.79-.89-5.07-1.18-6.01q-1.16-3.81-2.32-7.63c-.79-2.59-3.24.81-2.89.58Z"/>
          </g>
          <path id="stem3" class="cls-5" d="M242.68,363.54c8.67-2.25,10.78-19,18.82-38.37,5.65-13.59,10.57-25.06,20.68-37.08,3.48-4.13,9.36-11.02,18.96-17.34,11.01-7.24,16.72-7.04,29.5-14.06,5.68-3.12,13.46-8.06,21.91-15.8-.54-.85-1.08-1.7-1.62-2.55-3.84,3.43-10.13,8.5-18.77,13.08-15.38,8.14-24.18,7.27-36.24,15.8-5.39,3.81-8.86,8.09-15.8,16.64-10.22,12.59-14.9,21.76-26.82,42.56-4.21,7.36-10.49,24.83-18.42,38.03,1.98.73,4.62-.11,7.79-.92Z"/>
        </g>
        <g id="m-leaf-left-3">
          <path id="stem4" class="cls-3" d="M218.45,68.3c-.61,18.02-.86,45.87,1.83,79.81,4.5,56.91,13.28,81.02,16.64,133.62,1.31,20.6,2.12,50.71-1.05,87.74,5.79,1.91,10.19,1.99,11.37-.03,4.89-8.42,1.15-45.43-3.77-122.9-1.92-30.21-6.65-42.21-11.25-67.25-4.33-23.6-2.51-29.3-5.19-48.19-2.32-16.36-3.51-40.23,2.75-70.55-3.77,2.59-7.54,5.18-11.31,7.77Z"/>
          <g id="leaf4">
            <path class="cls-5" d="M277.38,59.13c-1.93-1.91-4.04-3.74-6.57-4.76-6.63-2.66-14.01.88-21.15,1-1.02.02-2.06-.04-3.05.22-1.19.31-2.22,1.05-3.29,1.66-4.07,2.32-8.9,2.82-13.56,3.28,2.95-4.18,7.68-5.99,12.68-7.06,1.91-.41,3.99-.73,5.36-2.12,1.34-1.37,1.64-3.48,1.38-5.37-.48-3.41-2.53-6.41-4.93-8.88-11.93-12.19-31.65-12.69-45.42-22.75-3.2-2.34-6.04-5.17-9.44-7.22-6.4-3.86-13.67-7.19-21-5.72-7.32,1.47-13.06,4.82-19.28,8.95-3.3,2.2-6.43,4.42-10.96,5.06-4.03.56-9.93,1.9-13.59,3.7-3.65,1.8-6.57,6.41-5.14,10.22.05.13.29.92.58,1.76-.74.31-1.5.66-2.27,1.05-1.72.87-5.6,6.11-6.24,7.92-2.93,8.21-3.15,12.42-6.08,20.64,8.32-4.84,17.94-7.12,27.54-7.79,9.6-.67,19.24.23,28.79,1.39,4.51.55,9.58,1.5,12.08,5.3-.34,1.25-2.05,1.37-3.33,1.19-12.29-1.64-24.74-5.37-36.87-2.81-3.34.71-6.57,1.88-9.86,2.81-5.85,1.65-11.9,2.53-17.67,4.44-5.77,1.91-11.4,5.04-14.77,10.09,5.75-4.96,13.65-6.42,21.19-7.34,11.28-1.39,22.66-2,34.03-1.83-13.41,2.08-26.83,4.16-40.24,6.23-2.39.37-4.93.81-6.74,2.41-2.48,2.2-2.86,5.91-2.58,9.21s1.05,6.66.23,9.87c-.69,2.69-2.45,5.01-4.58,6.8,4.38-1.12,10.86,1.96,8.31,7.81-.62,2.87,10.14-4.83,13.97-4.75,3.84.08,2.56.91,6.01,2.6,2.6,1.28,6.41,1.24,8.45,3.3,2.49,2.51,6.34,3.33,9.83,2.74,3.48-.6,6.64-2.46,9.4-4.66.91-.73,1.81-1.52,2.43-2.5.84-1.32,1.15-2.9,1.52-4.42,1.19-4.85,3.63-9.92,8.24-11.84.82-.34,1.74-.57,2.58-.31,1.51.47,2.16,2.38,1.77,3.91-.39,1.53-1.52,2.75-2.65,3.86-8.17,8.07-17.87,14.38-27.5,20.63-2.42,2.49,17.07-5.33,25.97-5.55,5.47-.13,11.49.19,15.74-3.24,2.67-2.16,4.14-5.46,5.09-8.76.95-3.3,1.49-6.72,2.77-9.91,1.28-3.18,3.47-6.21,6.66-7.47,3.19-1.26,7.42,1.05,6.74,4.41-1.15,5.68-3.87,8.89-6.53,12.3-7.89,10.11-8.44,20.42-18.36,28.55-1.42,1.76,4.62-2.25,7.1-2.84,12.6-2.99,25.89-1.64,38.57-4.29,12.6-2.63,24.33-9.3,33.04-18.78,1.38-1.51,2.74-3.18,3.09-5.2.61-3.58-2.09-6.78-4.59-9.41-1.88-1.97-3.76-3.94-5.65-5.91-.57-.6-1.18-1.28-1.18-2.11,0-1.16,1.27-1.99,2.43-1.92,1.15.06,2.17.76,3.07,1.48,5.95,4.76,9.98,11.85,11.03,19.4,5.49-3.76,10.45-8.23,15.38-12.7,4.01-3.62,8.31-7.85,8.55-13.24.21-4.92-3.07-9.27-6.56-12.73ZM159.09,30.34c-7.35-1.23-14.85-1.09-22.31-.95-4.47.09-6.69.1-11.16.26-.4.01-.83.07-1.26.13.81-.77,1.57-1.42,2.01-1.6,17.32-7.1,34.76-4.46,51.15,4.59,1.66.91,3.48,2.27,3.41,4.16-7.14-2.66-14.33-5.33-21.84-6.59ZM209.62,40.03c-.39,1.26-1.64,2.33-2.95,2.14-.71-.1-1.33-.54-1.89-.99-4.48-3.54-7.85-8.26-11.71-12.47-3.86-4.21-8.56-8.07-14.19-9.02-2.08-.35-5.77-.07-7.15-1.89,1.17-.7,2.79-.53,4.14-.73,2.56-.37,5-1.35,7.57-1.65,4.42-.51,8.86,1.3,12.4,4s6.32,6.26,9.05,9.77c1.69,2.17,3.4,4.38,4.38,6.95.47,1.24.76,2.61.36,3.88Z"/>
            <path class="cls-3" d="M164.59,77.24c-5.05,1.91-25.56,10.04-31.38,12.61-1.62.72-3.8,2.8-9.91,4.94-.53.18.77-1.08.96-1.19,13.38-8.39,39.11-17.15,49.52-21.66-8.4-3.04-18.21-6.11-27.09-7.11,10.26-.02,20.69,2.3,30.13,6.32,8.21-1.37,16.4-3.1,25.67-5.03-23.67-15.87-30.98-20.79-48.15-23.32,8.33-.07,16.66,1.92,24.06,5.75,2.62,1.35,5.11,2.93,7.6,4.5,1.83,1.16,3.66,2.31,5.49,3.47,3.02,1.9,6.03,3.81,9.03,5.74,1.1.71,3.09,2.83,4.37,3.09,0,0,4.82-.86,6.74-1.63-9.89-6.92-21.36-14.75-31.24-21.67-.85-.6-1.72-1.21-2.37-2.02,11.66,4.66,31.11,20.65,35.69,23.07.29.15,2.12-.18,1.9-.42-3.34-3.52-7.08-6.64-10.85-9.32-1.87-1.33-4.4-4.41-6.11-5.94-3.1-2.79-5.7-7.5-8.57-10.51-6.63-6.96-13.99-9.54-22.61-12.8-2.73-1.04-5.86-2.12-8.78-2.24-1.97-.09-5.41.46-6.98-.73,11.61-1.85,22.92,3.98,33.23,9.63,1.88,1.03,3.78,2.07,5.3,3.58,1.32,1.31,2.3,2.92,3.36,4.45,5.54,8.08,13.2,14.43,20.75,20.66,1.18.97,3.89,3.11,5.23,2.37.76-8.37,1.12-18.12-.97-26.59-1.09-4.42-5.81-6.96-9.69-9.35-1.08-.66-2.33-1.77-1.83-2.93l10.59,8.3c.93.73,1.65,1.71,2.05,2.82,1.36,3.79,1.71,6.09,1.72,9.32.01,6.06-.27,12.55-.5,18.6-.01.27.71.21.71.21,4.09-4.86,7.32-8.59,12.71-12.83-3.11,3.41-3.67,3.73-6.86,7.38-.89,1.02-5.85,5.44-3.96,5.9l7.54-5.01c.48-.22,1.26.05.89.42l-6.55,4.87c4.89,1.61,10.85,1.29,15.98,1.77,8.09.76,15.73,5.38,20.17,12.18-5.66-6.75-14.2-11.01-22.99-11.47-2.78-.14-5.6.07-8.34-.39-3.31-.56-6.7-2.08-9.89-1.01-1.24.76,1,1.45,1.78,2.01,6.2,4.45,10.6,8.76,13.5,14.97,2.9,6.2,4.38,12.96,5.84,19.65-2.78-10.12-5.85-20.74-13.38-28.05-2.27-2.2-4.87-4.02-7.46-5.83-.86-.6-1.77-1.22-2.82-1.32-.71-.06-1.41.12-2.1.3-2.49.67-4.99,1.33-7.48,2,.07.72.28,1.21.61,1.84.06.1.09.24.18.4,3.46,6.06,4.3,12.53,3.33,19.54-.71,5.12-2.4,10.06-4.81,14.63-2.08,3.95-4.55,8.25-8.52,10.57,7.74-8.52,12.02-20.09,11.68-31.6-.08-2.69-.41-5.4-1.39-7.9-.83-2.13-2.12-4.05-3.39-5.95-.18-.27-.37-.55-.67-.68-.32-.15-.69-.09-1.04-.03-3.88.68-7.97,1.1-11.83,1.93-2.18.47-6.38,1.69-6.38,1.69-1.56,1.57-2.51,2.69-3.63,5.43-2.35,4.71-3.82,7.59-5.11,12.69-.55,2.19-1.19,8.08-3.28,8.94,1.07-1.32,1.23-3.13,1.45-4.82,1.02-7.54,4.34-14.54,7.61-21.41-2.28-.07-4.52.55-6.72,1.18-3.63,1.03-8.18,1.71-11.71,3.05Z"/>
          </g>
        </g>
        <g id="m-leaf-middle">
          <path id="stem2" class="cls-5" d="M253.22,357.56c.53-7.97,1.54-8.05,3.09-29.53.09-1.26.44-4.73,1.12-11.66,2.03-20.48,3.03-28.14,3.79-35.96,1.22-12.49,1.42-21.57,1.83-39.75.45-20.26-.2-17.82,0-47.9.18-25.7.75-41.4,5.02-61.1.72-3.34,1.4-6.07,1.86-7.87,1.47-.06,2.94-.12,4.42-.17-1.6,7.73-3.22,17.11-4.42,27.85-.82,7.41-1.98,18.12-1.86,31.88.12,13.31,1.31,15.07,1.79,32.83.2,7.69.13,12.95,0,22.12-.15,10.72-.38,26.6-1.79,44.88-1.33,17.24-2.34,18.83-3.94,35.4-1.12,11.63-2.34,28.62-2.28,49.69-3.75,1.1-8.26,1.95-9.69,0-1.23-1.67.84-7.42,1.05-10.71Z"/>
          <g id="leaf2">
            <path class="cls-2" d="M274.01,120.13c-1.87-6.87-4.25-13.6-7.13-20.11-2.69-6.1-6.19-12.39-12.17-15.35-3.31-1.64-7.08-2.08-10.76-2.38-8.96-.72-18.24-.66-26.61,2.63-8.37,3.29-15.72,10.36-17.16,19.24,5.01-2.39,10.07-4.8,15.46-6.12s11.21-1.51,16.39.5c.94.37,1.9.84,2.46,1.68s.56,2.13-.25,2.73c-.53.39-1.23.4-1.89.4-8.21-.04-16.43.28-24.61.95-1.72.14-3.47.31-5.08.94-1.77.7-3.27,1.93-4.6,3.29-8.13,8.27-10.18,20.58-11.82,32.06-.22,1.52-.31,3.38.94,4.28,3.56-1.84,6.09-5.13,9.13-7.73,7.81-6.68,18.56-8.5,28.76-9.68,6.86-.79,13.73-1.41,20.62-1.85-17.62,7.54-36.82,10.67-54.78,17.36-1.59.59-3.28,1.3-4.18,2.74-.64,1.02-.79,2.27-.92,3.47-.47,4.35-.93,8.81.18,13.05,1.17,4.49,4.03,8.39,5.32,12.85,1.48,5.16.97,11.21,4.5,15.24,2.3-5.8,2.3-12.74,6.45-17.41,2.43-2.74,5.95-4.25,8.72-6.66,2.2-1.91,3.88-4.36,6.02-6.35,2.01-1.88,4.38-3.32,6.81-4.63,7.09-3.81,14.78-6.52,22.7-7.99-.01,1.47-1.64,2.3-3.02,2.79-5.47,1.94-11.06,3.65-16.24,6.29-9.17,4.67-16.64,12.02-23.95,19.26-.95.94-1.92,1.91-2.43,3.15-1.5,3.64,1.49,7.4,3.54,10.76,2.11,3.46,3.34,7.38,5.18,10.99s4.52,7.07,8.33,8.45c1.92-6.42,3.84-12.84,5.76-19.26.98-3.27,1.97-6.57,3.58-9.57,3.21-5.97,8.65-10.38,14.06-14.46,1.92-1.45,4.34-2.96,6.58-2.08-.03,2.73-1.91,5.03-3.7,7.09-2.48,2.86-4.96,5.73-7.44,8.59-3.35,3.87-6.73,7.78-9.11,12.32-3.36,6.41-4.56,13.93-3.35,21.06,2.34,13.83,26.54,11.85,34.11,23.66,1.91-6.76,8.51-10.87,14.41-14.68s12.15-8.88,12.59-15.89c.21-3.42-1.04-6.75-2.27-9.94-3.73-9.67-7.46-19.35-11.19-29.02-.67-1.74-1.36-3.57-1.14-5.43s1.65-3.72,3.51-3.73c.85,0,1.66.36,2.39.79,4.39,2.62,6.61,7.68,8.56,12.41,2.07,5.02,4.13,10.03,6.2,15.05,1.57,3.82,3.16,7.68,3.81,11.77,1.01,6.34-.37,13.03-3.81,18.45,6.77-.7,12.63-4.85,18.13-8.85,3.61-2.63,7.45-5.58,8.61-9.9,2.84,1.73,3.87,5.89,2.16,8.74,6.71-4.67,8.04-14.56,5.04-22.17s-9.34-13.35-15.77-18.41c-6.43-5.05-13.3-9.82-18.07-16.46-.41-.57-.82-1.19-.9-1.89-.21-1.69,1.63-3.06,3.34-3.03s3.23,1.01,4.65,1.95c14.98,9.98,30.54,20.58,39.09,36.42,2.64-5.11,5.02-10.35,7.13-15.7,1.26-3.2,2.44-6.54,2.27-9.97-.24-4.62-1.59-8.91-5.06-11.97s-7.77-4.98-11.99-6.85c6.48-2.25,14.42,1.37,16.96,7.75,2.7-6.64,5.42-14.13,2.72-20.77-2.84-6.99-10.71-10.45-18.09-12.06-5.16-1.12-10.43-1.69-15.71-1.67.47-4.2,13.71-1.44,20.03,1.09,3.37,1.35-12-14.58-16.43-18.26-3.27-2.71-7.24-4.55-11.1-6.32-3.91-1.8-8.38-2.51-12.64-3.09s-8.71,2.1-11.84,5.05c-6,5.66-3.83,15.41-4.81,23.6-.36,3.01-2.09,6.73-5.12,6.8Z"/>
            <path class="cls-7" d="M258.6,204.14c-.12,3.62-.93,7.44.37,10.82.8-14.33,2.23-28.62,4.27-42.82,5.52,3.9,6.48,5.27,9.35,12.19,1.05,2.52,1.11,1.34,3.97,12.01-.17-10.03-4.91-19.38-12.27-26.2,1.9-9.41,4.32-17.87,5.76-26.34,6.74,2.54,13.07,8.16,18.16,13.25,1.43,1.43,2.86,2.88,3.98,4.56,1.97,2.93,3.12,6.65,6.14,8.5-.97-2.64-2.52-5.03-4.17-7.31-2.47-3.42-5.2-6.64-7.93-9.86-2.51-2.96-4.56-4.51-8.04-6.89-1.9-1.3-4.61-3.37-7.16-4.14.96-4.72,1.26-5.42,1.97-9.17.05-.28.32-1.72.53-2.05.02-.03.07-.05.11-.04,12.29,1.1,19.25,3.68,30.34,8.38,5.08,2.15,12.62,7.1,17.63,9.75-12.08-12.82-30.26-18.68-47.75-20.74.03-1.49.2-2.97.5-4.42.04-.19.09-.39.22-.53.16-.18.41-.23.65-.27,8.9-1.59,17.89-3.18,26.91-2.69,1.24.07,2.5.18,3.73,0-3.48-1.26-7.3-1.06-11-.85-3.89.22-7.78.45-11.61,1.15-3.08.56-6.24,1.44-9.28.7,1.56-.62,3.07-1.43,4.31-2.58,1.07-.99,1.89-2.2,2.8-3.34,3.52-4.45,8.18-7.82,12.78-11.14-6.48,2.78-12.08,7.58-15.81,13.56-.43.69-1.07,1.03-1.66,1.58s-1.57,1.08-2.37.93c-.38-.07-.81-3.4-1.06-3.7-.41-.51-1.18.31-1.28.95s.05,1.34-.22,1.94c-.52,1.15-2.29,1.12-3.25.3s-1.16-2.22-1.94-3.22c-2.49-3.21-3.95-3.93-7.67-6.04s-8.44-4.45-11.11-7.8c-.74-.93-2.74-4.17-3.83-3.71,1.99,3.3,4.68,6.19,7.83,8.41,2.74,1.93,5.81,3.36,8.55,5.31s5.2,4.57,5.95,7.84c.05.2.08.42,0,.6-.12.25-.43.34-.7.4-2.15.5-4.34.84-6.47,1.41-3.03.8-6.04,2.16-8.93,3.38,6.38-1.83,13.69-3.3,20.31-3.81.03,1.18-.19,2.67-.16,3.85.01.47-.21,1.53-.21,1.53-.37.67-1.7.73-2.45.89-5.65,1.2-11.3,2.4-16.95,3.6-2.92.62-5.84,1.24-8.72,2.05-13.44,3.76-25.4,11.42-37.14,18.97-4.66,3-9.42,6.08-12.83,10.45,4.97-3.12,9.93-6.25,14.9-9.37,10.11-6.36,20.36-12.78,31.72-16.46,3.16-1.02,6.38-1.82,9.59-2.62,6.7-1.67,14.64-3.35,21.33-5.02-.41,3.55-1.35,6.64-1.76,10.18-.07.59.18.82-.71,1.49-.4.3-1.14.68-1.61.85-17.38,6.35-32.67,17.89-44.45,32.16-1.12,1.36-2.26,2.83-2.54,4.58,4.85-5.63,9.76-11.31,15.75-15.72,2.3-1.69,4.58-3.42,6.67-5.37,1.45-1.35,3.57-2.82,5.52-4.18,2.4-1.68,6.54-4.04,9.22-5.23,3.73-1.66,8.19-3.62,11.93-5.29-.91,4.99-2.3,9.34-2.94,13.92-.83,5.87-2.3,10.72-3.31,16.56-.53,3.1-.68,6.2-1,9.33-.12,1.18-.24,2.37-.58,3.51-.77,2.59-2.6,4.74-4.59,6.58s-4.18,3.46-5.99,5.47c-1.97,2.2-3.42,4.81-4.76,7.44.71-.18,1.22-.79,1.67-1.37,4.08-5.11,8.82-9.65,13.54-14.18-.97,4.63-.59,8.4-.74,13.13Z"/>
          </g>
        </g>
        <g id="m-leaf-right-2">
          <path id="stem5" class="cls-3" d="M261.5,365.46c3.67-16.02,9.85-34.52,20.43-53.6,37.45-67.55,103.27-94.05,127.68-102.47-.4-1.55-.79-3.11-1.19-4.66-2.23.8-5.44,1.98-9.27,3.48-7.36,2.87-31.28,12.21-52.25,25.28-28.38,17.69-47.15,39.62-53.19,47.05-30.34,37.34-47.56,84.81-41.17,88.92,1.12.72,3.48.44,8.95-4Z"/>
          <g id="leaf5">
            <path class="cls-5" d="M378.81,176.68c-8.96-2.32-19.63-2.17-26.09,4.46-5.1,5.23-6.23,13.13-6.17,20.44.1,13.27,3.28,26.5,9.21,38.37-1.09-8.01,2.04-16.24,7.29-22.38,5.25-6.14,12.45-10.38,20-13.26,2.34-.89,5.72-1.26,6.67,1.06.8,1.95-.97,3.92-2.54,5.33-5.36,4.85-10.18,10.31-14.32,16.23-2.02,2.89-3.93,6.04-4.27,9.55-.35,3.63,1.05,7.21,2.86,10.38,4.3,7.48,11.17,13.44,19.17,16.65-2.17-11.23-1.38-23.02,2.28-33.85.67-1.99,2.18-4.37,4.21-3.85.73,5.42-.51,11.09-3.44,15.72-1.11,1.76-2.48,3.42-3.07,5.42-.66,2.24-.25,4.64-.55,6.95-.44,3.52-2.48,6.91-1.81,10.4.84,4.32,4.04,9.9,7.55,12.56,5.07,3.84,15.57,10.99,21.91,11.52-4.1-2.84-8.53-10.38-9.27-15.31s.45-12.05,1.12-17c.85-6.25,1.24-9.43,5.2-15.31.65-.97,3.33-2.47,4.49-2.39,2.9.19.2,7.22.42,10.12.51,6.86-.29,8.85-.28,15.73,0,3.51,2.18,8.37,3.52,11.61,1.15,2.79,3.23,5.07,5.27,7.3,3.31,3.61,6.71,7.28,11.05,9.54,2.65,1.37,5.68,2.25,7.66,4.48,2.44,2.76,2.49,7.33.09,10.13,4.44-.64,5.11-6.67,7.66-10.36,2.84-4.12,8.53-5.51,11.36-9.63,3.03-4.4,1.77-10.59-1.21-15.03s-7.36-7.69-11.11-11.5c-4.6-4.67-8.28-10.23-10.78-16.29-.58-1.4-.9-3.4.45-4.1.94-.49,2.07.05,2.99.58,3.33,1.91,6.65,3.83,9.98,5.74,6.2,3.56,12.51,7.23,17.22,12.61s7.59,12.89,5.66,19.78c3.51-5.54,4.81-12.44,3.57-18.88-.71-3.7-2.22-7.19-3.87-10.57-1.62-3.3-3.44-6.6-6.18-9.05-2.37-2.13-5.3-3.52-8.18-4.88-8.11-3.82-16.22-7.65-24.34-11.47-1.65-.78-3.4-1.64-4.34-3.21s-.56-4.05,1.16-4.64c.64-.22,1.33-.15,2-.07,18.44,2.25,35.5,13.82,44.41,30.12.09-14.9-8.2-30.49-22.21-35.54-10.46-3.77-22.02-1.33-33.11-2.11-1.64-.12-3.83-1.01-3.44-2.61.25-1.02,1.45-1.45,2.48-1.67,12.23-2.64,25.56.37,35.46,8.01.2-2.28-1.38-4.37-3.21-5.75s-3.98-2.31-5.74-3.78c-3.82-3.2-5.24-8.47-8.62-12.13-4.47-4.84-12.03-6.11-18.24-3.93s-11.08,7.36-13.9,13.3c-1.67,3.5-4.65,6.38-7.12,2.08-1.65-2.88-.9-6.73-2.79-9.82-5.09-8.31-15.12-13.38-24.23-15.74Z"/>
            <path class="cls-3" d="M407.18,205.87l1.56,1.64c-3.37-.43-6.64,1.19-9.62,2.81-4.36,2.37-8.74,4.94-11.92,8.75-3.12,3.74-4.86,8.41-6.54,12.98-1.02,2.78-2.07,5.68-1.8,8.64,1.15-3.49,2.49-6.92,4.02-10.26,1.17-2.56,2.67-8.21,4.67-10.19,6.04-6,11.61-9.92,19.38-11.17,1.14-.18,1.83-.18,2.95.11,2.46.63,4.03,4.69,5.34,6.86-2.94,1.92-5.58,4.29-7.81,7-4.61,5.62-7.35,12.67-8.2,19.89-.85,7.22.16,14.6,2.47,21.49.91-1.45.07-3.31-.47-4.93-.93-2.78-.96-15.68-.21-18.52,2.77-10.57,1.51-8.84,8.02-17.61.42-.56,2.69-3.74,6.72-6.08,0,0,1.37,2.38,2.58,3.85,1.83,2.2,3.29,4.67,4.74,7.12,1.68,2.84,3.36,5.67,5.03,8.51,1.43,2.41,2.86,4.83,3.93,7.41,2.49,6.01,2.97,12.73,5.62,18.68,1.88,4.22,4.82,7.99,5.95,12.47-.77-4.39-2.1-8.68-3.94-12.74-.92-2.02-1.96-4-2.7-6.1-.83-2.38-1.24-4.89-1.83-7.34-1.8-7.55-5.21-14.61-8.83-21.47,6.26,1.16,12.42,2.87,18.39,5.09,2.81,1.04,5.59,1.8,8.38,2.89,5.94,2.32,11.61,5.31,16.87,8.91-.87-1.81-2.66-2.96-4.37-4.01-2.95-1.83-4.66-2.19-9.32-4.56-1.14-.58-3.86-1.72-5.11-2.05-3.53-.92-5.2-2.02-8.64-3.26-4.55-1.63-7.59-1.87-14.4-4.4-.63-.23-1.34-.19-1.93-.5-.61-.32-1.07-.86-1.5-1.4-2.5-3.16-6.29-7.32-8.06-10.94,6.26-.29,13.2-1.13,19.39-1.03s13.56,1.29,19.24,3.73c.3.13.7.23.89-.03.25-.35-.24-.76-.64-.9-8.83-3.25-18.39-4.49-27.75-3.59-4.3.41-8.99,1.19-12.67-1.08-2.42-1.49-3.99-4.55-4.08-7.39-1.82,1.93-4,1.58-5.16-.89.43.55.87,3.12,1.34,3.62Z"/>
          </g>
        </g>
        <g id="m-leaf-right-1">
          <path id="stem7" class="cls-3" d="M271.32,365.46c-2.23-56.82,5.99-100.12,13.91-129.15,5.26-19.3,10.6-33.08,47.93-131.83,4.26-11.28,17.3-45.79,21.49-56.89-1.86.39-3.72.77-5.58,1.16-3.44,10.69-8.76,26.4-16.08,45.09-15.81,40.33-24.69,52.97-36.66,81.48-17.13,40.79-23.89,74.27-28.55,98.03-7.22,36.81-14.92,95.92-5.24,98.64,2.73.77,6.24-3.13,8.78-6.53Z"/>
          <g id="leaf7">
            <g>
              <path class="cls-9" d="M470.2,99.99c-6.04-8.48-10.96-12.01-21.49-16.22-11.91-4.76-32.57-7.89-45.3-9.48-5.99-.75-14.05,2.82-17.97-1.76-.55-.65-1.07-1.41-1.06-2.27.01-2.03,2.62-2.82,4.65-3,13.25-1.23,26.79-2.44,39.7.78,7.64,1.9,14.81,5.3,21.92,8.68,8.63,4.1,17.77,8.65,22.63,16.88-.39-13.89-6.4-26.53-13.83-38.28-1.34-2.12-3-4.83-5.2-6.46-2.16-1.61-3.65-2.23-6.04-3.79-5.29-3.45-12.24-4.02-18.54-3.58-12.21.85-26.35,5.68-38.56,6.53-5.92.41-11.79,3.97-17.62,2.87-.64-.12-1.34-.3-1.69-.85-.47-.73-.08-1.69.4-2.41,3-4.61,8.63-6.6,13.86-8.3,7.11-2.31,14.27-4.63,21.71-5.4,7.04-.73,14.15-.06,21.19.74,6.16.7,12.44,1.54,17.96,4.36-3.15-1.51-5.31-4.48-7.55-7.16-13.82-16.57-34.89-25.51-55.99-30.03-7.26-1.55-14.82-2.65-22.06-1.04-7.24,1.61-14.16,6.44-16.42,13.51-1.6,5.02-.73,10.49.76,15.54,1.49,5.05,3.57,9.95,4.42,15.15.22,1.37-.75,3.62-1.81,2.73-2.13-1.79-3.06-4.59-4.27-7.09-4.97-10.21-16.33-16.72-27.68-16.62-5.07.04-10.12,1.29-14.63,3.61-9.9,5.09-16.74,15.34-18.55,26.33-1.8,10.99,1.2,22.51,7.37,31.78.42-3.01-.09-6.18.91-9.05,1.17-3.35,4.26-5.74,7.59-6.95,3.34-1.21,6.94-1.4,10.48-1.59,7.26-.37,14.52-.75,21.78-1.12.85-.04,1.81-.05,2.43.53.84.78.57,2.27-.25,3.08-.82.81-2,1.12-3.11,1.4-11.23,2.89-16.72,1.4-27.23,6.3-1.55.72-8.71,7-9.36,8.58-2.31,5.59-3.52,11.96-2.04,17.83,1.48,5.86,4.51,11.2,7.5,16.45,2.94,5.16,8.54,14.34,11.48,19.5,1.69-17.06,12.56-35.28,25.7-46.43,2.7-2.29,5.57-4.45,8.87-5.72,2.55-.98,6.22-.94,7.17,1.63.51,1.37-.07,2.95-1.03,4.05-.96,1.1-2.25,1.85-3.48,2.65-7.44,4.86-17.39,13.1-22.34,20.47-4.2,6.27-6,11.73-8.25,18.93-2.25,7.2-.27,15.41,2.86,22.27,1.06,2.32,2.49,4.46,3.91,6.58,6.1,9.12,12.94,17.1,22.05,23.22,9.11,6.11,19.88,9.99,30.85,10.07-5.78-5.41-11.43-11.22-14.79-18.38-3.36-7.17-3.87-15.75-1.02-23.13,3.69-9.54,4.94-16.09,13.38-21.88,1.72-1.18,4.5-1.94,5.54-.14.35.61.37,1.35.34,2.05-.22,6.14-2.72,11.97-3.6,18.06-1.85,12.8,3.52,25.42,8.77,37.24,1.85,4.16,3.84,8.51,7.49,11.24,3.33,2.49,7.59,3.29,11.52,4.63,3.94,1.35,8.01,3.68,9.3,7.63-.41-7.17,3.01-14,7.09-19.9,4.08-5.9,8.94-11.33,12.08-17.79,3.14-6.46,4.31-14.43.77-20.68-3.63-6.4-11.08-9.37-16.9-13.88-5.84-4.53-10.22-10.93-12.33-18.01-.17-.56-.32-1.2-.03-1.72.47-.86,1.73-.78,2.68-.5,4.74,1.39,8.81,4.45,12.43,7.8,5.96,5.5,11.04,11.95,15,19.03,2.02,3.62,3.8,7.47,6.72,10.41,2.72,2.75,6.52,4.9,8.34,8.11-.57-2.88.3-6.09,1.52-8.87,1.57-3.6,3.69-7.13,3.8-11.06.18-6.13-1.65-11.18-4.81-16.44-7.03-11.74-24.57-19.1-35.3-24.36-7.81-3.83-14.29-1.99-20.87-7.68-.86-.75-1.73-1.61-1.97-2.73-.38-1.74.96-3.5,2.61-4.18,1.65-.68,3.51-.53,5.28-.29,5.06.67,10.05,1.94,14.84,3.71,22.25,8.22,39.92,27.88,45.72,50.88,3.74-6.6,10.36-12.31,11.67-19.78,1.32-7.47,2.29-21.63-2.11-27.81ZM341.74,150.59c-1.15,3.88.05,10.38-1.05,9.27-1.63-1.63-1.44-9.4-1.55-11.59-.24-4.99-.8-12.4,3.2-16.73,2.57-2.79,8.94-4.9,10.2-1.78,2.78,6.88-6.13,5.08-10.81,20.82Z"/>
              <path class="cls-9" d="M449.81,168.6c.17.85.46,1.67.91,2.45-.17-.89-.49-1.7-.91-2.45Z"/>
            </g>
            <path class="cls-4" d="M403.1,135.45c8.17,5.07,19.3,17.44,21.32,26.84-.25-5.97-3.03-11.62-6.81-16.25s-8.53-8.36-13.3-11.95c-3.4-2.56-6.83-5.08-10.3-7.54-.6-.42-1.2-.86-1.64-1.45-.46-.63-.64-1.42-.92-2.15-1.85-4.92-4.32-8.57-6.16-14.62,12.41,3.4,25.05,6.93,35.79,14.02,2.22,1.47,4.36,3.09,6.17,5.03,2.67,2.87,4.66,6.46,7.96,8.58-4.41-7.93-12.21-13.28-19.74-18.35-2.1-1.41-4.21-2.83-6.48-3.93-2.06-1-4.24-1.73-6.41-2.47-5.92-1.99-11.81-4.82-17.73-6.81-3.72-6.43-7.45-12.85-11.17-19.28,10.09-.83,12.04-.77,22.03.01,4.58.36,17.12,3.04,21.58,4.13,11.44,2.8,21.28,10.23,32.6,13.48-5.04-2.78-10.09-5.56-15.13-8.34-4.73-2.6-9.5-5.22-14.66-6.79-3.2-.97-6.51-1.53-9.81-2.08-5.45-.91-10.9-1.82-16.35-2.74-7.11-1.19-14.68-.62-21.83.24-2.37-4.58-5.48-8.29-8.98-14-.81-1.32-2.37-2.1-2.93-3.54-.44-1.13-1.32-3.44-2.49-3.1,10.76-1.44,21.51-2.89,32.27-4.33,4-.54,8-1.07,12.01-1.61,3.54-.47,7.08-.95,10.64-1.1,2.75-.12,5.51-.05,8.26.08,7.45.36,14.87,1.17,22.22,2.43-7.42-2.51-15.25-3.81-23.09-3.82-3.71,0-7.41.27-11.11.57-17.62,1.4-35.26,2.9-52.81,4.96,0,0-1.17-1.18-2.75-3.35-.2-.27-1.12-.97-1.3-1.26-.19-.31-.41-.53-.62-.82-.38-.54-.46-.87-.78-1.3.13-.63.85-.91,1.46-1.09,3.84-1.19,7.28-4.48,10.64-6.69,7.09-4.64,12.25-11.01,18.82-16.36,5.16-4.2,10.44-8.59,17-10.39,2.32-.64,4.91-1.94,7.51-2.02-6.57-.27-12.97,2.35-18.44,5.99s-10.19,8.27-15.13,12.61c-4.01,3.52-8.17,6.85-12.34,10.19-2.33,1.87-5.17,3.06-7.63,4.76-.52.36-1.29.68-1.7.2,5.63-9.02,11.26-18.05,16.88-27.07.87-1.39,1.73-2.78,2.54-4.2,1.49-2.65,3.24-7.11,5.02-9.57s3.69-2.95,6.61-3.78c-1.61.08-3.29.17-4.69.97-1.32.75-2.37,1.96-3.1,3.29-6.51,11.84-10.64,18.47-17.89,30.02-1.25,1.99-3.23,5.81-5.29,6.96,1.59-2.34,1.94-4.24,2.5-7.01.3-1.47.25-2.87.37-4.37.38-4.87,1.73-8.93,2.79-13.69,1.37-6.13,2.78-13.13,7-17.78-1.79.14-2.64,1.81-3.47,3.4s-2.1,4.72-2.46,6.48c-1.25,6.14-3.13,10.44-4.21,16.62-.78,4.46-1.44,7.3-1.91,12.62-.56,3.69-2.53,4.97-4.09,6.82-.45.54-.93,1.09-1.57,1.36-1.34.57-2.85-.27-3.99-1.18-5.45-4.34-9.03-11.15-15.45-13.83,5.43,6.9,11.76,13.09,18.79,18.34-.46.83-1.61.91-2.56.85-4.6-.33-9.09-1.7-13.7-1.94-7.43-.39-14.67,2.16-21.68,4.67,4.8.81,9.33-2.31,14.13-3.12,7.54-1.27,15,3.23,22.64,2.83.81-.04,2.84-1.86,3.56-1.49.57.29,1.66,2.15,2.04,2.67,1.39,1.93,3.52,4.39,4.92,6.32-7.47,4.4-9.51,6.36-15.59,12.13-2.48,2.36-9.67,10.43-12.13,12.81-2.54,2.46-5.36,4.63-8.4,6.45,13.54-6.78,28.55-26.42,38.08-28.99,5.76,7.73,8.85,12.92,13.62,20.65-5.83,3.69-11.74,9.17-15.61,14.44s-12.37,18.89-9.65,17.04c13.43-19.5,15.95-21.56,26.61-28.72,1.91,2.71,2.68,5.05,2.68,5.05-1.11,1.29-4.27,4.65-5.49,5.85-1.03,1.02-6.32,8.93-7.05,10.18-6.49,11.1-6.48,19.57-8.73,32.23-.56,3.16-1.12,6.32-1.68,9.47,4.28-10.88,4.38-23.12,9.23-33.76,1.8-3.94,4.21-7.57,6.61-11.18,2.25-3.39,5.47-7.58,8.37-10.43,4.9,7.04,7.37,13.83,11.11,20.95,1.1,2.09,2.06,4.05,2.97,6.23,4.15,9.89,8.32,19.81,11.38,30.09,3.06,10.28,5.01,20.98,4.63,31.71.59-.63.75-1.53.86-2.39,1.62-12.34-1.94-24.72-5.7-36.59-1.96-6.2-4-12.4-6.88-18.23,3.16,1.96,6.1,3.34,9.26,5.31Z"/>
          </g>
        </g>
      </g>
    </g>
  </g>
</svg>