<svg width="163" height="251" viewBox="0 0 163 251" fill="none" xmlns="http://www.w3.org/2000/svg">
<g opacity="0.5">
<path d="M146.757 45.5078C146.338 57.6998 146.167 76.5489 148.018 99.5168C151.123 138.029 157.196 154.34 159.511 189.931C160.419 203.871 160.974 224.249 158.785 249.304C162.787 250.594 165.825 250.652 166.635 249.283C170.009 243.584 167.428 218.543 164.03 166.115C162.707 145.675 159.434 137.55 156.263 120.603C153.274 104.631 154.528 100.776 152.68 87.9918C151.077 76.9184 150.257 60.7684 154.577 40.2499C151.971 42.0014 149.366 43.7529 146.761 45.5044L146.757 45.5078Z" fill="#5C7735"/>
<path d="M187.467 39.3023C186.133 38.0058 184.677 36.7708 182.931 36.0832C178.352 34.2839 173.253 36.6785 168.319 36.7606C167.613 36.7708 166.894 36.7366 166.209 36.9111C165.385 37.1232 164.68 37.6226 163.939 38.0366C161.128 39.6068 157.793 39.9454 154.57 40.2533C156.609 37.4242 159.874 36.1961 163.332 35.4743C164.652 35.1972 166.091 34.9817 167.034 34.0375C167.959 33.1105 168.169 31.684 167.984 30.4011C167.652 28.0955 166.237 26.06 164.575 24.3941C156.337 16.1429 142.713 15.811 133.2 8.99663C130.989 7.41276 129.027 5.49364 126.683 4.10818C122.266 1.49804 117.237 -0.752907 112.176 0.239151C107.116 1.23121 103.156 3.49926 98.86 6.29755C96.5796 7.78221 94.4213 9.29083 91.2922 9.71844C88.5053 10.0982 84.4298 11.0047 81.9083 12.2191C79.3834 13.4335 77.3718 16.5568 78.3566 19.1361C78.3916 19.2251 78.5557 19.7587 78.7582 20.3266C78.2449 20.5353 77.7245 20.7713 77.1902 21.0347C76.0028 21.6231 73.3242 25.1706 72.8772 26.3953C70.8551 31.9508 70.7015 34.8004 68.6794 40.3594C74.4243 37.0856 81.0702 35.5393 87.7021 35.0878C94.334 34.6362 100.99 35.2417 107.591 36.0319C110.709 36.4048 114.209 37.0479 115.934 39.617C115.7 40.462 114.52 40.5407 113.633 40.4243C105.139 39.316 96.5412 36.7879 88.1596 38.5258C85.8477 39.0047 83.6231 39.7983 81.3496 40.4278C77.3089 41.5464 73.1251 42.1382 69.1404 43.4313C65.1557 44.7244 61.2652 46.8385 58.9324 50.2594C62.9031 46.9069 68.3651 45.9183 73.5687 45.2923C81.3635 44.3515 89.2247 43.9376 97.079 44.0539C87.8138 45.4599 78.5452 46.8659 69.2801 48.2719C67.6247 48.5216 65.8751 48.8192 64.6213 49.9071C62.9101 51.3951 62.6447 53.9095 62.8403 56.1433C63.0358 58.3772 63.5667 60.6521 63.0009 62.8243C62.5259 64.6442 61.3071 66.2179 59.8369 67.4254C62.8647 66.6694 67.3349 68.7562 65.5817 72.7073C65.1557 74.6469 72.5838 69.4403 75.2345 69.4951C77.8852 69.5498 77.0051 70.1108 79.3869 71.2534C81.1854 72.1155 83.8186 72.0915 85.226 73.4872C86.9443 75.1874 89.6089 75.745 92.0151 75.338C94.4213 74.9309 96.6005 73.6754 98.5108 72.1805C99.1429 71.6879 99.7576 71.1542 100.194 70.4871C100.774 69.5943 100.987 68.527 101.245 67.4973C102.069 64.2166 103.756 60.7821 106.941 59.4821C107.504 59.2529 108.139 59.0956 108.722 59.2735C109.763 59.5916 110.217 60.8847 109.948 61.9178C109.679 62.9543 108.897 63.7753 108.122 64.5279C102.482 69.9877 95.7763 74.257 89.1235 78.4852C87.4541 80.1683 100.914 74.8761 107.064 74.7325C110.839 74.6435 115.002 74.8624 117.939 72.5362C119.783 71.0789 120.799 68.8383 121.455 66.6078C122.112 64.3774 122.482 62.0581 123.366 59.9029C124.249 57.7477 125.761 55.6986 127.969 54.8468C130.172 53.9916 133.092 55.5584 132.62 57.8333C131.824 61.6818 129.945 63.8506 128.108 66.1563C122.657 72.9981 122.276 79.9733 115.424 85.4775C114.446 86.6679 118.616 83.9552 120.327 83.5583C129.034 81.5332 138.215 82.4466 146.974 80.654C155.68 78.8717 163.779 74.363 169.8 67.9488C170.756 66.9294 171.696 65.7937 171.933 64.4287C172.356 62.0102 170.491 59.8379 168.759 58.0625C167.46 56.7283 166.161 55.3976 164.858 54.0634C164.463 53.6598 164.044 53.1945 164.044 52.6369C164.044 51.8535 164.924 51.2925 165.721 51.337C166.517 51.3815 167.219 51.8501 167.84 52.3393C171.951 55.5584 174.734 60.3579 175.461 65.4653C179.253 62.9235 182.679 59.8926 186.088 56.8754C188.857 54.4226 191.829 51.5662 191.993 47.9127C192.14 44.5876 189.873 41.6422 187.46 39.2989L187.467 39.3023ZM105.754 19.8203C100.676 18.9856 95.4934 19.0814 90.3458 19.1806C87.2551 19.2388 85.7219 19.2525 82.6347 19.3517C82.3588 19.3619 82.0655 19.3961 81.7651 19.444C82.3239 18.9241 82.8513 18.4828 83.1551 18.3596C95.1198 13.5533 107.168 15.3424 118.49 21.4658C119.636 22.085 120.893 22.9983 120.844 24.2777C115.913 22.4818 110.943 20.6721 105.754 19.8203ZM140.66 26.3816C140.387 27.2368 139.525 27.9586 138.62 27.8286C138.128 27.7568 137.705 27.4592 137.314 27.1581C134.22 24.7635 131.89 21.5684 129.222 18.7222C126.554 15.876 123.31 13.2625 119.419 12.6194C117.984 12.3833 115.431 12.5715 114.478 11.3434C115.284 10.8679 116.409 10.9807 117.338 10.8508C119.109 10.5976 120.788 9.93737 122.566 9.73554C125.622 9.39003 128.691 10.6147 131.133 12.4449C133.574 14.2751 135.494 16.6799 137.387 19.0575C138.554 20.525 139.738 22.02 140.412 23.7578C140.736 24.5959 140.936 25.5264 140.663 26.3816H140.66Z" fill="#7CA050"/>
<path d="M109.55 51.5627C106.061 52.8524 91.8894 58.3566 87.8697 60.0979C86.7487 60.5836 85.2435 61.9964 81.0213 63.4435C80.6581 63.5666 81.5556 62.7148 81.6848 62.6361C90.929 56.9609 108.705 51.0291 115.892 47.9811C110.088 45.9217 103.313 43.8486 97.1768 43.1713C104.266 43.1576 111.467 44.7312 117.987 47.4508C123.659 46.5238 129.317 45.3538 135.722 44.047C119.37 33.3054 114.321 29.9769 102.461 28.2665C108.212 28.222 113.971 29.5698 119.084 32.156C120.893 33.0728 122.615 34.1367 124.337 35.2006C125.601 35.9806 126.865 36.764 128.129 37.5439C130.214 38.8302 132.296 40.1199 134.366 41.4266C135.124 41.9056 136.5 43.3389 137.384 43.5202C137.384 43.5202 140.712 42.9421 142.043 42.4153C135.215 37.7321 127.288 32.4365 120.457 27.7499C119.866 27.3462 119.269 26.9323 118.815 26.385C126.872 29.5356 140.307 40.3559 143.471 41.9979C143.674 42.104 144.938 41.8782 144.781 41.714C142.472 39.333 139.888 37.2189 137.283 35.4093C135.99 34.513 134.241 32.4263 133.064 31.3897C130.923 29.5048 129.128 26.3166 127.144 24.2743C122.562 19.5603 117.481 17.8225 111.523 15.6092C109.637 14.9079 107.476 14.1758 105.457 14.0903C104.099 14.0321 101.72 14.4016 100.634 13.5943C108.656 12.3456 116.465 16.2899 123.589 20.1111C124.885 20.8055 126.201 21.5136 127.249 22.5331C128.164 23.4191 128.842 24.5069 129.568 25.5469C133.392 31.0169 138.683 35.3101 143.904 39.5315C144.721 40.1917 146.593 41.6353 147.519 41.1359C148.046 35.4709 148.294 28.8754 146.848 23.142C146.094 20.1487 142.835 18.4314 140.153 16.8167C139.409 16.3686 138.543 15.616 138.889 14.8326L146.202 20.4497C146.845 20.9423 147.34 21.6026 147.616 22.3586C148.556 24.9243 148.797 26.4808 148.8 28.6633C148.811 32.7615 148.612 37.1574 148.458 41.2522C148.451 41.4369 148.95 41.3958 148.95 41.3958C151.776 38.1084 154.011 35.5872 157.73 32.717C155.586 35.0296 155.195 35.2417 152.988 37.7115C152.369 38.4026 148.947 41.3958 150.25 41.7071L155.46 38.3136C155.788 38.1665 156.333 38.3478 156.078 38.5976L151.556 41.8953C154.936 42.9831 159.05 42.771 162.595 43.096C168.183 43.6092 173.463 46.7324 176.526 51.3404C172.618 46.7701 166.719 43.8897 160.639 43.5818C158.715 43.486 156.773 43.6297 154.873 43.3184C152.586 42.9421 150.243 41.9124 148.046 42.6342C147.187 43.1473 148.737 43.616 149.275 43.9923C153.557 47.0027 156.599 49.9241 158.603 54.1216C160.608 58.319 161.628 62.8893 162.633 67.4151C160.713 60.5699 158.589 53.3792 153.389 48.4326C151.821 46.9445 150.026 45.7096 148.234 44.4849C147.641 44.0778 147.009 43.657 146.289 43.5921C145.8 43.5476 145.315 43.6742 144.84 43.7973C143.118 44.2489 141.393 44.697 139.671 45.1486C139.72 45.6377 139.863 45.9696 140.09 46.3903C140.132 46.4588 140.15 46.5545 140.213 46.664C142.601 50.7657 143.181 55.1444 142.511 59.8892C142.022 63.3545 140.852 66.6933 139.189 69.7892C137.751 72.4609 136.046 75.3721 133.301 76.9423C138.652 71.1781 141.606 63.3443 141.369 55.5583C141.313 53.7418 141.086 51.9048 140.408 50.2115C139.832 48.7713 138.945 47.4713 138.068 46.1817C137.946 46.0004 137.81 45.8122 137.607 45.7198C137.387 45.6206 137.132 45.6617 136.891 45.7027C134.209 46.1646 131.384 46.4485 128.719 47.0061C127.214 47.3208 124.312 48.1453 124.312 48.1453C123.233 49.2092 122.576 49.9652 121.801 51.8159C120.174 55.0007 119.161 56.9506 118.27 60.4057C117.89 61.8904 117.453 65.8757 116.004 66.4539C116.744 65.5576 116.849 64.3329 117.01 63.1903C117.719 58.0898 120.006 53.3519 122.262 48.7063C120.684 48.6584 119.136 49.0826 117.621 49.5034C115.11 50.1978 111.97 50.6596 109.529 51.5662L109.55 51.5627Z" fill="#5C7735"/>
<path d="M156.806 249.054C154.378 245.263 147.073 227.588 142.25 213.172C138.53 202.047 129.387 191.973 111.102 171.827C103.956 163.952 93.7169 153.46 80.247 142.076C80.5718 140.906 80.8931 139.732 81.2179 138.562C90.5668 145.616 100.939 154.384 111.493 165.136C118.114 171.882 126.677 180.643 135.946 193.806C143.325 204.291 147.82 213.777 156.809 232.75C160.242 239.995 163.843 248.099 161.541 249.857C161.541 249.857 157.295 249.806 156.809 249.05L156.806 249.054Z" fill="#7CA050"/>
<path d="M23.1057 161.407C27.9984 158.263 31.8539 155.007 36.7467 151.863C37.5499 151.346 38.3951 150.789 38.6919 149.848C38.8805 149.246 38.7443 148.565 38.2309 148.185C37.4312 147.593 36.366 148.127 35.5593 148.654C33.1216 150.251 30.705 151.887 28.3162 153.553C27.0101 154.466 25.6865 155.407 24.7296 156.669C23.8286 157.856 23.8705 160.128 23.1057 161.404C23.1057 161.404 15.7997 167.937 12.9675 170.435C11.4832 171.745 9.93265 172.46 7.38324 175.145C7.38324 175.145 7.07941 175.556 6.15045 173.592C5.79424 172.84 4.86877 171.83 4.47765 171.098C3.21692 168.728 1.22278 166.559 0.541779 163.973C-0.743393 159.101 0.590683 157.836 1.13199 155.133C1.72569 152.171 3.14357 150.973 5.79076 149.43C7.77788 148.274 10.1387 147.203 11.9302 145.688C13.3202 144.515 14.9092 143.584 16.6554 143.027C25.4211 140.215 33.9773 136.773 42.2261 132.737C42.6627 132.524 43.1376 132.261 43.2773 131.803C43.403 131.382 43.1935 130.927 42.8966 130.602C41.7791 129.364 39.792 129.514 38.1366 129.836C26.1754 132.169 15.0489 138.439 6.98163 147.398C6.27618 142.233 7.17371 136.92 9.15036 132.08C9.79993 130.486 10.5752 128.922 11.6404 127.557C13.4389 125.248 16.0023 123.596 18.7263 122.45C26.0148 119.385 34.2986 119.792 42.1702 120.757C44.0805 120.989 46.2423 121.184 47.7056 119.959C46.822 118.55 45.2505 117.705 43.6929 117.069C36.0587 113.959 26.9263 114.626 19.8508 118.813C24.1848 111.719 30.3732 105.66 37.8188 101.764C45.2644 97.8674 53.9743 96.2014 62.3139 97.4569C64.6922 97.8161 67.1054 98.4318 68.8376 100.235C69.3195 100.738 69.7072 101.326 69.9482 101.972C71.3765 105.78 67.4302 108.328 66.8121 111.78C66.4349 113.874 67.273 116.282 66.0053 118.003C65.691 118.427 66.1904 119.296 66.6339 119.587C67.9121 118.947 68.4465 117.469 68.9179 116.138C70.5349 111.565 72.8608 106.984 76.8839 104.172C80.9071 101.36 86.9802 100.905 90.5493 104.251C94.5585 108.01 93.8391 114.318 95.1592 119.597C96.3745 124.458 100.534 127.52 102.374 132.189C102.905 133.534 102.71 136.099 102.242 137.536C101.823 138.826 100.069 143.687 99.1859 143.594C98.1451 143.488 98.896 139.39 96.7831 137.536C90.8357 132.312 86.7742 127.882 80.0445 129.117C79.6324 129.192 79.2412 129.401 78.9863 129.73C78.1446 130.807 79.3634 132.052 80.4705 132.678C84.6683 135.052 89.5785 136.298 93.221 139.431C96.6609 142.394 98.6131 146.943 98.3652 151.425C98.1172 155.906 95.6726 160.22 91.9253 162.799C91.4748 163.111 90.9475 163.415 90.3363 162.957C89.9102 162.639 89.7112 162.115 89.7252 161.592C89.8893 156.057 87.2282 150.518 82.7615 147.121C82.3005 146.772 81.6404 146.738 81.2039 147.118C80.5997 147.641 80.9594 148.404 81.3226 148.986C82.8558 151.452 84.4797 153.977 84.9337 156.83C85.7439 161.944 82.4891 167.014 78.1481 169.966C73.8072 172.918 68.5373 174.177 63.4001 175.378C65.6002 166.795 64.9227 157.528 61.4758 149.345C61.1266 148.521 60.3652 147.898 59.4572 147.826C58.4375 147.744 57.9974 148.414 57.6936 149.082C56.2478 152.263 57.1313 155.971 58.3711 159.235C59.6109 162.498 61.2139 165.762 61.1615 169.244C61.0882 174.105 57.7006 178.453 53.5168 181.067C49.333 183.68 44.4088 184.871 39.5859 186.017C40.1517 183.93 42.4496 182.846 43.864 181.19C45.5892 179.172 45.928 176.38 46.1934 173.763C46.5636 170.144 46.9338 166.521 47.304 162.902C47.4087 161.865 47.4855 160.709 46.4204 160.039C45.7499 159.614 44.8873 159.635 44.1748 159.984C42.6417 160.736 42.0899 162.331 41.6045 163.826C39.7326 169.586 37.8572 175.361 36.5616 181.272C35.4894 186.161 34.5325 191.617 30.5059 194.692C28.4175 196.286 25.7389 197.012 23.6679 198.633C21.2408 200.532 19.8613 203.645 20.1023 206.679C18.0069 206.255 17.9859 203.405 17.3922 201.39C16.0477 196.827 9.87677 194.932 8.4973 190.379C7.78836 188.039 8.52872 185.541 9.26909 183.208C7.23656 182.948 6.4543 185.716 6.47874 187.724C4.10048 183.095 3.97473 178.795 7.39023 175.142" fill="#8BAE63"/>
<path d="M66.7562 120.254C67.7131 120.144 68.5268 119.487 69.0855 118.718C69.6443 117.948 69.997 117.059 70.4336 116.217C72.1797 112.854 75.3578 110.231 79.0387 109.119C77.7535 109.745 76.7198 110.761 75.7105 111.76C74.5126 112.943 73.2973 114.154 72.5255 115.639C72.0715 116.511 71.7816 117.455 71.3102 118.317C70.6711 119.477 69.7002 120.462 68.5407 121.126C68.1845 121.331 67.8004 121.513 67.5419 121.827C67.2835 122.142 67.1962 122.638 67.4756 122.936C67.6223 123.093 67.8423 123.161 68.0483 123.223C70.3253 123.88 72.7211 124.006 75.0888 124.126C76.0108 124.174 76.9363 124.219 77.8478 124.089C78.7523 123.959 79.6219 123.658 80.5194 123.497C81.8535 123.257 83.226 123.329 84.581 123.418C86.4948 123.541 88.426 123.699 90.2665 124.239C92.1069 124.78 93.8671 125.727 95.0614 127.202C91.3526 125.953 87.511 124.687 83.6031 125.019C82.4891 125.115 81.396 125.337 80.2959 125.536C76.367 126.24 72.2391 126.582 68.443 125.368C67.6642 125.118 66.8365 124.804 66.0507 125.033C65.3767 125.231 64.8913 125.796 64.4478 126.329C63.7737 127.14 63.0962 127.954 62.4222 128.765C67.0914 130.468 71.153 133.749 73.5487 138.025C75.9445 142.301 76.9677 147.238 76.9677 152.116C75.5219 144.09 71.3032 136.11 64.3814 131.594C63.4245 130.968 61.8564 129.511 60.8018 129.966C60.1592 130.243 58.7797 132.415 58.4235 133.007C57.9765 133.756 57.4142 134.68 57.065 135.477C56.8555 135.956 56.6389 136.366 56.7507 136.879C56.8939 137.546 58.3222 137.878 58.895 138.268C60.9205 139.647 62.9461 141.025 64.9716 142.404C66.1136 143.181 67.2765 143.978 68.1147 145.069C68.6176 145.726 68.9878 146.468 69.351 147.207C70.4196 149.372 71.4952 151.637 71.4987 154.042C71.5057 157.678 69.0821 160.935 68.7084 164.551C69.7735 161.489 69.8294 158.191 69.8713 154.959C69.8923 153.399 69.9097 151.808 69.4173 150.323C68.6071 147.871 66.5187 146.037 64.35 144.576C62.1812 143.116 61.5212 142.948 59.4048 141.306C58.4235 140.543 56.5691 138.511 55.4061 138.959C52.3748 140.129 50.475 143.174 48.6764 145.839C48.5542 146.023 48.425 146.215 48.4075 146.437C48.3831 146.707 48.5298 146.957 48.6555 147.197C49.1968 148.209 49.5251 149.314 49.8464 150.409C50.4261 152.366 51.0023 154.319 51.582 156.276C52.3783 158.965 53.178 161.694 53.1885 164.493C53.199 167.493 52.3049 170.414 51.4179 173.284C51.0093 174.605 50.5832 175.956 49.7241 177.047C50.8731 174.314 51.5646 171.396 51.7602 168.444C52.2281 161.373 49.8848 154.446 47.5729 147.73C45.9908 149.191 44.3879 150.672 43.2319 152.475C42.0445 154.326 41.3775 156.443 40.6616 158.513C38.5208 164.736 35.8771 170.794 32.7619 176.613C35.0284 168.998 37.302 161.366 40.4346 154.052C40.0783 154.281 39.6069 154.764 39.3065 155.061C35.9853 158.328 31.7352 160.682 27.1637 161.787C27.5095 161.438 27.953 161.198 28.3861 160.969C29.6119 160.316 30.8412 159.662 32.1298 159.136C32.6991 158.903 33.2893 158.691 33.7852 158.332C34.2392 158.003 34.5919 157.565 34.9865 157.172C36.7921 155.373 39.0481 154.103 40.707 152.171C45.4321 146.656 48.1281 142.808 52.3294 138.665C46.7836 138.251 41.2692 139.739 36.0727 141.672C30.8761 143.605 25.8436 145.999 20.5039 147.522C25.0858 145.445 29.6642 143.369 34.2462 141.292C35.678 140.642 37.1134 139.992 38.6046 139.486C42.8443 138.046 47.3947 137.813 51.8579 137.355C52.2875 137.31 52.7345 137.259 53.1012 137.033C53.4609 136.811 53.7019 136.448 53.9324 136.099C55.5912 133.558 57.2501 131.016 58.9089 128.474C55.4865 129.107 52.0814 127.489 48.6206 127.096C46.3994 126.842 44.1539 127.099 41.9188 127.184C36.4917 127.393 30.7958 126.634 25.8262 128.782C27.3838 127.516 29.4268 127 31.4209 126.668C35.6745 125.96 40.0155 125.939 44.332 125.929C48.7917 125.919 53.3422 125.929 57.5749 127.301C58.3048 127.537 59.1045 127.814 59.8169 127.53C60.3967 127.297 61.1056 126.545 61.5282 126.093C62.5549 124.995 63.5048 124.458 64.1963 123.384C62.1324 122.033 58.9928 120.387 56.852 119.152C53.8625 117.421 50.8312 115.755 47.8033 114.086C46.162 113.183 44.4996 112.269 42.6871 111.76C39.9875 111 37.0994 111.175 34.3509 110.607C37.3718 110.159 40.5254 109.717 43.4344 110.644C45.4914 111.301 47.2585 112.594 49.1165 113.686C53.9778 116.542 59.6493 118.102 64.0112 121.649C64.2662 121.858 64.5595 122.087 64.8913 122.053C65.3139 122.012 65.5758 121.537 65.5408 121.123C65.5059 120.709 65.265 120.339 65.0414 119.983C63.669 117.774 62.8657 115.28 62.0765 112.813C61.4339 110.809 60.7913 108.804 60.1487 106.803C59.4467 104.613 58.7343 102.366 58.8391 100.07C60.5364 102.397 61.4863 105.154 62.4117 107.867C63.8261 112.02 65.3348 116.101 66.7527 120.254H66.7562Z" fill="#638234"/>
<path d="M140.304 159.989C142.665 162.017 145.986 167.046 149.293 170.741C149.293 170.741 156.942 179.289 161.957 188.847C168.065 200.485 171.683 222.297 167.195 248.299C169.944 249.363 172.563 249.821 172.933 248.61C176.467 236.972 180.295 215.588 166.214 187.647C160.616 176.539 149.171 162.476 143.776 158.634C142.644 159.434 143.025 159.633 140.308 159.989H140.304Z" fill="#7CA050"/>
<path d="M141.956 159.387C140.147 159.404 138.659 157.861 138.083 156.181C137.507 154.502 137.612 152.685 137.545 150.916C137.479 149.148 137.182 147.27 135.991 145.936C135.045 144.875 133.658 144.307 132.3 143.842C125.657 141.571 118.425 140.986 111.493 142.159C109.47 142.501 107.455 142.997 105.632 143.921C103.422 145.039 101.581 146.74 99.7723 148.419C98.9342 149.196 98.0995 149.972 97.2613 150.749C92.7318 154.95 87.8949 159.78 87.5736 165.883C92.2883 164.036 97.0378 162.175 102.025 161.234C107.012 160.293 112.31 160.32 117.021 162.175C117.87 162.506 118.851 163.348 118.365 164.107C111.905 162.12 104.93 161.754 98.2881 163.05C96.5769 163.386 94.8726 163.834 93.322 164.621C90.0741 166.266 87.6645 169.423 86.973 172.94C86.4561 175.581 86.8612 178.311 86.6342 180.99C86.5714 181.722 86.4631 182.45 86.491 183.186C86.519 183.856 86.6587 184.516 86.7983 185.17C87.2698 187.363 87.7413 189.555 88.2127 191.752C94.2056 181.691 104.365 174.09 115.851 171.076C118.219 170.453 120.712 170.019 123.118 170.487C123.614 170.583 124.159 170.758 124.404 171.192C124.718 171.75 124.362 172.485 123.81 172.82C123.258 173.156 122.581 173.204 121.931 173.245C116.494 173.597 111.049 174.377 105.891 176.101C101.358 177.617 96.748 180.192 94.9669 184.547C93.6468 187.78 94.1217 191.457 95.152 194.786C96.6886 199.739 99.4196 204.334 103.062 208.083C103.153 199.469 109.076 191.191 117.311 188.17C118.362 187.783 119.479 187.476 120.594 187.612C121.708 187.749 122.811 188.427 123.146 189.477C123.754 191.382 121.736 193.028 119.993 194.068C116.871 195.929 113.766 197.865 111.112 200.324C108.458 202.784 106.258 205.822 105.329 209.284C107.005 211.829 110.04 213.423 112.98 214.367C115.921 215.311 119.001 215.811 121.882 216.916C124.763 218.021 127.529 219.885 128.745 222.67C127.498 220.361 128.699 217.35 130.805 215.742C132.911 214.135 135.666 213.635 138.317 213.365C140.618 213.132 142.93 213.033 145.242 213.071C149.196 213.136 153.449 213.532 156.823 211.507C158.618 210.43 159.959 208.771 161.258 207.149C162.77 205.261 163.476 203.037 163.374 200.636C163.322 199.373 163.116 198.573 162.641 197.471C159.163 189.412 156.732 188.081 151.724 183.736C150.25 182.457 147.656 180.764 147.956 178.858C148.036 178.335 148.235 177.781 148.693 177.5C149 177.309 149.381 177.274 149.744 177.261C155.381 177.066 160.343 181.424 162.557 186.504C164.771 191.584 164.817 197.287 164.827 202.811C169.696 199.589 173.645 195.58 176.345 190.465C177.459 188.351 178.363 185.895 177.613 183.634C178.824 185.023 179.306 186.993 178.863 188.769C182.009 186.182 187.492 182.724 189.13 179.033C190.321 176.354 191.013 175.509 191.313 172.601C191.474 171.035 191.009 169.458 190.314 168.038C189.654 166.687 188.76 165.414 187.52 164.535C186.099 163.526 184.342 163.115 182.704 162.503C180.291 161.607 178.063 160.242 176.181 158.511C177.449 158.028 178.877 158.292 180.18 158.675C184.629 159.985 188.648 162.664 191.523 166.242C192.804 162.872 191.264 159.164 189.745 155.894C189.026 154.344 188.306 152.791 187.384 151.348C185.463 148.33 182.711 145.874 179.652 143.962C174.449 140.709 168.313 138.981 162.145 138.752C159.875 138.67 157.57 138.786 155.412 139.474C149.517 141.348 145.696 147.266 144.764 153.267C144.411 155.545 144.278 159.356 141.928 159.38L141.956 159.387Z" fill="#7CA050"/>
<path d="M147.229 160.645C153.219 160.444 158.028 159.554 164.01 159.924C169.992 160.293 176.202 162.192 180.117 166.639C177.061 164.771 173.925 162.869 170.405 162.116C168.938 161.802 167.436 161.696 165.938 161.596C159.061 161.138 149.912 161.761 144.327 162.438C143.231 162.571 142.089 163.061 141.851 163.365C141.181 164.227 139.766 166.153 139.91 167.227C147.153 166.933 155.988 167.61 162.547 170.634C169.105 173.659 174.623 179.546 175.556 186.586C173.254 184.814 173.254 181.393 171.658 178.988C171.044 178.061 170.198 177.302 169.318 176.614C165.428 173.573 159.809 170.747 154.954 169.666C150.1 168.585 146.238 168.982 141.272 168.62C140.846 168.589 139.92 168.384 139.581 168.637C139.295 168.849 138.761 169.581 138.649 169.913C137.87 172.242 137.119 172.978 136.924 176.939C139.333 178.526 141.54 180.535 143.915 182.17C146.182 183.726 148.487 185.402 149.828 187.773C151.41 190.575 151.424 193.951 151.235 197.146C150.718 193.021 150.03 188.543 146.954 185.68C146.011 184.8 144.893 184.13 143.783 183.463C141.282 181.964 139.183 179.679 136.683 178.181C135.328 182.58 134.912 187.558 133.602 191.971C132.618 195.285 129.017 203.557 129.251 201.621C130.253 198.292 131.256 194.96 132.261 191.632C133.229 188.42 134.203 185.156 134.217 181.807C134.228 179.508 134.821 176.46 134.765 174.401C130.644 175.906 129.062 175.961 124.941 177.466C123.202 178.102 118.613 179.539 116.937 180.319C113.609 181.865 111.14 183.511 108.133 185.594C106.041 187.041 103.443 190.01 101.969 192.063C102.234 189.73 103.928 187.807 105.699 186.223C113.214 179.515 123.213 176.217 133.044 173.672C133.327 173.6 134.081 173.474 134.357 173.378C134.828 173.217 135.136 172.335 135.205 172.047C135.604 170.398 135.876 169.858 136.274 168.209C128.699 166.748 120.29 166.646 112.774 167.296C109.366 167.59 100.202 171.192 102.234 169.988C107.113 167.552 112.561 166.218 118.034 166.119C123.922 166.013 131.071 164.993 136.627 166.902C137.549 165.318 137.619 164.248 138.485 162.859C135.3 162.164 132.275 160.762 129.712 158.785C126.583 156.373 124.068 153.085 120.433 151.491C117.761 150.321 114.754 150.191 111.831 150.078C115.481 149.179 119.459 149.637 122.797 151.337C127.725 153.852 131.175 158.88 136.48 160.495C137.109 160.687 137.783 160.823 138.418 160.652C139.054 160.481 139.316 158.778 139.27 158.135C140.87 159.845 143.224 159.985 143.982 157.601C143.797 158.083 143.79 158.757 144.247 159.007C144.394 159.086 144.568 159.099 144.732 159.092C145.483 159.062 146.175 158.702 146.821 158.323C148.675 157.235 153.781 153.4 155.702 152.429C157.623 151.457 166.284 149.924 168.389 150.396C166.147 150.851 159.439 151.785 157.354 152.712C156.963 152.887 151.256 156.263 150.893 156.486C150.362 156.811 149.887 157.218 149.377 157.57C148.351 158.282 146.894 159.209 145.721 159.65C145.04 159.907 143.384 160.399 143.255 160.683C143.018 161.2 146.535 160.693 147.236 160.635L147.229 160.645Z" fill="#5C7735"/>
<path d="M154.055 245.82C156.01 231.182 140.34 178.268 137.319 155.765C133.017 123.729 122.229 98.958 113.795 83.239C115.601 82.8114 117.406 82.3804 119.212 81.9528C120.56 85.3908 122.641 90.6419 125.236 97.0218C131.966 113.562 134.41 118.628 136.373 123.585C140.679 134.467 138.989 138.356 148.509 181.915C152.375 199.607 165.062 236.009 161.71 244.914C160.872 247.134 155.993 246.494 154.058 245.82H154.055Z" fill="#6E9343"/>
<path d="M107.959 71.3206C102.463 72.3092 97.8212 75.2102 93.3161 78.0529C96.0786 79.9173 99.5499 79.8523 102.763 80.4065C105.976 80.9573 109.737 82.9003 110.076 85.9347C104.561 82.7703 93.1101 80.2047 87.8262 82.5206C82.5423 84.8365 78.2538 95.1779 77.9674 100.881C81.4737 100.6 90.1242 96.3239 93.6758 96.3102C97.2275 96.2965 101.335 97.682 103.147 100.781C98.3067 103.261 91.7236 98.999 86.0067 99.389C81.7635 99.6798 78.4284 102.625 76.8673 106.217C75.3062 109.809 75.2678 113.976 75.624 118.047C79.6786 115.282 85.9578 115.498 90.5467 118.56C89.0625 121.426 83.2338 117.643 80.7263 119.733C79.2805 120.937 79.9126 123.291 80.639 125.179C82.5144 130.044 84.3863 134.908 86.2617 139.776C87.8122 137.337 91.315 136.762 94.507 136.923C97.699 137.084 101.006 137.775 104.006 137.084C107.006 136.393 109.576 133.629 108.48 130.69C107.82 128.922 106.081 127.652 104.767 126.185C103.454 124.717 102.553 122.46 103.8 121.225C109.021 123.999 112.87 129.277 113.593 134.665C118.597 133.263 122.334 129.147 123.088 124.204C123.846 119.261 121.597 113.664 117.371 109.987C119.495 109.121 122.358 110.408 123.804 112.406C125.25 114.403 127.929 123.021 127.639 125.248C148.345 113.11 133.23 101.794 128.655 96.1802C128.393 94.4595 132.821 97.1791 135.172 100.535C135.957 101.654 137.969 110.637 138.657 110.237C138.947 110.066 141.594 105.813 141.765 105.536C143.239 103.155 143.448 100.839 144.342 98.5201C145.708 94.9761 145.823 89.9987 142.39 86.3965C139.258 83.109 134.609 84.3063 130.845 82.3393C121.943 77.6835 119.826 69.1962 107.963 71.3309L107.959 71.3206Z" fill="#87B155"/>
<path d="M127.936 80.5331C127.429 82.6746 125.795 85.5721 124.23 87.1046C124.576 85.5823 123.245 83.9916 121.894 82.8662C119.051 80.5023 115.611 78.8124 112.056 78.029C114.12 79.3358 117.123 80.3279 119.191 81.6346C120.741 82.6164 123.137 85.3566 123.427 87.026C123.654 88.3259 121.611 89.6977 120.724 90.5871C119.69 91.6271 119.523 91.5381 118.506 92.6499C118.265 92.9133 117.19 93.2759 116.819 93.358C116.393 93.4538 115.922 93.2759 115.489 93.098C111.738 91.5757 107.704 90.6555 103.783 90.0227C99.8607 89.3898 98.8026 89.8995 93.4698 91.8118C100.234 90.4024 107.401 90.8539 114.197 93.7412C114.438 93.8438 115.667 94.1619 115.747 94.398C115.814 94.5895 115.112 94.983 115.042 95.1335C114.731 95.8279 114.099 96.8165 113.47 97.2647C110.177 99.5943 109.423 101.835 106.482 104.37C104.733 105.878 103.514 107.394 101.844 107.986C101.443 108.129 100.891 107.917 100.385 107.832C95.6944 107.048 93.9832 107.544 91.2487 108.328C86.8274 109.594 83.1954 110.798 79.9266 113.723C86.2093 111.975 91.8878 108.191 98.6943 108.684C99.4277 108.735 101.219 109.351 101.219 109.351C101.289 109.638 100.378 111.215 100.28 111.475C99.0575 114.68 97.7758 116.856 96.2113 119.894C95.5198 121.235 94.5699 123.021 93.4035 124.002C92.237 124.984 91.8354 125.665 86.5515 125.285C87.03 125.477 90.5083 126.079 91.6678 125.768C91.9262 125.699 93.0263 125.364 92.925 125.521C91.6119 127.519 88.9333 130.615 87.7913 132.719C91.4268 129.353 94.535 125.487 97.0215 121.249C97.8631 119.812 98.6349 118.331 99.2042 116.76C100.067 114.393 100.961 113.038 102.183 110.849C104.411 113.589 106.154 115.111 108.382 117.852C109.674 119.442 110.994 121.077 111.647 122.932C111.008 118.871 107.907 115.303 104.781 112.166C103.898 111.277 103.674 110.979 103.671 109.836C103.671 108.766 103.828 108.338 104.628 107.668C109.15 103.864 113.624 98.982 118.143 95.1779C121.611 97.3776 124.45 100.545 126.133 104.1C127.778 107.575 128.313 111.304 128.725 114.961C128.906 109.197 128.299 103.942 124.314 99.0572C122.914 97.3434 121.031 95.5748 119.302 94.1414C121.15 92.5336 122.596 90.269 124.244 88.668C125.438 87.5083 126.409 85.3805 127.534 84.6792C127.534 84.6792 130.338 85.6713 131.229 86.0955C133.422 87.132 135.112 89.0614 136.198 91.1345C137.284 93.2075 137.836 95.4345 138.329 97.641C138.783 94.9077 137.983 91.8699 136.167 89.4137C134.351 86.9576 131.536 85.1137 128.547 84.4227C128.316 84.3679 128.005 84.1319 128.005 84.1319C128.337 83.7795 128.589 83.6222 128.718 83.5298C129.643 82.8491 131.194 83.7419 131.676 82.7191C130.192 82.0965 129.27 81.4431 127.925 80.5399L127.936 80.5331Z" fill="#5C7735"/>
</g>
</svg>
