<svg width="181" height="297" viewBox="0 0 181 297" fill="none" xmlns="http://www.w3.org/2000/svg">
<g opacity="0.5">
<path d="M7.49018 53.8732C7.98565 68.3064 8.18796 90.6204 5.99962 117.81C2.32899 163.402 -4.85124 182.711 -7.58873 224.845C-8.66225 241.347 -9.31874 265.472 -6.7299 295.132C-11.4617 296.659 -15.0538 296.727 -16.0118 295.107C-20.0003 288.361 -16.949 258.717 -12.9316 196.65C-11.3667 172.453 -7.49788 162.835 -3.74881 142.773C-0.214432 123.865 -1.69673 119.301 0.48748 104.167C2.38267 91.0578 3.35297 71.939 -1.75453 47.6487C1.32566 49.7222 4.40585 51.7957 7.48604 53.8691L7.49018 53.8732Z" fill="#5C7735"/>
<path d="M-40.6409 46.527C-39.0636 44.9921 -37.3419 43.5302 -35.2774 42.7162C-29.8644 40.586 -23.8361 43.4208 -18.0019 43.518C-17.1679 43.5302 -16.3173 43.4897 -15.508 43.6962C-14.5336 43.9473 -13.6996 44.5386 -12.8242 45.0286C-9.50043 46.8874 -5.55729 47.2883 -1.74628 47.6528C-4.15758 44.3037 -8.01814 42.8498 -12.1058 41.9953C-13.6665 41.6673 -15.3677 41.4122 -16.4825 40.2944C-17.5766 39.197 -17.8244 37.5082 -17.6055 35.9896C-17.2133 33.2601 -15.5411 30.8505 -13.5757 28.8783C-3.83552 19.1103 12.2715 18.7175 23.5187 10.6504C26.1323 8.7754 28.4528 6.5035 31.2233 4.86336C36.4464 1.77341 42.3921 -0.891309 48.3749 0.283112C54.3578 1.45753 59.04 4.14251 64.1186 7.45518C66.8148 9.21277 69.3665 10.9987 73.066 11.5049C76.3609 11.9544 81.1794 13.0276 84.1605 14.4653C87.1457 15.9029 89.524 19.6003 88.3596 22.6538C88.3183 22.7591 88.1243 23.3909 87.8848 24.0631C88.4917 24.3102 89.1069 24.5896 89.7387 24.9014C91.1425 25.598 94.3094 29.7975 94.8379 31.2474C97.2286 37.8241 97.4102 41.1975 99.8009 47.7784C93.0088 43.9028 85.1514 42.0723 77.3106 41.5377C69.4697 41.0031 61.5999 41.72 53.7962 42.6554C50.1091 43.0969 45.9719 43.8582 43.9322 46.8996C44.2088 47.8998 45.6044 47.993 46.6532 47.8553C56.6948 46.5432 66.8602 43.5504 76.7697 45.6077C79.503 46.1747 82.1332 47.1142 84.8211 47.8593C89.5983 49.1836 94.5448 49.8842 99.2559 51.415C103.967 52.9458 108.567 55.4485 111.325 59.4983C106.63 55.5295 100.173 54.3592 94.0204 53.6181C84.8046 52.5044 75.5104 52.0144 66.2244 52.1521C77.1785 53.8165 88.1367 55.4809 99.0907 57.1454C101.048 57.441 103.116 57.7933 104.599 59.0812C106.622 60.8428 106.936 63.8193 106.704 66.4638C106.473 69.1083 105.846 71.8014 106.515 74.3729C107.076 76.5274 108.517 78.3903 110.255 79.8198C106.676 78.9248 101.391 81.3952 103.463 86.0726C103.967 88.3688 95.1848 82.2051 92.0509 82.2699C88.917 82.3347 89.9575 82.9988 87.1416 84.3515C85.0152 85.372 81.9019 85.3436 80.238 86.9959C78.2065 89.0087 75.0562 89.6688 72.2113 89.1868C69.3665 88.7049 66.79 87.2187 64.5315 85.4489C63.7842 84.8658 63.0575 84.234 62.5413 83.4443C61.8559 82.3873 61.6041 81.1238 61.2985 79.9049C60.3241 76.0212 58.3298 71.9552 54.5642 70.4163C53.8995 70.145 53.148 69.9587 52.4585 70.1693C51.228 70.5459 50.6913 72.0767 51.0092 73.2998C51.3271 74.5268 52.252 75.4987 53.1686 76.3897C59.8369 82.8531 67.7645 87.9071 75.6301 92.9126C77.6037 94.9051 61.6908 88.6401 54.4197 88.47C49.9563 88.3647 45.0346 88.6239 41.5622 85.8701C39.3821 84.1449 38.1806 81.4923 37.4043 78.8519C36.6281 76.2115 36.1904 73.4658 35.1458 70.9145C34.1012 68.3631 32.3134 65.9373 29.7039 64.929C27.0985 63.9165 23.6467 65.7713 24.2041 68.4644C25.1455 73.0203 27.3669 75.5879 29.5387 78.3174C35.984 86.4168 36.434 94.6742 44.535 101.19C45.6911 102.6 40.7612 99.3881 38.738 98.9184C28.4445 96.5209 17.5896 97.6022 7.23417 95.4801C-3.05928 93.3702 -12.6343 88.0327 -19.7526 80.4394C-20.8839 79.2326 -21.9946 77.8881 -22.2754 76.2723C-22.775 73.4091 -20.5701 70.8375 -18.5222 68.7357C-16.9862 67.1563 -15.4502 65.581 -13.9101 64.0016C-13.4436 63.5237 -12.9481 62.9729 -12.9481 62.3128C-12.9481 61.3854 -13.9886 60.7213 -14.93 60.7739C-15.8714 60.8266 -16.7013 61.3814 -17.4363 61.9605C-22.296 65.7713 -25.5868 71.4531 -26.4456 77.4993C-30.9296 74.4904 -34.9801 70.9023 -39.01 67.3304C-42.2842 64.4268 -45.798 61.0453 -45.992 56.7202C-46.1654 52.7838 -43.4857 49.297 -40.6326 46.5229L-40.6409 46.527ZM55.9681 23.4638C61.9715 22.4756 68.0989 22.589 74.185 22.7065C77.8391 22.7753 79.6517 22.7915 83.3017 22.909C83.6278 22.9211 83.9747 22.9616 84.3298 23.0183C83.6691 22.4027 83.0457 21.8803 82.6864 21.7345C68.5407 16.0447 54.2958 18.1627 40.9098 25.4117C39.5555 26.1447 38.0691 27.226 38.1269 28.7406C43.957 26.6145 49.8325 24.4721 55.9681 23.4638ZM14.6993 31.2312C15.0214 32.2436 16.0412 33.0981 17.1106 32.9442C17.6928 32.8591 18.1924 32.5068 18.6548 32.1504C22.3131 29.3156 25.0671 25.5332 28.2216 22.1638C31.3761 18.7944 35.2119 15.7004 39.8115 14.9391C41.5085 14.6597 44.5268 14.8824 45.654 13.4285C44.7002 12.8656 43.3707 12.9993 42.2724 12.8454C40.179 12.5457 38.193 11.7641 36.0913 11.5252C32.4785 11.1161 28.8492 12.5659 25.9631 14.7325C23.0769 16.8992 20.806 19.7461 18.5681 22.5607C17.189 24.298 15.7893 26.0677 14.9925 28.125C14.6085 29.1172 14.3731 30.2187 14.6952 31.2312H14.6993Z" fill="#7CA050"/>
<path d="M51.4799 61.0412C55.6047 62.5679 72.36 69.0839 77.1124 71.1452C78.4378 71.7203 80.2173 73.3928 85.2092 75.1059C85.6386 75.2517 84.5775 74.2433 84.4247 74.1501C73.4954 67.4316 52.4791 60.4094 43.9817 56.8011C50.844 54.3632 58.8542 51.909 66.1087 51.1072C57.727 51.091 49.2131 52.9539 41.5044 56.1734C34.799 55.0759 28.1101 53.6909 20.5376 52.1439C39.8693 39.4278 45.8398 35.4874 59.8617 33.4625C53.0613 33.4099 46.2527 35.0055 40.2079 38.0671C38.0691 39.1524 36.0335 40.4118 33.998 41.6713C32.5033 42.5947 31.0086 43.522 29.5139 44.4454C27.049 45.9681 24.5881 47.4948 22.1396 49.0418C21.2437 49.6088 19.6169 51.3056 18.5722 51.5203C18.5722 51.5203 14.6374 50.8358 13.0642 50.2122C21.1363 44.6681 30.509 38.3991 38.5852 32.851C39.283 32.3731 39.9891 31.8831 40.5258 31.2352C31.0004 34.965 15.1163 47.7743 11.3755 49.7181C11.136 49.8437 9.64133 49.5764 9.82713 49.382C12.5564 46.5634 15.6118 44.0607 18.692 41.9183C20.2197 40.8573 22.2883 38.387 23.6797 37.1599C26.2108 34.9285 28.333 31.1542 30.6783 28.7365C36.0955 23.1559 42.1031 21.0987 49.147 18.4785C51.3767 17.6483 53.9325 16.7817 56.319 16.6804C57.9252 16.6116 60.737 17.049 62.0211 16.0932C52.5369 14.6151 43.3046 19.2844 34.8816 23.808C33.3497 24.63 31.7931 25.4683 30.5544 26.6752C29.4726 27.724 28.6716 29.0119 27.8128 30.243C23.2916 36.7185 17.0363 41.8009 10.8635 46.7983C9.89733 47.5799 7.68422 49.2889 6.59005 48.6976C5.96658 41.9912 5.67343 34.1834 7.38281 27.396C8.27466 23.8525 12.127 21.8195 15.298 19.9081C16.1774 19.3775 17.2014 18.4866 16.7927 17.5592L8.14666 24.2089C7.38694 24.792 6.80062 25.5736 6.47443 26.4686C5.36375 29.5059 5.07886 31.3485 5.07473 33.9323C5.06234 38.7839 5.29768 43.9878 5.47936 48.8353C5.48762 49.054 4.89717 49.0054 4.89717 49.0054C1.55686 45.1136 -1.08566 42.1289 -5.48298 38.7312C-2.94781 41.4688 -2.48537 41.7199 0.124119 44.6438C0.854942 45.4619 4.90131 49.0054 3.36122 49.3739L-2.79917 45.3566C-3.18729 45.1824 -3.8314 45.3971 -3.52998 45.6927L1.81699 49.5966C-2.17983 50.8844 -7.04371 50.6334 -11.2346 51.0181C-17.8409 51.6255 -24.0839 55.323 -27.7049 60.7779C-23.0846 55.3675 -16.1109 51.9576 -8.92238 51.5932C-6.64734 51.4798 -4.35165 51.6498 -2.10551 51.2813C0.598949 50.8359 3.36948 49.6169 5.96658 50.4714C6.9823 51.0788 5.14904 51.6336 4.51319 52.0791C-0.548893 55.6429 -4.1452 59.1013 -6.51521 64.0704C-8.88522 69.0394 -10.0909 74.4498 -11.28 79.8076C-9.0091 71.7041 -6.4987 63.1916 -0.350704 57.3357C1.50319 55.574 3.62547 54.1121 5.74362 52.6623C6.44554 52.1804 7.19287 51.6822 8.04344 51.6053C8.62149 51.5527 9.19541 51.7025 9.75695 51.8483C11.7925 52.3829 13.8322 52.9134 15.8678 53.4479C15.81 54.027 15.6407 54.4199 15.3723 54.918C15.3228 54.999 15.3021 55.1124 15.2278 55.242C12.4036 60.0976 11.7182 65.2812 12.5109 70.8982C13.089 75.0006 14.4722 78.9531 16.4376 82.6181C18.1387 85.781 20.1536 89.2273 23.399 91.0861C17.0734 84.2623 13.5803 74.9884 13.8611 65.7713C13.9272 63.6208 14.1956 61.4461 14.9966 59.4415C15.6779 57.7366 16.7266 56.1977 17.763 54.671C17.9075 54.4563 18.0685 54.2336 18.308 54.1242C18.5681 54.0068 18.8695 54.0554 19.1544 54.104C22.3254 54.6507 25.6658 54.9868 28.8161 55.6469C30.5957 56.0195 34.0269 56.9955 34.0269 56.9955C35.3027 58.255 36.0789 59.1499 36.9956 61.3408C38.9197 65.1111 40.1171 67.4195 41.1699 71.5097C41.62 73.2673 42.1361 77.9852 43.8496 78.6696C42.9743 77.6086 42.8504 76.1588 42.6605 74.8062C41.8223 68.7681 39.1179 63.1592 36.4506 57.6596C38.3168 57.603 40.146 58.1051 41.9379 58.6032C44.9066 59.4253 48.6185 59.972 51.5047 61.0452L51.4799 61.0412Z" fill="#5C7735"/>
<path d="M-4.39002 294.836C-1.52041 290.348 7.11734 269.423 12.8194 252.358C17.2167 239.188 28.0263 227.262 49.6454 203.413C58.0932 194.09 70.1993 181.67 86.1246 168.192C85.7406 166.807 85.3608 165.418 84.9768 164.033C73.9236 172.384 61.6607 182.763 49.183 195.492C41.3545 203.478 31.2304 213.849 20.2721 229.432C11.5477 241.845 6.23375 253.075 -4.39414 275.534C-8.45289 284.112 -12.7098 293.706 -9.98886 295.787C-9.98886 295.787 -4.96807 295.726 -4.39414 294.831L-4.39002 294.836Z" fill="#7CA050"/>
<path d="M153.682 191.077C147.898 187.356 143.339 183.5 137.555 179.779C136.605 179.167 135.606 178.507 135.255 177.393C135.032 176.681 135.193 175.875 135.8 175.425C136.745 174.725 138.005 175.356 138.959 175.98C141.841 177.871 144.698 179.807 147.522 181.779C149.066 182.86 150.631 183.974 151.762 185.469C152.828 186.874 152.778 189.563 153.682 191.073C153.682 191.073 162.32 198.808 165.669 201.765C167.423 203.316 169.257 204.162 172.271 207.341C172.271 207.341 172.63 207.827 173.728 205.503C174.15 204.612 175.244 203.417 175.706 202.55C177.197 199.744 179.554 197.176 180.359 194.115C181.879 188.348 180.302 186.849 179.662 183.65C178.96 180.143 177.283 178.726 174.154 176.899C171.804 175.53 169.013 174.263 166.895 172.469C165.252 171.08 163.373 169.978 161.309 169.318C150.945 165.989 140.829 161.915 131.076 157.137C130.56 156.886 129.999 156.574 129.834 156.031C129.685 155.533 129.933 154.994 130.284 154.61C131.605 153.144 133.954 153.322 135.911 153.702C150.053 156.464 163.208 163.888 172.746 174.494C173.58 168.379 172.519 162.089 170.182 156.359C169.414 154.472 168.497 152.621 167.238 151.005C165.111 148.272 162.081 146.316 158.86 144.959C150.243 141.331 140.449 141.812 131.142 142.954C128.884 143.23 126.328 143.461 124.598 142.011C125.643 140.342 127.501 139.342 129.342 138.589C138.368 134.908 149.165 135.697 157.531 140.654C152.407 132.255 145.09 125.083 136.287 120.47C127.484 115.858 117.187 113.885 107.327 115.372C104.515 115.797 101.662 116.526 99.6139 118.66C99.0441 119.255 98.5858 119.952 98.3009 120.717C96.6122 125.225 101.278 128.242 102.009 132.328C102.455 134.806 101.464 137.657 102.962 139.694C103.334 140.197 102.744 141.225 102.219 141.569C100.708 140.812 100.076 139.063 99.5189 137.487C97.6072 132.073 94.8573 126.65 90.1008 123.321C85.3443 119.992 78.164 119.454 73.9443 123.415C69.2042 127.865 70.0548 135.333 68.4941 141.582C67.0572 147.336 62.1396 150.961 59.9637 156.489C59.3361 158.08 59.5673 161.117 60.1206 162.818C60.6161 164.345 62.6888 170.1 63.7334 169.99C64.9638 169.865 64.0761 165.013 66.5741 162.818C73.6057 156.634 78.4076 151.39 86.3641 152.852C86.8513 152.941 87.3138 153.188 87.6152 153.577C88.6103 154.853 87.1693 156.327 85.8604 157.068C80.8974 159.878 75.0921 161.352 70.7856 165.062C66.7186 168.569 64.4105 173.955 64.7037 179.26C64.9968 184.565 67.8871 189.672 72.3175 192.726C72.8501 193.094 73.4736 193.455 74.1961 192.912C74.6999 192.535 74.9352 191.916 74.9187 191.296C74.7246 184.744 77.8709 178.187 83.1518 174.166C83.6968 173.753 84.4772 173.712 84.9933 174.162C85.7076 174.781 85.2823 175.684 84.8529 176.373C83.0403 179.293 81.1204 182.281 80.5836 185.659C79.6257 191.713 83.4739 197.715 88.6061 201.21C93.7384 204.705 99.969 206.195 106.043 207.617C103.441 197.456 104.242 186.485 108.318 176.798C108.731 175.822 109.631 175.085 110.704 175C111.91 174.903 112.43 175.697 112.789 176.486C114.499 180.252 113.454 184.642 111.988 188.506C110.523 192.369 108.627 196.233 108.689 200.355C108.776 206.11 112.781 211.257 117.728 214.351C122.674 217.445 128.496 218.855 134.198 220.211C133.529 217.741 130.812 216.457 129.14 214.497C127.1 212.108 126.7 208.803 126.386 205.705C125.948 201.42 125.511 197.132 125.073 192.847C124.949 191.62 124.858 190.251 126.118 189.458C126.91 188.955 127.93 188.98 128.772 189.393C130.585 190.284 131.237 192.171 131.811 193.941C134.024 200.76 136.242 207.596 137.774 214.594C139.041 220.381 140.172 226.841 144.933 230.481C147.402 232.368 150.569 233.227 153.018 235.147C155.887 237.394 157.518 241.079 157.233 244.672C159.711 244.169 159.735 240.796 160.437 238.411C162.027 233.008 169.323 230.765 170.954 225.375C171.792 222.605 170.917 219.648 170.041 216.886C172.444 216.579 173.369 219.855 173.34 222.232C176.152 216.753 176.301 211.662 172.263 207.337" fill="#8BAE63"/>
<path d="M102.075 142.359C100.943 142.23 99.9814 141.452 99.3207 140.541C98.6601 139.63 98.2431 138.577 97.727 137.581C95.6625 133.6 91.9052 130.493 87.5533 129.177C89.0727 129.918 90.2949 131.121 91.4881 132.304C92.9044 133.705 94.3412 135.139 95.2537 136.896C95.7905 137.929 96.1332 139.047 96.6906 140.067C97.4462 141.44 98.594 142.606 99.9649 143.392C100.386 143.635 100.84 143.849 101.146 144.222C101.451 144.595 101.554 145.182 101.224 145.534C101.051 145.72 100.791 145.801 100.547 145.874C97.8549 146.652 95.0225 146.802 92.2231 146.943C91.133 147 90.0389 147.053 88.9612 146.899C87.8918 146.745 86.8637 146.389 85.8026 146.198C84.2253 145.915 82.6027 146 81.0006 146.105C78.738 146.251 76.4547 146.437 74.2787 147.077C72.1028 147.717 70.0218 148.839 68.6097 150.584C72.9946 149.106 77.5364 147.608 82.1567 148C83.4739 148.114 84.7662 148.377 86.0668 148.612C90.7119 149.446 95.5923 149.851 100.08 148.414C101.001 148.118 101.98 147.745 102.909 148.017C103.706 148.252 104.28 148.92 104.804 149.552C105.601 150.511 106.402 151.475 107.199 152.435C101.678 154.452 96.8764 158.335 94.0439 163.398C91.2115 168.46 90.0017 174.303 90.0017 180.078C91.7111 170.578 96.6989 161.13 104.882 155.784C106.014 155.043 107.868 153.318 109.115 153.856C109.874 154.184 111.505 156.756 111.926 157.457C112.455 158.343 113.12 159.437 113.533 160.38C113.78 160.947 114.036 161.433 113.904 162.041C113.735 162.831 112.046 163.223 111.369 163.685C108.974 165.317 106.579 166.949 104.185 168.581C102.834 169.5 101.46 170.444 100.469 171.736C99.874 172.513 99.4364 173.392 99.0069 174.267C97.7435 176.83 96.4718 179.511 96.4676 182.358C96.4594 186.663 99.3249 190.519 99.7667 194.799C98.5073 191.175 98.4413 187.271 98.3917 183.444C98.3669 181.597 98.3463 179.714 98.9285 177.956C99.8864 175.053 102.356 172.882 104.92 171.153C107.484 169.424 108.264 169.225 110.766 167.281C111.926 166.378 114.119 163.973 115.494 164.503C119.078 165.888 121.324 169.492 123.45 172.647C123.595 172.866 123.748 173.093 123.768 173.356C123.797 173.676 123.624 173.971 123.475 174.255C122.835 175.454 122.447 176.762 122.067 178.058C121.382 180.374 120.7 182.686 120.015 185.003C119.074 188.186 118.128 191.418 118.116 194.73C118.103 198.282 119.16 201.74 120.209 205.138C120.692 206.701 121.196 208.301 122.212 209.593C120.853 206.357 120.036 202.903 119.804 199.408C119.251 191.037 122.022 182.836 124.755 174.887C126.625 176.616 128.521 178.369 129.887 180.504C131.291 182.695 132.08 185.201 132.926 187.651C135.457 195.018 138.583 202.19 142.266 209.078C139.586 200.064 136.898 191.029 133.195 182.371C133.616 182.642 134.173 183.213 134.528 183.565C138.455 187.433 143.48 190.219 148.885 191.527C148.476 191.114 147.951 190.83 147.439 190.559C145.99 189.786 144.537 189.012 143.013 188.388C142.34 188.113 141.642 187.862 141.056 187.437C140.519 187.048 140.102 186.53 139.636 186.064C137.501 183.934 134.834 182.431 132.873 180.143C127.286 173.615 124.099 169.059 119.131 164.155C125.688 163.665 132.208 165.426 138.352 167.715C144.495 170.003 150.445 172.837 156.758 174.64C151.341 172.181 145.928 169.723 140.511 167.265C138.818 166.496 137.121 165.726 135.358 165.127C130.346 163.422 124.966 163.146 119.689 162.604C119.181 162.551 118.652 162.49 118.219 162.223C117.794 161.96 117.509 161.531 117.236 161.118C115.275 158.109 113.314 155.1 111.352 152.091C115.399 152.84 119.425 150.924 123.516 150.459C126.142 150.159 128.797 150.463 131.44 150.564C137.856 150.811 144.59 149.912 150.466 152.455C148.624 150.957 146.209 150.345 143.851 149.952C138.822 149.114 133.69 149.09 128.587 149.078C123.314 149.066 117.934 149.078 112.93 150.702C112.067 150.981 111.121 151.309 110.279 150.973C109.594 150.698 108.755 149.807 108.256 149.272C107.042 147.972 105.919 147.336 105.101 146.065C107.541 144.465 111.253 142.517 113.784 141.055C117.319 139.006 120.903 137.034 124.482 135.058C126.423 133.988 128.388 132.907 130.531 132.304C133.723 131.405 137.138 131.611 140.387 130.939C136.816 130.408 133.087 129.886 129.648 130.984C127.216 131.761 125.127 133.292 122.93 134.584C117.183 137.965 110.477 139.812 105.32 144.011C105.019 144.258 104.672 144.53 104.28 144.489C103.78 144.441 103.47 143.878 103.512 143.388C103.553 142.898 103.838 142.46 104.102 142.039C105.725 139.423 106.674 136.471 107.608 133.551C108.367 131.178 109.127 128.805 109.887 126.436C110.717 123.844 111.559 121.183 111.435 118.466C109.428 121.22 108.305 124.484 107.211 127.695C105.539 132.611 103.755 137.443 102.079 142.359H102.075Z" fill="#638234"/>
<path d="M15.1195 189.398C12.3284 191.8 8.40174 197.753 4.49163 202.127C4.49163 202.127 -4.55074 212.247 -10.4799 223.562C-17.7014 237.339 -21.979 263.16 -16.6733 293.942C-19.9228 295.202 -23.0195 295.744 -23.4572 294.311C-27.6357 280.533 -32.161 255.219 -15.5131 222.14C-8.89439 208.991 4.63615 192.342 11.0154 187.795C12.3531 188.742 11.9031 188.977 15.1154 189.398H15.1195Z" fill="#7CA050"/>
<path d="M13.1665 188.686C15.3053 188.706 17.0643 186.879 17.7455 184.891C18.4268 182.903 18.3029 180.752 18.3814 178.658C18.4598 176.565 18.8108 174.341 20.2188 172.762C21.3377 171.507 22.9769 170.834 24.5831 170.284C32.4363 167.595 40.9874 166.902 49.1833 168.291C51.574 168.696 53.9564 169.283 56.1117 170.377C58.7253 171.701 60.9012 173.714 63.04 175.702C64.031 176.621 65.0178 177.541 66.0087 178.46C71.364 183.433 77.0826 189.151 77.4624 196.376C71.8883 194.189 66.273 191.986 60.3769 190.872C54.4807 189.759 48.2171 189.791 42.6472 191.986C41.6438 192.379 40.4836 193.375 41.0575 194.274C48.6961 191.921 56.9416 191.488 64.7948 193.023C66.818 193.42 68.8329 193.95 70.6662 194.882C74.5061 196.83 77.3551 200.568 78.1726 204.731C78.7837 207.857 78.3047 211.089 78.5731 214.26C78.6474 215.126 78.7754 215.989 78.7424 216.86C78.7094 217.653 78.5442 218.435 78.379 219.208C77.8216 221.804 77.2642 224.4 76.7068 227C69.6216 215.09 57.6105 206.091 44.0304 202.524C41.2309 201.786 38.2829 201.272 35.438 201.827C34.8517 201.94 34.2076 202.147 33.9186 202.661C33.547 203.321 33.9681 204.192 34.6205 204.589C35.2729 204.986 36.0739 205.042 36.8419 205.091C43.2706 205.508 49.7077 206.432 55.8061 208.473C61.1655 210.267 66.6157 213.316 68.7214 218.471C70.2822 222.298 69.7206 226.652 68.5026 230.592C66.6859 236.456 63.457 241.895 59.1506 246.333C59.0432 236.136 52.0405 226.336 42.3045 222.76C41.0617 222.302 39.7404 221.938 38.4233 222.1C37.1061 222.262 35.8014 223.064 35.405 224.307C34.6866 226.563 37.0731 228.511 39.1335 229.742C42.8247 231.945 46.4954 234.237 49.6334 237.149C52.7713 240.06 55.3726 243.657 56.4709 247.755C54.489 250.768 50.9009 252.655 47.4244 253.773C43.9478 254.891 40.3061 255.482 36.8997 256.79C33.4933 258.098 30.2232 260.305 28.7863 263.602C30.2604 260.868 28.84 257.304 26.3503 255.401C23.8605 253.497 20.6028 252.906 17.4689 252.586C14.7479 252.311 12.0146 252.193 9.2812 252.238C4.60724 252.315 -0.42181 252.785 -4.41037 250.387C-6.53264 249.112 -8.11815 247.148 -9.65411 245.228C-11.4419 242.992 -12.276 240.36 -12.1562 237.517C-12.0943 236.023 -11.8507 235.075 -11.2892 233.771C-7.17676 224.23 -4.30301 222.655 1.61789 217.512C3.3603 215.997 6.42811 213.992 6.07302 211.737C5.97805 211.117 5.7427 210.461 5.20181 210.129C4.83846 209.902 4.38841 209.862 3.959 209.845C-2.70511 209.615 -8.57233 214.774 -11.1901 220.788C-13.8078 226.802 -13.8615 233.553 -13.8739 240.093C-19.6296 236.278 -24.2995 231.532 -27.4911 225.477C-28.8083 222.975 -29.8777 220.067 -28.99 217.39C-30.4227 219.034 -30.9925 221.367 -30.4681 223.469C-34.1883 220.407 -40.6707 216.313 -42.6072 211.943C-44.0152 208.772 -44.8327 207.772 -45.1878 204.33C-45.3777 202.475 -44.8286 200.608 -44.0069 198.927C-43.2265 197.328 -42.1695 195.821 -40.7038 194.78C-39.0233 193.586 -36.9464 193.1 -35.0099 192.375C-32.1568 191.314 -29.5226 189.698 -27.2971 187.649C-28.7959 187.078 -30.4846 187.39 -32.0247 187.843C-37.285 189.394 -42.0374 192.565 -45.4355 196.801C-46.9508 192.812 -45.13 188.422 -43.3339 184.551C-42.4833 182.716 -41.6328 180.878 -40.5427 179.169C-38.2718 175.597 -35.0182 172.689 -31.4013 170.425C-25.2491 166.574 -17.9946 164.529 -10.7029 164.258C-8.01906 164.16 -5.29396 164.298 -2.74227 165.112C4.22738 167.331 8.74444 174.337 9.84687 181.441C10.2639 184.138 10.4208 188.649 13.1996 188.677L13.1665 188.686Z" fill="#7CA050"/>
<path d="M6.93182 190.176C-0.149319 189.937 -5.83487 188.884 -12.9077 189.321C-19.9806 189.759 -27.3219 192.006 -31.9504 197.271C-28.3376 195.06 -24.6298 192.808 -20.4678 191.917C-18.7337 191.545 -16.9582 191.419 -15.1869 191.302C-7.05703 190.759 3.76079 191.496 10.363 192.298C11.6595 192.456 13.0096 193.035 13.2904 193.395C14.0831 194.416 15.7554 196.696 15.5861 197.968C7.02266 197.619 -3.42356 198.421 -11.1777 202.001C-18.9319 205.581 -25.4556 212.551 -26.558 220.885C-23.837 218.787 -23.837 214.738 -21.9501 211.891C-21.2234 210.793 -20.2242 209.894 -19.1837 209.08C-14.5841 205.48 -7.94063 202.135 -2.2014 200.855C3.53783 199.575 8.10444 200.045 13.9758 199.616C14.4795 199.579 15.5737 199.336 15.9742 199.636C16.3128 199.887 16.9445 200.754 17.0766 201.147C17.9974 203.904 18.8851 204.775 19.1163 209.465C16.2674 211.344 13.6579 213.721 10.8502 215.657C8.17051 217.499 5.4454 219.484 3.85988 222.29C1.98947 225.607 1.97296 229.604 2.19592 233.387C2.807 228.503 3.62041 223.201 7.25801 219.812C8.37282 218.771 9.69408 217.977 11.0071 217.188C13.9634 215.414 16.4449 212.709 19.4012 210.935C21.0033 216.143 21.4946 222.035 23.043 227.259C24.2073 231.183 28.4642 240.976 28.1876 238.684C27.0026 234.743 25.8176 230.799 24.6285 226.858C23.4847 223.056 22.3328 219.192 22.3163 215.228C22.3039 212.506 21.6019 208.898 21.668 206.46C26.5402 208.242 28.4106 208.307 33.2827 210.088C35.3389 210.842 40.7644 212.543 42.7463 213.466C46.6811 215.296 49.6003 217.244 53.1553 219.711C55.6286 221.424 58.7005 224.939 60.4429 227.369C60.1291 224.607 58.1266 222.331 56.0332 220.456C47.1477 212.514 35.3265 208.61 23.7036 205.597C23.3691 205.512 22.4773 205.362 22.1511 205.249C21.5937 205.059 21.2304 204.014 21.1478 203.674C20.6771 201.722 20.355 201.082 19.8843 199.13C28.84 197.401 38.7825 197.279 47.668 198.049C51.6978 198.397 62.5321 202.661 60.1291 201.236C54.361 198.352 47.9198 196.773 41.4498 196.655C34.4884 196.53 26.0364 195.323 19.4673 197.583C18.3773 195.708 18.2947 194.44 17.2707 192.796C21.0363 191.974 24.6119 190.314 27.6426 187.973C31.3421 185.118 34.315 181.226 38.6132 179.339C41.7718 177.954 45.3269 177.8 48.7828 177.666C44.468 176.601 39.7652 177.144 35.8179 179.157C29.992 182.133 25.9126 188.086 19.6407 189.998C18.8975 190.225 18.1006 190.386 17.3491 190.184C16.5977 189.982 16.288 187.965 16.3417 187.203C14.4506 189.228 11.6677 189.394 10.7717 186.572C10.9906 187.143 10.9988 187.94 10.4579 188.236C10.2845 188.329 10.0781 188.345 9.88401 188.337C8.99628 188.301 8.17876 187.876 7.41491 187.426C5.22244 186.138 -0.814072 181.599 -3.08499 180.448C-5.35591 179.298 -15.5957 177.484 -18.0854 178.043C-15.4347 178.582 -7.50296 179.687 -5.03798 180.785C-4.57554 180.991 2.17115 184.988 2.60056 185.251C3.22816 185.636 3.78969 186.118 4.39252 186.535C5.60643 187.378 7.32819 188.475 8.71552 188.997C9.52066 189.301 11.4778 189.884 11.6306 190.22C11.9113 190.832 7.75348 190.233 6.92356 190.164L6.93182 190.176Z" fill="#5C7735"/>
<path d="M-1.13743 291.008C-3.44964 273.679 15.0769 211.038 18.6485 184.399C23.7353 146.473 36.4896 117.149 46.461 98.5403C44.3263 98.0341 42.1917 97.5239 40.057 97.0176C38.4632 101.088 36.0024 107.304 32.9346 114.857C24.9781 134.437 22.0879 140.435 19.7674 146.303C14.6764 159.185 16.6748 163.79 5.41932 215.355C0.848579 236.3 -14.1519 279.393 -10.1881 289.935C-9.19713 292.563 -3.429 291.806 -1.14157 291.008H-1.13743Z" fill="#6E9343"/>
<path d="M53.3605 84.431C59.8594 85.6014 65.3468 89.0356 70.6731 92.4009C67.4071 94.608 63.303 94.531 59.5043 95.1871C55.7057 95.8391 51.2588 98.1394 50.8583 101.731C57.3779 97.9855 70.9167 94.9482 77.1638 97.6898C83.4109 100.432 88.4812 112.674 88.8198 119.425C84.6743 119.093 74.447 114.031 70.2478 114.014C66.0487 113.998 61.1931 115.638 59.0501 119.307C64.7729 122.243 72.5559 117.197 79.315 117.659C84.3316 118.003 88.2748 121.49 90.1204 125.742C91.9661 129.995 92.0115 134.927 91.5903 139.746C86.7966 136.474 79.3728 136.729 73.9474 140.354C75.7022 143.747 82.5934 139.268 85.5579 141.743C87.2673 143.168 86.52 145.955 85.6612 148.19C83.4439 153.949 81.2308 159.707 79.0136 165.47C77.1803 162.583 73.039 161.902 69.2651 162.093C65.4913 162.283 61.5812 163.101 58.0344 162.283C54.4877 161.465 51.4488 158.193 52.7453 154.714C53.5256 152.62 55.5818 151.118 57.1343 149.381C58.6868 147.643 59.7521 144.97 58.278 143.508C52.1053 146.793 47.5552 153.042 46.7005 159.42C40.7837 157.759 36.3657 152.888 35.4739 147.036C34.5779 141.184 37.2369 134.559 42.233 130.205C39.7226 129.181 36.3368 130.703 34.6275 133.068C32.9181 135.433 29.7512 145.635 30.0939 148.271C5.61339 133.903 23.4834 120.506 28.8924 113.86C29.202 111.823 23.9665 115.043 21.1878 119.016C20.2587 120.34 17.8805 130.975 17.0671 130.501C16.7244 130.298 13.5946 125.264 13.3923 124.936C11.6499 122.118 11.4022 119.376 10.3452 116.63C8.73075 112.435 8.59449 106.543 12.6532 102.278C16.3569 98.3864 21.8525 99.8038 26.3035 97.4752C36.8282 91.9635 39.3303 81.9161 53.3563 84.4432L53.3605 84.431Z" fill="#87B155"/>
<path d="M29.7429 95.337C30.3416 97.8721 32.274 101.302 34.1237 103.117C33.715 101.314 35.2881 99.4313 36.886 98.0989C40.2469 95.3005 44.3139 93.3 48.5172 92.3726C46.077 93.9196 42.5261 95.094 40.0818 96.641C38.2485 97.8033 35.4161 101.047 35.0734 103.023C34.805 104.562 37.2204 106.186 38.2692 107.239C39.4913 108.47 39.6895 108.365 40.8911 109.681C41.176 109.993 42.4477 110.422 42.8853 110.519C43.3891 110.633 43.9465 110.422 44.4585 110.212C48.893 108.41 53.6619 107.32 58.2987 106.571C62.9355 105.822 64.1865 106.425 70.4914 108.689C62.4937 107.02 54.0211 107.555 45.9862 110.973C45.7013 111.095 44.2479 111.471 44.1529 111.751C44.0745 111.977 44.9044 112.443 44.987 112.621C45.3544 113.443 46.1018 114.614 46.845 115.144C50.7386 117.902 51.6304 120.555 55.107 123.556C57.1756 125.341 58.6166 127.135 60.5902 127.836C61.0651 128.006 61.7174 127.755 62.3161 127.654C67.8613 126.726 69.8845 127.314 73.1174 128.241C78.3447 129.739 82.6388 131.165 86.5035 134.627C79.0755 132.558 72.3618 128.079 64.3145 128.662C63.4475 128.723 61.3293 129.452 61.3293 129.452C61.2467 129.792 62.3244 131.659 62.44 131.967C63.8851 135.761 65.4005 138.337 67.2502 141.933C68.0677 143.521 69.1908 145.635 70.5699 146.797C71.949 147.959 72.4238 148.765 78.6709 148.316C78.1052 148.542 73.9928 149.255 72.622 148.887C72.3164 148.806 71.0158 148.409 71.1356 148.595C72.688 150.96 75.8549 154.625 77.2051 157.116C72.9069 153.131 69.2321 148.555 66.2923 143.537C65.2972 141.836 64.3847 140.082 63.7117 138.224C62.6919 135.421 61.6349 133.818 60.1897 131.226C57.5555 134.47 55.4951 136.272 52.8609 139.516C51.3332 141.399 49.7724 143.334 49.0003 145.529C49.7559 140.722 53.4224 136.498 57.1178 132.785C58.1624 131.732 58.4267 131.38 58.4308 130.027C58.4308 128.759 58.245 128.253 57.2995 127.459C51.9525 122.956 46.6633 117.177 41.3205 112.674C37.2204 115.278 33.8636 119.028 31.8735 123.236C29.9287 127.35 29.297 131.764 28.8098 136.093C28.5951 129.27 29.3135 123.049 34.0246 117.266C35.6803 115.237 37.9058 113.144 39.9497 111.447C37.7654 109.543 36.0561 106.863 34.1072 104.967C32.6951 103.594 31.5473 101.075 30.2177 100.245C30.2177 100.245 26.9022 101.42 25.8493 101.922C23.2564 103.149 21.2579 105.433 19.9738 107.887C18.6897 110.341 18.0374 112.978 17.4552 115.59C16.9184 112.354 17.8639 108.758 20.011 105.85C22.1581 102.942 25.486 100.76 29.0203 99.9415C29.2929 99.8767 29.6603 99.5973 29.6603 99.5973C29.2681 99.1802 28.9708 98.9939 28.818 98.8846C27.7239 98.0787 25.8906 99.1356 25.3208 97.9248C27.0756 97.1877 28.1657 96.4142 29.7553 95.3451L29.7429 95.337Z" fill="#5C7735"/>
</g>
</svg>
