<svg width="50" height="66" viewBox="0 0 50 66" fill="none" xmlns="http://www.w3.org/2000/svg">
<path d="M8.33325 37.5001V12.5001L30.2083 4.16675L41.6666 8.33342V41.6668L30.2083 45.8334L8.33325 37.5001ZM8.33325 37.5001L29.1666 38.5418V12.5001L17.7083 15.6251V32.2917L8.33325 37.5001Z" fill="#3F6A45"/>
<path d="M8.33325 37.5001V12.5001L30.2083 4.16675L41.6666 8.33342V41.6668L30.2083 45.8334L8.33325 37.5001ZM8.33325 37.5001L29.1666 38.5418V12.5001L17.7083 15.6251V32.2918L8.33325 37.5001Z" stroke="#3F6A45" stroke-width="1.5" stroke-linecap="round" stroke-linejoin="round"/>
<rect x="1.5" y="58.5" width="47" height="7" rx="3.5" stroke="#3F6A45"/>
<rect x="1.5" y="58.5" width="31" height="7" rx="3.5" fill="#3F6A45"/>
<rect x="1.5" y="58.5" width="31" height="7" rx="3.5" stroke="#3F6A45"/>
</svg>
