<svg width="446" height="478" viewBox="0 0 446 478" fill="none" xmlns="http://www.w3.org/2000/svg">
<path d="M189.11 160.394C206.218 153.151 231.463 162.846 235.103 165.991C245.982 175.387 249.887 185.609 252.491 192.419C256.085 201.826 254.72 204.128 253.996 205C251.087 208.442 244.883 204.927 238.537 208.63C232.089 212.379 230.804 220.499 230.741 220.964C229.809 227.404 233.557 229.707 239.325 244.309C242.399 252.111 243.936 256.011 244.039 260.278C244.157 265.472 242.556 270.633 239.335 280.962C237.987 285.304 236.603 289.145 235.829 291.301C232.848 299.585 231.877 301.144 231.043 303.943C229.69 308.446 228.972 315.218 232.146 324.763" stroke="#536B1B" stroke-width="2" stroke-miterlimit="10"/>
<path d="M232.702 372.203C232.091 371.845 235.121 368.42 234.23 363.82C233.672 360.97 231.979 359.532 228.409 355.954C221.915 349.426 218.663 346.174 217.56 343.152C217.2 342.184 214.809 335.366 218.665 329.892C221.241 326.243 225.281 325.046 227.797 324.296C229.872 323.681 234.712 322.321 240.142 324.338C240.893 324.622 247.154 327.074 249.717 333.487C250.185 334.642 251.68 338.835 248.594 348.255C243.852 362.783 233.779 372.83 232.707 372.191L232.702 372.203Z" fill="#668124" stroke="#536B1B" stroke-miterlimit="10"/>
<path d="M232.931 328.987C234.442 331.166 236.142 334.145 237.376 337.892C239.752 345.122 239.193 351.513 238.57 355.143" stroke="#536B1B" stroke-miterlimit="10"/>
<path d="M227.749 344.013C228.974 342.361 231.457 338.622 232.579 335.632C233.275 333.784 233.683 332.094 233.93 330.647" stroke="#536B1B" stroke-miterlimit="10"/>
<path d="M237.386 337.833C239.242 338.776 243.16 341.038 245.486 343.269" stroke="#536B1B" stroke-miterlimit="10"/>
<path d="M266.301 253.044C265.428 252.992 266.852 247.585 263.34 243.132C261.162 240.378 258.504 239.785 252.633 237.945C241.925 234.591 236.576 232.915 233.697 230.278C232.772 229.429 226.39 223.422 227.587 215.339C228.376 209.948 232.137 206.35 234.487 204.117C236.419 202.274 240.949 198.064 248.012 197.166C248.993 197.049 257.195 196.13 263.533 201.603C264.681 202.596 268.628 206.255 270.471 218.178C273.314 236.555 267.853 253.109 266.323 253.024L266.301 253.044Z" fill="#7D9247" stroke="#536B1B" stroke-miterlimit="10"/>
<path d="M242.579 206.123C245.453 207.627 248.959 209.883 252.4 213.242C259.023 219.723 261.951 226.989 263.286 231.293" fill="#7D9247"/>
<path d="M242.579 206.123C245.453 207.627 248.959 209.883 252.4 213.242C259.023 219.723 261.951 226.989 263.286 231.293" stroke="#536B1B" stroke-miterlimit="10"/>
<path d="M245.271 225.29C245.73 222.795 246.431 217.337 246.029 213.474C245.783 211.091 245.304 209.024 244.779 207.321" fill="#7D9247"/>
<path d="M245.271 225.29C245.73 222.795 246.431 217.337 246.029 213.474C245.783 211.091 245.304 209.024 244.779 207.321" stroke="#536B1B" stroke-miterlimit="10"/>
<path d="M252.287 213.269C254.824 213.219 260.343 213.424 264.094 214.488Z" fill="#7D9247"/>
<path d="M252.287 213.269C254.824 213.219 260.343 213.424 264.094 214.488" stroke="#536B1B" stroke-miterlimit="10"/>
<path d="M270.997 299.925C270.475 299.938 271.364 295.401 269.265 291.977C267.959 289.849 266.364 289.537 262.829 288.399C256.381 286.32 253.159 285.275 251.429 283.304C250.878 282.678 241.768 275.753 242.534 269.026C243.049 264.552 243.789 261.113 245.22 259.126C246.401 257.492 248.555 255.656 252.824 254.98C254.503 254.719 261.78 256.246 265.576 260.331C266.264 261.072 270.772 265.442 271.806 275.107C273.421 290.017 271.915 299.897 270.997 299.925Z" fill="#668124" stroke="#536B1B" stroke-miterlimit="10"/>
<path d="M248.435 262.471C250.08 263.143 252.156 264.293 254.391 266.364C258.698 270.353 265.294 279.404 266.662 282.623" stroke="#536B1B" stroke-miterlimit="10"/>
<path d="M256.745 280.067C257.379 278.296 257.29 274.578 256.772 271.856C256.492 270.372 255.534 268.248 255.433 267.084" stroke="#536B1B" stroke-miterlimit="10"/>
<path d="M251.242 263.939C252.866 263.741 259.025 264.584 261.293 265.195" stroke="#536B1B" stroke-miterlimit="10"/>
<path d="M259.013 271.659C260.559 272.134 265.723 275.4 267.495 276.889" stroke="#536B1B" stroke-miterlimit="10"/>
<path d="M198.942 213.647C199.631 213.623 199.507 209.344 203.076 205.917C205.293 203.786 207.479 203.374 212.426 202.04C221.438 199.601 225.953 198.377 228.696 196.358C229.57 195.716 243.237 188.45 243.792 182.072C244.156 177.823 243.961 174.581 242.536 172.787C241.363 171.309 239.444 168.147 233.943 167.807C231.789 167.67 221.286 171.194 215.312 175.38C214.226 176.14 207.256 180.639 203.622 189.971C198.027 204.342 197.729 213.696 198.937 213.659L198.942 213.647Z" fill="#9BB574" stroke="#536B1B" stroke-miterlimit="10"/>
<path d="M238.951 178.234C236.322 178.838 232.963 179.887 229.275 181.78C222.171 185.44 211.027 193.792 208.583 196.778" stroke="#536B1B" stroke-miterlimit="10"/>
<path d="M217.66 195.346C218.177 193.376 220.961 189.533 223.545 186.803C224.96 185.318 227.639 183.301 228.609 182.111" stroke="#536B1B" stroke-miterlimit="10"/>
<path d="M236.265 178.913C234.393 178.411 226.371 177.998 223.219 178.114" stroke="#536B1B" stroke-miterlimit="10"/>
<path d="M204.206 307.237C204.933 307.336 205.022 302.892 208.917 299.966C211.332 298.158 213.614 298.119 218.822 297.606C228.298 296.668 233.026 296.209 235.972 294.609C236.921 294.101 251.472 288.99 252.377 282.492C252.981 278.156 252.966 274.768 251.589 272.661C250.445 270.919 248.636 267.314 242.967 265.979C240.739 265.45 229.674 267.25 223.268 270.519C222.108 271.105 214.635 274.541 210.362 283.545C203.782 297.435 202.955 307.056 204.206 307.237Z" fill="#A4B758" stroke="#536B1B" stroke-miterlimit="10"/>
<path d="M247.602 277.653C244.842 277.819 241.302 278.307 237.383 279.622C229.819 282.156 217.802 288.845 215.103 291.508" fill="#A4B758"/>
<path d="M247.602 277.653C244.842 277.819 241.302 278.307 237.383 279.622C229.819 282.156 217.802 288.845 215.103 291.508" stroke="#536B1B" stroke-miterlimit="10"/>
<path d="M224.599 291.607C225.244 289.664 228.345 286.167 231.179 283.817C232.727 282.537 235.619 280.927 236.695 279.867" fill="#A4B758"/>
<path d="M224.599 291.607C225.244 289.664 228.345 286.167 231.179 283.817C232.727 282.537 235.619 280.927 236.695 279.867" stroke="#536B1B" stroke-miterlimit="10"/>
<path d="M244.779 277.936C242.87 277.078 234.59 275.212 231.321 274.779Z" fill="#A4B758"/>
<path d="M244.779 277.936C242.87 277.078 234.59 275.212 231.321 274.779" stroke="#536B1B" stroke-miterlimit="10"/>
<path d="M175.085 213.874C174.74 213.266 179.044 211.634 180.549 207.125C181.481 204.339 180.727 202.257 179.438 197.42C177.084 188.597 175.91 184.179 176.45 180.974C176.629 179.946 176.583 165.119 182.598 162.043C186.606 159.996 189.909 158.838 192.45 159.353C194.545 159.77 198.676 160.147 201.925 164.784C203.196 166.607 205.266 177.157 204.286 184.051C204.106 185.296 203.346 193.191 196.045 200.143C184.786 210.86 175.712 214.932 175.102 213.866L175.085 213.874Z" fill="#7D9247" stroke="#536B1B" stroke-miterlimit="10"/>
<path d="M188.871 164.716C189.649 167.238 190.378 170.558 190.447 174.522C190.564 182.143 188.199 195.176 186.55 198.509" fill="#7D9247"/>
<path d="M188.871 164.716C189.649 167.238 190.378 170.558 190.447 174.522C190.564 182.143 188.199 195.176 186.55 198.509" stroke="#536B1B" stroke-miterlimit="10"/>
<path d="M183.278 190.128C184.92 188.864 187.204 184.879 188.497 181.515C189.206 179.671 189.773 176.516 190.416 175.192" fill="#7D9247"/>
<path d="M183.278 190.128C184.92 188.864 187.204 184.879 188.497 181.515C189.206 179.671 189.773 176.516 190.416 175.192" stroke="#536B1B" stroke-miterlimit="10"/>
<path d="M189.549 167.232C191.029 168.643 195.685 175.404 197.238 178.17Z" fill="#7D9247"/>
<path d="M189.549 167.232C191.029 168.643 195.685 175.404 197.238 178.17" stroke="#536B1B" stroke-miterlimit="10"/>
<path d="M208.303 266.097C208.656 266.041 208.873 262.604 210.878 259.655C212.13 257.824 213.241 257.387 215.81 256.047C220.478 253.614 223.277 252.04 225.034 250.653C226.054 249.845 233.42 244.497 234.111 239.343C234.575 235.908 233.678 233.519 233.078 232.144C232.592 231.011 230.431 228.244 227.807 227.769C222.961 226.888 218.878 230.092 215.616 233.782C215.024 234.45 211.157 237.347 208.728 245.051C204.988 256.906 207.682 266.198 208.298 266.109L208.303 266.097Z" fill="#668124" stroke="#536B1B" stroke-miterlimit="10"/>
<path d="M230.703 230.651C229.27 231.655 224.839 234.933 222.621 237.393C218.36 242.143 212.754 249.299 211.873 253.943" stroke="#536B1B" stroke-miterlimit="10"/>
<path d="M220.535 248.017C220.302 246.757 220.681 243.874 221.227 241.687C221.527 240.488 222.29 238.687 222.455 237.767" stroke="#536B1B" stroke-miterlimit="10"/>
<path d="M223.322 236.741C222.365 236.607 218.337 237.376 216.774 237.901" stroke="#536B1B" stroke-miterlimit="10"/>
<path d="M228.458 232.319C228.542 233.407 227.782 237.978 227.288 239.749" stroke="#536B1B" stroke-miterlimit="10"/>
<path d="M215.727 245.833C214.744 246.179 211.093 248.736 209.746 249.912" stroke="#536B1B" stroke-miterlimit="10"/>
<path d="M203.875 327.898C204.13 327.958 205.521 325.528 207.958 323.947C209.463 322.974 210.385 322.962 212.589 322.692C216.621 322.228 219.082 321.869 220.775 321.342C221.756 321.037 228.667 319.211 231.004 315.673C232.563 313.314 232.833 311.334 232.935 310.182C233.015 309.227 232.57 306.621 230.986 305.548C228.048 303.563 224.121 304.758 220.589 306.511C219.952 306.825 216.286 307.85 211.844 312.756C205.01 320.308 203.436 327.775 203.884 327.874L203.875 327.898Z" fill="#9BB574" stroke="#536B1B" stroke-miterlimit="10"/>
<path d="M231.959 308.484C230.621 308.806 226.414 309.95 224.007 311.122C219.379 313.379 212.952 317.001 210.674 320.129" fill="#9BB574"/>
<path d="M231.959 308.484C230.621 308.806 226.414 309.95 224.007 311.122C219.379 313.379 212.952 317.001 210.674 320.129" stroke="#536B1B" stroke-miterlimit="10"/>
<path d="M218.747 318.238C219.042 317.266 220.332 315.278 221.49 313.842C222.123 313.054 223.286 311.959 223.727 311.35" fill="#9BB574"/>
<path d="M218.747 318.238C219.042 317.266 220.332 315.278 221.49 313.842C222.123 313.054 223.286 311.959 223.727 311.35" stroke="#536B1B" stroke-miterlimit="10"/>
<path d="M224.699 310.902C224.111 310.53 221.114 309.977 219.854 309.924Z" fill="#9BB574"/>
<path d="M224.699 310.902C224.111 310.53 221.114 309.977 219.854 309.924" stroke="#536B1B" stroke-miterlimit="10"/>
<path d="M229.803 309.107C229.476 309.917 227.308 313.015 226.345 314.164Z" fill="#9BB574"/>
<path d="M229.803 309.107C229.476 309.917 227.308 313.015 226.345 314.164" stroke="#536B1B" stroke-miterlimit="10"/>
<path d="M216.214 315.302C215.424 315.28 212.016 316.121 210.677 316.611Z" fill="#9BB574"/>
<path d="M216.214 315.302C215.424 315.28 212.016 316.121 210.677 316.611" stroke="#536B1B" stroke-miterlimit="10"/>
<path d="M317.507 169.149C317.078 169.675 305.932 166.652 299.998 166.891C296.328 167.039 293.744 167.379 289.346 170.258C281.344 175.518 278.371 176.356 274.741 177.836C272.629 178.694 258.047 185.387 250.599 181.031C245.638 178.129 243.456 174.06 242.285 171.601C241.314 169.566 242.193 163.535 244.27 158.6C248.13 149.481 253.955 146.321 262.462 143.897C263.911 143.485 271.732 140.196 284.276 144.342C303.608 150.724 318.247 168.22 317.49 169.157L317.507 169.149Z" fill="#A4B758" stroke="#536B1B" stroke-miterlimit="10"/>
<path d="M248.197 171.677C250.749 169.903 258.885 164.606 264.177 162.656C274.366 158.91 289.094 154.753 296.568 157.112" fill="#A4B758"/>
<path d="M248.197 171.677C250.749 169.903 258.885 164.606 264.177 162.656C274.366 158.91 289.094 154.753 296.568 157.112" stroke="#536B1B" stroke-miterlimit="10"/>
<path d="M273.092 149.92C271.061 150.977 267.73 154.537 265.604 157.572C264.441 159.225 263.151 162.126 262.157 163.307" fill="#A4B758"/>
<path d="M273.092 149.92C271.061 150.977 267.73 154.537 265.604 157.572C264.441 159.225 263.151 162.126 262.157 163.307" stroke="#536B1B" stroke-miterlimit="10"/>
<path d="M253.993 168.095C254.143 166.249 256.809 159.15 258.185 156.51Z" fill="#A4B758"/>
<path d="M253.993 168.095C254.143 166.249 256.809 159.15 258.185 156.51" stroke="#536B1B" stroke-miterlimit="10"/>
<path d="M252.759 167.918C254.345 169.002 261.787 171.315 264.81 171.846Z" fill="#A4B758"/>
<path d="M252.759 167.918C254.345 169.002 261.787 171.315 264.81 171.846" stroke="#536B1B" stroke-miterlimit="10"/>
<path d="M278.87 158.562C279.949 156.997 285.943 152.061 288.525 150.411Z" fill="#A4B758"/>
<path d="M278.87 158.562C279.949 156.997 285.943 152.061 288.525 150.411" stroke="#536B1B" stroke-miterlimit="10"/>
<path d="M275.917 159.021C277.454 160.161 284.774 162.792 287.777 163.447Z" fill="#A4B758"/>
<path d="M275.917 159.021C277.454 160.161 284.774 162.792 287.777 163.447" stroke="#536B1B" stroke-miterlimit="10"/>
<path d="M261.095 163.797C262.631 164.937 269.952 167.568 272.955 168.223Z" fill="#A4B758"/>
<path d="M261.095 163.797C262.631 164.937 269.952 167.568 272.955 168.223" stroke="#536B1B" stroke-miterlimit="10"/>
<path d="M240.593 116.405C240.598 117.032 232.838 123.452 229.597 127.949C227.589 130.731 226.277 132.827 225.164 137.752C223.129 146.715 221.848 149.406 220.492 152.928C219.694 154.982 214.629 169.643 208.331 172.55C204.137 174.489 200.962 173.702 199.118 173.113C197.592 172.631 195.214 168.444 194.048 164.018C191.899 155.827 193.691 149.692 197.356 142.007C197.976 140.696 200.848 133.026 209.925 126.24C223.926 115.778 240.552 115.302 240.569 116.396L240.593 116.405Z" fill="#668124" stroke="#536B1B" stroke-miterlimit="10"/>
<path d="M202.757 168.801C203.348 165.899 205.429 156.812 207.463 151.793C211.395 142.112 217.66 128.871 222.894 124.74" stroke="#536B1B" stroke-miterlimit="10"/>
<path d="M206.371 137.482C205.701 139.632 205.501 144.227 205.73 147.609C205.852 149.459 206.504 152.143 206.508 153.586" stroke="#536B1B" stroke-miterlimit="10"/>
<path d="M204.375 162.554C203.552 161.345 201.683 155.072 201.219 152.444" stroke="#536B1B" stroke-miterlimit="10"/>
<path d="M203.659 163.434C205.051 162.887 210.354 158.786 212.317 156.881" stroke="#536B1B" stroke-miterlimit="10"/>
<path d="M213.515 138.379C213.392 136.652 214.452 129.291 215.128 126.414" stroke="#536B1B" stroke-miterlimit="10"/>
<path d="M212.2 140.949C213.607 140.476 218.975 136.611 220.98 134.815" stroke="#536B1B" stroke-miterlimit="10"/>
<path d="M206.294 154.8C207.701 154.326 213.069 150.461 215.075 148.665" stroke="#536B1B" stroke-miterlimit="10"/>
</svg>
