<svg width="167" height="427" viewBox="0 0 167 427" fill="none" xmlns="http://www.w3.org/2000/svg">
<path d="M101.99 100.088C94.1269 104.823 89.7783 111.481 87.4785 115.092C80.6695 125.766 79.1429 136.271 78.5504 140.713C76.6523 154.874 79.5748 166.087 81.3423 172.588C85.3695 187.435 88.8845 186.006 93.0624 201.966C93.8457 204.969 96.5874 215.969 96.969 230.793C97.1096 236.113 96.8786 239.802 96.4066 246.967C94.7998 271.745 92.3292 275.04 92.5 289.471" stroke="#536B1B" stroke-width="2" stroke-miterlimit="10"/>
<path d="M120.308 273.93C120.298 273.941 118.973 271.511 116.321 270.747C114.684 270.274 113.469 270.837 110.647 271.871C105.495 273.75 102.914 274.683 101.036 274.481C100.434 274.413 96.2156 273.873 94.3777 270.173C93.1525 267.71 93.6044 265.078 93.8856 263.447C94.1166 262.097 94.6991 258.982 97.2098 256.463C97.5613 256.114 100.514 253.246 104.561 253.572C105.294 253.628 107.885 253.943 112.003 258.296C118.35 265.011 120.308 273.93 120.298 273.941L120.308 273.93Z" fill="#A4B758" stroke="#536B1B" stroke-miterlimit="10"/>
<path d="M97.6817 261.794C99.2283 261.535 101.247 261.4 103.537 261.738C107.966 262.39 111.169 264.482 112.907 265.843" fill="#A4B758"/>
<path d="M97.6817 261.794C99.2283 261.535 101.247 261.4 103.537 261.738C107.966 262.39 111.169 264.482 112.907 265.843" stroke="#536B1B" stroke-miterlimit="10"/>
<path d="M104.24 268.902C103.707 267.732 102.422 265.247 101.146 263.773C100.363 262.862 99.5797 262.154 98.8868 261.603" fill="#A4B758"/>
<path d="M104.24 268.902C103.707 267.732 102.422 265.247 101.146 263.773C100.363 262.862 99.5797 262.154 98.8868 261.603" stroke="#536B1B" stroke-miterlimit="10"/>
<path d="M103.507 261.704C104.481 260.916 106.69 259.342 108.448 258.644Z" fill="#A4B758"/>
<path d="M103.507 261.704C104.481 260.916 106.69 259.342 108.448 258.644" stroke="#536B1B" stroke-miterlimit="10"/>
<path d="M58.8363 235.303C59.4891 235.123 57.8521 230.827 60.0314 226.519C61.3872 223.853 63.3154 222.92 67.5334 220.4C75.2162 215.811 79.0626 213.517 80.9507 210.84C81.5533 209.985 91.9476 199.435 90.2203 192.867C89.0653 188.492 87.7397 185.252 85.7512 183.779C84.1142 182.553 81.1817 179.82 75.8489 180.765C73.76 181.136 65.0428 187.153 60.8549 192.788C60.1017 193.8 55.0702 199.998 54.9196 210.266C54.6886 226.103 57.6914 235.629 58.8263 235.303H58.8363Z" fill="#668124" stroke="#536B1B" stroke-miterlimit="10"/>
<path d="M84.275 190.111C81.9953 191.337 79.1933 193.182 76.3813 195.96C70.9582 201.314 63.3557 212.359 62.0903 215.946" stroke="#536B1B" stroke-miterlimit="10"/>
<path d="M75.6682 208.962C75.7385 206.735 75.6883 201.752 77.1947 198.378C78.0182 196.545 79.8762 193.868 80.3783 192.428" stroke="#536B1B" stroke-miterlimit="10"/>
<path d="M81.985 191.326C80.0568 191.258 72.4041 192.687 69.5017 193.53" stroke="#536B1B" stroke-miterlimit="10"/>
<path d="M72.9064 199.784C70.6367 199.986 65.5551 203.867 62.6527 204.71" stroke="#536B1B" stroke-miterlimit="10"/>
<path d="M116.141 198.817C115.769 199.064 114.685 194.981 111.893 193.125C110.165 191.967 108.9 192.417 105.957 193.047C100.584 194.194 97.903 194.756 95.9246 193.913C95.2919 193.643 86.183 192.023 84.1845 186.231C82.8488 182.373 82.0754 179.246 82.3366 177.008C82.5475 175.163 83.381 172.723 86.1629 170.305C87.2576 169.349 93.0121 167.403 97.2603 169.056C98.0235 169.36 102.894 170.923 107.303 178.324C114.102 189.718 116.794 198.4 116.151 198.828L116.141 198.817Z" fill="#7D9247" stroke="#536B1B" stroke-miterlimit="10"/>
<path d="M85.9821 178.335C87.3982 178.155 89.3063 178.178 91.6664 178.875C96.2158 180.202 104.31 184.634 106.5 186.624" fill="#7D9247"/>
<path d="M85.9821 178.335C87.3982 178.155 89.3063 178.178 91.6664 178.875C96.2158 180.202 104.31 184.634 106.5 186.624" stroke="#536B1B" stroke-miterlimit="10"/>
<path d="M98.5458 188.987C98.3148 187.266 96.8385 184.274 95.4225 182.283C94.6492 181.192 93.1628 179.888 92.6406 178.977" fill="#7D9247"/>
<path d="M98.5458 188.987C98.3148 187.266 96.8385 184.274 95.4225 182.283C94.6492 181.192 93.1628 179.888 92.6406 178.977" stroke="#536B1B" stroke-miterlimit="10"/>
<path d="M88.6033 178.178C89.6779 177.312 94.3277 175.321 96.1555 174.815Z" fill="#7D9247"/>
<path d="M88.6033 178.178C89.6779 177.312 94.3277 175.321 96.1555 174.815" stroke="#536B1B" stroke-miterlimit="10"/>
<path d="M96.9087 181.102C98.1741 180.81 103.035 181.17 104.853 181.575Z" fill="#7D9247"/>
<path d="M96.9087 181.102C98.1741 180.81 103.035 181.17 104.853 181.575" stroke="#536B1B" stroke-miterlimit="10"/>
<path d="M78.1833 265.909C78.6151 265.887 77.4702 261.826 78.8461 258.52C79.6998 256.473 80.9652 256.056 83.7169 254.729C88.7383 252.3 91.2491 251.085 92.4542 249.15C92.8459 248.532 99.5746 241.469 98.3293 235.417C97.5058 231.38 96.5818 228.309 95.2461 226.622C94.1414 225.227 92.2333 223.731 88.7183 223.473C87.3424 223.372 81.5979 225.362 78.9064 229.4C78.4243 230.131 75.1805 234.484 75.2307 243.381C75.301 257.091 77.4301 265.954 78.1732 265.909H78.1833Z" fill="#668124" stroke="#536B1B" stroke-miterlimit="10"/>
<path d="M92.8961 230.019C91.6408 230.761 90.064 231.976 88.4572 234.034C85.3539 237.993 80.8748 246.732 80.0613 249.769" stroke="#536B1B" stroke-miterlimit="10"/>
<path d="M87.8246 246.721C87.1517 245.147 86.8806 241.739 87.0513 239.208C87.1417 237.824 87.7241 235.8 87.7041 234.72" stroke="#536B1B" stroke-miterlimit="10"/>
<path d="M90.6465 231.526C89.3209 231.492 84.4802 232.752 82.7127 233.494" stroke="#536B1B" stroke-miterlimit="10"/>
<path d="M85.2336 239.174C84.0385 239.725 80.1921 243.077 78.8966 244.55" stroke="#536B1B" stroke-miterlimit="10"/>
<path d="M125.099 146.955C124.617 146.831 124.707 143.142 121.805 140.117C118.903 137.091 116.02 137.091 112.505 135.708C105.516 132.975 101.378 130.849 99.7107 128.543C99.1785 127.801 91.6363 119.883 92.0279 113.731C92.2891 109.625 93.8356 105.059 95.0508 103.54C96.0451 102.292 97.7825 100.144 101.639 100.009C108.769 99.7613 115.036 104.811 118.692 109.648C119.355 110.525 124.085 114.552 125.491 123.966C127.66 138.463 125.943 147.158 125.099 146.955Z" fill="#7D9247" stroke="#536B1B" stroke-miterlimit="10"/>
<path d="M95.1714 106.712C97.1901 107.646 103.417 110.773 106.49 113.348C112.425 118.297 120.198 125.9 121.283 131.344" fill="#7D9247"/>
<path d="M95.1714 106.712C97.1901 107.646 103.417 110.773 106.49 113.348C112.425 118.297 120.198 125.9 121.283 131.344" stroke="#536B1B" stroke-miterlimit="10"/>
<path d="M107.122 124.438C106.219 123.167 105.395 119.838 105.144 117.172C105.003 115.722 105.234 113.382 105.034 112.291" fill="#7D9247"/>
<path d="M107.122 124.438C106.219 123.167 105.395 119.838 105.144 117.172C105.003 115.722 105.234 113.382 105.034 112.291" stroke="#536B1B" stroke-miterlimit="10"/>
<path d="M100.394 109.468C101.649 109.13 106.891 109.277 108.92 109.603Z" fill="#7D9247"/>
<path d="M100.394 109.468C101.649 109.13 106.891 109.277 108.92 109.603" stroke="#536B1B" stroke-miterlimit="10"/>
<path d="M109.533 116.295C110.728 116.126 115.739 116.34 117.698 116.587Z" fill="#7D9247"/>
<path d="M109.533 116.295C110.728 116.126 115.739 116.34 117.698 116.587" stroke="#536B1B" stroke-miterlimit="10"/>
<path d="M98.3349 108.208C98.1742 109.547 99.1082 114.945 99.7409 117.004Z" fill="#7D9247"/>
<path d="M98.3349 108.208C98.1742 109.547 99.1082 114.945 99.7409 117.004" stroke="#536B1B" stroke-miterlimit="10"/>
<path d="M114.835 129.578C114.283 128.15 113.419 122.042 113.319 119.647Z" fill="#7D9247"/>
<path d="M114.835 129.578C114.283 128.15 113.419 122.042 113.319 119.647" stroke="#536B1B" stroke-miterlimit="10"/>
<path d="M120.349 174.793C119.857 174.815 118.601 172.026 115.568 169.169C112.536 166.312 110.085 165.075 106.359 164.782C98.9676 164.198 87.5187 165.772 84.9578 165.019C82.0253 164.164 76.4917 159.44 75.5577 153.355C74.7542 148.136 77.6265 141.635 78.44 139.825C79.1129 138.329 82.0152 136.192 86.0826 135.584C93.1528 134.538 99.2388 136.9 103.909 140.488C104.752 141.14 110.698 144.695 114.263 153.355C119.756 166.706 121.203 174.736 120.339 174.793H120.349Z" fill="#668124" stroke="#536B1B" stroke-miterlimit="10"/>
<path d="M79.0725 149.239C81.2518 149.239 88.0709 149.486 91.7968 150.554C98.9674 152.601 108.729 156.324 111.591 160.902" stroke="#536B1B" stroke-miterlimit="10"/>
<path d="M93.1025 160.609C91.9275 159.653 90.3508 156.673 89.4871 154.187C89.0151 152.826 88.6837 150.498 88.2318 149.52" stroke="#536B1B" stroke-miterlimit="10"/>
<path d="M80.2276 149.239C81.2218 147.99 84.2246 143.277 89.3666 141.894" stroke="#536B1B" stroke-miterlimit="10"/>
<path d="M93.4139 150.948C94.86 150.352 99.2086 148.271 103.698 148.271" stroke="#536B1B" stroke-miterlimit="10"/>
<path d="M101.358 159.946C100.303 158.934 97.1196 153.884 96.0953 151.78" stroke="#536B1B" stroke-miterlimit="10"/>
<path d="M68.5778 154.412C68.7887 154.176 68.1961 152.421 68.3167 149.756C68.4372 147.09 68.9494 145.381 70.3453 143.424C73.1372 139.532 78.4198 134.527 79.173 132.952C80.0367 131.153 80.4283 126.496 78.4198 123.549C76.6924 121.03 72.9565 119.793 71.912 119.455C71.0483 119.174 69.0196 119.737 67.1215 121.502C63.8275 124.562 62.2708 128.532 61.7787 132.311C61.6884 132.997 60.664 137.384 62.6223 142.681C65.6352 150.847 68.2062 154.84 68.5778 154.435V154.412Z" fill="#A4B758" stroke="#536B1B" stroke-miterlimit="10"/>
<path d="M75.3566 123.595C74.4729 124.674 71.7814 128.139 70.6766 130.41C68.5576 134.786 66.0369 141.129 66.6696 144.402" fill="#A4B758"/>
<path d="M75.3566 123.595C74.4729 124.674 71.7814 128.139 70.6766 130.41C68.5576 134.786 66.0369 141.129 66.6696 144.402" stroke="#536B1B" stroke-miterlimit="10"/>
<path d="M74.1115 135.157C74.2119 134.19 73.6897 132.199 73.057 130.748C72.7155 129.961 71.9322 128.847 71.7313 128.217" fill="#A4B758"/>
<path d="M74.1115 135.157C74.2119 134.19 73.6897 132.199 73.057 130.748C72.7155 129.961 71.9322 128.847 71.7313 128.217" stroke="#536B1B" stroke-miterlimit="10"/>
<path d="M74.8846 124.168C73.9908 124.146 70.9077 123.707 68.2664 125.686Z" fill="#A4B758"/>
<path d="M74.8846 124.168C73.9908 124.146 70.9077 123.707 68.2664 125.686" stroke="#536B1B" stroke-miterlimit="10"/>
<path d="M70.1746 131.378C69.351 131.85 66.76 133.144 64.9221 135.359Z" fill="#A4B758"/>
<path d="M70.1746 131.378C69.351 131.85 66.76 133.144 64.9221 135.359" stroke="#536B1B" stroke-miterlimit="10"/>
<path d="M70.4758 138.97C70.5059 138.036 69.823 134.403 69.4112 133.042Z" fill="#A4B758"/>
<path d="M70.4758 138.97C70.5059 138.036 69.823 134.403 69.4112 133.042" stroke="#536B1B" stroke-miterlimit="10"/>
<path d="M91.4714 326.623C91.485 326.618 89.3361 322.199 89.5538 317.151C89.6907 314.022 90.8021 312.572 93.0835 308.899C97.2296 302.201 99.6444 298.043 100.821 294.988C101.501 293.214 106.814 280.936 103.465 274.507C101.24 270.221 98.0823 268.277 96.1637 267.235C94.5789 266.368 89.448 265.057 85.5993 266.731C78.4792 269.822 75.7286 276.913 74.4651 283.835C74.2333 285.083 71.5237 291.646 74.671 302.412C79.533 319.006 91.4714 326.623 91.4714 326.623Z" fill="#7D9247" stroke="#536B1B" stroke-miterlimit="10"/>
<path d="M91.8657 267.465C90.7843 269.813 87.6277 277.282 86.7279 281.958C84.9988 290.957 83.4829 303.803 86.1545 309.804" fill="#7D9247"/>
<path d="M91.8657 267.465C90.7843 269.813 87.6277 277.282 86.7279 281.958C84.9988 290.957 83.4829 303.803 86.1545 309.804" stroke="#536B1B" stroke-miterlimit="10"/>
<path d="M92.748 295.799C91.391 294.568 89.4801 290.968 88.4085 288.002C87.8192 286.384 87.3401 283.673 86.7941 282.481" fill="#7D9247"/>
<path d="M92.748 295.799C91.391 294.568 89.4801 290.968 88.4085 288.002C87.8192 286.384 87.3401 283.673 86.7941 282.481" stroke="#536B1B" stroke-miterlimit="10"/>
<path d="M87.1337 280.581C85.7808 281.227 81.169 285.447 79.5578 287.348Z" fill="#7D9247"/>
<path d="M87.1337 280.581C85.7808 281.227 81.169 285.447 79.5578 287.348" stroke="#536B1B" stroke-miterlimit="10"/>
<path d="M90.1079 271.175C91.1307 272.346 93.9196 278.191 94.745 280.635Z" fill="#7D9247"/>
<path d="M90.1079 271.175C91.1307 272.346 93.9196 278.191 94.745 280.635" stroke="#536B1B" stroke-miterlimit="10"/>
<path d="M84.7344 297.42C83.7345 298.631 81.0587 304.571 80.2775 307.027Z" fill="#7D9247"/>
<path d="M84.7344 297.42C83.7345 298.631 81.0587 304.571 80.2775 307.027" stroke="#536B1B" stroke-miterlimit="10"/>
<path d="M62.2207 183.622C62.4215 183.599 62.7429 181.203 64.0585 179.213C64.872 177.987 65.5348 177.717 67.0513 176.873C69.8332 175.355 71.5103 174.365 72.5849 173.454C73.2076 172.925 77.6867 169.472 78.3796 165.896C78.8416 163.511 78.4801 161.802 78.229 160.823C78.0181 160.013 76.9636 157.989 75.5174 157.55C72.836 156.74 70.3353 158.832 68.2765 161.273C67.9049 161.712 65.5448 163.59 63.717 168.888C60.905 177.042 61.8692 183.644 62.2207 183.599V183.622Z" fill="#9BB574" stroke="#536B1B" stroke-miterlimit="10"/>
<path d="M77.044 159.676C76.1703 160.317 73.4587 162.443 72.0527 164.085C69.3512 167.245 65.7357 172.037 64.9725 175.253" fill="#9BB574"/>
<path d="M77.044 159.676C76.1703 160.317 73.4587 162.443 72.0527 164.085C69.3512 167.245 65.7357 172.037 64.9725 175.253" stroke="#536B1B" stroke-miterlimit="10"/>
<path d="M70.235 171.441C70.1748 170.552 70.5564 168.539 70.9983 167.021C71.2393 166.188 71.7816 164.951 71.9323 164.321" fill="#9BB574"/>
<path d="M70.235 171.441C70.1748 170.552 70.5564 168.539 70.9983 167.021C71.2393 166.188 71.7816 164.951 71.9323 164.321" stroke="#536B1B" stroke-miterlimit="10"/>
<path d="M72.5146 163.68C71.9924 163.545 69.7027 163.928 68.7888 164.231Z" fill="#9BB574"/>
<path d="M72.5146 163.68C71.9924 163.545 69.7027 163.928 68.7888 164.231" stroke="#536B1B" stroke-miterlimit="10"/>
<path d="M75.6682 160.699C75.6581 161.464 74.9451 164.647 74.5634 165.873Z" fill="#9BB574"/>
<path d="M75.6682 160.699C75.6581 161.464 74.9451 164.647 74.5634 165.873" stroke="#536B1B" stroke-miterlimit="10"/>
<path d="M67.6539 169.799C67.0814 170.001 64.872 171.643 64.0485 172.419Z" fill="#9BB574"/>
<path d="M67.6539 169.799C67.0814 170.001 64.872 171.643 64.0485 172.419" stroke="#536B1B" stroke-miterlimit="10"/>
<path d="M124.175 256.358C123.794 256.313 123.472 252.006 121.193 248.407C119.776 246.18 118.541 245.673 115.709 244.133C110.537 241.321 107.424 239.499 105.465 237.857C104.331 236.901 96.1255 230.58 95.2417 224.135C94.6492 219.838 95.5732 216.79 96.1858 215.036C96.698 213.585 98.9877 209.986 101.84 209.243C107.122 207.871 111.682 211.684 115.338 216.127C116 216.925 120.309 220.367 123.161 229.916C127.56 244.627 124.838 256.448 124.165 256.358H124.175Z" fill="#A4B758" stroke="#536B1B" stroke-miterlimit="10"/>
<path d="M98.6262 212.988C100.233 214.169 105.194 218.05 107.695 221.03C112.515 226.778 118.863 235.472 119.937 241.275" fill="#A4B758"/>
<path d="M98.6262 212.988C100.233 214.169 105.194 218.05 107.695 221.03C112.515 226.778 118.863 235.472 119.937 241.275" stroke="#536B1B" stroke-miterlimit="10"/>
<path d="M110.266 234.291C110.497 232.694 110.015 229.073 109.352 226.339C108.99 224.844 108.097 222.617 107.886 221.458" fill="#A4B758"/>
<path d="M110.266 234.291C110.497 232.694 110.015 229.073 109.352 226.339C108.99 224.844 108.097 222.617 107.886 221.458" stroke="#536B1B" stroke-miterlimit="10"/>
<path d="M106.861 220.299C107.886 220.086 112.264 220.828 113.972 221.39Z" fill="#A4B758"/>
<path d="M106.861 220.299C107.886 220.086 112.264 220.828 113.972 221.39" stroke="#536B1B" stroke-miterlimit="10"/>
<path d="M101.147 214.878C101.077 216.262 102.031 221.975 102.613 224.191Z" fill="#A4B758"/>
<path d="M101.147 214.878C101.077 216.262 102.031 221.975 102.613 224.191" stroke="#536B1B" stroke-miterlimit="10"/>
<path d="M115.458 231.423C116.533 231.794 120.59 234.809 122.076 236.214Z" fill="#A4B758"/>
<path d="M115.458 231.423C116.533 231.794 120.59 234.809 122.076 236.214" stroke="#536B1B" stroke-miterlimit="10"/>
<path d="M40.4477 145.516C40.9398 145.696 46.6441 138.104 50.4604 135.427C52.8205 133.773 54.588 132.772 58.5549 132.784C65.7959 132.806 68.0053 132.008 70.9077 131.344C72.5949 130.962 84.566 128.881 87.378 122.099C89.256 117.577 88.9045 113.528 88.5932 111.144C88.3321 109.176 87.3981 105.813 84.0036 103.181C77.7268 98.3106 70.1243 100.245 63.7772 102.551C62.6926 102.945 57.3599 103.799 49.5063 113.202C38.8107 126.002 39.594 145.178 40.4577 145.504L40.4477 145.516Z" fill="#668124" stroke="#536B1B" stroke-miterlimit="10"/>
<path d="M84.9576 114.124C82.6076 114.045 75.2562 114.045 71.1085 115.148C63.1245 117.285 52.1375 121.311 48.4418 126.642" stroke="#536B1B" stroke-miterlimit="10"/>
<path d="M59.9709 110.12C61.7184 109.918 65.3539 110.93 68.0052 112.156C69.4514 112.82 71.5101 114.349 72.655 114.754" stroke="#536B1B" stroke-miterlimit="10"/>
<path d="M79.916 114.473C79.0322 113.157 74.2618 109.187 72.2332 107.905" stroke="#536B1B" stroke-miterlimit="10"/>
<path d="M80.619 113.73C80.0767 115.26 76.401 120.49 74.7439 122.323" stroke="#536B1B" stroke-miterlimit="10"/>
<path d="M60.0311 119.118C58.6753 118.477 52.7802 117.723 50.4502 117.746" stroke="#536B1B" stroke-miterlimit="10"/>
<path d="M62.1202 118.106C61.6281 119.658 58.1532 125.046 56.5564 126.958" stroke="#536B1B" stroke-miterlimit="10"/>
<path d="M73.579 114.63C73.0869 116.183 69.6121 121.57 68.0153 123.482" stroke="#536B1B" stroke-miterlimit="10"/>
</svg>
