<svg width="237" height="635" viewBox="0 0 237 635" fill="none" xmlns="http://www.w3.org/2000/svg">
<path d="M213 175.038C210.241 175.715 200.5 172.343 177 165.956C155 159.976 146.975 162.187 130.819 165.956C113.25 170.069 110.993 167.399 101.476 172.343C91.1407 177.721 85.4252 185.283 82.4025 189.384C73.4531 201.507 71.4468 213.438 70.668 218.484C68.1733 234.567 72.0144 247.303 74.3375 254.686C79.6306 271.548 84.2504 269.926 89.7415 288.053C90.7711 291.463 94.3746 303.957 94.8761 320.793C95.0609 326.835 94.7573 331.025 94.137 339.163C92.025 367.304 88.7779 371.047 89.0023 387.437C89.1211 395.983 89.3323 405.525 93.3978 417.252C98.7305 432.607 107.601 442.852 112.432 447.77C126.964 462.563 143.424 468.285 151.344 470.483" stroke="#536B1B" stroke-width="2" stroke-miterlimit="10"/>
<path d="M179.974 481.749C179.961 481.762 178.219 479.003 174.734 478.134C172.582 477.598 170.985 478.237 167.276 479.412C160.505 481.545 157.112 482.605 154.644 482.375C153.852 482.299 148.308 481.686 145.893 477.483C144.282 474.685 144.876 471.696 145.246 469.844C145.55 468.311 146.315 464.772 149.615 461.911C150.077 461.515 153.958 458.257 159.277 458.628C160.241 458.692 163.646 459.05 169.058 463.993C177.4 471.619 179.974 481.749 179.961 481.762L179.974 481.749Z" fill="#A4B758" stroke="#536B1B" stroke-miterlimit="10"/>
<path d="M150.235 467.966C152.268 467.672 154.921 467.519 157.931 467.902C163.752 468.643 167.963 471.019 170.246 472.565" fill="#A4B758"/>
<path d="M150.235 467.966C152.268 467.672 154.921 467.519 157.931 467.902C163.752 468.643 167.963 471.019 170.246 472.565" stroke="#536B1B" stroke-miterlimit="10"/>
<path d="M158.855 476.039C158.155 474.711 156.466 471.888 154.789 470.214C153.76 469.179 152.73 468.375 151.819 467.749" fill="#A4B758"/>
<path d="M158.855 476.039C158.155 474.711 156.466 471.888 154.789 470.214C153.76 469.179 152.73 468.375 151.819 467.749" stroke="#536B1B" stroke-miterlimit="10"/>
<path d="M157.891 467.864C159.172 466.97 162.075 465.181 164.385 464.389Z" fill="#A4B758"/>
<path d="M157.891 467.864C159.172 466.97 162.075 465.181 164.385 464.389" stroke="#536B1B" stroke-miterlimit="10"/>
<path d="M44.7571 325.916C45.6151 325.711 43.4636 320.831 46.3279 315.939C48.1099 312.911 50.6442 311.851 56.188 308.99C66.2858 303.778 71.3412 301.172 73.8228 298.132C74.6147 297.161 88.2764 285.178 86.006 277.718C84.4881 272.749 82.7457 269.07 80.1322 267.397C77.9807 266.004 74.1264 262.9 67.1173 263.973C64.3718 264.395 52.9145 271.229 47.4103 277.629C46.4203 278.778 39.8073 285.817 39.6093 297.48C39.3057 315.466 43.2524 326.286 44.744 325.916H44.7571Z" fill="#668124" stroke="#536B1B" stroke-miterlimit="10"/>
<path d="M78.1918 274.589C75.1955 275.981 71.5128 278.076 67.8169 281.231C60.6891 287.312 50.697 299.856 49.0338 303.931" stroke="#536B1B" stroke-miterlimit="10"/>
<path d="M66.8797 295.998C66.9721 293.469 66.9061 287.81 68.8861 283.978C69.9685 281.895 72.4104 278.855 73.0704 277.22" stroke="#536B1B" stroke-miterlimit="10"/>
<path d="M75.1823 275.968C72.648 275.891 62.5898 277.514 58.7751 278.472" stroke="#536B1B" stroke-miterlimit="10"/>
<path d="M63.2498 285.574C60.2667 285.804 53.5877 290.211 49.773 291.169" stroke="#536B1B" stroke-miterlimit="10"/>
<path d="M181.49 196.43C181.952 196.487 182.071 193.654 184.61 191.743C186.186 190.562 187.658 190.503 191.007 190.102C197.106 189.371 200.159 189.007 202.074 187.95C202.686 187.612 212.106 184.164 212.779 180.021C213.225 177.26 213.257 175.102 212.395 173.783C211.688 172.689 210.567 170.427 206.936 169.664C205.513 169.366 198.375 170.654 194.207 172.828C193.458 173.218 188.605 175.505 185.746 181.288C181.339 190.206 180.678 196.336 181.484 196.428L181.49 196.43Z" fill="#668124" stroke="#536B1B" stroke-miterlimit="10"/>
<path d="M209.757 177.039C207.977 177.179 205.698 177.544 203.161 178.436C198.269 180.155 190.455 184.577 188.681 186.308" stroke="#536B1B" stroke-miterlimit="10"/>
<path d="M199.287 185.685C199.924 184.448 201.217 181.63 203.057 180.095C204.06 179.261 205.935 178.203 206.632 177.514" stroke="#536B1B" stroke-miterlimit="10"/>
<path d="M207.959 177.314C206.734 176.792 201.407 175.709 199.303 175.474" stroke="#536B1B" stroke-miterlimit="10"/>
<path d="M199.883 179.711C198.372 179.266 194.056 180.243 191.964 180.011" stroke="#536B1B" stroke-miterlimit="10"/>
<path d="M101.595 479.373C102.043 479.105 98.7831 475.758 98.6247 471.722C98.5323 469.218 99.6807 468.081 101.991 465.207C106.188 459.944 108.287 457.325 108.63 454.719C108.736 453.889 112.471 443.094 108.115 437.844C105.211 434.344 102.69 431.84 100.407 430.946C98.5323 430.205 95.7208 429.822 91.8005 431.572C90.2693 432.262 85.0687 437.512 84.1843 443.018C84.0259 444.014 82.7059 450.158 87.1938 458.883C94.1104 472.335 100.816 479.859 101.595 479.386V479.373Z" fill="#A4B758" stroke="#536B1B" stroke-miterlimit="10"/>
<path d="M99.5486 435.621C98.5587 437.078 97.4763 439.173 96.7767 442.111C95.4172 447.782 94.942 458.947 95.5756 462.396" fill="#A4B758"/>
<path d="M99.5486 435.621C98.5587 437.078 97.4763 439.173 96.7767 442.111C95.4172 447.782 94.942 458.947 95.5756 462.396" stroke="#536B1B" stroke-miterlimit="10"/>
<path d="M102.413 454.974C100.908 453.812 98.9151 450.618 97.8327 448.025C97.2387 446.607 96.8559 444.282 96.3015 443.235" fill="#A4B758"/>
<path d="M102.413 454.974C100.908 453.812 98.9151 450.618 97.8327 448.025C97.2387 446.607 96.8559 444.282 96.3015 443.235" stroke="#536B1B" stroke-miterlimit="10"/>
<path d="M97.8855 438.406C96.4467 439.121 91.8533 443.145 90.3089 444.883Z" fill="#A4B758"/>
<path d="M97.8855 438.406C96.4467 439.121 91.8533 443.145 90.3089 444.883" stroke="#536B1B" stroke-miterlimit="10"/>
<path d="M95.866 449.021C94.8628 450.248 92.3813 455.741 91.7213 457.938Z" fill="#A4B758"/>
<path d="M95.866 449.021C94.8628 450.248 92.3813 455.741 91.7213 457.938" stroke="#536B1B" stroke-miterlimit="10"/>
<path d="M120.074 284.476C119.586 284.757 118.16 280.12 114.491 278.012C112.22 276.696 110.557 277.207 106.69 277.922C99.628 279.225 96.1037 279.864 93.5034 278.906C92.6718 278.599 80.6997 276.76 78.073 270.181C76.3174 265.8 75.301 262.248 75.6442 259.706C75.9214 257.611 77.017 254.839 80.6733 252.093C82.1121 251.007 89.6754 248.797 95.2589 250.675C96.2621 251.02 102.664 252.795 108.459 261.201C117.395 274.141 120.932 284.003 120.087 284.488L120.074 284.476Z" fill="#7D9247" stroke="#536B1B" stroke-miterlimit="10"/>
<path d="M80.4357 261.214C82.2969 261.009 84.8048 261.035 87.9067 261.827C93.8861 263.334 104.525 268.367 107.403 270.628" fill="#7D9247"/>
<path d="M80.4357 261.214C82.2969 261.009 84.8048 261.035 87.9067 261.827C93.8861 263.334 104.525 268.367 107.403 270.628" stroke="#536B1B" stroke-miterlimit="10"/>
<path d="M96.9484 273.311C96.6448 271.356 94.7045 267.958 92.8434 265.697C91.827 264.458 89.8734 262.976 89.187 261.942" fill="#7D9247"/>
<path d="M96.9484 273.311C96.6448 271.356 94.7045 267.958 92.8434 265.697C91.827 264.458 89.8734 262.976 89.187 261.942" stroke="#536B1B" stroke-miterlimit="10"/>
<path d="M83.8808 261.035C85.2932 260.051 91.4046 257.79 93.8069 257.215Z" fill="#7D9247"/>
<path d="M83.8808 261.035C85.2932 260.051 91.4046 257.79 93.8069 257.215" stroke="#536B1B" stroke-miterlimit="10"/>
<path d="M94.7969 264.356C96.4601 264.024 102.849 264.433 105.238 264.893Z" fill="#7D9247"/>
<path d="M94.7969 264.356C96.4601 264.024 102.849 264.433 105.238 264.893" stroke="#536B1B" stroke-miterlimit="10"/>
<path d="M67.5264 348.628C68.0939 348.603 66.5892 343.991 68.3975 340.235C69.5195 337.911 71.1826 337.438 74.7994 335.931C81.3992 333.171 84.6991 331.792 86.2831 329.594C86.7978 328.892 95.6416 320.87 94.0048 313.997C92.9225 309.411 91.7081 305.924 89.9526 304.008C88.5006 302.423 85.9927 300.724 81.3728 300.431C79.5644 300.316 72.0142 302.577 68.4767 307.163C67.8431 307.993 63.5797 312.937 63.6457 323.041C63.7381 338.613 66.5364 348.679 67.5132 348.628H67.5264Z" fill="#668124" stroke="#536B1B" stroke-miterlimit="10"/>
<path d="M86.8638 307.865C85.2139 308.708 83.1415 310.088 81.0296 312.426C76.9509 316.922 71.0639 326.848 69.9947 330.297" stroke="#536B1B" stroke-miterlimit="10"/>
<path d="M80.198 326.835C79.3136 325.047 78.9572 321.176 79.1816 318.302C79.3004 316.731 80.066 314.431 80.0396 313.205" stroke="#536B1B" stroke-miterlimit="10"/>
<path d="M83.9071 309.577C82.1648 309.539 75.8025 310.969 73.4794 311.813" stroke="#536B1B" stroke-miterlimit="10"/>
<path d="M76.7925 318.264C75.2217 318.89 70.1663 322.696 68.4635 324.37" stroke="#536B1B" stroke-miterlimit="10"/>
<path d="M151.584 217.556C152.31 217.492 150.356 209.815 153.366 206.11C155.227 203.811 157.431 200.758 162.394 197.462C170.248 192.237 172.228 191.688 174.683 189.478C175.462 188.763 185.758 180.204 184.886 173.702C184.306 169.371 183.368 166.101 181.454 164.364C179.87 162.933 177.125 159.854 171.211 159.854C168.888 159.854 158.566 164.083 153.181 168.707C152.204 169.537 146.449 174.673 144.099 184.241C139.598 202.533 150.29 217.671 151.57 217.556H151.584Z" fill="#A4B758" stroke="#536B1B" stroke-miterlimit="10"/>
<path d="M179.052 164.811C176.254 166.344 172.835 168.592 169.509 171.837C163.12 178.083 154.58 190.589 153.366 194.537" fill="#A4B758"/>
<path d="M179.052 164.811C176.254 166.344 172.835 168.592 169.509 171.837C163.12 178.083 154.58 190.589 153.366 194.537" stroke="#536B1B" stroke-miterlimit="10"/>
<path d="M163.807 190.219C163.226 188.316 163.767 183.908 164.757 180.549C165.298 178.709 166.75 175.925 167.027 174.507" fill="#A4B758"/>
<path d="M163.807 190.219C163.226 188.316 163.767 183.908 164.757 180.549C165.298 178.709 166.75 175.925 167.027 174.507" stroke="#536B1B" stroke-miterlimit="10"/>
<path d="M172.901 168.924C170.802 169.065 162.619 171.249 159.543 172.361Z" fill="#A4B758"/>
<path d="M172.901 168.924C170.802 169.065 162.619 171.249 159.543 172.361" stroke="#536B1B" stroke-miterlimit="10"/>
<path d="M161.853 180.6C160.216 180.779 154.197 183.014 151.993 184.138Z" fill="#A4B758"/>
<path d="M161.853 180.6C160.216 180.779 154.197 183.014 151.993 184.138" stroke="#536B1B" stroke-miterlimit="10"/>
<path d="M70.0738 402.868C70.7338 402.689 69.3083 397.158 71.6974 391.921C73.1758 388.676 75.1557 387.667 79.4852 384.844C87.3786 379.708 91.3253 377.141 93.3448 373.922C93.9916 372.887 104.881 360.483 103.482 352.077C102.545 346.482 101.383 342.318 99.4694 340.287C97.8987 338.613 95.1664 335.739 89.7413 335.688C79.7096 335.586 71.6314 342.701 67.1699 349.433C66.3647 350.647 60.2797 356.319 59.6329 369.221C58.6165 389.11 68.9255 403.149 70.0738 402.843V402.868Z" fill="#7D9247" stroke="#536B1B" stroke-miterlimit="10"/>
<path d="M95.4568 340.351C93.1468 342.331 86.1114 348.756 83.0491 353.278C77.1357 362.003 69.8759 374.931 70.6415 382.557" fill="#7D9247"/>
<path d="M95.4568 340.351C93.1468 342.331 86.1114 348.756 83.0491 353.278C77.1357 362.003 69.8759 374.931 70.6415 382.557" stroke="#536B1B" stroke-miterlimit="10"/>
<path d="M84.6066 370.779C83.4583 368.837 82.6399 364.136 82.5607 360.483C82.5211 358.49 83.0755 355.399 82.9039 353.891" fill="#7D9247"/>
<path d="M84.6066 370.779C83.4583 368.837 82.6399 364.136 82.5607 360.483C82.5211 358.49 83.0755 355.399 82.9039 353.891" stroke="#536B1B" stroke-miterlimit="10"/>
<path d="M84.1843 352.103C82.2571 352.141 74.8125 354.428 72.0406 355.68Z" fill="#7D9247"/>
<path d="M84.1843 352.103C82.2571 352.141 74.8125 354.428 72.0406 355.68" stroke="#536B1B" stroke-miterlimit="10"/>
<path d="M91.8268 343.493C92.5924 345.205 93.5428 352.703 93.5296 355.667Z" fill="#7D9247"/>
<path d="M91.8268 343.493C92.5924 345.205 93.5428 352.703 93.5296 355.667" stroke="#536B1B" stroke-miterlimit="10"/>
<path d="M74.0338 368.761C72.2914 369.566 66.4835 374.611 64.4772 376.847Z" fill="#7D9247"/>
<path d="M74.0338 368.761C72.2914 369.566 66.4835 374.611 64.4772 376.847" stroke="#536B1B" stroke-miterlimit="10"/>
<path d="M166.064 139.015C166.049 139.442 170.263 140.275 173.458 143.163C175.446 144.953 175.737 146.367 176.812 149.634C178.773 155.597 179.754 158.578 181.597 160.671C182.191 161.339 188.663 171.144 194.892 172.831C199.053 173.953 202.246 174.533 204.08 174.049C205.595 173.661 208.209 172.969 209.386 169.924C211.578 164.308 208.262 157.648 204.441 153.146C203.75 152.331 201.029 147.239 192.039 143.053C178.183 136.605 166.065 138.263 166.047 139.006L166.064 139.015Z" fill="#7D9247" stroke="#536B1B" stroke-miterlimit="10"/>
<path d="M204.792 171.651C203.894 169.775 200.864 163.938 198.32 160.888C193.438 155.013 185.909 147.139 180.395 145.314" fill="#7D9247"/>
<path d="M204.792 171.651C203.894 169.775 200.864 163.938 198.32 160.888C193.438 155.013 185.909 147.139 180.395 145.314" stroke="#536B1B" stroke-miterlimit="10"/>
<path d="M185.606 156.6C187.244 156.534 190.772 157.466 193.38 158.51C194.808 159.084 196.895 160.312 198.005 160.666" fill="#7D9247"/>
<path d="M185.606 156.6C187.244 156.534 190.772 157.466 193.38 158.51C194.808 159.084 196.895 160.312 198.005 160.666" stroke="#536B1B" stroke-miterlimit="10"/>
<path d="M199.076 161.759C199.447 160.669 199.411 155.818 199.118 153.897Z" fill="#7D9247"/>
<path d="M199.076 161.759C199.447 160.669 199.411 155.818 199.118 153.897" stroke="#536B1B" stroke-miterlimit="10"/>
<path d="M203.38 168.584C201.989 168.507 196.435 166.807 194.327 165.927Z" fill="#7D9247"/>
<path d="M203.38 168.584C201.989 168.507 196.435 166.807 194.327 165.927" stroke="#536B1B" stroke-miterlimit="10"/>
<path d="M189.441 151.367C189.243 150.158 186.978 145.45 185.856 143.674Z" fill="#7D9247"/>
<path d="M189.441 151.367C189.243 150.158 186.978 145.45 185.856 143.674" stroke="#536B1B" stroke-miterlimit="10"/>
<path d="M114.468 231.279C113.921 230.982 115.429 226.952 112.998 222.654C110.567 218.355 107.016 217.392 103.208 214.695C95.6292 209.353 91.3352 205.632 90.154 202.538C89.7792 201.543 83.4834 190.311 86.296 183.672C88.1725 179.242 91.8077 174.733 93.8802 173.469C95.5783 172.427 98.5329 170.643 103.336 171.783C112.217 173.893 118.027 181.543 120.701 188.086C121.185 189.273 125.489 195.284 123.657 206.113C120.84 222.79 115.431 231.783 114.468 231.279Z" fill="#7D9247" stroke="#536B1B" stroke-miterlimit="10"/>
<path d="M92.6666 176.965C94.8108 178.674 101.331 184.218 104.156 188.095C109.622 195.556 116.353 206.566 115.625 212.945" fill="#7D9247"/>
<path d="M92.6666 176.965C94.8108 178.674 101.331 184.218 104.156 188.095C109.622 195.556 116.353 206.566 115.625 212.945" stroke="#536B1B" stroke-miterlimit="10"/>
<path d="M100.694 200.441C100.077 198.757 100.317 194.855 101 191.866C101.368 190.238 102.511 187.764 102.673 186.509" fill="#7D9247"/>
<path d="M100.694 200.441C100.077 198.757 100.317 194.855 101 191.866C101.368 190.238 102.511 187.764 102.673 186.509" stroke="#536B1B" stroke-miterlimit="10"/>
<path d="M97.7495 181.816C99.4565 181.867 105.985 183.874 108.407 184.962Z" fill="#7D9247"/>
<path d="M97.7495 181.816C99.4565 181.867 105.985 183.874 108.407 184.962" stroke="#536B1B" stroke-miterlimit="10"/>
<path d="M106.78 192.452C108.346 192.676 114.557 194.678 116.921 195.65Z" fill="#7D9247"/>
<path d="M106.78 192.452C108.346 192.676 114.557 194.678 116.921 195.65" stroke="#536B1B" stroke-miterlimit="10"/>
<path d="M95.6894 179.707C95.0018 181.112 94.1301 187.305 94.1303 189.758Z" fill="#7D9247"/>
<path d="M95.6894 179.707C95.0018 181.112 94.1301 187.305 94.1303 189.758" stroke="#536B1B" stroke-miterlimit="10"/>
<path d="M108.563 208.749C108.427 207.01 109.644 200.07 110.408 197.426Z" fill="#7D9247"/>
<path d="M108.563 208.749C108.427 207.01 109.644 200.07 110.408 197.426" stroke="#536B1B" stroke-miterlimit="10"/>
<path d="M125.605 257.19C124.958 257.215 123.308 254.047 119.322 250.803C115.336 247.558 112.115 246.153 107.218 245.821C97.5029 245.156 82.4553 246.945 79.0894 246.089C75.2351 245.118 67.9621 239.753 66.7345 232.842C65.6785 226.915 69.4537 219.531 70.5228 217.474C71.4072 215.775 75.2219 213.348 80.5678 212.658C89.8603 211.47 97.8593 214.153 103.997 218.228C105.106 218.969 112.92 223.006 117.606 232.842C124.826 248.005 126.727 257.126 125.592 257.19H125.605Z" fill="#668124" stroke="#536B1B" stroke-miterlimit="10"/>
<path d="M71.3544 228.166C74.2187 228.166 83.1813 228.447 88.0784 229.661C97.5029 231.986 110.333 236.214 114.095 241.413" stroke="#536B1B" stroke-miterlimit="10"/>
<path d="M89.7943 241.081C88.25 239.996 86.1776 236.61 85.0425 233.787C84.4221 232.241 83.9865 229.597 83.3925 228.486" stroke="#536B1B" stroke-miterlimit="10"/>
<path d="M72.8724 228.166C74.1791 226.749 78.1258 221.396 84.884 219.825" stroke="#536B1B" stroke-miterlimit="10"/>
<path d="M90.2035 230.108C92.1043 229.431 97.8197 227.068 103.72 227.068" stroke="#536B1B" stroke-miterlimit="10"/>
<path d="M100.644 240.328C99.2584 239.178 95.0742 233.442 93.7278 231.053" stroke="#536B1B" stroke-miterlimit="10"/>
<path d="M57.5606 234.043C57.8378 233.774 57.059 231.782 57.2174 228.754C57.3758 225.727 58.049 223.785 59.8838 221.562C63.5533 217.142 70.4963 211.458 71.4862 209.669C72.6214 207.625 73.1362 202.337 70.4963 198.99C68.2259 196.129 63.3157 194.723 61.9429 194.34C60.8077 194.021 58.1414 194.659 55.6467 196.665C51.3172 200.14 49.2712 204.649 48.6245 208.941C48.5057 209.72 47.1593 214.702 49.7332 220.719C53.6931 229.993 57.0722 234.528 57.5606 234.068V234.043Z" fill="#A4B758" stroke="#536B1B" stroke-miterlimit="10"/>
<path d="M66.4703 199.041C65.3088 200.267 61.7713 204.202 60.3193 206.782C57.5342 211.751 54.2211 218.956 55.0527 222.674" fill="#A4B758"/>
<path d="M66.4703 199.041C65.3088 200.267 61.7713 204.202 60.3193 206.782C57.5342 211.751 54.2211 218.956 55.0527 222.674" stroke="#536B1B" stroke-miterlimit="10"/>
<path d="M64.8336 212.173C64.9656 211.074 64.2792 208.813 63.4477 207.165C62.9989 206.271 61.9693 205.007 61.7053 204.291" fill="#A4B758"/>
<path d="M64.8336 212.173C64.9656 211.074 64.2792 208.813 63.4477 207.165C62.9989 206.271 61.9693 205.007 61.7053 204.291" stroke="#536B1B" stroke-miterlimit="10"/>
<path d="M65.85 199.693C64.6752 199.667 60.6229 199.169 57.1514 201.417Z" fill="#A4B758"/>
<path d="M65.85 199.693C64.6752 199.667 60.6229 199.169 57.1514 201.417" stroke="#536B1B" stroke-miterlimit="10"/>
<path d="M59.6594 207.881C58.577 208.417 55.1715 209.886 52.756 212.403Z" fill="#A4B758"/>
<path d="M59.6594 207.881C58.577 208.417 55.1715 209.886 52.756 212.403" stroke="#536B1B" stroke-miterlimit="10"/>
<path d="M60.0553 216.504C60.0949 215.443 59.1973 211.317 58.6562 209.771Z" fill="#A4B758"/>
<path d="M60.0553 216.504C60.0949 215.443 59.1973 211.317 58.6562 209.771" stroke="#536B1B" stroke-miterlimit="10"/>
<path d="M173.137 533.767C173.427 533.166 168.147 530.65 165.547 525.502C163.937 522.308 164.412 520.2 164.993 515.18C166.035 506.034 166.497 500.451 166.141 496.708C165.93 494.537 165.177 479.144 157.64 474.762C152.625 471.837 147.846 471.798 145.022 471.913C142.685 472.003 135.967 473.778 132.429 477.751C125.882 485.096 126.687 493.796 129.129 501.435C129.565 502.814 130.119 510.964 139.874 519.779C154.921 533.358 172.662 534.814 173.15 533.754L173.137 533.767Z" fill="#7D9247" stroke="#536B1B" stroke-miterlimit="10"/>
<path d="M140.164 474.647C140.23 477.636 140.771 486.974 142.368 492.174C145.444 502.176 150.948 515.883 157.469 520.252" fill="#7D9247"/>
<path d="M140.164 474.647C140.23 477.636 140.771 486.974 142.368 492.174C145.444 502.176 150.948 515.883 157.469 520.252" stroke="#536B1B" stroke-miterlimit="10"/>
<path d="M157.192 502.316C154.921 501.907 150.671 499.48 147.754 497.181C146.157 495.929 144.071 493.528 142.764 492.672" fill="#7D9247"/>
<path d="M157.192 502.316C154.921 501.907 150.671 499.48 147.754 497.181C146.157 495.929 144.071 493.528 142.764 492.672" stroke="#536B1B" stroke-miterlimit="10"/>
<path d="M142.17 490.564C140.956 492.02 137.96 498.995 137.155 501.856Z" fill="#7D9247"/>
<path d="M142.17 490.564C140.956 492.02 137.96 498.995 137.155 501.856" stroke="#536B1B" stroke-miterlimit="10"/>
<path d="M140.309 479.361C142.157 479.91 148.691 484.036 151.027 485.965Z" fill="#7D9247"/>
<path d="M140.309 479.361C142.157 479.91 148.691 484.036 151.027 485.965" stroke="#536B1B" stroke-miterlimit="10"/>
<path d="M148.77 508.818C148.282 510.632 148.506 518.182 148.981 521.107Z" fill="#7D9247"/>
<path d="M148.77 508.818C148.282 510.632 148.506 518.182 148.981 521.107" stroke="#536B1B" stroke-miterlimit="10"/>
<path d="M76.7793 430.307C77.0169 430.205 76.5945 427.484 77.5317 424.84C78.1256 423.192 78.8516 422.655 80.4752 421.174C83.4319 418.465 85.1874 416.754 86.217 415.361C86.811 414.557 91.2197 409.115 90.8369 404.963C90.5861 402.204 89.5301 400.492 88.8569 399.521C88.3026 398.716 86.283 396.928 84.3031 397.017C80.66 397.158 78.2576 400.377 76.5285 403.813C76.2117 404.439 73.9149 407.365 73.4794 413.803C72.8062 423.716 76.3437 430.499 76.7793 430.32V430.307Z" fill="#9BB574" stroke="#536B1B" stroke-miterlimit="10"/>
<path d="M86.9694 398.716C86.0982 399.751 83.4451 403.072 82.2571 405.385C79.9736 409.843 77.1356 416.409 77.294 420.19" fill="#9BB574"/>
<path d="M86.9694 398.716C86.0982 399.751 83.4451 403.072 82.2571 405.385C79.9736 409.843 77.1356 416.409 77.294 420.19" stroke="#536B1B" stroke-miterlimit="10"/>
<path d="M82.5607 414.058C82.1779 413.113 81.9404 410.788 81.9667 408.974C81.9799 407.991 82.2307 406.432 82.1911 405.691" fill="#9BB574"/>
<path d="M82.5607 414.058C82.1779 413.113 81.9404 410.788 81.9667 408.974C81.9799 407.991 82.2307 406.432 82.1911 405.691" stroke="#536B1B" stroke-miterlimit="10"/>
<path d="M82.6927 404.784C81.9932 404.848 79.2476 406.125 78.2181 406.803Z" fill="#9BB574"/>
<path d="M82.6927 404.784C81.9932 404.848 79.2476 406.125 78.2181 406.803" stroke="#536B1B" stroke-miterlimit="10"/>
<path d="M85.5967 400.352C85.8475 401.195 86.085 404.899 86.0322 406.381Z" fill="#9BB574"/>
<path d="M85.5967 400.352C85.8475 401.195 86.085 404.899 86.0322 406.381" stroke="#536B1B" stroke-miterlimit="10"/>
<path d="M78.746 413.266C78.0993 413.701 75.9081 416.319 75.1425 417.469Z" fill="#9BB574"/>
<path d="M78.746 413.266C78.0993 413.701 75.9081 416.319 75.1425 417.469" stroke="#536B1B" stroke-miterlimit="10"/>
<path d="M141.867 205.811C142.197 205.569 139.095 202.631 138.474 199.054C138.092 196.831 138.897 195.809 140.454 193.216C143.279 188.489 144.876 185.564 145.483 183.392C145.84 182.141 148.836 173.454 144.586 168.842C141.748 165.764 138.435 164.359 136.442 163.579C134.792 162.941 129.697 161.957 126.318 163.107C120.061 165.227 118.635 170.248 118.583 175.166C118.583 176.047 117.091 180.697 121.869 188.4C129.248 200.267 141.286 206.246 141.867 205.811Z" fill="#668124" stroke="#536B1B" stroke-miterlimit="10"/>
<path d="M132.429 163.669C131.795 165.329 130.013 170.631 129.947 173.952C129.802 180.352 130.489 189.498 134.039 193.803" stroke="#536B1B" stroke-miterlimit="10"/>
<path d="M137.96 183.852C136.468 182.958 134.066 180.39 132.548 178.27C131.716 177.107 130.819 175.179 130.106 174.335" stroke="#536B1B" stroke-miterlimit="10"/>
<path d="M130.185 173.007C129.01 173.454 125.314 176.418 124.1 177.746" stroke="#536B1B" stroke-miterlimit="10"/>
<path d="M131.452 166.3C132.614 167.144 136.217 171.321 137.405 173.058" stroke="#536B1B" stroke-miterlimit="10"/>
<path d="M130.594 184.976C129.842 185.832 128.271 190.048 127.928 191.798" stroke="#536B1B" stroke-miterlimit="10"/>
<path d="M49.2053 267.218C49.4693 267.192 49.8917 264.471 51.6209 262.21C52.69 260.818 53.5612 260.511 55.5544 259.553C59.2107 257.828 61.415 256.704 62.8274 255.67C63.6457 255.069 69.5328 251.148 70.4436 247.085C71.0507 244.377 70.5755 242.435 70.2456 241.324C69.9684 240.404 68.5824 238.105 66.6817 237.607C63.1573 236.687 59.8706 239.063 57.1647 241.835C56.6763 242.333 53.5744 244.467 51.1721 250.483C47.4762 259.745 48.7433 267.243 49.2053 267.192V267.218Z" fill="#9BB574" stroke="#536B1B" stroke-miterlimit="10"/>
<path d="M68.688 240.021C67.5396 240.749 63.9757 243.164 62.1278 245.029C58.5771 248.618 53.8252 254.06 52.822 257.714" fill="#9BB574"/>
<path d="M68.688 240.021C67.5396 240.749 63.9757 243.164 62.1278 245.029C58.5771 248.618 53.8252 254.06 52.822 257.714" stroke="#536B1B" stroke-miterlimit="10"/>
<path d="M59.7386 253.383C59.6594 252.374 60.161 250.087 60.7418 248.363C61.0586 247.417 61.7714 246.012 61.9694 245.297" fill="#9BB574"/>
<path d="M59.7386 253.383C59.6594 252.374 60.161 250.087 60.7418 248.363C61.0586 247.417 61.7714 246.012 61.9694 245.297" stroke="#536B1B" stroke-miterlimit="10"/>
<path d="M62.735 244.569C62.0486 244.416 59.0391 244.85 57.8379 245.195Z" fill="#9BB574"/>
<path d="M62.735 244.569C62.0486 244.416 59.0391 244.85 57.8379 245.195" stroke="#536B1B" stroke-miterlimit="10"/>
<path d="M66.8796 241.184C66.8664 242.052 65.9293 245.667 65.4277 247.06Z" fill="#9BB574"/>
<path d="M66.8796 241.184C66.8664 242.052 65.9293 245.667 65.4277 247.06" stroke="#536B1B" stroke-miterlimit="10"/>
<path d="M56.3463 251.518C55.5939 251.748 52.69 253.613 51.6076 254.494Z" fill="#9BB574"/>
<path d="M56.3463 251.518C55.5939 251.748 52.69 253.613 51.6076 254.494" stroke="#536B1B" stroke-miterlimit="10"/>
<path d="M130.634 349.829C130.132 349.778 129.71 344.885 126.714 340.798C124.853 338.268 123.229 337.694 119.507 335.943C112.709 332.75 108.617 330.68 106.043 328.815C104.552 327.73 93.7674 320.55 92.6059 313.231C91.8271 308.351 93.0415 304.889 93.8466 302.896C94.5198 301.248 97.5293 297.161 101.278 296.317C108.221 294.759 114.214 299.09 119.018 304.135C119.89 305.042 125.552 308.951 129.301 319.797C135.082 336.506 131.505 349.931 130.621 349.829H130.634Z" fill="#A4B758" stroke="#536B1B" stroke-miterlimit="10"/>
<path d="M97.0541 300.571C99.1661 301.913 105.687 306.32 108.973 309.705C115.309 316.233 123.651 326.107 125.064 332.699" fill="#A4B758"/>
<path d="M97.0541 300.571C99.1661 301.913 105.687 306.32 108.973 309.705C115.309 316.233 123.651 326.107 125.064 332.699" stroke="#536B1B" stroke-miterlimit="10"/>
<path d="M112.353 324.766C112.656 322.952 112.023 318.839 111.151 315.734C110.676 314.036 109.501 311.506 109.224 310.19" fill="#A4B758"/>
<path d="M112.353 324.766C112.656 322.952 112.023 318.839 111.151 315.734C110.676 314.036 109.501 311.506 109.224 310.19" stroke="#536B1B" stroke-miterlimit="10"/>
<path d="M107.878 308.875C109.224 308.632 114.979 309.475 117.223 310.114Z" fill="#A4B758"/>
<path d="M107.878 308.875C109.224 308.632 114.979 309.475 117.223 310.114" stroke="#536B1B" stroke-miterlimit="10"/>
<path d="M100.367 302.717C100.275 304.289 101.529 310.778 102.294 313.295Z" fill="#A4B758"/>
<path d="M100.367 302.717C100.275 304.289 101.529 310.778 102.294 313.295" stroke="#536B1B" stroke-miterlimit="10"/>
<path d="M119.177 321.508C120.589 321.93 125.922 325.354 127.875 326.95Z" fill="#A4B758"/>
<path d="M119.177 321.508C120.589 321.93 125.922 325.354 127.875 326.95" stroke="#536B1B" stroke-miterlimit="10"/>
<path d="M20.5884 223.938C21.2351 224.143 28.7325 215.52 33.7484 212.48C36.8503 210.602 39.1735 209.465 44.3873 209.478C53.9043 209.503 56.8082 208.596 60.6229 207.843C62.8404 207.408 78.5744 205.045 82.2703 197.342C84.7386 192.207 84.2767 187.608 83.8675 184.9C83.5243 182.664 82.2967 178.845 77.8352 175.856C69.5854 170.325 59.5933 172.522 51.2511 175.14C49.8256 175.588 42.8166 176.558 32.4944 187.238C18.4368 201.775 19.4664 223.555 20.6016 223.926L20.5884 223.938Z" fill="#668124" stroke="#536B1B" stroke-miterlimit="10"/>
<path d="M79.0892 188.285C76.0005 188.196 66.3383 188.196 60.8869 189.448C50.3932 191.875 35.9527 196.448 31.0953 202.503" stroke="#536B1B" stroke-miterlimit="10"/>
<path d="M46.2485 183.738C48.5452 183.508 53.3235 184.657 56.8082 186.05C58.7089 186.803 61.4149 188.541 62.9196 189.001" stroke="#536B1B" stroke-miterlimit="10"/>
<path d="M72.463 188.681C71.3014 187.187 65.0316 182.677 62.3653 181.221" stroke="#536B1B" stroke-miterlimit="10"/>
<path d="M73.387 187.838C72.6742 189.575 67.8431 195.516 65.6652 197.598" stroke="#536B1B" stroke-miterlimit="10"/>
<path d="M46.3277 193.957C44.5457 193.229 36.7975 192.373 33.7352 192.399" stroke="#536B1B" stroke-miterlimit="10"/>
<path d="M49.0732 192.807C48.4265 194.57 43.8594 200.689 41.7606 202.861" stroke="#536B1B" stroke-miterlimit="10"/>
<path d="M64.134 188.86C63.4873 190.623 58.9202 196.742 56.8214 198.913" stroke="#536B1B" stroke-miterlimit="10"/>
<path d="M86.071 123.6C86.3468 124.207 94.9244 129.758 100.168 135.549C104.234 140.054 105.353 141.803 108.509 146.167C114.058 153.877 119.026 159.645 122.187 162.038C124.027 163.437 134.102 169.63 142.678 167.762C148.401 166.517 151.694 163.407 153.551 161.474C155.081 159.875 155.938 154.085 155.279 148.95C154.055 139.461 149.201 134.873 141.503 130.202C140.188 129.404 133.409 124.133 119.855 124.343C98.9586 124.665 85.5961 122.528 86.071 123.6Z" fill="#9BB574" stroke="#536B1B" stroke-miterlimit="10"/>
<path d="M152.077 158.467C150.066 156.106 143.552 148.887 138.883 145.573C129.909 139.198 116.56 131.149 108.523 131.168" fill="#9BB574"/>
<path d="M152.077 158.467C150.066 156.106 143.552 148.887 138.883 145.573C129.909 139.198 116.56 131.149 108.523 131.168" stroke="#536B1B" stroke-miterlimit="10"/>
<path d="M133.587 131.145C135.326 132.716 137.643 136.993 138.907 140.424C139.596 142.296 140.054 145.36 140.717 146.753" fill="#9BB574"/>
<path d="M133.587 131.145C135.326 132.716 137.643 136.993 138.907 140.424C139.596 142.296 140.054 145.36 140.717 146.753" stroke="#536B1B" stroke-miterlimit="10"/>
<path d="M147.353 153.655C147.746 151.887 147.053 144.486 146.399 141.613Z" fill="#9BB574"/>
<path d="M147.353 153.655C147.746 151.887 147.053 144.486 146.399 141.613" stroke="#536B1B" stroke-miterlimit="10"/>
<path d="M148.604 153.886C146.748 154.398 138.788 154.36 135.666 153.979Z" fill="#9BB574"/>
<path d="M148.604 153.886C146.748 154.398 138.788 154.36 135.666 153.979" stroke="#536B1B" stroke-miterlimit="10"/>
<path d="M125.566 137.398C124.939 135.633 120.398 129.341 118.308 127.08Z" fill="#9BB574"/>
<path d="M125.566 137.398C124.939 135.633 120.398 129.341 118.308 127.08" stroke="#536B1B" stroke-miterlimit="10"/>
<path d="M128.317 138.799C126.484 139.376 118.551 139.634 115.42 139.376Z" fill="#9BB574"/>
<path d="M128.317 138.799C126.484 139.376 118.551 139.634 115.42 139.376" stroke="#536B1B" stroke-miterlimit="10"/>
<path d="M141.559 147.612C139.727 148.188 131.793 148.446 128.663 148.189Z" fill="#9BB574"/>
<path d="M141.559 147.612C139.727 148.188 131.793 148.446 128.663 148.189" stroke="#536B1B" stroke-miterlimit="10"/>
<path d="M155.99 447.578C155.264 447.706 155.119 443.248 151.172 440.476C148.731 438.764 136.085 432.109 131.175 430.384C123.942 427.829 120.193 427.19 116.207 426.692C115.137 426.565 92.4473 420.561 89.2002 414.799C85.9531 409.038 88.8306 400.339 90.9029 397.081C93.4901 393.019 101.08 391.755 109.514 393.773C111.758 394.309 120.959 397.362 127.176 400.863C134.145 404.784 145.114 415.221 149.523 424.074C156.294 437.729 157.258 447.348 155.99 447.578Z" fill="#668124" stroke="#536B1B" stroke-miterlimit="10"/>
<path d="M92.2625 404.133C95.932 404.056 100.631 404.312 105.805 405.602C115.771 408.08 136.748 417.516 142.26 424.455" stroke="#536B1B" stroke-miterlimit="10"/>
<path d="M119.533 419.091C119.414 417.303 117.315 413.892 115.177 411.504C114.015 410.201 111.626 408.463 110.861 407.416" stroke="#536B1B" stroke-miterlimit="10"/>
<path d="M132.957 412.245C132.007 411.555 129.433 411.287 127.347 411.478C126.212 411.58 124.351 412.206 123.506 412.181" stroke="#536B1B" stroke-miterlimit="10"/>
<path d="M96.6184 404.529C96.9087 406.138 98.9679 409.191 100.948 411.325C102.03 412.487 104.155 414.033 104.881 414.978" stroke="#536B1B" stroke-miterlimit="10"/>
<path d="M108.736 406.215C109.963 404.899 119.243 404.899 122.476 404.324" stroke="#536B1B" stroke-miterlimit="10"/>
</svg>
