<?xml version="1.0" encoding="UTF-8"?>
<svg id="Layer_2" data-name="Layer 2" xmlns="http://www.w3.org/2000/svg" viewBox="0 0 294.76 537.42">
  <defs>
    <style>
      .cls-1 {
        fill: #bc725b;
      }

      .cls-2 {
        fill: #839a26;
      }

      .cls-3 {
        fill: #819319;
      }

      .cls-4 {
        fill: #6e7c1f;
      }

      .cls-5 {
        fill: #6d7521;
      }

      .cls-6 {
        fill: #cc7d5f;
      }

      .cls-7 {
        fill: #718713;
      }

      .cls-8 {
        fill: #563a22;
      }
    </style>
  </defs>
  <g id="Layer_1-2" data-name="Layer 1">
    <g id="potted-plant">
      <g id="t-pot">
        <g id="pot">
          <ellipse class="cls-8" cx="144.64" cy="433.51" rx="53.1" ry="8.12"/>
          <path class="cls-1" d="M92.44,434.58c-2.03-1.38,4.57-4.23,6.03-4.65,1.19-.34,2.06-.74,4.91-1.24,2.15-.38,4.42-.73,4.98-.8,7.55-1,22.36-1.45,22.36-1.45,12.49,0,18.73-.24,22.63,0,16.83,1.01,22.01,1.83,25.89,2.37,2.43.34,8.69,1.41,14.67,3.45.86.29,4.35,1.09,2.7,3.2,0,0,3.15-1.04,4.89-2.94.47-.52,1-.93,1-.93-.25-2.35-6.78-5.09-10.77-5.79-13.71-2.41-20.8-2.82-20.8-2.82-12.76-.74-19.14-1.11-26.07-1.07-6.5.03-12.05.38-23.17,1.07-3.19.2-10.37.66-18.75,2.14-3.2.56-3.97.69-7.84,1.6-4.9,1.16-8.51,2.34-9.21,4.33-.31.9-.36,1.53-.36,1.53,2.22.86,3.74,1.27,6.9,2h0Z"/>
          <path class="cls-6" d="M85.53,432.58c14.01,4.19,24.27,6.55,33.03,7.47,10.46,1.1,25.68,1.39,34.54,1.04,20.55-.81,23.35-1.43,31.86-2.72,5.99-.91,7.08-.97,14.7-4.86.7-.36,2.83-1.93,2.83-1.93.63,1.14,1.52,3.88,1.55,6.6.6,44.1-4.86,64.69-4.86,64.69-3.43,8.79-6.92,17.39-15.73,24.09-2.82,2.15-7.08,4.77-15.35,7.19-9.75,2.86-30.79,7.87-62.74-6.02-8.49-3.69-10.32-13.02-12.63-17.87-3.1-6.51-5.45-14.26-6.6-36.52-.53-10.26-1.44-24.77-.6-41.16Z"/>
        </g>
      </g>
      <g id="t-plant">
        <g id="t-leaf-back">
          <path class="cls-2" d="M163.62,0c-2.48,0-9.44,13.95-17.02,36.88-3.47,10.5-6.04,19.47-8.97,30.07-6.41,23.16-9.62,34.74-10.32,38.58-4.12,22.67.98,29.29,5.11,86.8,1.06,14.8.45,10.59,1.7,28.93,4.33,63.67,9.16,77.63,10.54,81.13.58,1.46,2.66,6.43,3.65,13.43.44,3.08.53,5.6.57,10.21.06,7.02.09,10.53-.19,18.15-.58,15.74,1.41,17.59,1.51,38.96.02,4.24-.11,8.94-.38,18.34-.63,22.26-.94,33.39-1.32,34.42-.29.78-1.18,3.02-.19,4.22,1.02,1.23,3.85,1.12,4.54,0,.45-.73-.28-1.46-.57-3.47-.26-1.81.05-3.11.19-3.97.59-3.76.45-16.25.57-24.58.15-10.79.83-14.1,1.89-33.66.14-2.65.58-10.6.43-7.95h0s-.85.07-1.44.07c-.39,0-.95-.01-1.64-.13-.74-9.51-.99-16.22-1.07-20.55-.03-1.28-.08-4.53-.13-8.01-.12-9.08-.04-8.33-.13-10.78-.18-5.37-.46-6.25-.95-14.75-.16-2.9-.25-4.96-.38-7.82-1.42-32.83-2.13-49.24-1.23-61.59.38-5.24,2.34-16.54,6.24-39.15,3.9-22.56,5.69-29.88,7.51-36.26,3.1-10.9,3.68-9.94,8.95-26.73,5.39-17.18,8.09-25.77,8.83-34.67.69-8.31.96-19.17.31-23.45-.03-.17.26-3.01.64-4.9.91-4.57,1.44-6.91,1.71-7.83,2.29-8,1.09-23.38.88-24.33-1.28-5.71-2.85-7.2-6.93-15.76C166.75,9.38,166.31,0,163.62,0Z"/>
          <path class="cls-4" d="M170.87,16.85c-.95.56.78,7.36,4.07,20.98,2.34,9.7,2.39,14.82,2.27,17.78-.09,2.17-.31,4.08-1.7,11.54-1.98,10.58-3.73,18.47-3.78,18.72-2.67,12.04-1.27,12.6-4.16,32.9-2.07,14.58-3.17,22.06-6.24,31.39-1.15,3.51-3.48,9.08-8.13,20.23-6.87,16.48-7.75,17.6-9.64,23.07-4.24,12.23-5.29,22.3-5.92,28.56-1.58,15.75.64,30.64,2.33,42.93,1.48,10.74,9.1,26.02,9.85,43.53-1.08-25.24-3.56-56.12-.63-70.77,5.7-28.46,5.7-39.62,12.61-68.65,3.03-13.55,7.71-18.83,13.55-41.54,2.81-10.91,4.85-17.4,4.79-22.13-.07-5.48,1.32-13.93.1-22.73-.26-1.85.11-2.64.9-6.02.51-2.16,1.88-8.35,2.82-14.75.62-4.2.71-15.25-.99-18.97-6.07-13.26-12.09-26.09-12.09-26.09Z"/>
        </g>
        <g id="t-leaf-left-2">
          <path class="cls-7" d="M0,46.57s2.85,18.24,5.11,27.8c12.01,50.96,10.02,39.75,25.53,72.05,4.29,8.94,21.32,43.92,48.79,77.72,4.03,4.95,7.89,9.41,12.71,17.02,13.1,20.68,17.74,40.15,20.76,53.33,1.68,7.32,2.8,16.8,5.11,35.74,5.04,41.29,7.02,71.29,7.79,84.15.54,9.07.89,16.51,1.1,21.37h3.03c-.36-5.87-.9-14.95-1.51-26.1-.97-17.66-1.04-20.75-1.7-31.01-1.17-18.1-1.75-27.15-2.84-34.04-2.45-15.5-4.52-17.25-5.29-30.07-.62-10.31.17-18.24.95-23.45.95-6.38,2.23-11,2.84-13.24,3.18-11.75,9.96-36.86,10.5-58.81.35-14.43-2.06-25.17-3.97-33.66-4.39-19.52-11.81-34.99-29.31-64.39-18.72-31.45-26.09-38.62-33.12-43.12-1.73-1.11-7.82-2.65-13.4-7.94-5.14-4.87-3.81-7.98-8.51-11.35-3.92-2.81-7-4.43-23.83-8.51-5.24-1.27-9.46,2.52-20.71-3.5Z"/>
          <path class="cls-4" d="M5.11,74.37c1.82,3.85,14.38,31.12,33.04,55.58,30.28,39.7,64.07,94.69,69.41,103,10.34,16.1,7.49,31.77,6.99,36.36-.91,8.24,1.48,13.13,3.3,24.3,1.59,9.74-.46,14.28,1.15,25.91.92,6.71,2.39,12.12,3.5,15.7-1.2.12-2.4.25-3.6.37-.77-5.71-1.55-11.43-2.32-17.14-.44-6.04-1.22-12.66-2.52-19.73-2.09-11.36-5.23-19.71-6.93-26.42-1.96-7.72-13.45-30.81-27.69-48.16-3.28-4-17.81-23.6-32.72-47.56-10.6-17.03-19.87-37.97-27.79-53.71-9.25-18.38-13.04-47.14-13.81-48.5"/>
        </g>
        <g id="t-leaf-right-1">
          <path class="cls-3" d="M162.71,435.75c-.03-3.08.13-7.52,1.01-12.76,1.38-8.2,4.18-16.16,12.1-30,9.57-16.72,15.21-26.57,26.22-37.32,11.71-11.42,21.75-16.3,27.99-22.69.98-1.01,2.96-3.18,6.3-4.54,2.84-1.16,3.77-.56,6.3-1.77,3.07-1.46,2.53-2.74,6.3-5.55,4.37-3.25,8.48-4.03,9.3-4.18,2.32-.41,3.81-.23,3.81-.36,0-.25-6.21-2-12.35,0-1.49.48-2.92,1.17-5.29,1.26-2.37.09-3.73-.5-5.04-.76-6.45-1.26-13.13,5.31-13.87,6.05-3.5,3.53-1.71,4.36-6.3,9.83-2.84,3.39-4.93,5.88-8.57,7.56-1.69.78-3.03,1.07-4.79,2.52-2.21,1.82-3.13,3.85-3.78,5.04-1.24,2.25-2.68,3.59-9.83,8.83-9.76,7.15-11.03,7.56-13.87,9.83-11.4,9.14-15.58,22.31-17.62,28.74-2,6.31-3.41,10.76-3.05,16.89.4,6.89,2.64,9.18,2.02,16.89-.35,4.31-1.42,8.2-.25,8.72.79.36,2.2-1.03,3.28-2.27Z"/>
        </g>
        <g id="t-leaf-right-4">
          <path class="cls-7" d="M158.61,335.59c1.04-5.73,2.4-9.46,5.11-16.92,5.73-15.78,8.25-15.8,12.67-28.56,4.38-12.65,3.01-15.84,7.97-22.5,3.69-4.96,6.91-6.5,12.83-10.97,1.57-1.19,14.05-10.7,23.45-23.26,6.05-8.08,2.84-6.74,17.97-36.88,2.23-4.44,4.34-8.54,5.11-14.56.96-7.57-1.45-8.45,0-16.45,1.07-5.9,3.89-13.82,4.16-14.56.37-1.02.68-1.85.9-2.42.24-.62.48-1.25.74-1.88.08-.21.17-.42.25-.62.12-1.07.23-2.4,0-2.46-.28-.06-.83,1.71-2.08,4.95-2.41,6.23-2.64,5.53-3.12,7.75-.33,1.53-.5,3.15-1.61,5.11-.54.95-1.05,1.54-1.7,1.99-1.22.82-2.46.78-3.21.85-2.09.19-3.05,1.44-7,4.82-3.79,3.25-3.08,2.25-6.62,5.29-4.47,3.85-7.62,7.16-9.08,8.7-13.54,14.35-20.32,21.52-23.17,25.72-7.87,11.58-10.73,23.86-16.45,48.41-1.6,6.85-4.25,13.47-5.29,20.42-.32,2.09-.83,6.05-3.21,10.49-1.56,2.9-2.19,2.79-4.16,6.15-2.5,4.25-4.4,7.5-4.44,11.72-.04,3.52,1.24,5.69,0,9.7-.34,1.09-.47,1.08-1,2.52-1.46,4.03-1.61,7.5-1.68,9.14-.31,7.34-.72,14.67-1.06,22-.45,9.63-.69,14.48-1.33,15.88-.24.52-1.29,2.72-.5,3.53.42.44,1.24.33,1.84.19.31-2.17.77-5.45,1.24-9.46,1.52-12.98,1.24-16.92,2.51-23.87Z"/>
        </g>
        <g id="t-leaf-right-3">
          <path class="cls-3" d="M156.04,319.52c-.04-2.89-.06-4.34-.32-6.05-.42-2.85-1.05-3.63-1.83-6.49-.8-2.94-.95-5.14-1.15-8.19-1.11-16.24-2.02-26.98,1.68-37.44.7-1.99,1.68-4.28,1.68-7.64,0-4.85-2.04-6.05-2.71-11.63-.26-2.2.08-1.78.55-10.21.37-6.69.18-7.34.49-11.35.32-4.03.83-7.32,1.66-11.91,2.29-12.54,3.43-18.8,5.43-25.43,4.73-15.72,11.72-26.87,15.32-32.53,7.33-11.51,8.38-9.55,17.4-22.79,11.14-16.36,9.11-18.74,18.72-30.82,7.27-9.14,11.82-14.86,19.67-20.14,3.29-2.21,9.41-5.87,15.41-12.29,2.88-3.09,5.67-6.71,5.67-6.71,3.47-4.51,4.66-6.88,6.15-8.98,1.46-2.07,7.24-5.63,18.72-12.67,0,0,10.97-6.73,15.68-10.68.13-.11.47-.4.48-.38.08.09-3.9,5.61-10.12,9.36-1.35.81-3.03,1.69-5.39,3.5-2.79,2.14-3.46,3.26-3.78,3.88-.99,1.93-.42,2.74-1.32,4.54-.99,1.96-2.57,2.79-4.07,3.78,0,0-2.57,1.71-7.47,7.38-3.46,4-4.62,7.97-5.96,11.91-2.65,7.79-6.63,15.07-9.74,22.69,0,0-5.23,12.82-12.01,27.7-5.05,11.08-8.87,18.51-16.52,33.35-9.86,19.14-12.66,23.51-18.28,35.93-3.84,8.48-6.65,15.53-8.37,20.01-.22.32-.52.78-.88,1.35-1.61,2.53-3.74,6.26-5.89,11.72-1.1,2.79-1.93,5.33-3.28,10.05-.92,3.23-2.9,9.98-4.73,18.53-.56,2.64-1.12,5.46-2.25,9.61-.22.79-.69,2.39-1.62,5.59-.99,3.39-2.1,7.13-2.5,9.99-.03.22-.11.84-.25,1.71-.05.3-.33,2.06-.65,3.44-.26,1.16-.75,3.31-1.97,5.74-.72,1.45-1.48,2.54-2.29,3.71-.98,1.42-1.17,1.5-2.03,2.8-.79,1.2-1.27,2.09-2.14,3.7-1.23,2.3-1.58,3.22-1.71,3.59-.19.51-.43,1.2-.63,2.12-.1.49-.59,2.87-.18,5.54.07.45.2,1.18.29,2.28.03.42.07.89.06,1.5,0,.67-.03,1.74-.36,2.97-.2.73-.25.56-.86,2.22-.19.52-.45,1.23-.73,2.16-.16.53-.42,1.4-.63,2.48-.34,1.7-.35,2.79-.41,2.79-.08,0,0-2.39-.04-5.27Z"/>
          <path class="cls-4" d="M254.84,65.05c-2.77,3.89-1.41,4.59-3.78,7.56-2.53,3.17-4.71,3.44-7.82,7.56-3.35,4.45-.91,5.98-4.79,14.88-2.06,4.73-5.04,9.58-5.04,9.58-2.12,3.46-2.66,3.74-3.53,5.8-1.79,4.24-.6,5.61-1.77,10.59-1.04,4.46-2.21,4.27-4.85,11.35-1.61,4.3-1.15,4.31-2.71,8.82-2.25,6.49-4.82,11.2-6.3,13.87-3.28,5.93-4.92,8.9-7.56,11.6-2.82,2.89-5.17,4.23-7.56,8.31-1.19,2.04-1.16,2.65-2.52,4.8-2.26,3.58-4.67,5.56-6.3,7.06-2.06,1.88-4.4,4.95-9.08,11.09-8.32,10.92-6.83,13.8-16.89,30-1.52,2.45-4.2,6.64-6.43,12.89-1.19,3.34-2.11,6.47-2.51,8.42.16.55.35,1.11.47,1.75.15.83.31,2.51.12,4.77-.2,2.43-1.12,4.34-1.29,4.86-1.76,5.27-3,10.71-2.83,15.11.29,7.67-.07,9.39.51,17.33.45,6.09.39,10.12,1.14,13.24.31,1.29,1.54,3.48,2.23,6.09.28,1.65.35,3,.4,4.15.2,4.09-.18,7.44-.05,7.46.02,0,.06-.13.12-.4.16-.68.12-.95.22-1.5.02-.11.11-.41.28-1.01.04-.13.14-.49.32-1.06.23-.75.35-1.13.46-1.45.31-.91.38-.9.8-2.01.28-.74.44-1.18.59-1.83.06-.24.16-.73.23-1.37.01-.13.07-.69.06-1.47,0-.76-.07-1.33-.15-1.91-.11-.93-.16-.93-.26-1.8-.05-.46-.12-1.07-.13-1.84-.01-.98.07-1.73.1-1.97.2-1.57.68-2.82.96-3.49,1.3-3.07,3.98-7.25,4.71-8.4,2.61-4.09,3.93-6.18,4.65-8.12.96-2.61,1.17-4.59,1.39-6.19.66-4.73,1.47-6.44,3.97-15.35,4.69-16.73,3.82-17.8,7.23-28.25,2-6.12,4.63-12.16,9.9-24.24,3.49-8,6.35-14.1,9.19-20.14,4.27-9.09,7.58-15.79,10.68-22.08,8.75-17.71,9.48-18.45,14.84-29.36,12.18-24.77,9.98-23.89,19.38-42.45,0,0,8.12-17.47,11.31-26.25.38-1.04.77-3.32,2.06-6.31,1.14-2.66,1.97-4.06,1.97-4.06,0,0-3.76,2-6.14,5.35Z"/>
        </g>
        <g id="t-leaf-left-1">
          <path class="cls-2" d="M121.37,428.68c0-7.88-.14-21.58-.14-29.46,0-16.84,0-21.45-1.89-28.18-2.24-7.94-5.62-13.46-7.38-16.26-5.3-8.5-10.14-12.07-24.02-24.21-14.69-12.85-22.03-19.27-23.64-21.37,0,0-15.68-14.91-23.07-23.26-1.18-1.33-3.21-1.32-3.21-1.32-1.76-.59-2.85-.74-3.59-.95-2.89-.78-3.67-3.07-5.67-4.73-5.02-4.16-11.61.71-19.29-3.78-.5-.29-2.47-1.45-2.27-2.08.31-.95,5.31-.13,6.05,0,3.57.61,5.46,1.51,7.94,2.33,4.92,1.63,9.03,1.88,11.22,2.02,5.13.32,6.36-.63,12.48-1.01,0,0,5.62-.35,13.24.5,13.11,1.47,23.87,7.24,28.62,9.83,5.42,2.96,15.95,8.85,25.72,20.68,4.41,5.33,12.68,15.58,15.76,30.89,1.75,8.67,1.09,15.32,0,26.47-1.55,15.82-4.22,16.84-5.04,31.64-.56,10.13-.44,22.36-.44,22.36.02,2.27.16,9.43.19,10.75-.54-.48-1.03-.4-1.56-.88Z"/>
        </g>
        <g id="t-leaf-right-2">
          <path class="cls-2" d="M168.02,438.08c-.15-5.74-.25-13.94,0-23.79.41-16,.29-31.23,3.59-45.26,5.88-24.98,17.63-38.26,21.75-50.43,0,0,2.21-6.53,6.24-11.35.84-1,1.72-1.89,1.72-1.89,2.38-2.41,3.46-3.1,4.43-4.21,2.2-2.52,2.42-4.76,4.08-9.4,1.11-3.11,3.01-5.42,6.79-10.02,3.75-4.56,6.46-7.77,11.27-9.96,2.47-1.13,3.94-2.19,5.26-4.05,2.1-2.95,2.08-3.88,4.65-7.36,2.62-3.56,3.33-2.62,7.38-7.19,1.75-1.97,3.92-4.46,5.67-8.13,1.72-3.6,1.44-5,2.46-7.56,1.67-4.21,4.3-5.21,11.35-10.78,1.97-1.56,3.87-3.2,5.74-4.88,24.4-22,1.67-1.77,11.28-10.44.51-.46,1.66-1.49,1.51-1.7-.12-.17-1.06.25-1.7.63-1.54.9-2.14,1.96-3.15,3.21-1.03,1.28-2.55,3.16-4.92,4.41-1.25.66-2.01.77-3.03,1.76-.92.91-1.12,1.63-1.64,2.46-.86,1.36-2.08,2.13-5.04,3.47-3.53,1.59-5.29,2.38-7.56,2.96-3.6.91-10.17,3.55-23.32,8.83-17.1,6.86-29.17,17.45-33.66,21.68-6.84,6.44-10.98,12.1-14.8,17.4-7.74,10.71-28.47,39.39-25.41,63.67.37,2.93,1.49,9.03,1.78,18.28.27,8.89-.58,9.2,0,15.63.76,8.42,2.36,9.37,3.77,20.3.8,6.18.96,11.13,1.01,12.73.19,6.86-.39,6.95-.25,16.01.04,2.73.16,7.48.38,12.64.05,1.19.09,2.18.13,2.87.76-.18,1.51-.36,2.27-.54Z"/>
          <path class="cls-4" d="M162.66,373.95c-.28-1.7-.27-3.43.03-5.13.99-5.71,3.05-9.51,4.9-12.02,2.31-3.14,3.6-3.32,5.42-6.43,3.3-5.64.8-8.03,3.03-14.78,2.4-7.28,8-12.65,11.6-16.1,2.19-2.1,3.15-2.65,5.04-4.92,3.31-3.97,3.45-5.99,6.74-8.84,2.35-2.03,2.78-1.43,4.54-3.26,2.45-2.55,3.3-5.46,4.16-8.53,1.53-5.47.28-5.64,1.72-9.17.54-1.33,2.22-5.29,6.41-7.94,1.79-1.13,2.79-1.21,5.2-2.08,5.46-1.97,8.23-3.31,10.62-5.83.38-.4,1.89-3.05,4.92-8.35,2.27-3.98,2.62-4.7,3.78-5.8,2.23-2.12,3.73-2.11,5.99-4.22,2.46-2.31,3.9-5.1,3.9-5.1,0,0-.53,1.46-1.27,2.61-2.12,3.33-3.5,4.75-6.79,7.95-2.52,2.45-4.49,4.37-6.59,7.22-2.82,3.83-1.9,3.95-3.7,5.63-2.68,2.52-4.83,2.35-9.05,5.85-.83.69-1.37,1.21-2.17,1.99-4.34,4.21-8.62,8.36-10.81,14.31-1.01,2.75-1.23,4.93-2.99,7.88-.46.77-1.31,2.2-2.81,3.72-.77.79-1.12,1-2.24,2.05,0,0-1.49,1.4-3.03,3.18-2.11,2.44-3.37,5.38-4.66,8.35,0,0-2.01,4.61-4.35,9.69-2.51,5.48-4.61,8.64-6.26,11.64-1.19,2.17-4.92,9.39-8.23,18.62-.94,2.61-3.01,8.62-4.6,15.82-2.11,9.53-2.34,16.38-2.68,33.58-.25,12.52-.5,27.35-.52,32.02,0,.04,0,.3,0,.33-.44.27-.85.37-1.24.32-4.43-.63,2.54-25-4.02-64.24Z"/>
        </g>
        <g id="t-leaf-front-2">
          <path class="cls-5" d="M128.91,395.68c.05-5.32,1.2-8.42,1.88-11.22.68-2.82,1.49-5.16,7.94-21.05,1.98-4.88,2.64-6.47,3.03-9.2.71-5.06-.6-6.41-.88-12.38-.17-3.65.64-8.37,2.27-17.81,1-5.81,1.5-8.72,2.27-11.41,1.79-6.27,3.13-7.48,6.36-15.48,3.17-7.86,4.77-11.81,5.46-17.68.55-4.66,1.18-10.01-1.32-15.6-1.19-2.65-2.14-3.27-3.16-6.34-1.59-4.76-.96-8.31-.92-11.35.11-8.23-4.08-14.83-5.95-17.78-6.38-10.06-13.41-8.35-16.58-17.21-1.58-4.4.03-5.18-2.14-12.39-1.19-3.96-2.68-6.8-5.67-12.48-5.82-11.06-7.65-11.41-8.51-11.33-1.19.11-1.94,1.15-3.15,2.82-.86,1.19-2.22,4.35-2.27,9.83-.03,3.73.38,6.62,1.07,10.21.92,4.74.58,5.91,1.2,11.79.92,8.67,2.44,8.65,4.1,19.03.74,4.63.36,4.15,1.51,14.18.87,7.58,1.32,11.47,2.08,15.7,1.84,10.25,3.47,11.02,6.62,23.64.98,3.93,2.77,11.2,3.78,20.05,1.11,9.66.75,16.52.57,22.56-.77,25.71,2.16,20.29,1.09,33.95-.88,11.29-2.44,17.19-2.86,28.65-.45,12.15.53,23.86,1.23,23.86.33,0,.4-3.63.96-15.57Z"/>
        </g>
        <g id="t-leaf-front">
          <path class="cls-7" d="M135.65,438.84c.06-8.49,1.51-10.6,1.97-16.39.26-3.24,0-6.02-.54-11.6-.63-6.55-1.77-18.44-6.01-29.5-1.29-3.37-5.88-10.14-15-23.54,0,0-17.15-25.19-28.08-35.55-1.4-1.32-3.8-3.18-8.6-6.9-3.12-2.41-4.03-3-5.39-3.21-.62-.1-1.66-.17-1.8-.66-.12-.45.56-1.12,1.23-1.42,1.28-.57,2.73.1,3.88.66,3.68,1.79,5.52,2.68,6.52,3.21,2.55,1.36,4.34,1.52,8.32,2.27,0,0,5.41,1.02,15.53,3.69,10.79,2.85,17.65,12.83,26.42,25.59,4.39,6.38,8.57,12.57,11.35,21.94,2.3,7.75,3.94,18.68,2.02,23.45-.37.92-1.45,3.03-1.37,5.92.04,1.37.31,2.13.25,3.97-.06,1.81-.39,3.16-.63,4.1-2.31,9.1-2.71,10.46-2.71,10.46-2.09,7.13-2.16,7.12-2.58,8.97-.74,3.23-.62,1.94-1.72,7.54-.7,3.57-.89,4.04-.95,8.11,0,.51-.03.61-.03.88-.67-.21-1.39.14-2.05-.07-.01-.49-.03-1.03-.02-1.92Z"/>
          <path class="cls-4" d="M146.19,402.58c-.69-11.23,1.33-10,1.28-11.71-.42-13.14-7.69-16.88-9.84-20.46-2.93-4.89-5.9-5.67-8.05-11.66-.59-1.64-1.47-4.66-3.79-8.07-1.7-2.49-2.94-3.4-3.84-3.91-1.83-1.04-2.31-.47-4.35-1.64-.44-.25-.72-.45-4.29-3.53-1.33-1.15-2-1.73-2.4-2.08-1.8-1.61-2.88-2.58-4.1-3.93-.75-.84-1.54-1.72-2.33-2.94-2.07-3.19-1.28-4.27-3.03-6.74-.49-.7-2.07-2.89-4.79-3.85-2.26-.8-2.77.15-4.6-.69-2.08-.96-1.79-2.34-4.66-4.73-.97-.8-1.84-1.31-3.59-2.33-3.05-1.78-2.77-1.44-5.15-2.92-.13-.08-1.48-.84-2.76-1.27-1.46-.48-1.7-.34-2.02-.21-.05.02-1.53.41-1.53,1,0,.18-.2.51-.16.57.41.54,1.52.61,2.47.81.39.08.86.26,1.86.95,3.85,2.65,6.9,5.32,6.9,5.32,3.93,3.45,3.59,2.74,5.44,4.55,2.13,2.09,2.79,2.88,5.95,6.74,3.46,4.23,3.6,4.31,6.64,8.09,1.4,1.74,2.76,3.59,5.39,7.19,2.69,3.68,4.64,6.05,5.13,6.75,1.81,2.57,4.99,7.09,8.83,12.96,5.77,8.82,8.96,13.09,10.26,16.51,2.6,6.82,4.06,12.23,5.71,23.78,1.13,7.91,1.06,11.85.86,17.1-.18,4.58-1.1,7.08-1.1,7.08-.4,2.18-.72,4.07-.76,7.27-.01,1.17-.17,2.47-.13,2.69.05.27,1.15-.94,1.29-1.58,1.32-5.83.91-6.96,2.22-11.62,1.34-4.78,2.65-5.86,3.75-10.45.59-2.45,3.38-12.37,3.27-13.06Z"/>
        </g>
      </g>
    </g>
  </g>
</svg>