<svg width="45" height="45" viewBox="0 0 45 45" fill="none" xmlns="http://www.w3.org/2000/svg">
<path d="M36.3156 40.9715C37.0565 40.9715 37.767 40.6772 38.2909 40.1533C38.8148 39.6294 39.1091 38.9189 39.1091 38.178V31.6598C39.1091 30.9189 38.8148 30.2084 38.2909 29.6845C37.767 29.1606 37.0565 28.8663 36.3156 28.8663C34.1366 28.8663 31.9949 28.5311 29.9464 27.842C29.4566 27.6874 28.9338 27.6699 28.4348 27.7914C27.9358 27.9129 27.4795 28.1687 27.1156 28.5311L24.4338 31.2129C19.8008 28.6846 15.9929 24.8767 13.4647 20.2437L16.1278 17.5805C16.8914 16.8542 17.1707 15.774 16.8355 14.7311C16.165 12.7012 15.8298 10.5595 15.8298 8.38055C15.8298 7.63966 15.5355 6.92912 15.0116 6.40524C14.4877 5.88135 13.7772 5.58704 13.0363 5.58704H6.51812C5.77724 5.58704 5.0667 5.88135 4.54281 6.40524C4.01893 6.92912 3.72461 7.63966 3.72461 8.38055C3.72461 26.3521 18.344 40.9715 36.3156 40.9715ZM6.51812 7.44938H13.0363C13.2833 7.44938 13.5201 7.54748 13.6948 7.72211C13.8694 7.89674 13.9675 8.13359 13.9675 8.38055C13.9675 10.7643 14.34 13.0923 15.0663 15.3085C15.1594 15.5692 15.1408 15.9417 14.8428 16.2396L11.174 19.8898C14.2468 25.9052 18.7537 30.412 24.7877 33.5222L28.4193 29.8533C28.68 29.5926 29.0338 29.5181 29.369 29.6112C31.6039 30.3562 33.9318 30.7286 36.3156 30.7286C36.5625 30.7286 36.7994 30.8267 36.974 31.0014C37.1486 31.176 37.2468 31.4129 37.2468 31.6598V38.178C37.2468 38.425 37.1486 38.6618 36.974 38.8364C36.7994 39.0111 36.5625 39.1092 36.3156 39.1092C19.3683 39.1092 5.58695 25.3279 5.58695 8.38055C5.58695 8.13359 5.68506 7.89674 5.85968 7.72211C6.03431 7.54748 6.27116 7.44938 6.51812 7.44938Z" fill="white"/>
</svg>
