<svg width="50" height="66" viewBox="0 0 50 66" fill="none" xmlns="http://www.w3.org/2000/svg">
<rect x="1.5" y="58.5" width="47" height="7" rx="3.5" stroke="#3F6A45"/>
<rect x="1.5" y="58.5" width="21" height="7" rx="3.5" fill="#3F6A45"/>
<rect x="1.5" y="58.5" width="21" height="7" rx="3.5" stroke="#3F6A45"/>
<path d="M25.0001 4.16675C13.5209 4.16675 4.16675 13.5209 4.16675 25.0001C4.16675 36.4793 13.5209 45.8334 25.0001 45.8334C36.4793 45.8334 45.8334 36.4793 45.8334 25.0001C45.8334 13.5209 36.4793 4.16675 25.0001 4.16675ZM6.27091 25.0001C6.27091 22.2917 6.85425 19.7084 7.89592 17.3751L16.8334 41.8543C10.5834 38.8126 6.27091 32.4167 6.27091 25.0001ZM25.0001 43.7293C23.1667 43.7293 21.3959 43.4584 19.7084 42.9584L25.3334 26.6251L31.0834 42.3959C31.1251 42.4793 31.1667 42.5834 31.2084 42.6459C29.2709 43.3542 27.1876 43.7293 25.0001 43.7293ZM27.5834 16.2084C28.7084 16.1459 29.7293 16.0209 29.7293 16.0209C30.7293 15.8959 30.6251 14.4167 29.6042 14.4792C29.6042 14.4792 26.5626 14.7084 24.6042 14.7084C22.7709 14.7084 19.6667 14.4792 19.6667 14.4792C18.6667 14.4376 18.5417 15.9792 19.5626 16.0417C19.5626 16.0417 20.5209 16.1667 21.5209 16.2292L24.4376 24.2292L20.3334 36.5209L13.5209 16.2084C14.6459 16.1667 15.6667 16.0417 15.6667 16.0417C16.6667 15.9167 16.5626 14.4376 15.5417 14.5001C15.5417 14.5001 12.5001 14.7292 10.5417 14.7292C10.1876 14.7292 9.77092 14.7292 9.33342 14.7084C12.7084 9.62508 18.4584 6.27091 25.0001 6.27091C29.8751 6.27091 34.3126 8.12508 37.6459 11.1876C37.5626 11.1876 37.4793 11.1667 37.3959 11.1667C35.5626 11.1667 34.2501 12.7709 34.2501 14.5001C34.2501 16.0417 35.1459 17.3542 36.0834 18.8959C36.7917 20.1459 37.6251 21.7501 37.6251 24.0626C37.6251 25.6667 37.0001 27.5209 36.2084 30.1251L34.3334 36.3751L27.5834 16.2084ZM41.4376 16.0209C43.7765 20.3037 44.3516 25.3303 43.0403 30.0307C41.729 34.7311 38.635 38.7341 34.4168 41.1876L40.1459 24.6459C41.2084 21.9792 41.5626 19.8334 41.5626 17.9376C41.5626 17.2501 41.5209 16.6042 41.4376 16.0209Z" fill="#3F6A45"/>
</svg>
