<svg width="50" height="50" viewBox="0 0 50 50" fill="none" xmlns="http://www.w3.org/2000/svg">
<path d="M25 4.16675C13.5209 4.16675 4.16669 13.5209 4.16669 25.0001C4.16669 36.4793 13.5209 45.8334 25 45.8334C36.4792 45.8334 45.8334 36.4793 45.8334 25.0001C45.8334 13.5209 36.4792 4.16675 25 4.16675ZM6.27085 25.0001C6.27085 22.2917 6.85419 19.7084 7.89585 17.3751L16.8334 41.8543C10.5834 38.8126 6.27085 32.4167 6.27085 25.0001ZM25 43.7293C23.1667 43.7293 21.3959 43.4584 19.7084 42.9584L25.3334 26.6251L31.0834 42.3959C31.125 42.4793 31.1667 42.5834 31.2084 42.6459C29.2709 43.3542 27.1875 43.7293 25 43.7293ZM27.5834 16.2084C28.7084 16.1459 29.7292 16.0209 29.7292 16.0209C30.7292 15.8959 30.625 14.4167 29.6042 14.4792C29.6042 14.4792 26.5625 14.7084 24.6042 14.7084C22.7709 14.7084 19.6667 14.4792 19.6667 14.4792C18.6667 14.4376 18.5417 15.9792 19.5625 16.0417C19.5625 16.0417 20.5209 16.1667 21.5209 16.2292L24.4375 24.2292L20.3334 36.5209L13.5209 16.2084C14.6459 16.1667 15.6667 16.0417 15.6667 16.0417C16.6667 15.9167 16.5625 14.4376 15.5417 14.5001C15.5417 14.5001 12.5 14.7292 10.5417 14.7292C10.1875 14.7292 9.77085 14.7292 9.33335 14.7084C12.7084 9.62508 18.4584 6.27091 25 6.27091C29.875 6.27091 34.3125 8.12508 37.6459 11.1876C37.5625 11.1876 37.4792 11.1667 37.3959 11.1667C35.5625 11.1667 34.25 12.7709 34.25 14.5001C34.25 16.0417 35.1459 17.3542 36.0834 18.8959C36.7917 20.1459 37.625 21.7501 37.625 24.0626C37.625 25.6667 37 27.5209 36.2084 30.1251L34.3334 36.3751L27.5834 16.2084ZM41.4375 16.0209C43.7765 20.3037 44.3515 25.3303 43.0402 30.0307C41.7289 34.7311 38.6349 38.7341 34.4167 41.1876L40.1459 24.6459C41.2084 21.9792 41.5625 19.8334 41.5625 17.9376C41.5625 17.2501 41.5209 16.6042 41.4375 16.0209Z" fill="#3F6A45"/>
</svg>
