<svg width="153" height="270" viewBox="0 0 153 270" fill="none" xmlns="http://www.w3.org/2000/svg">
<g id="Frame 153">
<g id="right-branch">
<path id="Vector" d="M58.5541 8.08789C66.4177 12.823 70.7663 19.4815 73.0661 23.0919C79.8752 33.7656 81.4017 44.2706 81.9942 48.7133C83.8923 62.8737 80.9698 74.0873 79.2023 80.5883C75.1751 95.4348 71.6601 94.0064 67.4823 109.966C66.6989 112.969 63.9572 123.969 63.5756 138.793C63.435 144.113 63.666 147.802 64.138 154.967C65.7448 179.745 68.2154 183.04 68.0447 197.471" stroke="#536B1B" stroke-width="2" stroke-miterlimit="10"/>
<g id="leaf">
<path id="Vector_2" d="M40.2362 181.93C40.2463 181.941 41.5719 179.511 44.2232 178.747C45.8602 178.274 47.0754 178.837 49.8974 179.871C55.0494 181.75 57.6305 182.683 59.5085 182.481C60.111 182.413 64.3291 181.873 66.1669 178.173C67.3921 175.71 66.9402 173.078 66.659 171.447C66.428 170.097 65.8455 166.982 63.3348 164.463C62.9833 164.114 60.0307 161.246 55.9834 161.572C55.2503 161.628 52.6592 161.943 48.5417 166.296C42.1946 173.011 40.2362 181.93 40.2463 181.941L40.2362 181.93Z" fill="#A4B758" stroke="#536B1B" stroke-miterlimit="10"/>
<g id="Vector_3">
<path d="M62.8629 169.794C61.3163 169.535 59.2977 169.4 57.0079 169.738C52.579 170.39 49.3754 172.482 47.6379 173.843" fill="#A4B758"/>
<path d="M62.8629 169.794C61.3163 169.535 59.2977 169.4 57.0079 169.738C52.579 170.39 49.3754 172.482 47.6379 173.843" stroke="#536B1B" stroke-miterlimit="10"/>
</g>
<g id="Vector_4">
<path d="M56.305 176.902C56.8373 175.732 58.1228 173.247 59.3982 171.773C60.1815 170.862 60.9649 170.154 61.6578 169.603" fill="#A4B758"/>
<path d="M56.305 176.902C56.8373 175.732 58.1228 173.247 59.3982 171.773C60.1815 170.862 60.9649 170.154 61.6578 169.603" stroke="#536B1B" stroke-miterlimit="10"/>
</g>
<g id="Vector_5">
<path d="M57.0381 169.704C56.0639 168.916 53.8545 167.342 52.097 166.644Z" fill="#A4B758"/>
<path d="M57.0381 169.704C56.0639 168.916 53.8545 167.342 52.097 166.644" stroke="#536B1B" stroke-miterlimit="10"/>
</g>
</g>
<g id="leaf_2">
<path id="Vector_6" d="M101.708 143.303C101.056 143.123 102.693 138.827 100.513 134.519C99.1574 131.853 97.2292 130.92 93.0112 128.4C85.3284 123.811 81.482 121.517 79.5939 118.84C78.9913 117.985 68.597 107.435 70.3243 100.867C71.4793 96.4916 72.8049 93.2524 74.7934 91.7789C76.4304 90.553 79.3629 87.8199 84.6957 88.7647C86.7846 89.1358 95.5018 95.1532 99.6897 100.788C100.443 101.8 105.474 107.998 105.625 118.266C105.856 134.103 102.853 143.629 101.718 143.303H101.708Z" fill="#668124" stroke="#536B1B" stroke-miterlimit="10"/>
<path id="Vector_7" d="M76.2696 98.1113C78.5493 99.3373 81.3513 101.182 84.1633 103.96C89.5864 109.314 97.1889 120.359 98.4543 123.946" stroke="#536B1B" stroke-miterlimit="10"/>
<path id="Vector_8" d="M84.8764 116.962C84.8061 114.735 84.8563 109.752 83.3499 106.378C82.5264 104.545 80.6685 101.868 80.1663 100.428" stroke="#536B1B" stroke-miterlimit="10"/>
<path id="Vector_9" d="M78.5596 99.3259C80.4879 99.2584 88.1405 100.687 91.0429 101.53" stroke="#536B1B" stroke-miterlimit="10"/>
<path id="Vector_10" d="M87.6382 107.784C89.9079 107.986 94.9896 111.867 97.8919 112.71" stroke="#536B1B" stroke-miterlimit="10"/>
</g>
<g id="leaf_3">
<path id="Vector_11" d="M44.4038 106.817C44.7753 107.064 45.86 102.981 48.6519 101.125C50.3793 99.967 51.6447 100.417 54.5872 101.047C59.9602 102.194 62.6416 102.756 64.62 101.913C65.2527 101.643 74.3616 100.023 76.3602 94.2308C77.6959 90.373 78.4692 87.2462 78.2081 85.008C77.9972 83.1634 77.1636 80.7228 74.3817 78.3046C73.287 77.3486 67.5325 75.4028 63.2844 77.0561C62.5211 77.3598 57.6503 78.9232 53.2415 86.3239C46.4425 97.7175 43.751 106.4 44.3937 106.828L44.4038 106.817Z" fill="#7D9247" stroke="#536B1B" stroke-miterlimit="10"/>
<g id="Vector_12">
<path d="M74.5625 86.3351C73.1465 86.1551 71.2383 86.1776 68.8782 86.875C64.3288 88.2021 56.2343 92.6336 54.0449 94.6244" fill="#7D9247"/>
<path d="M74.5625 86.3351C73.1465 86.1551 71.2383 86.1776 68.8782 86.875C64.3288 88.2021 56.2343 92.6336 54.0449 94.6244" stroke="#536B1B" stroke-miterlimit="10"/>
</g>
<g id="Vector_13">
<path d="M61.9988 96.9868C62.2298 95.266 63.7061 92.2742 65.1222 90.2834C65.8955 89.1924 67.3818 87.8877 67.904 86.9767" fill="#7D9247"/>
<path d="M61.9988 96.9868C62.2298 95.266 63.7061 92.2742 65.1222 90.2834C65.8955 89.1924 67.3818 87.8877 67.904 86.9767" stroke="#536B1B" stroke-miterlimit="10"/>
</g>
<g id="Vector_14">
<path d="M71.9413 86.1778C70.8668 85.3117 66.2169 83.3209 64.3891 82.8148Z" fill="#7D9247"/>
<path d="M71.9413 86.1778C70.8668 85.3117 66.2169 83.3209 64.3891 82.8148" stroke="#536B1B" stroke-miterlimit="10"/>
</g>
<g id="Vector_15">
<path d="M63.6359 89.1021C62.3705 88.8097 57.5098 89.1696 55.692 89.5745Z" fill="#7D9247"/>
<path d="M63.6359 89.1021C62.3705 88.8097 57.5098 89.1696 55.692 89.5745" stroke="#536B1B" stroke-miterlimit="10"/>
</g>
</g>
<g id="leaf_4">
<path id="Vector_16" d="M82.3613 173.909C81.9295 173.887 83.0744 169.826 81.6985 166.52C80.8449 164.473 79.5795 164.056 76.8277 162.729C71.8063 160.3 69.2956 159.085 68.0904 157.15C67.6987 156.532 60.97 149.469 62.2153 143.417C63.0389 139.38 63.9628 136.309 65.2985 134.622C66.4032 133.227 68.3114 131.731 71.8264 131.473C73.2022 131.372 78.9468 133.362 81.6382 137.4C82.1203 138.131 85.3642 142.484 85.3139 151.381C85.2436 165.091 83.1145 173.954 82.3714 173.909H82.3613Z" fill="#668124" stroke="#536B1B" stroke-miterlimit="10"/>
<path id="Vector_17" d="M67.6485 138.019C68.9039 138.761 70.4806 139.976 72.0874 142.034C75.1907 145.993 79.6698 154.732 80.4833 157.769" stroke="#536B1B" stroke-miterlimit="10"/>
<path id="Vector_18" d="M72.72 154.721C73.3929 153.147 73.6641 149.739 73.4933 147.208C73.403 145.824 72.8205 143.8 72.8406 142.72" stroke="#536B1B" stroke-miterlimit="10"/>
<path id="Vector_19" d="M69.8981 139.526C71.2237 139.492 76.0644 140.752 77.8319 141.494" stroke="#536B1B" stroke-miterlimit="10"/>
<path id="Vector_20" d="M75.311 147.174C76.5061 147.725 80.3525 151.077 81.648 152.55" stroke="#536B1B" stroke-miterlimit="10"/>
</g>
<g id="leaf_5">
<path id="Vector_21" d="M35.4455 54.9552C35.9276 54.8314 35.8372 51.1423 38.7396 48.1168C41.642 45.0912 44.5243 45.0912 48.0393 43.7078C55.0291 40.9747 59.1668 38.849 60.8339 36.5433C61.3662 35.8009 68.9083 27.8828 68.5167 21.7305C68.2556 17.6252 66.709 13.0588 65.4938 11.5404C64.4995 10.292 62.7621 8.14371 58.9057 8.00874C51.7752 7.7613 45.5085 12.8114 41.8529 17.6477C41.19 18.525 36.4598 22.5516 35.0538 31.9656C32.8846 46.4634 34.6019 55.1576 35.4455 54.9552Z" fill="#7D9247" stroke="#536B1B" stroke-miterlimit="10"/>
<g id="Vector_22">
<path d="M65.3732 14.7123C63.3546 15.6458 57.128 18.7726 54.0549 21.3482C48.1195 26.297 40.3463 33.9002 39.2617 39.344" fill="#7D9247"/>
<path d="M65.3732 14.7123C63.3546 15.6458 57.128 18.7726 54.0549 21.3482C48.1195 26.297 40.3463 33.9002 39.2617 39.344" stroke="#536B1B" stroke-miterlimit="10"/>
</g>
<g id="Vector_23">
<path d="M53.4222 32.4383C54.326 31.1673 55.1496 27.8381 55.4006 25.1725C55.5412 23.7216 55.3102 21.3821 55.5111 20.2911" fill="#7D9247"/>
<path d="M53.4222 32.4383C54.326 31.1673 55.1496 27.8381 55.4006 25.1725C55.5412 23.7216 55.3102 21.3821 55.5111 20.2911" stroke="#536B1B" stroke-miterlimit="10"/>
</g>
<g id="Vector_24">
<path d="M60.151 17.4678C58.8956 17.1304 53.6532 17.2766 51.6246 17.6028Z" fill="#7D9247"/>
<path d="M60.151 17.4678C58.8956 17.1304 53.6532 17.2766 51.6246 17.6028" stroke="#536B1B" stroke-miterlimit="10"/>
</g>
<g id="Vector_25">
<path d="M51.0118 24.2948C49.8167 24.1261 44.8053 24.3398 42.8469 24.5872Z" fill="#7D9247"/>
<path d="M51.0118 24.2948C49.8167 24.1261 44.8053 24.3398 42.8469 24.5872" stroke="#536B1B" stroke-miterlimit="10"/>
</g>
<g id="Vector_26">
<path d="M62.2097 16.2081C62.3704 17.5466 61.4364 22.9453 60.8037 25.0036Z" fill="#7D9247"/>
<path d="M62.2097 16.2081C62.3704 17.5466 61.4364 22.9453 60.8037 25.0036" stroke="#536B1B" stroke-miterlimit="10"/>
</g>
<g id="Vector_27">
<path d="M45.7092 37.578C46.2616 36.1496 47.1253 30.0423 47.2257 27.6466Z" fill="#7D9247"/>
<path d="M45.7092 37.578C46.2616 36.1496 47.1253 30.0423 47.2257 27.6466" stroke="#536B1B" stroke-miterlimit="10"/>
</g>
</g>
<g id="leaf_6">
<path id="Vector_28" d="M40.1957 82.7925C40.6878 82.815 41.9432 80.0257 44.9761 77.1688C48.0091 74.312 50.4596 73.0748 54.1855 72.7824C61.577 72.1975 73.0259 73.7722 75.5868 73.0186C78.5193 72.1638 84.053 67.4399 84.9869 61.3551C85.7904 56.1363 82.9181 49.6353 82.1046 47.8245C81.4318 46.3286 78.5294 44.1916 74.462 43.5843C67.3918 42.5383 61.3059 44.9002 56.6359 48.4881C55.7923 49.1405 49.8469 52.6946 46.2817 61.3551C40.7883 74.7057 39.3421 82.7363 40.2058 82.7925H40.1957Z" fill="#668124" stroke="#536B1B" stroke-miterlimit="10"/>
<path id="Vector_29" d="M81.4721 57.2385C79.2928 57.2385 72.4737 57.486 68.7478 58.5545C61.5772 60.6015 51.8155 64.3243 48.9533 68.902" stroke="#536B1B" stroke-miterlimit="10"/>
<path id="Vector_30" d="M67.4421 68.6094C68.6171 67.6534 70.1938 64.6728 71.0575 62.1872C71.5295 60.8262 71.8609 58.4981 72.3129 57.5195" stroke="#536B1B" stroke-miterlimit="10"/>
<path id="Vector_31" d="M80.317 57.2386C79.3228 55.9901 76.32 51.2775 71.178 49.894" stroke="#536B1B" stroke-miterlimit="10"/>
<path id="Vector_32" d="M67.1308 58.9482C65.6846 58.3521 61.336 56.2714 56.8469 56.2714" stroke="#536B1B" stroke-miterlimit="10"/>
<path id="Vector_33" d="M59.1869 67.946C60.2414 66.9337 63.425 61.8836 64.4493 59.7804" stroke="#536B1B" stroke-miterlimit="10"/>
</g>
<g id="leaf_7">
<path id="Vector_34" d="M91.9669 62.4122C91.756 62.176 92.3485 60.4214 92.228 57.7558C92.1075 55.0902 91.5953 53.3806 90.1993 51.4235C87.4074 47.5319 82.1248 42.5269 81.3716 40.9522C80.5079 39.1527 80.1163 34.4963 82.1248 31.5495C83.8522 29.0301 87.5882 27.7929 88.6326 27.4554C89.4963 27.1742 91.525 27.7366 93.4231 29.5024C96.7171 32.5617 98.2738 36.532 98.7659 40.3111C98.8563 40.9972 99.8806 45.3837 97.9223 50.6812C94.9094 58.8468 92.3384 62.8396 91.9669 62.4347V62.4122Z" fill="#A4B758" stroke="#536B1B" stroke-miterlimit="10"/>
<g id="Vector_35">
<path d="M85.188 31.5946C86.0718 32.6743 88.7633 36.1385 89.868 38.4105C91.987 42.7857 94.5078 49.1292 93.8751 52.4022" fill="#A4B758"/>
<path d="M85.188 31.5946C86.0718 32.6743 88.7633 36.1385 89.868 38.4105C91.987 42.7857 94.5078 49.1292 93.8751 52.4022" stroke="#536B1B" stroke-miterlimit="10"/>
</g>
<g id="Vector_36">
<path d="M86.4331 43.1568C86.3327 42.1895 86.855 40.1987 87.4877 38.7478C87.8291 37.9605 88.6125 36.847 88.8133 36.2172" fill="#A4B758"/>
<path d="M86.4331 43.1568C86.3327 42.1895 86.855 40.1987 87.4877 38.7478C87.8291 37.9605 88.6125 36.847 88.8133 36.2172" stroke="#536B1B" stroke-miterlimit="10"/>
</g>
<g id="Vector_37">
<path d="M85.66 32.168C86.5538 32.1455 89.6369 31.7069 92.2782 33.6864Z" fill="#A4B758"/>
<path d="M85.66 32.168C86.5538 32.1455 89.6369 31.7069 92.2782 33.6864" stroke="#536B1B" stroke-miterlimit="10"/>
</g>
<g id="Vector_38">
<path d="M90.3701 39.3777C91.1936 39.8501 93.7846 41.1435 95.6225 43.3592Z" fill="#A4B758"/>
<path d="M90.3701 39.3777C91.1936 39.8501 93.7846 41.1435 95.6225 43.3592" stroke="#536B1B" stroke-miterlimit="10"/>
</g>
<g id="Vector_39">
<path d="M90.0688 46.9696C90.0387 46.0361 90.7216 42.4032 91.1334 41.0422Z" fill="#A4B758"/>
<path d="M90.0688 46.9696C90.0387 46.0361 90.7216 42.4032 91.1334 41.0422" stroke="#536B1B" stroke-miterlimit="10"/>
</g>
</g>
<g id="leaf_8">
<path id="Vector_40" d="M69.0732 234.623C69.0596 234.618 71.2085 230.199 70.9908 225.151C70.8539 222.022 69.7425 220.572 67.4612 216.899C63.315 210.201 60.9002 206.043 59.7234 202.988C59.0436 201.214 53.7303 188.936 57.0793 182.507C59.3046 178.221 62.4623 176.277 64.381 175.235C65.9658 174.368 71.0966 173.057 74.9453 174.731C82.0655 177.822 84.816 184.913 86.0795 191.835C86.3113 193.083 89.0209 199.646 85.8736 210.412C81.0116 227.006 69.0732 234.623 69.0732 234.623Z" fill="#7D9247" stroke="#536B1B" stroke-miterlimit="10"/>
<g id="Vector_41">
<path d="M68.6789 175.465C69.7603 177.813 72.9169 185.282 73.8167 189.958C75.5458 198.957 77.0618 211.803 74.3902 217.804" fill="#7D9247"/>
<path d="M68.6789 175.465C69.7603 177.813 72.9169 185.282 73.8167 189.958C75.5458 198.957 77.0618 211.803 74.3902 217.804" stroke="#536B1B" stroke-miterlimit="10"/>
</g>
<g id="Vector_42">
<path d="M67.7966 203.799C69.1536 202.568 71.0645 198.968 72.1361 196.002C72.7254 194.384 73.2045 191.673 73.7505 190.481" fill="#7D9247"/>
<path d="M67.7966 203.799C69.1536 202.568 71.0645 198.968 72.1361 196.002C72.7254 194.384 73.2045 191.673 73.7505 190.481" stroke="#536B1B" stroke-miterlimit="10"/>
</g>
<g id="Vector_43">
<path d="M73.4109 188.581C74.7638 189.227 79.3756 193.447 80.9868 195.348Z" fill="#7D9247"/>
<path d="M73.4109 188.581C74.7638 189.227 79.3756 193.447 80.9868 195.348" stroke="#536B1B" stroke-miterlimit="10"/>
</g>
<g id="Vector_44">
<path d="M70.4367 179.175C69.4139 180.346 66.625 186.191 65.7996 188.635Z" fill="#7D9247"/>
<path d="M70.4367 179.175C69.4139 180.346 66.625 186.191 65.7996 188.635" stroke="#536B1B" stroke-miterlimit="10"/>
</g>
<g id="Vector_45">
<path d="M75.8102 205.42C76.8101 206.631 79.4859 212.571 80.2671 215.027Z" fill="#7D9247"/>
<path d="M75.8102 205.42C76.8101 206.631 79.4859 212.571 80.2671 215.027" stroke="#536B1B" stroke-miterlimit="10"/>
</g>
</g>
<g id="leaf_9">
<path id="Vector_46" d="M98.324 91.6215C98.1231 91.599 97.8017 89.2034 96.4861 87.2126C95.6726 85.9866 95.0098 85.7167 93.4933 84.8731C90.7115 83.3548 89.0343 82.365 87.9597 81.454C87.3371 80.9253 82.8579 77.4724 82.165 73.8957C81.703 71.5113 82.0646 69.8017 82.3156 68.8232C82.5265 68.0134 83.581 65.9889 85.0272 65.5502C87.7086 64.7404 90.2093 66.8324 92.2681 69.2731C92.6397 69.7117 94.9998 71.59 96.8276 76.8875C99.6396 85.0418 98.6755 91.6441 98.324 91.5991V91.6215Z" fill="#9BB574" stroke="#536B1B" stroke-miterlimit="10"/>
<g id="Vector_47">
<path d="M83.5006 67.6759C84.3743 68.317 87.0859 70.4427 88.4919 72.0849C91.1934 75.2454 94.8089 80.0367 95.5721 83.2535" fill="#9BB574"/>
<path d="M83.5006 67.6759C84.3743 68.317 87.0859 70.4427 88.4919 72.0849C91.1934 75.2454 94.8089 80.0367 95.5721 83.2535" stroke="#536B1B" stroke-miterlimit="10"/>
</g>
<g id="Vector_48">
<path d="M90.3097 79.4409C90.3699 78.5523 89.9883 76.539 89.5464 75.0207C89.3054 74.1884 88.7631 72.9511 88.6124 72.3213" fill="#9BB574"/>
<path d="M90.3097 79.4409C90.3699 78.5523 89.9883 76.539 89.5464 75.0207C89.3054 74.1884 88.7631 72.9511 88.6124 72.3213" stroke="#536B1B" stroke-miterlimit="10"/>
</g>
<g id="Vector_49">
<path d="M88.03 71.6801C88.5522 71.5452 90.842 71.9276 91.7559 72.2312Z" fill="#9BB574"/>
<path d="M88.03 71.6801C88.5522 71.5452 90.842 71.9276 91.7559 72.2312" stroke="#536B1B" stroke-miterlimit="10"/>
</g>
<g id="Vector_50">
<path d="M84.8765 68.6993C84.8865 69.4642 85.5995 72.6472 85.9812 73.8731Z" fill="#9BB574"/>
<path d="M84.8765 68.6993C84.8865 69.4642 85.5995 72.6472 85.9812 73.8731" stroke="#536B1B" stroke-miterlimit="10"/>
</g>
<g id="Vector_51">
<path d="M92.8907 77.7988C93.4632 78.0013 95.6726 79.6434 96.4961 80.4195Z" fill="#9BB574"/>
<path d="M92.8907 77.7988C93.4632 78.0013 95.6726 79.6434 96.4961 80.4195" stroke="#536B1B" stroke-miterlimit="10"/>
</g>
</g>
<g id="leaf_10">
<path id="Vector_52" d="M36.3694 164.358C36.751 164.313 37.0724 160.006 39.3521 156.407C40.7682 154.18 42.0034 153.673 44.8355 152.133C50.0076 149.321 53.1209 147.499 55.0792 145.857C56.2141 144.901 64.4191 138.58 65.3029 132.135C65.8954 127.838 64.9715 124.79 64.3588 123.036C63.8467 121.585 61.5569 117.986 58.7047 117.243C53.4222 115.871 48.8627 119.684 45.2071 124.127C44.5443 124.925 40.2359 128.367 37.3837 137.916C32.9849 152.627 35.7065 164.448 36.3794 164.358H36.3694Z" fill="#A4B758" stroke="#536B1B" stroke-miterlimit="10"/>
<g id="Vector_53">
<path d="M61.9185 120.988C60.3116 122.169 55.3504 126.05 52.8497 129.03C48.0292 134.778 41.6821 143.472 40.6075 149.275" fill="#A4B758"/>
<path d="M61.9185 120.988C60.3116 122.169 55.3504 126.05 52.8497 129.03C48.0292 134.778 41.6821 143.472 40.6075 149.275" stroke="#536B1B" stroke-miterlimit="10"/>
</g>
<g id="Vector_54">
<path d="M50.2788 142.291C50.0478 140.694 50.5299 137.073 51.1927 134.339C51.5543 132.844 52.4481 130.617 52.659 129.458" fill="#A4B758"/>
<path d="M50.2788 142.291C50.0478 140.694 50.5299 137.073 51.1927 134.339C51.5543 132.844 52.4481 130.617 52.659 129.458" stroke="#536B1B" stroke-miterlimit="10"/>
</g>
<g id="Vector_55">
<path d="M53.6833 128.299C52.659 128.086 48.2803 128.828 46.573 129.39Z" fill="#A4B758"/>
<path d="M53.6833 128.299C52.659 128.086 48.2803 128.828 46.573 129.39" stroke="#536B1B" stroke-miterlimit="10"/>
</g>
<g id="Vector_56">
<path d="M59.3978 122.878C59.4681 124.262 58.514 129.975 57.9315 132.191Z" fill="#A4B758"/>
<path d="M59.3978 122.878C59.4681 124.262 58.514 129.975 57.9315 132.191" stroke="#536B1B" stroke-miterlimit="10"/>
</g>
<g id="Vector_57">
<path d="M45.0866 139.423C44.012 139.794 39.9547 142.809 38.4683 144.214Z" fill="#A4B758"/>
<path d="M45.0866 139.423C44.012 139.794 39.9547 142.809 38.4683 144.214" stroke="#536B1B" stroke-miterlimit="10"/>
</g>
</g>
<g id="leaf_11">
<path id="Vector_58" d="M120.097 53.5157C119.605 53.6957 113.901 46.1037 110.084 43.4269C107.724 41.7735 105.957 40.7725 101.99 40.7837C94.7488 40.8062 92.5393 40.0077 89.6369 39.3441C87.9497 38.9617 75.9786 36.8809 73.1666 30.0988C71.2886 25.5773 71.6401 21.5283 71.9514 19.1438C72.2126 17.1756 73.1466 13.8126 76.541 11.1807C82.8178 6.31062 90.4203 8.24516 96.7674 10.5509C97.852 10.9445 103.185 11.7993 111.038 21.2021C121.734 34.0016 120.951 53.1783 120.087 53.5045L120.097 53.5157Z" fill="#668124" stroke="#536B1B" stroke-miterlimit="10"/>
<path id="Vector_59" d="M75.587 22.1242C77.937 22.0455 85.2884 22.0455 89.4361 23.1477C97.4202 25.2847 108.407 29.3112 112.103 34.6425" stroke="#536B1B" stroke-miterlimit="10"/>
<path id="Vector_60" d="M100.574 18.1202C98.8263 17.9177 95.1907 18.93 92.5394 20.1559C91.0933 20.8195 89.0345 22.3492 87.8896 22.7541" stroke="#536B1B" stroke-miterlimit="10"/>
<path id="Vector_61" d="M80.6287 22.473C81.5124 21.157 86.2828 17.1867 88.3115 15.9045" stroke="#536B1B" stroke-miterlimit="10"/>
<path id="Vector_62" d="M79.9256 21.7305C80.4679 23.2601 84.1436 28.4901 85.8007 30.3234" stroke="#536B1B" stroke-miterlimit="10"/>
<path id="Vector_63" d="M100.513 27.118C101.869 26.4769 107.764 25.7234 110.094 25.7459" stroke="#536B1B" stroke-miterlimit="10"/>
<path id="Vector_64" d="M98.4244 26.106C98.9165 27.6581 102.391 33.0456 103.988 34.9576" stroke="#536B1B" stroke-miterlimit="10"/>
<path id="Vector_65" d="M86.9656 22.6305C87.4577 24.1826 90.9325 29.5701 92.5293 31.4822" stroke="#536B1B" stroke-miterlimit="10"/>
</g>
</g>
</g>
</svg>
