<svg width="240" height="446" viewBox="0 0 240 446" fill="none" xmlns="http://www.w3.org/2000/svg">
<g id="Frame 152">
<g id="left-branch">
<path id="Vector" d="M215 71.0375C212.241 71.7145 202.5 68.3428 179 61.9557C157 55.9763 148.975 58.1873 132.819 61.9557C115.25 66.069 112.993 63.3992 103.476 68.3428C93.1406 73.7208 87.4251 81.2833 84.4024 85.3838C75.4531 97.5066 73.4467 109.438 72.6679 114.484C70.1732 130.567 74.0143 143.303 76.3374 150.686C81.6305 167.548 86.2504 165.926 91.7414 184.053C92.771 187.463 96.3745 199.957 96.8761 216.793C97.0609 222.835 96.7573 227.025 96.1369 235.163C94.025 263.304 90.7778 267.047 91.0022 283.437C91.121 291.983 91.3322 301.525 95.3977 313.252C100.73 328.607 109.601 338.852 114.432 343.77C128.964 358.563 145.424 364.285 153.344 366.483" stroke="#536B1B" stroke-width="2" stroke-miterlimit="10"/>
<g id="leaf">
<path id="Vector_2" d="M181.974 377.749C181.961 377.762 180.219 375.003 176.734 374.134C174.582 373.598 172.985 374.237 169.276 375.412C162.505 377.545 159.112 378.605 156.644 378.375C155.852 378.299 150.308 377.686 147.893 373.483C146.282 370.685 146.876 367.696 147.246 365.844C147.55 364.311 148.315 360.772 151.615 357.911C152.077 357.515 155.958 354.257 161.277 354.628C162.241 354.692 165.646 355.05 171.058 359.993C179.4 367.619 181.974 377.749 181.961 377.762L181.974 377.749Z" fill="#A4B758" stroke="#536B1B" stroke-miterlimit="10"/>
<g id="Vector_3">
<path d="M152.235 363.966C154.268 363.672 156.921 363.519 159.931 363.902C165.752 364.643 169.963 367.019 172.246 368.565" fill="#A4B758"/>
<path d="M152.235 363.966C154.268 363.672 156.921 363.519 159.931 363.902C165.752 364.643 169.963 367.019 172.246 368.565" stroke="#536B1B" stroke-miterlimit="10"/>
</g>
<g id="Vector_4">
<path d="M160.855 372.039C160.155 370.711 158.466 367.888 156.789 366.214C155.76 365.179 154.73 364.375 153.819 363.749" fill="#A4B758"/>
<path d="M160.855 372.039C160.155 370.711 158.466 367.888 156.789 366.214C155.76 365.179 154.73 364.375 153.819 363.749" stroke="#536B1B" stroke-miterlimit="10"/>
</g>
<g id="Vector_5">
<path d="M159.891 363.864C161.172 362.97 164.075 361.181 166.385 360.389Z" fill="#A4B758"/>
<path d="M159.891 363.864C161.172 362.97 164.075 361.181 166.385 360.389" stroke="#536B1B" stroke-miterlimit="10"/>
</g>
</g>
<g id="leaf_2">
<path id="Vector_6" d="M46.7571 221.916C47.6151 221.711 45.4636 216.831 48.3279 211.939C50.1099 208.911 52.6442 207.851 58.188 204.99C68.2858 199.778 73.3412 197.172 75.8228 194.132C76.6147 193.161 90.2764 181.178 88.006 173.718C86.4881 168.749 84.7457 165.07 82.1322 163.397C79.9807 162.004 76.1264 158.9 69.1173 159.973C66.3718 160.395 54.9145 167.229 49.4103 173.629C48.4203 174.778 41.8073 181.817 41.6093 193.48C41.3057 211.466 45.2524 222.286 46.744 221.916H46.7571Z" fill="#668124" stroke="#536B1B" stroke-miterlimit="10"/>
<path id="Vector_7" d="M80.1919 170.589C77.1955 171.981 73.5128 174.076 69.8169 177.231C62.6891 183.312 52.697 195.856 51.0339 199.931" stroke="#536B1B" stroke-miterlimit="10"/>
<path id="Vector_8" d="M68.8797 191.998C68.9721 189.469 68.9061 183.81 70.8861 179.978C71.9685 177.895 74.4104 174.855 75.0704 173.22" stroke="#536B1B" stroke-miterlimit="10"/>
<path id="Vector_9" d="M77.1823 171.968C74.648 171.891 64.5899 173.514 60.7752 174.472" stroke="#536B1B" stroke-miterlimit="10"/>
<path id="Vector_10" d="M65.2498 181.574C62.2667 181.804 55.5877 186.211 51.773 187.169" stroke="#536B1B" stroke-miterlimit="10"/>
</g>
<g id="leaf_3">
<path id="Vector_11" d="M183.49 92.4301C183.952 92.487 184.071 89.6536 186.61 87.7429C188.186 86.5623 189.658 86.5026 193.007 86.1017C199.106 85.3713 202.159 85.0073 204.074 83.9499C204.686 83.6122 214.106 80.1636 214.779 76.0207C215.225 73.26 215.257 71.1016 214.395 69.7825C213.688 68.6893 212.567 66.4265 208.936 65.6638C207.513 65.3656 200.375 66.6536 196.207 68.8276C195.458 69.2179 190.605 71.5052 187.746 77.288C183.339 86.2064 182.678 92.3362 183.484 92.4277L183.49 92.4301Z" fill="#668124" stroke="#536B1B" stroke-miterlimit="10"/>
<path id="Vector_12" d="M211.757 73.0391C209.977 73.1793 207.698 73.5436 205.161 74.4362C200.269 76.1552 192.455 80.5771 190.681 82.3076" stroke="#536B1B" stroke-miterlimit="10"/>
<path id="Vector_13" d="M201.287 81.6852C201.924 80.4481 203.217 77.6302 205.057 76.0945C206.06 75.2614 207.935 74.2034 208.632 73.5142" stroke="#536B1B" stroke-miterlimit="10"/>
<path id="Vector_14" d="M209.959 73.3145C208.734 72.7923 203.407 71.7087 201.303 71.4737" stroke="#536B1B" stroke-miterlimit="10"/>
<path id="Vector_15" d="M201.883 75.7106C200.372 75.2663 196.056 76.2426 193.964 76.0107" stroke="#536B1B" stroke-miterlimit="10"/>
</g>
<g id="leaf_4">
<path id="Vector_16" d="M103.595 375.373C104.043 375.105 100.783 371.758 100.625 367.722C100.532 365.218 101.681 364.081 103.991 361.207C108.188 355.944 110.287 353.325 110.63 350.719C110.736 349.889 114.471 339.094 110.115 333.844C107.211 330.344 104.69 327.84 102.407 326.946C100.532 326.205 97.7208 325.822 93.8005 327.572C92.2693 328.262 87.0687 333.512 86.1843 339.018C86.0259 340.014 84.7059 346.158 89.1938 354.883C96.1104 368.335 102.816 375.859 103.595 375.386V375.373Z" fill="#A4B758" stroke="#536B1B" stroke-miterlimit="10"/>
<g id="Vector_17">
<path d="M101.549 331.621C100.559 333.078 99.4763 335.173 98.7767 338.111C97.4172 343.782 96.942 354.947 97.5756 358.396" fill="#A4B758"/>
<path d="M101.549 331.621C100.559 333.078 99.4763 335.173 98.7767 338.111C97.4172 343.782 96.942 354.947 97.5756 358.396" stroke="#536B1B" stroke-miterlimit="10"/>
</g>
<g id="Vector_18">
<path d="M104.413 350.974C102.908 349.812 100.915 346.618 99.8327 344.025C99.2387 342.607 98.8559 340.282 98.3016 339.235" fill="#A4B758"/>
<path d="M104.413 350.974C102.908 349.812 100.915 346.618 99.8327 344.025C99.2387 342.607 98.8559 340.282 98.3016 339.235" stroke="#536B1B" stroke-miterlimit="10"/>
</g>
<g id="Vector_19">
<path d="M99.8855 334.406C98.4467 335.121 93.8533 339.145 92.3089 340.883Z" fill="#A4B758"/>
<path d="M99.8855 334.406C98.4467 335.121 93.8533 339.145 92.3089 340.883" stroke="#536B1B" stroke-miterlimit="10"/>
</g>
<g id="Vector_20">
<path d="M97.866 345.022C96.8628 346.248 94.3813 351.741 93.7213 353.938Z" fill="#A4B758"/>
<path d="M97.866 345.022C96.8628 346.248 94.3813 351.741 93.7213 353.938" stroke="#536B1B" stroke-miterlimit="10"/>
</g>
</g>
<g id="leaf_5">
<path id="Vector_21" d="M122.074 180.476C121.586 180.757 120.16 176.119 116.491 174.012C114.22 172.696 112.557 173.207 108.69 173.922C101.628 175.225 98.1037 175.864 95.5034 174.906C94.6718 174.599 82.6997 172.76 80.073 166.181C78.3174 161.799 77.301 158.248 77.6442 155.706C77.9214 153.611 79.017 150.839 82.6733 148.093C84.1121 147.007 91.6754 144.797 97.2589 146.675C98.2621 147.02 104.664 148.795 110.459 157.201C119.395 170.141 122.932 180.003 122.087 180.488L122.074 180.476Z" fill="#7D9247" stroke="#536B1B" stroke-miterlimit="10"/>
<g id="Vector_22">
<path d="M82.4357 157.213C84.2969 157.009 86.8048 157.035 89.9067 157.827C95.8861 159.334 106.525 164.367 109.403 166.628" fill="#7D9247"/>
<path d="M82.4357 157.213C84.2969 157.009 86.8048 157.035 89.9067 157.827C95.8861 159.334 106.525 164.367 109.403 166.628" stroke="#536B1B" stroke-miterlimit="10"/>
</g>
<g id="Vector_23">
<path d="M98.9485 169.311C98.6449 167.356 96.7045 163.958 94.8434 161.697C93.827 160.458 91.8735 158.976 91.1871 157.942" fill="#7D9247"/>
<path d="M98.9485 169.311C98.6449 167.356 96.7045 163.958 94.8434 161.697C93.827 160.458 91.8735 158.976 91.1871 157.942" stroke="#536B1B" stroke-miterlimit="10"/>
</g>
<g id="Vector_24">
<path d="M85.8808 157.035C87.2932 156.051 93.4046 153.79 95.8069 153.215Z" fill="#7D9247"/>
<path d="M85.8808 157.035C87.2932 156.051 93.4046 153.79 95.8069 153.215" stroke="#536B1B" stroke-miterlimit="10"/>
</g>
<g id="Vector_25">
<path d="M96.7969 160.356C98.4601 160.024 104.849 160.433 107.238 160.892Z" fill="#7D9247"/>
<path d="M96.7969 160.356C98.4601 160.024 104.849 160.433 107.238 160.892" stroke="#536B1B" stroke-miterlimit="10"/>
</g>
</g>
<g id="leaf_6">
<path id="Vector_26" d="M69.5264 244.628C70.0939 244.603 68.5892 239.991 70.3975 236.235C71.5195 233.911 73.1826 233.438 76.7994 231.931C83.3992 229.171 86.6991 227.792 88.2831 225.594C88.7978 224.892 97.6416 216.87 96.0048 209.997C94.9225 205.411 93.7081 201.924 91.9526 200.008C90.5006 198.423 87.9927 196.724 83.3728 196.431C81.5644 196.316 74.0142 198.577 70.4767 203.163C69.8431 203.993 65.5797 208.937 65.6457 219.041C65.7381 234.613 68.5364 244.679 69.5132 244.628H69.5264Z" fill="#668124" stroke="#536B1B" stroke-miterlimit="10"/>
<path id="Vector_27" d="M88.8638 203.865C87.2139 204.708 85.1415 206.088 83.0296 208.426C78.9509 212.922 73.0639 222.848 71.9947 226.297" stroke="#536B1B" stroke-miterlimit="10"/>
<path id="Vector_28" d="M82.198 222.835C81.3137 221.047 80.9573 217.176 81.1817 214.302C81.3004 212.731 82.066 210.431 82.0396 209.205" stroke="#536B1B" stroke-miterlimit="10"/>
<path id="Vector_29" d="M85.9071 205.577C84.1648 205.539 77.8025 206.969 75.4794 207.813" stroke="#536B1B" stroke-miterlimit="10"/>
<path id="Vector_30" d="M78.7925 214.264C77.2218 214.89 72.1663 218.696 70.4635 220.37" stroke="#536B1B" stroke-miterlimit="10"/>
</g>
<g id="leaf_7">
<path id="Vector_31" d="M153.584 113.556C154.31 113.492 152.356 105.815 155.366 102.11C157.227 99.8109 159.431 96.7579 164.394 93.4621C172.248 88.2374 174.228 87.6881 176.683 85.4781C177.462 84.7628 187.758 76.204 186.886 69.7019C186.306 65.3714 185.368 62.1011 183.454 60.3638C181.87 58.9331 179.125 55.8545 173.211 55.8545C170.888 55.8545 160.566 60.0828 155.181 64.7071C154.204 65.5374 148.449 70.6727 146.099 80.2407C141.598 98.5335 152.29 113.671 153.57 113.556H153.584Z" fill="#A4B758" stroke="#536B1B" stroke-miterlimit="10"/>
<g id="Vector_32">
<path d="M181.052 60.8109C178.254 62.3438 174.835 64.5921 171.509 67.8368C165.12 74.0834 156.58 86.5895 155.366 90.5368" fill="#A4B758"/>
<path d="M181.052 60.8109C178.254 62.3438 174.835 64.5921 171.509 67.8368C165.12 74.0834 156.58 86.5895 155.366 90.5368" stroke="#536B1B" stroke-miterlimit="10"/>
</g>
<g id="Vector_33">
<path d="M165.807 86.219C165.226 84.3156 165.767 79.9085 166.757 76.5488C167.298 74.7093 168.75 71.9245 169.027 70.5066" fill="#A4B758"/>
<path d="M165.807 86.219C165.226 84.3156 165.767 79.9085 166.757 76.5488C167.298 74.7093 168.75 71.9245 169.027 70.5066" stroke="#536B1B" stroke-miterlimit="10"/>
</g>
<g id="Vector_34">
<path d="M174.901 64.9243C172.802 65.0648 164.619 67.2492 161.543 68.3606Z" fill="#A4B758"/>
<path d="M174.901 64.9243C172.802 65.0648 164.619 67.2492 161.543 68.3606" stroke="#536B1B" stroke-miterlimit="10"/>
</g>
<g id="Vector_35">
<path d="M163.853 76.6C162.216 76.7788 156.197 79.0143 153.993 80.1385Z" fill="#A4B758"/>
<path d="M163.853 76.6C162.216 76.7788 156.197 79.0143 153.993 80.1385" stroke="#536B1B" stroke-miterlimit="10"/>
</g>
</g>
<g id="leaf_8">
<path id="Vector_36" d="M72.0738 298.868C72.7338 298.689 71.3083 293.158 73.6974 287.921C75.1758 284.676 77.1557 283.667 81.4852 280.844C89.3786 275.708 93.3253 273.141 95.3448 269.922C95.9916 268.887 106.881 256.483 105.482 248.078C104.545 242.482 103.383 238.318 101.469 236.287C99.8987 234.613 97.1664 231.739 91.7413 231.688C81.7096 231.586 73.6314 238.701 69.1699 245.433C68.3647 246.647 62.2797 252.319 61.6329 265.221C60.6165 285.11 70.9255 299.149 72.0738 298.843V298.868Z" fill="#7D9247" stroke="#536B1B" stroke-miterlimit="10"/>
<g id="Vector_37">
<path d="M97.4568 236.351C95.1468 238.331 88.1114 244.756 85.0491 249.278C79.1356 258.003 71.8758 270.931 72.6414 278.557" fill="#7D9247"/>
<path d="M97.4568 236.351C95.1468 238.331 88.1114 244.756 85.0491 249.278C79.1356 258.003 71.8758 270.931 72.6414 278.557" stroke="#536B1B" stroke-miterlimit="10"/>
</g>
<g id="Vector_38">
<path d="M86.6067 266.779C85.4583 264.837 84.6399 260.136 84.5607 256.483C84.5211 254.49 85.0755 251.399 84.9039 249.891" fill="#7D9247"/>
<path d="M86.6067 266.779C85.4583 264.837 84.6399 260.136 84.5607 256.483C84.5211 254.49 85.0755 251.399 84.9039 249.891" stroke="#536B1B" stroke-miterlimit="10"/>
</g>
<g id="Vector_39">
<path d="M86.1843 248.103C84.2571 248.141 76.8125 250.428 74.0406 251.68Z" fill="#7D9247"/>
<path d="M86.1843 248.103C84.2571 248.141 76.8125 250.428 74.0406 251.68" stroke="#536B1B" stroke-miterlimit="10"/>
</g>
<g id="Vector_40">
<path d="M93.8269 239.493C94.5925 241.205 95.5428 248.703 95.5296 251.667Z" fill="#7D9247"/>
<path d="M93.8269 239.493C94.5925 241.205 95.5428 248.703 95.5296 251.667" stroke="#536B1B" stroke-miterlimit="10"/>
</g>
<g id="Vector_41">
<path d="M76.0338 264.761C74.2914 265.566 68.4835 270.612 66.4772 272.847Z" fill="#7D9247"/>
<path d="M76.0338 264.761C74.2914 265.566 68.4835 270.612 66.4772 272.847" stroke="#536B1B" stroke-miterlimit="10"/>
</g>
</g>
<g id="leaf_9">
<path id="Vector_42" d="M168.064 35.0147C168.049 35.4425 172.263 36.2751 175.458 39.1627C177.446 40.9531 177.737 42.3673 178.812 45.6341C180.773 51.5967 181.754 54.578 183.597 56.6712C184.191 57.3387 190.663 67.144 196.892 68.8306C201.053 69.9525 204.246 70.5334 206.079 70.0491C207.595 69.6606 210.209 68.9686 211.386 65.9243C213.578 60.3079 210.261 53.6477 206.441 49.1463C205.75 48.3306 203.029 43.2388 194.039 39.0528C180.183 32.6055 168.065 34.2634 168.047 35.0061L168.064 35.0147Z" fill="#7D9247" stroke="#536B1B" stroke-miterlimit="10"/>
<g id="Vector_43">
<path d="M206.792 67.651C205.894 65.7754 202.864 59.9376 200.32 56.8883C195.438 51.0129 187.909 43.1387 182.395 41.3142" fill="#7D9247"/>
<path d="M206.792 67.651C205.894 65.7754 202.864 59.9376 200.32 56.8883C195.438 51.0129 187.909 43.1387 182.395 41.3142" stroke="#536B1B" stroke-miterlimit="10"/>
</g>
<g id="Vector_44">
<path d="M187.606 52.6003C189.243 52.5336 192.772 53.4657 195.38 54.5097C196.808 55.0841 198.895 56.3125 200.005 56.666" fill="#7D9247"/>
<path d="M187.606 52.6003C189.243 52.5336 192.772 53.4657 195.38 54.5097C196.808 55.0841 198.895 56.3125 200.005 56.666" stroke="#536B1B" stroke-miterlimit="10"/>
</g>
<g id="Vector_45">
<path d="M201.076 57.7594C201.447 56.6693 201.411 51.8184 201.118 49.8973Z" fill="#7D9247"/>
<path d="M201.076 57.7594C201.447 56.6693 201.411 51.8184 201.118 49.8973" stroke="#536B1B" stroke-miterlimit="10"/>
</g>
<g id="Vector_46">
<path d="M205.38 64.5839C203.989 64.5071 198.435 62.8067 196.327 61.9269Z" fill="#7D9247"/>
<path d="M205.38 64.5839C203.989 64.5071 198.435 62.8067 196.327 61.9269" stroke="#536B1B" stroke-miterlimit="10"/>
</g>
<g id="Vector_47">
<path d="M191.441 47.3665C191.243 46.1576 188.978 41.4503 187.856 39.6745Z" fill="#7D9247"/>
<path d="M191.441 47.3665C191.243 46.1576 188.978 41.4503 187.856 39.6745" stroke="#536B1B" stroke-miterlimit="10"/>
</g>
</g>
<g id="leaf_10">
<path id="Vector_48" d="M116.468 127.279C115.921 126.982 117.429 122.952 114.998 118.654C112.567 114.355 109.016 113.392 105.208 110.695C97.6292 105.353 93.3352 101.632 92.154 98.5377C91.7792 97.543 85.4834 86.3106 88.296 79.6716C90.1725 75.2415 93.8077 70.7334 95.8802 69.4686C97.5783 68.4269 100.533 66.6435 105.336 67.7833C114.217 69.893 120.027 77.5434 122.701 84.0864C123.185 85.2731 127.489 91.284 125.657 102.113C122.84 118.79 117.431 127.783 116.468 127.279Z" fill="#7D9247" stroke="#536B1B" stroke-miterlimit="10"/>
<g id="Vector_49">
<path d="M94.6666 72.9647C96.8108 74.6736 103.331 80.2179 106.156 84.0953C111.622 91.5555 118.353 102.566 117.625 108.945" fill="#7D9247"/>
<path d="M94.6666 72.9647C96.8108 74.6736 103.331 80.2179 106.156 84.0953C111.622 91.5555 118.353 102.566 117.625 108.945" stroke="#536B1B" stroke-miterlimit="10"/>
</g>
<g id="Vector_50">
<path d="M102.694 96.4412C102.077 94.7566 102.317 90.855 103 87.8662C103.368 86.2381 104.511 83.7644 104.673 82.5087" fill="#7D9247"/>
<path d="M102.694 96.4412C102.077 94.7566 102.317 90.855 103 87.8662C103.368 86.2381 104.511 83.7644 104.673 82.5087" stroke="#536B1B" stroke-miterlimit="10"/>
</g>
<g id="Vector_51">
<path d="M99.7495 77.8161C101.456 77.8666 107.985 79.8738 110.407 80.9619Z" fill="#7D9247"/>
<path d="M99.7495 77.8161C101.456 77.8666 107.985 79.8738 110.407 80.9619" stroke="#536B1B" stroke-miterlimit="10"/>
</g>
<g id="Vector_52">
<path d="M108.78 88.4517C110.346 88.6757 116.557 90.6781 118.921 91.6499Z" fill="#7D9247"/>
<path d="M108.78 88.4517C110.346 88.6757 116.557 90.6781 118.921 91.6499" stroke="#536B1B" stroke-miterlimit="10"/>
</g>
<g id="Vector_53">
<path d="M97.6894 75.7068C97.0018 77.1123 96.1301 83.3052 96.1303 85.7577Z" fill="#7D9247"/>
<path d="M97.6894 75.7068C97.0018 77.1123 96.1301 83.3052 96.1303 85.7577" stroke="#536B1B" stroke-miterlimit="10"/>
</g>
<g id="Vector_54">
<path d="M110.563 104.749C110.427 103.01 111.644 96.0695 112.408 93.4258Z" fill="#7D9247"/>
<path d="M110.563 104.749C110.427 103.01 111.644 96.0695 112.408 93.4258" stroke="#536B1B" stroke-miterlimit="10"/>
</g>
</g>
<g id="leaf_11">
<path id="Vector_55" d="M127.605 153.19C126.958 153.215 125.308 150.047 121.322 146.803C117.336 143.558 114.115 142.153 109.218 141.821C99.5029 141.156 84.4553 142.945 81.0894 142.089C77.2351 141.118 69.9621 135.753 68.7345 128.842C67.6785 122.915 71.4537 115.531 72.5228 113.474C73.4072 111.775 77.2219 109.348 82.5678 108.658C91.8603 107.47 99.8593 110.153 105.997 114.228C107.106 114.969 114.92 119.006 119.606 128.842C126.826 144.005 128.727 153.126 127.592 153.19H127.605Z" fill="#668124" stroke="#536B1B" stroke-miterlimit="10"/>
<path id="Vector_56" d="M73.3544 124.166C76.2187 124.166 85.1813 124.447 90.0784 125.661C99.5029 127.986 112.333 132.214 116.095 137.413" stroke="#536B1B" stroke-miterlimit="10"/>
<path id="Vector_57" d="M91.7943 137.081C90.25 135.996 88.1776 132.61 87.0425 129.787C86.4221 128.241 85.9865 125.597 85.3925 124.486" stroke="#536B1B" stroke-miterlimit="10"/>
<path id="Vector_58" d="M74.8724 124.166C76.1791 122.749 80.1258 117.396 86.884 115.825" stroke="#536B1B" stroke-miterlimit="10"/>
<path id="Vector_59" d="M92.2035 126.108C94.1043 125.431 99.8197 123.068 105.72 123.068" stroke="#536B1B" stroke-miterlimit="10"/>
<path id="Vector_60" d="M102.644 136.328C101.258 135.178 97.0742 129.442 95.7278 127.053" stroke="#536B1B" stroke-miterlimit="10"/>
</g>
<g id="leaf_12">
<path id="Vector_61" d="M59.5605 130.043C59.8377 129.774 59.059 127.782 59.2174 124.754C59.3758 121.727 60.0489 119.785 61.8837 117.562C65.5532 113.142 72.4962 107.458 73.4862 105.669C74.6213 103.625 75.1361 98.3368 72.4962 94.99C70.2259 92.1285 65.3156 90.7234 63.9428 90.3401C62.8077 90.0208 60.1413 90.6595 57.6466 92.6651C53.3171 96.1397 51.2712 100.649 50.6244 104.941C50.5056 105.72 49.1592 110.702 51.7332 116.719C55.6931 125.993 59.0722 130.528 59.5605 130.068V130.043Z" fill="#A4B758" stroke="#536B1B" stroke-miterlimit="10"/>
<g id="Vector_62">
<path d="M68.4703 95.041C67.3087 96.2674 63.7712 100.202 62.3193 102.782C59.5341 107.751 56.221 114.956 57.0526 118.674" fill="#A4B758"/>
<path d="M68.4703 95.041C67.3087 96.2674 63.7712 100.202 62.3193 102.782C59.5341 107.751 56.221 114.956 57.0526 118.674" stroke="#536B1B" stroke-miterlimit="10"/>
</g>
<g id="Vector_63">
<path d="M66.8335 108.173C66.9655 107.074 66.2792 104.813 65.4476 103.165C64.9988 102.271 63.9692 101.007 63.7052 100.291" fill="#A4B758"/>
<path d="M66.8335 108.173C66.9655 107.074 66.2792 104.813 65.4476 103.165C64.9988 102.271 63.9692 101.007 63.7052 100.291" stroke="#536B1B" stroke-miterlimit="10"/>
</g>
<g id="Vector_64">
<path d="M67.8499 95.6925C66.6751 95.667 62.6229 95.1688 59.1514 97.4171Z" fill="#A4B758"/>
<path d="M67.8499 95.6925C66.6751 95.667 62.6229 95.1688 59.1514 97.4171" stroke="#536B1B" stroke-miterlimit="10"/>
</g>
<g id="Vector_65">
<path d="M61.6593 103.881C60.5769 104.417 57.1714 105.886 54.7559 108.403Z" fill="#A4B758"/>
<path d="M61.6593 103.881C60.5769 104.417 57.1714 105.886 54.7559 108.403" stroke="#536B1B" stroke-miterlimit="10"/>
</g>
<g id="Vector_66">
<path d="M62.0553 112.504C62.0949 111.443 61.1973 107.317 60.6561 105.771Z" fill="#A4B758"/>
<path d="M62.0553 112.504C62.0949 111.443 61.1973 107.317 60.6561 105.771" stroke="#536B1B" stroke-miterlimit="10"/>
</g>
</g>
<g id="leaf_13">
<path id="Vector_67" d="M175.15 429.754C175.15 429.754 170.147 426.65 167.547 421.502C165.937 418.308 166.412 416.2 166.993 411.18C168.035 402.034 168.497 396.451 168.141 392.708C167.93 390.537 167.177 375.144 159.64 370.762C154.625 367.837 149.846 367.798 147.022 367.913C144.685 368.003 137.967 369.778 134.429 373.751C127.882 381.096 128.687 389.796 131.129 397.435C131.565 398.814 132.119 406.964 141.874 415.779C156.921 429.358 175.15 429.754 175.15 429.754Z" fill="#7D9247" stroke="#536B1B" stroke-miterlimit="10"/>
<g id="Vector_68">
<path d="M142.164 370.647C142.23 373.636 142.771 382.974 144.368 388.173C147.444 398.176 152.948 411.883 159.469 416.251" fill="#7D9247"/>
<path d="M142.164 370.647C142.23 373.636 142.771 382.974 144.368 388.173C147.444 398.176 152.948 411.883 159.469 416.251" stroke="#536B1B" stroke-miterlimit="10"/>
</g>
<g id="Vector_69">
<path d="M159.192 398.316C156.921 397.907 152.671 395.48 149.754 393.181C148.157 391.929 146.071 389.528 144.764 388.672" fill="#7D9247"/>
<path d="M159.192 398.316C156.921 397.907 152.671 395.48 149.754 393.181C148.157 391.929 146.071 389.528 144.764 388.672" stroke="#536B1B" stroke-miterlimit="10"/>
</g>
<g id="Vector_70">
<path d="M144.17 386.564C142.956 388.02 139.96 394.995 139.155 397.856Z" fill="#7D9247"/>
<path d="M144.17 386.564C142.956 388.02 139.96 394.995 139.155 397.856" stroke="#536B1B" stroke-miterlimit="10"/>
</g>
<g id="Vector_71">
<path d="M142.309 375.361C144.157 375.91 150.691 380.036 153.027 381.965Z" fill="#7D9247"/>
<path d="M142.309 375.361C144.157 375.91 150.691 380.036 153.027 381.965" stroke="#536B1B" stroke-miterlimit="10"/>
</g>
<g id="Vector_72">
<path d="M150.77 404.818C150.282 406.632 150.506 414.182 150.981 417.107Z" fill="#7D9247"/>
<path d="M150.77 404.818C150.282 406.632 150.506 414.182 150.981 417.107" stroke="#536B1B" stroke-miterlimit="10"/>
</g>
</g>
<g id="leaf_14">
<path id="Vector_73" d="M78.7793 326.307C79.0169 326.205 78.5945 323.484 79.5317 320.84C80.1256 319.192 80.8516 318.655 82.4752 317.174C85.4319 314.465 87.1874 312.754 88.217 311.361C88.811 310.557 93.2197 305.115 92.8369 300.963C92.5861 298.204 91.5301 296.492 90.8569 295.521C90.3026 294.716 88.283 292.928 86.3031 293.017C82.66 293.158 80.2576 296.377 78.5285 299.813C78.2117 300.439 75.9149 303.365 75.4794 309.803C74.8062 319.716 78.3437 326.499 78.7793 326.32V326.307Z" fill="#9BB574" stroke="#536B1B" stroke-miterlimit="10"/>
<g id="Vector_74">
<path d="M88.9694 294.716C88.0982 295.751 85.4451 299.072 84.2571 301.385C81.9736 305.843 79.1357 312.409 79.294 316.19" fill="#9BB574"/>
<path d="M88.9694 294.716C88.0982 295.751 85.4451 299.072 84.2571 301.385C81.9736 305.843 79.1357 312.409 79.294 316.19" stroke="#536B1B" stroke-miterlimit="10"/>
</g>
<g id="Vector_75">
<path d="M84.5607 310.058C84.1779 309.113 83.9403 306.788 83.9667 304.974C83.9799 303.991 84.2307 302.432 84.1911 301.691" fill="#9BB574"/>
<path d="M84.5607 310.058C84.1779 309.113 83.9403 306.788 83.9667 304.974C83.9799 303.991 84.2307 302.432 84.1911 301.691" stroke="#536B1B" stroke-miterlimit="10"/>
</g>
<g id="Vector_76">
<path d="M84.6927 300.784C83.9931 300.848 81.2476 302.125 80.218 302.803Z" fill="#9BB574"/>
<path d="M84.6927 300.784C83.9931 300.848 81.2476 302.125 80.218 302.803" stroke="#536B1B" stroke-miterlimit="10"/>
</g>
<g id="Vector_77">
<path d="M87.5967 296.351C87.8475 297.195 88.085 300.899 88.0322 302.381Z" fill="#9BB574"/>
<path d="M87.5967 296.351C87.8475 297.195 88.085 300.899 88.0322 302.381" stroke="#536B1B" stroke-miterlimit="10"/>
</g>
<g id="Vector_78">
<path d="M80.746 309.266C80.0992 309.701 77.9081 312.319 77.1425 313.469Z" fill="#9BB574"/>
<path d="M80.746 309.266C80.0992 309.701 77.9081 312.319 77.1425 313.469" stroke="#536B1B" stroke-miterlimit="10"/>
</g>
</g>
<g id="leaf_15">
<path id="Vector_79" d="M143.867 101.811C144.197 101.569 141.095 98.6305 140.474 95.0537C140.092 92.831 140.897 91.8091 142.454 89.2159C145.279 84.4894 146.876 81.564 147.483 79.3924C147.84 78.1405 150.836 69.454 146.586 64.8425C143.748 61.7639 140.435 60.3587 138.442 59.5794C136.792 58.9407 131.697 57.9571 128.318 59.1068C122.061 61.2273 120.635 66.2476 120.583 71.1658C120.583 72.0472 119.091 76.697 123.869 84.3999C131.248 96.2673 143.286 102.246 143.867 101.811Z" fill="#668124" stroke="#536B1B" stroke-miterlimit="10"/>
<path id="Vector_80" d="M134.429 59.6688C133.795 61.3295 132.013 66.6308 131.947 69.9521C131.802 76.3521 132.489 85.4985 136.039 89.8034" stroke="#536B1B" stroke-miterlimit="10"/>
<path id="Vector_81" d="M139.96 79.8523C138.468 78.9581 136.066 76.3905 134.548 74.2699C133.716 73.1075 132.819 71.1786 132.106 70.3354" stroke="#536B1B" stroke-miterlimit="10"/>
<path id="Vector_82" d="M132.185 69.0068C131.01 69.4539 127.314 72.4176 126.1 73.7461" stroke="#536B1B" stroke-miterlimit="10"/>
<path id="Vector_83" d="M133.452 62.3004C134.614 63.1435 138.217 67.3207 139.405 69.058" stroke="#536B1B" stroke-miterlimit="10"/>
<path id="Vector_84" d="M132.594 80.9764C131.842 81.8323 130.271 86.0478 129.928 87.7979" stroke="#536B1B" stroke-miterlimit="10"/>
</g>
<g id="leaf_16">
<path id="Vector_85" d="M51.2053 163.218C51.4693 163.192 51.8917 160.471 53.6209 158.21C54.69 156.818 55.5612 156.511 57.5544 155.553C61.2107 153.828 63.415 152.704 64.8274 151.67C65.6457 151.069 71.5328 147.148 72.4436 143.085C73.0507 140.377 72.5755 138.435 72.2456 137.324C71.9684 136.404 70.5824 134.105 68.6817 133.607C65.1573 132.687 61.8706 135.063 59.1647 137.835C58.6763 138.333 55.5744 140.467 53.1721 146.483C49.4762 155.745 50.7433 163.243 51.2053 163.192V163.218Z" fill="#9BB574" stroke="#536B1B" stroke-miterlimit="10"/>
<g id="Vector_86">
<path d="M70.688 136.021C69.5396 136.749 65.9757 139.164 64.1278 141.029C60.5771 144.618 55.8252 150.06 54.822 153.714" fill="#9BB574"/>
<path d="M70.688 136.021C69.5396 136.749 65.9757 139.164 64.1278 141.029C60.5771 144.618 55.8252 150.06 54.822 153.714" stroke="#536B1B" stroke-miterlimit="10"/>
</g>
<g id="Vector_87">
<path d="M61.7387 149.383C61.6595 148.374 62.161 146.087 62.7418 144.363C63.0586 143.417 63.7714 142.012 63.9694 141.297" fill="#9BB574"/>
<path d="M61.7387 149.383C61.6595 148.374 62.161 146.087 62.7418 144.363C63.0586 143.417 63.7714 142.012 63.9694 141.297" stroke="#536B1B" stroke-miterlimit="10"/>
</g>
<g id="Vector_88">
<path d="M64.735 140.569C64.0486 140.416 61.0391 140.85 59.8379 141.195Z" fill="#9BB574"/>
<path d="M64.735 140.569C64.0486 140.416 61.0391 140.85 59.8379 141.195" stroke="#536B1B" stroke-miterlimit="10"/>
</g>
<g id="Vector_89">
<path d="M68.8796 137.184C68.8664 138.052 67.9293 141.667 67.4277 143.06Z" fill="#9BB574"/>
<path d="M68.8796 137.184C68.8664 138.052 67.9293 141.667 67.4277 143.06" stroke="#536B1B" stroke-miterlimit="10"/>
</g>
<g id="Vector_90">
<path d="M58.3463 147.518C57.594 147.748 54.69 149.613 53.6077 150.494Z" fill="#9BB574"/>
<path d="M58.3463 147.518C57.594 147.748 54.69 149.613 53.6077 150.494" stroke="#536B1B" stroke-miterlimit="10"/>
</g>
</g>
<g id="leaf_17">
<path id="Vector_91" d="M132.634 245.829C132.132 245.778 131.71 240.886 128.714 236.798C126.853 234.268 125.229 233.694 121.507 231.944C114.709 228.75 110.617 226.681 108.043 224.815C106.552 223.73 95.7674 216.551 94.6059 209.231C93.8271 204.351 95.0415 200.889 95.8466 198.896C96.5198 197.249 99.5293 193.161 103.278 192.318C110.221 190.759 116.214 195.09 121.018 200.136C121.89 201.042 127.552 204.951 131.301 215.797C137.082 232.506 133.505 245.931 132.621 245.829H132.634Z" fill="#A4B758" stroke="#536B1B" stroke-miterlimit="10"/>
<g id="Vector_92">
<path d="M99.0541 196.571C101.166 197.913 107.687 202.32 110.973 205.705C117.309 212.233 125.651 222.107 127.064 228.699" fill="#A4B758"/>
<path d="M99.0541 196.571C101.166 197.913 107.687 202.32 110.973 205.705C117.309 212.233 125.651 222.107 127.064 228.699" stroke="#536B1B" stroke-miterlimit="10"/>
</g>
<g id="Vector_93">
<path d="M114.353 220.766C114.656 218.952 114.023 214.839 113.151 211.735C112.676 210.036 111.501 207.506 111.224 206.191" fill="#A4B758"/>
<path d="M114.353 220.766C114.656 218.952 114.023 214.839 113.151 211.735C112.676 210.036 111.501 207.506 111.224 206.191" stroke="#536B1B" stroke-miterlimit="10"/>
</g>
<g id="Vector_94">
<path d="M109.878 204.875C111.224 204.632 116.979 205.475 119.223 206.114Z" fill="#A4B758"/>
<path d="M109.878 204.875C111.224 204.632 116.979 205.475 119.223 206.114" stroke="#536B1B" stroke-miterlimit="10"/>
</g>
<g id="Vector_95">
<path d="M102.367 198.718C102.275 200.289 103.529 206.778 104.294 209.295Z" fill="#A4B758"/>
<path d="M102.367 198.718C102.275 200.289 103.529 206.778 104.294 209.295" stroke="#536B1B" stroke-miterlimit="10"/>
</g>
<g id="Vector_96">
<path d="M121.177 217.509C122.589 217.93 127.922 221.354 129.875 222.95Z" fill="#A4B758"/>
<path d="M121.177 217.509C122.589 217.93 127.922 221.354 129.875 222.95" stroke="#536B1B" stroke-miterlimit="10"/>
</g>
</g>
<g id="leaf_18">
<path id="Vector_97" d="M22.5884 119.938C23.2351 120.143 30.7325 111.52 35.7484 108.48C38.8503 106.602 41.1735 105.465 46.3873 105.478C55.9043 105.503 58.8082 104.596 62.6229 103.843C64.8404 103.408 80.5744 101.045 84.2703 93.3422C86.7386 88.2069 86.2767 83.6082 85.8675 80.9C85.5243 78.6645 84.2967 74.845 79.8352 71.8558C71.5854 66.3245 61.5933 68.5217 53.2511 71.1404C51.8256 71.5875 44.8166 72.5584 34.4944 83.2377C20.4368 97.7749 21.4664 119.555 22.6016 119.926L22.5884 119.938Z" fill="#668124" stroke="#536B1B" stroke-miterlimit="10"/>
<path id="Vector_98" d="M81.0892 84.2852C78.0005 84.1958 68.3384 84.1958 62.8869 85.4477C52.3932 87.8748 37.9528 92.448 33.0953 98.503" stroke="#536B1B" stroke-miterlimit="10"/>
<path id="Vector_99" d="M48.2485 79.7376C50.5452 79.5076 55.3235 80.6573 58.8082 82.0497C60.709 82.8034 63.4149 84.5407 64.9196 85.0006" stroke="#536B1B" stroke-miterlimit="10"/>
<path id="Vector_100" d="M74.463 84.6811C73.3014 83.1865 67.0316 78.6772 64.3652 77.2209" stroke="#536B1B" stroke-miterlimit="10"/>
<path id="Vector_101" d="M75.387 83.8381C74.6742 85.5754 69.8431 91.5155 67.6652 93.5977" stroke="#536B1B" stroke-miterlimit="10"/>
<path id="Vector_102" d="M48.3277 89.957C46.5457 89.2288 38.7975 88.373 35.7352 88.3985" stroke="#536B1B" stroke-miterlimit="10"/>
<path id="Vector_103" d="M51.0732 88.8074C50.4264 90.5702 45.8593 96.6891 43.7606 98.8608" stroke="#536B1B" stroke-miterlimit="10"/>
<path id="Vector_104" d="M66.134 84.86C65.4873 86.6228 60.9202 92.7417 58.8214 94.9134" stroke="#536B1B" stroke-miterlimit="10"/>
</g>
<g id="laef">
<path id="Vector_105" d="M88.071 19.6C88.3468 20.2068 96.9244 25.758 102.168 31.5494C106.234 36.0543 107.353 37.8026 110.509 42.1666C116.058 49.8769 121.026 55.6452 124.187 58.0377C126.027 59.4365 136.102 65.6304 144.678 63.7621C150.401 62.5173 153.694 59.4071 155.551 57.4741C157.081 55.8745 157.938 50.0848 157.279 44.9501C156.055 35.4609 151.201 30.8732 143.503 26.2025C142.188 25.4041 135.409 20.1328 121.855 20.3435C100.959 20.6647 87.5961 18.5279 88.071 19.6Z" fill="#9BB574" stroke="#536B1B" stroke-miterlimit="10"/>
<g id="Vector_106">
<path d="M154.077 54.467C152.066 52.1058 145.552 44.8871 140.883 41.5726C131.909 35.1977 118.56 27.1489 110.523 27.1678" fill="#9BB574"/>
<path d="M154.077 54.467C152.066 52.1058 145.552 44.8871 140.883 41.5726C131.909 35.1977 118.56 27.1489 110.523 27.1678" stroke="#536B1B" stroke-miterlimit="10"/>
</g>
<g id="Vector_107">
<path d="M135.587 27.1451C137.326 28.7157 139.643 32.993 140.907 36.4241C141.596 38.2964 142.054 41.3601 142.717 42.7525" fill="#9BB574"/>
<path d="M135.587 27.1451C137.326 28.7157 139.643 32.993 140.907 36.4241C141.596 38.2964 142.054 41.3601 142.717 42.7525" stroke="#536B1B" stroke-miterlimit="10"/>
</g>
<g id="Vector_108">
<path d="M149.353 49.6555C149.746 47.8867 149.053 40.4861 148.399 37.613Z" fill="#9BB574"/>
<path d="M149.353 49.6555C149.746 47.8867 149.053 40.4861 148.399 37.613" stroke="#536B1B" stroke-miterlimit="10"/>
</g>
<g id="Vector_109">
<path d="M150.604 49.8865C148.748 50.398 140.788 50.3599 137.666 49.9793Z" fill="#9BB574"/>
<path d="M150.604 49.8865C148.748 50.398 140.788 50.3599 137.666 49.9793" stroke="#536B1B" stroke-miterlimit="10"/>
</g>
<g id="Vector_110">
<path d="M127.566 33.3978C126.939 31.6328 122.398 25.3409 120.308 23.0796Z" fill="#9BB574"/>
<path d="M127.566 33.3978C126.939 31.6328 122.398 25.3409 120.308 23.0796" stroke="#536B1B" stroke-miterlimit="10"/>
</g>
<g id="Vector_111">
<path d="M130.317 34.7991C128.484 35.3758 120.551 35.6337 117.42 35.3763Z" fill="#9BB574"/>
<path d="M130.317 34.7991C128.484 35.3758 120.551 35.6337 117.42 35.3763" stroke="#536B1B" stroke-miterlimit="10"/>
</g>
<g id="Vector_112">
<path d="M143.559 43.6117C141.727 44.1884 133.793 44.4463 130.663 44.1889Z" fill="#9BB574"/>
<path d="M143.559 43.6117C141.727 44.1884 133.793 44.4463 130.663 44.1889" stroke="#536B1B" stroke-miterlimit="10"/>
</g>
</g>
<g id="leaf_19">
<path id="Vector_113" d="M157.99 343.578C157.264 343.706 157.119 339.248 153.172 336.476C150.731 334.764 138.085 328.109 133.175 326.384C125.942 323.829 122.193 323.19 118.207 322.692C117.137 322.565 94.4473 316.561 91.2002 310.799C87.9531 305.038 90.8306 296.339 92.9029 293.081C95.4901 289.019 103.08 287.755 111.514 289.773C113.758 290.309 122.959 293.362 129.176 296.863C136.145 300.784 147.114 311.221 151.523 320.074C158.294 333.729 159.258 343.348 157.99 343.578Z" fill="#668124" stroke="#536B1B" stroke-miterlimit="10"/>
<path id="Vector_114" d="M94.2625 300.133C97.932 300.056 102.631 300.312 107.805 301.602C117.771 304.08 138.748 313.516 144.26 320.455" stroke="#536B1B" stroke-miterlimit="10"/>
<path id="Vector_115" d="M121.533 315.092C121.414 313.303 119.315 309.892 117.177 307.504C116.015 306.201 113.626 304.463 112.861 303.416" stroke="#536B1B" stroke-miterlimit="10"/>
<path id="Vector_116" d="M134.957 308.245C134.007 307.555 131.433 307.286 129.347 307.478C128.212 307.58 126.351 308.206 125.506 308.181" stroke="#536B1B" stroke-miterlimit="10"/>
<path id="Vector_117" d="M98.6184 300.529C98.9087 302.138 100.968 305.192 102.948 307.325C104.03 308.487 106.155 310.033 106.881 310.978" stroke="#536B1B" stroke-miterlimit="10"/>
<path id="Vector_118" d="M110.736 302.215C111.963 300.899 121.243 300.899 124.476 300.324" stroke="#536B1B" stroke-miterlimit="10"/>
</g>
</g>
</g>
</svg>
