<svg width="468" height="499" viewBox="0 0 468 499" fill="none" xmlns="http://www.w3.org/2000/svg">
<g id="monstera-svg">
<g id="monstera">
<g id="monstera_2">
<g id="m-pot">
<g id="pot">
<path id="Vector" d="M228.447 365.052C187.438 365.052 154.193 359.97 154.193 353.702C154.193 347.433 187.438 342.352 228.447 342.352C269.456 342.352 302.701 347.433 302.701 353.702C302.701 359.97 269.456 365.052 228.447 365.052Z" fill="#563A22"/>
<path id="Vector_2" d="M301.449 355.197C304.285 353.262 295.065 349.278 293.012 348.696C291.35 348.227 290.133 347.66 286.149 346.956C283.147 346.428 279.97 345.939 279.188 345.837C268.624 344.439 247.922 343.808 247.917 343.808C230.456 343.808 221.73 343.481 216.27 343.808C192.733 345.226 185.498 346.37 180.072 347.127C176.679 347.601 167.919 349.102 159.565 351.947C158.363 352.358 153.489 353.477 155.787 356.42C155.787 356.42 151.382 354.968 148.943 352.309C148.278 351.585 147.55 351.004 147.55 351.004C147.902 347.719 157.028 343.886 162.611 342.904C181.778 339.536 191.691 338.964 191.691 338.964C209.534 337.933 218.455 337.42 228.154 337.468C237.236 337.517 245.009 337.996 260.553 338.964C265.017 339.243 275.057 339.893 286.765 341.951C291.238 342.738 292.318 342.914 297.734 344.19C304.588 345.808 309.637 347.465 310.605 350.251C311.045 351.512 311.104 352.392 311.104 352.392C307.995 353.589 305.878 354.176 301.449 355.193V355.197Z" fill="#BC725B"/>
<path id="Vector_3" d="M311.104 352.397C291.506 358.253 277.164 361.557 264.914 362.842C250.293 364.382 229.004 364.783 216.617 364.299C187.879 363.165 183.958 362.3 172.07 360.496C163.696 359.225 162.171 359.142 151.509 353.707C150.527 353.208 147.555 351.004 147.555 351.004C146.67 352.597 145.433 356.434 145.379 360.237C144.543 421.895 152.169 450.686 152.169 450.686C156.97 462.98 161.838 475 174.172 484.37C178.121 487.371 184.071 491.032 195.631 494.42C209.27 498.413 270.511 495.163 283.372 485.998C296.023 476.983 298.863 468.767 302.041 461.191C306.382 452.089 308.645 441.076 310.263 409.944C311.011 395.598 312.277 375.302 311.109 352.392L311.104 352.397Z" fill="#CC7D5F"/>
</g>
</g>
<g id="m-leaf-right-back">
<path id="stem8" d="M261.903 349.454C259.165 328.538 281.099 252.929 285.328 220.775C291.35 174.998 306.45 139.604 318.255 117.143C315.728 116.532 313.201 115.916 310.674 115.305C308.787 120.218 305.873 127.721 302.241 136.837C292.821 160.471 289.4 167.71 286.652 174.793C280.625 190.342 282.991 195.9 269.665 258.14C264.254 283.421 246.495 335.435 251.187 348.159C252.361 351.331 259.19 350.417 261.898 349.454H261.903Z" fill="#2A3F11"/>
<g id="leaf8">
<path id="Vector_4" d="M326.424 100.113C334.118 101.525 340.615 105.671 346.921 109.733C343.054 112.397 338.195 112.304 333.698 113.096C329.2 113.883 323.936 116.659 323.462 120.995C331.18 116.473 347.209 112.807 354.605 116.116C362.001 119.426 368.004 134.202 368.405 142.351C363.497 141.95 351.389 135.84 346.417 135.82C341.446 135.801 335.697 137.78 333.16 142.209C339.935 145.753 349.15 139.662 357.152 140.22C363.091 140.635 367.76 144.844 369.945 149.976C372.13 155.109 372.184 161.062 371.685 166.879C366.01 162.93 357.22 163.238 350.797 167.612C352.875 171.709 361.033 166.302 364.543 169.289C366.567 171.01 365.682 174.373 364.665 177.071C362.04 184.022 359.42 190.973 356.795 197.928C354.625 194.443 349.722 193.622 345.254 193.852C340.786 194.081 336.157 195.069 331.957 194.081C327.758 193.094 324.161 189.144 325.696 184.946C326.619 182.418 329.054 180.605 330.892 178.508C332.73 176.411 333.991 173.185 332.246 171.42C324.938 175.384 319.551 182.927 318.539 190.625C311.534 188.621 306.303 182.741 305.248 175.678C304.187 168.614 307.335 160.618 313.25 155.363C310.278 154.126 306.269 155.964 304.245 158.819C302.222 161.673 298.472 173.986 298.878 177.169C269.895 159.826 291.052 143.656 297.456 135.635C297.822 133.176 291.624 137.062 288.334 141.857C287.234 143.455 284.418 156.292 283.455 155.72C283.05 155.475 279.344 149.399 279.105 149.003C277.042 145.601 276.749 142.292 275.497 138.978C273.586 133.914 273.424 126.802 278.23 121.655C282.615 116.957 289.121 118.668 294.391 115.857C306.851 109.205 309.813 97.0773 326.419 100.128L326.424 100.113Z" fill="#23350E"/>
<path id="Vector_5" d="M298.463 113.276C299.171 116.336 301.459 120.477 303.649 122.666C303.165 120.491 305.028 118.218 306.919 116.61C310.898 113.232 315.713 110.818 320.69 109.698C317.801 111.566 313.597 112.983 310.703 114.85C308.533 116.253 305.179 120.169 304.773 122.554C304.456 124.411 307.315 126.372 308.557 127.643C310.004 129.128 310.239 129.001 311.661 130.59C311.998 130.966 313.504 131.485 314.022 131.602C314.619 131.739 315.278 131.485 315.885 131.23C321.135 129.055 326.781 127.74 332.27 126.836C337.76 125.932 339.241 126.66 346.706 129.392C337.237 127.379 327.206 128.024 317.693 132.149C317.356 132.296 315.635 132.751 315.523 133.088C315.43 133.362 316.413 133.924 316.51 134.139C316.945 135.131 317.83 136.544 318.71 137.184C323.32 140.513 324.376 143.715 328.492 147.337C330.941 149.492 332.647 151.658 334.983 152.503C335.546 152.709 336.318 152.406 337.027 152.283C343.592 151.164 345.987 151.873 349.815 152.992C356.003 154.801 361.087 156.521 365.663 160.701C356.868 158.203 348.92 152.797 339.393 153.5C338.366 153.574 335.858 154.454 335.858 154.454C335.761 154.864 337.036 157.118 337.173 157.489C338.884 162.069 340.678 165.178 342.868 169.519C343.836 171.435 345.166 173.986 346.798 175.389C348.431 176.792 348.993 177.765 356.389 177.222C355.72 177.496 350.851 178.356 349.228 177.912C348.866 177.814 347.326 177.335 347.468 177.56C349.306 180.414 353.056 184.838 354.654 187.844C349.565 183.034 345.215 177.511 341.734 171.454C340.556 169.401 339.476 167.285 338.679 165.041C337.472 161.659 336.22 159.723 334.509 156.595C331.39 160.51 328.951 162.685 325.832 166.601C324.024 168.874 322.176 171.21 321.262 173.859C322.156 168.057 326.497 162.959 330.872 158.477C332.109 157.206 332.422 156.78 332.427 155.148C332.427 153.618 332.207 153.007 331.087 152.049C324.757 146.613 318.495 139.638 312.169 134.202C307.315 137.345 303.341 141.872 300.985 146.95C298.683 151.917 297.935 157.245 297.358 162.47C297.104 154.234 297.954 146.726 303.532 139.745C305.492 137.296 308.127 134.769 310.547 132.721C307.961 130.424 305.937 127.188 303.63 124.9C301.958 123.243 300.599 120.203 299.025 119.201C299.025 119.201 295.099 120.618 293.853 121.224C290.783 122.706 288.417 125.462 286.897 128.425C285.376 131.387 284.604 134.569 283.915 137.722C283.279 133.816 284.399 129.476 286.941 125.966C289.483 122.456 293.423 119.822 297.607 118.834C297.93 118.756 298.365 118.419 298.365 118.419C297.9 117.915 297.548 117.69 297.368 117.558C296.072 116.586 293.902 117.861 293.227 116.4C295.305 115.51 296.595 114.577 298.477 113.286L298.463 113.276Z" fill="#384F16"/>
</g>
</g>
<g id="m-leaf-right">
<path id="stem1" d="M248.264 356.331C251.662 350.915 261.888 325.659 268.639 305.06C273.845 289.164 286.643 274.769 312.238 245.983C322.239 234.731 336.572 219.739 355.426 203.471C354.972 201.8 354.522 200.123 354.067 198.451C340.981 208.531 326.463 221.059 311.69 236.422C302.422 246.061 290.436 258.58 277.462 277.389C267.133 292.371 260.842 305.926 248.259 333.035C243.454 343.388 238.414 354.968 241.636 357.48C241.636 357.48 247.58 357.407 248.259 356.327L248.264 356.331Z" fill="#2A3F11"/>
<g id="leaf1">
<path id="Vector_6" d="M435.409 231.094C428.561 226.602 423.164 221.948 416.316 217.456C415.191 216.718 414.008 215.921 413.593 214.577C413.329 213.717 413.519 212.744 414.238 212.201C415.357 211.356 416.848 212.118 417.978 212.871C421.39 215.154 424.772 217.49 428.116 219.871C429.944 221.176 431.797 222.52 433.136 224.324C434.398 226.02 434.339 229.266 435.409 231.089C435.409 231.089 445.636 240.425 449.6 243.994C451.678 245.866 453.848 246.887 457.417 250.724C457.417 250.724 457.842 251.311 459.142 248.505C459.641 247.43 460.936 245.988 461.484 244.942C463.249 241.554 466.04 238.455 466.993 234.76C468.792 227.799 466.925 225.991 466.167 222.129C465.336 217.896 463.351 216.185 459.646 213.981C456.864 212.329 453.56 210.799 451.052 208.633C449.107 206.957 446.882 205.627 444.438 204.83C432.168 200.812 420.192 195.895 408.646 190.127C408.035 189.824 407.37 189.447 407.174 188.792C406.998 188.191 407.292 187.541 407.707 187.077C409.271 185.307 412.053 185.522 414.37 185.982C431.113 189.315 446.687 198.275 457.979 211.077C458.966 203.696 457.71 196.105 454.943 189.188C454.034 186.911 452.949 184.677 451.458 182.726C448.94 179.427 445.352 177.066 441.539 175.428C431.337 171.049 419.742 171.63 408.724 173.009C406.05 173.341 403.024 173.62 400.976 171.87C402.213 169.856 404.412 168.649 406.593 167.739C417.279 163.296 430.062 164.249 439.965 170.232C433.899 160.094 425.237 151.438 414.815 145.87C404.393 140.303 392.201 137.922 380.528 139.716C377.199 140.229 373.821 141.109 371.397 143.685C370.722 144.404 370.179 145.244 369.842 146.168C367.843 151.609 373.367 155.25 374.232 160.182C374.76 163.174 373.587 166.615 375.361 169.074C375.801 169.68 375.102 170.922 374.481 171.337C372.692 170.423 371.944 168.311 371.284 166.41C369.021 159.875 365.765 153.329 360.134 149.311C354.503 145.293 346.002 144.643 341.006 149.424C335.394 154.796 336.401 163.809 334.553 171.352C332.852 178.298 327.03 182.673 324.454 189.345C323.711 191.266 323.985 194.932 324.64 196.985C325.226 198.828 327.68 205.774 328.917 205.642C330.374 205.49 329.323 199.634 332.28 196.985C340.605 189.521 346.29 183.191 355.71 184.955C356.287 185.063 356.834 185.361 357.191 185.83C358.369 187.37 356.663 189.149 355.114 190.044C349.238 193.436 342.365 195.215 337.266 199.693C332.451 203.926 329.719 210.427 330.066 216.83C330.413 223.234 333.835 229.398 339.08 233.083C339.71 233.528 340.449 233.963 341.304 233.308C341.9 232.854 342.179 232.106 342.159 231.358C341.93 223.449 345.655 215.535 351.907 210.681C352.552 210.183 353.476 210.134 354.087 210.676C354.933 211.424 354.429 212.514 353.921 213.345C351.775 216.87 349.502 220.477 348.866 224.554C347.732 231.861 352.288 239.105 358.364 243.324C364.441 247.542 371.817 249.341 379.008 251.057C375.928 238.793 376.876 225.551 381.701 213.859C382.19 212.68 383.256 211.791 384.527 211.688C385.954 211.571 386.57 212.529 386.995 213.482C389.019 218.028 387.782 223.327 386.047 227.99C384.312 232.653 382.068 237.316 382.141 242.292C382.244 249.238 386.986 255.451 392.842 259.186C398.698 262.92 405.591 264.621 412.341 266.259C411.549 263.277 408.333 261.728 406.353 259.362C403.938 256.478 403.464 252.489 403.093 248.75C402.574 243.578 402.056 238.402 401.538 233.23C401.391 231.749 401.284 230.097 402.775 229.139C403.713 228.533 404.921 228.562 405.918 229.06C408.064 230.136 408.836 232.414 409.516 234.55C412.136 242.781 414.761 251.032 416.575 259.479C418.075 266.464 419.415 274.261 425.051 278.655C427.974 280.933 431.724 281.969 434.622 284.286C438.02 286.999 439.951 291.447 439.613 295.783C442.546 295.177 442.576 291.105 443.407 288.226C445.289 281.705 453.926 278.997 455.857 272.491C456.85 269.148 455.813 265.579 454.777 262.246C457.622 261.874 458.717 265.829 458.683 268.698C462.012 262.084 462.188 255.94 457.407 250.72" fill="#3A5717"/>
<path id="Vector_7" d="M374.31 172.29C372.971 172.134 371.832 171.195 371.05 170.096C370.267 168.996 369.774 167.725 369.163 166.522C366.718 161.717 362.27 157.968 357.118 156.38C358.917 157.274 360.364 158.726 361.776 160.153C363.453 161.844 365.154 163.575 366.235 165.696C366.87 166.943 367.276 168.292 367.936 169.524C368.83 171.181 370.189 172.588 371.812 173.537C372.311 173.83 372.848 174.089 373.21 174.539C373.572 174.989 373.694 175.697 373.303 176.123C373.098 176.347 372.79 176.445 372.501 176.533C369.314 177.472 365.961 177.653 362.646 177.824C361.356 177.892 360.061 177.956 358.785 177.77C357.519 177.584 356.301 177.154 355.045 176.924C353.178 176.582 351.257 176.685 349.36 176.812C346.681 176.988 343.978 177.213 341.402 177.985C338.826 178.757 336.362 180.111 334.69 182.218C339.881 180.434 345.259 178.625 350.729 179.099C352.288 179.236 353.818 179.554 355.358 179.837C360.857 180.844 366.635 181.333 371.949 179.598C373.039 179.241 374.198 178.791 375.298 179.119C376.241 179.402 376.92 180.209 377.541 180.972C378.485 182.13 379.433 183.293 380.376 184.452C373.841 186.886 368.156 191.574 364.802 197.684C361.449 203.794 360.017 210.847 360.017 217.818C362.04 206.35 367.945 194.947 377.634 188.494C378.974 187.6 381.168 185.517 382.645 186.168C383.544 186.563 385.475 189.667 385.974 190.513C386.599 191.584 387.386 192.903 387.875 194.042C388.168 194.727 388.472 195.313 388.315 196.046C388.115 197 386.115 197.474 385.314 198.031C382.478 200.001 379.643 201.971 376.808 203.941C375.21 205.05 373.582 206.189 372.408 207.748C371.705 208.687 371.186 209.748 370.678 210.803C369.182 213.898 367.677 217.134 367.672 220.57C367.662 225.766 371.054 230.419 371.577 235.586C370.087 231.211 370.008 226.499 369.95 221.88C369.92 219.651 369.896 217.378 370.585 215.257C371.719 211.752 374.642 209.132 377.678 207.045C380.714 204.957 381.638 204.718 384.6 202.372C385.974 201.282 388.569 198.378 390.197 199.018C394.44 200.69 397.099 205.04 399.617 208.848C399.788 209.112 399.969 209.386 399.993 209.704C400.028 210.09 399.822 210.447 399.646 210.789C398.889 212.236 398.429 213.815 397.979 215.379C397.168 218.175 396.361 220.966 395.55 223.762C394.435 227.604 393.316 231.505 393.301 235.503C393.287 239.79 394.538 243.964 395.78 248.065C396.352 249.952 396.948 251.883 398.15 253.442C396.542 249.537 395.574 245.367 395.301 241.149C394.646 231.045 397.926 221.147 401.162 211.551C403.376 213.639 405.62 215.755 407.238 218.331C408.9 220.976 409.834 224.001 410.836 226.959C413.832 235.85 417.533 244.507 421.893 252.821C418.721 241.941 415.538 231.035 411.153 220.585C411.652 220.912 412.312 221.601 412.732 222.027C417.381 226.695 423.33 230.058 429.729 231.637C429.245 231.138 428.624 230.796 428.018 230.468C426.302 229.535 424.582 228.601 422.778 227.848C421.981 227.516 421.155 227.213 420.461 226.7C419.825 226.23 419.332 225.605 418.779 225.042C416.252 222.471 413.094 220.658 410.772 217.896C404.158 210.017 400.384 204.517 394.504 198.598C402.266 198.006 409.985 200.133 417.259 202.895C424.533 205.656 431.577 209.078 439.051 211.253C432.638 208.286 426.229 205.319 419.816 202.352C417.811 201.423 415.802 200.495 413.715 199.771C407.781 197.713 401.411 197.381 395.164 196.726C394.562 196.662 393.937 196.589 393.423 196.266C392.92 195.949 392.583 195.43 392.26 194.932C389.938 191.3 387.616 187.668 385.294 184.036C390.085 184.941 394.851 182.629 399.695 182.066C402.804 181.705 405.947 182.071 409.076 182.194C416.672 182.492 424.645 181.407 431.601 184.476C429.421 182.668 426.562 181.93 423.77 181.455C417.816 180.444 411.74 180.414 405.698 180.4C399.456 180.385 393.086 180.4 387.162 182.36C386.14 182.697 385.02 183.093 384.023 182.687C383.212 182.355 382.219 181.279 381.628 180.634C380.191 179.065 378.861 178.298 377.893 176.763C380.782 174.832 385.177 172.481 388.173 170.716C392.358 168.243 396.601 165.862 400.839 163.477C403.137 162.187 405.463 160.882 408 160.153C411.779 159.068 415.822 159.317 419.669 158.506C415.441 157.866 411.026 157.235 406.954 158.56C404.075 159.498 401.602 161.346 399.001 162.905C392.196 166.987 384.258 169.216 378.152 174.285C377.795 174.583 377.385 174.91 376.92 174.861C376.329 174.803 375.962 174.123 376.011 173.532C376.06 172.94 376.397 172.412 376.71 171.904C378.631 168.746 379.756 165.183 380.86 161.659C381.76 158.794 382.659 155.93 383.559 153.07C384.541 149.942 385.539 146.73 385.392 143.451C383.016 146.774 381.687 150.714 380.391 154.591C378.411 160.525 376.3 166.356 374.315 172.29H374.31Z" fill="#53781E"/>
</g>
</g>
<g id="m-leaf-right-front">
<path id="stem6" d="M286.784 232.267C283.48 235.166 278.831 242.351 274.202 247.63C274.202 247.63 263.496 259.846 256.477 273.503C247.927 290.132 242.863 321.299 249.144 358.453C245.297 359.973 241.631 360.628 241.113 358.898C236.166 342.268 230.808 311.713 250.518 271.787C258.354 255.916 274.373 235.821 281.925 230.331C283.509 231.475 282.976 231.759 286.779 232.267H286.784Z" fill="#2A3F11"/>
<g id="leaf6">
<path id="Vector_8" d="M284.472 231.407C287.004 231.431 289.087 229.227 289.893 226.827C290.7 224.427 290.553 221.831 290.646 219.304C290.739 216.777 291.154 214.093 292.821 212.187C294.146 210.672 296.087 209.86 297.988 209.195C307.286 205.95 317.41 205.114 327.113 206.79C329.943 207.279 332.764 207.988 335.316 209.308C338.41 210.906 340.986 213.336 343.518 215.736C344.692 216.845 345.86 217.955 347.033 219.064C353.373 225.067 360.144 231.969 360.593 240.689C353.994 238.05 347.346 235.391 340.365 234.046C333.385 232.702 325.969 232.741 319.375 235.391C318.187 235.865 316.813 237.067 317.493 238.152C326.536 235.312 336.298 234.789 345.596 236.642C347.991 237.121 350.377 237.761 352.547 238.886C357.093 241.237 360.466 245.748 361.434 250.773C362.158 254.547 361.591 258.448 361.908 262.275C361.996 263.321 362.148 264.362 362.109 265.413C362.07 266.371 361.874 267.315 361.679 268.248C361.019 271.382 360.359 274.515 359.699 277.653C351.31 263.277 337.09 252.416 321.012 248.109C317.698 247.22 314.208 246.599 310.84 247.269C310.146 247.405 309.383 247.655 309.041 248.276C308.601 249.072 309.1 250.123 309.872 250.602C310.644 251.081 311.593 251.15 312.502 251.208C320.113 251.712 327.734 252.826 334.954 255.29C341.299 257.455 347.752 261.136 350.245 267.359C352.093 271.978 351.428 277.233 349.986 281.989C347.835 289.067 344.012 295.631 338.914 300.989C338.786 288.68 330.496 276.851 318.969 272.535C317.498 271.983 315.933 271.543 314.374 271.738C312.815 271.934 311.27 272.902 310.801 274.402C309.95 277.125 312.776 279.476 315.215 280.962C319.585 283.621 323.931 286.388 327.646 289.902C331.361 293.417 334.441 297.758 335.741 302.704C333.395 306.341 329.147 308.619 325.031 309.968C320.915 311.317 316.603 312.031 312.57 313.61C308.537 315.189 304.666 317.853 302.965 321.831C304.71 318.532 303.028 314.23 300.081 311.933C297.133 309.636 293.276 308.922 289.566 308.536C286.344 308.203 283.108 308.062 279.872 308.115C274.339 308.208 268.385 308.775 263.662 305.882C261.15 304.342 259.273 301.971 257.454 299.654C255.338 296.956 254.35 293.779 254.492 290.347C254.565 288.544 254.854 287.4 255.518 285.826C260.387 274.309 263.79 272.408 270.799 266.2C272.862 264.372 276.494 261.952 276.074 259.23C275.962 258.482 275.683 257.69 275.043 257.289C274.612 257.015 274.08 256.967 273.571 256.947C265.681 256.668 258.735 262.896 255.636 270.155C252.537 277.413 252.473 285.562 252.458 293.456C245.644 288.852 240.115 283.123 236.337 275.815C234.777 272.794 233.511 269.285 234.562 266.054C232.866 268.038 232.191 270.854 232.812 273.391C228.408 269.695 220.733 264.753 218.44 259.479C216.773 255.652 215.806 254.444 215.385 250.289C215.16 248.051 215.811 245.797 216.783 243.769C217.707 241.838 218.959 240.02 220.694 238.763C222.683 237.321 225.142 236.735 227.435 235.86C230.813 234.579 233.932 232.629 236.566 230.155C234.792 229.466 232.793 229.843 230.969 230.39C224.741 232.262 219.115 236.09 215.092 241.203C213.298 236.388 215.454 231.089 217.58 226.416C218.587 224.202 219.594 221.983 220.885 219.92C223.573 215.608 227.425 212.099 231.707 209.366C238.991 204.718 247.58 202.249 256.213 201.922C259.39 201.805 262.616 201.971 265.637 202.953C273.889 205.632 279.237 214.088 280.542 222.662C281.036 225.917 281.221 231.363 284.511 231.397L284.472 231.407Z" fill="#2A3F11"/>
<path id="Vector_9" d="M277.091 233.206C268.707 232.917 261.976 231.646 253.602 232.174C245.229 232.702 236.537 235.415 231.057 241.77C235.335 239.101 239.724 236.383 244.652 235.307C246.705 234.858 248.807 234.706 250.904 234.564C260.529 233.909 273.336 234.799 281.153 235.767C282.688 235.958 284.286 236.657 284.619 237.092C285.557 238.323 287.537 241.075 287.337 242.61C277.198 242.19 264.831 243.158 255.65 247.479C246.47 251.8 238.747 260.212 237.441 270.272C240.663 267.74 240.663 262.852 242.897 259.416C243.757 258.091 244.94 257.006 246.172 256.023C251.618 251.678 259.483 247.64 266.278 246.095C273.073 244.551 278.479 245.118 285.43 244.6C286.027 244.556 287.322 244.262 287.796 244.624C288.197 244.927 288.945 245.973 289.101 246.447C290.191 249.776 291.242 250.827 291.516 256.488C288.143 258.756 285.054 261.625 281.73 263.961C278.557 266.185 275.331 268.581 273.454 271.968C271.239 275.971 271.22 280.796 271.484 285.361C272.207 279.466 273.17 273.068 277.477 268.977C278.797 267.72 280.361 266.762 281.916 265.809C285.416 263.668 288.353 260.403 291.854 258.262C293.75 264.548 294.332 271.66 296.165 277.966C297.544 282.702 302.583 294.522 302.256 291.755C300.853 286.999 299.45 282.238 298.042 277.482C296.688 272.892 295.324 268.229 295.305 263.443C295.29 260.158 294.459 255.803 294.537 252.861C300.305 255.011 302.52 255.09 308.288 257.24C310.723 258.149 317.146 260.202 319.492 261.317C324.151 263.526 327.607 265.878 331.816 268.854C334.744 270.922 338.381 275.165 340.444 278.098C340.072 274.764 337.701 272.017 335.223 269.754C324.703 260.168 310.708 255.456 296.947 251.819C296.551 251.717 295.495 251.536 295.109 251.399C294.449 251.169 294.019 249.908 293.921 249.498C293.364 247.142 292.983 246.369 292.425 244.013C303.028 241.926 314.799 241.779 325.319 242.708C330.09 243.128 342.917 248.276 340.072 246.555C333.243 243.075 325.617 241.168 317.957 241.027C309.716 240.875 299.709 239.418 291.932 242.146C290.641 239.883 290.543 238.353 289.331 236.368C293.789 235.376 298.023 233.372 301.611 230.546C305.991 227.1 309.51 222.403 314.599 220.125C318.339 218.453 322.547 218.268 326.639 218.106C321.531 216.821 315.963 217.476 311.29 219.905C304.392 223.498 299.562 230.683 292.137 232.991C291.257 233.264 290.314 233.46 289.424 233.215C288.534 232.971 288.168 230.537 288.231 229.618C285.992 232.062 282.698 232.262 281.637 228.855C281.896 229.544 281.906 230.507 281.265 230.864C281.06 230.977 280.816 230.996 280.586 230.986C279.535 230.942 278.567 230.429 277.663 229.887C275.067 228.332 267.92 222.853 265.232 221.464C262.543 220.076 250.42 217.886 247.472 218.561C250.611 219.211 260.001 220.545 262.919 221.87C263.467 222.119 271.454 226.944 271.963 227.262C272.706 227.726 273.371 228.308 274.084 228.811C275.522 229.828 277.56 231.153 279.202 231.783C280.156 232.15 282.473 232.854 282.654 233.259C282.986 233.997 278.064 233.274 277.081 233.191L277.091 233.206Z" fill="#384F16"/>
</g>
</g>
<g id="m-leaf-back-left">
<g id="leaf3">
<path id="Vector_10" d="M162.694 220.418C168.457 221.655 174.093 224.7 177.154 229.735C180.047 234.496 180.316 240.484 179.089 245.919C177.862 251.355 175.276 256.365 172.715 261.312C172.431 249.41 162.132 238.519 150.17 237.854C149.207 237.8 148.268 238.353 147.951 239.267C147.491 240.587 148.674 241.53 149.749 242.117C156.798 245.963 166.795 247.401 167.582 256.502C167.739 258.34 167.455 260.188 166.868 261.938C164.155 270.008 159.966 277.575 154.574 284.159C153.836 285.058 152.638 285.503 151.514 285.21C149.5 284.687 149.476 282.404 149.554 280.586C149.935 271.748 144.597 264.934 136.047 262.681C141.752 267.368 143.184 271.993 146.098 278.332C146.416 279.026 146.675 279.75 146.816 280.498C148.078 287.194 142.036 293.065 137.47 296.496C131.472 301.008 128.539 306.39 132.518 312.754C129.111 309.621 124.423 308.35 119.906 307.338C114.25 306.072 108.316 304.953 104.205 300.412C102.43 298.452 101.355 295.91 101.482 293.265C101.746 287.586 107.866 281.876 111.826 278.753C115.164 276.118 116.255 269.739 114.573 271.083C108.145 277.78 103.281 285.963 100.47 294.81C97.7424 293.495 97.3513 290.103 96.5056 287.194C95.6013 284.086 95.3374 280.581 96.5594 277.809C98.8276 272.682 101.106 268.004 105.266 263.096C106.263 261.923 105.476 260.046 103.936 260.056H103.902C102.401 260.178 95.8653 275.483 95.6013 284.086C90.3219 277.125 87.56 262.114 89.7695 253.662C91.9791 245.211 97.63 242.141 106.229 240.606C108.839 240.142 113.874 241.393 114.969 238.978C108.575 238.074 100.871 239.902 95.2934 243.153C93.9344 243.945 93.0203 245.528 93.0203 245.528C91.6662 245.142 94.0273 239.848 94.653 238.798C101.394 227.526 114.588 218.844 127.591 220.692C134.385 221.66 132.577 222.271 144.832 220.101C150.571 219.084 156.974 219.177 162.689 220.404L162.694 220.418Z" fill="#23350E"/>
<path id="Vector_11" d="M134.395 223.801C134.395 225.331 134.395 228.181 137.685 227.878C143.707 227.32 149.979 229.197 155.513 231.646C161.046 234.095 167.084 236.94 169.493 242.488C167.24 239.951 164.561 237.795 161.599 236.143C154.872 232.394 147.022 231.358 139.386 230.385C138.164 230.229 136.888 230.077 135.73 230.488C132.914 231.48 132.166 235.043 131.863 238.015C131.809 238.563 131.751 239.13 131.936 239.653C132.288 240.64 134.405 242.684 135.656 243.661C139.88 246.956 142.872 247.968 146.533 251.878C149.129 254.645 151.763 257.47 153.44 260.872C155.117 264.274 155.733 268.41 154.164 271.865C154.364 267.476 153.059 263.028 150.517 259.44C148.293 256.297 145.223 253.872 142.192 251.497C138.844 248.867 135.495 246.242 132.147 243.612C132.591 249.19 132.337 254.821 131.389 260.33C131.237 261.214 131.066 262.119 131.247 262.998C131.399 263.732 131.78 264.387 132.142 265.042C135.783 271.606 137.915 279.002 138.325 286.5C135.153 280.429 136.316 275.546 130.656 266.088C128.568 271.797 127.615 279.056 126.403 285.009C125.274 290.548 124.154 296.316 125.557 301.785C122.917 297.772 123.015 292.547 123.944 287.835C124.873 283.123 126.545 278.518 126.73 273.718C126.848 270.692 127.605 269.666 128.211 265.149C125.547 263.785 120.067 272.369 118.943 277.453C118.542 272.168 121.158 266.757 125.547 263.781C126.349 263.238 127.547 262.974 127.874 262.065C129.023 258.848 128.378 255.368 128.925 251.497C117.741 256.678 108.091 267.481 103.144 278.772C106.61 267.432 114.593 257.538 124.941 251.746C125.948 251.184 127.028 250.607 127.596 249.605C128.07 248.764 128.695 248.28 128.725 247.317C128.803 244.688 128.299 241.535 128.378 238.905C120.033 242.136 112.779 247.748 106.571 254.195C110.393 247.738 116.259 242.508 123.113 239.443C124.57 238.793 127.263 237.693 128.216 236.412C128.783 235.645 129.082 231.514 129.36 230.6C130.11 228.143 130.858 225.684 131.604 223.224C132.367 220.726 134.737 224.006 134.4 223.786L134.395 223.801Z" fill="#2E4112"/>
</g>
<path id="stem3" d="M233.096 351.761C224.712 349.591 222.674 333.392 214.891 314.661C209.431 301.517 204.675 290.43 194.893 278.807C191.53 274.813 185.845 268.155 176.557 262.045C165.91 255.041 160.386 255.241 148.034 248.452C142.539 245.431 135.021 240.66 126.848 233.171C127.371 232.35 127.889 231.529 128.412 230.708C132.127 234.022 138.203 238.93 146.562 243.353C161.433 251.228 169.938 250.382 181.602 258.633C186.813 262.319 190.171 266.454 196.883 274.725C206.762 286.901 211.289 295.763 222.815 315.878C226.892 322.99 232.959 339.883 240.624 352.651C238.703 353.36 236.151 352.548 233.091 351.756L233.096 351.761Z" fill="#2A3F11"/>
</g>
<g id="m-leaf-back">
<path id="stem4" d="M256.525 66.2825C257.112 83.7036 257.352 110.637 254.761 143.456C250.415 198.486 241.914 221.792 238.673 272.648C237.402 292.566 236.625 321.685 239.69 357.485C234.088 359.328 229.835 359.411 228.701 357.456C223.979 349.312 227.591 313.531 232.348 238.617C234.2 209.41 238.781 197.801 243.219 173.586C247.404 150.763 245.649 145.254 248.235 126.988C250.479 111.165 251.627 88.0882 245.58 58.7695C249.227 61.2722 252.874 63.7749 256.521 66.2776L256.525 66.2825Z" fill="#384F16"/>
<g id="leaf4">
<path id="Vector_12" d="M199.542 57.4155C201.409 55.5629 203.448 53.7983 205.892 52.8158C212.301 50.2446 219.438 53.6663 226.345 53.7836C227.332 53.7983 228.339 53.7494 229.297 53.9987C230.451 54.3017 231.439 55.0154 232.475 55.6069C236.41 57.8505 241.078 58.3344 245.59 58.7743C242.735 54.7319 238.165 52.9771 233.325 51.9457C231.478 51.5498 229.464 51.2418 228.144 49.8927C226.848 48.568 226.555 46.5297 226.814 44.6967C227.279 41.4021 229.258 38.4937 231.585 36.1132C243.117 24.3231 262.186 23.849 275.502 14.1119C278.596 11.8487 281.344 9.10653 284.624 7.12686C290.807 3.39725 297.847 0.180891 304.93 1.59843C312.013 3.01598 317.556 6.25678 323.569 10.2552C326.761 12.3767 329.782 14.5323 334.162 15.1433C338.063 15.6859 343.768 16.9812 347.297 18.7165C350.831 20.4518 353.647 24.9146 352.269 28.6002C352.22 28.7273 351.99 29.4898 351.706 30.3013C352.425 30.5994 353.153 30.9367 353.901 31.3131C355.563 32.1538 359.313 37.2228 359.938 38.9727C362.769 46.911 362.984 50.9827 365.814 58.9259C357.773 54.248 348.47 52.0386 339.187 51.3933C329.904 50.7481 320.587 51.6133 311.348 52.7425C306.983 53.2752 302.085 54.1942 299.67 57.8652C299.998 59.0725 301.65 59.1849 302.891 59.0187C314.78 57.435 326.815 53.8227 338.547 56.3059C341.783 56.9902 344.897 58.1242 348.079 59.0236C353.735 60.622 359.591 61.4677 365.169 63.3154C370.746 65.1631 376.192 68.1839 379.457 73.072C373.899 68.2817 366.254 66.869 358.97 65.9745C348.06 64.6303 337.056 64.0388 326.062 64.205C339.031 66.214 352.005 68.223 364.973 70.232C367.29 70.5888 369.739 71.0141 371.494 72.5685C373.89 74.6948 374.261 78.2876 373.987 81.4795C373.714 84.6714 372.971 87.922 373.763 91.0259C374.427 93.6264 376.133 95.8749 378.191 97.6004C373.953 96.5201 367.696 99.5019 370.15 105.148C370.746 107.919 360.349 100.479 356.639 100.558C352.928 100.636 354.16 101.438 350.826 103.07C348.309 104.302 344.623 104.268 342.653 106.262C340.248 108.691 336.518 109.488 333.15 108.907C329.782 108.325 326.732 106.531 324.058 104.395C323.173 103.691 322.313 102.928 321.702 101.975C320.89 100.699 320.592 99.1744 320.23 97.703C319.077 93.0154 316.716 88.1077 312.257 86.2503C311.47 85.9228 310.581 85.6979 309.764 85.9521C308.308 86.4067 307.672 88.2544 308.049 89.7306C308.425 91.2117 309.52 92.3848 310.605 93.4602C318.5 101.262 327.885 107.362 337.198 113.404C339.534 115.808 320.695 108.247 312.086 108.041C306.802 107.914 300.975 108.227 296.864 104.903C294.283 102.821 292.861 99.6192 291.942 96.4321C291.023 93.2451 290.504 89.931 289.268 86.8515C288.031 83.772 285.914 80.844 282.825 79.6269C279.74 78.4049 275.654 80.6436 276.313 83.8942C277.428 89.3933 280.058 92.4923 282.629 95.7869C290.26 105.563 290.793 115.53 300.384 123.395C301.752 125.096 295.916 121.22 293.52 120.653C281.334 117.759 268.482 119.064 256.222 116.503C244.036 113.956 232.7 107.513 224.272 98.3483C222.933 96.8916 221.618 95.2688 221.285 93.3184C220.694 89.8626 223.304 86.7586 225.729 84.2217C227.547 82.3154 229.366 80.4139 231.189 78.5075C231.742 77.9307 232.328 77.266 232.328 76.4692C232.328 75.3498 231.096 74.5482 229.982 74.6117C228.867 74.6753 227.885 75.3449 227.015 76.0439C221.261 80.6436 217.365 87.5016 216.348 94.7995C211.039 91.1677 206.244 86.8368 201.473 82.5255C197.597 79.0208 193.437 74.9392 193.207 69.7188C193.001 64.9675 196.174 60.7589 199.552 57.4106L199.542 57.4155ZM313.919 29.5778C321.027 28.3851 328.281 28.522 335.487 28.6637C339.813 28.7468 341.959 28.7664 346.28 28.9082C346.667 28.9228 347.077 28.9717 347.498 29.0401C346.715 28.2971 345.977 27.6666 345.552 27.4906C328.805 20.6229 311.94 23.1793 296.092 31.929C294.488 32.8137 292.729 34.1189 292.797 35.947C299.699 33.3808 306.655 30.795 313.919 29.5778ZM265.061 38.9532C265.442 40.1752 266.649 41.2066 267.915 41.0208C268.605 40.9182 269.196 40.4929 269.744 40.0628C274.075 36.6411 277.335 32.0756 281.07 28.0087C284.805 23.9419 289.346 20.2074 294.791 19.2884C296.801 18.9511 300.374 19.22 301.708 17.4652C300.579 16.7857 299.005 16.947 297.705 16.7613C295.226 16.3996 292.875 15.4562 290.387 15.1678C286.11 14.6741 281.813 16.424 278.396 19.0391C274.979 21.6542 272.29 25.0906 269.641 28.4878C268.008 30.5848 266.351 32.7209 265.408 35.204C264.953 36.4016 264.674 37.7311 265.056 38.9532H265.061Z" fill="#2A3F11"/>
<path id="Vector_13" d="M308.606 74.9343C313.489 76.7771 333.326 84.6421 338.953 87.1301C340.522 87.8242 342.629 89.843 348.539 91.9106C349.047 92.0866 347.791 90.8695 347.61 90.7571C334.671 82.6477 309.789 74.1718 299.729 69.8165C307.853 66.8739 317.336 63.9117 325.925 62.9439C316.002 62.9243 305.922 65.1728 296.796 69.0589C288.857 67.7342 280.938 66.0625 271.973 64.1952C294.86 48.8466 301.928 44.0905 318.529 41.6465C310.478 41.5829 302.417 43.5088 295.261 47.2042C292.729 48.5142 290.319 50.0344 287.909 51.5546C286.139 52.6691 284.369 53.7885 282.6 54.903C279.682 56.7409 276.768 58.5837 273.869 60.4509C272.809 61.1353 270.883 63.1834 269.646 63.4424C269.646 63.4424 264.987 62.6164 263.125 61.8636C272.681 55.1718 283.778 47.6051 293.34 40.9084C294.166 40.3316 295.002 39.7401 295.637 38.958C284.36 43.46 265.554 58.921 261.125 61.2673C260.842 61.4188 259.072 61.0962 259.292 60.8615C262.523 57.4594 266.141 54.4386 269.788 51.8528C271.596 50.5721 274.045 47.5904 275.693 46.1093C278.689 43.416 281.202 38.8603 283.978 35.9421C290.392 29.2063 297.504 26.7232 305.844 23.5606C308.484 22.5585 311.51 21.5125 314.335 21.3903C316.237 21.3072 319.566 21.8351 321.086 20.6815C309.857 18.8973 298.927 24.5333 288.955 29.9933C287.141 30.9856 285.298 31.9974 283.832 33.4541C282.551 34.7201 281.603 36.2745 280.586 37.7605C275.233 45.5765 267.827 51.711 260.519 57.7429C259.375 58.6863 256.755 60.7491 255.46 60.0355C254.722 51.9408 254.375 42.5166 256.398 34.3241C257.454 30.0471 262.015 27.5932 265.769 25.2861C266.811 24.6457 268.023 23.5704 267.539 22.451L257.303 30.4772C256.403 31.1811 255.709 32.1245 255.323 33.2048C254.008 36.8708 253.671 39.0949 253.666 42.2135C253.651 48.0694 253.93 54.3506 254.145 60.2017C254.155 60.4656 253.456 60.407 253.456 60.407C249.501 55.7095 246.372 52.107 241.166 48.0059C244.168 51.3102 244.715 51.6133 247.805 55.1425C248.67 56.1299 253.461 60.4069 251.637 60.8518L244.344 56.0028C243.884 55.7926 243.122 56.0517 243.479 56.4085L249.809 61.1206C245.077 62.675 239.319 62.372 234.357 62.8363C226.536 63.5695 219.144 68.0324 214.857 74.6166C220.327 68.0861 228.584 63.9704 237.094 63.5304C239.788 63.3936 242.506 63.5989 245.165 63.1541C248.367 62.6164 251.647 61.1451 254.722 62.1764C255.924 62.9096 253.754 63.5793 253.001 64.117C247.008 68.4185 242.75 72.5929 239.944 78.5906C237.138 84.5883 235.711 91.1188 234.303 97.5857C236.992 87.8047 239.964 77.5299 247.243 70.4617C249.437 68.3354 251.95 66.5708 254.458 64.8209C255.289 64.2392 256.174 63.638 257.181 63.5451C257.865 63.4816 258.544 63.6624 259.209 63.8384C261.619 64.4836 264.034 65.124 266.444 65.7692C266.375 66.4682 266.175 66.9423 265.857 67.5435C265.799 67.6413 265.774 67.7782 265.686 67.9346C262.343 73.7954 261.531 80.0522 262.47 86.8319C263.154 91.7836 264.792 96.5543 267.119 100.978C269.133 104.796 271.518 108.955 275.36 111.199C267.871 102.963 263.736 91.7689 264.068 80.6436C264.146 78.048 264.464 75.4231 265.413 73.0035C266.219 70.9457 267.461 69.0882 268.688 67.2454C268.859 66.9863 269.049 66.7175 269.333 66.5855C269.641 66.4437 269.998 66.5024 270.335 66.561C274.089 67.2209 278.044 67.6266 281.774 68.4234C283.881 68.8731 287.943 70.0511 287.943 70.0511C289.453 71.5713 290.372 72.6516 291.458 75.2961C293.736 79.8469 295.153 82.6331 296.4 87.57C296.933 89.6915 297.544 95.3861 299.572 96.2122C298.536 94.9315 298.389 93.1815 298.164 91.5489C297.172 84.2608 293.97 77.4908 290.812 70.8528C293.022 70.7844 295.187 71.3905 297.309 71.9917C300.824 72.984 305.218 73.6439 308.635 74.9392L308.606 74.9343Z" fill="#384F16"/>
</g>
</g>
<g id="m-leaf-mid">
<path id="stem2" d="M222.903 345.974C222.395 338.265 221.413 338.192 219.917 317.417C219.829 316.2 219.496 312.847 218.832 306.146C216.866 286.349 215.899 278.934 215.165 271.377C213.987 259.303 213.792 250.514 213.401 232.942C212.961 213.35 213.596 215.716 213.401 186.632C213.229 161.781 212.677 146.599 208.542 127.555C207.843 124.328 207.187 121.689 206.748 119.949C205.325 119.895 203.898 119.836 202.475 119.778C204.02 127.251 205.589 136.319 206.748 146.701C207.544 153.862 208.664 164.225 208.542 177.53C208.424 190.396 207.271 192.102 206.811 209.278C206.616 216.713 206.684 221.802 206.811 230.669C206.958 241.031 207.178 256.385 208.542 274.06C209.827 290.729 210.805 292.268 212.35 308.287C213.435 319.534 214.608 335.963 214.554 356.331C218.181 357.392 222.537 358.213 223.925 356.331C225.118 354.718 223.119 349.151 222.908 345.974H222.903Z" fill="#2A3F11"/>
<g id="leaf2">
<path id="Vector_14" d="M202.798 116.405C204.602 109.762 206.909 103.256 209.69 96.96C212.296 91.065 215.679 84.9842 221.457 82.1198C224.658 80.5312 228.3 80.1059 231.864 79.8175C240.531 79.1234 249.501 79.1821 257.591 82.3593C265.681 85.5366 272.789 92.3799 274.187 100.963C269.343 98.6513 264.454 96.3246 259.243 95.0439C254.032 93.7632 248.401 93.5873 243.395 95.5327C242.486 95.8847 241.557 96.3441 241.015 97.1556C240.472 97.967 240.472 99.2183 241.259 99.7951C241.768 100.172 242.452 100.181 243.083 100.176C251.026 100.137 258.97 100.445 266.884 101.095C268.551 101.232 270.242 101.394 271.797 102.005C273.503 102.679 274.959 103.872 276.25 105.182C284.115 113.174 286.09 125.081 287.679 136.182C287.889 137.653 287.977 139.447 286.77 140.317C283.333 138.543 280.884 135.356 277.941 132.843C270.394 126.386 259.996 124.627 250.127 123.488C243.498 122.72 236.845 122.124 230.187 121.699C247.228 128.987 265.789 132.012 283.157 138.484C284.697 139.056 286.33 139.741 287.2 141.134C287.821 142.121 287.962 143.328 288.085 144.492C288.539 148.696 288.984 153.017 287.914 157.108C286.779 161.449 284.018 165.217 282.776 169.529C281.339 174.514 281.842 180.37 278.42 184.271C276.191 178.659 276.196 171.948 272.188 167.436C269.836 164.787 266.429 163.326 263.755 160.999C261.624 159.151 260.001 156.785 257.938 154.859C255.993 153.041 253.7 151.648 251.354 150.387C244.495 146.701 237.06 144.086 229.405 142.659C229.42 144.076 230.989 144.888 232.323 145.362C237.617 147.244 243.019 148.896 248.025 151.443C256.892 155.959 264.112 163.071 271.186 170.066C272.105 170.975 273.043 171.914 273.537 173.107C274.989 176.626 272.1 180.258 270.115 183.513C268.077 186.857 266.884 190.645 265.105 194.14C263.325 197.635 260.734 200.978 257.049 202.313C255.191 196.105 253.338 189.892 251.481 183.684C250.537 180.522 249.579 177.335 248.02 174.426C244.916 168.654 239.656 164.396 234.425 160.442C232.563 159.034 230.231 157.577 228.061 158.428C228.09 161.062 229.908 163.296 231.634 165.286C234.034 168.052 236.43 170.824 238.83 173.591C242.071 177.33 245.341 181.118 247.643 185.498C250.899 191.691 252.053 198.965 250.884 205.867C248.621 219.235 225.221 217.324 217.908 228.743C216.055 222.212 209.676 218.229 203.976 214.548C198.276 210.867 192.229 205.964 191.804 199.185C191.599 195.875 192.811 192.664 194.004 189.57C197.611 180.219 201.219 170.863 204.826 161.512C205.477 159.826 206.136 158.056 205.931 156.262C205.726 154.468 204.338 152.67 202.534 152.655C201.713 152.65 200.93 153.002 200.226 153.422C195.978 155.959 193.833 160.842 191.951 165.418C189.951 170.267 187.952 175.12 185.957 179.969C184.437 183.665 182.902 187.399 182.272 191.344C181.294 197.474 182.628 203.946 185.953 209.186C179.402 208.506 173.741 204.503 168.418 200.627C164.928 198.09 161.208 195.225 160.093 191.061C157.341 192.737 156.354 196.75 158.006 199.517C151.514 194.995 150.229 185.434 153.137 178.078C156.046 170.721 162.171 165.163 168.389 160.28C174.607 155.397 181.245 150.783 185.865 144.365C186.26 143.812 186.656 143.216 186.74 142.541C186.94 140.904 185.161 139.579 183.513 139.609C181.866 139.638 180.394 140.586 179.021 141.5C164.537 151.149 149.49 161.405 141.219 176.714C138.668 171.772 136.365 166.708 134.327 161.537C133.11 158.447 131.966 155.211 132.132 151.892C132.362 147.429 133.672 143.28 137.02 140.317C140.369 137.355 144.529 135.503 148.62 133.689C142.353 131.514 134.679 135.019 132.225 141.183C129.609 134.76 126.98 127.52 129.595 121.097C132.347 114.337 139.953 110.989 147.085 109.434C152.071 108.344 157.175 107.807 162.278 107.821C161.824 103.764 149.021 106.428 142.911 108.872C139.65 110.177 154.516 94.7799 158.803 91.2165C161.961 88.5916 165.803 86.8221 169.533 85.1064C173.311 83.3663 177.633 82.6771 181.758 82.1198C185.884 81.5626 190.186 84.1484 193.212 87.003C199.014 92.4777 196.912 101.902 197.865 109.825C198.212 112.734 199.889 116.336 202.817 116.405H202.798Z" fill="#314914"/>
<path id="Vector_15" d="M217.702 197.63C217.815 201.13 218.602 204.825 217.345 208.095C216.568 194.243 215.19 180.424 213.21 166.693C207.877 170.467 206.948 171.787 204.171 178.479C203.16 180.913 203.096 179.774 200.334 190.098C200.495 180.4 205.081 171.357 212.198 164.768C210.365 155.666 208.019 147.488 206.63 139.301C200.114 141.754 193.989 147.19 189.066 152.112C187.688 153.496 186.305 154.894 185.214 156.516C183.308 159.352 182.193 162.949 179.28 164.733C180.223 162.182 181.719 159.87 183.313 157.66C185.703 154.356 188.343 151.237 190.983 148.128C193.407 145.264 195.387 143.763 198.755 141.471C200.593 140.215 203.208 138.215 205.682 137.463C204.753 132.897 204.46 132.218 203.78 128.601C203.731 128.332 203.467 126.944 203.267 126.621C203.248 126.587 203.203 126.572 203.164 126.577C191.286 127.638 184.55 130.135 173.829 134.676C168.922 136.754 161.628 141.539 156.784 144.106C168.462 131.714 186.045 126.044 202.954 124.05C202.925 122.613 202.759 121.18 202.465 119.773C202.426 119.587 202.382 119.396 202.255 119.259C202.099 119.088 201.854 119.04 201.625 119C193.021 117.466 184.33 115.921 175.604 116.4C174.401 116.468 173.189 116.571 171.996 116.4C175.364 115.183 179.055 115.373 182.633 115.574C186.392 115.789 190.157 116.004 193.862 116.683C196.834 117.231 199.894 118.072 202.832 117.358C201.321 116.757 199.86 115.975 198.667 114.87C197.636 113.912 196.839 112.744 195.964 111.639C192.562 107.337 188.05 104.072 183.601 100.866C189.868 103.554 195.28 108.193 198.892 113.975C199.307 114.64 199.928 114.968 200.5 115.501C201.072 116.033 202.021 116.547 202.788 116.4C203.16 116.327 203.575 113.115 203.81 112.827C204.211 112.338 204.949 113.12 205.046 113.746C205.144 114.371 204.998 115.041 205.257 115.618C205.755 116.732 207.466 116.703 208.395 115.911C209.324 115.119 209.519 113.765 210.267 112.802C212.677 109.703 214.085 109.004 217.683 106.961C221.281 104.918 225.846 102.66 228.427 99.4236C229.146 98.5242 231.077 95.391 232.133 95.8358C230.207 99.0277 227.611 101.819 224.566 103.97C221.916 105.842 218.944 107.22 216.304 109.102C213.665 110.984 211.274 113.516 210.556 116.683C210.512 116.879 210.477 117.089 210.565 117.27C210.683 117.514 210.981 117.602 211.245 117.661C213.322 118.14 215.439 118.477 217.502 119.02C220.43 119.792 223.348 121.107 226.135 122.29C219.961 120.521 212.897 119.098 206.493 118.609C206.464 119.748 206.674 121.19 206.645 122.329C206.635 122.789 206.85 123.805 206.85 123.805C207.207 124.451 208.493 124.509 209.216 124.661C214.681 125.819 220.147 126.983 225.607 128.141C228.432 128.742 231.258 129.344 234.039 130.121C247.032 133.762 258.603 141.158 269.954 148.461C274.461 151.36 279.061 154.341 282.36 158.565C277.56 155.544 272.755 152.528 267.954 149.507C258.178 143.358 248.269 137.15 237.28 133.596C234.23 132.609 231.116 131.832 228.002 131.059C221.525 129.446 213.85 127.819 207.373 126.205C207.769 129.632 208.678 132.623 209.07 136.05C209.138 136.627 208.894 136.847 209.759 137.497C210.15 137.79 210.859 138.152 211.313 138.318C228.119 144.453 242.902 155.617 254.292 169.416C255.377 170.736 256.472 172.158 256.746 173.845C252.053 168.399 247.306 162.905 241.513 158.648C239.289 157.01 237.089 155.338 235.066 153.456C233.658 152.151 231.61 150.729 229.728 149.414C227.406 147.791 223.397 145.508 220.811 144.36C217.204 142.752 212.887 140.86 209.275 139.247C210.16 144.066 211.494 148.285 212.12 152.704C212.922 158.374 214.344 163.071 215.322 168.717C215.84 171.713 215.982 174.71 216.29 177.736C216.407 178.879 216.524 180.028 216.852 181.133C217.595 183.64 219.369 185.713 221.295 187.492C223.221 189.271 225.343 190.836 227.088 192.786C228.994 194.912 230.397 197.435 231.693 199.981C231.004 199.81 230.52 199.214 230.075 198.657C226.135 193.71 221.549 189.32 216.984 184.95C217.917 189.433 217.556 193.074 217.702 197.65V197.63Z" fill="#435F1A"/>
</g>
</g>
<g id="m-leaf-left">
<path id="stem5" d="M214.891 353.614C211.343 338.128 205.364 320.238 195.138 301.79C158.92 236.476 95.2786 210.852 71.6728 202.704C72.0541 201.203 72.4354 199.698 72.8167 198.197C74.9774 198.974 78.0815 200.113 81.7819 201.56C88.9042 204.341 112.026 213.365 132.308 226.005C159.751 243.109 177.901 264.318 183.738 271.504C213.073 307.612 229.732 353.506 223.544 357.48C222.464 358.174 220.176 357.91 214.891 353.609V353.614Z" fill="#384F16"/>
<g id="leaf5">
<path id="Vector_16" d="M101.457 171.083C110.12 168.844 120.439 168.991 126.681 175.394C131.614 180.453 132.704 188.093 132.65 195.157C132.547 207.983 129.477 220.78 123.739 232.257C124.79 224.515 121.764 216.562 116.685 210.618C111.606 204.674 104.645 200.587 97.3415 197.801C95.0782 196.936 91.8128 196.584 90.8938 198.828C90.1214 200.714 91.8373 202.621 93.3477 203.985C98.5343 208.672 103.188 213.951 107.196 219.68C109.152 222.476 111 225.517 111.322 228.909C111.659 232.419 110.31 235.884 108.555 238.944C104.4 246.174 97.757 251.942 90.0188 255.046C92.1208 244.189 91.3484 232.79 87.8092 222.31C87.1591 220.384 85.7073 218.087 83.7324 218.585C83.0284 223.83 84.2261 229.31 87.0565 233.782C88.1319 235.483 89.4566 237.087 90.0237 239.018C90.6592 241.178 90.2681 243.505 90.5516 245.739C90.9769 249.141 92.9518 252.426 92.2967 255.793C91.4853 259.968 88.3861 265.369 84.9985 267.94C80.0954 271.655 69.9375 278.567 63.8124 279.075C67.7768 276.328 72.059 269.04 72.7776 264.269C73.4962 259.499 72.3426 252.611 71.6924 247.836C70.8663 241.789 70.4947 238.714 66.6672 233.03C66.0366 232.096 63.4457 230.639 62.3214 230.718C59.5204 230.903 62.1259 237.703 61.9157 240.499C61.4171 247.132 62.1992 249.058 62.1895 255.71C62.1846 259.103 60.0777 263.8 58.7823 266.938C57.6677 269.636 55.6586 271.846 53.6886 273.992C50.4917 277.477 47.2018 281.035 43.0027 283.211C40.4461 284.535 37.5082 285.386 35.5969 287.542C33.2309 290.206 33.1918 294.629 35.5089 297.332C31.2218 296.716 30.5619 290.88 28.103 287.312C25.3607 283.333 19.8564 281.984 17.1189 278C14.1908 273.747 15.408 267.755 18.2824 263.468C21.1567 259.181 25.3998 256.028 29.0269 252.352C33.4753 247.841 37.034 242.454 39.4489 236.598C40.0062 235.244 40.3141 233.313 39.0187 232.634C38.1095 232.16 37.0194 232.678 36.1297 233.191C32.9132 235.043 29.6966 236.891 26.4801 238.744C20.487 242.19 14.3815 245.734 9.83042 250.935C5.27937 256.136 2.49304 263.404 4.3555 270.057C0.962997 264.699 -0.298203 258.032 0.899445 251.805C1.5887 248.232 3.04541 244.849 4.64389 241.584C6.20817 238.392 7.97287 235.205 10.6175 232.829C12.9101 230.771 15.7404 229.427 18.5268 228.112C26.3726 224.417 34.2135 220.717 42.0592 217.021C43.6577 216.268 45.3491 215.433 46.2535 213.917C47.1578 212.402 46.7961 210.007 45.1291 209.43C44.5132 209.22 43.8386 209.283 43.1934 209.362C25.3656 211.537 8.86743 222.721 0.254181 238.48C0.166183 224.075 8.17818 208.995 21.7287 204.112C31.8426 200.465 43.0223 202.826 53.7424 202.068C55.3311 201.956 57.4429 201.096 57.0665 199.546C56.8269 198.554 55.6684 198.143 54.6712 197.928C42.8463 195.377 29.9606 198.29 20.3795 205.676C20.1839 203.466 21.7091 201.453 23.4787 200.118C25.2483 198.784 27.3307 197.884 29.0269 196.462C32.7176 193.363 34.0961 188.269 37.3616 184.73C41.6829 180.053 48.9909 178.821 55.0036 180.928C61.0163 183.034 65.714 188.04 68.4465 193.788C70.0597 197.176 72.9487 199.962 75.3293 195.797C76.9229 193.011 76.1994 189.286 78.0277 186.3C82.9453 178.268 92.6438 173.356 101.462 171.078L101.457 171.083Z" fill="#2A3F11"/>
<path id="Vector_17" d="M74.029 199.302L72.5185 200.886C75.779 200.47 78.9369 202.034 81.8259 203.608C86.0397 205.901 90.2779 208.389 93.3526 212.069C96.3688 215.682 98.0503 220.198 99.6733 224.617C100.666 227.311 101.673 230.111 101.418 232.971C100.309 229.598 99.0133 226.284 97.5371 223.053C96.403 220.575 94.9609 215.12 93.0251 213.199C87.1884 207.396 81.7966 203.603 74.2832 202.401C73.1833 202.225 72.5087 202.225 71.4333 202.504C69.0576 203.115 67.5324 207.035 66.2663 209.142C69.1113 210.994 71.668 213.287 73.8188 215.907C78.277 221.342 80.9265 228.161 81.7477 235.141C82.5689 242.121 81.5962 249.258 79.3622 255.925C78.4823 254.518 79.2938 252.729 79.8168 251.155C80.7114 248.466 80.7407 235.987 80.0221 233.25C77.3384 223.029 78.5605 224.705 72.2643 216.224C71.8586 215.682 69.6686 212.607 65.7726 210.344C65.7726 210.344 64.4528 212.646 63.2747 214.064C61.51 216.19 60.0924 218.576 58.6894 220.951C57.0665 223.693 55.4435 226.436 53.8206 229.173C52.4421 231.505 51.0587 233.841 50.0224 236.344C47.6124 242.156 47.148 248.652 44.5866 254.4C42.773 258.477 39.9231 262.128 38.8379 266.459C39.5858 262.216 40.8714 258.066 42.6508 254.141C43.5404 252.186 44.5523 250.275 45.2611 248.246C46.0677 245.944 46.4637 243.519 47.0307 241.144C48.7661 233.846 52.0657 227.022 55.5706 220.389C49.5189 221.513 43.56 223.161 37.7917 225.306C35.0738 226.318 32.3901 227.047 29.6918 228.102C23.9529 230.346 18.4681 233.24 13.3794 236.715C14.2202 234.965 15.9555 233.856 17.6029 232.834C20.4577 231.069 22.11 230.718 26.6121 228.42C27.7169 227.853 30.3468 226.753 31.5493 226.44C34.9663 225.551 36.5746 224.485 39.9035 223.293C44.3079 221.714 47.2409 221.484 53.8304 219.035C54.4365 218.81 55.1258 218.854 55.6977 218.551C56.2843 218.238 56.7341 217.72 57.1496 217.197C59.5644 214.147 63.2355 210.119 64.9416 206.619C58.8898 206.341 52.1732 205.524 46.1899 205.627C40.2066 205.73 33.0794 206.869 27.58 209.23C27.2965 209.352 26.9054 209.454 26.7245 209.2C26.4801 208.863 26.9543 208.472 27.3454 208.325C35.8804 205.182 45.1243 203.985 54.1775 204.85C58.3375 205.251 62.8689 205.998 66.4277 203.809C68.7692 202.367 70.2846 199.409 70.3677 196.657C72.1275 198.53 74.2343 198.187 75.3538 195.797C74.9431 196.325 74.5178 198.813 74.0535 199.302H74.029Z" fill="#384F16"/>
</g>
</g>
<g id="m-leaf-front">
<path id="stem7" d="M205.398 353.614C207.559 298.677 199.601 256.805 191.95 228.743C186.862 210.08 181.7 196.755 145.604 101.276C141.478 90.366 128.876 56.9999 124.824 46.2706C126.623 46.6421 128.422 47.0185 130.22 47.39C133.545 57.7234 138.687 72.9155 145.77 90.9868C161.056 129.979 169.64 142.209 181.221 169.773C197.787 209.215 204.318 241.589 208.825 264.558C215.81 300.153 223.251 357.304 213.889 359.929C211.245 360.672 207.852 356.908 205.398 353.619V353.614Z" fill="#384F16"/>
<g id="leaf7">
<g id="Group">
<path id="Vector_18" d="M13.0959 96.9258C18.9326 88.7236 23.6889 85.3117 33.8762 81.24C45.3883 76.6354 65.3718 73.6097 77.6758 72.0748C83.4636 71.3514 91.2605 74.8023 95.0538 70.3737C95.5915 69.7481 96.0853 69.01 96.0804 68.1839C96.0657 66.214 93.5433 65.4612 91.5831 65.2804C78.7756 64.0926 65.6749 62.9243 53.1901 66.038C45.8038 67.8808 38.8721 71.1656 31.9942 74.4357C23.6449 78.4049 14.8117 82.7993 10.1091 90.757C10.4904 77.3295 16.2977 65.0995 23.4836 53.7494C24.7839 51.6964 26.3824 49.0813 28.5088 47.5024C30.5962 45.948 32.0382 45.3468 34.3504 43.8363C39.4636 40.4978 46.19 39.9454 52.2808 40.3756C64.0862 41.2017 77.7589 45.8649 89.5642 46.691C95.2836 47.0918 100.969 50.5281 106.6 49.4625C107.216 49.3452 107.895 49.1692 108.238 48.6413C108.687 47.9374 108.311 47.0087 107.856 46.3097C104.953 41.8567 99.5071 39.9259 94.4477 38.2835C87.5796 36.0545 80.643 33.806 73.4571 33.0581C66.6428 32.3493 59.7698 33.0043 52.9652 33.7767C47.0112 34.4512 40.935 35.2626 35.6018 37.9902C38.6521 36.5287 40.7346 33.6594 42.9001 31.0638C56.2697 15.0455 76.6394 6.39851 97.0434 2.03345C104.058 0.532808 111.371 -0.527906 118.376 1.03139C125.381 2.59069 132.068 7.25881 134.253 14.0924C135.803 18.9413 134.957 24.2351 133.52 29.1183C132.083 34.0015 130.064 38.743 129.243 43.763C129.028 45.0828 129.966 47.2678 130.988 46.4026C133.046 44.6673 133.941 41.9642 135.119 39.5446C139.924 29.6756 150.903 23.3846 161.882 23.4775C166.785 23.5215 171.674 24.7239 176.034 26.9676C185.61 31.8899 192.224 41.798 193.969 52.4247C195.715 63.0514 192.811 74.1962 186.842 83.1561C186.436 80.2428 186.93 77.1828 185.962 74.4064C184.833 71.1656 181.846 68.8536 178.62 67.6853C175.394 66.517 171.908 66.3313 168.482 66.1504C161.462 65.7887 154.442 65.427 147.423 65.0653C146.596 65.0213 145.673 65.0115 145.071 65.5785C144.255 66.3362 144.519 67.7733 145.311 68.5554C146.103 69.3375 147.242 69.6357 148.322 69.9094C159.184 72.7005 164.488 71.2634 174.656 75.995C176.156 76.694 183.073 82.7699 183.704 84.295C185.938 89.6963 187.106 95.8602 185.674 101.53C184.246 107.201 181.318 112.357 178.42 117.436C175.575 122.432 170.163 131.299 167.318 136.294C165.69 119.792 155.171 102.176 142.466 91.3974C139.86 89.1831 137.079 87.0959 133.887 85.8641C131.418 84.9109 127.874 84.9598 126.96 87.438C126.471 88.7627 127.028 90.2878 127.952 91.3534C128.881 92.419 130.133 93.1424 131.316 93.9148C138.506 98.6122 148.131 106.58 152.917 113.712C156.979 119.768 158.72 125.052 160.895 132.012C163.07 138.973 161.154 146.911 158.123 153.544C157.097 155.793 155.718 157.856 154.344 159.909C148.444 168.727 141.835 176.445 133.022 182.36C124.213 188.269 113.801 192.023 103.193 192.097C108.785 186.871 114.25 181.25 117.496 174.324C120.742 167.392 121.241 159.097 118.479 151.956C114.91 142.727 113.703 136.397 105.544 130.805C103.882 129.666 101.194 128.928 100.187 130.673C99.8493 131.26 99.8346 131.978 99.8591 132.658C100.069 138.597 102.484 144.233 103.335 150.118C105.124 162.495 99.9275 174.695 94.8485 186.124C93.0594 190.146 91.1334 194.35 87.604 196.99C84.3826 199.4 80.2666 200.172 76.4586 201.472C72.6506 202.772 68.7154 205.026 67.464 208.853C67.86 201.927 64.5506 195.313 60.6057 189.609C56.6559 183.899 51.9582 178.655 48.9274 172.408C45.8967 166.166 44.7577 158.452 48.1844 152.415C51.6942 146.227 58.8996 143.353 64.5261 138.993C70.177 134.613 74.4104 128.43 76.4488 121.576C76.6101 121.029 76.7519 120.413 76.4781 119.914C76.0186 119.079 74.8014 119.162 73.8873 119.431C69.3069 120.77 65.3718 123.732 61.8669 126.973C56.1035 132.296 51.1907 138.528 47.3583 145.376C45.4029 148.876 43.6774 152.596 40.8568 155.441C38.222 158.1 34.5508 160.178 32.7959 163.282C33.3483 160.495 32.5026 157.387 31.3294 154.703C29.8091 151.223 27.7609 147.806 27.6485 144.013C27.4774 138.083 29.247 133.205 32.2973 128.117C39.097 116.767 56.0498 109.649 66.4375 104.561C73.99 100.856 80.2568 102.64 86.6214 97.136C87.4573 96.4126 88.2932 95.5767 88.5279 94.5013C88.8994 92.8149 87.5991 91.1139 86.0006 90.4638C84.4021 89.8088 82.6032 89.9554 80.8923 90.1803C75.9942 90.8304 71.1792 92.0573 66.545 93.7681C45.0314 101.721 27.9467 120.731 22.33 142.967C18.7175 136.583 12.3187 131.064 11.0428 123.84C9.76694 116.615 8.82349 102.928 13.0812 96.9503L13.0959 96.9258ZM137.304 145.856C138.418 149.61 137.255 155.891 138.321 154.82C139.895 153.246 139.714 145.733 139.816 143.617C140.046 138.792 140.589 131.631 136.722 127.442C134.234 124.749 128.075 122.701 126.852 125.726C124.169 132.384 132.777 130.644 137.304 145.86V145.856Z" fill="#3D5B19"/>
<path id="Vector_19" d="M32.8105 163.262C32.6492 164.083 32.3657 164.88 31.9307 165.628C32.092 164.768 32.3999 163.985 32.8105 163.262Z" fill="#3D5B19" stroke="#25350F" stroke-miterlimit="10"/>
</g>
<path id="Vector_20" d="M77.9691 131.216C70.0744 136.118 59.3005 148.08 57.35 157.167C57.5896 151.394 60.2781 145.934 63.9346 141.456C67.5911 136.979 72.1813 133.376 76.791 129.896C80.076 127.418 83.3951 124.988 86.7485 122.603C87.3254 122.192 87.912 121.772 88.3324 121.2C88.7821 120.589 88.9532 119.826 89.2171 119.118C91.0063 114.362 93.3967 110.837 95.1711 104.976C83.1703 108.266 70.9494 111.678 60.5666 118.531C58.4206 119.949 56.3528 121.513 54.6028 123.4C52.0218 126.171 50.0957 129.652 46.9037 131.69C51.1663 124.025 58.7139 118.844 65.9926 113.951C68.0213 112.587 70.0597 111.219 72.2595 110.148C74.2539 109.18 76.3608 108.471 78.4579 107.763C84.187 105.837 89.8722 103.104 95.6013 101.174C99.1991 94.9608 102.802 88.748 106.4 82.5304C96.6425 81.7287 94.7605 81.7923 85.1012 82.5402C80.6772 82.8823 68.5444 85.4779 64.2328 86.5337C53.1656 89.2417 43.6578 96.4272 32.7079 99.5654C37.5865 96.8769 42.465 94.1934 47.3436 91.5049C51.9142 88.9875 56.5239 86.4555 61.5149 84.9353C64.6092 83.9968 67.8062 83.4591 70.9983 82.9263C76.2679 82.0465 81.5376 81.1617 86.8072 80.2819C93.6802 79.1332 100.998 79.6806 107.92 80.5116C110.208 76.0879 113.219 72.4952 116.602 66.9814C117.384 65.7056 118.894 64.9528 119.437 63.5597C119.867 62.4648 120.718 60.231 121.847 60.5633C111.449 59.1702 101.047 57.7722 90.6494 56.3791C86.7779 55.861 82.9112 55.3429 79.0396 54.8198C75.6227 54.3604 72.1959 53.9009 68.7497 53.7494C66.0904 53.632 63.4214 53.7005 60.7621 53.8276C53.5616 54.1746 46.3806 54.9567 39.273 56.1738C46.4491 53.7445 54.0211 52.4882 61.598 52.4785C65.1861 52.4736 68.7692 52.7424 72.3426 53.0259C89.3784 54.3799 106.434 55.8268 123.411 57.8211C123.411 57.8211 124.545 56.6822 126.065 54.5852C126.256 54.3213 127.151 53.6516 127.327 53.373C127.512 53.0748 127.723 52.8646 127.928 52.5762C128.299 52.0532 128.373 51.7355 128.686 51.32C128.559 50.7139 127.864 50.445 127.273 50.2641C123.558 49.1155 120.234 45.9284 116.978 43.7972C110.12 39.3051 105.134 33.151 98.7787 27.9745C93.7877 23.9125 88.6794 19.6696 82.3441 17.9246C80.1004 17.3087 77.5976 16.0476 75.0801 15.9694C81.43 15.7054 87.6187 18.2423 92.9078 21.7568C98.197 25.2714 102.763 29.7537 107.539 33.9477C111.415 37.3498 115.443 40.576 119.466 43.7972C121.72 45.6009 124.472 46.7545 126.843 48.4018C127.341 48.7488 128.094 49.0617 128.48 48.5924C123.04 39.8672 117.599 31.142 112.153 22.4118C111.317 21.0676 110.477 19.7283 109.704 18.3499C108.262 15.7885 106.571 11.4772 104.85 9.09671C103.129 6.71621 101.282 6.24207 98.4561 5.44531C100.016 5.51863 101.638 5.61151 102.992 6.38382C104.268 7.11215 105.285 8.27551 105.994 9.56108C112.29 21.0139 116.289 27.4172 123.289 38.5816C124.496 40.5075 126.417 44.198 128.402 45.3076C126.867 43.0445 126.53 41.2114 125.987 38.5279C125.699 37.1054 125.743 35.7514 125.63 34.2997C125.259 29.5924 123.959 25.6673 122.932 21.0578C121.612 15.1286 120.248 8.35861 116.167 3.86157C117.897 3.99355 118.723 5.61151 119.52 7.15125C120.317 8.691 121.554 11.7167 121.901 13.4129C123.103 19.3519 124.926 23.5117 125.973 29.48C126.73 33.7962 127.366 36.5335 127.825 41.6807C128.363 45.2539 130.269 46.4857 131.775 48.2747C132.21 48.7928 132.674 49.3305 133.295 49.5945C134.596 50.1419 136.047 49.3354 137.152 48.4556C142.417 44.2616 145.883 37.6773 152.096 35.0818C146.851 41.754 140.721 47.737 133.926 52.8206C134.376 53.6272 135.485 53.7054 136.404 53.6369C140.858 53.3241 145.194 51.9945 149.652 51.755C156.842 51.3737 163.838 53.8422 170.613 56.2765C165.969 57.0537 161.589 54.0426 156.945 53.2605C149.652 52.0336 142.441 56.384 135.055 55.993C134.273 55.9539 132.313 54.1942 131.619 54.551C131.066 54.8345 130.01 56.6284 129.649 57.1319C128.299 58.9992 126.241 61.3748 124.897 63.242C132.117 67.4995 134.097 69.3912 139.968 74.9685C142.368 77.2513 149.319 85.0527 151.7 87.3549C154.159 89.7354 156.886 91.8275 159.819 93.5872C146.724 87.0323 132.215 68.0421 122.996 65.5541C117.428 73.0231 114.441 78.048 109.822 85.517C115.458 89.0853 121.177 94.384 124.917 99.4774C128.656 104.571 136.874 117.744 134.244 115.955C121.255 97.1018 118.821 95.1074 108.511 88.181C106.664 90.801 105.921 93.0642 105.921 93.0642C107.001 94.3107 110.051 97.5613 111.224 98.7197C112.227 99.7071 117.33 107.352 118.044 108.564C124.32 119.294 124.311 127.486 126.486 139.726C127.028 142.781 127.571 145.831 128.114 148.886C123.978 138.367 123.875 126.528 119.183 116.244C117.442 112.431 115.111 108.926 112.794 105.436C110.613 102.161 107.509 98.1087 104.699 95.3518C99.9617 102.161 97.5664 108.721 93.9539 115.603C92.8932 117.622 91.9644 119.523 91.0796 121.62C87.0614 131.186 83.0383 140.772 80.0759 150.714C77.1136 160.657 75.2316 171.005 75.5982 181.372C75.0312 180.766 74.8699 179.891 74.7623 179.065C73.1932 167.133 76.6395 155.162 80.2715 143.685C82.1682 137.692 84.1382 131.695 86.9196 126.054C83.8644 127.95 81.0194 129.285 77.9593 131.181L77.9691 131.216Z" fill="#577A23"/>
</g>
</g>
</g>
</g>
</g>
</svg>
