<svg width="283" height="431" viewBox="0 0 283 431" fill="none" xmlns="http://www.w3.org/2000/svg">
<g id="plant-on-legs 2" clip-path="url(#clip0_401_1489)">
<g id="back-branch">
<path id="Vector" d="M196.362 142C194.114 142.659 197.653 71.6189 180.7 78.9469C160.747 87.5812 149.474 91.5251 136.308 95.1953C121.991 99.2014 120.152 96.6012 112.396 101.416C103.974 106.654 99.316 114.019 96.8527 118.013C89.5598 129.82 87.9248 141.44 87.2901 146.354C85.2571 162.018 88.3873 174.422 90.2804 181.613C94.5938 198.035 98.3587 196.455 102.833 214.11C103.672 217.432 106.609 229.599 107.018 245.997C107.168 251.882 106.921 255.962 106.415 263.888C104.694 291.296 102.048 294.941 102.231 310.903" stroke="#536B1B" stroke-width="2" stroke-miterlimit="10"/>
<g id="leaf">
<path id="Vector_2" d="M132.016 293.712C132.005 293.725 130.585 291.038 127.745 290.192C125.992 289.669 124.691 290.291 121.668 291.436C116.15 293.513 113.385 294.546 111.374 294.322C110.729 294.247 106.211 293.65 104.242 289.557C102.93 286.832 103.414 283.921 103.715 282.117C103.963 280.624 104.587 277.178 107.276 274.391C107.652 274.005 110.815 270.833 115.15 271.194C115.935 271.256 118.71 271.604 123.12 276.419C129.918 283.846 132.016 293.712 132.005 293.725L132.016 293.712Z" fill="#A4B758" stroke="#536B1B" stroke-miterlimit="10"/>
<g id="Vector_3">
<path d="M107.781 280.288C109.438 280.002 111.6 279.853 114.052 280.226C118.796 280.948 122.227 283.262 124.088 284.767" fill="#A4B758"/>
<path d="M107.781 280.288C109.438 280.002 111.6 279.853 114.052 280.226C118.796 280.948 122.227 283.262 124.088 284.767" stroke="#536B1B" stroke-miterlimit="10"/>
</g>
<g id="Vector_4">
<path d="M114.805 288.151C114.235 286.857 112.858 284.108 111.492 282.478C110.653 281.47 109.814 280.686 109.072 280.077" fill="#A4B758"/>
<path d="M114.805 288.151C114.235 286.857 112.858 284.108 111.492 282.478C110.653 281.47 109.814 280.686 109.072 280.077" stroke="#536B1B" stroke-miterlimit="10"/>
</g>
<g id="Vector_5">
<path d="M114.02 280.188C115.063 279.318 117.43 277.576 119.312 276.804L114.02 280.188Z" fill="#A4B758"/>
<path d="M114.02 280.188C115.063 279.318 117.43 277.576 119.312 276.804" stroke="#536B1B" stroke-miterlimit="10"/>
</g>
</g>
<g id="leaf_2">
<path id="Vector_6" d="M66.175 250.986C66.8742 250.786 65.1209 246.034 67.4551 241.269C68.9072 238.32 70.9725 237.288 75.4903 234.501C83.7191 229.425 87.8388 226.887 89.8611 223.926C90.5065 222.98 101.64 211.31 99.7894 204.044C98.5524 199.205 97.1325 195.622 95.0027 193.992C93.2494 192.636 90.1085 189.612 84.3967 190.657C82.1593 191.068 72.8226 197.724 68.3371 203.957C67.5304 205.077 62.1413 211.932 61.98 223.291C61.7326 240.808 64.9488 251.346 66.1643 250.986H66.175Z" fill="#668124" stroke="#536B1B" stroke-miterlimit="10"/>
<path id="Vector_7" d="M93.4216 200.996C90.9799 202.352 87.9788 204.393 84.9669 207.466C79.1584 213.388 71.0156 225.605 69.6603 229.574" stroke="#536B1B" stroke-miterlimit="10"/>
<path id="Vector_8" d="M84.203 221.848C84.2782 219.384 84.2245 213.873 85.838 210.141C86.72 208.113 88.71 205.152 89.2478 203.559" stroke="#536B1B" stroke-miterlimit="10"/>
<path id="Vector_9" d="M90.9688 202.34C88.9035 202.265 80.7069 203.845 77.5983 204.778" stroke="#536B1B" stroke-miterlimit="10"/>
<path id="Vector_10" d="M81.2449 211.696C78.8139 211.92 73.371 216.212 70.2624 217.145" stroke="#536B1B" stroke-miterlimit="10"/>
</g>
<g id="leaf_3">
<path id="Vector_11" d="M127.552 210.626C127.154 210.899 125.992 206.383 123.002 204.33C121.152 203.049 119.797 203.547 116.645 204.243C110.89 205.512 108.018 206.134 105.899 205.201C105.221 204.903 95.4651 203.111 93.3246 196.704C91.8939 192.436 91.0657 188.978 91.3453 186.502C91.5712 184.462 92.464 181.762 95.4436 179.087C96.6161 178.029 102.78 175.877 107.33 177.706C108.147 178.042 113.364 179.771 118.086 187.958C125.368 200.561 128.251 210.165 127.563 210.638L127.552 210.626Z" fill="#7D9247" stroke="#536B1B" stroke-miterlimit="10"/>
<g id="Vector_12">
<path d="M95.2501 187.97C96.7668 187.771 98.8105 187.796 101.338 188.567C106.211 190.035 114.881 194.937 117.226 197.139" fill="#7D9247"/>
<path d="M95.2501 187.97C96.7668 187.771 98.8105 187.796 101.338 188.567C106.211 190.035 114.881 194.937 117.226 197.139" stroke="#536B1B" stroke-miterlimit="10"/>
</g>
<g id="Vector_13">
<path d="M108.707 199.752C108.459 197.849 106.878 194.539 105.361 192.337C104.533 191.13 102.941 189.687 102.382 188.679" fill="#7D9247"/>
<path d="M108.707 199.752C108.459 197.849 106.878 194.539 105.361 192.337C104.533 191.13 102.941 189.687 102.382 188.679" stroke="#536B1B" stroke-miterlimit="10"/>
</g>
<g id="Vector_14">
<path d="M98.0575 187.796C99.2085 186.838 104.189 184.636 106.146 184.076L98.0575 187.796Z" fill="#7D9247"/>
<path d="M98.0575 187.796C99.2085 186.838 104.189 184.636 106.146 184.076" stroke="#536B1B" stroke-miterlimit="10"/>
</g>
<g id="Vector_15">
<path d="M106.953 191.031C108.309 190.707 113.515 191.105 115.462 191.553L106.953 191.031Z" fill="#7D9247"/>
<path d="M106.953 191.031C108.309 190.707 113.515 191.105 115.462 191.553" stroke="#536B1B" stroke-miterlimit="10"/>
</g>
</g>
<g id="leaf_4">
<path id="Vector_16" d="M86.8968 284.841C87.3593 284.816 86.133 280.324 87.6067 276.667C88.521 274.402 89.8763 273.942 92.8236 272.474C98.2019 269.787 100.891 268.443 102.182 266.303C102.601 265.619 109.808 257.805 108.474 251.112C107.592 246.646 106.603 243.249 105.172 241.383C103.989 239.84 101.945 238.185 98.1804 237.899C96.7068 237.787 90.554 239.989 87.6712 244.456C87.1549 245.265 83.6805 250.079 83.7343 259.921C83.8096 275.087 86.09 284.89 86.886 284.841H86.8968Z" fill="#668124" stroke="#536B1B" stroke-miterlimit="10"/>
<path id="Vector_17" d="M102.655 245.14C101.31 245.962 99.6217 247.305 97.9006 249.582C94.5768 253.961 89.7794 263.628 88.9081 266.987" stroke="#536B1B" stroke-miterlimit="10"/>
<path id="Vector_18" d="M97.2231 263.616C96.5025 261.874 96.212 258.104 96.3949 255.305C96.4917 253.775 97.1156 251.535 97.0941 250.341" stroke="#536B1B" stroke-miterlimit="10"/>
<path id="Vector_19" d="M100.246 246.807C98.8257 246.77 93.641 248.163 91.7479 248.985" stroke="#536B1B" stroke-miterlimit="10"/>
<path id="Vector_20" d="M94.448 255.268C93.168 255.877 89.0482 259.585 87.6606 261.215" stroke="#536B1B" stroke-miterlimit="10"/>
</g>
<g id="leaf_5">
<path id="Vector_21" d="M155.433 133.452C156.025 133.39 154.433 125.913 156.885 122.305C158.402 120.065 160.198 117.092 164.243 113.882C170.643 108.793 172.256 108.258 174.257 106.106C174.892 105.409 183.282 97.0737 182.572 90.7411C182.099 86.5234 181.335 83.3385 179.775 81.6464C178.484 80.253 176.247 77.2546 171.428 77.2546C169.535 77.2546 161.123 81.3727 156.735 85.8765C155.939 86.6852 151.249 91.6866 149.334 101.005C145.666 118.821 154.379 133.564 155.422 133.452H155.433Z" fill="#A4B758" stroke="#536B1B" stroke-miterlimit="10"/>
<g id="Vector_22">
<path d="M177.818 82.082C175.537 83.575 172.751 85.7647 170.041 88.9248C164.834 95.0086 157.875 107.189 156.885 111.033" fill="#A4B758"/>
<path d="M177.818 82.082C175.537 83.575 172.751 85.7647 170.041 88.9248C164.834 95.0086 157.875 107.189 156.885 111.033" stroke="#536B1B" stroke-miterlimit="10"/>
</g>
<g id="Vector_23">
<path d="M165.394 106.828C164.92 104.974 165.361 100.682 166.168 97.4097C166.609 95.6181 167.792 92.9059 168.018 91.5249" fill="#A4B758"/>
<path d="M165.394 106.828C164.92 104.974 165.361 100.682 166.168 97.4097C166.609 95.6181 167.792 92.9059 168.018 91.5249" stroke="#536B1B" stroke-miterlimit="10"/>
</g>
<g id="Vector_24">
<path d="M172.805 86.0881C171.095 86.225 164.426 88.3525 161.919 89.4349L172.805 86.0881Z" fill="#A4B758"/>
<path d="M172.805 86.0881C171.095 86.225 164.426 88.3525 161.919 89.4349" stroke="#536B1B" stroke-miterlimit="10"/>
</g>
<g id="Vector_25">
<path d="M163.802 97.4592C162.468 97.6334 157.563 99.8106 155.767 100.905L163.802 97.4592Z" fill="#A4B758"/>
<path d="M163.802 97.4592C162.468 97.6334 157.563 99.8106 155.767 100.905" stroke="#536B1B" stroke-miterlimit="10"/>
</g>
</g>
<g id="leaf_6">
<path id="Vector_26" d="M162.834 41.859C162.694 42.2446 165.77 44.1606 167.427 47.6691C168.459 49.8463 168.266 51.2148 168.137 54.4869C167.9 60.4588 167.782 63.4447 168.61 65.8583C168.879 66.6297 171.052 77.3417 175.462 80.5889C178.409 82.7537 180.754 84.1595 182.346 84.2217C183.659 84.2839 185.928 84.371 187.768 81.9201C191.177 77.4039 190.553 70.4243 188.886 65.2736C188.585 64.3405 187.961 58.9534 182.12 52.6705C173.117 42.9911 163.06 41.1747 162.823 41.8465L162.834 41.859Z" fill="#7D9247" stroke="#536B1B" stroke-miterlimit="10"/>
<g id="Vector_27">
<path d="M183.691 82.3929C183.54 80.4271 182.884 74.2438 181.776 70.7478C179.657 64.017 176.032 54.7233 172.192 51.5259" fill="#7D9247"/>
<path d="M183.691 82.3929C183.54 80.4271 182.884 74.2438 181.776 70.7478C179.657 64.017 176.032 54.7233 172.192 51.5259" stroke="#536B1B" stroke-miterlimit="10"/>
</g>
<g id="Vector_28">
<path d="M173.042 63.3452C174.343 63.7309 176.828 65.5349 178.56 67.1896C179.507 68.0978 180.776 69.7774 181.54 70.3995" fill="#7D9247"/>
<path d="M173.042 63.3452C174.343 63.7309 176.828 65.5349 178.56 67.1896C179.507 68.0978 180.776 69.7774 181.54 70.3995" stroke="#536B1B" stroke-miterlimit="10"/>
</g>
<g id="Vector_29">
<path d="M181.948 71.8176C182.572 70.9218 184.003 66.4678 184.347 64.6265L181.948 71.8176Z" fill="#7D9247"/>
<path d="M181.948 71.8176C182.572 70.9218 184.003 66.4678 184.347 64.6265" stroke="#536B1B" stroke-miterlimit="10"/>
</g>
<g id="Vector_30">
<path d="M183.433 79.2825C182.368 78.8346 178.528 75.7865 177.14 74.418L183.433 79.2825Z" fill="#7D9247"/>
<path d="M183.433 79.2825C182.368 78.8346 178.528 75.7865 177.14 74.418" stroke="#536B1B" stroke-miterlimit="10"/>
</g>
<g id="Vector_31">
<path d="M177.527 59.4758C177.732 58.3063 177.312 53.3298 176.936 51.3765L177.527 59.4758Z" fill="#7D9247"/>
<path d="M177.527 59.4758C177.732 58.3063 177.312 53.3298 176.936 51.3765" stroke="#536B1B" stroke-miterlimit="10"/>
</g>
</g>
<g id="leaf_7">
<path id="Vector_32" d="M137.147 153.259C136.631 153.122 136.727 149.041 133.619 145.694C130.51 142.348 127.423 142.348 123.658 140.817C116.171 137.794 111.74 135.443 109.954 132.892C109.384 132.071 101.306 123.312 101.725 116.507C102.005 111.966 103.662 106.915 104.963 105.235C106.028 103.854 107.889 101.478 112.019 101.329C119.657 101.055 126.369 106.641 130.284 111.991C130.994 112.961 136.06 117.415 137.566 127.829C139.89 143.865 138.05 153.483 137.147 153.259Z" fill="#7D9247" stroke="#536B1B" stroke-miterlimit="10"/>
<g id="Vector_33">
<path d="M105.092 108.744C107.254 109.776 113.923 113.235 117.215 116.084C123.572 121.558 131.898 129.969 133.059 135.99" fill="#7D9247"/>
<path d="M105.092 108.744C107.254 109.776 113.923 113.235 117.215 116.084C123.572 121.558 131.898 129.969 133.059 135.99" stroke="#536B1B" stroke-miterlimit="10"/>
</g>
<g id="Vector_34">
<path d="M117.893 128.351C116.924 126.946 116.042 123.263 115.774 120.314C115.623 118.709 115.87 116.122 115.655 114.915" fill="#7D9247"/>
<path d="M117.893 128.351C116.924 126.946 116.042 123.263 115.774 120.314C115.623 118.709 115.87 116.122 115.655 114.915" stroke="#536B1B" stroke-miterlimit="10"/>
</g>
<g id="Vector_35">
<path d="M110.686 111.792C112.03 111.418 117.645 111.58 119.818 111.941L110.686 111.792Z" fill="#7D9247"/>
<path d="M110.686 111.792C112.03 111.418 117.645 111.58 119.818 111.941" stroke="#536B1B" stroke-miterlimit="10"/>
</g>
<g id="Vector_36">
<path d="M120.474 119.344C121.754 119.157 127.122 119.393 129.219 119.667L120.474 119.344Z" fill="#7D9247"/>
<path d="M120.474 119.344C121.754 119.157 127.122 119.393 129.219 119.667" stroke="#536B1B" stroke-miterlimit="10"/>
</g>
<g id="Vector_37">
<path d="M108.48 110.398C108.308 111.879 109.309 117.851 109.986 120.128L108.48 110.398Z" fill="#7D9247"/>
<path d="M108.48 110.398C108.308 111.879 109.309 117.851 109.986 120.128" stroke="#536B1B" stroke-miterlimit="10"/>
</g>
<g id="Vector_38">
<path d="M126.154 134.037C125.562 132.457 124.637 125.701 124.529 123.051L126.154 134.037Z" fill="#7D9247"/>
<path d="M126.154 134.037C125.562 132.457 124.637 125.701 124.529 123.051" stroke="#536B1B" stroke-miterlimit="10"/>
</g>
</g>
<g id="leaf_8">
<path id="Vector_39" d="M132.059 184.051C131.532 184.076 130.188 180.991 126.939 177.83C123.691 174.67 121.066 173.302 117.075 172.978C109.158 172.331 96.8959 174.073 94.153 173.24C91.012 172.294 85.0852 167.069 84.0848 160.338C83.2243 154.565 86.3007 147.374 87.1719 145.371C87.8926 143.716 91.0013 141.352 95.3577 140.681C102.93 139.524 109.449 142.136 114.451 146.105C115.354 146.827 121.722 150.758 125.541 160.338C131.425 175.106 132.974 183.989 132.048 184.051H132.059Z" fill="#668124" stroke="#536B1B" stroke-miterlimit="10"/>
<path id="Vector_40" d="M87.8493 155.784C90.1835 155.784 97.4872 156.058 101.478 157.24C109.158 159.504 119.614 163.622 122.679 168.686" stroke="#536B1B" stroke-miterlimit="10"/>
<path id="Vector_41" d="M102.876 168.362C101.618 167.305 99.9292 164.008 99.0041 161.258C98.4985 159.753 98.1436 157.178 97.6595 156.095" stroke="#536B1B" stroke-miterlimit="10"/>
<path id="Vector_42" d="M89.0865 155.784C90.1514 154.403 93.3676 149.19 98.875 147.66" stroke="#536B1B" stroke-miterlimit="10"/>
<path id="Vector_43" d="M103.21 157.676C104.759 157.016 109.417 154.715 114.225 154.715" stroke="#536B1B" stroke-miterlimit="10"/>
<path id="Vector_44" d="M111.718 167.628C110.589 166.509 107.179 160.922 106.082 158.596" stroke="#536B1B" stroke-miterlimit="10"/>
</g>
<g id="leaf_9">
<path id="Vector_45" d="M76.6088 161.507C76.8347 161.246 76.2 159.305 76.3291 156.357C76.4582 153.408 77.0068 151.517 78.502 149.352C81.4923 145.047 87.1503 139.511 87.957 137.769C88.8821 135.779 89.3016 130.628 87.1503 127.368C85.3001 124.581 81.2987 123.213 80.18 122.84C79.2549 122.529 77.0821 123.151 75.0491 125.104C71.5209 128.488 69.8537 132.88 69.3266 137.06C69.2298 137.819 68.1326 142.671 70.2301 148.531C73.4571 157.563 76.2108 161.98 76.6088 161.532V161.507Z" fill="#A4B758" stroke="#536B1B" stroke-miterlimit="10"/>
<g id="Vector_46">
<path d="M83.8694 127.418C82.9228 128.613 80.04 132.445 78.8568 134.958C76.5872 139.797 73.8873 146.814 74.5649 150.435" fill="#A4B758"/>
<path d="M83.8694 127.418C82.9228 128.613 80.04 132.445 78.8568 134.958C76.5872 139.797 73.8873 146.814 74.5649 150.435" stroke="#536B1B" stroke-miterlimit="10"/>
</g>
<g id="Vector_47">
<path d="M82.5358 140.208C82.6433 139.138 82.084 136.936 81.4063 135.331C81.0406 134.46 80.2016 133.228 79.9864 132.531" fill="#A4B758"/>
<path d="M82.5358 140.208C82.6433 139.138 82.084 136.936 81.4063 135.331C81.0406 134.46 80.2016 133.228 79.9864 132.531" stroke="#536B1B" stroke-miterlimit="10"/>
</g>
<g id="Vector_48">
<path d="M83.3638 128.053C82.4064 128.028 79.1042 127.542 76.2752 129.732L83.3638 128.053Z" fill="#A4B758"/>
<path d="M83.3638 128.053C82.4064 128.028 79.1042 127.542 76.2752 129.732" stroke="#536B1B" stroke-miterlimit="10"/>
</g>
<g id="Vector_49">
<path d="M78.3191 136.028C77.4371 136.55 74.6619 137.981 72.6934 140.432L78.3191 136.028Z" fill="#A4B758"/>
<path d="M78.3191 136.028C77.4371 136.55 74.6619 137.981 72.6934 140.432" stroke="#536B1B" stroke-miterlimit="10"/>
</g>
<g id="Vector_50">
<path d="M78.6418 144.425C78.6741 143.393 77.9426 139.374 77.5016 137.869L78.6418 144.425Z" fill="#A4B758"/>
<path d="M78.6418 144.425C78.6741 143.393 77.9426 139.374 77.5016 137.869" stroke="#536B1B" stroke-miterlimit="10"/>
</g>
</g>
<g id="leaf_10">
<path id="Vector_51" d="M101.399 352C101.413 351.995 99.0686 347.092 99.2641 341.515C99.3874 338.057 100.571 336.464 102.996 332.423C107.404 325.053 109.968 320.477 111.21 317.11C111.928 315.155 117.547 301.628 113.897 294.495C111.471 289.74 108.061 287.565 105.99 286.397C104.279 285.426 98.7519 283.935 94.6262 285.753C86.9935 289.112 84.0901 296.927 82.7843 304.567C82.5446 305.944 79.6811 313.176 83.1478 325.102C88.5028 343.483 101.399 352 101.399 352Z" fill="#7D9247" stroke="#536B1B" stroke-miterlimit="10"/>
<g id="Vector_52">
<path d="M101.413 286.562C100.265 289.152 96.9165 297.396 95.9813 302.567C94.1843 312.516 92.6462 326.728 95.573 333.395" fill="#7D9247"/>
<path d="M101.413 286.562C100.265 289.152 96.9165 297.396 95.9813 302.567C94.1842 312.516 92.6462 326.728 95.573 333.395" stroke="#536B1B" stroke-miterlimit="10"/>
</g>
<g id="Vector_53">
<path d="M102.55 317.903C101.086 316.535 99.0103 312.55 97.8389 309.272C97.1948 307.483 96.6605 304.491 96.0661 303.171" fill="#7D9247"/>
<path d="M102.55 317.903C101.086 316.535 99.0103 312.55 97.8389 309.272C97.1948 307.483 96.6605 304.491 96.0661 303.171" stroke="#536B1B" stroke-miterlimit="10"/>
</g>
<g id="Vector_54">
<path d="M96.4836 301.099C95.0304 301.802 90.0915 306.435 88.3693 308.526L96.4836 301.099Z" fill="#7D9247"/>
<path d="M96.4836 301.099C95.0304 301.802 90.0915 306.435 88.3693 308.526" stroke="#536B1B" stroke-miterlimit="10"/>
</g>
<g id="Vector_55">
<path d="M99.6315 290.665C100.737 291.965 103.77 298.429 104.673 301.129L99.6315 290.665Z" fill="#7D9247"/>
<path d="M99.6315 290.665C100.737 291.965 103.77 298.429 104.673 301.129" stroke="#536B1B" stroke-miterlimit="10"/>
</g>
<g id="Vector_56">
<path d="M93.9113 319.699C92.8354 321.034 89.9756 327.604 89.1458 330.323L93.9113 319.699Z" fill="#7D9247"/>
<path d="M93.9113 319.699C92.8354 321.034 89.9756 327.604 89.1458 330.323" stroke="#536B1B" stroke-miterlimit="10"/>
</g>
</g>
<g id="leaf_11">
<path id="Vector_57" d="M145.311 134.012C145.58 133.776 143.052 130.914 142.547 127.431C142.235 125.266 142.891 124.27 144.16 121.745C146.462 117.142 147.764 114.292 148.258 112.177C148.549 110.958 150.991 102.498 147.527 98.0068C145.214 95.0084 142.514 93.6399 140.89 92.8809C139.545 92.2589 135.393 91.3009 132.64 92.4206C127.541 94.4859 126.379 99.3753 126.336 104.165C126.336 105.024 125.121 109.552 129.015 117.054C135.028 128.612 144.838 134.435 145.311 134.012Z" fill="#668124" stroke="#536B1B" stroke-miterlimit="10"/>
<path id="Vector_58" d="M137.62 92.968C137.104 94.5854 135.652 99.7486 135.598 102.983C135.48 109.216 136.039 118.124 138.933 122.317" stroke="#536B1B" stroke-miterlimit="10"/>
<path id="Vector_59" d="M142.127 112.625C140.912 111.754 138.954 109.254 137.717 107.188C137.039 106.056 136.308 104.178 135.727 103.356" stroke="#536B1B" stroke-miterlimit="10"/>
<path id="Vector_60" d="M135.792 102.063C134.834 102.498 131.822 105.385 130.833 106.678" stroke="#536B1B" stroke-miterlimit="10"/>
<path id="Vector_61" d="M136.824 95.531C137.771 96.3521 140.707 100.42 141.675 102.112" stroke="#536B1B" stroke-miterlimit="10"/>
<path id="Vector_62" d="M136.125 113.72C135.512 114.554 134.232 118.659 133.952 120.364" stroke="#536B1B" stroke-miterlimit="10"/>
</g>
<g id="leaf_12">
<path id="Vector_63" d="M69.7998 193.817C70.0149 193.793 70.3591 191.143 71.7683 188.94C72.6395 187.584 73.3495 187.286 74.9737 186.353C77.9533 184.673 79.7497 183.578 80.9006 182.571C81.5675 181.986 86.365 178.166 87.1072 174.21C87.602 171.572 87.2147 169.681 86.9458 168.599C86.7199 167.703 85.5905 165.464 84.0415 164.978C81.1695 164.083 78.4911 166.397 76.286 169.097C75.888 169.582 73.3602 171.659 71.4025 177.519C68.3907 186.539 69.4233 193.842 69.7998 193.793V193.817Z" fill="#9BB574" stroke="#536B1B" stroke-miterlimit="10"/>
<g id="Vector_64">
<path d="M85.6765 167.33C84.7407 168.039 81.8364 170.39 80.3305 172.207C77.437 175.703 73.5646 181.003 72.7471 184.561" fill="#9BB574"/>
<path d="M85.6765 167.33C84.7407 168.039 81.8364 170.39 80.3305 172.207C77.437 175.703 73.5646 181.003 72.7471 184.561" stroke="#536B1B" stroke-miterlimit="10"/>
</g>
<g id="Vector_65">
<path d="M78.3838 180.344C78.3193 179.361 78.728 177.134 79.2013 175.454C79.4595 174.534 80.0403 173.165 80.2017 172.468" fill="#9BB574"/>
<path d="M78.3838 180.344C78.3193 179.361 78.728 177.134 79.2013 175.454C79.4595 174.534 80.0403 173.165 80.2017 172.468" stroke="#536B1B" stroke-miterlimit="10"/>
</g>
<g id="Vector_66">
<path d="M80.8254 171.759C80.2661 171.61 77.8136 172.033 76.8347 172.369L80.8254 171.759Z" fill="#9BB574"/>
<path d="M80.8254 171.759C80.2661 171.61 77.8136 172.033 76.8347 172.369" stroke="#536B1B" stroke-miterlimit="10"/>
</g>
<g id="Vector_67">
<path d="M84.2031 168.462C84.1924 169.308 83.4287 172.829 83.0199 174.185L84.2031 168.462Z" fill="#9BB574"/>
<path d="M84.2031 168.462C84.1924 169.308 83.4287 172.829 83.0199 174.185" stroke="#536B1B" stroke-miterlimit="10"/>
</g>
<g id="Vector_68">
<path d="M75.6191 178.527C75.006 178.751 72.6396 180.568 71.7575 181.426L75.6191 178.527Z" fill="#9BB574"/>
<path d="M75.6191 178.527C75.006 178.751 72.6396 180.568 71.7575 181.426" stroke="#536B1B" stroke-miterlimit="10"/>
</g>
</g>
<g id="leaf_13">
<path id="Vector_69" d="M136.158 274.276C135.749 274.226 135.405 269.461 132.963 265.48C131.446 263.016 130.123 262.457 127.09 260.752C121.55 257.642 118.216 255.626 116.118 253.81C114.902 252.752 106.114 245.76 105.168 238.631C104.533 233.879 105.523 230.507 106.179 228.566C106.727 226.961 109.18 222.98 112.235 222.159C117.893 220.641 122.776 224.859 126.692 229.773C127.402 230.657 132.016 234.464 135.071 245.026C139.783 261.3 136.867 274.375 136.147 274.276H136.158Z" fill="#A4B758" stroke="#536B1B" stroke-miterlimit="10"/>
<g id="Vector_70">
<path d="M108.793 226.302C110.514 227.608 115.827 231.9 118.506 235.197C123.669 241.555 130.467 251.172 131.618 257.592" fill="#A4B758"/>
<path d="M108.793 226.302C110.514 227.608 115.827 231.9 118.506 235.197C123.669 241.555 130.467 251.172 131.618 257.592" stroke="#536B1B" stroke-miterlimit="10"/>
</g>
<g id="Vector_71">
<path d="M121.259 249.866C121.507 248.099 120.991 244.093 120.281 241.07C119.893 239.415 118.936 236.952 118.71 235.67" fill="#A4B758"/>
<path d="M121.259 249.866C121.507 248.099 120.991 244.093 120.281 241.07C119.893 239.415 118.936 236.952 118.71 235.67" stroke="#536B1B" stroke-miterlimit="10"/>
</g>
<g id="Vector_72">
<path d="M117.613 234.389C118.71 234.152 123.4 234.973 125.229 235.596L117.613 234.389Z" fill="#A4B758"/>
<path d="M117.613 234.389C118.71 234.152 123.4 234.973 125.229 235.596" stroke="#536B1B" stroke-miterlimit="10"/>
</g>
<g id="Vector_73">
<path d="M111.493 228.392C111.417 229.922 112.439 236.243 113.063 238.694L111.493 228.392Z" fill="#A4B758"/>
<path d="M111.493 228.392C111.417 229.922 112.439 236.243 113.063 238.694" stroke="#536B1B" stroke-miterlimit="10"/>
</g>
<g id="Vector_74">
<path d="M126.821 246.693C127.972 247.104 132.317 250.438 133.909 251.993L126.821 246.693Z" fill="#A4B758"/>
<path d="M126.821 246.693C127.972 247.104 132.317 250.438 133.909 251.993" stroke="#536B1B" stroke-miterlimit="10"/>
</g>
</g>
<g id="leaf_14">
<path id="Vector_75" d="M46.4795 151.666C47.0066 151.865 53.1164 143.468 57.2039 140.507C59.7317 138.678 61.6248 137.57 65.8737 137.583C73.6292 137.608 75.9956 136.724 79.1043 135.99C80.9114 135.567 93.7333 133.266 96.7451 125.764C98.7566 120.762 98.3801 116.283 98.0467 113.646C97.767 111.468 96.7666 107.748 93.1309 104.837C86.408 99.4501 78.2653 101.59 71.4671 104.14C70.3054 104.576 64.5937 105.521 56.182 115.922C44.7262 130.081 45.5652 151.293 46.4903 151.654L46.4795 151.666Z" fill="#668124" stroke="#536B1B" stroke-miterlimit="10"/>
<path id="Vector_76" d="M94.1528 116.943C91.6358 116.855 83.762 116.855 79.3195 118.075C70.768 120.439 59.0003 124.893 55.0418 130.79" stroke="#536B1B" stroke-miterlimit="10"/>
<path id="Vector_77" d="M67.3903 112.514C69.2619 112.29 73.1558 113.409 75.9955 114.765C77.5445 115.499 79.7496 117.191 80.9758 117.639" stroke="#536B1B" stroke-miterlimit="10"/>
<path id="Vector_78" d="M88.7529 117.328C87.8063 115.873 82.697 111.481 80.5241 110.062" stroke="#536B1B" stroke-miterlimit="10"/>
<path id="Vector_79" d="M89.5059 116.507C88.925 118.199 84.9881 123.984 83.2132 126.012" stroke="#536B1B" stroke-miterlimit="10"/>
<path id="Vector_80" d="M67.4548 122.467C66.0027 121.757 59.6886 120.924 57.193 120.949" stroke="#536B1B" stroke-miterlimit="10"/>
<path id="Vector_81" d="M69.6924 121.347C69.1653 123.064 65.4435 129.023 63.7332 131.138" stroke="#536B1B" stroke-miterlimit="10"/>
<path id="Vector_82" d="M81.9656 117.502C81.4385 119.219 77.7167 125.179 76.0064 127.294" stroke="#536B1B" stroke-miterlimit="10"/>
</g>
<g id="laef">
<path id="Vector_83" d="M117.333 31.0848C117.161 31.6944 119.42 40.7144 119.431 48.0175C119.431 53.6907 119.14 55.6316 118.646 60.6828C117.753 69.5908 117.602 76.7197 118.237 80.3028C118.602 82.3929 121.442 92.7441 127.939 96.2277C132.274 98.5542 136.136 98.1063 138.416 97.7206C140.299 97.3972 144.149 93.5652 146.666 89.3601C151.313 81.5842 150.862 75.4009 148.656 67.5379C148.28 66.1943 147 58.406 138.298 50.8541C124.884 39.209 117.645 30.0148 117.333 31.0848Z" fill="#9BB574" stroke="#536B1B" stroke-miterlimit="10"/>
<g id="Vector_84">
<path d="M139.223 94.7221C139.298 91.8108 139.298 82.7038 138.233 77.5655C136.19 67.6871 132.328 54.0638 127.219 49.4978" fill="#9BB574"/>
<path d="M139.223 94.7221C139.298 91.8108 139.298 82.7038 138.233 77.5655C136.19 67.6871 132.328 54.0638 127.219 49.4978" stroke="#536B1B" stroke-miterlimit="10"/>
</g>
<g id="Vector_85">
<path d="M143.041 63.7683C143.246 65.9331 142.267 70.4493 141.105 73.7338C140.471 75.5254 139.008 78.0759 138.631 79.4942" fill="#9BB574"/>
<path d="M143.041 63.7683C143.246 65.9331 142.267 70.4493 141.105 73.7338C140.471 75.5254 139.008 78.0759 138.631 79.4942" stroke="#536B1B" stroke-miterlimit="10"/>
</g>
<g id="Vector_86">
<path d="M138.889 88.4642C140.148 87.3693 143.934 81.4597 145.16 78.9465L138.889 88.4642Z" fill="#9BB574"/>
<path d="M138.889 88.4642C140.148 87.3693 143.934 81.4597 145.16 78.9465" stroke="#536B1B" stroke-miterlimit="10"/>
</g>
<g id="Vector_87">
<path d="M139.599 89.3478C138.136 88.6759 133.135 84.1349 131.381 82.082L139.599 89.3478Z" fill="#9BB574"/>
<path d="M139.599 89.3478C138.136 88.6759 133.135 84.1349 131.381 82.082" stroke="#536B1B" stroke-miterlimit="10"/>
</g>
<g id="Vector_88">
<path d="M134.436 63.8302C135.049 62.1506 135.77 54.8476 135.738 51.9612L134.436 63.8302Z" fill="#9BB574"/>
<path d="M134.436 63.8302C135.049 62.1506 135.77 54.8476 135.738 51.9612" stroke="#536B1B" stroke-miterlimit="10"/>
</g>
<g id="Vector_89">
<path d="M135.404 66.4308C133.92 65.8212 128.767 61.5165 126.939 59.5508L135.404 66.4308Z" fill="#9BB574"/>
<path d="M135.404 66.4308C133.92 65.8212 128.767 61.5165 126.939 59.5508" stroke="#536B1B" stroke-miterlimit="10"/>
</g>
<g id="Vector_90">
<path d="M138.728 80.614C137.244 80.0043 132.091 75.6996 130.263 73.7339L138.728 80.614Z" fill="#9BB574"/>
<path d="M138.728 80.614C137.244 80.0043 132.091 75.6996 130.263 73.7339" stroke="#536B1B" stroke-miterlimit="10"/>
</g>
</g>
</g>
<g id="reol">
<g id="potted plant">
<g id="legs">
<path id="Vector_91" d="M90.1429 198.932L50.3455 431H58.3792L104.606 198.932H90.1429Z" fill="#C1735B"/>
<path id="Vector_92" d="M180.717 198.669L220.514 430.737H212.468L166.254 198.669H180.717Z" fill="#C1735B"/>
<path id="Vector_93" d="M129.042 201.948V402.292H135.795L141.961 201.948H129.042Z" fill="#B76B56"/>
</g>
<g id="pot">
<path id="Vector_94" d="M70.6513 75.4373C63.6712 128.306 68.8913 163.164 74.6382 180.671C76.2186 185.482 76.5299 194.002 83.6178 197.628C114.555 213.46 153.479 213.089 180.92 201.122C187.158 198.406 189.649 190.4 194.39 177.189C200.975 158.82 204.89 126.104 203.369 79.9367C196.257 81.4445 190.499 82.3898 186.907 82.9283C136.729 90.4912 97.578 82.4138 81.6183 78.4409C76.6616 77.2083 72.7346 76.0715 70.6393 75.4492L70.6513 75.4373Z" fill="#CC7D5F"/>
<path id="Vector_95" d="M73.2734 176.136C82.3368 178.816 97.4105 181.401 112.065 182.825C128.564 184.429 141.147 183.495 149.66 182.825C160.71 181.952 178.358 180.073 194.869 175.849C194.079 178.493 192.762 181.497 191.888 184.201C180.549 186.966 165.045 188.94 149.672 190.137C138.633 190.998 126.241 191.968 110.09 190.137C96.8119 188.629 83.1749 185.948 75.4285 183.507C74.7581 180.994 73.9679 178.637 73.2974 176.136H73.2734Z" fill="#C1735B"/>
</g>
<g id="plant">
<g id="leaves">
<g id="left-branch">
<path id="Vector_96" d="M115.657 75.6169C103.445 63.9376 78.8645 64.6914 74.7578 66.3428C62.4857 71.2731 55.8768 79.0872 51.4708 84.2927C45.3886 91.4846 45.8077 93.9378 46.1429 94.931C47.5078 98.868 53.9132 97.6833 58.1157 102.913C62.3899 108.214 60.8694 115.777 60.7736 116.208C59.4925 122.179 55.5655 123.052 45.9633 134.157C40.839 140.093 38.2768 143.061 36.8161 146.794C35.0442 151.341 34.7449 156.391 34.1582 166.503C33.9068 170.751 33.8469 174.569 33.811 176.711C33.6793 184.944 34.0025 186.619 33.811 189.347C33.5117 193.739 31.9432 199.938 26.1724 207.381" stroke="#536B1B" stroke-width="2" stroke-miterlimit="10"/>
<g id="leaf_15">
<path id="Vector_97" d="M10.0572 248.965C10.7037 248.833 9.24306 244.92 11.5538 241.15C12.9905 238.817 14.9301 238.063 19.2044 235.993C26.9867 232.211 30.8778 230.333 32.8414 228.011C33.4759 227.269 37.822 222.004 36.3374 216.044C35.3437 212.072 32.2667 209.81 30.351 208.398C28.7706 207.237 25.0591 204.592 19.7073 204.736C18.9649 204.76 12.7511 205.035 8.393 209.894C7.6028 210.767 4.90893 213.998 4.40607 223.189C3.61587 237.357 8.9198 249.192 10.0572 248.953V248.965Z" fill="#668124" stroke="#536B1B" stroke-miterlimit="10"/>
<path id="Vector_98" d="M24.3648 210.899C22.3294 212.359 19.863 214.465 17.5403 217.385C13.0625 223.021 11.3983 228.801 10.7158 232.175" stroke="#536B1B" stroke-miterlimit="10"/>
<path id="Vector_99" d="M23.7182 225.713C23.1914 223.883 22.2575 219.826 22.2815 216.846C22.2934 215.003 22.5089 213.388 22.7843 212.036" stroke="#536B1B" stroke-miterlimit="10"/>
<path id="Vector_100" d="M17.5401 217.301C15.6484 217.564 11.5657 218.354 8.8479 219.587" stroke="#536B1B" stroke-miterlimit="10"/>
</g>
<g id="leaf_16">
<path id="Vector_101" d="M19.7192 133.451C20.4854 133.667 21.0721 128.509 25.5739 125.661C28.3635 123.902 30.8419 124.177 36.493 124.321C46.8016 124.584 51.9498 124.716 55.3022 123.268C56.3798 122.801 63.8627 119.45 65.5389 112.019C66.6644 107.065 64.641 102.793 63.3719 100.136C62.3302 97.9465 59.8519 92.9086 54.093 90.0127C53.2908 89.6178 46.5621 86.3629 39.2946 89.2588C37.9776 89.7853 33.3681 91.8077 27.8008 101.692C19.2163 116.925 18.3663 133.044 19.7072 133.427L19.7192 133.451Z" fill="#7D9247" stroke="#536B1B" stroke-miterlimit="10"/>
<g id="Vector_102">
<path d="M55.6733 99.4783C52.7161 99.933 48.9686 100.854 44.9098 102.757C37.0916 106.431 32.1708 111.888 29.5967 115.238" fill="#7D9247"/>
<path d="M55.6733 99.4783C52.7161 99.933 48.9686 100.854 44.9098 102.757C37.0916 106.431 32.1708 111.888 29.5967 115.238" stroke="#536B1B" stroke-miterlimit="10"/>
</g>
<g id="Vector_103">
<path d="M46.8853 115.513C47.3282 113.18 48.5614 108.166 50.2137 104.887C51.2314 102.865 52.3448 101.189 53.3745 99.8491" fill="#7D9247"/>
<path d="M46.8853 115.513C47.3282 113.18 48.5614 108.166 50.2137 104.887C51.2314 102.865 52.3448 101.189 53.3745 99.8491" stroke="#536B1B" stroke-miterlimit="10"/>
</g>
<g id="Vector_104">
<path d="M44.9459 102.685C42.8027 101.896 38.0376 100.448 34.4937 100.256L44.9459 102.685Z" fill="#7D9247"/>
<path d="M44.9459 102.685C42.8027 101.896 38.0376 100.448 34.4937 100.256" stroke="#536B1B" stroke-miterlimit="10"/>
</g>
</g>
<g id="leaf_17">
<path id="Vector_105" d="M0.754262 173.396C1.19725 173.563 1.95154 169.327 4.89684 166.958C6.72867 165.486 8.20132 165.689 11.6136 165.749C17.8394 165.857 20.9523 165.905 23.0954 164.696C23.7779 164.313 33.9068 160.974 35.4992 154.859C36.5528 150.791 37.0676 147.56 36.5049 145.394C36.038 143.611 34.8048 141.361 31.3686 139.494C30.0157 138.764 23.263 137.927 18.6416 140.368C17.8035 140.811 12.4756 143.288 8.35696 151.437C1.98746 164.002 -0.0239673 173.097 0.754262 173.396Z" fill="#668124" stroke="#536B1B" stroke-miterlimit="10"/>
<path id="Vector_106" d="M32.5179 147.392C30.8896 147.488 28.7345 147.871 26.1364 149.008C21.1318 151.198 12.4874 157.109 10.2485 159.502" stroke="#536B1B" stroke-miterlimit="10"/>
<path id="Vector_107" d="M19.5396 160.316C19.5874 158.569 20.9164 155.326 22.2813 153.088C23.0236 151.868 24.5681 150.288 25.047 149.295" stroke="#536B1B" stroke-miterlimit="10"/>
<path id="Vector_108" d="M29.5247 147.739C28.2077 147.093 22.6883 146.004 20.5571 145.861" stroke="#536B1B" stroke-miterlimit="10"/>
<path id="Vector_109" d="M20.4495 152.215C18.9769 152.167 13.5053 153.447 11.5059 154.201" stroke="#536B1B" stroke-miterlimit="10"/>
</g>
<g id="leaf_18">
<path id="Vector_110" d="M90.1429 119.283C89.5562 119.055 91.1007 115.334 89.1731 111.253C87.9758 108.716 86.2278 107.699 82.4085 105.043C75.4523 100.196 71.9683 97.7668 70.2801 95.1701C69.7413 94.3444 60.3906 83.8617 62.0548 78.0938C63.1683 74.2525 64.4254 71.4643 66.2573 70.3155C67.7658 69.3702 70.4836 67.1683 75.3446 68.5205C77.2483 69.0471 85.1263 75.2936 88.8738 80.7623C89.5563 81.7556 94.058 87.7987 94.058 97.0848C94.058 111.385 91.1726 119.69 90.1429 119.295V119.283Z" fill="#9BB574" stroke="#536B1B" stroke-miterlimit="10"/>
<path id="Vector_111" d="M67.5144 76.1553C69.5737 77.4716 72.1119 79.3982 74.6502 82.1625C79.535 87.4996 86.3236 98.1618 87.4251 101.512" stroke="#536B1B" stroke-miterlimit="10"/>
<path id="Vector_112" d="M80.1458 97.5874C80.3613 95.6966 79.2358 91.4724 77.9069 88.2893C77.1765 86.5542 75.5243 83.9694 75.0813 82.6292" stroke="#536B1B" stroke-miterlimit="10"/>
<path id="Vector_113" d="M69.5977 77.4714C71.3577 77.5911 78.3258 79.6015 80.9718 80.6306" stroke="#536B1B" stroke-miterlimit="10"/>
</g>
<g id="leaf_19">
<path id="Vector_114" d="M55.5775 200.213C54.919 200.081 56.3318 196.156 53.9612 192.422C52.4885 190.113 50.537 189.395 46.2268 187.384C38.3846 183.723 34.4695 181.904 32.4701 179.618C31.8235 178.888 21.0121 170.045 22.4129 164.074C23.3468 160.089 24.4962 157.121 26.3879 155.685C27.9563 154.5 30.722 151.88 36.0499 152.406C38.1451 152.61 47.0649 157.504 51.4828 162.291C52.285 163.152 57.565 168.405 58.2235 177.584C59.2292 191.74 56.7149 200.428 55.5775 200.213Z" fill="#A4B758" stroke="#536B1B" stroke-miterlimit="10"/>
<g id="Vector_115">
<path d="M28.1599 161.25C30.4707 162.219 33.3441 163.703 36.2655 166.024C41.9046 170.5 49.9743 179.941 51.399 183.077" fill="#A4B758"/>
<path d="M28.1599 161.25C30.4707 162.219 33.3441 163.703 36.2655 166.024C41.9046 170.5 49.9743 179.941 51.399 183.077" stroke="#536B1B" stroke-miterlimit="10"/>
</g>
<g id="Vector_116">
<path d="M43.2695 180.384C43.3653 178.481 41.8568 174.472 40.1925 171.553C39.2826 169.961 37.3191 167.675 36.7444 166.419" fill="#A4B758"/>
<path d="M43.2695 180.384C43.3653 178.481 41.8568 174.472 40.1925 171.553C39.2826 169.961 37.3191 167.675 36.7444 166.419" stroke="#536B1B" stroke-miterlimit="10"/>
</g>
<g id="Vector_117">
<path d="M30.4946 162.207C32.3983 162.039 40.0489 162.877 42.9702 163.463L30.4946 162.207Z" fill="#A4B758"/>
<path d="M30.4946 162.207C32.3983 162.039 40.0489 162.877 42.9702 163.463" stroke="#536B1B" stroke-miterlimit="10"/>
</g>
</g>
<g id="leaf_20">
<path id="Vector_118" d="M110.161 126.953C110.664 126.523 107.491 123.794 107.707 119.379C107.839 116.65 109.191 115.047 111.933 111.181C116.938 104.133 119.44 100.603 120.051 97.6234C120.242 96.666 125.271 83.6464 121.104 79.135C118.327 76.1314 115.86 74.121 113.49 73.8099C111.538 73.5466 107.839 72.6372 103.468 75.7365C101.756 76.9571 96.4165 85.6089 94.9439 91.9632C94.6805 93.112 92.681 100.28 96.656 108.585C102.786 121.389 109.263 127.695 110.149 126.941L110.161 126.953Z" fill="#7D9247" stroke="#536B1B" stroke-miterlimit="10"/>
<g id="Vector_119">
<path d="M114.723 79.542C113.19 81.5284 111.43 84.2329 110.03 87.7032C107.348 94.3805 105.001 106.574 105.312 110.009" fill="#7D9247"/>
<path d="M114.723 79.542C113.19 81.5284 111.43 84.2329 110.03 87.7032C107.348 94.3805 105.001 106.574 105.312 110.009" stroke="#536B1B" stroke-miterlimit="10"/>
</g>
<g id="Vector_120">
<path d="M111.047 103.643C110.018 102.027 109.347 97.8149 109.347 94.4523C109.347 92.6095 109.922 89.6537 109.802 88.2896" fill="#7D9247"/>
<path d="M111.047 103.643C110.018 102.027 109.347 97.8149 109.347 94.4523C109.347 92.6095 109.922 89.6537 109.802 88.2896" stroke="#536B1B" stroke-miterlimit="10"/>
</g>
<g id="Vector_121">
<path d="M113.166 81.5283C111.43 82.3181 105.193 86.8295 102.942 88.7801L113.166 81.5283Z" fill="#7D9247"/>
<path d="M113.166 81.5283C111.43 82.3181 105.193 86.8295 102.942 88.7801" stroke="#536B1B" stroke-miterlimit="10"/>
</g>
</g>
<g id="leaf_21">
<path id="Vector_122" d="M65.2156 162.817C64.9282 162.662 65.898 159.574 65.1557 156.379C64.6888 154.393 63.8746 153.675 62.1027 151.724C58.882 148.182 56.9903 145.956 55.9367 144.209C55.3261 143.192 50.7525 136.275 51.8899 131.537C52.6442 128.377 54.2246 126.546 55.2064 125.517C56.0085 124.668 58.8102 122.885 61.2406 123.256C65.7304 123.938 68.1848 127.982 69.7652 132.207C70.0526 132.973 72.4232 136.682 71.9323 144.185C71.178 155.733 65.7184 163.092 65.2156 162.829V162.817Z" fill="#668124" stroke="#536B1B" stroke-miterlimit="10"/>
<path id="Vector_123" d="M57.6729 124.859C58.5828 126.175 61.3365 130.4 62.438 133.236C64.5452 138.704 67.0116 146.698 66.2094 151.054" stroke="#536B1B" stroke-miterlimit="10"/>
<path id="Vector_124" d="M60.678 143.228C61.3125 142.187 61.9591 139.53 62.2225 137.436C62.3661 136.287 62.3063 134.468 62.4739 133.607" stroke="#536B1B" stroke-miterlimit="10"/>
<path id="Vector_125" d="M61.9949 132.47C62.8569 132.638 66.0417 134.504 67.203 135.426" stroke="#536B1B" stroke-miterlimit="10"/>
<path id="Vector_126" d="M59.1094 126.941C58.6664 127.875 57.7804 132.135 57.6128 133.846" stroke="#536B1B" stroke-miterlimit="10"/>
<path id="Vector_127" d="M65.5269 142.833C66.2572 143.431 68.544 146.77 69.3102 148.206" stroke="#536B1B" stroke-miterlimit="10"/>
</g>
<g id="leaf_22">
<path id="Vector_128" d="M49.2201 218.689C48.9806 218.665 48.5975 216.116 47.029 213.998C46.0593 212.694 45.2691 212.407 43.4612 211.509C40.1447 209.894 38.1453 208.841 36.8642 207.871C36.1219 207.309 30.782 203.635 29.9559 199.83C29.4052 197.293 29.8362 195.474 30.1355 194.433C30.3869 193.571 31.6441 191.417 33.3681 190.951C36.5649 190.089 39.5461 192.315 42.0005 194.912C42.4435 195.378 45.2571 197.377 47.4361 203.013C50.7885 211.689 49.6391 218.713 49.2201 218.665V218.689Z" fill="#9BB574" stroke="#536B1B" stroke-miterlimit="10"/>
<g id="Vector_129">
<path d="M31.5483 193.212C32.59 193.894 35.8226 196.156 37.4988 197.903C40.7195 201.266 45.0297 206.364 45.9396 209.786" fill="#9BB574"/>
<path d="M31.5483 193.212C32.59 193.894 35.8226 196.156 37.4988 197.903C40.7195 201.266 45.0297 206.364 45.9396 209.786" stroke="#536B1B" stroke-miterlimit="10"/>
</g>
<g id="Vector_130">
<path d="M39.6657 205.741C39.7376 204.796 39.2826 202.654 38.7558 201.038C38.4685 200.153 37.8219 198.837 37.6423 198.167" fill="#9BB574"/>
<path d="M39.6657 205.741C39.7376 204.796 39.2826 202.654 38.7558 201.038C38.4685 200.153 37.8219 198.837 37.6423 198.167" stroke="#536B1B" stroke-miterlimit="10"/>
</g>
<g id="Vector_131">
<path d="M36.96 197.473C37.5825 197.329 40.3123 197.736 41.4019 198.059L36.96 197.473Z" fill="#9BB574"/>
<path d="M36.96 197.473C37.5825 197.329 40.3123 197.736 41.4019 198.059" stroke="#536B1B" stroke-miterlimit="10"/>
</g>
<g id="Vector_132">
<path d="M33.2004 194.301C33.2124 195.115 34.0625 198.502 34.5174 199.806L33.2004 194.301Z" fill="#9BB574"/>
<path d="M33.2004 194.301C33.2124 195.115 34.0625 198.502 34.5174 199.806" stroke="#536B1B" stroke-miterlimit="10"/>
</g>
<g id="Vector_133">
<path d="M42.7549 203.994C43.4373 204.21 46.0713 205.957 47.0531 206.782L42.7549 203.994Z" fill="#9BB574"/>
<path d="M42.7549 203.994C43.4373 204.21 46.0713 205.957 47.0531 206.782" stroke="#536B1B" stroke-miterlimit="10"/>
</g>
</g>
<g id="leaf_23">
<path id="Vector_134" d="M3.48413 44.073C3.67569 44.6594 14.2117 45.3415 19.2044 47.3159C22.2933 48.5365 24.3886 49.6015 27.1902 53.4189C32.2786 60.3834 34.5415 61.9989 37.1515 64.3683C38.6721 65.7445 48.9088 75.916 56.727 74.3365C61.9351 73.2834 65.1558 70.3875 66.9757 68.5925C68.4842 67.1086 69.7414 61.5921 69.6097 56.6738C69.3463 47.5792 65.4192 43.0917 58.9539 38.4487C57.8524 37.6589 52.2611 32.4654 40.1567 32.3458C21.5031 32.1543 3.16087 43.0439 3.4961 44.085L3.48413 44.073Z" fill="#A4B758" stroke="#536B1B" stroke-miterlimit="10"/>
<g id="Vector_135">
<path d="M61.8514 66.9771C60.259 64.6675 55.0628 57.6192 51.1837 54.3404C43.7127 48.034 32.4942 40.0164 25.3105 39.8489" fill="#A4B758"/>
<path d="M61.8514 66.9771C60.259 64.6675 55.0628 57.6192 51.1837 54.3404C43.7127 48.034 32.4942 40.0164 25.3105 39.8489" stroke="#536B1B" stroke-miterlimit="10"/>
</g>
<g id="Vector_136">
<path d="M47.6277 40.4709C49.0405 42.0146 50.7406 46.1551 51.5667 49.4698C52.0217 51.2768 52.1654 54.2205 52.6323 55.5608" fill="#A4B758"/>
<path d="M47.6277 40.4709C49.0405 42.0146 50.7406 46.1551 51.5667 49.4698C52.0217 51.2768 52.1654 54.2205 52.6323 55.5608" stroke="#536B1B" stroke-miterlimit="10"/>
</g>
<g id="Vector_137">
<path d="M57.9961 62.358C58.4989 60.6827 58.5349 53.5985 58.1996 50.8462L57.9961 62.358Z" fill="#A4B758"/>
<path d="M57.9961 62.358C58.4989 60.6827 58.5349 53.5985 58.1996 50.8462" stroke="#536B1B" stroke-miterlimit="10"/>
</g>
<g id="Vector_138">
<path d="M59.1335 62.5733C57.4334 63.0161 50.3575 62.7887 47.6157 62.3579L59.1335 62.5733Z" fill="#A4B758"/>
<path d="M59.1335 62.5733C57.4334 63.0161 50.3575 62.7887 47.6157 62.3579" stroke="#536B1B" stroke-miterlimit="10"/>
</g>
<g id="Vector_139">
<path d="M39.9531 46.203C39.546 44.5038 36.026 38.3649 34.3499 36.1392L39.9531 46.203Z" fill="#A4B758"/>
<path d="M39.9531 46.203C39.546 44.5038 36.026 38.3649 34.3499 36.1392" stroke="#536B1B" stroke-miterlimit="10"/>
</g>
<g id="Vector_140">
<path d="M42.3117 47.5791C40.6356 48.0817 33.5597 48.1535 30.7939 47.8304L42.3117 47.5791Z" fill="#A4B758"/>
<path d="M42.3117 47.5791C40.6356 48.0817 33.5597 48.1535 30.7939 47.8304" stroke="#536B1B" stroke-miterlimit="10"/>
</g>
<g id="Vector_141">
<path d="M53.3745 56.3745C51.6983 56.8771 44.6224 56.9489 41.8567 56.6258L53.3745 56.3745Z" fill="#A4B758"/>
<path d="M53.3745 56.3745C51.6983 56.8771 44.6224 56.9489 41.8567 56.6258" stroke="#536B1B" stroke-miterlimit="10"/>
</g>
</g>
<g id="leaf_24">
<path id="Vector_142" d="M86.0003 21.1808C85.7848 21.7313 90.3464 29.713 91.6395 34.6432C92.4416 37.6947 92.8727 39.9324 92.1782 44.5994C90.9211 53.0957 91.1246 55.848 91.1127 59.3542C91.1127 61.4005 90.5619 75.8202 95.0397 80.2718C98.0209 83.2395 101.038 83.5027 102.834 83.5386C104.319 83.5745 107.791 80.6068 110.293 77.0647C114.915 70.507 115.429 64.5716 114.843 56.7096C114.747 55.3693 114.843 47.7586 109.263 39.0589C100.655 25.6444 86.4074 20.2235 86.0242 21.1808H86.0003Z" fill="#668124" stroke="#536B1B" stroke-miterlimit="10"/>
<path id="Vector_143" d="M101.278 78.7758C101.744 76.0355 103.002 67.3836 102.906 62.3337C102.714 52.593 101.661 38.9989 98.4041 33.7576" stroke="#536B1B" stroke-miterlimit="10"/>
<path id="Vector_144" d="M108.485 50.0801C108.341 52.1742 106.965 56.2788 105.624 59.1866C104.893 60.7782 103.421 62.9441 102.93 64.2126" stroke="#536B1B" stroke-miterlimit="10"/>
<path id="Vector_145" d="M101.9 72.7927C103.014 71.979 106.725 67.0368 108.006 64.8708" stroke="#536B1B" stroke-miterlimit="10"/>
<path id="Vector_146" d="M102.319 73.7499C101.302 72.8524 98.1049 67.6589 97.0513 65.3972" stroke="#536B1B" stroke-miterlimit="10"/>
<path id="Vector_147" d="M101.912 48.6321C102.607 47.1482 104.175 40.3392 104.558 37.5989" stroke="#536B1B" stroke-miterlimit="10"/>
<path id="Vector_148" d="M102.295 51.2647C101.242 50.427 97.9133 45.425 96.7878 43.2471" stroke="#536B1B" stroke-miterlimit="10"/>
<path id="Vector_149" d="M102.858 65.3135C101.804 64.4758 98.476 59.4738 97.3506 57.2959" stroke="#536B1B" stroke-miterlimit="10"/>
</g>
</g>
<g id="right-branch">
<path id="Vector_150" d="M115.034 107.364C117.536 107.998 113.597 39.6693 132.467 46.7177C154.676 55.0225 167.223 58.8159 181.878 62.346C197.814 66.1992 199.861 63.6982 208.493 68.3293C217.868 73.3672 223.052 80.4514 225.794 84.2927C233.912 95.649 235.732 106.826 236.438 111.553C238.701 126.618 235.217 138.549 233.109 145.466C228.308 161.262 224.118 159.742 219.137 176.722C218.203 179.918 214.935 191.621 214.48 207.393C214.312 213.053 214.588 216.978 215.15 224.601C217.066 250.963 220.011 254.469 219.808 269.822C219.7 277.828 219.508 286.767 215.821 297.752C210.984 312.136 202.938 321.733 198.556 326.341C185.374 340.198 170.444 345.559 163.26 347.617" stroke="#536B1B" stroke-width="2" stroke-miterlimit="10"/>
<g id="leaf_25">
<path id="Vector_151" d="M137.292 358.171C137.303 358.183 138.884 355.599 142.045 354.785C143.996 354.282 145.445 354.881 148.809 355.981C154.951 357.98 158.028 358.973 160.267 358.758C160.986 358.686 166.014 358.111 168.205 354.174C169.666 351.554 169.127 348.754 168.792 347.018C168.516 345.582 167.822 342.268 164.829 339.587C164.41 339.216 160.89 336.165 156.065 336.512C155.191 336.572 152.102 336.907 147.193 341.538C139.626 348.682 137.291 358.171 137.303 358.183L137.292 358.171Z" fill="#A4B758" stroke="#536B1B" stroke-miterlimit="10"/>
<g id="Vector_152">
<path d="M164.266 345.26C162.422 344.984 160.016 344.841 157.286 345.2C152.006 345.894 148.187 348.12 146.115 349.567" fill="#A4B758"/>
<path d="M164.266 345.26C162.422 344.984 160.016 344.841 157.286 345.2C152.006 345.894 148.187 348.12 146.115 349.567" stroke="#536B1B" stroke-miterlimit="10"/>
</g>
<g id="Vector_153">
<path d="M156.448 352.822C157.083 351.578 158.615 348.933 160.136 347.365C161.069 346.396 162.003 345.642 162.829 345.056" fill="#A4B758"/>
<path d="M156.448 352.822C157.083 351.578 158.615 348.933 160.136 347.365C161.069 346.396 162.003 345.642 162.829 345.056" stroke="#536B1B" stroke-miterlimit="10"/>
</g>
<g id="Vector_154">
<path d="M157.322 345.164C156.161 344.326 153.527 342.651 151.431 341.909L157.322 345.164Z" fill="#A4B758"/>
<path d="M157.322 345.164C156.161 344.326 153.527 342.651 151.431 341.909" stroke="#536B1B" stroke-miterlimit="10"/>
</g>
</g>
<g id="leaf_26">
<path id="Vector_155" d="M259.94 212.191C259.162 212 261.114 207.429 258.516 202.845C256.899 200.009 254.601 199.016 249.572 196.336C240.413 191.453 235.827 189.012 233.576 186.164C232.858 185.254 220.466 174.03 222.526 167.041C223.902 162.386 225.483 158.94 227.853 157.372C229.805 156.068 233.301 153.16 239.659 154.165C242.149 154.56 252.541 160.962 257.534 166.958C258.432 168.035 264.43 174.628 264.61 185.554C264.885 202.403 261.305 212.538 259.952 212.191H259.94Z" fill="#668124" stroke="#536B1B" stroke-miterlimit="10"/>
<path id="Vector_156" d="M229.613 164.11C232.331 165.414 235.671 167.376 239.024 170.332C245.489 176.028 254.553 187.779 256.061 191.597" stroke="#536B1B" stroke-miterlimit="10"/>
<path id="Vector_157" d="M239.874 184.166C239.79 181.796 239.85 176.495 238.054 172.905C237.072 170.954 234.857 168.106 234.259 166.575" stroke="#536B1B" stroke-miterlimit="10"/>
<path id="Vector_158" d="M232.343 165.402C234.642 165.33 243.765 166.85 247.225 167.747" stroke="#536B1B" stroke-miterlimit="10"/>
<path id="Vector_159" d="M243.167 174.401C245.872 174.616 251.931 178.745 255.391 179.642" stroke="#536B1B" stroke-miterlimit="10"/>
</g>
<g id="leaf_27">
<path id="Vector_160" d="M208.386 355.946C207.979 355.694 210.936 352.559 211.08 348.778C211.164 346.432 210.122 345.367 208.027 342.675C204.219 337.744 202.316 335.291 202.004 332.85C201.909 332.072 198.52 321.961 202.471 317.042C205.105 313.763 207.392 311.418 209.463 310.58C211.164 309.886 213.714 309.527 217.27 311.167C218.658 311.813 223.376 316.731 224.178 321.889C224.322 322.822 225.519 328.578 221.448 336.751C215.174 349.352 209.092 356.4 208.386 355.958V355.946Z" fill="#A4B758" stroke="#536B1B" stroke-miterlimit="10"/>
<g id="Vector_161">
<path d="M210.242 314.96C211.14 316.324 212.121 318.287 212.756 321.039C213.989 326.352 214.42 336.811 213.845 340.042" fill="#A4B758"/>
<path d="M210.242 314.96C211.14 316.324 212.121 318.287 212.756 321.039C213.989 326.352 214.42 336.811 213.845 340.042" stroke="#536B1B" stroke-miterlimit="10"/>
</g>
<g id="Vector_162">
<path d="M207.644 333.09C209.008 332.001 210.816 329.009 211.798 326.58C212.337 325.251 212.684 323.074 213.187 322.092" fill="#A4B758"/>
<path d="M207.644 333.09C209.008 332.001 210.816 329.009 211.798 326.58C212.337 325.251 212.684 323.074 213.187 322.092" stroke="#536B1B" stroke-miterlimit="10"/>
</g>
<g id="Vector_163">
<path d="M211.75 317.569C213.055 318.239 217.222 322.008 218.623 323.636L211.75 317.569Z" fill="#A4B758"/>
<path d="M211.75 317.569C213.055 318.239 217.222 322.008 218.623 323.636" stroke="#536B1B" stroke-miterlimit="10"/>
</g>
<g id="Vector_164">
<path d="M213.582 327.513C214.492 328.662 216.743 333.807 217.341 335.866L213.582 327.513Z" fill="#A4B758"/>
<path d="M213.582 327.513C214.492 328.662 216.743 333.807 217.341 335.866" stroke="#536B1B" stroke-miterlimit="10"/>
</g>
</g>
<g id="leaf_28">
<path id="Vector_165" d="M191.624 173.372C192.067 173.635 193.36 169.291 196.688 167.317C198.748 166.084 200.256 166.563 203.764 167.233C210.17 168.453 213.366 169.052 215.725 168.154C216.479 167.867 227.339 166.144 229.721 159.981C231.314 155.877 232.235 152.55 231.924 150.168C231.673 148.206 230.679 145.609 227.363 143.036C226.058 142.019 219.197 139.949 214.133 141.708C213.223 142.031 207.416 143.695 202.16 151.569C194.054 163.691 190.846 172.929 191.612 173.384L191.624 173.372Z" fill="#7D9247" stroke="#536B1B" stroke-miterlimit="10"/>
<g id="Vector_166">
<path d="M227.578 151.58C225.89 151.389 223.615 151.413 220.801 152.155C215.378 153.567 205.728 158.282 203.118 160.4" fill="#7D9247"/>
<path d="M227.578 151.58C225.89 151.389 223.615 151.413 220.801 152.155C215.378 153.567 205.728 158.282 203.118 160.4" stroke="#536B1B" stroke-miterlimit="10"/>
</g>
<g id="Vector_167">
<path d="M212.6 162.913C212.875 161.082 214.635 157.899 216.324 155.781C217.246 154.62 219.017 153.232 219.64 152.263" fill="#7D9247"/>
<path d="M212.6 162.913C212.875 161.082 214.635 157.899 216.324 155.781C217.246 154.62 219.017 153.232 219.64 152.263" stroke="#536B1B" stroke-miterlimit="10"/>
</g>
<g id="Vector_168">
<path d="M224.453 151.413C223.172 150.492 217.629 148.373 215.45 147.835L224.453 151.413Z" fill="#7D9247"/>
<path d="M224.453 151.413C223.172 150.492 217.629 148.373 215.45 147.835" stroke="#536B1B" stroke-miterlimit="10"/>
</g>
<g id="Vector_169">
<path d="M214.552 154.524C213.043 154.213 207.248 154.596 205.081 155.027L214.552 154.524Z" fill="#7D9247"/>
<path d="M214.552 154.524C213.043 154.213 207.248 154.596 205.081 155.027" stroke="#536B1B" stroke-miterlimit="10"/>
</g>
</g>
<g id="leaf_29">
<path id="Vector_170" d="M239.288 233.468C238.773 233.444 240.138 229.124 238.497 225.606C237.48 223.428 235.971 222.985 232.691 221.573C226.704 218.988 223.711 217.696 222.274 215.638C221.807 214.979 213.786 207.464 215.27 201.026C216.252 196.73 217.353 193.464 218.946 191.669C220.263 190.185 222.538 188.593 226.728 188.318C228.368 188.21 235.217 190.328 238.425 194.624C239 195.402 242.867 200.033 242.808 209.499C242.724 224.086 240.185 233.516 239.299 233.468H239.288Z" fill="#668124" stroke="#536B1B" stroke-miterlimit="10"/>
<path id="Vector_171" d="M221.748 195.282C223.244 196.072 225.124 197.365 227.04 199.555C230.739 203.767 236.079 213.065 237.049 216.296" stroke="#536B1B" stroke-miterlimit="10"/>
<path id="Vector_172" d="M227.794 213.053C228.596 211.377 228.919 207.752 228.716 205.059C228.608 203.587 227.913 201.433 227.937 200.284" stroke="#536B1B" stroke-miterlimit="10"/>
<path id="Vector_173" d="M224.429 196.886C226.01 196.85 231.781 198.19 233.888 198.98" stroke="#536B1B" stroke-miterlimit="10"/>
<path id="Vector_174" d="M230.883 205.023C232.307 205.61 236.893 209.176 238.437 210.743" stroke="#536B1B" stroke-miterlimit="10"/>
</g>
<g id="leaf_30">
<path id="Vector_175" d="M160.591 99.1431C159.932 99.0833 161.704 91.8913 158.974 88.421C157.286 86.2671 155.287 83.4071 150.785 80.3197C143.661 75.4253 141.865 74.9108 139.638 72.8406C138.932 72.1704 129.593 64.1528 130.383 58.0619C130.91 54.0052 131.76 50.9417 133.496 49.3143C134.933 47.974 137.423 45.0901 142.787 45.0901C144.894 45.0901 154.257 49.051 159.142 53.3829C160.028 54.1607 165.248 58.9713 167.379 67.9343C171.462 85.0704 161.764 99.2508 160.603 99.1431H160.591Z" fill="#A4B758" stroke="#536B1B" stroke-miterlimit="10"/>
<g id="Vector_176">
<path d="M135.675 49.7332C138.214 51.1691 141.314 53.2753 144.332 56.3148C150.126 62.1664 157.873 73.8817 158.974 77.5794" fill="#A4B758"/>
<path d="M135.675 49.7332C138.214 51.1691 141.314 53.2753 144.332 56.3148C150.126 62.1664 157.873 73.8817 158.974 77.5794" stroke="#536B1B" stroke-miterlimit="10"/>
</g>
<g id="Vector_177">
<path d="M149.504 73.5346C150.031 71.7515 149.54 67.6231 148.642 64.4759C148.151 62.7527 146.834 60.144 146.583 58.8157" fill="#A4B758"/>
<path d="M149.504 73.5346C150.031 71.7515 149.54 67.6231 148.642 64.4759C148.151 62.7527 146.834 60.144 146.583 58.8157" stroke="#536B1B" stroke-miterlimit="10"/>
</g>
<g id="Vector_178">
<path d="M141.255 53.5864C143.158 53.7181 150.581 55.7643 153.371 56.8054L141.255 53.5864Z" fill="#A4B758"/>
<path d="M141.255 53.5864C143.158 53.7181 150.581 55.7643 153.371 56.8054" stroke="#536B1B" stroke-miterlimit="10"/>
</g>
<g id="Vector_179">
<path d="M151.276 64.5237C152.761 64.6912 158.22 66.7854 160.22 67.8384L151.276 64.5237Z" fill="#A4B758"/>
<path d="M151.276 64.5237C152.761 64.6912 158.22 66.7854 160.22 67.8384" stroke="#536B1B" stroke-miterlimit="10"/>
</g>
</g>
<g id="leaf_31">
<path id="Vector_180" d="M236.977 284.278C236.378 284.11 237.671 278.929 235.504 274.023C234.163 270.983 232.367 270.038 228.44 267.393C221.281 262.583 217.701 260.177 215.869 257.162C215.282 256.192 205.405 244.573 206.674 236.699C207.524 231.458 208.577 227.556 210.313 225.654C211.738 224.086 214.217 221.394 219.137 221.346C228.237 221.25 235.564 227.915 239.611 234.222C240.341 235.359 245.861 240.672 246.447 252.758C247.369 271.39 238.018 284.541 236.977 284.254V284.278Z" fill="#7D9247" stroke="#536B1B" stroke-miterlimit="10"/>
<g id="Vector_181">
<path d="M213.953 225.714C216.048 227.568 222.43 233.588 225.208 237.824C230.571 245.997 237.156 258.107 236.462 265.251" fill="#7D9247"/>
<path d="M213.953 225.714C216.048 227.568 222.43 233.588 225.208 237.824C230.571 245.997 237.156 258.107 236.462 265.251" stroke="#536B1B" stroke-miterlimit="10"/>
</g>
<g id="Vector_182">
<path d="M223.795 254.218C224.836 252.399 225.579 247.995 225.65 244.573C225.686 242.706 225.184 239.81 225.339 238.398" fill="#7D9247"/>
<path d="M223.795 254.218C224.836 252.399 225.579 247.995 225.65 244.573C225.686 242.706 225.184 239.81 225.339 238.398" stroke="#536B1B" stroke-miterlimit="10"/>
</g>
<g id="Vector_183">
<path d="M224.178 236.723C225.926 236.759 232.679 238.901 235.193 240.074L224.178 236.723Z" fill="#7D9247"/>
<path d="M224.178 236.723C225.926 236.759 232.679 238.901 235.193 240.074" stroke="#536B1B" stroke-miterlimit="10"/>
</g>
<g id="Vector_184">
<path d="M217.246 228.657C216.551 230.261 215.689 237.285 215.701 240.061L217.246 228.657Z" fill="#7D9247"/>
<path d="M217.246 228.657C216.551 230.261 215.689 237.285 215.701 240.061" stroke="#536B1B" stroke-miterlimit="10"/>
</g>
<g id="Vector_185">
<path d="M233.385 252.327C234.965 253.081 240.233 257.808 242.053 259.902L233.385 252.327Z" fill="#7D9247"/>
<path d="M233.385 252.327C234.965 253.081 240.233 257.808 242.053 259.902" stroke="#536B1B" stroke-miterlimit="10"/>
</g>
</g>
<g id="leaf_32">
<path id="Vector_186" d="M152.353 11.0451C152.509 11.4161 149.085 13.2589 147.241 16.6335C146.091 18.7277 146.307 20.044 146.451 23.1912C146.714 28.9351 146.846 31.8071 145.924 34.1286C145.625 34.8706 143.206 45.1738 138.297 48.2971C135.017 50.3792 132.407 51.7315 130.635 51.7913C129.174 51.8511 126.648 51.9349 124.6 49.5775C120.805 45.2336 121.499 38.5204 123.355 33.5662C123.69 32.6687 124.385 27.4872 130.886 21.4441C140.907 12.1341 152.102 10.387 152.365 11.0331L152.353 11.0451Z" fill="#7D9247" stroke="#536B1B" stroke-miterlimit="10"/>
<g id="Vector_187">
<path d="M129.138 50.0323C129.306 48.1416 130.036 42.1942 131.269 38.8316C133.628 32.3577 137.663 23.4187 141.937 20.3433" fill="#7D9247"/>
<path d="M129.138 50.0323C129.306 48.1416 130.036 42.1942 131.269 38.8316C133.628 32.3577 137.663 23.4187 141.937 20.3433" stroke="#536B1B" stroke-miterlimit="10"/>
</g>
<g id="Vector_188">
<path d="M140.991 31.7114C139.542 32.0824 136.777 33.8175 134.849 35.4091C133.795 36.2827 132.383 37.8981 131.532 38.4965" fill="#7D9247"/>
<path d="M140.991 31.7114C139.542 32.0824 136.777 33.8175 134.849 35.4091C133.795 36.2827 132.383 37.8981 131.532 38.4965" stroke="#536B1B" stroke-miterlimit="10"/>
</g>
<g id="Vector_189">
<path d="M131.078 39.8605C130.383 38.9989 128.791 34.7149 128.408 32.9438L131.078 39.8605Z" fill="#7D9247"/>
<path d="M131.078 39.8605C130.383 38.9989 128.791 34.7149 128.408 32.9438" stroke="#536B1B" stroke-miterlimit="10"/>
</g>
<g id="Vector_190">
<path d="M129.425 47.0405C130.611 46.6097 134.885 43.6779 136.429 42.3616L129.425 47.0405Z" fill="#7D9247"/>
<path d="M129.425 47.0405C130.611 46.6097 134.885 43.6779 136.429 42.3616" stroke="#536B1B" stroke-miterlimit="10"/>
</g>
<g id="Vector_191">
<path d="M135.998 27.9897C135.771 26.8648 136.238 22.0782 136.657 20.1995L135.998 27.9897Z" fill="#7D9247"/>
<path d="M135.998 27.9897C135.771 26.8648 136.238 22.0782 136.657 20.1995" stroke="#536B1B" stroke-miterlimit="10"/>
</g>
</g>
<g id="leaf_33">
<path id="Vector_192" d="M180.944 118.194C181.519 118.062 181.411 114.137 184.871 110.918C188.331 107.699 191.768 107.699 195.958 106.227C204.291 103.319 209.224 101.058 211.211 98.6046C211.846 97.8148 220.837 89.3903 220.371 82.8446C220.059 78.4768 218.215 73.6184 216.767 72.0029C215.581 70.6746 213.51 68.389 208.913 68.2454C200.412 67.9821 192.941 73.3551 188.583 78.5007C187.793 79.4341 182.153 83.7182 180.477 93.7342C177.891 109.159 179.939 118.409 180.944 118.194Z" fill="#7D9247" stroke="#536B1B" stroke-miterlimit="10"/>
<g id="Vector_193">
<path d="M216.623 75.3774C214.217 76.3707 206.793 79.6974 203.13 82.4377C196.054 87.703 186.787 95.7924 185.494 101.584" fill="#7D9247"/>
<path d="M216.623 75.3774C214.217 76.3707 206.793 79.6974 203.13 82.4377C196.054 87.703 186.787 95.7924 185.494 101.584" stroke="#536B1B" stroke-miterlimit="10"/>
</g>
<g id="Vector_194">
<path d="M202.375 94.2369C203.453 92.8847 204.435 89.3426 204.734 86.5065C204.902 84.9628 204.626 82.4737 204.866 81.313" fill="#7D9247"/>
<path d="M202.375 94.2369C203.453 92.8847 204.435 89.3426 204.734 86.5065C204.902 84.9628 204.626 82.4737 204.866 81.313" stroke="#536B1B" stroke-miterlimit="10"/>
</g>
<g id="Vector_195">
<path d="M210.397 78.3092C208.901 77.9502 202.651 78.1058 200.232 78.4528L210.397 78.3092Z" fill="#7D9247"/>
<path d="M210.397 78.3092C208.901 77.9502 202.651 78.1058 200.232 78.4528" stroke="#536B1B" stroke-miterlimit="10"/>
</g>
<g id="Vector_196">
<path d="M199.502 85.5729C198.077 85.3934 192.103 85.6208 189.768 85.884L199.502 85.5729Z" fill="#7D9247"/>
<path d="M199.502 85.5729C198.077 85.3934 192.103 85.6208 189.768 85.884" stroke="#536B1B" stroke-miterlimit="10"/>
</g>
<g id="Vector_197">
<path d="M212.852 76.969C213.043 78.393 211.93 84.137 211.176 86.3269L212.852 76.969Z" fill="#7D9247"/>
<path d="M212.852 76.969C213.043 78.393 211.93 84.137 211.176 86.3269" stroke="#536B1B" stroke-miterlimit="10"/>
</g>
<g id="Vector_198">
<path d="M193.18 99.7054C193.839 98.1856 194.869 91.6878 194.988 89.1389L193.18 99.7054Z" fill="#7D9247"/>
<path d="M193.18 99.7054C193.839 98.1856 194.869 91.6878 194.988 89.1389" stroke="#536B1B" stroke-miterlimit="10"/>
</g>
</g>
<g id="leaf_34">
<path id="Vector_199" d="M186.607 147.811C187.194 147.835 188.691 144.867 192.306 141.828C195.922 138.788 198.843 137.472 203.285 137.161C212.097 136.539 225.746 138.214 228.799 137.412C232.295 136.503 238.892 131.477 240.006 125.003C240.964 119.45 237.539 112.534 236.57 110.607C235.767 109.015 232.307 106.742 227.458 106.096C219.029 104.983 211.774 107.496 206.207 111.313C205.201 112.007 198.113 115.789 193.863 125.003C187.314 139.207 185.59 147.751 186.619 147.811H186.607Z" fill="#668124" stroke="#536B1B" stroke-miterlimit="10"/>
<path id="Vector_200" d="M235.815 120.623C233.217 120.623 225.088 120.886 220.646 122.023C212.097 124.201 200.46 128.162 197.048 133.032" stroke="#536B1B" stroke-miterlimit="10"/>
<path id="Vector_201" d="M219.089 132.721C220.49 131.704 222.37 128.533 223.4 125.888C223.962 124.44 224.357 121.963 224.896 120.922" stroke="#536B1B" stroke-miterlimit="10"/>
<path id="Vector_202" d="M234.438 120.623C233.253 119.295 229.673 114.281 223.543 112.809" stroke="#536B1B" stroke-miterlimit="10"/>
<path id="Vector_203" d="M218.718 122.442C216.994 121.808 211.81 119.594 206.458 119.594" stroke="#536B1B" stroke-miterlimit="10"/>
<path id="Vector_204" d="M209.248 132.015C210.505 130.938 214.3 125.565 215.522 123.327" stroke="#536B1B" stroke-miterlimit="10"/>
</g>
<g id="leaf_35">
<path id="Vector_205" d="M248.327 126.128C248.076 125.876 248.782 124.01 248.638 121.174C248.495 118.338 247.884 116.519 246.22 114.436C242.891 110.296 236.594 104.971 235.696 103.296C234.666 101.381 234.199 96.4267 236.594 93.2915C238.653 90.611 243.107 89.2947 244.352 88.9357C245.382 88.6365 247.8 89.2348 250.063 91.1136C253.99 94.3685 255.846 98.5927 256.433 102.613C256.54 103.343 257.762 108.01 255.427 113.647C251.835 122.334 248.77 126.582 248.327 126.152V126.128Z" fill="#A4B758" stroke="#536B1B" stroke-miterlimit="10"/>
<g id="Vector_206">
<path d="M240.245 93.3394C241.299 94.4881 244.508 98.1738 245.825 100.591C248.351 105.246 251.356 111.995 250.602 115.478" fill="#A4B758"/>
<path d="M240.245 93.3394C241.299 94.4881 244.508 98.1738 245.825 100.591C248.351 105.246 251.356 111.995 250.602 115.478" stroke="#536B1B" stroke-miterlimit="10"/>
</g>
<g id="Vector_207">
<path d="M241.73 105.641C241.61 104.612 242.233 102.494 242.987 100.95C243.394 100.112 244.328 98.9277 244.567 98.2576" fill="#A4B758"/>
<path d="M241.73 105.641C241.61 104.612 242.233 102.494 242.987 100.95C243.394 100.112 244.328 98.9277 244.567 98.2576" stroke="#536B1B" stroke-miterlimit="10"/>
</g>
<g id="Vector_208">
<path d="M240.808 93.9496C241.874 93.9257 245.549 93.459 248.698 95.5651L240.808 93.9496Z" fill="#A4B758"/>
<path d="M240.808 93.9496C241.874 93.9257 245.549 93.459 248.698 95.5651" stroke="#536B1B" stroke-miterlimit="10"/>
</g>
<g id="Vector_209">
<path d="M246.423 101.62C247.405 102.123 250.494 103.499 252.685 105.856L246.423 101.62Z" fill="#A4B758"/>
<path d="M246.423 101.62C247.405 102.123 250.494 103.499 252.685 105.856" stroke="#536B1B" stroke-miterlimit="10"/>
</g>
<g id="Vector_210">
<path d="M246.064 109.698C246.028 108.705 246.842 104.839 247.333 103.391L246.064 109.698Z" fill="#A4B758"/>
<path d="M246.064 109.698C246.028 108.705 246.842 104.839 247.333 103.391" stroke="#536B1B" stroke-miterlimit="10"/>
</g>
</g>
<g id="leaf_36">
<path id="Vector_211" d="M143.493 406.899C143.23 406.337 148.019 403.98 150.378 399.157C151.838 396.165 151.407 394.191 150.881 389.488C149.935 380.92 149.516 375.691 149.839 372.184C150.031 370.15 150.713 355.73 157.549 351.626C162.099 348.885 166.433 348.849 168.995 348.957C171.115 349.041 177.209 350.704 180.417 354.426C186.356 361.307 185.626 369.456 183.411 376.612C183.015 377.904 182.513 385.539 173.665 393.796C160.016 406.516 143.924 407.881 143.481 406.887L143.493 406.899Z" fill="#7D9247" stroke="#536B1B" stroke-miterlimit="10"/>
<g id="Vector_212">
<path d="M173.401 351.518C173.341 354.318 172.851 363.066 171.402 367.936C168.612 377.306 163.62 390.146 157.705 394.239" fill="#7D9247"/>
<path d="M173.401 351.518C173.341 354.318 172.851 363.066 171.402 367.936C168.612 377.306 163.62 390.146 157.705 394.239" stroke="#536B1B" stroke-miterlimit="10"/>
</g>
<g id="Vector_213">
<path d="M157.957 377.438C160.016 377.055 163.871 374.781 166.517 372.627C167.966 371.454 169.857 369.205 171.043 368.403" fill="#7D9247"/>
<path d="M157.957 377.438C160.016 377.055 163.871 374.781 166.517 372.627C167.966 371.454 169.857 369.205 171.043 368.403" stroke="#536B1B" stroke-miterlimit="10"/>
</g>
<g id="Vector_214">
<path d="M171.582 366.428C172.683 367.793 175.401 374.326 176.131 377.007L171.582 366.428Z" fill="#7D9247"/>
<path d="M171.582 366.428C172.683 367.793 175.401 374.326 176.131 377.007" stroke="#536B1B" stroke-miterlimit="10"/>
</g>
<g id="Vector_215">
<path d="M173.27 355.934C171.594 356.448 165.667 360.314 163.548 362.121L173.27 355.934Z" fill="#7D9247"/>
<path d="M173.27 355.934C171.594 356.448 165.667 360.314 163.548 362.121" stroke="#536B1B" stroke-miterlimit="10"/>
</g>
<g id="Vector_216">
<path d="M165.595 383.529C166.038 385.228 165.835 392.3 165.404 395.04L165.595 383.529Z" fill="#7D9247"/>
<path d="M165.595 383.529C166.038 385.228 165.835 392.3 165.404 395.04" stroke="#536B1B" stroke-miterlimit="10"/>
</g>
</g>
<g id="leaf_37">
<path id="Vector_217" d="M139.231 131.01C138.656 130.771 140.608 125.805 139.111 120.659C138.177 117.476 136.525 116.303 132.981 113.168C126.516 107.46 122.685 103.882 120.566 101.07C119.332 99.4304 110.137 88.3134 112.424 80.6787C113.957 75.5929 117.129 72.6492 119.093 70.9978C120.709 69.6336 126.348 66.7616 131.233 67.36C140.261 68.4489 145.205 74.9707 148.39 81.7557C148.965 82.9763 153.742 88.9596 152.748 101.022C151.228 119.606 140.237 131.441 139.243 131.01H139.231Z" fill="#668124" stroke="#536B1B" stroke-miterlimit="10"/>
<path id="Vector_218" d="M124.062 69.9329C125.893 72.039 131.437 78.848 133.64 83.4072C137.89 92.2146 142.847 105.079 141.218 112.067" stroke="#536B1B" stroke-miterlimit="10"/>
<path id="Vector_219" d="M130.084 99.4781C131.353 97.8028 132.658 93.5308 133.185 90.1562C133.472 88.3133 133.352 85.3696 133.688 83.9934" stroke="#536B1B" stroke-miterlimit="10"/>
<path id="Vector_220" d="M132.754 82.1865C134.49 82.4498 140.895 85.4654 143.242 86.9492" stroke="#536B1B" stroke-miterlimit="10"/>
<path id="Vector_221" d="M126.935 73.2834C126.037 74.7912 124.265 81.6361 123.918 84.3884" stroke="#536B1B" stroke-miterlimit="10"/>
<path id="Vector_222" d="M139.842 98.856C141.314 99.8133 145.924 105.186 147.456 107.496" stroke="#536B1B" stroke-miterlimit="10"/>
</g>
<g id="leaf_38">
<path id="Vector_223" d="M230.895 309.982C230.679 309.886 231.062 307.337 230.212 304.86C229.673 303.317 229.015 302.814 227.542 301.426C224.86 298.889 223.268 297.286 222.334 295.981C221.795 295.227 217.796 290.13 218.144 286.24C218.371 283.656 219.329 282.052 219.94 281.143C220.442 280.389 222.274 278.713 224.07 278.797C227.375 278.929 229.554 281.944 231.122 285.163C231.409 285.75 233.493 288.49 233.888 294.521C234.498 303.807 231.29 310.162 230.895 309.994V309.982Z" fill="#9BB574" stroke="#536B1B" stroke-miterlimit="10"/>
<g id="Vector_224">
<path d="M221.652 280.389C222.442 281.358 224.848 284.469 225.926 286.635C227.997 290.812 230.571 296.962 230.428 300.504" fill="#9BB574"/>
<path d="M221.652 280.389C222.442 281.358 224.848 284.469 225.926 286.635C227.997 290.812 230.571 296.962 230.428 300.504" stroke="#536B1B" stroke-miterlimit="10"/>
</g>
<g id="Vector_225">
<path d="M225.651 294.761C225.998 293.875 226.213 291.697 226.189 289.998C226.177 289.077 225.95 287.617 225.986 286.923" fill="#9BB574"/>
<path d="M225.651 294.761C225.998 293.875 226.213 291.697 226.189 289.998C226.177 289.077 225.95 287.617 225.986 286.923" stroke="#536B1B" stroke-miterlimit="10"/>
</g>
<g id="Vector_226">
<path d="M225.531 286.073C226.165 286.133 228.656 287.329 229.59 287.964L225.531 286.073Z" fill="#9BB574"/>
<path d="M225.531 286.073C226.165 286.133 228.656 287.329 229.59 287.964" stroke="#536B1B" stroke-miterlimit="10"/>
</g>
<g id="Vector_227">
<path d="M222.897 281.92C222.669 282.71 222.454 286.181 222.502 287.569L222.897 281.92Z" fill="#9BB574"/>
<path d="M222.897 281.92C222.669 282.71 222.454 286.181 222.502 287.569" stroke="#536B1B" stroke-miterlimit="10"/>
</g>
<g id="Vector_228">
<path d="M229.111 294.019C229.697 294.426 231.685 296.879 232.379 297.956L229.111 294.019Z" fill="#9BB574"/>
<path d="M229.111 294.019C229.697 294.426 231.685 296.879 232.379 297.956" stroke="#536B1B" stroke-miterlimit="10"/>
</g>
</g>
<g id="leaf_39">
<path id="Vector_229" d="M171.857 99.6815C171.558 99.4541 174.371 96.7018 174.934 93.3512C175.281 91.269 174.551 90.3117 173.138 87.8825C170.576 83.4548 169.127 80.7145 168.576 78.6802C168.253 77.5075 165.535 69.3702 169.391 65.0503C171.965 62.1663 174.97 60.85 176.778 60.12C178.274 59.5217 182.896 58.6003 185.961 59.6773C191.636 61.6637 192.929 66.3666 192.977 70.9737C192.977 71.7994 194.33 76.1552 189.996 83.3711C183.303 94.488 172.384 100.088 171.857 99.6815Z" fill="#668124" stroke="#536B1B" stroke-miterlimit="10"/>
<path id="Vector_230" d="M180.417 60.2039C180.992 61.7595 182.608 66.7256 182.668 69.8369C182.8 75.8322 182.177 84.4003 178.957 88.433" stroke="#536B1B" stroke-miterlimit="10"/>
<path id="Vector_231" d="M175.401 79.1109C176.754 78.2732 178.933 75.868 180.31 73.8815C181.064 72.7925 181.878 70.9856 182.525 70.1958" stroke="#536B1B" stroke-miterlimit="10"/>
<path id="Vector_232" d="M182.453 68.9514C183.518 69.3702 186.871 72.1465 187.972 73.391" stroke="#536B1B" stroke-miterlimit="10"/>
<path id="Vector_233" d="M181.304 62.6689C180.25 63.4587 176.981 67.3718 175.904 68.9993" stroke="#536B1B" stroke-miterlimit="10"/>
<path id="Vector_234" d="M182.082 80.1641C182.764 80.9658 184.189 84.9148 184.5 86.5542" stroke="#536B1B" stroke-miterlimit="10"/>
</g>
<g id="leaf_40">
<path id="Vector_235" d="M255.906 157.205C255.666 157.181 255.283 154.632 253.715 152.514C252.745 151.21 251.955 150.922 250.147 150.025C246.83 148.409 244.831 147.356 243.55 146.387C242.807 145.825 237.468 142.151 236.641 138.346C236.091 135.809 236.522 133.99 236.821 132.949C237.072 132.087 238.33 129.933 240.054 129.466C243.25 128.605 246.232 130.831 248.686 133.427C249.129 133.894 251.943 135.892 254.122 141.529C257.474 150.204 256.325 157.229 255.906 157.181V157.205Z" fill="#9BB574" stroke="#536B1B" stroke-miterlimit="10"/>
<g id="Vector_236">
<path d="M238.234 131.728C239.276 132.41 242.508 134.672 244.184 136.419C247.405 139.782 251.715 144.879 252.625 148.302" fill="#9BB574"/>
<path d="M238.234 131.728C239.276 132.41 242.508 134.672 244.184 136.419C247.405 139.782 251.715 144.879 252.625 148.302" stroke="#536B1B" stroke-miterlimit="10"/>
</g>
<g id="Vector_237">
<path d="M246.351 144.245C246.423 143.3 245.968 141.158 245.441 139.542C245.154 138.657 244.507 137.34 244.328 136.67" fill="#9BB574"/>
<path d="M246.351 144.245C246.423 143.3 245.968 141.158 245.441 139.542C245.154 138.657 244.507 137.34 244.328 136.67" stroke="#536B1B" stroke-miterlimit="10"/>
</g>
<g id="Vector_238">
<path d="M243.634 135.988C244.256 135.845 246.986 136.251 248.075 136.575L243.634 135.988Z" fill="#9BB574"/>
<path d="M243.634 135.988C244.256 135.845 246.986 136.251 248.075 136.575" stroke="#536B1B" stroke-miterlimit="10"/>
</g>
<g id="Vector_239">
<path d="M239.874 132.817C239.886 133.631 240.736 137.017 241.191 138.322L239.874 132.817Z" fill="#9BB574"/>
<path d="M239.874 132.817C239.886 133.631 240.736 137.017 241.191 138.322" stroke="#536B1B" stroke-miterlimit="10"/>
</g>
<g id="Vector_240">
<path d="M249.428 142.498C250.111 142.713 252.745 144.461 253.727 145.286L249.428 142.498Z" fill="#9BB574"/>
<path d="M249.428 142.498C250.111 142.713 252.745 144.461 253.727 145.286" stroke="#536B1B" stroke-miterlimit="10"/>
</g>
</g>
<g id="leaf_41">
<path id="Vector_241" d="M182.046 234.593C182.501 234.545 182.884 229.962 185.602 226.132C187.29 223.763 188.762 223.224 192.139 221.585C198.305 218.593 202.016 216.655 204.351 214.908C205.704 213.891 215.486 207.165 216.539 200.308C217.246 195.737 216.144 192.494 215.414 190.627C214.803 189.084 212.073 185.254 208.673 184.465C202.375 183.005 196.94 187.061 192.582 191.788C191.791 192.638 186.655 196.3 183.255 206.459C178.011 222.112 181.255 234.688 182.058 234.593H182.046Z" fill="#A4B758" stroke="#536B1B" stroke-miterlimit="10"/>
<g id="Vector_242">
<path d="M212.504 188.449C210.589 189.706 204.674 193.834 201.693 197.006C195.946 203.12 188.379 212.371 187.098 218.545" fill="#A4B758"/>
<path d="M212.504 188.449C210.589 189.706 204.674 193.834 201.693 197.006C195.946 203.12 188.379 212.371 187.098 218.545" stroke="#536B1B" stroke-miterlimit="10"/>
</g>
<g id="Vector_243">
<path d="M198.628 211.114C198.353 209.415 198.927 205.562 199.718 202.654C200.149 201.062 201.214 198.693 201.466 197.46" fill="#A4B758"/>
<path d="M198.628 211.114C198.353 209.415 198.927 205.562 199.718 202.654C200.149 201.062 201.214 198.693 201.466 197.46" stroke="#536B1B" stroke-miterlimit="10"/>
</g>
<g id="Vector_244">
<path d="M202.687 196.228C201.465 196 196.245 196.79 194.21 197.389L202.687 196.228Z" fill="#A4B758"/>
<path d="M202.687 196.228C201.465 196 196.245 196.79 194.21 197.389" stroke="#536B1B" stroke-miterlimit="10"/>
</g>
<g id="Vector_245">
<path d="M209.499 190.46C209.583 191.932 208.446 198.011 207.751 200.368L209.499 190.46Z" fill="#A4B758"/>
<path d="M209.499 190.46C209.583 191.932 208.446 198.011 207.751 200.368" stroke="#536B1B" stroke-miterlimit="10"/>
</g>
<g id="Vector_246">
<path d="M192.438 208.063C191.157 208.458 186.32 211.665 184.548 213.161L192.438 208.063Z" fill="#A4B758"/>
<path d="M192.438 208.063C191.157 208.458 186.32 211.665 184.548 213.161" stroke="#536B1B" stroke-miterlimit="10"/>
</g>
</g>
<g id="leaf_42">
<path id="Vector_247" d="M281.863 116.662C281.276 116.854 274.475 108.776 269.926 105.928C267.112 104.169 265.005 103.104 260.276 103.116C251.643 103.14 249.009 102.29 245.549 101.584C243.538 101.177 229.266 98.9637 225.914 91.7478C223.675 86.9373 224.094 82.6293 224.465 80.0924C224.777 77.9982 225.89 74.4202 229.937 71.62C237.42 66.4385 246.483 68.4968 254.05 70.9499C255.343 71.3688 261.701 72.2782 271.063 82.2823C283.814 95.9002 282.88 116.303 281.851 116.65L281.863 116.662Z" fill="#668124" stroke="#536B1B" stroke-miterlimit="10"/>
<path id="Vector_248" d="M228.799 83.2635C231.601 83.1798 240.365 83.1798 245.31 84.3525C254.828 86.6261 267.926 90.9102 272.332 96.5823" stroke="#536B1B" stroke-miterlimit="10"/>
<path id="Vector_249" d="M258.588 79.0034C256.504 78.788 252.17 79.865 249.009 81.1694C247.285 81.8754 244.831 83.5028 243.466 83.9336" stroke="#536B1B" stroke-miterlimit="10"/>
<path id="Vector_250" d="M234.81 83.6345C235.863 82.2344 241.55 78.0102 243.969 76.646" stroke="#536B1B" stroke-miterlimit="10"/>
<path id="Vector_251" d="M233.972 82.8447C234.618 84.4722 239 90.0366 240.976 91.9872" stroke="#536B1B" stroke-miterlimit="10"/>
<path id="Vector_252" d="M258.516 88.5766C260.132 87.8946 267.16 87.0928 269.938 87.1167" stroke="#536B1B" stroke-miterlimit="10"/>
<path id="Vector_253" d="M256.025 87.4998C256.612 89.1511 260.755 94.8831 262.658 96.9174" stroke="#536B1B" stroke-miterlimit="10"/>
<path id="Vector_254" d="M242.365 83.802C242.951 85.4534 247.094 91.1854 248.997 93.2197" stroke="#536B1B" stroke-miterlimit="10"/>
</g>
<g id="laef_2">
<path id="Vector_255" d="M202.998 0.682142C203.19 1.2685 200.675 9.94427 200.663 16.9686C200.663 22.4254 200.987 24.2922 201.537 29.1506C202.531 37.7187 202.699 44.5755 201.992 48.0219C201.585 50.0323 198.425 59.9885 191.193 63.3391C186.368 65.5769 182.07 65.1461 179.532 64.7751C177.436 64.464 173.15 60.7783 170.348 56.7336C165.176 49.2545 165.679 43.3071 168.133 35.7442C168.553 34.4518 169.977 26.9607 179.663 19.697C194.593 8.49631 202.651 -0.346983 202.998 0.682142Z" fill="#9BB574" stroke="#536B1B" stroke-miterlimit="10"/>
<g id="Vector_256">
<path d="M178.634 61.8911C178.55 59.0909 178.55 50.3314 179.735 45.3892C182.01 35.8877 186.308 22.7843 191.995 18.3926" fill="#9BB574"/>
<path d="M178.634 61.8911C178.55 59.0909 178.55 50.3314 179.735 45.3892C182.01 35.8877 186.308 22.7843 191.995 18.3926" stroke="#536B1B" stroke-miterlimit="10"/>
</g>
<g id="Vector_257">
<path d="M174.383 32.1184C174.156 34.2006 175.245 38.5445 176.538 41.7036C177.245 43.4268 178.873 45.88 179.292 47.2442" fill="#9BB574"/>
<path d="M174.383 32.1184C174.156 34.2006 175.245 38.5445 176.538 41.7036C177.245 43.4268 178.873 45.88 179.292 47.2442" stroke="#536B1B" stroke-miterlimit="10"/>
</g>
<g id="Vector_258">
<path d="M179.005 55.872C177.604 54.8189 173.39 49.1348 172.025 46.7175L179.005 55.872Z" fill="#9BB574"/>
<path d="M179.005 55.872C177.604 54.8189 173.39 49.1348 172.025 46.7175" stroke="#536B1B" stroke-miterlimit="10"/>
</g>
<g id="Vector_259">
<path d="M178.215 56.7216C179.843 56.0754 185.41 51.7076 187.362 49.7332L178.215 56.7216Z" fill="#9BB574"/>
<path d="M178.215 56.7216C179.843 56.0754 185.41 51.7076 187.362 49.7332" stroke="#536B1B" stroke-miterlimit="10"/>
</g>
<g id="Vector_260">
<path d="M183.961 32.1781C183.279 30.5626 182.477 23.5382 182.513 20.762L183.961 32.1781Z" fill="#9BB574"/>
<path d="M183.961 32.1781C183.279 30.5626 182.477 23.5382 182.513 20.762" stroke="#536B1B" stroke-miterlimit="10"/>
</g>
<g id="Vector_261">
<path d="M182.884 34.6793C184.536 34.0929 190.271 29.9525 192.306 28.0618L182.884 34.6793Z" fill="#9BB574"/>
<path d="M182.884 34.6793C184.536 34.0929 190.271 29.9525 192.306 28.0618" stroke="#536B1B" stroke-miterlimit="10"/>
</g>
<g id="Vector_262">
<path d="M179.184 48.3211C180.837 47.7348 186.572 43.5943 188.607 41.7036L179.184 48.3211Z" fill="#9BB574"/>
<path d="M179.184 48.3211C180.837 47.7348 186.572 43.5943 188.607 41.7036" stroke="#536B1B" stroke-miterlimit="10"/>
</g>
</g>
<g id="leaf_43">
<path id="Vector_263" d="M159.046 326.161C159.705 326.281 159.836 322.104 163.416 319.508C165.631 317.904 177.101 311.669 181.555 310.054C188.116 307.661 191.516 307.062 195.132 306.596C196.102 306.476 216.683 300.852 219.628 295.455C222.574 290.058 219.963 281.909 218.084 278.857C215.737 275.052 208.853 273.867 201.202 275.758C199.167 276.26 190.822 279.12 185.183 282.399C178.861 286.073 168.912 295.85 164.913 304.142C158.771 316.935 157.897 325.946 159.046 326.161Z" fill="#668124" stroke="#536B1B" stroke-miterlimit="10"/>
<path id="Vector_264" d="M216.851 285.463C213.522 285.391 209.26 285.63 204.567 286.839C195.527 289.16 176.5 298 171.5 304.5" stroke="#536B1B" stroke-miterlimit="10"/>
<path id="Vector_265" d="M192.115 299.476C192.223 297.8 194.126 294.605 196.066 292.367C197.12 291.147 199.287 289.519 199.981 288.538" stroke="#536B1B" stroke-miterlimit="10"/>
<path id="Vector_266" d="M179.938 293.062C180.801 292.415 183.135 292.164 185.027 292.344C186.057 292.439 187.745 293.026 188.511 293.002" stroke="#536B1B" stroke-miterlimit="10"/>
<path id="Vector_267" d="M212.899 285.834C212.636 287.342 210.768 290.202 208.972 292.2C207.991 293.289 206.063 294.737 205.405 295.622" stroke="#536B1B" stroke-miterlimit="10"/>
<path id="Vector_268" d="M201.909 287.413C200.795 286.181 192.378 286.181 189.445 285.642" stroke="#536B1B" stroke-miterlimit="10"/>
</g>
</g>
</g>
</g>
</g>
</g>
</g>
<defs>
<clipPath id="clip0_401_1489">
<rect width="283" height="431" fill="white"/>
</clipPath>
</defs>
</svg>
