<svg width="311" height="538" viewBox="0 0 311 538" fill="none" xmlns="http://www.w3.org/2000/svg">
<g id="potted-plant-2 3">
<g id="reol">
<g id="potted-plant">
<g id="t-pot">
<g id="pot">
<path id="Vector" d="M156.588 431.796C125.03 431.796 99.4468 427.904 99.4468 423.103C99.4468 418.302 125.03 414.41 156.588 414.41C188.146 414.41 213.729 418.302 213.729 423.103C213.729 427.904 188.146 431.796 156.588 431.796Z" fill="#563A22"/>
<path id="Vector_2" d="M212.766 424.249C214.948 422.766 207.853 419.715 206.273 419.27C204.994 418.91 204.058 418.476 200.992 417.937C198.682 417.533 196.237 417.158 195.635 417.08C187.506 416.009 171.575 415.526 171.571 415.526C158.134 415.526 151.419 415.275 147.218 415.526C129.105 416.612 123.537 417.488 119.362 418.068C116.751 418.431 110.01 419.58 103.581 421.759C102.656 422.074 98.9053 422.931 100.673 425.185C100.673 425.185 97.2839 424.073 95.4068 422.036C94.8952 421.482 94.3347 421.037 94.3347 421.037C94.6056 418.521 101.629 415.586 105.925 414.833C120.675 412.254 128.303 411.816 128.303 411.816C142.034 411.026 148.899 410.633 156.362 410.67C163.352 410.708 169.333 411.075 181.295 411.816C184.73 412.029 192.457 412.527 201.466 414.103C204.908 414.706 205.739 414.841 209.907 415.818C215.181 417.057 219.067 418.326 219.812 420.46C220.151 421.426 220.196 422.1 220.196 422.1C217.803 423.017 216.174 423.467 212.766 424.245V424.249Z" fill="#BC725B"/>
<path id="Vector_3" d="M220.196 422.104C205.115 426.589 194.078 429.12 184.651 430.104C173.399 431.283 157.017 431.59 147.485 431.22C125.369 430.351 122.352 429.689 113.204 428.307C106.76 427.334 105.586 427.27 97.3817 423.107C96.6256 422.725 94.3384 421.037 94.3384 421.037C93.6575 422.257 92.7058 425.196 92.6644 428.109C92.0212 475.333 97.8895 497.384 97.8895 497.384C101.584 506.8 105.33 516.006 114.821 523.183C117.861 525.482 122.439 528.286 131.335 530.88C141.831 533.939 188.958 531.449 198.855 524.43C208.59 517.525 210.776 511.233 213.221 505.43C216.562 498.459 218.304 490.024 219.549 466.18C220.124 455.191 221.098 439.647 220.199 422.1L220.196 422.104Z" fill="#CC7D5F"/>
</g>
</g>
<g id="plant">
<g id="t-leaf-8">
<path id="Vector_4" d="M139.831 0C142.428 0 149.709 13.5574 157.636 35.8312C161.268 46.0334 163.954 54.7543 167.025 65.0491C173.733 87.5522 177.089 98.8037 177.815 102.534C182.125 124.565 176.79 130.998 172.475 186.876C171.364 201.254 172 197.162 170.695 214.992C166.161 276.862 161.116 290.424 159.673 293.819C159.07 295.238 156.896 300.071 155.856 306.865C155.401 309.858 155.306 312.31 155.263 316.789C155.201 323.61 155.168 327.022 155.462 334.429C156.07 349.724 153.991 351.518 153.882 372.28C153.858 376.402 154 380.97 154.276 390.105C154.935 411.735 155.263 422.546 155.662 423.547C155.961 424.305 156.901 426.483 155.861 427.651C154.788 428.85 151.831 428.74 151.114 427.651C150.644 426.941 151.404 426.232 151.708 424.283C151.978 422.528 151.651 421.258 151.508 420.425C150.891 416.766 151.038 404.637 150.915 396.538C150.753 386.053 150.051 382.839 148.935 363.832C148.783 361.257 148.333 353.529 148.484 356.103C148.484 356.103 149.377 356.17 149.994 356.174C150.397 356.174 150.986 356.161 151.708 356.051C152.486 346.809 152.738 340.289 152.828 336.083C152.856 334.839 152.908 331.687 152.961 328.305C153.089 319.479 153.008 320.21 153.094 317.83C153.279 312.618 153.578 311.754 154.081 303.496C154.252 300.683 154.347 298.682 154.475 295.9C155.961 264.001 156.701 248.054 155.761 236.058C155.363 230.961 153.317 219.983 149.234 198.022C145.157 176.101 143.282 168.994 141.379 162.786C138.132 152.196 137.529 153.126 132.013 136.817C126.369 120.125 123.55 111.775 122.781 103.129C122.064 95.0517 121.774 84.5012 122.463 80.3392C122.491 80.1717 122.192 77.4161 121.798 75.5776C120.844 71.1378 120.289 68.8628 120.013 67.9678C117.621 60.1949 118.869 45.2443 119.092 44.3272C120.426 38.7764 122.073 37.3303 126.345 29.015C136.565 9.11763 137.021 0 139.831 0Z" fill="#839A26"/>
<path id="Vector_5" d="M132.246 16.3747C133.238 16.917 131.434 23.5303 127.993 36.7615C125.543 46.1921 125.491 51.1654 125.619 54.0356C125.714 56.1431 125.942 57.9992 127.399 65.243C129.469 75.5246 131.296 83.1961 131.358 83.4342C134.149 95.1311 132.692 95.6778 135.711 115.408C137.88 129.578 139.029 136.848 142.238 145.909C143.443 149.317 145.878 154.735 150.744 165.568C157.935 181.581 158.851 182.666 160.836 187.987C165.269 199.874 166.37 209.653 167.03 215.732C168.687 231.036 166.361 245.501 164.595 257.445C163.052 267.877 155.073 282.726 154.29 299.744C155.415 275.217 158.016 245.21 154.95 230.983C148.988 203.33 148.988 192.489 141.763 164.28C138.597 151.111 133.703 145.988 127.584 123.917C124.646 113.313 122.505 107.013 122.572 102.419C122.648 97.0974 121.186 88.8836 122.463 80.3348C122.728 78.5403 122.349 77.7688 121.518 74.4885C120.986 72.3855 119.553 66.3761 118.57 60.1552C117.925 56.0769 117.825 45.3324 119.605 41.7171C125.951 28.8343 132.25 16.3658 132.25 16.3658L132.246 16.3747Z" fill="#6E7C1F"/>
<g id="t-leaf-5">
<path id="Vector_6" d="M145.072 326.079C143.98 320.51 142.56 316.882 139.731 309.642C133.736 294.308 131.102 294.295 126.478 281.897C121.893 269.605 123.326 266.506 118.143 260.029C114.284 255.205 110.914 253.711 104.719 249.372C103.077 248.222 90.0278 238.972 80.1877 226.772C73.8603 218.925 77.221 220.225 61.3952 190.941C59.0645 186.629 56.8525 182.644 56.0551 176.793C55.0488 169.439 57.5693 168.584 56.0551 160.806C54.9396 155.07 51.9824 147.377 51.7023 146.658C51.3178 145.67 50.9903 144.859 50.7577 144.308C50.5109 143.704 50.2545 143.096 49.9887 142.483C49.8985 142.28 49.8131 142.082 49.7229 141.879C49.5947 140.838 49.4808 139.542 49.7229 139.489C50.0124 139.427 50.5916 141.151 51.8969 144.299C54.4175 150.357 54.6596 149.674 55.1627 151.834C55.5092 153.32 55.6849 154.894 56.8431 156.794C57.4032 157.716 57.9396 158.293 58.6231 158.725C59.9 159.528 61.1911 159.484 61.9886 159.554C64.1768 159.739 65.1737 160.952 69.3081 164.241C73.2764 167.398 72.5359 166.428 76.2337 169.386C80.9093 173.125 84.2083 176.339 85.7272 177.838C99.8964 191.779 106.979 198.754 109.96 202.828C118.19 214.084 121.186 226.01 127.171 249.866C128.842 256.524 131.614 262.952 132.711 269.711C133.043 271.743 133.575 275.588 136.076 279.904C137.705 282.717 138.364 282.616 140.429 285.878C143.045 290.014 145.034 293.162 145.076 297.271C145.114 300.692 143.78 302.795 145.076 306.702C145.428 307.76 145.575 307.746 146.125 309.153C147.659 313.072 147.806 316.436 147.882 318.032C148.209 325.162 148.636 332.282 148.992 339.407C149.467 348.767 149.714 353.476 150.383 354.842C150.635 355.35 151.736 357.483 150.91 358.273C150.469 358.696 149.609 358.594 148.988 358.458C148.66 356.355 148.185 353.163 147.692 349.27C146.102 336.66 146.391 332.829 145.072 326.079Z" fill="#718713"/>
</g>
</g>
<g id="t-leaf-7">
<path id="Vector_7" d="M311 45.2487C311 45.2487 308.014 62.9725 305.66 72.2577C293.1 121.779 295.174 110.884 278.954 142.267C274.464 150.952 256.654 184.945 227.912 217.787C223.697 222.602 219.658 226.927 214.612 234.325C200.908 254.416 196.057 273.339 192.895 286.143C191.139 293.25 189.971 302.465 187.555 320.872C182.286 360.989 180.212 390.145 179.41 402.64C178.845 411.453 178.479 418.684 178.256 423.401H175.09C175.465 417.7 176.03 408.878 176.671 398.045C177.687 380.89 177.758 377.883 178.451 367.911C179.671 350.328 180.278 341.532 181.418 334.835C183.976 319.77 186.145 318.077 186.957 305.617C187.607 295.6 186.781 287.893 185.97 282.832C184.973 276.633 183.634 272.145 183.003 269.971C179.68 258.556 172.579 234.157 172.024 212.827C171.658 198.802 174.183 188.366 176.177 180.122C180.767 161.155 188.533 146.129 206.841 117.555C226.427 86.9923 234.14 80.0262 241.493 75.6614C243.306 74.5856 249.676 73.0821 255.505 67.9458C260.879 63.2106 259.488 60.1905 264.406 56.9191C268.507 54.1944 271.725 52.6116 289.331 48.6524C294.813 47.4179 299.223 51.1037 310.995 45.2531L311 45.2487Z" fill="#718713"/>
<path id="Vector_8" d="M305.66 72.2577C303.756 76.0009 290.613 102.498 271.094 126.262C239.414 164.836 204.064 218.272 198.482 226.345C187.664 241.992 190.641 257.216 191.172 261.673C192.126 269.684 189.629 274.428 187.721 285.279C186.055 294.745 188.201 299.154 186.525 310.454C185.557 316.97 184.028 322.23 182.861 325.713C184.118 325.832 185.376 325.951 186.63 326.074C187.436 320.524 188.248 314.973 189.055 309.422C189.516 303.554 190.332 297.125 191.694 290.252C193.878 279.208 197.167 271.1 198.947 264.583C200.998 257.084 213.017 234.642 227.912 217.787C231.349 213.898 246.543 194.856 262.146 171.573C273.239 155.022 282.932 134.683 291.215 119.385C300.889 101.524 304.858 73.5804 305.66 72.2577Z" fill="#6E7C1F"/>
</g>
<g id="t-leaf-6">
<path id="Vector_9" d="M140.785 423.406C140.814 420.416 140.652 416.104 139.731 411.012C138.284 403.041 135.355 395.308 127.072 381.856C117.066 365.614 111.165 356.037 99.6401 345.597C87.3934 334.504 76.884 329.76 70.3619 323.548C69.3319 322.565 67.2623 320.462 63.7686 319.139C60.7972 318.015 59.8241 318.597 57.1754 317.424C53.9571 316 54.5314 314.757 50.5821 312.032C46.0109 308.88 41.7151 308.112 40.8512 307.971C38.4256 307.57 36.8686 307.747 36.8639 307.623C36.8639 307.376 43.3622 305.679 49.7894 307.623C51.3416 308.095 52.8511 308.765 55.3289 308.849C57.8114 308.933 59.2355 308.364 60.6025 308.113C67.3525 306.891 74.335 313.271 75.1087 313.994C78.7732 317.42 76.903 318.235 81.702 323.548C84.6782 326.842 86.8617 329.262 90.6687 330.898C92.4345 331.656 93.8395 331.943 95.6813 333.349C97.9977 335.117 98.9518 337.088 99.6401 338.247C100.931 340.434 102.445 341.735 109.926 346.823C120.137 353.771 121.471 354.168 124.433 356.377C136.361 365.256 140.728 378.051 142.864 384.307C144.958 390.436 146.434 394.761 146.059 400.722C145.641 407.414 143.296 409.637 143.947 417.136C144.312 421.325 145.428 425.099 144.212 425.61C143.382 425.958 141.91 424.614 140.785 423.406Z" fill="#819319"/>
</g>
<g id="t-leaf-4">
<path id="Vector_10" d="M147.758 310.467C147.806 307.658 147.825 306.252 148.086 304.585C148.522 301.812 149.187 301.054 149.999 298.276C150.834 295.424 150.991 293.281 151.204 290.314C152.363 274.534 153.317 264.103 149.448 253.931C148.712 251.991 147.692 249.769 147.692 246.507C147.692 241.798 149.823 240.63 150.521 235.207C150.796 233.068 150.435 233.478 149.946 225.282C149.557 218.788 149.761 218.149 149.429 214.251C149.097 210.336 148.565 207.135 147.687 202.682C145.295 190.5 144.098 184.412 142.01 177.966C137.064 162.693 129.749 151.856 125.985 146.363C118.319 135.177 117.217 137.086 107.786 124.221C96.1322 108.327 98.2587 106.012 88.2003 94.2714C80.596 85.3919 75.8349 79.8322 67.6277 74.7002C64.1863 72.5487 57.7829 68.9995 51.5029 62.7565C48.4887 59.7584 45.5695 56.2313 45.5695 56.2313C41.9382 51.8444 40.6993 49.5474 39.1423 47.5017C37.6139 45.4956 31.5712 42.0346 19.5571 35.192C19.5571 35.192 8.07938 28.6536 3.15222 24.8134C3.01456 24.7076 2.6633 24.4254 2.64431 24.4431C2.55887 24.5312 6.72654 29.8925 13.2296 33.5386C14.6394 34.3278 16.4005 35.1743 18.8688 36.9379C21.7833 39.0233 22.4953 40.1079 22.8276 40.7031C23.8672 42.5769 23.2691 43.3661 24.2137 45.112C25.2437 47.0167 26.9051 47.8191 28.4668 48.7891C28.4668 48.7891 31.1487 50.4512 36.28 55.9535C39.9018 59.8378 41.1075 63.6956 42.5125 67.5314C45.2846 75.1059 49.4476 82.1733 52.6991 89.5803C52.6991 89.5803 58.1674 102.035 65.2591 116.501C70.5375 127.263 74.5438 134.485 82.5374 148.902C92.8522 167.503 95.7762 171.745 101.662 183.816C105.678 192.057 108.616 198.904 110.415 203.255C110.643 203.568 110.961 204.018 111.336 204.565C113.021 207.021 115.243 210.649 117.502 215.957C118.656 218.669 119.524 221.138 120.929 225.728C121.893 228.871 123.967 235.427 125.876 243.734C126.464 246.295 127.043 249.037 128.235 253.076C128.463 253.843 128.951 255.4 129.934 258.512C130.974 261.81 132.137 265.439 132.545 268.221C132.578 268.428 132.663 269.036 132.811 269.883C132.863 270.174 133.157 271.88 133.485 273.229C133.76 274.358 134.273 276.448 135.545 278.806C136.304 280.213 137.092 281.271 137.942 282.413C138.967 283.788 139.167 283.872 140.068 285.133C140.899 286.297 141.402 287.166 142.304 288.726C143.595 290.957 143.956 291.861 144.098 292.218C144.293 292.717 144.545 293.382 144.753 294.273C144.863 294.745 145.375 297.059 144.948 299.661C144.877 300.093 144.734 300.802 144.649 301.869C144.616 302.279 144.578 302.738 144.587 303.329C144.597 303.977 144.616 305.017 144.967 306.212C145.176 306.918 145.228 306.759 145.864 308.373C146.064 308.875 146.334 309.563 146.624 310.467C146.79 310.987 147.06 311.829 147.288 312.878C147.644 314.532 147.654 315.59 147.711 315.586C147.801 315.586 147.711 313.258 147.753 310.462L147.758 310.467Z" fill="#819319"/>
<path id="Vector_11" d="M44.4017 63.2018C47.2973 66.9846 45.8733 67.668 48.3606 70.5514C51.0093 73.6289 53.2877 73.8934 56.5393 77.9011C60.0424 82.2218 57.4886 83.7076 61.5519 92.3579C63.7117 96.9564 66.8255 101.67 66.8255 101.67C69.047 105.029 69.6072 105.307 70.5186 107.304C72.3935 111.422 71.1499 112.754 72.365 117.595C73.4568 121.933 74.6767 121.743 77.4394 128.621C79.1197 132.801 78.645 132.81 80.2779 137.197C82.6323 143.506 85.3238 148.073 86.8712 150.67C90.3031 156.433 92.0215 159.312 94.7841 161.939C97.7366 164.748 100.191 166.048 102.697 170.016C103.945 171.996 103.912 172.591 105.336 174.677C107.7 178.155 110.221 180.082 111.929 181.537C114.08 183.367 116.529 186.352 121.423 192.317C130.133 202.929 128.562 205.724 139.095 221.473C140.686 223.849 143.491 227.928 145.822 233.999C147.07 237.244 148.034 240.286 148.446 242.177C148.276 242.715 148.081 243.253 147.958 243.879C147.801 244.681 147.635 246.317 147.829 248.517C148.034 250.876 148.997 252.728 149.182 253.244C151.024 258.362 152.325 263.653 152.149 267.925C151.84 275.381 152.225 277.052 151.613 284.763C151.143 290.675 151.204 294.599 150.416 297.628C150.089 298.885 148.812 301.01 148.081 303.545C147.787 305.145 147.72 306.459 147.659 307.579C147.45 311.556 147.848 314.814 147.711 314.823C147.687 314.823 147.654 314.695 147.587 314.439C147.421 313.782 147.464 313.518 147.35 312.98C147.326 312.87 147.236 312.579 147.051 311.997C147.008 311.864 146.904 311.525 146.714 310.969C146.472 310.238 146.348 309.872 146.234 309.559C145.907 308.668 145.831 308.686 145.394 307.605C145.105 306.887 144.929 306.455 144.772 305.824C144.716 305.591 144.606 305.11 144.535 304.493C144.521 304.369 144.459 303.823 144.469 303.064C144.478 302.328 144.549 301.777 144.621 301.208C144.739 300.309 144.791 300.3 144.896 299.458C144.953 299.008 145.024 298.417 145.034 297.672C145.048 296.72 144.958 295.988 144.924 295.763C144.716 294.238 144.212 293.021 143.918 292.368C142.56 289.388 139.755 285.323 138.991 284.207C136.257 280.23 134.875 278.202 134.125 276.315C133.124 273.78 132.901 271.854 132.668 270.297C131.975 265.703 131.125 264.041 128.515 255.382C123.611 239.131 124.523 238.09 120.958 227.936C118.869 221.989 116.116 216.12 110.605 204.384C106.955 196.611 103.964 190.685 100.993 184.813C96.5262 175.986 93.0658 169.474 89.8142 163.359C80.6624 146.151 79.8982 145.432 74.2828 134.833C61.5376 110.77 63.8493 111.62 54.0045 93.5836C54.0045 93.5836 45.5125 76.6093 42.1755 68.0824C41.7815 67.0728 41.3686 64.8595 40.0252 61.9496C38.8338 59.366 37.9651 58.0037 37.9651 58.0037C37.9651 58.0037 41.8955 59.9436 44.3923 63.2062L44.4017 63.2018Z" fill="#6E7C1F"/>
</g>
<g id="t-leaf-3">
<path id="Vector_12" d="M184.18 410.88C184.18 403.222 184.18 395.568 184.18 387.909C184.18 371.548 184.175 367.064 186.16 360.53C188.505 352.814 192.046 347.458 193.873 344.729C199.417 336.466 204.482 333.001 218.998 321.207C234.363 308.725 242.048 302.482 243.729 300.445C243.729 300.445 260.133 285.958 267.866 277.845C269.1 276.549 271.227 276.558 271.231 276.558C273.073 275.985 274.208 275.835 274.991 275.641C278.019 274.883 278.831 272.66 280.924 271.047C286.174 267.004 293.071 271.735 301.103 267.37C301.625 267.088 303.69 265.963 303.476 265.35C303.158 264.425 297.927 265.227 297.144 265.35C293.408 265.941 291.429 266.819 288.837 267.617C283.687 269.199 279.391 269.446 277.098 269.579C271.725 269.887 270.439 268.97 264.04 268.6C264.04 268.6 258.154 268.26 250.194 269.089C236.48 270.518 225.226 276.121 220.256 278.643C214.588 281.522 203.566 287.245 193.351 298.735C188.742 303.92 180.088 313.875 176.865 328.746C175.038 337.172 175.721 343.631 176.865 354.472C178.489 369.842 181.28 370.834 182.139 385.22C182.728 395.065 182.6 406.947 182.6 406.947C182.576 409.152 182.633 421.28 182.6 422.568C183.16 422.105 183.494 422.671 184.054 422.208L184.18 410.88Z" fill="#839A26"/>
</g>
<g id="t-leaf-2">
<path id="Vector_13" d="M135.227 425.663C135.383 420.086 135.492 412.119 135.227 402.551C134.795 387.005 134.923 372.209 131.467 358.577C125.311 334.301 113.026 321.396 108.716 309.572C108.716 309.572 106.404 303.227 102.189 298.545C101.316 297.575 100.39 296.707 100.39 296.707C97.8979 294.37 96.7729 293.691 95.7571 292.615C93.4502 290.164 93.2224 287.99 91.485 283.48C90.3173 280.455 88.3379 278.216 84.3838 273.741C80.463 269.305 77.6244 266.197 72.5976 264.067C70.0153 262.974 68.4774 261.942 67.0913 260.13C64.8983 257.269 64.9125 256.361 62.2259 252.975C59.487 249.518 58.7465 250.431 54.5123 245.991C52.6848 244.077 50.4111 241.661 48.5789 238.09C46.7798 234.594 47.0694 233.231 46.0061 230.74C44.264 226.653 41.5062 225.675 34.1344 220.265C32.0743 218.753 30.0854 217.157 28.1345 215.525C2.60629 194.151 26.3829 213.81 16.3292 205.385C15.7928 204.935 14.5919 203.934 14.7486 203.731C14.872 203.564 15.8546 203.978 16.5286 204.344C18.1425 205.217 18.7643 206.249 19.8276 207.47C20.9051 208.709 22.4953 210.539 24.9731 211.756C26.2785 212.399 27.0807 212.505 28.1392 213.471C29.1028 214.352 29.3069 215.058 29.8528 215.86C30.7547 217.179 32.0316 217.933 35.1265 219.229C38.8147 220.772 40.6612 221.543 43.0394 222.108C46.8036 222.998 53.6817 225.56 67.4378 230.683C85.3285 237.345 97.9502 247.644 102.649 251.753C109.798 258.005 114.132 263.512 118.133 268.657C126.236 279.066 147.92 306.935 144.72 330.519C144.336 333.362 143.159 339.297 142.859 348.282C142.575 356.924 143.467 357.223 142.859 363.471C142.062 371.649 140.391 372.575 138.915 383.192C138.079 389.197 137.904 394.007 137.861 395.563C137.666 402.229 138.269 402.318 138.127 411.122C138.084 413.776 137.956 418.388 137.733 423.401C137.681 424.556 137.633 425.522 137.6 426.188C136.807 426.011 136.019 425.835 135.227 425.658V425.663Z" fill="#839A26"/>
<path id="Vector_14" d="M140.842 363.352C141.136 361.703 141.122 360.018 140.814 358.37C139.779 352.819 137.629 349.128 135.687 346.686C133.266 343.635 131.918 343.463 130.015 340.438C126.564 334.954 129.179 332.63 126.849 326.074C124.338 318.998 118.485 313.782 114.716 310.427C112.418 308.381 111.417 307.852 109.442 305.648C105.982 301.79 105.835 299.824 102.388 297.059C99.9249 295.084 99.4834 295.67 97.6417 293.889C95.0784 291.411 94.186 288.585 93.2889 285.605C91.6845 280.288 92.9946 280.129 91.4899 276.694C90.925 275.407 89.1734 271.558 84.7826 268.979C82.9172 267.881 81.8634 267.806 79.3428 266.96C73.6325 265.042 70.7322 263.741 68.2306 261.294C67.8366 260.911 66.2559 258.331 63.0851 253.177C60.7117 249.315 60.3415 248.61 59.1263 247.543C56.7956 245.488 55.2197 245.497 52.8605 243.438C50.2878 241.194 48.7783 238.482 48.7783 238.482C48.7783 238.482 49.3384 239.898 50.1027 241.018C52.3194 244.249 53.7624 245.634 57.2038 248.746C59.8383 251.127 61.8984 252.988 64.0962 255.761C67.0439 259.482 66.0851 259.597 67.9648 261.232C70.7701 263.675 73.0154 263.512 77.4346 266.916C78.3033 267.586 78.8634 268.093 79.7036 268.847C84.2463 272.938 88.7177 276.972 91.0152 282.752C92.0737 285.42 92.3016 287.54 94.1481 290.411C94.6275 291.16 95.5199 292.545 97.0816 294.026C97.8885 294.789 98.254 294.996 99.4217 296.014C99.4217 296.014 100.979 297.377 102.588 299.109C104.795 301.481 106.11 304.338 107.468 307.226C107.468 307.226 109.575 311.701 112.015 316.644C114.64 321.965 116.838 325.038 118.566 327.948C119.814 330.051 123.706 337.075 127.181 346.042C128.163 348.573 130.323 354.415 131.994 361.416C134.201 370.675 134.439 377.332 134.795 394.046C135.056 406.215 135.317 420.623 135.345 425.156C135.345 425.191 135.345 425.442 135.345 425.478C135.801 425.733 136.233 425.839 136.641 425.782C141.274 425.169 133.983 401.489 140.847 363.36L140.842 363.352Z" fill="#6E7C1F"/>
</g>
<g id="t-leaf-1">
<path id="Vector_15" d="M176.139 384.47C176.087 379.303 174.881 376.287 174.179 373.567C173.471 370.825 172.622 368.55 165.872 353.11C163.798 348.37 163.109 346.823 162.706 344.168C161.965 339.257 163.332 337.939 163.627 332.137C163.807 328.592 162.957 324.002 161.253 314.827C160.204 309.179 159.682 306.358 158.88 303.743C157.01 297.654 155.605 296.473 152.225 288.704C148.902 281.068 147.236 277.232 146.514 271.523C145.94 266.995 145.285 261.797 147.901 256.365C149.139 253.79 150.141 253.186 151.209 250.21C152.87 245.581 152.211 242.133 152.168 239.183C152.049 231.186 156.43 224.775 158.386 221.909C165.065 212.139 172.413 213.797 175.736 205.186C177.388 200.91 175.707 200.156 177.971 193.15C179.215 189.301 180.781 186.541 183.905 181.021C189.99 170.277 191.903 169.933 192.805 170.012C194.044 170.113 194.837 171.132 196.099 172.754C197.001 173.914 198.425 176.978 198.473 182.308C198.506 185.928 198.079 188.741 197.353 192.233C196.394 196.84 196.75 197.973 196.099 203.692C195.141 212.113 193.546 212.099 191.813 222.183C191.039 226.68 191.438 226.212 190.232 235.965C189.321 243.328 188.851 247.111 188.058 251.215C186.131 261.175 184.427 261.92 181.133 274.186C180.107 277.999 178.237 285.063 177.174 293.664C176.016 303.055 176.391 309.717 176.581 315.585C177.388 340.566 174.321 335.302 175.437 348.577C176.357 359.551 177.986 365.283 178.427 376.411C178.892 388.218 177.872 399.593 177.141 399.593C176.799 399.593 176.723 396.061 176.134 384.466L176.139 384.47Z" fill="#6D7521"/>
</g>
<g id="t-leaf">
<path id="Vector_16" d="M169.128 428.502C169.066 420.253 167.514 416.1 167.021 410.478C166.745 407.335 167.025 404.623 167.585 399.209C168.245 392.847 169.441 381.291 173.87 370.543C175.223 367.267 180.022 360.689 189.563 347.665C189.563 347.665 207.506 323.186 218.941 313.121C220.403 311.833 222.914 310.026 227.941 306.415C231.202 304.069 232.151 303.501 233.58 303.289C234.23 303.192 235.317 303.121 235.46 302.645C235.588 302.204 234.876 301.556 234.173 301.265C232.83 300.71 231.32 301.367 230.12 301.909C226.27 303.646 224.347 304.515 223.294 305.035C220.621 306.353 218.76 306.512 214.588 307.239C214.588 307.239 208.93 308.227 198.345 310.824C187.061 313.593 179.884 323.288 170.704 335.69C166.114 341.893 161.742 347.907 158.832 357.003C156.426 364.538 154.712 375.159 156.72 379.788C157.109 380.679 158.234 382.733 158.154 385.537C158.116 386.864 157.826 387.609 157.888 389.395C157.949 391.159 158.301 392.468 158.548 393.376C160.964 402.216 161.381 403.543 161.381 403.543C163.57 410.474 163.641 410.456 164.087 412.264C164.861 415.403 164.386 414.455 165.54 419.896C166.271 423.366 166.949 424.543 167.011 428.493C167.021 428.987 167.011 429.862 167.011 430.127L169.114 429.767C169.123 429.291 169.123 429.362 169.114 428.493L169.128 428.502Z" fill="#718713"/>
<path id="Vector_17" d="M158.068 391.176C158.79 380.264 156.673 381.459 156.73 379.797C157.166 367.029 164.775 363.391 167.021 359.913C170.082 355.164 173.196 354.402 175.441 348.582C176.054 346.99 176.975 344.058 179.405 340.743C181.18 338.322 182.481 337.44 183.421 336.947C185.334 335.937 185.837 336.488 187.973 335.355C188.433 335.113 188.723 334.919 192.459 331.925C193.854 330.805 194.552 330.245 194.965 329.906C196.845 328.345 197.979 327.401 199.251 326.083C200.039 325.267 200.865 324.412 201.691 323.231C203.86 320.127 203.034 319.082 204.857 316.679C205.375 315.996 207.026 313.875 209.87 312.945C212.234 312.169 212.765 313.094 214.683 312.27C216.857 311.34 216.553 309.995 219.563 307.676C220.574 306.896 221.49 306.402 223.322 305.41C226.517 303.681 226.222 304.012 228.705 302.57C228.838 302.495 230.252 301.75 231.586 301.34C233.11 300.869 233.366 301.01 233.699 301.137C233.751 301.16 235.298 301.534 235.303 302.112C235.303 302.293 235.512 302.61 235.469 302.663C235.047 303.183 233.884 303.258 232.887 303.452C232.479 303.532 231.99 303.703 230.936 304.378C226.906 306.957 223.716 309.545 223.716 309.545C219.601 312.892 219.957 312.208 218.025 313.967C215.798 315.996 215.11 316.763 211.802 320.515C208.18 324.624 208.033 324.703 204.852 328.376C203.39 330.069 201.962 331.863 199.213 335.359C196.398 338.94 194.362 341.241 193.849 341.92C191.955 344.42 188.628 348.811 184.607 354.516C178.569 363.083 175.237 367.24 173.875 370.556C171.155 377.182 169.627 382.433 167.899 393.663C166.717 401.352 166.793 405.179 167.002 410.285C167.187 414.733 168.022 417.277 168.022 417.277C168.435 419.393 168.563 421.241 168.948 424.234C169.09 425.359 169.351 428.573 168.971 428.648C168.696 428.701 168.131 427.193 167.908 426.593C165.848 421.016 166.778 418.551 165.416 414.023C164.016 409.381 162.639 408.327 161.491 403.874C160.873 401.493 157.954 391.86 158.063 391.19L158.068 391.176Z" fill="#6E7C1F"/>
</g>
</g>
</g>
</g>
</g>
</svg>
