<svg width="178" height="294" viewBox="0 0 178 294" fill="none" xmlns="http://www.w3.org/2000/svg">
<g id="Frame 151">
<g id="top-branch">
<path id="Vector" d="M34.1094 67.3944C51.2176 60.1514 76.4626 69.8456 80.1026 72.9913C90.9818 82.3872 94.8865 92.6085 97.4912 99.4188C101.085 108.826 99.7201 111.128 98.9957 112C96.0868 115.442 89.8824 111.927 83.5368 115.63C77.0893 119.379 75.8041 127.499 75.7404 127.964C74.8093 134.404 78.5573 136.707 84.3246 151.309C87.3989 159.111 88.9361 163.011 89.0391 167.278C89.1573 172.472 87.5554 177.633 84.3348 187.962C82.9869 192.304 81.6032 196.145 80.8292 198.301C77.8476 206.585 76.8772 208.144 76.0428 210.943C74.6902 215.446 73.9715 222.218 77.1463 231.763" stroke="#536B1B" stroke-width="2" stroke-miterlimit="10"/>
<g id="leaf">
<path id="Vector_2" d="M77.702 279.203C77.0909 278.845 80.1213 275.42 79.2299 270.82C78.6717 267.97 76.9791 266.532 73.4093 262.954C66.9145 256.426 63.6625 253.174 62.5596 250.152C62.1999 249.184 59.8085 242.366 63.6652 236.892C66.2405 233.243 70.2805 232.046 72.7972 231.296C74.8719 230.681 79.7123 229.321 85.1414 231.338C85.8929 231.622 92.154 234.074 94.7171 240.487C95.1847 241.642 96.6798 245.835 93.5941 255.255C88.8524 269.783 78.7787 279.83 77.7067 279.191L77.702 279.203Z" fill="#668124" stroke="#536B1B" stroke-miterlimit="10"/>
<path id="Vector_3" d="M77.9306 235.987C79.442 238.166 81.1415 241.145 82.3755 244.892C84.7516 252.122 84.1925 258.513 83.5701 262.143" stroke="#536B1B" stroke-miterlimit="10"/>
<path id="Vector_4" d="M72.7484 251.013C73.9736 249.361 76.4573 245.622 77.5789 242.632C78.2754 240.784 78.683 239.094 78.9301 237.647" stroke="#536B1B" stroke-miterlimit="10"/>
<path id="Vector_5" d="M82.3862 244.833C84.2422 245.776 88.1598 248.038 90.4862 250.269" stroke="#536B1B" stroke-miterlimit="10"/>
</g>
<g id="leaf_2">
<path id="Vector_6" d="M111.301 160.044C110.428 159.992 111.852 154.585 108.34 150.132C106.162 147.378 103.504 146.785 97.6334 144.945C86.9246 141.591 81.5763 139.915 78.6966 137.278C77.7715 136.429 71.3901 130.422 72.5867 122.339C73.3762 116.948 77.137 113.35 79.4869 111.117C81.4193 109.274 85.9492 105.064 93.0122 104.166C93.9927 104.049 102.194 103.13 108.533 108.603C109.681 109.596 113.628 113.255 115.47 125.178C118.314 143.555 112.853 160.109 111.323 160.024L111.301 160.044Z" fill="#7D9247" stroke="#536B1B" stroke-miterlimit="10"/>
<g id="Vector_7">
<path d="M87.5784 113.123C90.4529 114.627 93.9592 116.883 97.3996 120.242C104.023 126.723 106.951 133.989 108.286 138.293" fill="#7D9247"/>
<path d="M87.5784 113.123C90.4529 114.627 93.9592 116.883 97.3996 120.242C104.023 126.723 106.951 133.989 108.286 138.293" stroke="#536B1B" stroke-miterlimit="10"/>
</g>
<g id="Vector_8">
<path d="M90.2712 132.29C90.7302 129.795 91.4307 124.337 91.0289 120.474C90.7825 118.091 90.3035 116.024 89.7791 114.321" fill="#7D9247"/>
<path d="M90.2712 132.29C90.7302 129.795 91.4307 124.337 91.0289 120.474C90.7825 118.091 90.3035 116.024 89.7791 114.321" stroke="#536B1B" stroke-miterlimit="10"/>
</g>
<g id="Vector_9">
<path d="M97.287 120.269C99.8241 120.219 105.343 120.424 109.094 121.488Z" fill="#7D9247"/>
<path d="M97.287 120.269C99.8241 120.219 105.343 120.424 109.094 121.488" stroke="#536B1B" stroke-miterlimit="10"/>
</g>
</g>
<g id="leaf_3">
<path id="Vector_10" d="M115.997 206.925C115.475 206.938 116.364 202.401 114.265 198.977C112.959 196.849 111.364 196.537 107.829 195.399C101.381 193.32 98.1593 192.275 96.4293 190.304C95.8776 189.678 86.7682 182.753 87.5336 176.026C88.049 171.552 88.7894 168.113 90.2199 166.126C91.4013 164.492 93.5546 162.656 97.824 161.98C99.503 161.719 106.78 163.246 110.576 167.331C111.264 168.072 115.772 172.442 116.806 182.107C118.421 197.017 116.915 206.897 115.997 206.925Z" fill="#668124" stroke="#536B1B" stroke-miterlimit="10"/>
<path id="Vector_11" d="M93.4353 169.471C95.0802 170.143 97.1559 171.293 99.3915 173.364C103.698 177.353 110.294 186.404 111.662 189.623" stroke="#536B1B" stroke-miterlimit="10"/>
<path id="Vector_12" d="M101.745 187.067C102.379 185.296 102.29 181.578 101.772 178.856C101.492 177.372 100.533 175.248 100.433 174.084" stroke="#536B1B" stroke-miterlimit="10"/>
<path id="Vector_13" d="M96.242 170.939C97.8659 170.741 104.025 171.584 106.293 172.195" stroke="#536B1B" stroke-miterlimit="10"/>
<path id="Vector_14" d="M104.013 178.659C105.559 179.134 110.723 182.4 112.495 183.889" stroke="#536B1B" stroke-miterlimit="10"/>
</g>
<g id="leaf_4">
<path id="Vector_15" d="M43.9415 120.647C44.6306 120.623 44.5069 116.344 48.0755 112.917C50.2929 110.786 52.4791 110.374 57.4257 109.04C66.4381 106.601 70.9527 105.377 73.6958 103.358C74.57 102.716 88.2374 95.45 88.7919 89.072C89.1558 84.8226 88.9608 81.5813 87.5364 79.7866C86.3631 78.3093 84.4443 75.1467 78.9426 74.8066C76.7891 74.6704 66.2858 78.1942 60.3124 82.3801C59.2256 83.1397 52.2558 87.6392 48.6223 96.971C43.0268 111.342 42.729 120.696 43.9368 120.659L43.9415 120.647Z" fill="#9BB574" stroke="#536B1B" stroke-miterlimit="10"/>
<path id="Vector_16" d="M83.9508 85.2344C81.3222 85.8377 77.9629 86.8874 74.2752 88.7801C67.1715 92.4398 56.0269 100.792 53.5832 103.778" stroke="#536B1B" stroke-miterlimit="10"/>
<path id="Vector_17" d="M62.6601 102.346C63.1772 100.376 65.9604 96.5327 68.5449 93.8035C69.9598 92.3178 72.639 90.3006 73.6091 89.111" stroke="#536B1B" stroke-miterlimit="10"/>
<path id="Vector_18" d="M81.2646 85.9133C79.3929 85.411 71.3709 84.9982 68.219 85.114" stroke="#536B1B" stroke-miterlimit="10"/>
</g>
<g id="leaf_5">
<path id="Vector_19" d="M49.2057 214.237C49.9325 214.336 50.0223 209.892 53.9164 206.966C56.3317 205.158 58.6142 205.119 63.8217 204.606C73.2981 203.668 78.0254 203.209 80.9714 201.609C81.9205 201.101 96.4724 195.99 97.3765 189.492C97.9809 185.156 97.9655 181.768 96.5887 179.661C95.4448 177.919 93.6361 174.314 87.9667 172.979C85.7386 172.45 74.6742 174.25 68.268 177.519C67.1078 178.105 59.6348 181.541 55.3621 190.545C48.7821 204.435 47.955 214.056 49.2057 214.237Z" fill="#A4B758" stroke="#536B1B" stroke-miterlimit="10"/>
<g id="Vector_20">
<path d="M92.6016 184.653C89.8424 184.819 86.3018 185.307 82.3825 186.622C74.8194 189.156 62.8023 195.845 60.1033 198.508" fill="#A4B758"/>
<path d="M92.6016 184.653C89.8424 184.819 86.3018 185.307 82.3825 186.622C74.8194 189.156 62.8023 195.845 60.1033 198.508" stroke="#536B1B" stroke-miterlimit="10"/>
</g>
<g id="Vector_21">
<path d="M69.5994 198.607C70.2442 196.664 73.345 193.167 76.1793 190.817C77.7272 189.537 80.619 187.927 81.6946 186.867" fill="#A4B758"/>
<path d="M69.5994 198.607C70.2442 196.664 73.345 193.167 76.1793 190.817C77.7272 189.537 80.619 187.927 81.6946 186.867" stroke="#536B1B" stroke-miterlimit="10"/>
</g>
<g id="Vector_22">
<path d="M89.7792 184.936C87.8702 184.078 79.5901 182.212 76.3211 181.779Z" fill="#A4B758"/>
<path d="M89.7792 184.936C87.8702 184.078 79.5901 182.212 76.3211 181.779" stroke="#536B1B" stroke-miterlimit="10"/>
</g>
</g>
<g id="leaf_6">
<path id="Vector_23" d="M20.0851 120.874C19.7402 120.266 24.0443 118.634 25.5494 114.125C26.4809 111.339 25.7266 109.257 24.4384 104.42C22.0842 95.5966 20.9095 91.1791 21.4504 87.9742C21.6289 86.9462 21.5832 72.1191 27.5981 69.0431C31.6065 66.9965 34.9091 65.8385 37.4501 66.3532C39.5448 66.7698 43.6759 67.1475 46.9252 71.7841C48.1957 73.6071 50.2655 84.1572 49.2861 91.0511C49.1061 92.2964 48.3464 100.191 41.045 107.143C29.7862 117.86 20.7117 121.932 20.102 120.866L20.0851 120.874Z" fill="#7D9247" stroke="#536B1B" stroke-miterlimit="10"/>
<g id="Vector_24">
<path d="M33.8712 71.716C34.6492 74.2379 35.3784 77.5583 35.4466 81.5215C35.5643 89.1427 33.1992 102.176 31.5498 105.509" fill="#7D9247"/>
<path d="M33.8712 71.716C34.6492 74.2379 35.3784 77.5583 35.4466 81.5215C35.5643 89.1427 33.1992 102.176 31.5498 105.509" stroke="#536B1B" stroke-miterlimit="10"/>
</g>
<g id="Vector_25">
<path d="M28.2783 97.1284C29.9198 95.8645 32.2041 91.8792 33.4972 88.5146C34.2058 86.6706 34.773 83.5163 35.4162 82.1922" fill="#7D9247"/>
<path d="M28.2783 97.1284C29.9198 95.8645 32.2041 91.8792 33.4972 88.5146C34.2058 86.6706 34.773 83.5163 35.4162 82.1922" stroke="#536B1B" stroke-miterlimit="10"/>
</g>
<g id="Vector_26">
<path d="M34.5495 74.2325C36.029 75.6429 40.6852 82.4036 42.2382 85.1696Z" fill="#7D9247"/>
<path d="M34.5495 74.2325C36.029 75.6429 40.6852 82.4036 42.2382 85.1696" stroke="#536B1B" stroke-miterlimit="10"/>
</g>
</g>
<g id="leaf_7">
<path id="Vector_27" d="M53.3025 173.097C53.6563 173.041 53.8729 169.604 55.8778 166.655C57.1298 164.824 58.2406 164.387 60.8098 163.047C65.4781 160.614 68.2768 159.04 70.0338 157.653C71.0538 156.845 78.42 151.497 79.1105 146.343C79.5749 142.908 78.6779 140.519 78.0784 139.144C77.592 138.011 75.4306 135.244 72.8067 134.769C67.9608 133.888 63.8778 137.092 60.6161 140.782C60.0239 141.45 56.1572 144.347 53.7278 152.051C49.9874 163.906 52.6821 173.198 53.2978 173.109L53.3025 173.097Z" fill="#668124" stroke="#536B1B" stroke-miterlimit="10"/>
<path id="Vector_28" d="M75.7034 137.651C74.2701 138.655 69.8389 141.933 67.6206 144.393C63.3602 149.143 57.7542 156.299 56.8728 160.943" stroke="#536B1B" stroke-miterlimit="10"/>
<path id="Vector_29" d="M65.5345 155.017C65.3015 153.757 65.681 150.874 66.2268 148.687C66.527 147.488 67.29 145.687 67.4552 144.767" stroke="#536B1B" stroke-miterlimit="10"/>
<path id="Vector_30" d="M68.3219 143.741C67.3651 143.607 63.3374 144.376 61.7735 144.901" stroke="#536B1B" stroke-miterlimit="10"/>
<path id="Vector_31" d="M73.4579 139.319C73.5414 140.407 72.782 144.978 72.2878 146.749" stroke="#536B1B" stroke-miterlimit="10"/>
<path id="Vector_32" d="M60.7264 152.833C59.7439 153.179 56.0933 155.736 54.7458 156.912" stroke="#536B1B" stroke-miterlimit="10"/>
</g>
<g id="leaf_8">
<path id="Vector_33" d="M48.8748 234.898C49.1296 234.958 50.5208 232.528 52.9578 230.947C54.4626 229.974 55.3849 229.962 57.5891 229.692C61.6205 229.228 64.082 228.869 65.7745 228.342C66.7556 228.037 73.6668 226.211 76.0042 222.673C77.5625 220.314 77.8334 218.334 77.9346 217.182C78.0145 216.227 77.5701 213.621 75.9862 212.548C73.0479 210.563 69.1209 211.758 65.5885 213.511C64.9517 213.825 61.2855 214.85 56.8444 219.756C50.0102 227.308 48.436 234.775 48.8842 234.874L48.8748 234.898Z" fill="#9BB574" stroke="#536B1B" stroke-miterlimit="10"/>
<g id="Vector_34">
<path d="M76.9586 215.484C75.6212 215.806 71.4136 216.95 69.0065 218.122C64.3791 220.379 57.9519 224.001 55.6742 227.129" fill="#9BB574"/>
<path d="M76.9586 215.484C75.6212 215.806 71.4136 216.95 69.0065 218.122C64.3791 220.379 57.9519 224.001 55.6742 227.129" stroke="#536B1B" stroke-miterlimit="10"/>
</g>
<g id="Vector_35">
<path d="M63.7473 225.238C64.0417 224.266 65.3317 222.278 66.4899 220.842C67.1233 220.054 68.2861 218.959 68.7273 218.35" fill="#9BB574"/>
<path d="M63.7473 225.238C64.0417 224.266 65.3317 222.278 66.4899 220.842C67.1233 220.054 68.2861 218.959 68.7273 218.35" stroke="#536B1B" stroke-miterlimit="10"/>
</g>
<g id="Vector_36">
<path d="M69.699 217.902C69.1105 217.53 66.114 216.977 64.8536 216.924Z" fill="#9BB574"/>
<path d="M69.699 217.902C69.1105 217.53 66.114 216.977 64.8536 216.924" stroke="#536B1B" stroke-miterlimit="10"/>
</g>
<g id="Vector_37">
<path d="M74.8033 216.107C74.4759 216.917 72.308 220.015 71.3446 221.164Z" fill="#9BB574"/>
<path d="M74.8033 216.107C74.4759 216.917 72.308 220.015 71.3446 221.164" stroke="#536B1B" stroke-miterlimit="10"/>
</g>
<g id="Vector_38">
<path d="M61.2136 222.302C60.4242 222.28 57.016 223.121 55.6768 223.611Z" fill="#9BB574"/>
<path d="M61.2136 222.302C60.4242 222.28 57.016 223.121 55.6768 223.611" stroke="#536B1B" stroke-miterlimit="10"/>
</g>
</g>
<g id="leaf_9">
<path id="Vector_39" d="M162.507 76.1488C162.078 76.6751 150.931 73.6517 144.998 73.8915C141.328 74.0388 138.744 74.3789 134.346 77.2576C126.344 82.5179 123.371 83.3564 119.741 84.8361C117.629 85.6939 103.047 92.3875 95.599 88.0314C90.6379 85.1287 88.4558 81.0602 87.2854 78.6005C86.3136 76.5658 87.1927 70.5351 89.2694 65.6C93.1302 56.4813 98.9551 53.3206 107.462 50.8971C108.911 50.4854 116.732 47.1963 129.275 51.3423C148.608 57.7244 163.246 75.2204 162.49 76.1567L162.507 76.1488Z" fill="#A4B758" stroke="#536B1B" stroke-miterlimit="10"/>
<g id="Vector_40">
<path d="M93.1971 78.6774C95.7492 76.9028 103.885 71.6055 109.177 69.6559C119.366 65.9097 134.094 61.7525 141.568 64.1122" fill="#A4B758"/>
<path d="M93.1971 78.6774C95.7492 76.9028 103.885 71.6055 109.177 69.6559C119.366 65.9097 134.094 61.7525 141.568 64.1122" stroke="#536B1B" stroke-miterlimit="10"/>
</g>
<g id="Vector_41">
<path d="M118.092 56.9199C116.061 57.9768 112.73 61.5366 110.604 64.5721C109.441 66.2253 108.151 69.1259 107.157 70.3071" fill="#A4B758"/>
<path d="M118.092 56.9199C116.061 57.9768 112.73 61.5366 110.604 64.5721C109.441 66.2253 108.151 69.1259 107.157 70.3071" stroke="#536B1B" stroke-miterlimit="10"/>
</g>
<g id="Vector_42">
<path d="M98.9933 75.0953C99.1426 73.249 101.809 66.1499 103.185 63.5101Z" fill="#A4B758"/>
<path d="M98.9933 75.0953C99.1426 73.249 101.809 66.1499 103.185 63.5101" stroke="#536B1B" stroke-miterlimit="10"/>
</g>
<g id="Vector_43">
<path d="M97.7594 74.9176C99.3454 76.0023 106.787 78.3147 109.81 78.8462Z" fill="#A4B758"/>
<path d="M97.7594 74.9176C99.3454 76.0023 106.787 78.3147 109.81 78.8462" stroke="#536B1B" stroke-miterlimit="10"/>
</g>
<g id="Vector_44">
<path d="M123.869 65.5615C124.949 63.9971 130.943 59.0607 133.525 57.4105Z" fill="#A4B758"/>
<path d="M123.869 65.5615C124.949 63.9971 130.943 59.0607 133.525 57.4105" stroke="#536B1B" stroke-miterlimit="10"/>
</g>
<g id="Vector_45">
<path d="M120.917 66.0214C122.454 67.1613 129.774 69.7923 132.777 70.447Z" fill="#A4B758"/>
<path d="M120.917 66.0214C122.454 67.1613 129.774 69.7923 132.777 70.447" stroke="#536B1B" stroke-miterlimit="10"/>
</g>
<g id="Vector_46">
<path d="M106.095 70.7971C107.631 71.937 114.952 74.5679 117.955 75.2226Z" fill="#A4B758"/>
<path d="M106.095 70.7971C107.631 71.937 114.952 74.5679 117.955 75.2226" stroke="#536B1B" stroke-miterlimit="10"/>
</g>
</g>
<g id="leaf_10">
<path id="Vector_47" d="M85.5929 23.4046C85.5976 24.032 77.8376 30.452 74.597 34.9487C72.5894 37.7312 71.2774 39.8265 70.1638 44.7515C68.1292 53.715 66.848 56.4059 65.4922 59.9284C64.6939 61.9817 59.6287 76.643 53.3314 79.5499C49.1372 81.4892 45.9616 80.7022 44.1185 80.1125C42.5924 79.6313 40.214 75.4438 39.0475 71.0177C36.8992 62.8273 38.6906 56.6921 42.3556 49.0074C42.9761 47.6959 45.848 40.0255 54.9247 33.2396C68.926 22.778 85.5518 22.3021 85.5685 23.3962L85.5929 23.4046Z" fill="#668124" stroke="#536B1B" stroke-miterlimit="10"/>
<path id="Vector_48" d="M47.7569 75.8006C48.3479 72.8991 50.4285 63.8125 52.4634 58.7925C56.3952 49.1118 62.6599 35.8705 67.8944 31.74" stroke="#536B1B" stroke-miterlimit="10"/>
<path id="Vector_49" d="M51.3708 44.4823C50.701 46.6323 50.5006 51.2271 50.7299 54.6094C50.8518 56.4594 51.5038 59.1435 51.5083 60.5862" stroke="#536B1B" stroke-miterlimit="10"/>
<path id="Vector_50" d="M49.3755 69.5539C48.5525 68.3452 46.6833 62.0724 46.2186 59.4443" stroke="#536B1B" stroke-miterlimit="10"/>
<path id="Vector_51" d="M48.6588 70.4337C50.0511 69.8874 55.3537 65.7856 57.3165 63.881" stroke="#536B1B" stroke-miterlimit="10"/>
<path id="Vector_52" d="M58.5154 45.3785C58.3916 43.6524 59.452 36.2911 60.1285 33.4142" stroke="#536B1B" stroke-miterlimit="10"/>
<path id="Vector_53" d="M57.1999 47.9494C58.607 47.4757 63.9747 43.6108 65.9802 41.8147" stroke="#536B1B" stroke-miterlimit="10"/>
<path id="Vector_54" d="M51.2942 61.7997C52.7013 61.3261 58.069 57.4611 60.0746 55.665" stroke="#536B1B" stroke-miterlimit="10"/>
</g>
</g>
</g>
</svg>
