<svg width="280" height="1298" viewBox="0 0 280 1298" fill="none" xmlns="http://www.w3.org/2000/svg">
<g id="vine 2" clip-path="url(#clip0_1_6888)">
<g id="pot">
<path id="Vector" d="M107.021 1128.85C159.812 1128.85 202.607 1122.26 202.607 1114.13C202.607 1106 159.812 1099.41 107.021 1099.41C54.2301 1099.41 11.4346 1106 11.4346 1114.13C11.4346 1122.26 54.2301 1128.85 107.021 1128.85Z" fill="#563A22"/>
<path id="Vector_2" d="M13.0388 1116.06C9.39046 1113.55 21.2599 1108.38 23.9025 1107.63C26.0443 1107.02 27.6119 1106.28 32.7384 1105.37C36.6026 1104.68 40.6947 1104.05 41.7005 1103.92C55.2964 1102.11 81.9547 1101.29 81.9547 1101.29C104.431 1101.29 115.665 1100.86 122.693 1101.29C152.996 1103.13 162.308 1104.61 169.296 1105.59C173.665 1106.21 184.94 1108.16 195.697 1111.85C197.249 1112.38 203.523 1113.83 200.563 1117.65C200.563 1117.65 206.231 1115.77 209.375 1112.32C210.23 1111.38 211.166 1110.63 211.166 1110.63C210.71 1106.37 198.967 1101.4 191.78 1100.13C167.109 1095.76 154.34 1095.02 154.34 1095.02C131.371 1093.68 119.888 1093.01 107.404 1093.08C95.7094 1093.14 85.7049 1093.77 65.6918 1095.02C59.9464 1095.38 47.0224 1096.23 31.9444 1098.9C26.1868 1099.92 24.7942 1100.14 17.8273 1101.8C9.0077 1103.9 2.50498 1106.05 1.25492 1109.66C0.688937 1111.3 0.611572 1112.44 0.611572 1112.44C4.61826 1113.99 7.33418 1114.75 13.0388 1116.07V1116.06Z" fill="#BC725B"/>
<path id="Vector_3" d="M0.611624 1112.43C25.8367 1120.03 44.3065 1124.31 60.0768 1125.98C78.9009 1127.98 106.308 1128.5 122.25 1127.87C159.242 1126.4 164.291 1125.28 179.602 1122.94C190.384 1121.29 192.342 1121.18 206.073 1114.13C207.335 1113.48 211.166 1110.63 211.166 1110.63C212.302 1112.7 213.899 1117.67 213.964 1122.61C215.039 1202.58 205.222 1239.93 205.222 1239.93C199.045 1255.87 192.774 1271.46 176.898 1283.62C171.812 1287.51 164.157 1292.26 149.27 1296.65C131.717 1301.83 80.9816 1305.21 48.6267 1291.32C38.0644 1286.78 18.1898 1270.29 12.7131 1257.31C7.30573 1244.5 3.78766 1227.46 1.69881 1187.08C0.737851 1168.46 -0.894956 1142.14 0.611624 1112.43V1112.43Z" fill="#CC7D5F"/>
</g>
<g id="growth plant">
<g id="Vector_4">
<path d="M170.38 13.6443C164.057 16.1564 157.332 22.6834 150.778 32.7472C144.328 42.6511 138.518 55.245 133.727 68.7053C124.222 95.4065 119.179 124.186 120.438 140.43L120.502 141.194C123.566 174.5 140.084 204.895 155.983 236.36C171.658 267.382 187.307 302.105 185.115 338.743C183.28 369.425 169.249 397.007 155.872 423.249C142.271 449.933 129.33 475.265 127.222 502.994C124.754 535.446 137.261 565.668 152.263 597.212C167.036 628.272 184.37 660.806 188.925 696.066C194.717 740.874 179.339 785.272 160.62 824.65C141.657 864.545 119.385 900.93 107.187 941.877C91.7189 993.802 94.0987 1050.97 113.833 1101.41L102.672 1105.85C81.947 1052.89 79.4502 992.922 95.6953 938.389C108.246 896.258 131.575 857.754 149.8 819.411L150.662 817.587C168.418 779.864 181.836 739.491 177.261 699.564L177.026 697.632C172.783 664.79 156.643 634.406 141.446 602.453C126.478 570.984 112.517 538.096 115.257 502.067L115.374 500.635C118.029 470.604 132.05 443.51 145.201 417.709C158.787 391.057 171.48 365.728 173.137 338.013L173.217 336.468C174.67 304.024 160.776 272.504 145.293 241.862C129.788 211.178 111.877 178.454 108.553 142.316L108.479 141.433C107.016 122.709 112.668 92.0423 122.434 64.61C127.43 50.5737 133.622 37.0411 140.751 26.0942C147.775 15.3073 156.207 6.25881 165.985 2.37427L170.38 13.6443Z" fill="#31400F"/>
<path d="M86.4646 1021.24C86.7688 1027.8 88.8616 1048.31 90.82 1070.02C92.181 1085.11 93.9587 1094.23 94.9957 1106.71C95.15 1108.57 98.5885 1122.09 100.001 1123.31C101.216 1124.36 104.654 1124.25 106.264 1124.4C116.76 1125.32 108.042 1124.49 120.919 1124.12C123.782 1124.03 126.517 1125.39 128.484 1123.33C131.709 1119.93 123.526 1113.36 121.319 1109.25C99.9403 1069.56 90.7791 1027.58 95.9394 982.836C96.9715 973.873 98.8857 961.755 96.7763 955.918C92.5248 956.171 91.9924 976.446 90.6187 986.806C88.5013 1002.76 85.7144 1005.08 86.4646 1021.24Z" fill="#31400F"/>
</g>
<g id="growth">
<g id="leaf">
<path id="Vector_5" d="M129.482 886.901C133.566 904.073 157.405 909.787 164.163 925.943C161.807 920.076 163.444 913.038 166.124 906.656C168.806 900.276 172.511 894.125 174.481 887.613C177.711 876.926 175.854 865.653 169.502 857.411C163.982 850.248 148.776 838.958 138.505 848.393C130.621 855.637 127.462 878.404 129.483 886.899L129.482 886.901Z" fill="#576B32" stroke="#2E3D0E" stroke-width="2" stroke-miterlimit="10"/>
<g id="Group">
<g id="Vector_6">
<path d="M139.869 847.278C145.566 858.132 152.612 871.6 154.999 883.697C156.952 893.6 157.746 903.74 158.538 913.856" fill="#576B32"/>
<path d="M139.869 847.278C145.566 858.132 152.612 871.6 154.999 883.697C156.952 893.6 157.746 903.74 158.538 913.856" stroke="#2E3D0E" stroke-width="2" stroke-miterlimit="10"/>
</g>
<g id="Vector_7">
<path d="M142.945 853.083C143.848 856.548 143.564 860.353 142.145 863.797C141.653 864.994 141.028 866.145 140.551 867.349C140.015 868.696 139.671 870.097 139.329 871.491" fill="#576B32"/>
<path d="M142.945 853.083C143.848 856.548 143.564 860.353 142.145 863.797C141.653 864.994 141.028 866.145 140.551 867.349C140.015 868.696 139.671 870.097 139.329 871.491" stroke="#2E3D0E" stroke-width="2" stroke-miterlimit="10"/>
</g>
<g id="Vector_8">
<path d="M148.329 864.143C149.099 868.496 148.536 873.132 146.725 877.343C145.852 879.373 144.696 881.303 143.901 883.357C143.105 885.414 142.685 887.68 143.343 889.699" fill="#576B32"/>
<path d="M148.329 864.143C149.099 868.496 148.536 873.132 146.725 877.343C145.852 879.373 144.696 881.303 143.901 883.357C143.105 885.414 142.685 887.68 143.343 889.699" stroke="#2E3D0E" stroke-width="2" stroke-miterlimit="10"/>
</g>
<g id="Vector_9">
<path d="M142.71 852.526C143.943 853.639 145.566 854.263 147.119 854.942C149.217 855.857 151.242 856.909 153.178 858.091C154.078 858.64 154.965 859.222 155.681 859.976C156.943 861.308 157.579 863.08 158.187 864.804" fill="#576B32"/>
<path d="M142.71 852.526C143.943 853.639 145.566 854.263 147.119 854.942C149.217 855.857 151.242 856.909 153.178 858.091C154.078 858.64 154.965 859.222 155.681 859.976C156.943 861.308 157.579 863.08 158.187 864.804" stroke="#2E3D0E" stroke-width="2" stroke-miterlimit="10"/>
</g>
<g id="Vector_10">
<path d="M151.402 871.586C152.138 873.641 153.338 875.164 155.053 876.215C156.769 877.265 158.709 877.966 160.458 878.965C163.502 880.704 165.928 883.362 167.33 886.496" fill="#576B32"/>
<path d="M151.402 871.586C152.138 873.641 153.338 875.164 155.053 876.215C156.769 877.265 158.709 877.966 160.458 878.965C163.502 880.704 165.928 883.362 167.33 886.496" stroke="#2E3D0E" stroke-width="2" stroke-miterlimit="10"/>
</g>
<g id="Vector_11">
<path d="M155.555 886.935C156.651 889.655 159.555 892.594 161.077 895.715C161.763 897.121 163.319 898.723 164.567 899.556" fill="#576B32"/>
<path d="M155.555 886.935C156.651 889.655 159.555 892.594 161.077 895.715C161.763 897.121 163.319 898.723 164.567 899.556" stroke="#2E3D0E" stroke-width="2" stroke-miterlimit="10"/>
</g>
<g id="Vector_12">
<path d="M156.582 893.815C156.504 894.856 154.865 896.538 154.309 897.439C153.723 898.393 153.127 899.37 152.865 900.433C152.648 901.325 152.674 902.238 152.704 903.139" fill="#576B32"/>
<path d="M156.582 893.815C156.504 894.856 154.865 896.538 154.309 897.439C153.723 898.393 153.127 899.37 152.865 900.433C152.648 901.325 152.674 902.238 152.704 903.139" stroke="#2E3D0E" stroke-width="2" stroke-miterlimit="10"/>
</g>
</g>
</g>
<g id="leaf_2">
<path id="Vector_13" d="M186.168 717.887C179.063 734.035 154.595 735.306 145.043 749.967C148.415 744.625 148.072 737.402 146.585 730.636C145.096 723.869 142.56 717.143 141.795 710.377C140.542 699.274 144.396 688.523 152.125 681.574C158.841 675.535 175.824 667.203 184.225 678.358C190.674 686.922 189.683 709.896 186.168 717.884L186.168 717.887Z" fill="#576B32" stroke="#2E3D0E" stroke-width="2" stroke-miterlimit="10"/>
<g id="Group_2">
<g id="Vector_14">
<path d="M183.102 677.011C175.541 686.651 166.183 698.618 161.652 710.084C157.945 719.47 155.335 729.302 152.731 739.109" fill="#576B32"/>
<path d="M183.102 677.011C175.541 686.651 166.183 698.618 161.652 710.084C157.945 719.47 155.335 729.302 152.731 739.109" stroke="#2E3D0E" stroke-width="2" stroke-miterlimit="10"/>
</g>
<g id="Vector_15">
<path d="M179.015 682.172C177.498 685.417 177.09 689.212 177.865 692.86C178.133 694.127 178.54 695.373 178.792 696.644C179.076 698.068 179.162 699.509 179.246 700.943" fill="#576B32"/>
<path d="M179.015 682.172C177.498 685.417 177.09 689.212 177.865 692.86C178.133 694.127 178.54 695.373 178.792 696.644C179.076 698.068 179.162 699.509 179.246 700.943" stroke="#2E3D0E" stroke-width="2" stroke-miterlimit="10"/>
</g>
<g id="Vector_16">
<path d="M171.739 692.062C170.193 696.206 169.909 700.871 170.931 705.343C171.423 707.5 172.213 709.608 172.624 711.775C173.036 713.944 173.039 716.249 172.027 718.117" fill="#576B32"/>
<path d="M171.739 692.062C170.193 696.206 169.909 700.871 170.931 705.343C171.423 707.5 172.213 709.608 172.624 711.775C173.036 713.944 173.039 716.249 172.027 718.117" stroke="#2E3D0E" stroke-width="2" stroke-miterlimit="10"/>
</g>
<g id="Vector_17">
<path d="M179.337 681.668C177.925 682.537 176.217 682.855 174.568 683.24C172.341 683.758 170.161 684.424 168.044 685.234C167.061 685.609 166.083 686.02 165.244 686.63C163.763 687.709 162.818 689.334 161.909 690.917" fill="#576B32"/>
<path d="M179.337 681.668C177.925 682.537 176.217 682.855 174.568 683.24C172.341 683.758 170.161 684.424 168.044 685.234C167.061 685.609 166.083 686.02 165.244 686.63C163.763 687.709 162.818 689.334 161.909 690.917" stroke="#2E3D0E" stroke-width="2" stroke-miterlimit="10"/>
</g>
<g id="Vector_18">
<path d="M167.369 698.821C166.274 700.708 164.82 701.986 162.945 702.706C161.069 703.427 159.036 703.763 157.136 704.427C153.83 705.584 150.966 707.754 149.023 710.579" fill="#576B32"/>
<path d="M167.369 698.821C166.274 700.708 164.82 701.986 162.945 702.706C161.069 703.427 159.036 703.763 157.136 704.427C153.83 705.584 150.966 707.754 149.023 710.579" stroke="#2E3D0E" stroke-width="2" stroke-miterlimit="10"/>
</g>
<g id="Vector_19">
<path d="M160.53 713.157C158.962 715.633 155.578 717.994 153.518 720.785C152.59 722.044 150.772 723.335 149.395 723.928" fill="#576B32"/>
<path d="M160.53 713.157C158.962 715.633 155.578 717.994 153.518 720.785C152.59 722.044 150.772 723.335 149.395 723.928" stroke="#2E3D0E" stroke-width="2" stroke-miterlimit="10"/>
</g>
<g id="Vector_20">
<path d="M158.283 719.739C158.171 720.778 159.483 722.73 159.868 723.718C160.273 724.764 160.684 725.833 160.75 726.927C160.802 727.844 160.61 728.737 160.418 729.619" fill="#576B32"/>
<path d="M158.283 719.739C158.171 720.778 159.483 722.73 159.868 723.718C160.273 724.764 160.684 725.833 160.75 726.927C160.802 727.844 160.61 728.737 160.418 729.619" stroke="#2E3D0E" stroke-width="2" stroke-miterlimit="10"/>
</g>
</g>
</g>
<g id="leaf_3">
<path id="Vector_21" d="M131.415 511.265C142.732 524.705 166.52 518.852 179.764 530.158C175.042 526.007 173.353 518.978 172.886 512.055C172.422 505.132 172.97 497.945 171.813 491.232C169.911 480.216 163.216 471.014 153.872 466.581C145.753 462.728 127.16 459.642 122.231 472.774C118.448 482.856 125.816 504.613 131.415 511.262L131.415 511.265Z" fill="#576B32" stroke="#2E3D0E" stroke-width="2" stroke-miterlimit="10"/>
<g id="Group_3">
<g id="Vector_22">
<path d="M122.962 471.157C132.884 478.217 145.173 486.988 152.702 496.678C158.863 504.612 164.099 513.291 169.321 521.949" fill="#576B32"/>
<path d="M122.962 471.157C132.884 478.217 145.173 486.988 152.702 496.678C158.863 504.612 164.099 513.291 169.321 521.949" stroke="#2E3D0E" stroke-width="2" stroke-miterlimit="10"/>
</g>
<g id="Vector_23">
<path d="M128.237 474.914C130.592 477.587 132.041 481.109 132.316 484.831C132.413 486.124 132.372 487.437 132.484 488.729C132.61 490.176 132.93 491.583 133.249 492.983" fill="#576B32"/>
<path d="M128.237 474.914C130.592 477.587 132.041 481.109 132.316 484.831C132.413 486.124 132.372 487.437 132.484 488.729C132.61 490.176 132.93 491.583 133.249 492.983" stroke="#2E3D0E" stroke-width="2" stroke-miterlimit="10"/>
</g>
<g id="Vector_24">
<path d="M138.008 482.308C140.643 485.835 142.215 490.226 142.484 494.811C142.614 497.022 142.447 499.272 142.657 501.469C142.868 503.668 143.507 505.88 144.996 507.378" fill="#576B32"/>
<path d="M138.008 482.308C140.643 485.835 142.215 490.226 142.484 494.811C142.614 497.022 142.447 499.272 142.657 501.469C142.868 503.668 143.507 505.88 144.996 507.378" stroke="#2E3D0E" stroke-width="2" stroke-miterlimit="10"/>
</g>
<g id="Vector_25">
<path d="M127.774 474.542C129.37 474.968 131.096 474.778 132.783 474.67C135.063 474.522 137.338 474.53 139.593 474.694C140.64 474.77 141.692 474.881 142.666 475.225C144.387 475.832 145.747 477.12 147.06 478.378" fill="#576B32"/>
<path d="M127.774 474.542C129.37 474.968 131.096 474.778 132.783 474.67C135.063 474.522 137.338 474.53 139.593 474.694C140.64 474.77 141.692 474.881 142.666 475.225C144.387 475.832 145.747 477.12 147.06 478.378" stroke="#2E3D0E" stroke-width="2" stroke-miterlimit="10"/>
</g>
<g id="Vector_26">
<path d="M144.084 487.555C145.66 489.05 147.41 489.857 149.408 490.005C151.406 490.153 153.449 489.886 155.455 489.973C158.945 490.126 162.295 491.381 164.946 493.531" fill="#576B32"/>
<path d="M144.084 487.555C145.66 489.05 147.41 489.857 149.408 490.005C151.406 490.153 153.449 489.886 155.455 489.973C158.945 490.126 162.295 491.381 164.946 493.531" stroke="#2E3D0E" stroke-width="2" stroke-miterlimit="10"/>
</g>
<g id="Vector_27">
<path d="M154.679 499.33C156.871 501.253 160.771 502.538 163.522 504.622C164.761 505.562 166.863 506.274 168.347 506.444" fill="#576B32"/>
<path d="M154.679 499.33C156.871 501.253 160.771 502.538 163.522 504.622C164.761 505.562 166.863 506.274 168.347 506.444" stroke="#2E3D0E" stroke-width="2" stroke-miterlimit="10"/>
</g>
<g id="Vector_28">
<path d="M158.674 504.983C159.072 505.947 158.361 508.198 158.269 509.257C158.174 510.376 158.08 511.52 158.322 512.588C158.529 513.482 158.962 514.283 159.393 515.073" fill="#576B32"/>
<path d="M158.674 504.983C159.072 505.947 158.361 508.198 158.269 509.257C158.174 510.376 158.08 511.52 158.322 512.588C158.529 513.482 158.962 514.283 159.393 515.073" stroke="#2E3D0E" stroke-width="2" stroke-miterlimit="10"/>
</g>
</g>
</g>
<g id="leaf_4">
<path id="Vector_29" d="M136.527 324.831C127.968 340.252 141.679 360.601 135.774 377.083C137.991 371.164 143.938 367.085 150.211 364.196C156.485 361.309 163.357 359.283 169.194 355.817C178.773 350.127 184.999 340.562 185.871 330.187C186.63 321.172 183.034 302.557 169.113 302.558C158.426 302.56 140.763 317.202 136.529 324.831L136.527 324.831Z" fill="#576B32" stroke="#2E3D0E" stroke-width="2" stroke-miterlimit="10"/>
<g id="Group_4">
<g id="Vector_30">
<path d="M170.895 302.659C167.767 314.507 163.87 329.192 157.466 339.719C152.223 348.337 145.965 356.346 139.724 364.336" fill="#576B32"/>
<path d="M170.895 302.659C167.767 314.507 163.87 329.192 157.466 339.719C152.223 348.337 145.965 356.346 139.724 364.336" stroke="#2E3D0E" stroke-width="2" stroke-miterlimit="10"/>
</g>
<g id="Vector_31">
<path d="M169.119 308.98C167.45 312.13 164.682 314.732 161.323 316.305C160.156 316.853 158.924 317.279 157.763 317.841C156.464 318.47 155.269 319.267 154.08 320.061" fill="#576B32"/>
<path d="M169.119 308.98C167.45 312.13 164.682 314.732 161.323 316.305C160.156 316.853 158.924 317.279 157.763 317.841C156.464 318.47 155.269 319.267 154.08 320.061" stroke="#2E3D0E" stroke-width="2" stroke-miterlimit="10"/>
</g>
<g id="Vector_32">
<path d="M165.694 320.809C163.33 324.522 159.797 327.547 155.635 329.42C153.629 330.324 151.483 330.963 149.517 331.936C147.549 332.911 145.716 334.292 144.84 336.216" fill="#576B32"/>
<path d="M165.694 320.809C163.33 324.522 159.797 327.547 155.635 329.42C153.629 330.324 151.483 330.963 149.517 331.936C147.549 332.911 145.716 334.292 144.84 336.216" stroke="#2E3D0E" stroke-width="2" stroke-miterlimit="10"/>
</g>
<g id="Vector_33">
<path d="M169.327 308.406C169.484 310.066 170.262 311.629 170.95 313.184C171.882 315.286 172.667 317.438 173.298 319.626C173.592 320.643 173.853 321.676 173.872 322.719C173.902 324.562 173.17 326.305 172.45 327.994" fill="#576B32"/>
<path d="M169.327 308.406C169.484 310.066 170.262 311.629 170.95 313.184C171.882 315.286 172.667 317.438 173.298 319.626C173.592 320.643 173.853 321.676 173.872 322.719C173.902 324.562 173.17 326.305 172.45 327.994" stroke="#2E3D0E" stroke-width="2" stroke-miterlimit="10"/>
</g>
<g id="Vector_34">
<path d="M162.987 328.388C162.138 330.408 161.992 332.348 162.549 334.288C163.106 336.228 164.066 338.061 164.682 339.987C165.754 343.337 165.746 346.948 164.659 350.217" fill="#576B32"/>
<path d="M162.987 328.388C162.138 330.408 161.992 332.348 162.549 334.288C163.106 336.228 164.066 338.061 164.682 339.987C165.754 343.337 165.746 346.948 164.659 350.217" stroke="#2E3D0E" stroke-width="2" stroke-miterlimit="10"/>
</g>
<g id="Vector_35">
<path d="M155.768 342.535C154.737 345.287 154.893 349.424 153.906 352.76C153.461 354.264 153.527 356.5 153.884 357.961" fill="#576B32"/>
<path d="M155.768 342.535C154.737 345.287 154.893 349.424 153.906 352.76C153.461 354.264 153.527 356.5 153.884 357.961" stroke="#2E3D0E" stroke-width="2" stroke-miterlimit="10"/>
</g>
<g id="Vector_36">
<path d="M151.883 348.289C151.126 349 148.794 349.132 147.781 349.42C146.71 349.726 145.616 350.042 144.709 350.646C143.951 351.153 143.357 351.841 142.772 352.521" fill="#576B32"/>
<path d="M151.883 348.289C151.126 349 148.794 349.132 147.781 349.42C146.71 349.726 145.616 350.042 144.709 350.646C143.951 351.153 143.357 351.841 142.772 352.521" stroke="#2E3D0E" stroke-width="2" stroke-miterlimit="10"/>
</g>
</g>
</g>
<g id="leaf_5">
<path id="Vector_37" d="M108.385 216.722C109.959 234.304 132.728 243.413 137.094 260.378C135.606 254.231 138.237 247.505 141.805 241.58C145.376 235.656 149.925 230.107 152.81 223.95C157.542 213.845 157.324 202.422 152.222 193.347C147.788 185.46 134.363 172.085 122.845 179.93C114.003 185.954 107.607 208.022 108.386 216.72L108.385 216.722Z" fill="#576B32" stroke="#2E3D0E" stroke-width="2" stroke-miterlimit="10"/>
<g id="Group_5">
<g id="Vector_38">
<path d="M124.37 179.027C128.443 190.589 133.473 204.932 134.091 217.246C134.596 227.326 133.92 237.474 133.247 247.597" fill="#576B32"/>
<path d="M124.37 179.027C128.443 190.589 133.473 204.932 134.091 217.246C134.596 227.326 133.92 237.474 133.247 247.597" stroke="#2E3D0E" stroke-width="2" stroke-miterlimit="10"/>
</g>
<g id="Vector_39">
<path d="M126.553 185.207C126.946 188.763 126.117 192.485 124.218 195.687C123.559 196.8 122.777 197.848 122.131 198.969C121.408 200.225 120.866 201.56 120.327 202.89" fill="#576B32"/>
<path d="M126.553 185.207C126.946 188.763 126.117 192.485 124.218 195.687C123.559 196.8 122.777 197.848 122.131 198.969C121.408 200.225 120.866 201.56 120.327 202.89" stroke="#2E3D0E" stroke-width="2" stroke-miterlimit="10"/>
</g>
<g id="Vector_40">
<path d="M130.302 196.936C130.436 201.352 129.211 205.856 126.815 209.759C125.66 211.641 124.24 213.382 123.158 215.3C122.075 217.219 121.333 219.399 121.692 221.491" fill="#576B32"/>
<path d="M130.302 196.936C130.436 201.352 129.211 205.856 126.815 209.759C125.66 211.641 124.24 213.382 123.158 215.3C122.075 217.219 121.333 219.399 121.692 221.491" stroke="#2E3D0E" stroke-width="2" stroke-miterlimit="10"/>
</g>
<g id="Vector_41">
<path d="M126.397 184.621C127.457 185.901 128.973 186.754 130.413 187.651C132.358 188.861 134.211 190.196 135.957 191.647C136.769 192.32 137.564 193.025 138.163 193.875C139.221 195.377 139.595 197.225 139.948 199.02" fill="#576B32"/>
<path d="M126.397 184.621C127.457 185.901 128.973 186.754 130.413 187.651C132.358 188.861 134.211 190.196 135.957 191.647C136.769 192.32 137.564 193.025 138.163 193.875C139.221 195.377 139.595 197.225 139.948 199.02" stroke="#2E3D0E" stroke-width="2" stroke-miterlimit="10"/>
</g>
<g id="Vector_42">
<path d="M132.274 204.747C132.706 206.89 133.674 208.572 135.221 209.86C136.767 211.148 138.587 212.122 140.175 213.365C142.937 215.528 144.955 218.51 145.891 221.817" fill="#576B32"/>
<path d="M132.274 204.747C132.706 206.89 133.674 208.572 135.221 209.86C136.767 211.148 138.587 212.122 140.175 213.365C142.937 215.528 144.955 218.51 145.891 221.817" stroke="#2E3D0E" stroke-width="2" stroke-miterlimit="10"/>
</g>
<g id="Vector_43">
<path d="M134.189 220.541C134.881 223.392 137.332 226.721 138.389 230.03C138.865 231.522 140.174 233.332 141.289 234.337" fill="#576B32"/>
<path d="M134.189 220.541C134.881 223.392 137.332 226.721 138.389 230.03C138.865 231.522 140.174 233.332 141.289 234.337" stroke="#2E3D0E" stroke-width="2" stroke-miterlimit="10"/>
</g>
<g id="Vector_44">
<path d="M134.216 227.495C133.989 228.514 132.127 229.94 131.448 230.751C130.732 231.61 130.002 232.491 129.59 233.504C129.247 234.354 129.142 235.261 129.041 236.157" fill="#576B32"/>
<path d="M134.216 227.495C133.989 228.514 132.127 229.94 131.448 230.751C130.732 231.61 130.002 232.491 129.59 233.504C129.247 234.354 129.142 235.261 129.041 236.157" stroke="#2E3D0E" stroke-width="2" stroke-miterlimit="10"/>
</g>
</g>
</g>
<g id="leaf_6">
<path id="Vector_45" d="M166.792 51.0667C159.978 67.342 135.535 69.0653 126.249 83.8994C129.524 78.4961 129.05 71.2817 127.442 64.5441C125.831 57.8071 123.174 51.1286 122.287 44.3789C120.833 33.302 124.493 22.4821 132.096 15.3917C138.703 9.23034 155.534 0.5862 164.136 11.5832C170.738 20.0266 170.162 43.013 166.791 51.0645L166.792 51.0667Z" fill="#576B32" stroke="#2E3D0E" stroke-width="2" stroke-miterlimit="10"/>
<g id="Group_6">
<g id="Vector_46">
<path d="M162.987 10.258C155.601 20.0359 146.459 32.1724 142.137 43.7187C138.599 53.1713 136.167 63.0484 133.74 72.9008" fill="#576B32"/>
<path d="M162.987 10.258C155.601 20.0359 146.459 32.1724 142.137 43.7187C138.599 53.1713 136.167 63.0484 133.74 72.9008" stroke="#2E3D0E" stroke-width="2" stroke-miterlimit="10"/>
</g>
<g id="Vector_47">
<path d="M158.991 15.4919C157.534 18.764 157.194 22.5664 158.036 26.1986C158.327 27.4609 158.756 28.6991 159.032 29.9654C159.341 31.3834 159.453 32.8222 159.563 34.2545" fill="#576B32"/>
<path d="M158.991 15.4919C157.534 18.764 157.194 22.5664 158.036 26.1986C158.327 27.4609 158.756 28.6991 159.032 29.9654C159.341 31.3834 159.453 32.8222 159.563 34.2545" stroke="#2E3D0E" stroke-width="2" stroke-miterlimit="10"/>
</g>
<g id="Vector_48">
<path d="M151.896 25.5152C150.425 29.6865 150.225 34.3551 151.328 38.8082C151.86 40.955 152.687 43.0487 153.138 45.2071C153.589 47.3677 153.634 49.6726 152.655 51.5583" fill="#576B32"/>
<path d="M151.896 25.5152C150.425 29.6865 150.225 34.3551 151.328 38.8082C151.86 40.955 152.687 43.0487 153.138 45.2071C153.589 47.3677 153.634 49.6726 152.655 51.5583" stroke="#2E3D0E" stroke-width="2" stroke-miterlimit="10"/>
</g>
<g id="Vector_49">
<path d="M159.306 14.982C157.909 15.877 156.207 16.2266 154.566 16.6415C152.348 17.2008 150.18 17.9065 148.078 18.7549C147.102 19.1482 146.132 19.5769 145.304 20.2025C143.842 21.3085 142.927 22.951 142.047 24.5497" fill="#576B32"/>
<path d="M159.306 14.982C157.909 15.877 156.207 16.2266 154.566 16.6415C152.348 17.2008 150.18 17.9065 148.078 18.7549C147.102 19.1482 146.132 19.5769 145.304 20.2025C143.842 21.3085 142.927 22.951 142.047 24.5497" stroke="#2E3D0E" stroke-width="2" stroke-miterlimit="10"/>
</g>
<g id="Vector_50">
<path d="M147.65 32.3531C146.59 34.2591 145.159 35.5642 143.297 36.3189C141.434 37.0735 139.407 37.4472 137.519 38.146C134.235 39.3633 131.411 41.5865 129.518 44.4461" fill="#576B32"/>
<path d="M147.65 32.3531C146.59 34.2591 145.159 35.5642 143.297 36.3189C141.434 37.0735 139.407 37.4472 137.519 38.146C134.235 39.3633 131.411 41.5865 129.518 44.4461" stroke="#2E3D0E" stroke-width="2" stroke-miterlimit="10"/>
</g>
<g id="Vector_51">
<path d="M141.072 46.8125C139.548 49.3165 136.207 51.7393 134.198 54.5683C133.293 55.8435 131.498 57.1682 130.132 57.786" fill="#576B32"/>
<path d="M141.072 46.8125C139.548 49.3165 136.207 51.7393 134.198 54.5683C133.293 55.8435 131.498 57.1682 130.132 57.786" stroke="#2E3D0E" stroke-width="2" stroke-miterlimit="10"/>
</g>
<g id="Vector_52">
<path d="M138.943 53.4341C138.85 54.4749 140.197 56.4032 140.6 57.3838C141.024 58.4216 141.454 59.4834 141.54 60.5759C141.609 61.4912 141.433 62.3881 141.257 63.2735" fill="#576B32"/>
<path d="M138.943 53.4341C138.85 54.4749 140.197 56.4032 140.6 57.3838C141.024 58.4216 141.454 59.4834 141.54 60.5759C141.609 61.4912 141.433 62.3881 141.257 63.2735" stroke="#2E3D0E" stroke-width="2" stroke-miterlimit="10"/>
</g>
</g>
</g>
<g id="leaf_7">
<path id="Vector_53" d="M60.3171 176.311C46.7138 201.36 66.4198 234.005 56.7597 260.731C60.3722 251.131 69.5194 244.443 79.0991 239.677C88.6788 234.91 99.1251 231.524 108.078 225.828C122.77 216.479 132.59 200.921 134.384 184.152C135.948 169.575 131.391 139.567 110.426 139.798C94.3291 139.977 67.0478 163.92 60.3172 176.315L60.3171 176.311Z" fill="#73894A" stroke="#405413" stroke-width="4" stroke-miterlimit="10"/>
<g id="Group_7">
<path id="Vector_54" d="M116.296 140.378C111.041 159.572 101.86 182.859 91.7233 199.969C83.4282 213.976 73.6315 227.015 63.8583 240.025" stroke="#5B7325" stroke-width="3" stroke-miterlimit="10"/>
<path id="Vector_55" d="M113.504 149.645C111.254 154.978 106.583 159.468 101.444 162.073C99.6605 162.978 97.7805 163.685 96.0099 164.615C94.0228 165.654 92.1835 166.963 90.3522 168.267" stroke="#5B7325" stroke-width="3" stroke-miterlimit="10"/>
<path id="Vector_56" d="M106.384 169.571C102.646 175.614 97.5496 180.435 91.18 183.527C88.1074 185.016 84.8412 186.085 81.8256 187.69C78.8099 189.295 75.9796 191.558 74.5727 194.684" stroke="#5B7325" stroke-width="3" stroke-miterlimit="10"/>
<path id="Vector_57" d="M112.661 152.216C111.946 154.766 114.025 157.814 114.989 160.312C116.294 163.684 117.377 167.146 118.229 170.661C118.623 172.297 118.97 173.959 118.949 175.638C118.911 178.611 117.73 181.432 116.567 184.171" stroke="#5B7325" stroke-width="3" stroke-miterlimit="10"/>
<path id="Vector_58" d="M100.652 182.857C99.0201 185.625 99.0102 189.077 99.7598 192.198C100.509 195.319 101.876 198.262 102.719 201.36C104.181 206.746 104.002 212.572 102.209 217.866" stroke="#5B7325" stroke-width="3" stroke-miterlimit="10"/>
<path id="Vector_59" d="M88.991 204.526C87.3109 208.982 88.3527 216.097 85.713 221.06C84.7293 222.905 83.509 225.009 84.2857 226.947" stroke="#5B7325" stroke-width="3" stroke-miterlimit="10"/>
<path id="Vector_60" d="M82.8826 213.899C81.7074 215.064 78.1861 215.314 76.6455 215.8C75.0162 216.313 73.3547 216.84 71.9577 217.837C70.7876 218.67 69.8636 219.793 68.9515 220.904" stroke="#5B7325" stroke-width="3" stroke-miterlimit="10"/>
</g>
</g>
<g id="leaf_8">
<path id="Vector_61" d="M122.61 933.233C104.316 959.516 60.2878 952.991 38.1557 975.739C46.0269 967.411 47.9363 954.389 47.6496 941.771C47.3587 929.153 45.1901 916.228 46.1884 903.872C47.8305 883.594 58.449 865.78 74.6425 856.148C88.7138 847.779 121.874 839.004 132.945 861.944C141.443 879.557 131.659 920.227 122.61 933.229L122.61 933.233Z" fill="#73894A" stroke="#405413" stroke-width="4" stroke-miterlimit="10"/>
<g id="Group_8">
<path id="Vector_62" d="M131.38 859.116C114.564 873.617 93.7398 891.626 81.6841 910.479C71.8174 925.914 63.7487 942.539 55.6991 959.123" stroke="#5B7325" stroke-width="3" stroke-miterlimit="10"/>
<path id="Vector_63" d="M122.401 866.898C118.575 872.145 116.526 878.773 116.633 885.562C116.668 887.92 116.957 890.29 116.963 892.65C116.971 895.293 116.622 897.895 116.272 900.485" stroke="#5B7325" stroke-width="3" stroke-miterlimit="10"/>
<path id="Vector_64" d="M105.941 881.936C101.749 888.777 99.6187 897 99.8769 905.351C100.001 909.377 100.669 913.424 100.646 917.438C100.622 921.457 99.8254 925.574 97.3746 928.543" stroke="#5B7325" stroke-width="3" stroke-miterlimit="10"/>
<path id="Vector_65" d="M123.159 866.119C120.337 867.166 117.181 867.12 114.108 867.215C109.955 867.34 105.837 867.746 101.781 868.433C99.8964 868.75 98.0103 869.133 96.301 869.923C93.2837 871.321 91.0314 873.891 88.8585 876.396" stroke="#5B7325" stroke-width="3" stroke-miterlimit="10"/>
<path id="Vector_66" d="M95.7807 892.437C93.1713 895.418 90.1335 897.182 86.5392 897.795C82.9449 898.408 79.2031 898.276 75.5847 898.78C69.2891 899.658 63.4271 902.511 58.9771 906.865" stroke="#5B7325" stroke-width="3" stroke-miterlimit="10"/>
<path id="Vector_67" d="M78.5492 915.564C74.8927 919.426 68.0398 922.428 63.3976 926.678C61.3059 928.594 57.6156 930.248 54.9564 930.811" stroke="#5B7325" stroke-width="3" stroke-miterlimit="10"/>
<path id="Vector_68" d="M72.2556 926.505C71.6938 928.319 73.3456 932.273 73.6849 934.174C74.0402 936.185 74.3971 938.241 74.132 940.216C73.9051 941.87 73.2515 943.396 72.6013 944.901" stroke="#5B7325" stroke-width="3" stroke-miterlimit="10"/>
</g>
</g>
<g id="leaf_9">
<path id="Vector_69" d="M169.735 754.55C181.977 784.14 226.392 787.197 243.145 814.163C237.236 804.342 238.159 791.211 241.143 778.95C244.127 766.685 249.019 754.523 250.685 742.24C253.424 722.076 246.865 702.401 233.107 689.521C221.152 678.329 190.631 662.656 174.903 682.699C162.829 698.084 163.674 739.913 169.731 754.554L169.735 754.55Z" fill="#73894A" stroke="#405413" stroke-width="4" stroke-miterlimit="10"/>
<g id="Group_9">
<path id="Vector_70" d="M179.648 677.989C192.975 695.753 206.858 720.07 214.59 741.067C220.92 758.258 225.234 776.224 229.54 794.152" stroke="#5B7325" stroke-width="3" stroke-miterlimit="10"/>
<path id="Vector_71" d="M186.207 687.103C188.821 693.047 189.396 699.959 187.83 706.566C187.285 708.863 186.493 711.116 185.977 713.417C185.401 715.999 185.183 718.613 184.964 721.219" stroke="#5B7325" stroke-width="3" stroke-miterlimit="10"/>
<path id="Vector_72" d="M198.719 707.396C202.003 715.015 201.419 722.522 199.351 730.629C198.354 734.54 196.825 738.35 195.975 742.28C195.126 746.21 195.014 750.404 196.768 753.826" stroke="#5B7325" stroke-width="3" stroke-miterlimit="10"/>
<path id="Vector_73" d="M187.904 689.535C190.433 691.161 193.532 691.791 196.513 692.54C200.542 693.55 204.482 694.826 208.296 696.361C210.069 697.072 211.832 697.853 213.33 698.991C215.978 701.003 217.624 703.997 219.211 706.912" stroke="#5B7325" stroke-width="3" stroke-miterlimit="10"/>
<path id="Vector_74" d="M206.263 721.826C207.523 725.208 210.518 726.835 213.899 728.205C217.28 729.575 220.963 730.242 224.39 731.508C230.351 733.711 235.465 737.754 238.878 742.96" stroke="#5B7325" stroke-width="3" stroke-miterlimit="10"/>
<path id="Vector_75" d="M216.579 746.753C219.318 751.31 226.134 755.317 230.29 760.032C231.719 761.649 233.546 763.7 234.605 765.372" stroke="#5B7325" stroke-width="3" stroke-miterlimit="10"/>
<path id="Vector_76" d="M220.403 758.779C220.561 760.673 218.102 764.18 217.366 765.963C216.589 767.855 215.796 769.783 215.634 771.767C215.499 773.43 215.807 775.06 216.115 776.666" stroke="#5B7325" stroke-width="3" stroke-miterlimit="10"/>
</g>
</g>
<g id="leaf_10">
<path id="Vector_77" d="M171.378 391.731C183.621 421.321 228.035 424.378 244.789 451.345C238.88 441.524 239.803 428.392 242.787 416.131C245.771 403.866 250.663 391.704 252.328 379.421C255.068 359.257 248.509 339.582 234.751 326.702C222.796 315.51 192.275 299.837 176.546 319.88C164.472 335.265 165.317 377.094 171.374 391.735L171.378 391.731Z" fill="#73894A" stroke="#405413" stroke-width="4" stroke-miterlimit="10"/>
<g id="Group_10">
<path id="Vector_78" d="M180.514 315.789C193.839 333.552 208.502 357.249 216.234 378.25C222.562 395.44 230.838 414.079 235.138 432.003" stroke="#5B7325" stroke-width="3" stroke-miterlimit="10"/>
<path id="Vector_79" d="M187.532 325.49C190.146 331.434 191.04 337.136 189.474 343.743C188.929 346.04 188.137 348.293 187.621 350.594C187.045 353.176 186.827 355.79 186.608 358.396" stroke="#5B7325" stroke-width="3" stroke-miterlimit="10"/>
<path id="Vector_80" d="M199.97 344.916C202.59 352.488 203.072 359.703 201.001 367.81C200.003 371.72 198.473 375.531 197.624 379.461C196.774 383.39 196.662 387.585 198.417 391.007" stroke="#5B7325" stroke-width="3" stroke-miterlimit="10"/>
<path id="Vector_81" d="M189.414 328.286C191.943 329.912 196.521 331.017 199.501 331.766C203.53 332.776 205.936 332.931 209.75 334.465C211.523 335.175 213.133 335.322 214.972 336.174C217.986 337.569 221.499 339.962 223.086 342.875" stroke="#5B7325" stroke-width="3" stroke-miterlimit="10"/>
<path id="Vector_82" d="M207.753 359.153C209.013 362.535 212.165 364.016 215.547 365.386C218.928 366.756 222.611 367.423 226.038 368.689C231.999 370.892 237.113 374.935 240.526 380.141" stroke="#5B7325" stroke-width="3" stroke-miterlimit="10"/>
<path id="Vector_83" d="M218.227 383.934C220.966 388.491 227.072 390.202 231.97 394.566C233.715 396.123 234.734 397.797 236.091 402.592" stroke="#5B7325" stroke-width="3" stroke-miterlimit="10"/>
<path id="Vector_84" d="M215.956 377.497C216.115 379.392 214.745 384.728 214.008 386.511C213.229 388.402 212.505 390.337 212.273 392.315C211.861 395.835 212.532 400.186 212.84 401.792" stroke="#5B7325" stroke-width="3" stroke-miterlimit="10"/>
<path id="Vector_85" d="M224.588 399.987C224.746 401.882 223.909 405.323 223.176 407.106C222.397 408.997 222.191 413.179 222.562 415.456" stroke="#5B7325" stroke-width="3" stroke-miterlimit="10"/>
</g>
</g>
<g id="leaf_11">
<path id="Vector_86" d="M154.956 544.009C152.779 576.008 111.691 593.328 104.414 624.303C106.883 613.082 101.828 600.949 95.0997 590.308C88.3711 579.666 79.8681 569.733 74.3804 558.645C65.3674 540.441 65.3214 519.679 74.2486 503.015C82.0103 488.535 105.923 463.779 127.195 477.646C143.529 488.292 156.032 528.176 154.956 544.005L154.956 544.009Z" fill="#73894A" stroke="#405413" stroke-width="4" stroke-miterlimit="10"/>
<g id="Group_11">
<path id="Vector_87" d="M122.243 475.082C115.255 496.237 108.8 523.418 108.159 545.823C107.631 564.16 109.564 583.274 108.304 601.391" stroke="#5B7325" stroke-width="3" stroke-miterlimit="10"/>
<path id="Vector_88" d="M119.085 485.001C118.507 491.473 118.932 498.717 122.513 504.465C123.757 506.464 125.225 508.34 126.441 510.352C127.808 512.609 128.846 515.013 129.878 517.41" stroke="#5B7325" stroke-width="3" stroke-miterlimit="10"/>
<path id="Vector_89" d="M112.755 510.265C112.691 518.282 114.754 523.985 119.287 530.991C121.471 534.367 124.129 537.48 126.181 540.927C128.233 544.374 129.673 548.307 129.103 552.115" stroke="#5B7325" stroke-width="3" stroke-miterlimit="10"/>
<path id="Vector_90" d="M118.105 488.468C116.228 490.832 112.412 492.315 109.827 493.992C106.331 496.259 103.006 498.749 99.8803 501.446C98.4301 502.696 97.0065 504.006 95.9503 505.574C94.0825 508.34 93.4747 511.713 92.9006 514.994" stroke="#5B7325" stroke-width="3" stroke-miterlimit="10"/>
<path id="Vector_91" d="M110.239 524.421C110.12 528.035 107.508 530.997 104.739 533.394C101.973 535.79 98.6946 537.619 95.8488 539.937C90.9033 543.963 87.345 549.457 85.7672 555.503" stroke="#5B7325" stroke-width="3" stroke-miterlimit="10"/>
<path id="Vector_92" d="M108.125 551.822C106.975 557.029 104.031 562.042 100 566.886C97.9377 569.364 96.6634 572.467 96.2871 575.455" stroke="#5B7325" stroke-width="3" stroke-miterlimit="10"/>
<path id="Vector_93" d="M108.336 564.47C108.79 566.312 112.229 568.834 113.494 570.286C114.831 571.821 116.19 573.393 116.978 575.219C117.637 576.75 118.318 579.13 118.54 580.751" stroke="#5B7325" stroke-width="3" stroke-miterlimit="10"/>
</g>
</g>
<g id="leaf_12">
<path id="Vector_94" d="M223.666 37.2678C235.942 60.4171 214.855 90.3631 223.145 115.03C220.025 106.168 211.287 99.9529 202.022 95.5048C192.761 91.0566 182.572 87.8766 173.979 82.5755C159.871 73.8777 150.892 59.4937 149.913 44.0351C149.064 30.603 155.016 2.99259 175.776 3.33174C191.712 3.59346 217.592 25.8079 223.666 37.2596L223.666 37.2678Z" fill="#73894A" stroke="#405413" stroke-width="4" stroke-miterlimit="10"/>
<g id="Group_12">
<path id="Vector_95" d="M158.51 12.1854C180.325 9.46951 182.743 43.109 191.95 58.92C199.49 71.862 208.559 83.9241 217.61 95.9582" stroke="#5B7325" stroke-width="3" stroke-miterlimit="10"/>
<path id="Vector_96" d="M173.006 17.4332C177.38 21.197 182.85 19.7292 187.81 22.1523C189.535 22.9957 192.052 24.1588 193.611 25.2827C195.357 26.5433 196.637 27.7674 198.386 28.9746" stroke="#5B7325" stroke-width="3" stroke-miterlimit="10"/>
<path id="Vector_97" d="M183.439 38.1343C188.28 43.1486 191.844 40.3967 198.006 43.2729C200.976 44.6617 202.525 45.8764 205.094 47.3494C207.929 48.9767 210.143 50.069 211.386 52.9548" stroke="#5B7325" stroke-width="3" stroke-miterlimit="10"/>
<path id="Vector_98" d="M170.428 15.0945C172.156 18.0857 171.004 21.1314 169.929 23.4233C168.472 26.521 167.231 29.7054 166.22 32.9389C165.748 34.4417 165.325 35.9713 165.263 37.5208C165.159 40.2578 166.192 42.8637 167.21 45.3879" stroke="#5B7325" stroke-width="3" stroke-miterlimit="10"/>
<path id="Vector_99" d="M182.61 35.1488C184.091 37.7057 183.861 44.917 182.968 47.7893C182.075 50.6616 180.541 54.2752 179.561 57.1219C177.851 62.0758 177.507 65.6671 179.022 70.554" stroke="#5B7325" stroke-width="3" stroke-miterlimit="10"/>
<path id="Vector_100" d="M192.283 59.4977C193.731 63.6113 191.797 70.3872 193.014 75.1493C193.49 77.0119 195.045 81.5196 198.051 83.8164" stroke="#5B7325" stroke-width="3" stroke-miterlimit="10"/>
<path id="Vector_101" d="M200.072 71.824C201.18 72.9028 204.658 73.1543 206.161 73.6082C207.75 74.0877 209.373 74.5865 210.705 75.5097C211.823 76.2849 212.686 77.3234 213.536 78.3501" stroke="#5B7325" stroke-width="3" stroke-miterlimit="10"/>
</g>
</g>
</g>
</g>
</g>
<defs>
<clipPath id="clip0_1_6888">
<rect width="280" height="1298" fill="white"/>
</clipPath>
</defs>
</svg>
